# vtk DataFile Version 3.0
    
ASCII
DATASET UNSTRUCTURED_GRID
POINTS 528 float
0 0 0
1.5 0 0
5 0 0
5 1 0
1.5 1 0
0 1 0
0.6 0.45 0
0.8 0.45 0
0 0.7 0
0 0.3 0
0.1 0 0
0.2 0 0
0.3 0 0
0.4 0 0
0.5 0 0
0.6 0 0
0.7 0 0
0.8 0 0
0.9 0 0
1 0 0
1.1 0 0
1.2 0 0
1.3 0 0
1.4 0 0
1.5984 0 0
1.69956 0 0
1.80357 0 0
1.91051 0 0
2.02044 0 0
2.13347 0 0
2.24968 0 0
2.36916 0 0
2.49199 0 0
2.61828 0 0
2.74812 0 0
2.8816 0 0
3.01884 0 0
3.15994 0 0
3.30501 0 0
3.45415 0 0
3.60749 0 0
3.76514 0 0
3.92722 0 0
4.09385 0 0
4.26518 0 0
4.44131 0 0
4.6224 0 0
4.80858 0 0
5 0.2 0
5 0.4 0
5 0.6 0
5 0.8 0
4.80858 1 0
4.6224 1 0
4.44131 1 0
4.26518 1 0
4.09385 1 0
3.92722 1 0
3.76514 1 0
3.60749 1 0
3.45415 1 0
3.30501 1 0
3.15994 1 0
3.01884 1 0
2.8816 1 0
2.74812 1 0
2.61828 1 0
2.49199 1 0
2.36916 1 0
2.24968 1 0
2.13347 1 0
2.02044 1 0
1.91051 1 0
1.80357 1 0
1.69956 1 0
1.5984 1 0
1.4 1 0
1.3 1 0
1.2 1 0
1.1 1 0
1 1 0
0.9 1 0
0.8 1 0
0.7 1 0
0.6 1 0
0.5 1 0
0.4 1 0
0.3 1 0
0.2 1 0
0.1 1 0
0.629289 0.379289 0
0.7 0.35 0
0.770711 0.379289 0
0.770711 0.520711 0
0.7 0.55 0
0.629289 0.520711 0
0 0.9 0
0 0.8 0
0 0.6 0
0 0.5 0
0 0.4 0
0 0.2 0
0 0.1 0
1.2978 0.499711 0
1.79709 0.499826 0
2.30064 0.491275 0
2.8136 0.477753 0
0.316298 0.570376 0
0.332973 0.296713 0
1.05664 0.309074 0
3.31479 0.509368 0
1.03884 0.689134 0
3.80464 0.5 0
1.54784 0.696439 0
1.55032 0.315344 0
4.27598 0.50411 0
0.568919 0.757099 0
2.0488 0.687669 0
2.0513 0.317316 0
0.826423 0.741648 0
1.28313 0.750078 0
1.30684 0.249521 0
2.55157 0.690295 0
2.52399 0.319819 0
1.79464 0.752722 0
1.79256 0.245389 0
0.996049 0.488982 0
0.873213 0.208732 0
0.523209 0.208201 0
3.05377 0.314972 0
3.02549 0.679303 0
0.204926 0.802363 0
2.2897 0.734679 0
2.30315 0.2565 0
0.207145 0.44317 0
0.423367 0.454442 0
3.53535 0.708296 0
3.54055 0.281457 0
0.495228 0.605994 0
0.391218 0.739886 0
0.72325 0.176936 0
1.49563 0.5 0
2.79827 0.74665 0
2.79621 0.247734 0
4.65106 0.356407 0
0.176771 0.167528 0
4.06039 0.304818 0
4.05549 0.688548 0
0.917214 0.355743 0
0.89207 0.609444 0
4.56786 0.685837 0
1.98201 0.492321 0
0.971267 0.845485 0
1.13594 0.834042 0
1.44025 0.830412 0
3.29807 0.233045 0
3.2974 0.77177 0
1.16178 0.163997 0
1.14503 0.559529 0
1.45608 0.165527 0
0.150916 0.615107 0
1.64287 0.834385 0
1.64287 0.165615 0
0.705315 0.836155 0
0.496678 0.344694 0
1.20447 0.371119 0
0.694717 0.692238 0
1.39626 0.631125 0
0.372142 0.139576 0
1.94418 0.841334 0
1.94418 0.158666 0
2.5258 0.502689 0
3.79991 0.746058 0
3.78176 0.246882 0
1.64658 0.560503 0
1.40072 0.369797 0
1.69452 0.377085 0
1.01387 0.153972 0
1.8954 0.62719 0
1.89998 0.362159 0
4.35515 0.254689 0
2.12532 0.83301 0
2.13244 0.171507 0
4.30394 0.761047 0
2.14569 0.553851 0
0.599209 0.264586 0
0.485162 0.867298 0
0.138876 0.318846 0
2.99928 0.5 0
2.44806 0.169037 0
2.44806 0.830963 0
0.77617 0.260931 0
2.1923 0.373812 0
0.835014 0.876369 0
2.39383 0.620807 0
2.39894 0.370986 0
0.589377 0.623914 0
1.1639 0.686698 0
0.311874 0.868565 0
0.799922 0.626904 0
2.6434 0.829622 0
2.63372 0.167232 0
0.283433 0.4875 0
3.48784 0.523838 0
1.24818 0.856661 0
2.95172 0.116085 0
2.95172 0.883915 0
1.33905 0.125048 0
1.09276 0.416631 0
2.62812 0.568049 0
0.60605 0.114678 0
0.144011 0.878652 0
1.66905 0.655935 0
0.517099 0.515744 0
0.931687 0.716673 0
1.75262 0.849512 0
1.75353 0.148089 0
2.69869 0.376618 0
0.894924 0.500496 0
0.801301 0.112772 0
1.26474 0.621164 0
4.77327 0.537659 0
0.280975 0.726749 0
2.90107 0.637046 0
2.90118 0.3711 0
0.113352 0.526946 0
3.9991 0.497413 0
3.15355 0.167786 0
3.1542 0.836411 0
0.112689 0.725535 0
4.7624 0.762928 0
1.54343 0.897257 0
1.58895 0.418028 0
0.96485 0.264361 0
0.42444 0.655839 0
0.598726 0.894509 0
0.278803 0.112227 0
3.14021 0.452232 0
3.4458 0.830023 0
3.44972 0.172467 0
0.441898 0.268788 0
2.20113 0.666315 0
0.925073 0.105864 0
1.5492 0.101646 0
0.401425 0.57761 0
1.77648 0.617442 0
0.475054 0.105851 0
0.234988 0.566485 0
0.241997 0.348606 0
0.999112 0.592346 0
1.41608 0.269037 0
1.16157 0.269029 0
4.18538 0.167084 0
1.04946 0.90187 0
3.19988 0.592938 0
2.30519 0.913193 0
2.30519 0.0868071 0
4.51125 0.169672 0
4.79764 0.203817 0
0.111682 0.105761 0
3.68113 0.845668 0
3.66175 0.156287 0
0.348507 0.406822 0
3.42627 0.390261 0
3.40592 0.625438 0
4.48057 0.491604 0
0.484192 0.70421 0
1.64973 0.275378 0
1.34759 0.910098 0
2.09017 0.432717 0
0.82538 0.318339 0
3.95274 0.828372 0
3.94366 0.179663 0
0.289746 0.204187 0
3.65513 0.548109 0
1.38859 0.73676 0
0.118424 0.424716 0
0.510365 0.445628 0
1.18818 0.474769 0
1.25175 0.0848088 0
3.71651 0.385978 0
4.17119 0.835153 0
2.0518 0.89471 0
2.05232 0.10562 0
1.0488 0.797955 0
1.00313 0.398664 0
1.39895 0.528392 0
2.66945 0.724754 0
1.4943 0.594872 0
4.45616 0.810064 0
0.0952441 0.244883 0
1.54946 0.207055 0
1.30563 0.352141 0
2.28926 0.618032 0
2.81496 0.120279 0
2.81521 0.877268 0
1.08862 0.114036 0
1.90316 0.739972 0
1.89839 0.262662 0
3.90279 0.628418 0
3.88961 0.357923 0
1.85382 0.910596 0
1.85394 0.0890613 0
0.403556 0.908181 0
1.53799 0.792432 0
4.22357 0.339546 0
0.235566 0.919092 0
1.80273 0.348496 0
0.658463 0.761067 0
0.868908 0.438962 0
4.12614 0.561045 0
1.49337 0.38907 0
1.68981 0.477278 0
0.57274 0.32399 0
2.14288 0.271845 0
0.764563 0.911939 0
0.410189 0.345157 0
0.695868 0.271091 0
0.723703 0.0785777 0
2.55129 0.900504 0
2.54991 0.0990466 0
2.59449 0.420936 0
1.89489 0.53091 0
1.08935 0.215335 0
0.246529 0.646246 0
1.16393 0.923582 0
0.740016 0.755962 0
0.839035 0.55732 0
1.44625 0.927553 0
1.99402 0.601829 0
0.905589 0.90288 0
0.891303 0.808704 0
4.82392 0.378695 0
1.08246 0.509817 0
4.38599 0.648328 0
3.16756 0.299632 0
2.02154 0.774339 0
2.02626 0.229798 0
2.77394 0.593964 0
0.566908 0.56115 0
1.43239 0.0741785 0
1.25541 0.190619 0
1.98262 0.398216 0
1.65702 0.923172 0
1.66103 0.0770642 0
3.25818 0.0979232 0
3.26077 0.895989 0
0.0727778 0.65 0
0.671989 0.618071 0
1.19782 0.767816 0
1.09218 0.610515 0
0.212601 0.263461 0
2.40663 0.265751 0
2.40998 0.724082 0
4.47315 0.332599 0
4.62207 0.84795 0
0.861058 0.672669 0
0.484648 0.789079 0
2.29087 0.362372 0
1.34155 0.816802 0
2.18469 0.0897042 0
2.18341 0.911103 0
1.62069 0.750093 0
0.196885 0.704963 0
1.45869 0.684119 0
0.813124 0.191467 0
0.350217 0.0675925 0
1.70547 0.755024 0
0.62109 0.694148 0
2.66314 0.281102 0
1.23015 0.552594 0
2.20688 0.465503 0
1.12886 0.341463 0
0.190106 0.0839351 0
1.00364 0.0820263 0
1.95615 0.929328 0
1.95628 0.0706693 0
0.621606 0.185207 0
0.315263 0.792989 0
3.08786 0.583634 0
2.41418 0.515431 0
1.84968 0.818827 0
1.84852 0.180773 0
1.36775 0.202988 0
1.7138 0.223704 0
3.82923 0.881715 0
3.82923 0.118285 0
3.68902 0.691251 0
0.270341 0.422482 0
1.11706 0.755129 0
1.58092 0.512314 0
1.26919 0.426007 0
2.49036 0.603298 0
1.58365 0.607824 0
0.451895 0.181244 0
2.54354 0.792802 0
2.54049 0.212198 0
0.673622 0.917187 0
0.893148 0.276267 0
3.29119 0.358432 0
0.373508 0.22072 0
1.24533 0.289159 0
0.941901 0.439094 0
0.526747 0.282052 0
3.05023 0.891095 0
3.05023 0.108905 0
0.552526 0.067829 0
1.32526 0.677682 0
2.91704 0.760204 0
2.91959 0.266241 0
1.35815 0.444912 0
0.791644 0.813002 0
0.0788943 0.810726 0
0.534443 0.930089 0
2.23627 0.195527 0
2.22516 0.801855 0
0.437821 0.399348 0
0.941018 0.552801 0
0.650131 0.0585776 0
2.49181 0.419003 0
4.34095 0.883495 0
0.0662485 0.342338 0
0.552275 0.836887 0
0.553472 0.679715 0
0.937372 0.197026 0
4.13045 0.438288 0
0.985313 0.331135 0
4.35267 0.110706 0
2.42786 0.92141 0
2.4278 0.0785704 0
1.16305 0.0688845 0
0.951754 0.645637 0
1.62088 0.346459 0
2.79572 0.352799 0
1.73001 0.300248 0
2.11942 0.738576 0
1.97171 0.31403 0
1.72725 0.553122 0
1.86915 0.443062 0
0.644274 0.31912 0
3.54653 0.897367 0
3.54653 0.102633 0
0.862033 0.0648934 0
1.82991 0.674832 0
2.68387 0.0881393 0
2.68521 0.911141 0
1.97258 0.6862 0
0.763955 0.690868 0
3.58356 0.40718 0
0.752317 0.58389 0
3.15747 0.706405 0
2.71743 0.46502 0
4.21018 0.671583 0
1.76382 0.427045 0
1.32812 0.573311 0
3.36656 0.0931224 0
3.35883 0.902887 0
0.561814 0.38872 0
1.43269 0.446203 0
1.49204 0.258009 0
2.06181 0.550403 0
1.1926 0.616008 0
0.753402 0.319397 0
4.3585 0.382087 0
0.0788175 0.922515 0
4.63197 0.550329 0
4.67385 0.130354 0
2.89835 0.528916 0
4.88558 0.678545 0
3.7798 0.619348 0
0.847094 0.943955 0
0.567152 0.499754 0
0.39862 0.827666 0
1.2418 0.687304 0
0.370651 0.501686 0
2.9995 0.398055 0
0.17761 0.378169 0
0.830421 0.384956 0
4.05939 0.123048 0
0.338152 0.938348 0
0.15 0.945713 0
2.11285 0.633451 0
0.536118 0.137779 0
4.88581 0.86227 0
3.04483 0.211296 0
3.04269 0.792889 0
0.828939 0.498925 0
0.97638 0.77159 0
0.973629 0.929812 0
0.450879 0.513366 0
0.463698 0.93919 0
1.35 0.0528502 0
1.02337 0.23036 0
0.622524 0.825109 0
4.8982 0.104641 0
0.0627165 0.164395 0
2.72451 0.178465 0
2.73345 0.82407 0
1.4705 0.320251 0
0.728574 0.63969 0
0.18471 0.510654 0
2.35218 0.817897 0
2.35452 0.175365 0
0.0643195 0.477695 0
1.46859 0.757921 0
0.0588027 0.0588027 0
2.1192 0.351741 0
1.35384 0.30189 0
3.40023 0.733947 0
3.40089 0.28111 0
0.836207 0.251147 0
0.629381 0.578714 0
2.98579 0.589253 0
1.83219 0.566821 0
0.0671628 0.573293 0
4.89688 0.511802 0
1.25194 0.938068 0
3.29703 0.653728 0
0.868686 0.146792 0
1.75511 0.691191 0
2.23179 0.297093 0
0.34215 0.657249 0
0.41803 0.0651601 0
3.65827 0.275851 0
1.75332 0.936656 0
1.75433 0.0628428 0
2.22872 0.558995 0
0.664948 0.122795 0
CELLS 953 3812
3 521 107 244
3 234 521 244
3 465 230 150
3 221 230 465
3 194 392 353
3 353 132 293
3 131 211 412
3 123 195 352
3 35 36 205
3 63 64 206
3 202 247 500
3 105 195 380
3 194 353 293
3 392 122 353
3 134 202 500
3 109 208 285
3 128 377 185
3 105 358 195
3 122 287 395
3 373 12 236
3 138 234 244
3 107 247 202
3 297 446 336
3 298 337 436
3 174 437 212
3 11 12 373
3 165 278 208
3 111 350 197
3 169 297 336
3 170 337 298
3 131 198 306
3 56 271 281
3 200 395 287
3 131 412 229
3 110 254 237
3 115 334 452
3 123 419 195
3 107 202 474
3 139 234 266
3 29 360 283
3 70 282 361
3 229 412 8
3 110 263 203
3 110 203 264
3 412 97 8
3 355 54 289
3 136 440 238
3 137 239 441
3 159 207 340
3 105 371 358
3 208 278 333
3 212 437 245
3 56 57 271
3 153 349 204
3 151 438 342
3 171 209 392
3 126 333 249
3 53 54 355
3 131 306 211
3 136 264 203
3 120 204 349
3 249 333 350
3 187 290 351
3 241 415 435
3 122 392 209
3 18 374 242
3 171 321 209
3 128 185 403
3 136 260 440
3 137 441 261
3 122 395 353
3 123 352 396
3 140 191 317
3 131 378 198
3 195 419 380
3 111 197 389
3 48 332 258
3 192 358 371
3 153 204 325
3 40 41 261
3 58 59 260
3 145 351 290
3 126 285 208
3 52 355 230
3 213 489 277
3 136 203 274
3 161 215 343
3 162 344 216
3 35 205 294
3 64 295 206
3 87 306 479
3 107 474 244
3 4 231 75
3 135 277 489
3 18 19 374
3 41 386 261
3 58 260 385
3 108 262 248
3 138 339 196
3 48 49 332
3 134 500 276
3 113 393 212
3 183 452 334
3 182 283 360
3 181 361 282
3 52 53 355
3 140 365 191
3 237 254 379
3 120 359 204
3 122 209 287
3 225 276 500
3 174 212 393
3 198 378 472
3 160 225 500
3 132 415 241
3 172 299 271
3 173 272 300
3 139 222 521
3 108 248 351
3 176 312 232
3 160 500 247
3 126 208 333
3 149 199 327
3 161 367 215
3 36 405 205
3 63 206 404
3 139 266 357
3 152 284 253
3 232 312 390
3 139 521 234
3 151 322 438
3 17 219 318
3 28 29 283
3 70 71 282
3 159 383 207
3 171 380 419
3 125 298 307
3 109 372 208
3 134 388 202
3 173 300 280
3 112 280 300
3 146 300 272
3 147 271 299
3 115 452 310
3 138 489 213
3 138 196 423
3 198 479 306
3 75 231 343
3 203 263 448
3 124 215 367
3 128 482 377
3 108 351 273
3 87 88 306
3 153 253 284
3 114 291 267
3 162 267 291
3 181 435 415
3 137 448 263
3 184 269 371
3 161 231 304
3 179 307 298
3 142 408 295
3 143 294 409
3 140 219 365
3 20 296 374
3 119 214 331
3 184 460 269
3 168 273 236
3 158 333 278
3 251 341 401
3 157 341 251
3 145 290 495
3 145 495 259
3 138 266 234
3 484 335 129
3 165 208 372
3 135 262 416
3 138 213 339
3 206 295 408
3 205 409 294
3 109 285 426
3 167 286 288
3 163 411 315
3 190 353 395
3 189 396 352
3 141 288 286
3 113 212 362
3 45 46 257
3 149 356 199
3 9 290 421
3 207 383 341
3 140 317 377
3 132 241 293
3 121 341 383
3 19 20 374
3 144 257 466
3 179 342 438
3 123 369 321
3 139 472 378
3 37 345 227
3 62 228 346
3 227 335 484
3 141 390 288
3 112 274 280
3 217 369 433
3 288 390 393
3 105 380 293
3 140 318 219
3 10 373 259
3 119 356 214
3 1 24 243
3 96 412 464
3 145 236 273
3 144 466 258
3 162 216 384
3 177 296 323
3 197 350 461
3 143 433 369
3 147 281 271
3 156 238 456
3 155 455 239
3 207 491 340
3 217 321 369
3 224 409 475
3 209 451 338
3 194 293 380
3 185 377 317
3 106 224 467
3 55 56 281
3 124 381 215
3 125 216 382
3 141 311 232
3 112 226 299
3 112 300 226
3 262 316 416
3 125 384 216
3 130 408 223
3 146 252 305
3 157 323 296
3 45 257 427
3 9 101 290
3 43 44 252
3 76 77 268
3 131 363 222
3 68 69 255
3 30 31 256
3 138 244 489
3 106 433 224
3 161 343 231
3 55 281 420
3 142 338 223
3 475 409 129
3 193 315 411
3 198 472 303
3 22 491 279
3 144 221 465
3 292 410 391
3 131 222 378
3 146 226 300
3 147 299 226
3 211 464 412
3 159 243 291
3 188 467 224
3 111 487 214
3 37 227 405
3 62 404 228
3 10 11 373
3 135 474 262
3 79 80 253
3 77 516 268
3 175 410 292
3 156 508 238
3 155 239 509
3 162 291 243
3 155 345 455
3 156 456 346
3 184 526 241
3 144 332 221
3 155 335 227
3 111 214 431
3 200 287 497
3 106 451 433
3 180 305 252
3 172 385 260
3 173 261 386
3 130 223 512
3 225 503 276
3 106 338 451
3 188 224 475
3 73 524 301
3 26 302 525
3 154 304 231
3 187 421 290
3 180 427 257
3 215 524 343
3 216 344 525
3 160 514 225
3 116 357 266
3 147 226 310
3 21 22 279
3 126 218 402
3 16 17 318
3 207 279 491
3 188 475 237
3 202 262 474
3 84 235 397
3 135 416 277
3 248 262 388
3 217 433 451
3 142 223 408
3 164 316 240
3 126 417 218
3 174 390 312
3 117 336 446
3 129 237 475
3 274 448 280
3 150 289 334
3 160 229 347
3 218 417 327
3 114 232 311
3 204 268 516
3 188 237 379
3 52 230 483
3 150 230 355
3 118 436 337
3 215 301 524
3 216 525 302
3 6 471 277
3 72 73 301
3 26 27 302
3 182 314 337
3 139 378 222
3 4 328 231
3 212 245 519
3 183 334 289
3 115 425 305
3 185 313 403
3 115 310 425
3 145 373 236
3 96 97 412
3 160 363 229
3 1 243 340
3 131 229 363
3 146 478 252
3 159 340 243
3 148 398 233
3 24 344 243
3 154 231 328
3 210 377 482
3 153 325 253
3 241 526 293
3 109 323 251
3 193 331 330
3 156 228 450
3 107 324 247
3 152 330 331
3 221 468 230
3 118 337 314
3 204 359 268
3 164 240 403
3 155 227 345
3 156 346 228
3 314 414 520
3 149 327 417
3 162 243 344
3 17 442 219
3 30 256 360
3 69 361 255
3 79 253 325
3 8 347 229
3 178 322 329
3 209 321 451
3 37 38 345
3 61 62 346
3 116 422 357
3 209 338 287
3 151 269 460
3 108 240 316
3 161 304 362
3 146 425 226
3 158 350 333
3 129 335 237
3 184 241 481
3 213 277 471
3 187 351 248
3 183 420 281
3 192 371 269
3 146 272 478
3 145 259 373
3 256 429 502
3 255 501 428
3 151 329 322
3 148 233 426
3 157 251 323
3 115 463 265
3 128 403 240
3 142 497 287
3 158 461 350
3 136 238 508
3 137 509 239
3 214 356 431
3 83 84 397
3 129 409 484
3 130 485 408
3 182 414 314
3 168 236 366
3 149 431 356
3 177 424 242
3 7 309 486
3 44 427 252
3 114 432 232
3 68 255 428
3 31 429 256
3 160 247 324
3 110 237 399
3 121 401 341
3 141 232 390
3 148 477 270
3 196 348 368
3 34 35 294
3 64 65 295
3 14 246 522
3 180 252 427
3 60 456 238
3 39 239 455
3 166 368 348
3 84 413 235
3 214 487 331
3 180 257 354
3 176 232 432
3 222 363 324
3 42 478 272
3 150 334 265
3 92 462 270
3 138 423 266
3 144 258 332
3 207 341 279
3 204 516 325
3 12 366 236
3 126 249 417
3 62 63 404
3 36 37 405
3 60 238 440
3 39 441 239
3 133 352 358
3 218 486 309
3 136 387 260
3 108 316 262
3 47 258 466
3 148 309 477
3 115 265 334
3 130 379 450
3 111 431 249
3 168 246 394
3 177 242 374
3 136 508 264
3 137 263 509
3 159 459 250
3 307 438 453
3 109 251 372
3 254 517 450
3 109 426 233
3 152 253 488
3 32 33 320
3 66 67 319
3 167 407 454
3 43 252 478
3 142 287 338
3 195 358 352
3 179 438 307
3 143 369 496
3 189 502 429
3 190 428 501
3 111 389 284
3 76 268 328
3 94 449 348
3 33 444 320
3 66 319 445
3 106 467 338
3 154 328 268
3 159 250 383
3 144 354 257
3 42 43 478
3 111 284 487
3 517 156 450
3 111 249 350
3 118 269 342
3 254 450 379
3 128 240 394
3 137 261 523
3 154 268 359
3 127 424 398
3 110 517 254
3 172 260 387
3 168 522 246
3 187 248 476
3 220 454 407
3 215 381 301
3 216 302 382
3 233 398 424
3 163 397 493
3 509 399 155
3 223 338 467
3 163 308 326
3 165 372 251
3 109 233 492
3 199 449 327
3 163 326 411
3 110 264 517
3 99 503 514
3 263 399 509
3 191 270 462
3 144 465 265
3 154 359 275
3 151 342 269
3 148 270 398
3 47 494 258
3 168 400 273
3 175 507 250
3 119 447 356
3 165 251 401
3 181 282 336
3 182 337 283
3 80 81 488
3 80 488 253
3 93 327 449
3 210 406 418
3 34 294 444
3 65 445 295
3 201 320 444
3 200 445 319
3 10 259 505
3 148 285 402
3 108 400 240
3 175 250 498
3 18 242 442
3 42 272 386
3 57 385 271
3 117 329 481
3 14 406 246
3 59 440 260
3 40 261 441
3 230 468 483
3 82 83 315
3 199 356 447
3 235 493 397
3 13 14 522
3 144 265 354
3 113 304 504
3 203 448 274
3 51 483 468
3 110 399 263
3 329 460 481
3 169 336 282
3 170 283 337
3 160 347 514
3 4 76 328
3 157 279 341
3 145 273 351
3 116 266 423
3 81 330 488
3 265 463 354
3 15 418 406
3 152 331 487
3 78 79 325
3 141 458 311
3 166 326 308
3 149 417 431
3 120 275 359
3 202 388 262
3 348 449 499
3 128 394 482
3 133 520 414
3 46 466 257
3 173 523 261
3 162 384 267
3 48 258 494
3 157 430 279
3 164 457 277
3 98 99 514
3 172 271 385
3 173 386 272
3 248 388 476
3 108 273 400
3 167 364 275
3 107 521 324
3 134 476 388
3 92 270 477
3 46 47 466
3 159 291 459
3 242 424 518
3 1 340 23
3 167 288 364
3 100 276 503
3 249 431 417
3 41 42 386
3 57 58 385
3 74 75 343
3 24 25 344
3 158 278 370
3 186 422 413
3 113 364 288
3 148 402 309
3 150 355 289
3 225 514 503
3 114 267 432
3 6 277 457
3 235 413 422
3 246 482 394
3 136 274 387
3 113 504 364
3 71 375 282
3 28 283 376
3 127 518 424
3 157 296 430
3 165 391 278
3 177 374 296
3 201 369 396
3 103 370 278
3 255 361 415
3 256 414 360
3 222 324 521
3 113 362 304
3 176 432 267
3 167 275 407
3 27 28 376
3 71 72 375
3 8 98 347
3 103 454 370
3 84 85 413
3 134 276 476
3 121 383 507
3 123 396 369
3 220 370 454
3 166 308 368
3 176 267 434
3 120 407 275
3 29 30 360
3 69 70 361
3 150 265 465
3 147 452 281
3 218 309 402
3 118 506 269
3 237 335 399
3 169 282 375
3 170 376 283
3 5 464 89
3 5 96 464
3 99 100 503
3 102 505 495
3 119 331 411
3 250 507 383
3 103 278 391
3 141 286 458
3 12 13 366
3 112 469 274
3 78 325 516
3 187 476 276
3 205 484 409
3 206 408 485
3 259 495 505
3 295 445 497
3 294 496 444
3 193 470 315
3 194 380 392
3 164 313 457
3 20 21 430
3 20 430 296
3 165 401 292
3 217 451 321
3 116 368 308
3 50 51 468
3 178 443 513
3 100 421 276
3 167 454 286
3 245 513 443
3 190 319 428
3 189 429 320
3 94 511 95
3 192 269 506
3 183 281 452
3 191 510 270
3 59 60 440
3 39 40 441
3 124 297 381
3 125 382 298
3 174 393 390
3 143 409 433
3 165 292 391
3 67 428 319
3 32 320 429
3 171 392 380
3 54 420 289
3 154 275 504
3 187 276 421
3 23 340 491
3 201 496 369
3 74 343 524
3 25 525 344
3 169 301 381
3 170 382 302
3 126 402 285
3 169 381 297
3 170 298 382
3 113 288 393
3 523 448 137
3 153 284 389
3 54 55 420
3 148 426 285
3 72 301 375
3 27 376 302
3 186 357 422
3 14 15 406
3 169 375 301
3 170 302 376
3 103 410 286
3 224 433 409
3 17 18 442
3 121 292 401
3 193 411 331
3 173 280 523
3 90 313 439
3 152 488 330
3 6 457 90
3 103 391 410
3 240 400 394
3 3 483 51
3 82 315 470
3 183 289 420
3 280 448 523
3 3 52 483
3 7 92 477
3 7 477 309
3 21 279 430
3 9 421 100
3 164 277 416
3 175 292 507
3 124 443 297
3 116 308 493
3 103 286 454
3 152 487 284
3 101 102 495
3 85 86 490
3 132 501 415
3 133 414 502
3 83 397 315
3 86 87 479
3 255 415 501
3 256 502 414
3 172 469 299
3 146 305 425
3 2 48 494
3 67 68 428
3 31 32 429
3 91 317 462
3 86 303 490
3 44 45 427
3 186 303 472
3 104 513 437
3 178 297 443
3 86 479 303
3 38 39 455
3 60 61 456
3 168 394 400
3 91 439 317
3 160 324 363
3 155 399 335
3 114 459 291
3 161 362 367
3 197 473 349
3 186 490 303
3 33 34 444
3 65 66 445
3 105 293 526
3 94 348 511
3 15 16 418
3 2 494 47
3 123 321 419
3 212 367 362
3 176 307 453
3 143 496 294
3 142 295 497
3 200 319 395
3 201 396 320
3 121 507 292
3 179 298 436
3 163 315 397
3 185 439 313
3 245 437 513
3 112 299 469
3 178 446 297
3 190 395 319
3 189 320 396
3 0 505 102
3 0 10 505
3 164 416 316
3 90 439 91
3 120 349 473
3 176 434 307
3 104 437 312
3 125 307 434
3 81 82 470
3 25 26 525
3 73 74 524
3 211 306 480
3 163 493 308
3 226 425 310
3 181 336 435
3 198 303 479
3 93 449 94
3 101 495 290
3 175 498 311
3 114 311 498
3 49 50 515
3 117 481 435
3 176 453 312
3 90 457 313
3 88 89 480
3 91 462 92
3 175 311 458
3 119 326 447
3 88 480 306
3 115 305 463
3 22 23 491
3 164 403 313
3 154 504 304
3 191 462 317
3 180 463 305
3 77 78 516
3 174 312 437
3 104 453 438
3 168 366 522
3 171 419 321
3 228 485 450
3 6 95 471
3 147 310 452
3 185 317 439
3 241 435 481
3 116 423 368
3 181 415 361
3 182 360 414
3 109 492 323
3 197 349 389
3 118 342 436
3 7 486 93
3 104 438 322
3 153 389 349
3 119 411 326
3 104 312 453
3 212 519 367
3 130 450 485
3 286 410 458
3 127 365 518
3 124 367 519
3 178 513 322
3 93 486 327
3 274 469 387
3 166 447 326
3 140 527 318
3 267 384 434
3 178 329 446
3 117 446 329
3 16 318 418
3 125 434 384
3 118 314 506
3 218 327 486
3 95 511 339
3 219 518 365
3 116 493 422
3 179 436 342
3 117 435 336
3 151 460 329
3 104 322 513
3 220 473 461
3 193 330 470
3 49 515 332
3 192 506 314
3 177 323 492
3 270 510 398
3 196 368 423
3 81 470 330
3 135 489 474
3 192 314 520
3 95 339 471
3 180 354 463
3 244 474 489
3 197 461 473
3 38 455 345
3 61 346 456
3 220 461 370
3 172 387 469
3 233 424 492
3 196 339 511
3 220 407 473
3 275 364 504
3 186 472 357
3 213 471 339
3 190 501 353
3 189 352 502
3 120 473 407
3 191 365 510
3 156 517 508
3 177 492 424
3 139 357 472
3 221 332 515
3 175 458 410
3 200 497 445
3 201 444 496
3 221 515 468
3 158 370 461
3 264 508 517
3 50 468 515
3 132 353 501
3 133 502 352
3 140 377 527
3 114 498 459
3 184 481 460
3 13 522 366
3 98 514 347
3 196 511 348
3 192 520 358
3 166 348 499
3 228 404 485
3 227 484 405
3 223 467 512
3 127 510 365
3 130 512 379
3 186 413 490
3 133 358 520
3 188 512 467
3 211 480 464
3 105 526 371
3 210 527 377
3 210 482 406
3 89 464 480
3 246 406 482
3 184 371 526
3 188 379 512
3 206 485 404
3 205 405 484
3 219 442 518
3 242 518 442
3 127 398 510
3 124 519 443
3 85 490 413
3 245 443 519
3 199 499 449
3 210 418 527
3 235 422 493
3 318 527 418
3 250 459 498
3 166 499 447
3 199 447 499
CELL_TYPES 953
5
5
5
5
5
5
5
5
5
5
5
5
5
5
5
5
5
5
5
5
5
5
5
5
5
5
5
5
5
5
5
5
5
5
5
5
5
5
5
5
5
5
5
5
5
5
5
5
5
5
5
5
5
5
5
5
5
5
5
5
5
5
5
5
5
5
5
5
5
5
5
5
5
5
5
5
5
5
5
5
5
5
5
5
5
5
5
5
5
5
5
5
5
5
5
5
5
5
5
5
5
5
5
5
5
5
5
5
5
5
5
5
5
5
5
5
5
5
5
5
5
5
5
5
5
5
5
5
5
5
5
5
5
5
5
5
5
5
5
5
5
5
5
5
5
5
5
5
5
5
5
5
5
5
5
5
5
5
5
5
5
5
5
5
5
5
5
5
5
5
5
5
5
5
5
5
5
5
5
5
5
5
5
5
5
5
5
5
5
5
5
5
5
5
5
5
5
5
5
5
5
5
5
5
5
5
5
5
5
5
5
5
5
5
5
5
5
5
5
5
5
5
5
5
5
5
5
5
5
5
5
5
5
5
5
5
5
5
5
5
5
5
5
5
5
5
5
5
5
5
5
5
5
5
5
5
5
5
5
5
5
5
5
5
5
5
5
5
5
5
5
5
5
5
5
5
5
5
5
5
5
5
5
5
5
5
5
5
5
5
5
5
5
5
5
5
5
5
5
5
5
5
5
5
5
5
5
5
5
5
5
5
5
5
5
5
5
5
5
5
5
5
5
5
5
5
5
5
5
5
5
5
5
5
5
5
5
5
5
5
5
5
5
5
5
5
5
5
5
5
5
5
5
5
5
5
5
5
5
5
5
5
5
5
5
5
5
5
5
5
5
5
5
5
5
5
5
5
5
5
5
5
5
5
5
5
5
5
5
5
5
5
5
5
5
5
5
5
5
5
5
5
5
5
5
5
5
5
5
5
5
5
5
5
5
5
5
5
5
5
5
5
5
5
5
5
5
5
5
5
5
5
5
5
5
5
5
5
5
5
5
5
5
5
5
5
5
5
5
5
5
5
5
5
5
5
5
5
5
5
5
5
5
5
5
5
5
5
5
5
5
5
5
5
5
5
5
5
5
5
5
5
5
5
5
5
5
5
5
5
5
5
5
5
5
5
5
5
5
5
5
5
5
5
5
5
5
5
5
5
5
5
5
5
5
5
5
5
5
5
5
5
5
5
5
5
5
5
5
5
5
5
5
5
5
5
5
5
5
5
5
5
5
5
5
5
5
5
5
5
5
5
5
5
5
5
5
5
5
5
5
5
5
5
5
5
5
5
5
5
5
5
5
5
5
5
5
5
5
5
5
5
5
5
5
5
5
5
5
5
5
5
5
5
5
5
5
5
5
5
5
5
5
5
5
5
5
5
5
5
5
5
5
5
5
5
5
5
5
5
5
5
5
5
5
5
5
5
5
5
5
5
5
5
5
5
5
5
5
5
5
5
5
5
5
5
5
5
5
5
5
5
5
5
5
5
5
5
5
5
5
5
5
5
5
5
5
5
5
5
5
5
5
5
5
5
5
5
5
5
5
5
5
5
5
5
5
5
5
5
5
5
5
5
5
5
5
5
5
5
5
5
5
5
5
5
5
5
5
5
5
5
5
5
5
5
5
5
5
5
5
5
5
5
5
5
5
5
5
5
5
5
5
5
5
5
5
5
5
5
5
5
5
5
5
5
5
5
5
5
5
5
5
5
5
5
5
5
5
5
5
5
5
5
5
5
5
5
5
5
5
5
5
5
5
5
5
5
5
5
5
5
5
5
5
5
5
5
5
5
5
5
5
5
5
5
5
5
5
5
5
5
5
5
5
5
5
5
5
5
5
5
5
5
5
5
5
5
5
5
5
5
5
5
5
5
5
5
5
5
5
5
5
5
5
5
5
5
5
5
5
5
5
5
5
5
5
5
5
5
5
5
5
5
5
5
5
5
5
5
5
5
5
5
5
5
5
5
5
5
5
5
5
5
5
5
5
5
5
5
5
5
5
5
5
5
5
5
5
5
5
5
5
5
5
5
5
5
5
5
5
5
5
5
5
5
5
5
5
5
5
5
5
5
5
5
5
5
5
5
5
5
5
5
5
5
5
5
5
5
5
5
5
5
5
5
5
5
5
5
5
5
5
5
5
5
5
5
5
5
5
5
5
POINT_DATA 528
SCALARS scalars float 1
LOOKUP_TABLE default
-0.199298775351653
-0.109921460589377
0.001226811200192
0.001051227038640
-0.111004730421368
-0.200052403040622
-0.409926985139906
-0.069721772307314
-0.194340918172953
-0.193314506674777
-0.198497259866631
-0.199671004757850
-0.204839910140025
-0.216332854108622
-0.212432169607201
-0.143181585973117
-0.077271235676870
-0.085124106036378
-0.095038117996670
-0.107652752641687
-0.110641241700161
-0.113311902167837
-0.112836680273568
-0.111628477181592
-0.107106875165977
-0.104340251075060
-0.101431025207014
-0.097709464034697
-0.094746984029778
-0.090993167526541
-0.087430848015344
-0.083726053823311
-0.080024601996923
-0.075780705031866
-0.072025338314817
-0.067712961886452
-0.063834452164731
-0.059664498382831
-0.054278602307138
-0.050410291551013
-0.044671242887901
-0.040016676920279
-0.034660909680962
-0.029341973711464
-0.024881001784876
-0.018982959598765
-0.012890457123876
-0.008008369118594
0.000310403828281
-0.000315417745408
-0.000868304877624
-0.000744474225494
-0.008787579736760
-0.014134804959816
-0.018624567976218
-0.024886612488386
-0.029736483251459
-0.034989114245158
-0.040261764688318
-0.044632408151163
-0.050161889416645
-0.054400400216440
-0.059712471172848
-0.063922412930251
-0.068028959116443
-0.072415168597139
-0.076290223274984
-0.080700919293725
-0.084494039337460
-0.088307359872016
-0.091982079430391
-0.095803570154674
-0.098809708029712
-0.102530030028240
-0.105367628721151
-0.108129737169350
-0.112524023208865
-0.114325788416011
-0.114779670647463
-0.113991718417269
-0.110721167357141
-0.102314142695147
-0.086698480744757
-0.082037776140086
-0.121772943721059
-0.194689658757317
-0.212756809279123
-0.206214310882869
-0.200934811745044
-0.199041177760177
-0.191665001892597
-0.069332478763080
-0.043095638511759
-0.037635328826493
-0.062148648642419
-0.201057188977666
-0.199946583722566
-0.196952213836263
-0.191931186878436
-0.190888577153536
-0.191850888520898
-0.196726275579679
-0.199252987013139
-0.113548280586855
-0.100960268640436
-0.085888276498680
-0.069783288339938
-0.180694371477507
-0.188187665050685
-0.109112867814338
-0.055098617573425
-0.111295084785946
-0.039273581528934
-0.110508449235891
-0.108504863120970
-0.024558369570863
-0.180426423755458
-0.094302238124384
-0.092931413822923
-0.079858672117503
-0.116319405206666
-0.114050328350702
-0.078710586123122
-0.079105282882900
-0.102914311682054
-0.101520321180426
-0.105310450429559
-0.088334062429873
-0.225291279543210
-0.062475927431616
-0.063533590024798
-0.194030828918202
-0.086888614018176
-0.085690876905052
-0.182937233076809
-0.182995524410174
-0.047051751165773
-0.047003998759319
-0.231490579095033
-0.197359850865843
-0.068163884719177
-0.108671221275314
-0.070846469033611
-0.070638486930263
-0.012061450316095
-0.196188528279702
-0.030141456434328
-0.030420768224554
-0.096707223462095
-0.093170548250304
-0.015187800613065
-0.094970730055303
-0.109253244754003
-0.115621705067194
-0.112578883296646
-0.054730960167464
-0.054815678959670
-0.113425908534156
-0.113443531734819
-0.111358647471353
-0.184683194073538
-0.107234905435619
-0.106254540182001
-0.074848938467465
-0.220977950336373
-0.112459776060085
-0.077319522146708
-0.114476387117279
-0.205335607412636
-0.098156860075988
-0.097006941077900
-0.079218452905143
-0.038888386967270
-0.038876099813543
-0.106039397358247
-0.111593061186199
-0.103380871582833
-0.107389627583886
-0.099224275907068
-0.097546772394104
-0.021776556936239
-0.092288997870649
-0.091032679745354
-0.023149865540153
-0.090148250977910
-0.176659488400941
-0.203720873467626
-0.188352413950945
-0.064234896079492
-0.081310550967433
-0.082029034683461
-0.071726174926444
-0.088543959709618
-0.093115184879531
-0.083526457442268
-0.082880846724660
-0.209991738833253
-0.115966658102843
-0.201702751276395
-0.070617144512970
-0.075709984456545
-0.075492833819725
-0.180955259254801
-0.048954876350688
-0.115357697481446
-0.065890345711489
-0.066033384995537
-0.112898705908767
-0.110204174646945
-0.076232382769679
-0.137215113382798
-0.198013841705500
-0.106658968545136
-0.235088940564415
-0.099673439637699
-0.104123363089837
-0.102995960818030
-0.073718116781598
-0.090652980493424
-0.085783562395604
-0.116318855735756
-0.009890596238816
-0.188376331884427
-0.067119235376233
-0.067109503760866
-0.184356090446466
-0.032279076165170
-0.059533343666022
-0.059658844400082
-0.191068900091720
-0.011081024210376
-0.109866121752892
-0.105709358101734
-0.102007365386670
-0.196571074735578
-0.124142777392656
-0.201307517628862
-0.059445036420776
-0.050584076115524
-0.050669886056681
-0.201553524873847
-0.089318464972643
-0.100928483313903
-0.108697854644547
-0.181103604016982
-0.103133939720981
-0.215631715456127
-0.182294131899799
-0.186709736215782
-0.107204369699472
-0.112620557120132
-0.113334308992701
-0.027272506493397
-0.112888615094709
-0.057832227904508
-0.086587110348325
-0.085742425028642
-0.016927097216010
-0.008041540442432
-0.197961950372877
-0.042982484092782
-0.043467830947780
-0.182053495769552
-0.051578844509419
-0.052163689921170
-0.018295763818869
-0.222368359010890
-0.105819222537414
-0.113694545258360
-0.091215852178262
-0.078801420586478
-0.034210286559350
-0.034347623489592
-0.195683408881456
-0.042661072903058
-0.114479001188089
-0.185425257677634
-0.209791549252253
-0.112752125037601
-0.113016935116661
-0.041279106423380
-0.027557233528753
-0.094722253309159
-0.093654053250294
-0.113342279941699
-0.105984566336135
-0.112636862795873
-0.074931636964411
-0.111076694706086
-0.018301081572471
-0.192867047703406
-0.109364386562389
-0.113043256288537
-0.086580999875848
-0.069918034589496
-0.070260989282594
-0.111013763429924
-0.099470504549319
-0.098185189349836
-0.036163523210044
-0.036173196391036
-0.100752976552266
-0.099628044409427
-0.208821074176964
-0.110578951291243
-0.025739366076069
-0.201001278323833
-0.100594324403374
-0.094453847065914
-0.083905199794318
-0.027573995822420
-0.108468811005671
-0.103577471398113
-0.243113544013554
-0.090408320602897
-0.084927004218834
-0.184719339861387
-0.073396670495329
-0.077929000817039
-0.078626186436490
-0.078070058626227
-0.077054509375934
-0.098231091776958
-0.110915911078636
-0.184733413047199
-0.114697681484163
-0.070406462165210
-0.077555374483284
-0.112025879481893
-0.095533436997745
-0.103732418948169
-0.096819216931391
-0.007230220779961
-0.111081415770073
-0.020972909004981
-0.058729330089904
-0.095679279805977
-0.094316968362093
-0.071384546338181
-0.267597535330810
-0.111227107349576
-0.113823955306221
-0.094832135891002
-0.106637783045458
-0.105543686143644
-0.055661615286936
-0.055757625830521
-0.190322632828088
-0.086678119811645
-0.116651193223016
-0.113145302445393
-0.191623331048394
-0.082587896501372
-0.083197304356927
-0.018536895463581
-0.014269549150487
-0.085694902865117
-0.214053476478791
-0.085974191648014
-0.114723904426934
-0.089505560643851
-0.090500453540044
-0.108250432370814
-0.188379147454085
-0.112983501157403
-0.081285176620079
-0.208079047615792
-0.105740879240876
-0.133291971682126
-0.074696708748096
-0.115193449521573
-0.088179294600053
-0.112768157746545
-0.199172331177351
-0.107582715453258
-0.097758147254055
-0.096643784992281
-0.132805799905092
-0.195097921294805
-0.061281752624972
-0.082679960176072
-0.101107465561898
-0.099909523943769
-0.113408386816697
-0.104205837536646
-0.037879549419706
-0.037442943278166
-0.042297517874384
-0.183017674403861
-0.115369718871814
-0.106864598411341
-0.112824158491418
-0.080465828113781
-0.108938604474291
-0.215700828036191
-0.078976287928175
-0.078529875758800
-0.084465113874267
-0.093040309568158
-0.055297832228444
-0.196414570477070
-0.113940193992598
-0.098615908948848
-0.242446710993100
-0.063114137777277
-0.063087712019823
-0.178220007946117
-0.116170503482792
-0.066903257244128
-0.066709500928619
-0.111638235181597
-0.077813049214018
-0.195805010871761
-0.167731483378416
-0.087750115108659
-0.089048139049924
-0.185480884249858
-0.101234584569830
-0.100692758963518
-0.080133835455917
-0.022078021040519
-0.190484641390867
-0.170920929734217
-0.218810068952676
-0.099396970942682
-0.027465519232692
-0.105619899156216
-0.021595698419654
-0.082718024653503
-0.081978675039685
-0.112514299869509
-0.102317166088034
-0.105858209458433
-0.070526544286718
-0.103231403132283
-0.092279043189025
-0.095642119957358
-0.103852550930188
-0.098373214904531
-0.124224260882133
-0.046299374615681
-0.046379132061503
-0.092985093454616
-0.101686280254049
-0.073959350855320
-0.074370227780394
-0.096954579626055
-0.066659362521971
-0.045092372716213
-0.050277837435479
-0.059212607842519
-0.073218947318163
-0.025914724998916
-0.101396366956430
-0.115092619451900
-0.053141010065753
-0.053257603342262
-0.301893844788193
-0.109629506237044
-0.110786309658007
-0.092582920081577
-0.115469164407122
-0.055589946395891
-0.022211434616109
-0.198933129942058
-0.013297154628582
-0.011108546417189
-0.067046492605696
-0.003262964512015
-0.039873858616826
-0.098181515979847
-0.325992366753336
-0.206614198799513
-0.116512723730159
-0.179806736243182
-0.064158634951412
-0.185374675056233
-0.071708600851859
-0.030199451182371
-0.206919340496459
-0.199468122297786
-0.091717528627613
-0.202425303435642
-0.003172059895012
-0.062797808712063
-0.063017889240440
-0.067607402327414
-0.107093272782815
-0.109362908191155
-0.187663216539816
-0.201078604641560
-0.112248103885634
-0.106787037098297
-0.113070814530029
-0.003093304580915
-0.196212792637206
-0.072646555824089
-0.072783129394871
-0.110458112635113
-0.063591751882131
-0.182530582153483
-0.085113039582144
-0.084219896030092
-0.188496906892519
-0.112485427877984
-0.198697877602174
-0.090749244336094
-0.113264205482624
-0.052149873579503
-0.052326725150773
-0.082387340296135
-0.146891080288705
-0.064693707662102
-0.100619148073253
-0.189060635862009
-0.003735654687361
-0.114484256325455
-0.055112856999483
-0.089738132321678
-0.104181028951741
-0.087623528097534
-0.183571642845550
-0.214211339184928
-0.043342490655958
-0.104028403361311
-0.102915731648959
-0.088001730262630
-0.092632503308478
