# vtk DataFile Version 3.0
    
ASCII
DATASET UNSTRUCTURED_GRID
POINTS 526 float
0 0 0
1.5 0 0
5 0 0
5 1 0
1.5 1 0
0 1 0
0.6 0.5 0
0.8 0.5 0
0 0.7 0
0 0.3 0
0.1 0 0
0.2 0 0
0.3 0 0
0.4 0 0
0.5 0 0
0.6 0 0
0.7 0 0
0.8 0 0
0.9 0 0
1 0 0
1.1 0 0
1.2 0 0
1.3 0 0
1.4 0 0
1.5984 0 0
1.69956 0 0
1.80357 0 0
1.91051 0 0
2.02044 0 0
2.13347 0 0
2.24968 0 0
2.36916 0 0
2.49199 0 0
2.61828 0 0
2.74812 0 0
2.8816 0 0
3.01884 0 0
3.15994 0 0
3.30501 0 0
3.45415 0 0
3.60749 0 0
3.76514 0 0
3.92722 0 0
4.09385 0 0
4.26518 0 0
4.44131 0 0
4.6224 0 0
4.80858 0 0
5 0.2 0
5 0.4 0
5 0.6 0
5 0.8 0
4.80858 1 0
4.6224 1 0
4.44131 1 0
4.26518 1 0
4.09385 1 0
3.92722 1 0
3.76514 1 0
3.60749 1 0
3.45415 1 0
3.30501 1 0
3.15994 1 0
3.01884 1 0
2.8816 1 0
2.74812 1 0
2.61828 1 0
2.49199 1 0
2.36916 1 0
2.24968 1 0
2.13347 1 0
2.02044 1 0
1.91051 1 0
1.80357 1 0
1.69956 1 0
1.5984 1 0
1.4 1 0
1.3 1 0
1.2 1 0
1.1 1 0
1 1 0
0.9 1 0
0.8 1 0
0.7 1 0
0.6 1 0
0.5 1 0
0.4 1 0
0.3 1 0
0.2 1 0
0.1 1 0
0.629289 0.429289 0
0.7 0.4 0
0.770711 0.429289 0
0.770711 0.570711 0
0.7 0.6 0
0.629289 0.570711 0
0 0.9 0
0 0.8 0
0 0.6 0
0 0.5 0
0 0.4 0
0 0.2 0
0 0.1 0
1.2986 0.498108 0
1.79939 0.500465 0
2.30343 0.491251 0
2.81671 0.477713 0
0.337838 0.345049 0
0.33978 0.617224 0
3.31781 0.509336 0
1.03761 0.632887 0
1.04183 0.357652 0
3.80803 0.5 0
1.54422 0.693331 0
1.55268 0.310468 0
4.27911 0.50419 0
2.05142 0.687753 0
2.05386 0.317132 0
0.518379 0.228578 0
1.27363 0.74255 0
1.27667 0.244274 0
0.523565 0.772983 0
0.801786 0.769924 0
0.800974 0.230813 0
2.55451 0.690565 0
2.52694 0.319616 0
1.79215 0.750069 0
1.79259 0.245488 0
3.05619 0.311105 0
3.02905 0.6794 0
2.29236 0.734717 0
2.30581 0.256416 0
0.194101 0.507028 0
0.419638 0.492341 0
3.53844 0.708061 0
3.54375 0.281746 0
0.196179 0.809317 0
0.190776 0.186786 0
1.51382 0.493343 0
2.79946 0.752591 0
2.79946 0.247409 0
0.971807 0.827166 0
0.971831 0.172962 0
4.65228 0.355556 0
0.952432 0.500582 0
4.0631 0.304799 0
4.05903 0.688209 0
0.366523 0.811783 0
0.362653 0.186121 0
4.57093 0.686248 0
1.98466 0.49244 0
0.491035 0.621293 0
1.1274 0.500796 0
0.657328 0.254533 0
0.898047 0.654131 0
0.898047 0.345869 0
0.65301 0.745358 0
1.42309 0.828699 0
1.42309 0.171301 0
3.30122 0.233003 0
3.30057 0.77179 0
0.500338 0.37914 0
0.157052 0.34662 0
1.64263 0.834224 0
1.64811 0.157709 0
1.39326 0.638348 0
1.39424 0.369489 0
0.171492 0.64832 0
1.9446 0.841231 0
1.9446 0.158769 0
1.15328 0.853087 0
1.1533 0.146973 0
2.52877 0.502704 0
3.80326 0.746235 0
3.78507 0.246563 0
1.64864 0.560947 0
1.68507 0.387099 0
1.21144 0.366782 0
1.19402 0.632266 0
1.89792 0.628235 0
1.90209 0.361465 0
4.35614 0.254554 0
2.12655 0.833069 0
2.13385 0.171681 0
4.30765 0.761339 0
2.14838 0.553906 0
0.60839 0.879301 0
0.605625 0.123931 0
3.00255 0.5 0
2.45078 0.169359 0
2.45078 0.830641 0
2.19506 0.373669 0
0.773312 0.68526 0
0.775017 0.318894 0
2.39666 0.620831 0
2.40182 0.37089 0
0.735246 0.121072 0
2.64697 0.830644 0
2.63968 0.167176 0
0.74076 0.876905 0
0.587467 0.672055 0
3.49087 0.523799 0
0.299248 0.527057 0
0.421642 0.278168 0
0.453187 0.123946 0
0.456738 0.876046 0
2.95609 0.165328 0
2.95609 0.834672 0
0.611496 0.318202 0
2.63114 0.568172 0
1.31584 0.878524 0
1.31584 0.121476 0
0.890947 0.879268 0
0.890947 0.120732 0
0.428485 0.727276 0
1.68543 0.670228 0
1.7522 0.8491 0
1.75726 0.140305 0
2.70179 0.376397 0
1.12978 0.26673 0
1.11648 0.737548 0
4.79118 0.554936 0
2.90437 0.629002 0
2.90437 0.370998 0
0.888594 0.429569 0
0.888594 0.570625 0
4.00224 0.497302 0
3.15988 0.167106 0
3.15525 0.834809 0
0.272822 0.888897 0
0.115526 0.884474 0
1.5393 0.892423 0
1.54989 0.115078 0
0.269719 0.109175 0
0.506293 0.52837 0
4.76874 0.769104 0
0.113399 0.576684 0
0.115951 0.421529 0
1.58379 0.415532 0
3.1432 0.451735 0
0.105599 0.738176 0
3.45306 0.827352 0
3.45306 0.172648 0
0.11332 0.11332 0
1.77228 0.625201 0
2.20361 0.666359 0
0.281868 0.438958 0
0.0963802 0.262222 0
0.400938 0.402605 0
0.924309 0.738869 0
0.924312 0.261146 0
3.20291 0.592884 0
0.285822 0.747602 0
4.18567 0.166172 0
0.408562 0.592487 0
2.30604 0.913259 0
2.30604 0.0867405 0
4.51169 0.16947 0
3.68343 0.845608 0
3.66433 0.156119 0
4.79829 0.203104 0
0.277971 0.251586 0
3.42936 0.390364 0
3.40895 0.625374 0
0.968603 0.593207 0
0.968603 0.406793 0
1.65283 0.283878 0
1.06094 0.901609 0
1.06094 0.0983908 0
4.48303 0.491408 0
3.95646 0.828603 0
3.94305 0.18254 0
2.09285 0.432697 0
1.04346 0.453275 0
3.65848 0.548046 0
1.29465 0.604305 0
1.30086 0.409572 0
0.531466 0.449419 0
1.37209 0.732932 0
1.37257 0.266443 0
1.0467 0.547907 0
2.05283 0.894557 0
2.05336 0.105789 0
1.40077 0.534508 0
4.17385 0.835315 0
1.49587 0.604914 0
3.71992 0.385918 0
2.67222 0.725708 0
4.45588 0.806091 0
2.29205 0.618092 0
1.03037 0.724045 0
1.00382 0.274296 0
2.82165 0.118398 0
2.82165 0.881602 0
1.85385 0.910497 0
1.85457 0.0879892 0
3.90606 0.628551 0
3.89238 0.358167 0
1.90404 0.740189 0
1.89941 0.262369 0
1.53748 0.782215 0
1.51735 0.22548 0
4.22562 0.339346 0
1.80094 0.350927 0
1.49102 0.391485 0
0.362558 0.906558 0
0.360697 0.092304 0
0.249442 0.601582 0
4.12933 0.560917 0
1.22501 0.914282 0
1.22502 0.0857277 0
1.70906 0.486213 0
1.20974 0.546495 0
2.14501 0.271982 0
2.55266 0.900735 0
2.55162 0.098954 0
2.59749 0.420791 0
1.8974 0.531574 0
0.822128 0.624414 0
0.822371 0.376207 0
0.696426 0.328603 0
1.45 0.0792071 0
1.45 0.920793 0
0.678679 0.670161 0
1.99641 0.601936 0
0.0780979 0.652636 0
0.568484 0.587696 0
0.53193 0.924855 0
4.3889 0.647922 0
0.733402 0.799104 0
4.82954 0.382516 0
0.731913 0.20065 0
3.17148 0.298877 0
0.444595 0.798833 0
0.443748 0.202754 0
2.0232 0.774905 0
2.02794 0.229437 0
0.972712 0.915031 0
0.972712 0.0849693 0
2.77673 0.593807 0
1.20787 0.455329 0
1.12467 0.411608 0
0.529199 0.0755813 0
1.98524 0.397799 0
0.849743 0.714141 0
0.849933 0.28678 0
1.65288 0.923667 0
1.66218 0.0768202 0
0.593189 0.201256 0
0.239151 0.345433 0
1.08055 0.209651 0
0.594614 0.799507 0
0.0738765 0.346074 0
3.26349 0.105125 0
3.26273 0.895833 0
1.0835 0.803585 0
4.47679 0.334351 0
1.1216 0.587753 0
0.812701 0.0808942 0
2.40947 0.265563 0
2.41275 0.724172 0
1.461 0.713407 0
1.45926 0.296851 0
0.202055 0.419856 0
2.29364 0.36225 0
4.62463 0.849121 0
1.62139 0.731328 0
0.511302 0.696916 0
2.18557 0.0899525 0
2.18427 0.910897 0
0.815436 0.920796 0
1.70774 0.753785 0
1.3672 0.453368 0
0.520482 0.312395 0
1.24679 0.828424 0
1.24341 0.171591 0
2.66641 0.280986 0
0.194047 0.915705 0
2.20961 0.465453 0
1.95645 0.929257 0
1.9567 0.0705094 0
0.354313 0.456491 0
0.676371 0.0789546 0
0.463441 0.435143 0
0.572362 0.38072 0
2.41706 0.515437 0
0.191431 0.0832567 0
3.09094 0.583703 0
1.5716 0.555406 0
3.83249 0.882701 0
3.83249 0.117299 0
1.85216 0.815763 0
1.84969 0.178984 0
1.70538 0.22015 0
1.14785 0.0662182 0
1.14785 0.933796 0
3.69223 0.691077 0
0.20875 0.723907 0
0.677773 0.920978 0
2.49329 0.603392 0
2.54685 0.793339 0
2.54377 0.211907 0
0.523888 0.159341 0
1.19405 0.706051 0
1.20862 0.290199 0
1.29407 0.32446 0
1.32035 0.678642 0
3.2944 0.358236 0
0.526639 0.841921 0
3.05265 0.106314 0
3.05183 0.894444 0
1.60796 0.636167 0
0.185339 0.274609 0
0.666612 0.163399 0
0.182108 0.583403 0
2.91565 0.267017 0
2.90711 0.737651 0
0.641914 0.371363 0
0.0787896 0.813481 0
4.34064 0.883698 0
0.970094 0.666463 0
0.968068 0.334064 0
0.350026 0.265231 0
2.49474 0.418929 0
2.23825 0.195368 0
2.22701 0.802216 0
2.43057 0.925251 0
2.43057 0.074749 0
1.97371 0.313641 0
1.9746 0.686604 0
0.667992 0.836859 0
1.61859 0.349244 0
1.72931 0.302061 0
4.35279 0.110495 0
2.12268 0.736659 0
4.13315 0.438262 0
0.0757557 0.181625 0
1.86908 0.446192 0
2.79861 0.352605 0
0.351799 0.705383 0
1.73237 0.557692 0
1.83333 0.67899 0
1.37779 0.925603 0
1.37779 0.0743968 0
3.54951 0.896466 0
3.54951 0.103534 0
3.37785 0.0873407 0
3.37785 0.912659 0
3.58687 0.407336 0
2.72041 0.464914 0
4.21354 0.671438 0
3.16133 0.699916 0
2.68509 0.0840739 0
2.68506 0.918444 0
0.424663 0.655947 0
0.732756 0.267201 0
1.7707 0.432349 0
0.264492 0.675775 0
2.06436 0.550579 0
4.36414 0.38477 0
4.67395 0.130442 0
1.33616 0.798964 0
1.33616 0.201036 0
0.728038 0.733961 0
0.291821 0.81889 0
4.87292 0.677971 0
2.90148 0.527913 0
4.6441 0.560853 0
1.62646 0.487089 0
3.78322 0.619241 0
0.752482 0.626703 0
0.752482 0.373297 0
0.874959 0.801081 0
0.874289 0.199339 0
3.00274 0.397992 0
0.289317 0.177637 0
0.809548 0.84118 0
0.863473 0.500129 0
2.11555 0.63354 0
3.04783 0.20959 0
3.04559 0.785175 0
0.807678 0.158917 0
0.749971 0.0511189 0
0.448512 0.549413 0
4.88448 0.867574 0
1.13061 0.330751 0
0.826838 0.552447 0
0.826856 0.447631 0
0.0636864 0.936314 0
4.05816 0.123464 0
0.0619189 0.0619189 0
2.35468 0.818745 0
2.35682 0.174699 0
0.437728 0.346953 0
4.89854 0.104301 0
1.11415 0.66617 0
1.60103 0.225638 0
1.831 0.572711 0
2.12183 0.351681 0
3.40266 0.729187 0
3.40407 0.281171 0
2.72807 0.177926 0
2.73341 0.823994 0
0.450064 0.947997 0
2.99134 0.59077 0
0.573991 0.737364 0
2.95022 0.931473 0
2.95022 0.0685275 0
0.628812 0.625546 0
0.746794 0.943736 0
3.29904 0.654748 0
0.0705751 0.500873 0
2.23439 0.296934 0
0.449496 0.0525715 0
3.6615 0.275683 0
1.07447 0.288879 0
1.75819 0.695655 0
1.43738 0.451732 0
0.374103 0.536918 0
1.17681 0.783139 0
1.75217 0.940039 0
1.75433 0.0583009 0
2.23142 0.559012 0
1.17687 0.216671 0
1.25534 0.672763 0
0.580175 0.262993 0
CELLS 949 3796
3 221 330 50
3 254 108 518
3 467 235 149
3 50 330 49
3 221 235 467
3 108 202 518
3 194 399 360
3 404 405 177
3 360 130 289
3 125 195 359
3 405 276 177
3 105 195 385
3 107 246 349
3 194 360 289
3 399 124 360
3 168 298 335
3 169 336 299
3 175 440 215
3 105 364 195
3 335 298 429
3 336 428 299
3 124 287 400
3 220 290 495
3 386 12 233
3 132 202 307
3 246 363 349
3 197 400 287
3 109 251 239
3 110 495 290
3 125 423 195
3 115 328 450
3 87 377 229
3 56 270 284
3 11 12 386
3 365 54 288
3 132 246 202
3 215 440 244
3 84 327 186
3 109 262 201
3 109 201 263
3 157 361 300
3 158 301 362
3 398 84 186
3 382 187 15
3 187 342 15
3 105 378 364
3 107 203 493
3 29 368 282
3 70 281 369
3 53 54 365
3 134 444 241
3 135 242 445
3 107 248 381
3 172 209 399
3 87 88 377
3 150 437 343
3 134 263 201
3 124 399 209
3 172 316 209
3 124 400 360
3 125 359 401
3 132 236 511
3 220 355 290
3 56 57 270
3 132 511 237
3 107 381 246
3 107 493 248
3 4 231 75
3 1 24 232
3 191 364 378
3 195 423 385
3 134 258 444
3 135 445 259
3 245 425 434
3 153 320 208
3 48 330 260
3 77 309 210
3 22 211 310
3 163 216 346
3 164 347 217
3 40 41 259
3 58 59 258
3 134 201 274
3 192 323 470
3 157 278 361
3 158 362 279
3 18 213 358
3 148 306 204
3 6 326 234
3 118 373 203
3 147 205 305
3 422 148 203
3 52 365 235
3 148 334 203
3 141 212 472
3 142 473 213
3 41 390 259
3 58 258 389
3 239 251 387
3 107 422 203
3 124 209 287
3 151 326 200
3 75 231 346
3 24 347 232
3 184 450 328
3 48 49 330
3 173 296 270
3 174 271 297
3 148 204 334
3 147 333 205
3 103 283 275
3 165 275 283
3 89 230 377
3 183 282 368
3 182 369 281
3 163 231 300
3 81 370 212
3 6 277 90
3 157 442 210
3 158 211 443
3 163 371 216
3 108 307 202
3 52 53 365
3 8 240 97
3 139 416 293
3 140 292 415
3 130 425 245
3 121 214 367
3 192 463 323
3 164 496 232
3 123 193 455
3 232 496 301
3 207 293 416
3 206 415 292
3 144 477 224
3 144 225 477
3 127 299 303
3 172 385 423
3 28 29 282
3 70 71 281
3 146 270 296
3 145 297 271
3 156 200 323
3 174 297 286
3 201 262 448
3 133 383 234
3 132 307 414
3 112 286 297
3 150 317 437
3 81 212 337
3 18 338 213
3 135 448 262
3 122 463 192
3 208 320 417
3 138 238 468
3 175 215 411
3 126 216 371
3 115 450 308
3 185 272 378
3 154 225 264
3 155 265 224
3 6 234 277
3 180 303 299
3 100 237 511
3 144 224 265
3 144 264 225
3 185 458 272
3 6 95 326
3 122 192 344
3 123 345 193
3 136 230 418
3 10 386 243
3 156 505 200
3 141 337 212
3 142 213 338
3 190 360 400
3 189 401 359
3 182 434 425
3 157 210 461
3 158 462 211
3 151 200 367
3 77 210 442
3 22 443 211
3 138 468 388
3 234 383 277
3 176 468 238
3 45 46 257
3 118 203 334
3 130 245 289
3 37 353 227
3 62 228 354
3 99 100 511
3 141 472 249
3 142 250 473
3 125 376 316
3 136 418 240
3 121 333 214
3 136 377 230
3 218 376 438
3 88 89 377
3 105 385 289
3 9 101 247
3 160 241 447
3 159 446 242
3 143 257 460
3 112 274 286
3 137 436 243
3 136 229 377
3 87 229 305
3 164 217 393
3 180 343 437
3 163 346 231
3 164 232 347
3 140 438 376
3 223 415 474
3 146 284 270
3 218 316 376
3 209 449 339
3 152 312 357
3 194 289 385
3 165 283 285
3 143 460 260
3 106 223 466
3 137 247 436
3 138 285 283
3 145 253 302
3 97 240 418
3 126 391 216
3 127 217 392
3 147 439 214
3 153 208 525
3 96 418 230
3 112 226 296
3 112 297 226
3 127 393 217
3 114 238 304
3 176 311 468
3 129 416 222
3 19 20 268
3 79 80 267
3 154 318 225
3 155 224 319
3 128 479 332
3 55 56 284
3 45 257 433
3 106 438 223
3 144 280 264
3 68 69 255
3 30 31 256
3 147 214 333
3 111 273 265
3 154 420 249
3 155 250 421
3 139 339 222
3 159 353 446
3 160 447 354
3 474 415 128
3 10 11 386
3 227 332 479
3 147 305 464
3 137 386 233
3 43 44 253
3 55 284 419
3 12 306 233
3 90 277 384
3 144 273 280
3 137 243 386
3 17 18 358
3 181 302 253
3 188 466 223
3 145 226 297
3 146 296 226
3 143 221 467
3 160 499 241
3 159 242 500
3 173 389 258
3 174 259 390
3 185 522 245
3 106 449 438
3 113 285 411
3 144 265 273
3 157 300 231
3 158 232 301
3 73 520 294
3 26 295 521
3 159 332 227
3 132 237 363
3 37 227 409
3 62 410 228
3 215 244 516
3 106 339 449
3 188 223 474
3 129 222 504
3 229 464 305
3 221 465 235
3 143 330 221
3 110 264 280
3 181 433 257
3 98 511 236
3 216 520 346
3 217 347 521
3 197 287 502
3 146 226 308
3 285 388 411
3 167 325 236
3 167 397 240
3 148 475 306
3 162 363 237
3 50 465 221
3 77 78 309
3 21 22 310
3 136 240 397
3 138 304 238
3 167 240 325
3 218 438 449
3 139 222 416
3 203 373 493
3 188 474 239
3 183 313 336
3 103 340 276
3 163 300 366
3 149 288 328
3 128 239 474
3 216 294 520
3 217 521 295
3 96 230 488
3 89 488 230
3 188 239 387
3 274 448 286
3 72 73 294
3 26 27 295
3 102 243 436
3 115 308 435
3 108 454 439
3 118 334 402
3 115 435 302
3 162 237 352
3 81 82 370
3 4 322 231
3 1 232 321
3 233 306 475
3 184 328 288
3 178 357 312
3 94 470 323
3 161 373 384
3 149 235 365
3 141 249 290
3 142 291 250
3 157 231 322
3 158 321 232
3 202 246 381
3 117 336 313
3 121 408 333
3 136 464 229
3 204 402 334
3 145 489 253
3 52 235 484
3 208 384 373
3 214 454 367
3 37 38 353
3 61 62 354
3 162 352 247
3 245 522 289
3 472 122 344
3 473 345 123
3 114 362 301
3 113 300 361
3 160 228 451
3 86 87 305
3 152 280 273
3 120 405 404
3 142 268 350
3 19 268 338
3 80 337 267
3 209 316 449
3 137 233 475
3 205 333 408
3 159 227 353
3 160 354 228
3 100 352 237
3 30 256 368
3 69 369 255
3 157 322 442
3 158 443 321
3 96 97 418
3 151 234 326
3 179 317 324
3 154 249 344
3 155 345 250
3 184 419 284
3 150 272 458
3 141 355 267
3 133 234 483
3 129 480 416
3 128 415 479
3 249 472 344
3 250 345 473
3 209 339 287
3 137 261 412
3 145 271 489
3 177 276 340
3 141 290 355
3 132 414 236
3 108 254 454
3 145 435 226
3 185 245 478
3 199 398 430
3 128 332 239
3 142 350 291
3 18 19 338
3 80 81 337
3 250 291 421
3 249 420 290
3 141 267 337
3 142 338 268
3 191 378 272
3 116 335 429
3 152 341 340
3 98 99 511
3 313 424 512
3 98 236 325
3 171 350 268
3 178 312 275
3 151 483 234
3 167 236 414
3 117 428 336
3 150 324 317
3 9 247 352
3 10 243 490
3 102 490 243
3 115 459 269
3 134 241 499
3 135 500 242
3 170 267 355
3 8 325 240
3 12 13 306
3 101 436 247
3 68 255 426
3 31 427 256
3 109 239 407
3 256 427 492
3 255 491 426
3 44 433 253
3 181 253 433
3 139 502 287
3 34 35 292
3 64 65 293
3 114 431 238
3 151 367 454
3 181 257 356
3 103 275 312
3 42 489 271
3 147 252 439
3 183 424 313
3 149 328 269
3 152 273 341
3 214 439 454
3 133 248 383
3 152 357 280
3 60 447 444
3 39 445 446
3 241 444 447
3 242 446 445
3 176 238 431
3 162 349 363
3 207 506 293
3 206 292 507
3 134 396 258
3 114 304 362
3 143 260 330
3 148 422 261
3 162 247 412
3 151 254 483
3 107 349 261
3 137 412 247
3 133 381 248
3 303 437 456
3 131 359 364
3 115 269 328
3 101 102 436
3 47 260 460
3 291 350 515
3 180 437 303
3 134 499 263
3 135 262 500
3 129 387 451
3 132 363 246
3 251 510 451
3 139 287 339
3 36 37 409
3 62 63 410
3 106 466 339
3 111 341 273
3 261 349 412
3 43 253 489
3 195 364 359
3 135 259 514
3 42 43 489
3 156 351 505
3 143 356 257
3 32 33 315
3 66 67 314
3 196 413 382
3 173 258 396
3 117 272 343
3 192 318 344
3 193 345 319
3 140 376 501
3 186 430 398
3 510 160 451
3 136 252 464
3 251 451 387
3 109 510 251
3 222 339 466
3 500 407 159
3 216 391 294
3 217 295 392
3 182 281 335
3 183 336 282
3 113 411 366
3 137 475 261
3 123 455 331
3 150 343 272
3 262 407 500
3 235 465 484
3 109 263 510
3 143 467 269
3 107 261 422
3 177 340 341
3 83 84 398
3 204 306 513
3 154 344 318
3 155 319 345
3 215 366 411
3 157 461 278
3 158 279 462
3 33 452 315
3 66 314 453
3 496 164 393
3 103 312 340
3 51 484 465
3 47 494 260
3 59 444 258
3 40 259 445
3 34 292 452
3 65 453 293
3 165 285 361
3 116 324 478
3 170 395 267
3 171 268 394
3 266 496 393
3 113 361 285
3 161 493 373
3 200 326 508
3 189 492 427
3 190 426 491
3 156 323 463
3 178 403 495
3 114 496 266
3 143 269 356
3 42 271 390
3 57 389 270
3 151 454 254
3 324 458 478
3 168 335 281
3 169 282 336
3 15 16 382
3 1 321 23
3 4 76 322
3 136 397 252
3 110 420 264
3 111 265 421
3 109 407 262
3 166 362 304
3 201 448 274
3 79 267 395
3 20 394 268
3 122 329 463
3 14 15 342
3 269 459 356
3 147 464 252
3 35 507 292
3 64 293 506
3 187 382 413
3 198 315 452
3 197 453 314
3 177 485 404
3 110 280 357
3 205 503 305
3 84 85 327
3 207 416 480
3 206 479 415
3 103 276 372
3 166 372 276
3 8 98 325
3 174 514 259
3 108 439 457
3 213 473 481
3 46 460 257
3 211 462 375
3 210 374 461
3 153 525 348
3 165 361 278
3 166 279 362
3 225 318 486
3 224 487 319
3 173 270 389
3 174 390 271
3 76 77 442
3 22 23 443
3 148 261 475
3 120 404 523
3 161 383 493
3 46 47 460
3 48 260 494
3 119 519 403
3 114 266 431
3 74 75 346
3 24 25 347
3 252 457 439
3 149 365 288
3 220 495 403
3 71 379 281
3 28 282 380
3 131 512 424
3 113 366 300
3 161 384 277
3 255 369 425
3 256 424 368
3 41 42 390
3 57 58 389
3 248 493 383
3 199 430 329
3 134 274 396
3 176 431 266
3 178 275 524
3 219 404 485
3 119 374 519
3 120 523 375
3 210 309 374
3 211 375 310
3 198 376 401
3 176 266 432
3 165 406 275
3 152 340 312
3 202 381 518
3 27 28 380
3 71 72 379
3 168 281 379
3 169 380 282
3 9 352 100
3 103 372 283
3 166 276 405
3 154 264 420
3 155 421 265
3 146 450 284
3 125 401 376
3 166 405 279
3 165 278 406
3 94 508 95
3 161 277 383
3 117 498 272
3 213 481 358
3 190 314 426
3 189 427 315
3 149 269 467
3 120 375 462
3 119 461 374
3 239 332 407
3 29 30 368
3 69 70 369
3 120 279 405
3 119 406 278
3 110 290 420
3 111 421 291
3 293 453 502
3 292 501 452
3 166 304 517
3 112 469 274
3 67 426 314
3 32 315 427
3 194 385 399
3 138 388 285
3 205 327 503
3 50 51 465
3 59 60 444
3 39 40 445
3 218 449 316
3 179 441 497
3 184 284 450
3 114 301 496
3 95 508 326
3 244 497 441
3 191 272 498
3 168 294 391
3 169 392 295
3 72 294 379
3 27 380 295
3 172 399 385
3 514 448 135
3 168 391 298
3 169 299 392
3 74 346 520
3 25 521 347
3 168 379 294
3 169 295 380
3 54 419 288
3 94 323 508
3 126 298 391
3 127 392 299
3 212 476 472
3 78 79 395
3 20 21 394
3 119 278 461
3 120 462 279
3 140 415 438
3 184 288 419
3 54 55 419
3 220 519 355
3 174 286 514
3 286 448 514
3 219 350 523
3 85 503 327
3 170 374 309
3 171 310 375
3 3 484 51
3 198 501 376
3 138 283 517
3 223 438 415
3 93 318 470
3 92 471 319
3 167 307 457
3 118 402 348
3 3 52 484
3 91 320 471
3 170 355 519
3 130 491 425
3 131 424 492
3 196 331 413
3 171 523 350
3 255 425 491
3 256 492 424
3 13 513 306
3 5 488 89
3 5 96 488
3 78 395 309
3 21 310 394
3 204 513 342
3 90 384 417
3 171 394 310
3 170 309 395
3 104 497 440
3 126 441 298
3 67 68 426
3 31 32 427
3 173 469 296
3 2 48 494
3 212 370 476
3 44 45 433
3 86 305 503
3 163 366 371
3 0 490 102
3 0 10 490
3 91 417 320
3 166 517 372
3 121 351 408
3 90 417 91
3 176 303 456
3 145 302 435
3 93 486 318
3 92 319 487
3 187 348 402
3 219 515 350
3 159 407 332
3 38 39 446
3 60 61 447
3 215 371 366
3 105 289 522
3 179 298 441
3 33 34 452
3 65 66 453
3 176 432 303
3 180 299 428
3 2 494 47
3 125 316 423
3 205 408 327
3 197 314 400
3 198 401 315
3 179 429 298
3 127 303 432
3 192 470 318
3 193 319 471
3 182 335 434
3 244 440 497
3 190 400 314
3 189 315 401
3 14 342 513
3 193 471 320
3 112 296 469
3 140 501 292
3 139 293 502
3 122 476 329
3 104 440 311
3 116 478 434
3 63 64 506
3 35 36 507
3 25 26 521
3 73 74 520
3 186 408 351
3 226 435 308
3 111 291 515
3 175 411 388
3 153 348 413
3 176 456 311
3 82 83 509
3 16 17 482
3 104 456 437
3 85 86 503
3 13 14 513
3 245 434 478
3 186 327 408
3 123 481 473
3 208 417 384
3 182 425 369
3 183 368 424
3 91 471 92
3 93 470 94
3 167 414 307
3 108 457 307
3 115 302 459
3 172 423 316
3 175 311 440
3 153 413 331
3 146 308 450
3 204 342 402
3 123 331 481
3 181 459 302
3 104 437 317
3 117 343 428
3 7 92 487
3 7 486 93
3 199 329 476
3 187 402 342
3 167 457 397
3 138 517 304
3 175 468 311
3 156 329 430
3 104 311 456
3 133 518 381
3 215 516 371
3 162 412 349
3 179 324 429
3 177 341 485
3 187 413 348
3 179 497 317
3 266 393 432
3 178 495 357
3 126 371 516
3 274 469 396
3 196 481 331
3 127 432 393
3 180 428 343
3 116 429 324
3 156 430 351
3 76 442 322
3 23 321 443
3 193 320 455
3 228 480 451
3 122 472 476
3 175 388 468
3 153 331 455
3 156 463 329
3 117 313 498
3 104 317 497
3 196 382 482
3 129 451 480
3 150 458 324
3 116 434 335
3 153 455 320
3 119 403 524
3 119 524 406
3 191 498 313
3 191 313 512
3 283 372 517
3 186 351 430
3 181 356 459
3 38 446 353
3 61 354 447
3 16 482 382
3 200 508 323
3 118 348 525
3 173 396 469
3 111 485 341
3 133 483 518
3 196 358 481
3 199 509 398
3 197 502 453
3 198 452 501
3 196 482 358
3 252 397 457
3 190 491 360
3 189 359 492
3 254 518 483
3 160 510 499
3 199 370 509
3 199 476 370
3 121 505 351
3 130 360 491
3 131 492 359
3 263 499 510
3 200 505 367
3 110 357 495
3 219 523 404
3 185 478 458
3 83 398 509
3 191 512 364
3 17 358 482
3 220 403 519
3 129 504 387
3 207 410 506
3 206 507 409
3 118 525 373
3 222 466 504
3 121 367 505
3 63 506 410
3 36 409 507
3 131 364 512
3 82 509 370
3 188 504 466
3 105 522 378
3 227 479 409
3 228 410 480
3 208 373 525
3 170 519 374
3 171 375 523
3 185 378 522
3 206 409 479
3 207 480 410
3 188 387 504
3 7 477 486
3 7 487 477
3 126 516 441
3 244 441 516
3 178 524 403
3 275 406 524
3 225 486 477
3 224 477 487
3 111 515 485
3 219 485 515
CELL_TYPES 949
5
5
5
5
5
5
5
5
5
5
5
5
5
5
5
5
5
5
5
5
5
5
5
5
5
5
5
5
5
5
5
5
5
5
5
5
5
5
5
5
5
5
5
5
5
5
5
5
5
5
5
5
5
5
5
5
5
5
5
5
5
5
5
5
5
5
5
5
5
5
5
5
5
5
5
5
5
5
5
5
5
5
5
5
5
5
5
5
5
5
5
5
5
5
5
5
5
5
5
5
5
5
5
5
5
5
5
5
5
5
5
5
5
5
5
5
5
5
5
5
5
5
5
5
5
5
5
5
5
5
5
5
5
5
5
5
5
5
5
5
5
5
5
5
5
5
5
5
5
5
5
5
5
5
5
5
5
5
5
5
5
5
5
5
5
5
5
5
5
5
5
5
5
5
5
5
5
5
5
5
5
5
5
5
5
5
5
5
5
5
5
5
5
5
5
5
5
5
5
5
5
5
5
5
5
5
5
5
5
5
5
5
5
5
5
5
5
5
5
5
5
5
5
5
5
5
5
5
5
5
5
5
5
5
5
5
5
5
5
5
5
5
5
5
5
5
5
5
5
5
5
5
5
5
5
5
5
5
5
5
5
5
5
5
5
5
5
5
5
5
5
5
5
5
5
5
5
5
5
5
5
5
5
5
5
5
5
5
5
5
5
5
5
5
5
5
5
5
5
5
5
5
5
5
5
5
5
5
5
5
5
5
5
5
5
5
5
5
5
5
5
5
5
5
5
5
5
5
5
5
5
5
5
5
5
5
5
5
5
5
5
5
5
5
5
5
5
5
5
5
5
5
5
5
5
5
5
5
5
5
5
5
5
5
5
5
5
5
5
5
5
5
5
5
5
5
5
5
5
5
5
5
5
5
5
5
5
5
5
5
5
5
5
5
5
5
5
5
5
5
5
5
5
5
5
5
5
5
5
5
5
5
5
5
5
5
5
5
5
5
5
5
5
5
5
5
5
5
5
5
5
5
5
5
5
5
5
5
5
5
5
5
5
5
5
5
5
5
5
5
5
5
5
5
5
5
5
5
5
5
5
5
5
5
5
5
5
5
5
5
5
5
5
5
5
5
5
5
5
5
5
5
5
5
5
5
5
5
5
5
5
5
5
5
5
5
5
5
5
5
5
5
5
5
5
5
5
5
5
5
5
5
5
5
5
5
5
5
5
5
5
5
5
5
5
5
5
5
5
5
5
5
5
5
5
5
5
5
5
5
5
5
5
5
5
5
5
5
5
5
5
5
5
5
5
5
5
5
5
5
5
5
5
5
5
5
5
5
5
5
5
5
5
5
5
5
5
5
5
5
5
5
5
5
5
5
5
5
5
5
5
5
5
5
5
5
5
5
5
5
5
5
5
5
5
5
5
5
5
5
5
5
5
5
5
5
5
5
5
5
5
5
5
5
5
5
5
5
5
5
5
5
5
5
5
5
5
5
5
5
5
5
5
5
5
5
5
5
5
5
5
5
5
5
5
5
5
5
5
5
5
5
5
5
5
5
5
5
5
5
5
5
5
5
5
5
5
5
5
5
5
5
5
5
5
5
5
5
5
5
5
5
5
5
5
5
5
5
5
5
5
5
5
5
5
5
5
5
5
5
5
5
5
5
5
5
5
5
5
5
5
5
5
5
5
5
5
5
5
5
5
5
5
5
5
5
5
5
5
5
5
5
5
5
5
5
5
5
5
5
5
5
5
5
5
5
5
5
5
5
5
5
5
5
5
5
5
5
5
5
5
5
5
5
5
5
5
5
5
5
5
5
5
5
5
5
5
5
5
5
5
5
5
5
5
5
5
5
5
5
5
5
5
5
5
5
5
5
5
5
5
5
5
5
5
5
5
5
5
5
5
5
5
5
5
5
5
5
5
5
5
5
5
5
5
5
5
5
5
5
5
5
5
5
5
5
5
5
5
5
5
5
5
5
5
5
5
5
5
5
5
5
5
5
5
5
5
5
5
5
5
5
5
5
5
5
5
5
5
5
5
5
5
5
5
5
5
5
5
5
5
5
5
5
5
5
5
5
5
5
5
5
5
5
5
5
5
5
5
5
5
5
5
5
5
5
5
5
5
5
5
5
5
5
5
5
5
5
5
5
5
5
5
5
5
5
5
5
5
5
5
5
5
5
5
5
5
5
5
POINT_DATA 526
SCALARS scalars float 1
LOOKUP_TABLE default
-0.091166408578304
-0.054376081861867
0.001323661224655
0.001937766790832
-0.054218416945642
-0.090810705960210
-0.249416891155081
-0.015287768055050
-0.092027735174006
-0.092421482996439
-0.090399833923311
-0.089948271011567
-0.091057587778232
-0.096631872533081
-0.105235172839354
-0.056890772681568
-0.006455295608229
-0.015336399972318
-0.034859241078644
-0.040264066641503
-0.047031379107532
-0.050597096916903
-0.052735621586908
-0.053478285280877
-0.054283158305715
-0.053452778978537
-0.052731231801922
-0.051387319784652
-0.050193603988877
-0.048892924953884
-0.047252215694063
-0.045642916641792
-0.043723476027276
-0.041645984767479
-0.039487506383267
-0.037985513303092
-0.034483453625913
-0.033339271607137
-0.030644104802804
-0.028332264034116
-0.025333607842660
-0.023608654639419
-0.019247398384651
-0.015906340255599
-0.015636818447250
-0.010740606034608
-0.008890642306386
-0.003180336604166
0.001069474129338
0.000790604067515
0.000835682030399
0.001225240552560
-0.005901500360713
-0.010055132699787
-0.009197423650731
-0.015178369291424
-0.017751886341879
-0.019191540631380
-0.023792786768663
-0.024695954153928
-0.028063639460840
-0.030652508338873
-0.033251504200906
-0.034552350232599
-0.038045049980444
-0.039535321678577
-0.041726318905599
-0.043737137140703
-0.045664727849755
-0.047193051363218
-0.048933150402842
-0.050199550239653
-0.051456900072974
-0.052830621245324
-0.053450628356719
-0.054002698270158
-0.053267102449467
-0.052532144341884
-0.050498276209332
-0.047189284994822
-0.040533732781548
-0.034457455043157
-0.015424884682062
-0.006942827214515
-0.054907150937297
-0.103468295171444
-0.095839115622184
-0.090562252352557
-0.089491406791387
-0.090019731657373
-0.137263806621297
0.026680467368973
0.002149169041142
0.007603127141183
0.011041140367870
-0.091480384426200
-0.090963702335066
-0.091271979550437
-0.093133538729457
-0.092746557524626
-0.093537582589441
-0.091767485989815
-0.091409141150673
-0.054379500004321
-0.053126492076853
-0.045510689399982
-0.037773715656962
-0.078139472438600
-0.075817710904443
-0.028753933227298
-0.044658872033507
-0.045015375814411
-0.021782370383889
-0.054807009156358
-0.055033603581787
-0.013272468101523
-0.050065350100606
-0.049885649025155
-0.104894345359271
-0.052754569772009
-0.052763185598521
-0.103549811436846
-0.014081712789929
-0.018016898235539
-0.042831590177661
-0.043252037630367
-0.053692976031812
-0.053495176867254
-0.034733631072776
-0.035560169595212
-0.046806488580049
-0.046664440449309
-0.087053137651510
-0.065668973765337
-0.027246373110937
-0.027345601817315
-0.088469110195511
-0.088876471407953
-0.054399065191907
-0.038999684841862
-0.038858071804487
-0.037285454755226
-0.037407065086230
-0.007533153335544
-0.036493381848146
-0.016771123805921
-0.017182327047520
-0.085145847673311
-0.085511930234384
-0.008913188839932
-0.050638880075814
-0.081357321341276
-0.050868262345598
-0.022998808579248
-0.028083768331309
-0.028253508300636
-0.018335422853577
-0.053966823794709
-0.054184581896732
-0.030149283611330
-0.030227078523738
-0.092560691197177
-0.088728330503146
-0.054147565665856
-0.054136593300381
-0.054695724147652
-0.054437158119349
-0.087898798166093
-0.051254417434582
-0.051223072519173
-0.049089851685991
-0.049302103828243
-0.042990460093911
-0.022348914842715
-0.022346756932941
-0.054016197322540
-0.054431709824839
-0.051561508808210
-0.051493744484669
-0.052549384872594
-0.052402127780441
-0.012868107205400
-0.048859590337975
-0.048810847589159
-0.014006554636400
-0.047616695066571
-0.053919037355002
-0.058625807703420
-0.036381258758225
-0.044448233610041
-0.044502869765405
-0.047491070434048
-0.006551488654120
-0.010104906594187
-0.045043834814157
-0.044901545330271
-0.008412614184218
-0.041104438391700
-0.041212659977482
-0.010625412165955
-0.121238205769849
-0.029101039195361
-0.079245955871718
-0.072711125340768
-0.096349975821270
-0.095681641121665
-0.036338581164915
-0.036351274514292
-0.097271643762397
-0.041417308864332
-0.052851470049951
-0.053098541485677
-0.032157835871180
-0.031537881963605
-0.076274894186729
-0.054634201771389
-0.053468731791210
-0.053294409519754
-0.040274403678634
-0.048774036811462
-0.048374369201685
-0.006393713444295
-0.036688055995529
-0.036640497669724
-0.023863967775795
-0.023085465721352
-0.018854834287168
-0.032648241534283
-0.032617558177305
-0.089563020863836
-0.089951819461168
-0.054335161506447
-0.054687955671901
-0.090192632739475
-0.062481867084684
-0.007493668249395
-0.091053517604901
-0.090984156905085
-0.054202211105465
-0.032724154186684
-0.090555486475734
-0.028609418501730
-0.028883719315871
-0.090349964435942
-0.054092762442727
-0.047667848535808
-0.081494419059654
-0.091155406578809
-0.068579498647962
-0.032021844656204
-0.032085152323833
-0.031141359007255
-0.086227638563887
-0.015947985634055
-0.064337954431663
-0.046570181117218
-0.046589808022339
-0.010587751054769
-0.024345513352491
-0.025205893652835
-0.004175780426728
-0.087245934114547
-0.029395566403699
-0.029297969091815
-0.039023380796752
-0.038937377291000
-0.054597107839093
-0.045325505157927
-0.044796301888258
-0.010906088805888
-0.019325785048799
-0.019121233316838
-0.048543336853912
-0.044360019470893
-0.024903366885939
-0.054405637602141
-0.054503542424009
-0.124651164230170
-0.053937422646556
-0.054018397300401
-0.044386725288665
-0.049870541428502
-0.049823043057509
-0.054359490410338
-0.016143394412494
-0.055035986600431
-0.023270517296173
-0.040679507210368
-0.009462409304149
-0.046209505340998
-0.043365020515060
-0.040615986044080
-0.038907651351486
-0.038985124467689
-0.052315434835899
-0.052182460271765
-0.020872032154084
-0.020598718229853
-0.052346774351707
-0.052328236645261
-0.054769883098300
-0.055177078615129
-0.014140042025435
-0.053659056591023
-0.055257602805340
-0.091862235394630
-0.092257270612555
-0.084631842138643
-0.015666949329612
-0.051170533809608
-0.051239739798886
-0.053620286513642
-0.051225328638496
-0.048624260940335
-0.042902258472383
-0.042883081625193
-0.041932517284572
-0.051964509705469
-0.013799601379885
-0.013337737991480
0.010028146379472
-0.053983228126938
-0.053706721026805
-0.001462394983814
-0.050951659270303
-0.091871846941474
-0.162955252056705
-0.094799542214582
-0.011708222936874
-0.009403565373515
-0.004208776560943
-0.005154443111802
-0.032007369251403
-0.087687177795957
-0.088152059770455
-0.050452381224360
-0.050340516800045
-0.038470893979916
-0.038556318772293
-0.038837621343932
-0.050949251405691
-0.050856527360869
-0.097343868546872
-0.051083335192732
-0.021952007325336
-0.021250899534948
-0.053697959446665
-0.053695282723734
-0.080690742894812
-0.086143650965558
-0.045846711521176
-0.077369928450451
-0.092251338833341
-0.031097809903917
-0.031136822925721
-0.046475921978525
-0.011287335231285
-0.051022137498094
-0.020127154121178
-0.045121815055922
-0.045170321125608
-0.054744240922188
-0.055182933736253
-0.086586405099903
-0.046350600978712
-0.009581743323692
-0.054560449227948
-0.100232156641436
-0.048188399791469
-0.048171842631709
-0.019615049527992
-0.054284499721219
-0.053792440640937
-0.109161211372676
-0.051810612368792
-0.051787903850995
-0.040782678195743
-0.089650016281150
-0.046656086341091
-0.050908679150135
-0.050866235079070
-0.071034463431492
-0.009675347986536
-0.056627127732515
-0.138845919040636
-0.044394202880573
-0.090109370076073
-0.034214364323050
-0.054095250786051
-0.021741605215806
-0.021355935367965
-0.052698235846477
-0.052527821750997
-0.054141240895053
-0.049003417771066
-0.048827141563668
-0.023905380000446
-0.087189721830125
-0.009288807610459
-0.043638085004490
-0.043009703338800
-0.043039788703309
-0.103268298330074
-0.050634762852237
-0.050965346800533
-0.053763079043540
-0.053845487659166
-0.029357052735067
-0.101537222537240
-0.034229580616533
-0.034310877016098
-0.054518298126692
-0.087937626607619
-0.014724310756265
-0.087155199243145
-0.037161826743433
-0.037242720643313
-0.066279040561906
-0.090538204180020
-0.013090921463197
-0.037813307401885
-0.037527608402934
-0.081539951968032
-0.043554527921745
-0.047598249347503
-0.047726493996321
-0.044695663608753
-0.044667042387750
-0.051432552488444
-0.051459687804417
-0.011800134402030
-0.054524474980349
-0.054295970121368
-0.012983024159764
-0.048896147027409
-0.015437391143159
-0.090950364728063
-0.052382686017853
-0.038494114097103
-0.078519292928264
-0.053971076449055
-0.053536528499632
-0.052997677740271
-0.053174649757631
-0.025826176381499
-0.026359680048026
-0.029782716272761
-0.029672483737048
-0.027154520969143
-0.039889105067056
-0.014927120879804
-0.032037840549282
-0.040343320682356
-0.040395868860674
-0.068451539982464
-0.000864544230623
-0.053629982876421
-0.085228049174586
-0.049102038502494
-0.012622357555069
-0.006357171500826
-0.053324204200845
-0.053563865162617
-0.006009725744581
-0.088070863821779
-0.003911973670412
-0.036261906354180
-0.008039202390338
-0.053566568273306
-0.022143586400529
0.005591509435105
0.002101231203455
-0.028091950690878
-0.026731042670960
-0.036255112177883
-0.088908918706457
-0.016737136327941
-0.019451390799800
-0.048676561560759
-0.034538487085530
-0.034706447961805
-0.019028615863615
-0.011718885449296
-0.066213290677748
-0.002587370054918
-0.049965069291470
-0.010692606953839
-0.011144514892809
-0.090372801262424
-0.016426092442023
-0.090772308919352
-0.045988383735816
-0.045942035243102
-0.064882975126588
-0.001707004244575
-0.049592619016455
-0.054695526813966
-0.053176024209096
-0.048790001657561
-0.029443507838582
-0.029560252575467
-0.039755503752959
-0.039766618539343
-0.098148751930110
-0.036348575357593
-0.108692873533645
-0.036253444660026
-0.036232994724228
-0.069105157971519
-0.012249773701294
-0.029563822352980
-0.092730419084885
-0.047449103107221
-0.099315512207084
-0.025080275512791
-0.046060362888519
-0.054156538998469
-0.054794559193100
-0.067949696599950
-0.049602061617133
-0.053138953518517
-0.053054173533882
-0.046503333086970
-0.049790920333827
-0.052854588245507
-0.104758562932137
