# vtk DataFile Version 3.0
    
ASCII
DATASET UNSTRUCTURED_GRID
POINTS 522 float
0 0 0
1.5 0 0
5 0 0
5 1 0
1.5 1 0
0 1 0
0.6 0.49 0
0.8 0.49 0
0 0.7 0
0 0.3 0
0.1 0 0
0.2 0 0
0.3 0 0
0.4 0 0
0.5 0 0
0.6 0 0
0.7 0 0
0.8 0 0
0.9 0 0
1 0 0
1.1 0 0
1.2 0 0
1.3 0 0
1.4 0 0
1.5984 0 0
1.69956 0 0
1.80357 0 0
1.91051 0 0
2.02044 0 0
2.13347 0 0
2.24968 0 0
2.36916 0 0
2.49199 0 0
2.61828 0 0
2.74812 0 0
2.8816 0 0
3.01884 0 0
3.15994 0 0
3.30501 0 0
3.45415 0 0
3.60749 0 0
3.76514 0 0
3.92722 0 0
4.09385 0 0
4.26518 0 0
4.44131 0 0
4.6224 0 0
4.80858 0 0
5 0.2 0
5 0.4 0
5 0.6 0
5 0.8 0
4.80858 1 0
4.6224 1 0
4.44131 1 0
4.26518 1 0
4.09385 1 0
3.92722 1 0
3.76514 1 0
3.60749 1 0
3.45415 1 0
3.30501 1 0
3.15994 1 0
3.01884 1 0
2.8816 1 0
2.74812 1 0
2.61828 1 0
2.49199 1 0
2.36916 1 0
2.24968 1 0
2.13347 1 0
2.02044 1 0
1.91051 1 0
1.80357 1 0
1.69956 1 0
1.5984 1 0
1.4 1 0
1.3 1 0
1.2 1 0
1.1 1 0
1 1 0
0.9 1 0
0.8 1 0
0.7 1 0
0.6 1 0
0.5 1 0
0.4 1 0
0.3 1 0
0.2 1 0
0.1 1 0
0.629289 0.419289 0
0.7 0.39 0
0.770711 0.419289 0
0.770711 0.560711 0
0.7 0.59 0
0.629289 0.560711 0
0 0.9 0
0 0.8 0
0 0.6 0
0 0.5 0
0 0.4 0
0 0.2 0
0 0.1 0
1.29823 0.497011 0
1.7993 0.500433 0
2.30332 0.491252 0
2.81658 0.477715 0
0.336923 0.641275 0
0.337594 0.346079 0
3.31769 0.509337 0
1.05297 0.343793 0
1.03926 0.622176 0
3.80789 0.5 0
1.54024 0.695722 0
1.5492 0.30973 0
4.27898 0.504186 0
2.05132 0.68775 0
2.05376 0.317139 0
0.519804 0.767158 0
0.802989 0.764179 0
1.27103 0.751107 0
1.28518 0.249997 0
2.55439 0.690554 0
2.52682 0.319624 0
0.521836 0.222845 0
0.81228 0.212043 0
1.79214 0.75007 0
1.79257 0.245483 0
3.05607 0.311115 0
3.02892 0.679395 0
2.29225 0.734715 0
2.30571 0.256419 0
0.19924 0.488095 0
0.417931 0.495036 0
3.53831 0.70807 0
3.54362 0.281734 0
0.193444 0.811625 0
0.192169 0.191432 0
0.974924 0.824891 0
1.49856 0.498145 0
2.79933 0.752577 0
2.79933 0.247423 0
4.65223 0.35559 0
0.9532 0.488914 0
0.96889 0.171408 0
4.06299 0.3048 0
4.05889 0.688223 0
0.366244 0.179061 0
0.658187 0.738385 0
4.57081 0.686231 0
1.98455 0.492436 0
1.12748 0.490644 0
0.363796 0.802426 0
0.900346 0.338556 0
1.41809 0.828786 0
0.89583 0.646853 0
0.499078 0.618481 0
0.491346 0.367133 0
0.662746 0.250195 0
1.43196 0.164632 0
3.3011 0.233005 0
3.30044 0.771788 0
0.156279 0.644925 0
1.6426 0.834207 0
1.6426 0.165793 0
1.14689 0.152225 0
1.38952 0.642246 0
1.39184 0.36051 0
1.94457 0.841231 0
1.94457 0.158769 0
2.52865 0.502703 0
3.80312 0.746227 0
3.78493 0.246576 0
0.148596 0.342169 0
1.64915 0.5676 0
1.15272 0.85174 0
1.69486 0.37811 0
1.20887 0.62899 0
1.89782 0.6282 0
1.90201 0.361488 0
1.19533 0.361889 0
4.3561 0.254559 0
2.1265 0.833067 0
2.13379 0.171675 0
0.609238 0.872652 0
4.3075 0.761326 0
2.14827 0.553904 0
3.00242 0.5 0
2.45067 0.169346 0
2.45067 0.830654 0
0.606776 0.120576 0
0.776066 0.67364 0
2.19494 0.373675 0
2.39654 0.62083 0
2.40171 0.370894 0
0.741396 0.873855 0
0.78221 0.310093 0
0.451369 0.866758 0
2.64686 0.83063 0
2.63957 0.167187 0
0.591697 0.304666 0
0.733767 0.118858 0
3.49075 0.523801 0
0.297352 0.459006 0
1.11916 0.732209 0
0.894701 0.876309 0
0.59437 0.663756 0
2.95597 0.165307 0
2.95597 0.834693 0
2.63102 0.568167 0
1.31237 0.8718 0
0.421925 0.716843 0
1.31956 0.120881 0
0.424156 0.272832 0
0.449196 0.121069 0
1.68547 0.670639 0
1.75581 0.856934 0
1.75341 0.148197 0
0.887309 0.116486 0
2.70167 0.376406 0
4.79115 0.554953 0
0.888682 0.560696 0
2.90424 0.628997 0
2.90424 0.371003 0
0.275368 0.88687 0
4.00211 0.497307 0
3.15976 0.167107 0
3.15513 0.83481 0
1.5374 0.892482 0
0.889744 0.419967 0
1.13612 0.269657 0
0.509885 0.525766 0
0.115054 0.884946 0
4.76868 0.769058 0
0.267515 0.108261 0
0.102721 0.545955 0
0.925019 0.73758 0
1.54161 0.106498 0
1.59211 0.417427 0
0.116165 0.110745 0
3.14308 0.451737 0
3.45292 0.827358 0
3.45292 0.172642 0
2.20352 0.666359 0
1.77224 0.625201 0
0.100397 0.736906 0
0.274539 0.551545 0
0.39594 0.592617 0
3.20278 0.592883 0
0.104368 0.439269 0
0.098679 0.245602 0
4.18566 0.166209 0
0.407142 0.396383 0
0.921805 0.255776 0
2.30601 0.913257 0
2.30601 0.0867433 0
0.286589 0.241977 0
4.51167 0.169478 0
0.280868 0.732288 0
3.68334 0.84561 0
3.66423 0.156126 0
4.79826 0.203133 0
3.42923 0.39036 0
3.40883 0.625376 0
1.0586 0.0979564 0
0.240045 0.380737 0
1.65413 0.275546 0
4.48293 0.491416 0
1.05994 0.902248 0
0.971142 0.580123 0
3.95631 0.828593 0
3.94292 0.182554 0
2.09274 0.432697 0
1.04751 0.440715 0
1.29518 0.394935 0
3.65835 0.548048 0
1.3903 0.263126 0
1.3029 0.58715 0
0.971714 0.395779 0
0.529233 0.443105 0
1.39191 0.546667 0
1.37083 0.738079 0
1.49332 0.611056 0
2.05278 0.894559 0
2.05331 0.105787 0
4.17374 0.835307 0
3.71978 0.385921 0
2.6721 0.725706 0
1.04669 0.533866 0
1.03275 0.719079 0
4.45574 0.806072 0
2.29194 0.618089 0
2.82163 0.118405 0
2.82163 0.881595 0
1.85435 0.911616 0
1.85401 0.0891174 0
1.54418 0.210074 0
3.90593 0.628546 0
3.89225 0.358172 0
1.90398 0.740168 0
1.89936 0.262378 0
0.998458 0.269385 0
0.361332 0.902906 0
1.53216 0.784652 0
4.22554 0.339354 0
1.80399 0.348899 0
1.22456 0.0874216 0
4.1292 0.560922 0
1.48094 0.394543 0
1.21041 0.447958 0
1.69129 0.477173 0
2.14492 0.271978 0
2.55261 0.900729 0
2.55157 0.098959 0
0.82374 0.367681 0
0.695474 0.663229 0
2.59737 0.420797 0
1.8973 0.53155 0
0.736076 0.794657 0
1.22436 0.913802 0
0.822384 0.615444 0
0.360752 0.0899626 0
0.525083 0.921926 0
1.4463 0.917923 0
0.96296 0.07717 0
1.99631 0.601932 0
1.45 0.0781716 0
0.674849 0.326051 0
0.23806 0.642462 0
4.38876 0.647917 0
1.06627 0.204802 0
1.12406 0.578834 0
0.451347 0.192256 0
4.82952 0.382579 0
1.45736 0.716757 0
0.595246 0.792912 0
3.17135 0.298883 0
0.565906 0.581767 0
2.02313 0.774883 0
2.02788 0.229451 0
0.225026 0.295213 0
2.77661 0.593804 0
1.21199 0.538431 0
1.98514 0.397813 0
0.840494 0.27405 0
0.447012 0.790269 0
1.65295 0.924 0
1.65465 0.0765277 0
0.850796 0.707558 0
0.973087 0.916245 0
0.196376 0.715842 0
0.529664 0.0735585 0
3.2634 0.105129 0
3.26264 0.89583 0
0.736266 0.201309 0
4.47675 0.334364 0
0.816992 0.920547 0
2.40936 0.265571 0
2.41264 0.724168 0
1.11904 0.393039 0
0.599431 0.207212 0
2.29353 0.362255 0
0.512635 0.689922 0
4.62452 0.849074 0
1.61984 0.732178 0
0.810439 0.0807266 0
0.0718795 0.645557 0
2.18553 0.0899436 0
2.18423 0.910904 0
0.19629 0.918402 0
1.08474 0.802794 0
1.23858 0.194963 0
1.70745 0.759978 0
1.45603 0.313345 0
0.566092 0.374962 0
1.39278 0.448635 0
0.510649 0.305858 0
0.184209 0.568688 0
2.66629 0.280992 0
2.2095 0.465455 0
1.14632 0.0698243 0
1.95653 0.929481 0
1.95657 0.0707346 0
0.354122 0.5336 0
0.677841 0.91807 0
0.972219 0.659562 0
1.24514 0.826875 0
1.56249 0.556203 0
2.41694 0.515436 0
3.09082 0.583699 0
3.83236 0.88266 0
3.83236 0.11734 0
1.85017 0.820004 0
1.84878 0.180789 0
1.71434 0.220994 0
0.524625 0.835279 0
3.6921 0.691084 0
0.0671952 0.348805 0
2.49317 0.603388 0
0.189585 0.0816778 0
0.676391 0.0768913 0
1.20316 0.705394 0
1.32706 0.320288 0
2.54672 0.793317 0
2.54366 0.21192 0
0.459365 0.4386 0
1.14803 0.933575 0
3.29428 0.358237 0
1.29105 0.675494 0
1.22293 0.282411 0
3.05254 0.106327 0
3.05172 0.894433 0
1.60505 0.637159 0
0.667596 0.819303 0
0.637008 0.611893 0
2.91554 0.267017 0
2.90699 0.737657 0
0.529759 0.154295 0
0.669229 0.162507 0
4.34051 0.883655 0
2.49462 0.418932 0
2.23816 0.195375 0
2.22694 0.802202 0
0.348532 0.718857 0
2.43057 0.925271 0
2.43057 0.074729 0
0.353024 0.268811 0
1.97363 0.313654 0
1.97451 0.686587 0
0.0765459 0.816713 0
1.62257 0.345203 0
4.35279 0.110503 0
1.7308 0.301812 0
2.12261 0.736642 0
0.173062 0.412568 0
4.13304 0.438263 0
1.37535 0.923702 0
2.79848 0.352614 0
1.87171 0.443103 0
1.73155 0.557581 0
1.83325 0.678965 0
1.11541 0.658338 0
0.733759 0.726818 0
3.54939 0.896501 0
3.54939 0.103499 0
3.3777 0.0874012 0
3.3777 0.912599 0
3.58674 0.40733 0
1.34475 0.200483 0
2.72029 0.464917 0
4.2134 0.671441 0
2.68507 0.0840881 0
2.68504 0.918424 0
3.1612 0.699913 0
0.288791 0.814817 0
1.76562 0.42774 0
2.06426 0.550573 0
0.450318 0.551067 0
0.879944 0.802295 0
0.753077 0.618139 0
4.36406 0.384776 0
4.67395 0.130438 0
1.3803 0.072737 0
0.0711221 0.175664 0
0.812016 0.83864 0
0.966853 0.328724 0
4.87293 0.677984 0
2.90136 0.527913 0
4.64401 0.560862 0
1.60373 0.49925 0
3.78308 0.619245 0
1.3275 0.798497 0
0.431015 0.342404 0
0.72158 0.284456 0
3.00261 0.397994 0
0.86382 0.490004 0
0.826951 0.542556 0
2.11544 0.633536 0
1.17933 0.778353 0
3.04769 0.209604 0
3.04546 0.785169 0
1.06346 0.271909 0
4.88445 0.867542 0
0.0633118 0.936688 0
4.0581 0.123499 0
0.748634 0.357014 0
0.292307 0.172943 0
0.435605 0.642627 0
0.8274 0.437776 0
0.873024 0.189937 0
0.0622663 0.0622663 0
0.576049 0.730427 0
2.3546 0.818732 0
2.35675 0.174697 0
1.47024 0.243687 0
4.89852 0.104315 0
0.744119 0.0552951 0
0.747246 0.942495 0
0.799243 0.150177 0
0.448255 0.941504 0
1.8309 0.572662 0
2.12173 0.351684 0
3.40254 0.729189 0
3.40394 0.281168 0
2.72799 0.177918 0
2.73333 0.824014 0
0.166144 0.259955 0
2.99122 0.590771 0
2.95022 0.931489 0
2.95022 0.0685107 0
3.29891 0.654748 0
0.775458 0.254839 0
2.23428 0.296941 0
3.66137 0.27569 0
1.75655 0.694332 0
1.26235 0.328586 0
0.371471 0.454453 0
1.75277 0.941367 0
1.75262 0.059546 0
2.23131 0.559012 0
0.627364 0.362201 0
0.449243 0.0515068 0
CELLS 941 3764
3 252 516 108
3 220 333 50
3 233 149 468
3 50 333 49
3 220 233 468
3 108 516 203
3 193 398 358
3 358 130 291
3 84 322 184
3 384 84 184
3 123 194 357
3 139 375 308
3 105 194 388
3 164 266 296
3 193 358 291
3 358 398 122
3 168 299 338
3 169 339 300
3 132 265 203
3 174 439 215
3 105 361 194
3 338 299 428
3 339 427 300
3 107 258 328
3 122 287 403
3 399 12 234
3 11 12 399
3 198 403 287
3 177 408 401
3 109 248 240
3 123 420 194
3 124 360 200
3 115 329 450
3 87 369 224
3 56 270 285
3 110 230 359
3 132 203 246
3 290 363 54
3 4 228 75
3 177 277 408
3 109 262 202
3 109 202 263
3 215 439 244
3 118 211 362
3 105 379 361
3 29 367 284
3 70 283 368
3 54 363 53
3 114 296 266
3 134 443 241
3 135 242 444
3 258 350 328
3 107 383 247
3 124 200 376
3 165 371 230
3 170 209 398
3 108 203 265
3 107 487 211
3 150 438 343
3 134 263 202
3 122 398 209
3 170 316 209
3 122 403 358
3 123 357 404
3 180 359 230
3 107 246 383
3 426 147 213
3 138 205 458
3 75 228 346
3 56 57 270
3 87 88 369
3 158 200 360
3 148 206 315
3 147 321 214
3 230 371 409
3 192 361 379
3 194 420 388
3 147 332 213
3 152 345 197
3 134 259 443
3 135 444 260
3 22 212 306
3 243 422 433
3 163 228 303
3 48 333 261
3 6 337 231
3 204 289 441
3 163 216 346
3 164 347 217
3 40 41 260
3 58 59 259
3 139 280 375
3 99 249 235
3 134 202 275
3 119 442 191
3 15 190 351
3 400 190 15
3 77 319 210
3 155 221 269
3 6 279 90
3 152 197 302
3 89 232 369
3 107 211 423
3 107 247 487
3 52 363 233
3 111 441 289
3 1 24 237
3 18 218 365
3 81 356 205
3 176 310 238
3 118 345 211
3 87 224 302
3 41 391 260
3 58 259 390
3 240 248 389
3 122 209 287
3 119 191 348
3 185 450 329
3 154 436 210
3 48 49 333
3 138 349 205
3 171 297 270
3 172 271 298
3 183 284 367
3 182 368 283
3 132 235 249
3 81 205 349
3 163 372 216
3 52 53 363
3 143 221 475
3 159 212 462
3 130 422 243
3 140 416 293
3 141 292 415
3 156 337 206
3 6 95 337
3 170 388 420
3 127 300 305
3 166 277 280
3 137 463 239
3 208 293 416
3 207 415 292
3 103 280 277
3 28 29 284
3 70 71 283
3 138 458 236
3 146 270 297
3 145 298 271
3 18 324 218
3 172 298 286
3 202 262 447
3 204 370 289
3 143 475 229
3 112 286 298
3 144 489 218
3 150 317 438
3 99 100 249
3 153 278 229
3 135 447 262
3 143 269 221
3 174 215 412
3 126 216 372
3 115 450 307
3 154 334 303
3 143 229 278
3 108 340 256
3 186 272 379
3 88 89 369
3 137 250 463
3 179 305 300
3 136 232 429
3 206 414 315
3 186 456 272
3 6 231 279
3 158 327 200
3 24 347 237
3 163 346 228
3 154 210 471
3 189 358 403
3 188 404 357
3 77 210 436
3 86 87 302
3 164 296 237
3 182 433 422
3 108 265 340
3 472 108 213
3 213 108 426
3 98 99 235
3 8 245 97
3 238 310 469
3 22 462 212
3 90 279 374
3 159 448 212
3 124 376 213
3 147 214 332
3 151 359 309
3 155 385 236
3 45 46 257
3 136 429 245
3 130 243 291
3 37 352 226
3 62 227 353
3 123 378 316
3 10 399 239
3 110 481 230
3 167 308 375
3 154 281 334
3 219 378 437
3 105 388 291
3 142 257 461
3 112 275 286
3 118 395 345
3 161 241 446
3 160 445 242
3 179 343 438
3 164 217 394
3 156 206 362
3 197 345 395
3 163 303 364
3 155 320 221
3 133 405 231
3 136 224 369
3 148 491 206
3 141 437 378
3 223 415 474
3 152 423 211
3 146 285 270
3 136 369 232
3 219 316 378
3 209 449 341
3 19 20 264
3 193 291 388
3 142 461 261
3 106 223 467
3 152 211 345
3 145 251 304
3 126 392 216
3 127 217 393
3 113 282 412
3 132 434 265
3 112 225 297
3 112 298 225
3 127 394 217
3 137 239 399
3 129 416 222
3 144 218 324
3 55 56 285
3 114 238 308
3 128 479 336
3 45 257 431
3 106 437 223
3 124 213 332
3 144 253 489
3 137 399 234
3 17 18 365
3 211 487 362
3 68 69 254
3 30 31 255
3 166 280 282
3 9 101 250
3 140 341 222
3 152 302 454
3 160 352 445
3 161 446 353
3 139 282 280
3 474 415 128
3 226 336 479
3 43 44 251
3 79 80 268
3 162 366 235
3 282 387 412
3 55 285 419
3 164 237 347
3 187 467 223
3 98 235 366
3 181 304 251
3 145 225 298
3 146 297 225
3 154 303 228
3 153 229 314
3 142 220 468
3 161 502 241
3 160 242 503
3 171 390 259
3 172 260 391
3 186 519 243
3 106 449 437
3 111 269 288
3 231 405 279
3 21 22 306
3 73 517 294
3 26 295 518
3 160 336 226
3 37 226 410
3 62 411 227
3 195 384 413
3 106 341 449
3 153 253 465
3 187 223 474
3 159 237 296
3 129 222 507
3 215 244 514
3 4 323 228
3 96 429 232
3 224 454 302
3 143 288 269
3 143 273 288
3 142 333 220
3 214 321 521
3 180 309 359
3 220 466 233
3 181 431 257
3 198 287 505
3 216 517 346
3 217 347 518
3 103 277 342
3 146 225 307
3 10 11 399
3 138 236 289
3 50 466 220
3 458 119 348
3 219 437 449
3 140 222 416
3 187 474 240
3 143 278 273
3 183 311 339
3 137 256 340
3 110 273 278
3 155 236 348
3 149 290 329
3 128 240 474
3 18 19 324
3 216 294 517
3 217 518 295
3 154 228 323
3 91 327 485
3 139 308 238
3 275 447 286
3 187 240 389
3 72 73 294
3 26 27 295
3 154 323 436
3 9 250 397
3 115 307 435
3 173 397 250
3 77 78 319
3 236 458 348
3 19 264 324
3 115 435 304
3 138 289 370
3 162 350 245
3 136 454 224
3 132 246 377
3 136 245 350
3 185 329 290
3 95 414 337
3 96 232 483
3 89 483 232
3 81 82 356
3 236 385 289
3 206 337 414
3 149 233 363
3 108 472 252
3 138 268 349
3 203 383 246
3 139 238 469
3 1 237 326
3 144 264 330
3 327 473 485
3 117 339 311
3 52 233 482
3 145 484 251
3 177 342 277
3 157 376 374
3 97 245 429
3 37 38 352
3 61 62 353
3 159 326 237
3 243 519 291
3 162 245 366
3 159 462 326
3 12 321 234
3 161 227 453
3 200 374 376
3 209 316 449
3 160 226 352
3 161 353 227
3 137 234 486
3 165 330 264
3 30 255 367
3 69 368 254
3 144 301 253
3 132 377 235
3 178 317 325
3 165 230 330
3 150 272 456
3 185 419 285
3 129 480 416
3 128 415 479
3 184 413 384
3 151 288 273
3 209 341 287
3 145 271 484
3 156 231 337
3 145 435 225
3 10 239 490
3 186 243 477
3 128 336 240
3 107 328 246
3 116 338 428
3 192 379 272
3 162 235 377
3 138 370 268
3 311 421 512
3 119 318 442
3 117 427 339
3 150 325 317
3 80 349 268
3 253 301 465
3 115 460 267
3 147 486 321
3 8 366 245
3 80 81 349
3 134 241 502
3 135 503 242
3 124 332 417
3 156 457 231
3 489 344 125
3 180 274 309
3 175 268 370
3 151 273 359
3 137 506 250
3 147 426 256
3 68 254 424
3 31 425 255
3 133 231 457
3 239 463 490
3 255 425 493
3 254 492 424
3 144 330 301
3 109 240 407
3 102 490 463
3 44 431 251
3 140 505 287
3 181 251 431
3 100 397 249
3 120 401 408
3 114 430 238
3 213 376 472
3 34 35 292
3 64 65 293
3 180 230 409
3 253 344 489
3 234 321 486
3 181 257 355
3 42 484 271
3 153 344 253
3 151 342 331
3 183 421 311
3 191 320 348
3 149 329 267
3 96 97 429
3 155 269 385
3 60 446 443
3 39 444 445
3 212 448 371
3 176 238 430
3 111 288 331
3 241 443 446
3 242 445 444
3 144 324 264
3 208 508 293
3 207 292 509
3 134 396 259
3 156 362 487
3 173 249 397
3 166 282 334
3 142 261 333
3 103 309 274
3 113 303 334
3 113 334 282
3 214 417 332
3 305 438 455
3 131 357 361
3 115 267 329
3 152 258 423
3 47 261 461
3 134 502 263
3 135 262 503
3 179 438 305
3 155 348 320
3 129 389 453
3 137 486 256
3 151 331 288
3 248 510 453
3 140 287 341
3 133 457 383
3 157 405 252
3 36 37 410
3 62 63 411
3 246 328 377
3 106 467 341
3 43 251 484
3 194 361 357
3 135 260 513
3 108 256 426
3 42 43 484
3 32 33 313
3 66 67 312
3 142 355 257
3 171 259 396
3 117 272 343
3 141 378 504
3 510 161 453
3 248 453 389
3 137 340 506
3 109 510 248
3 247 383 457
3 83 84 384
3 114 308 373
3 222 341 467
3 503 407 160
3 216 392 294
3 217 295 393
3 162 328 350
3 154 471 281
3 156 487 457
3 107 423 258
3 182 283 338
3 183 339 284
3 113 412 364
3 136 350 258
3 4 76 323
3 173 250 506
3 150 343 272
3 121 371 448
3 262 407 503
3 109 263 510
3 233 466 482
3 142 468 267
3 132 249 434
3 157 472 376
3 195 413 318
3 215 364 412
3 33 451 313
3 66 312 452
3 136 258 454
3 84 85 322
3 157 252 472
3 165 264 380
3 175 406 268
3 47 495 261
3 51 482 466
3 59 443 259
3 40 260 444
3 34 292 451
3 65 452 293
3 12 13 321
3 116 325 477
3 196 344 314
3 173 340 265
3 159 276 448
3 103 274 375
3 167 375 274
3 173 434 249
3 188 493 425
3 189 424 492
3 247 457 487
3 177 331 342
3 212 371 306
3 103 342 309
3 221 320 476
3 142 267 355
3 42 271 391
3 57 390 270
3 114 494 296
3 166 334 281
3 325 456 477
3 168 338 283
3 169 284 339
3 110 278 465
3 20 380 264
3 79 268 406
3 109 407 262
3 202 447 275
3 110 359 273
3 147 256 486
3 267 460 355
3 139 469 387
3 35 509 292
3 64 293 508
3 199 313 451
3 198 452 312
3 1 326 23
3 153 314 344
3 208 416 480
3 207 479 415
3 15 16 400
3 164 394 266
3 172 513 260
3 101 463 250
3 113 364 303
3 101 102 463
3 46 461 257
3 171 270 390
3 172 391 271
3 152 454 258
3 301 330 481
3 22 23 462
3 46 47 461
3 14 15 351
3 48 261 495
3 201 418 400
3 167 276 373
3 148 335 491
3 121 409 371
3 114 266 430
3 74 75 346
3 24 25 347
3 218 489 498
3 157 374 279
3 180 515 274
3 111 385 269
3 149 363 290
3 71 381 283
3 28 284 382
3 131 512 421
3 175 370 478
3 41 42 391
3 57 58 390
3 254 368 422
3 255 421 367
3 86 302 499
3 229 488 314
3 134 275 396
3 177 401 441
3 176 430 266
3 76 77 436
3 151 309 342
3 199 378 404
3 157 279 405
3 103 375 280
3 176 266 432
3 121 276 402
3 166 408 277
3 203 516 383
3 167 274 402
3 27 28 382
3 71 72 381
3 167 402 276
3 114 373 494
3 168 283 381
3 169 382 284
3 146 450 285
3 90 520 91
3 123 404 378
3 166 281 408
3 111 289 385
3 204 478 370
3 167 373 308
3 139 387 282
3 117 501 272
3 173 265 434
3 149 267 468
3 189 312 424
3 188 425 313
3 240 336 407
3 29 30 367
3 69 70 368
3 293 452 505
3 292 504 451
3 112 470 275
3 110 465 301
3 67 424 312
3 32 313 425
3 190 400 418
3 205 464 458
3 196 485 473
3 193 388 398
3 8 98 366
3 20 21 380
3 50 51 466
3 59 60 443
3 39 40 444
3 219 449 316
3 178 440 500
3 165 306 371
3 185 285 450
3 120 408 281
3 121 448 276
3 218 498 365
3 244 500 440
3 192 272 501
3 168 294 392
3 169 393 295
3 197 322 499
3 21 306 380
3 159 494 276
3 204 441 401
3 170 398 388
3 72 294 381
3 27 382 295
3 513 447 135
3 168 392 299
3 169 300 393
3 74 346 517
3 25 518 347
3 168 381 294
3 169 295 382
3 54 419 290
3 91 520 327
3 126 299 392
3 127 393 300
3 165 380 306
3 133 516 405
3 13 521 321
3 141 415 437
3 197 499 302
3 158 354 473
3 185 290 419
3 54 55 419
3 92 485 314
3 210 319 386
3 172 286 513
3 153 465 278
3 286 447 513
3 118 335 395
3 205 356 464
3 119 464 318
3 3 482 51
3 252 405 516
3 199 504 378
3 9 397 100
3 94 459 315
3 223 437 415
3 210 386 471
3 78 79 406
3 120 281 471
3 85 499 322
3 3 52 482
3 174 469 310
3 130 492 422
3 131 421 493
3 197 395 322
3 254 422 492
3 255 493 421
3 214 521 351
3 196 511 344
3 93 320 459
3 94 315 414
3 5 483 89
3 5 96 483
3 104 500 439
3 126 440 299
3 67 68 424
3 31 32 425
3 171 470 297
3 184 395 335
3 2 48 495
3 44 45 431
3 0 490 102
3 0 10 490
3 175 386 319
3 93 476 320
3 163 364 372
3 94 414 95
3 145 304 435
3 176 305 455
3 196 314 485
3 160 407 336
3 38 39 445
3 60 61 446
3 195 318 464
3 92 314 488
3 215 372 364
3 178 299 440
3 105 291 519
3 33 34 451
3 65 66 452
3 176 432 305
3 179 300 427
3 120 471 386
3 124 417 360
3 2 495 47
3 123 316 420
3 184 322 395
3 191 315 459
3 198 312 403
3 199 404 313
3 14 351 521
3 178 428 299
3 127 305 432
3 244 439 500
3 182 338 433
3 162 377 328
3 189 403 312
3 188 313 404
3 354 511 473
3 112 297 470
3 141 504 292
3 140 293 505
3 125 344 511
3 104 439 310
3 116 477 433
3 191 459 320
3 63 64 508
3 35 36 509
3 25 26 518
3 73 74 517
3 175 319 406
3 78 406 319
3 225 435 307
3 176 455 310
3 16 17 496
3 82 83 497
3 159 296 494
3 13 14 521
3 104 455 438
3 93 459 94
3 85 86 499
3 190 360 417
3 110 301 481
3 243 433 477
3 174 412 387
3 148 442 318
3 148 318 413
3 201 354 418
3 182 422 368
3 183 367 421
3 115 304 460
3 177 441 331
3 170 420 316
3 174 310 439
3 146 307 450
3 7 476 93
3 158 360 418
3 181 460 304
3 104 438 317
3 117 343 427
3 91 485 92
3 7 92 488
3 119 458 464
3 173 506 340
3 148 413 335
3 125 498 489
3 104 310 455
3 133 383 516
3 215 514 372
3 178 325 428
3 76 436 323
3 178 500 317
3 266 394 432
3 120 386 478
3 214 351 417
3 126 372 514
3 275 470 396
3 158 418 354
3 191 442 315
3 127 432 394
3 190 417 351
3 179 427 343
3 116 428 325
3 120 478 401
3 227 480 453
3 190 418 360
3 184 335 413
3 111 331 441
3 117 311 501
3 104 317 500
3 125 354 498
3 118 491 335
3 129 453 480
3 150 456 325
3 230 481 330
3 116 433 338
3 23 326 462
3 148 315 442
3 121 402 515
3 192 501 311
3 192 311 512
3 181 355 460
3 195 497 384
3 121 515 409
3 201 498 354
3 38 445 352
3 61 353 446
3 201 400 496
3 195 356 497
3 175 478 386
3 195 464 356
3 158 473 327
3 171 396 470
3 200 327 520
3 118 362 491
3 198 505 452
3 199 451 504
3 276 494 373
3 189 492 358
3 188 357 493
3 161 510 502
3 83 384 497
3 82 497 356
3 16 496 400
3 130 358 492
3 131 493 357
3 263 502 510
3 125 511 354
3 90 374 520
3 186 477 456
3 206 491 362
3 201 365 498
3 201 496 365
3 192 512 361
3 174 387 469
3 129 507 389
3 208 411 508
3 207 509 410
3 222 467 507
3 131 361 512
3 63 508 411
3 36 410 509
3 187 507 467
3 105 519 379
3 17 365 496
3 204 401 478
3 226 479 410
3 227 411 480
3 186 379 519
3 207 410 479
3 208 480 411
3 187 389 507
3 200 520 374
3 7 488 475
3 274 515 402
3 126 514 440
3 244 440 514
3 7 475 476
3 180 409 515
3 229 475 488
3 221 476 475
3 196 473 511
CELL_TYPES 941
5
5
5
5
5
5
5
5
5
5
5
5
5
5
5
5
5
5
5
5
5
5
5
5
5
5
5
5
5
5
5
5
5
5
5
5
5
5
5
5
5
5
5
5
5
5
5
5
5
5
5
5
5
5
5
5
5
5
5
5
5
5
5
5
5
5
5
5
5
5
5
5
5
5
5
5
5
5
5
5
5
5
5
5
5
5
5
5
5
5
5
5
5
5
5
5
5
5
5
5
5
5
5
5
5
5
5
5
5
5
5
5
5
5
5
5
5
5
5
5
5
5
5
5
5
5
5
5
5
5
5
5
5
5
5
5
5
5
5
5
5
5
5
5
5
5
5
5
5
5
5
5
5
5
5
5
5
5
5
5
5
5
5
5
5
5
5
5
5
5
5
5
5
5
5
5
5
5
5
5
5
5
5
5
5
5
5
5
5
5
5
5
5
5
5
5
5
5
5
5
5
5
5
5
5
5
5
5
5
5
5
5
5
5
5
5
5
5
5
5
5
5
5
5
5
5
5
5
5
5
5
5
5
5
5
5
5
5
5
5
5
5
5
5
5
5
5
5
5
5
5
5
5
5
5
5
5
5
5
5
5
5
5
5
5
5
5
5
5
5
5
5
5
5
5
5
5
5
5
5
5
5
5
5
5
5
5
5
5
5
5
5
5
5
5
5
5
5
5
5
5
5
5
5
5
5
5
5
5
5
5
5
5
5
5
5
5
5
5
5
5
5
5
5
5
5
5
5
5
5
5
5
5
5
5
5
5
5
5
5
5
5
5
5
5
5
5
5
5
5
5
5
5
5
5
5
5
5
5
5
5
5
5
5
5
5
5
5
5
5
5
5
5
5
5
5
5
5
5
5
5
5
5
5
5
5
5
5
5
5
5
5
5
5
5
5
5
5
5
5
5
5
5
5
5
5
5
5
5
5
5
5
5
5
5
5
5
5
5
5
5
5
5
5
5
5
5
5
5
5
5
5
5
5
5
5
5
5
5
5
5
5
5
5
5
5
5
5
5
5
5
5
5
5
5
5
5
5
5
5
5
5
5
5
5
5
5
5
5
5
5
5
5
5
5
5
5
5
5
5
5
5
5
5
5
5
5
5
5
5
5
5
5
5
5
5
5
5
5
5
5
5
5
5
5
5
5
5
5
5
5
5
5
5
5
5
5
5
5
5
5
5
5
5
5
5
5
5
5
5
5
5
5
5
5
5
5
5
5
5
5
5
5
5
5
5
5
5
5
5
5
5
5
5
5
5
5
5
5
5
5
5
5
5
5
5
5
5
5
5
5
5
5
5
5
5
5
5
5
5
5
5
5
5
5
5
5
5
5
5
5
5
5
5
5
5
5
5
5
5
5
5
5
5
5
5
5
5
5
5
5
5
5
5
5
5
5
5
5
5
5
5
5
5
5
5
5
5
5
5
5
5
5
5
5
5
5
5
5
5
5
5
5
5
5
5
5
5
5
5
5
5
5
5
5
5
5
5
5
5
5
5
5
5
5
5
5
5
5
5
5
5
5
5
5
5
5
5
5
5
5
5
5
5
5
5
5
5
5
5
5
5
5
5
5
5
5
5
5
5
5
5
5
5
5
5
5
5
5
5
5
5
5
5
5
5
5
5
5
5
5
5
5
5
5
5
5
5
5
5
5
5
5
5
5
5
5
5
5
5
5
5
5
5
5
5
5
5
5
5
5
5
5
5
5
5
5
5
5
5
5
5
5
5
5
5
5
5
5
5
5
5
5
5
5
5
5
5
5
5
5
5
5
5
5
5
5
5
5
5
5
5
5
5
5
5
5
5
5
5
5
5
5
5
5
5
5
5
5
5
5
5
5
5
5
5
5
5
5
5
5
5
5
5
5
5
5
5
5
5
5
5
5
5
5
5
5
5
5
5
5
5
5
5
5
5
5
5
5
5
5
5
5
5
5
5
5
5
5
5
5
5
5
5
5
5
5
5
5
5
5
5
5
5
5
5
5
5
5
5
5
5
5
5
5
5
5
5
5
5
5
5
5
5
5
5
5
5
5
5
5
5
5
5
5
5
5
5
5
5
5
5
5
5
5
5
5
5
5
5
5
5
5
5
5
5
5
5
5
5
5
5
5
5
5
5
5
5
5
5
5
POINT_DATA 522
SCALARS scalars float 1
LOOKUP_TABLE default
-0.413225897796677
-0.213366678259364
0.000065811762819
-0.000119545348542
-0.214034058662460
-0.413932544142172
-0.632206605350590
-0.164751804819296
-0.404555233810861
-0.404716145470577
-0.410008137814301
-0.410122979998387
-0.414778024370244
-0.417683741955994
-0.390008975201100
-0.303434696486718
-0.233815765799620
-0.218051974206467
-0.226196067089457
-0.230297450651380
-0.231440681348743
-0.229073391801750
-0.224396539687979
-0.218896029299314
-0.206566777451708
-0.200401477066018
-0.194027849411925
-0.186740797505554
-0.180351149090662
-0.172927768364007
-0.165942482463596
-0.158613340600181
-0.151494230719252
-0.143466897411768
-0.136168019393208
-0.127419449344590
-0.119884056254706
-0.111368200617037
-0.102153747258754
-0.093711191923645
-0.084701719578352
-0.074327659867275
-0.064622210072677
-0.055077855136432
-0.044240708722967
-0.034773836614741
-0.022568509553865
-0.012861310215108
-0.000299285860865
-0.000243849374708
-0.000505356587297
-0.000878205034212
-0.012845024348758
-0.023170627521865
-0.034449804654176
-0.044450249548381
-0.054861398609757
-0.065135985111312
-0.074229758607042
-0.084712344621482
-0.093640011964066
-0.102114641135539
-0.111363816904112
-0.119919357200270
-0.127441903783332
-0.136272829898861
-0.143534441455911
-0.151692486896123
-0.158851166158156
-0.166245300221341
-0.173244235758937
-0.180769286589331
-0.187234304296911
-0.194597394017989
-0.201065337350619
-0.207184068556635
-0.219574600482634
-0.224887949733384
-0.229483525658757
-0.231840657132102
-0.230756552003253
-0.227321287582684
-0.219775315365601
-0.234545060071990
-0.299917573608822
-0.383895114043596
-0.414720035507984
-0.414409370809781
-0.410450431626761
-0.410141680045168
-0.437079544073608
-0.191306214530340
-0.135008853359130
-0.130835917780544
-0.202361380328140
-0.400409815338936
-0.413042535140946
-0.409905503622606
-0.401319958119275
-0.399769207721733
-0.401297905726877
-0.409586067888841
-0.413431369385338
-0.219669394569755
-0.191995926136825
-0.162356483529261
-0.131737456311019
-0.389782686774345
-0.390166665625485
-0.102157907613487
-0.232445995577258
-0.230919751860068
-0.072275430081413
-0.211014680429147
-0.209278015151205
-0.044071267228873
-0.177903555254744
-0.177372347541302
-0.396882611653631
-0.212170006134199
-0.227999496572953
-0.226313127463841
-0.147686066671477
-0.149221651435736
-0.399206369848453
-0.214449508169529
-0.194931332811763
-0.194266269795038
-0.117571521466659
-0.119243378918562
-0.163509347410049
-0.162506696352892
-0.386272692933447
-0.393116214572187
-0.088638856231465
-0.088355507913975
-0.403506365992777
-0.403312796466181
-0.233126877474297
-0.208968464521435
-0.133066863816918
-0.133053861278230
-0.021654572739754
-0.219391731030598
-0.232435181170581
-0.056394758929776
-0.056547284232978
-0.410789665086743
-0.246503471046734
-0.026368717118181
-0.180929815837124
-0.225986130918924
-0.409318657618180
-0.220588747990959
-0.219488047199035
-0.219832105502167
-0.455293278148488
-0.444054247655608
-0.243241891790539
-0.217761473014287
-0.102739782618292
-0.102674929746845
-0.392780107288782
-0.204996527222181
-0.204361818438755
-0.232054994762841
-0.219261836538949
-0.217848372399477
-0.185414773749390
-0.184944683635298
-0.149056309576475
-0.072424037088052
-0.073249111639636
-0.394079517726093
-0.201334673562206
-0.232091166666637
-0.198831711933773
-0.228451882120860
-0.187058033688454
-0.186474897798424
-0.228166055994968
-0.039369835993876
-0.173772174150961
-0.173005813433887
-0.287171702797539
-0.042069608409640
-0.171418298275081
-0.120656810229862
-0.153694804412542
-0.153881589917900
-0.291724195836244
-0.194769854746973
-0.168689351375312
-0.157016550337372
-0.156583783270484
-0.226707748549836
-0.197208647437116
-0.402875631411527
-0.142290981396216
-0.142575182116253
-0.357270163810908
-0.227436853903206
-0.091709118384075
-0.383351827089151
-0.233637069652981
-0.230891736943022
-0.362106196336705
-0.123519894336828
-0.123557777172284
-0.142892938564657
-0.224908715847791
-0.416017620650184
-0.223854844668460
-0.417146335467514
-0.406125053268677
-0.201023055406131
-0.197672548631487
-0.197178865667966
-0.230446322469031
-0.138582753359034
-0.013592940959621
-0.208710498319304
-0.126422880616579
-0.126597292107025
-0.409249201065221
-0.059922189252105
-0.111135078224304
-0.111410676509880
-0.211657557371279
-0.209657542532886
-0.232856801719019
-0.460324369998323
-0.408788050930037
-0.015627949671937
-0.409633904256427
-0.393659915571777
-0.227339116808089
-0.210655461347920
-0.204371487457005
-0.409087743396495
-0.111780184760894
-0.094072473297660
-0.094045872354128
-0.168589274414630
-0.194862489995205
-0.401623325494241
-0.384299725555592
-0.396412101896438
-0.108443189812717
-0.393904127285051
-0.402753864667945
-0.049323545428160
-0.397929056002840
-0.227374188939243
-0.162793779834943
-0.162514504382119
-0.399194621064834
-0.029871151540858
-0.396390520114701
-0.079515746474249
-0.080545136630715
-0.012639057114648
-0.095595697038620
-0.096779857237922
-0.232875815979429
-0.388308451375324
-0.203032284518410
-0.031856114606080
-0.233277740647862
-0.225897435070578
-0.063165885967027
-0.063937441830178
-0.174565284998990
-0.226807061963927
-0.222170620738128
-0.080916578018303
-0.220407704752762
-0.222344297250846
-0.226490223271186
-0.497076684667473
-0.215662473562173
-0.222480440598103
-0.211784482631254
-0.178497093150956
-0.178085358567112
-0.050069254370446
-0.077351960762139
-0.140506828333375
-0.226758623093971
-0.232957767033194
-0.033367687808909
-0.163277405872911
-0.131423487792331
-0.131491272986832
-0.191191514666701
-0.190592188730184
-0.210906553557238
-0.066335791367527
-0.066916746332838
-0.187699954018276
-0.187414319831648
-0.231536121676052
-0.410542979030445
-0.212254956723748
-0.047035823735138
-0.192661443921282
-0.228640908182901
-0.052365249998774
-0.211347831223319
-0.224449158946385
-0.198203578537569
-0.172141593645736
-0.147683067502631
-0.147599029442185
-0.196566136796424
-0.210303586634100
-0.144882054683426
-0.186305432129476
-0.214088415230929
-0.228849869709760
-0.196358087745149
-0.412429580507671
-0.354580448891666
-0.216906076902398
-0.231306037299702
-0.180792112240904
-0.216126748936756
-0.241378258070012
-0.389540546062546
-0.037542531894936
-0.233967086667161
-0.229214604439826
-0.412851912888071
-0.011232574781202
-0.216592159688636
-0.310669603807999
-0.110125554663966
-0.475008832483763
-0.180237502997430
-0.179511285532242
-0.394699468851594
-0.134135357445411
-0.224488372237079
-0.181179725446093
-0.213300406040028
-0.412258410517836
-0.204232126980307
-0.203522740723829
-0.214839463940380
-0.232014126608264
-0.396050112720858
-0.357554542760862
-0.104567114912257
-0.104565357462411
-0.213668775238013
-0.032389877505161
-0.229217003531452
-0.156160793001574
-0.156154918316297
-0.229344374355780
-0.310331155640223
-0.163046295358409
-0.428620978144233
-0.023410461295423
-0.206185562214746
-0.227528990959307
-0.399009875687650
-0.170059296829448
-0.170470244975858
-0.409488317783487
-0.233866522593996
-0.228659547660553
-0.200669996821427
-0.215289287838064
-0.442989611258515
-0.215250112880413
-0.432883579068656
-0.388080977576498
-0.140742846435750
-0.167760538085791
-0.230637750994748
-0.184716901447755
-0.184217629885210
-0.383801070968245
-0.245823598540011
-0.229874476861091
-0.228706732008932
-0.206304621054145
-0.155682163222865
-0.114972769683378
-0.070725164474240
-0.070667307733161
-0.191503892346386
-0.191045277401846
-0.199499115768010
-0.369150036230766
-0.079156498415718
-0.399521245883248
-0.151221015006136
-0.409379472917158
-0.246531394887815
-0.230509107146162
-0.223296631313671
-0.148129857076183
-0.148240895326564
-0.416874778853074
-0.231108249964447
-0.103272413907949
-0.226223314165079
-0.230092968471627
-0.117931898266049
-0.118003162404997
-0.205470267892769
-0.243896239187664
-0.308356597852965
-0.125788085353011
-0.126341074697388
-0.369935520767373
-0.243498852788345
-0.040495735062807
-0.151072467412177
-0.166491831825547
-0.167539204077573
-0.401555823705820
-0.155235886760101
-0.155028410250546
-0.402812217411213
-0.182482089402297
-0.182865061643971
-0.406742281229923
-0.204076667034668
-0.039680808680175
-0.197826542176534
-0.173947054932042
-0.389501195123451
-0.052119853049723
-0.220937865744988
-0.132853463535432
-0.187773289686448
-0.196307029083015
-0.191774716946099
-0.232642642387770
-0.205452684851464
-0.088112294753579
-0.088261144144138
-0.098141963697053
-0.098082941341054
-0.085487828292681
-0.223432679479380
-0.137463112546659
-0.047637126787967
-0.139797412614576
-0.139891441232094
-0.110759027396338
-0.405338107558028
-0.194105528601797
-0.176321812075933
-0.410371696077962
-0.225191486018664
-0.170787893481312
-0.039091405505374
-0.020835016269510
-0.220211265830703
-0.407372401521916
-0.222657039634767
-0.229037879142042
-0.007942074938758
-0.126809810979483
-0.022380453699570
-0.203040566325367
-0.073768529848650
-0.224644689586862
-0.414178510645156
-0.202686920713651
-0.120656335528462
-0.196804539274900
-0.172939100580813
-0.173741650536991
-0.231887645388134
-0.117969972172548
-0.118139976752031
-0.233458187605291
-0.006428352924118
-0.411269293673458
-0.056711075297784
-0.173696897937366
-0.406355039656073
-0.415738948966143
-0.173896184918313
-0.224854463458178
-0.411282050430982
-0.351502731538355
-0.159956028147619
-0.159547789970158
-0.215224393343360
-0.005473426821613
-0.233873803555395
-0.234574385489798
-0.221225815343475
-0.395203949069969
-0.190609718089959
-0.173209749194257
-0.097069295677342
-0.097045302177107
-0.136925314988687
-0.136603408316220
-0.399213385831004
-0.121472474870145
-0.124039211852558
-0.124054836012217
-0.102944878688981
-0.204881380795810
-0.166608512881584
-0.081036417893957
-0.196653522359809
-0.226191156035619
-0.384826376035393
-0.197792776910262
-0.197203250164134
-0.166597958896219
-0.324856596448203
-0.399648826733422
