# vtk DataFile Version 3.0
    
ASCII
DATASET UNSTRUCTURED_GRID
POINTS 474 float
0 0 0
3 0 0
3 1 0
0 1 0
1.4 0.5 0
1.6 0.5 0
0.1 0 0
0.2 0 0
0.3 0 0
0.4 0 0
0.5 0 0
0.6 0 0
0.7 0 0
0.8 0 0
0.9 0 0
1 0 0
1.1 0 0
1.2 0 0
1.3 0 0
1.4 0 0
1.5 0 0
1.6 0 0
1.7 0 0
1.8 0 0
1.9 0 0
2 0 0
2.1 0 0
2.2 0 0
2.3 0 0
2.4 0 0
2.5 0 0
2.6 0 0
2.7 0 0
2.8 0 0
2.9 0 0
3 0.1 0
3 0.2 0
3 0.3 0
3 0.4 0
3 0.5 0
3 0.6 0
3 0.7 0
3 0.8 0
3 0.9 0
2.9 1 0
2.8 1 0
2.7 1 0
2.6 1 0
2.5 1 0
2.4 1 0
2.3 1 0
2.2 1 0
2.1 1 0
2 1 0
1.9 1 0
1.8 1 0
1.7 1 0
1.6 1 0
1.5 1 0
1.4 1 0
1.3 1 0
1.2 1 0
1.1 1 0
1 1 0
0.9 1 0
0.8 1 0
0.7 1 0
0.6 1 0
0.5 1 0
0.4 1 0
0.3 1 0
0.2 1 0
0.1 1 0
0 0.9 0
0 0.8 0
0 0.7 0
0 0.6 0
0 0.5 0
0 0.4 0
0 0.3 0
0 0.2 0
0 0.1 0
1.42929 0.429289 0
1.5 0.4 0
1.57071 0.429289 0
1.57071 0.570711 0
1.5 0.6 0
1.42929 0.570711 0
0.908065 0.500842 0
2.09182 0.501235 0
2.533 0.540958 0
0.466996 0.540958 0
1.16239 0.367113 0
1.15803 0.642496 0
1.83778 0.633068 0
1.84183 0.357652 0
0.64712 0.311346 0
2.35288 0.311346 0
0.296429 0.296429 0
2.70072 0.287577 0
0.694153 0.709702 0
2.30585 0.709702 0
0.2625 0.7375 0
2.7375 0.7375 0
0.926365 0.25745 0
2.07497 0.255613 0
1.6173 0.783176 0
1.3827 0.216824 0
1.60609 0.211351 0
1.39391 0.788649 0
2.06918 0.77023 0
0.930532 0.770385 0
0.231027 0.511643 0
2.78231 0.505604 0
2.5174 0.77705 0
0.482603 0.77705 0
0.477466 0.20264 0
2.52253 0.20264 0
0.64838 0.511616 0
2.35162 0.511616 0
1.22819 0.172834 0
1.76998 0.828237 0
1.22999 0.828115 0
1.77183 0.172962 0
1.24757 0.499418 0
1.75243 0.500582 0
1.07255 0.499219 0
1.9274 0.50216 0
1.30195 0.345869 0
1.69805 0.654131 0
1.30195 0.654131 0
1.69805 0.345869 0
0.7837 0.186076 0
2.2163 0.186076 0
0.488985 0.378317 0
2.51101 0.378317 0
0.167616 0.168057 0
2.83238 0.168057 0
0.809508 0.359874 0
2.19055 0.359928 0
0.792645 0.837945 0
2.20735 0.837945 0
1.04673 0.146911 0
1.95329 0.146971 0
0.15431 0.372396 0
2.84284 0.364955 0
0.151921 0.845979 0
2.84808 0.845979 0
1.05488 0.853216 0
1.94512 0.853216 0
0.840314 0.642094 0
2.15956 0.642114 0
1.00494 0.631131 0
2.37802 0.85475 0
0.621983 0.85475 0
1.99436 0.632462 0
1.99465 0.369102 0
1.5 0.729143 0
1.5 0.270857 0
1.00598 0.367734 0
0.334685 0.148654 0
2.67351 0.149822 0
0.146016 0.64056 0
2.85398 0.64056 0
2.64527 0.856451 0
0.354731 0.856451 0
1.51449 0.869677 0
1.48551 0.130323 0
0.616124 0.148117 0
2.38388 0.148117 0
0.557647 0.654861 0
2.44235 0.654861 0
0.351787 0.433594 0
2.64664 0.437115 0
0.321707 0.603535 0
2.67829 0.603535 0
1.40965 0.659765 0
1.40762 0.338235 0
1.59035 0.340235 0
1.59238 0.661765 0
0.883305 0.127447 0
2.1167 0.127447 0
1.31594 0.12375 0
1.68055 0.875654 0
1.30892 0.883614 0
1.69251 0.104892 0
0.773163 0.536347 0
2.22676 0.536307 0
1.06843 0.733946 0
1.91798 0.738934 0
2.04043 0.861899 0
0.959497 0.861967 0
1.92978 0.266731 0
1.08352 0.262453 0
1.31024 0.568486 0
1.31024 0.43132 0
1.68976 0.431514 0
1.68976 0.56868 0
0.426486 0.689884 0
2.57351 0.689884 0
0.114661 0.479046 0
2.88253 0.489758 0
2.54819 0.904336 0
0.451812 0.904336 0
1.27458 0.2609 0
1.72242 0.743687 0
1.27757 0.743677 0
1.72542 0.260915 0
0.405501 0.293697 0
2.58174 0.286605 0
2.89903 0.263079 0
0.100679 0.263839 0
0.70542 0.408314 0
2.29458 0.408316 0
0.0925934 0.742375 0
2.90741 0.742375 0
0.539364 0.480025 0
2.46064 0.480025 0
2.74308 0.898062 0
0.256925 0.898062 0
1.23359 0.405038 0
1.2314 0.593207 0
1.76644 0.594993 0
1.7686 0.406793 0
1.59352 0.129375 0
1.40543 0.865717 0
0.428483 0.102024 0
2.55104 0.0930881 0
1.13906 0.0983908 0
1.86094 0.0983908 0
1.85883 0.905221 0
1.14114 0.905081 0
0.545613 0.286388 0
2.45439 0.286388 0
1.15646 0.546752 0
1.84346 0.453503 0
0.907411 0.399381 0
0.70033 0.597829 0
2.29967 0.597826 0
2.09262 0.400071 0
0.249428 0.0939795 0
2.74924 0.0935037 0
0.368057 0.768136 0
2.63194 0.768136 0
0.825934 0.266684 0
2.17418 0.266541 0
0.84429 0.742459 0
2.15562 0.742468 0
1.15578 0.452441 0
1.84425 0.54778 0
0.25093 0.414364 0
2.74418 0.417776 0
0.589865 0.748959 0
2.41014 0.748959 0
2.29483 0.892386 0
0.705174 0.892386 0
0.599107 0.397561 0
2.40089 0.397561 0
1.16948 0.275923 0
1.82998 0.725191 0
1.1919 0.731166 0
1.80382 0.274296 0
2.8988 0.101197 0
0.101197 0.101197 0
1.5961 0.911366 0
1.40331 0.0885348 0
0.701307 0.119249 0
2.29869 0.119249 0
2.0819 0.593925 0
0.918313 0.593378 0
2.02515 0.086723 0
0.974857 0.0867131 0
0.20137 0.271836 0
2.79763 0.268994 0
0.991286 0.453832 0
2.00863 0.45545 0
2.14055 0.915223 0
0.859445 0.91523 0
0.544071 0.104391 0
2.453 0.103114 0
0.558462 0.920304 0
2.44154 0.920304 0
0.683974 0.219704 0
2.31603 0.219704 0
2.30543 0.800748 0
0.694569 0.800748 0
1.36134 0.379885 0
1.63866 0.620115 0
1.36168 0.61975 0
1.63832 0.38025 0
0.0846321 0.570082 0
2.91765 0.57375 0
0.36016 0.526164 0
2.63984 0.526164 0
0.237153 0.620601 0
2.76239 0.626131 0
0.435931 0.455832 0
2.56234 0.458626 0
2.00381 0.547331 0
0.996115 0.545644 0
1.07855 0.588421 0
1.25432 0.0754128 0
1.76724 0.0780262 0
1.922 0.41228 0
1.46464 0.797621 0
1.53519 0.201561 0
0.799121 0.0857262 0
2.20088 0.0857262 0
1.88055 0.209652 0
1.92041 0.588342 0
1.11648 0.196412 0
1.07897 0.412362 0
1.74444 0.925268 0
1.23179 0.919096 0
0.577182 0.579203 0
2.42282 0.579202 0
0.742609 0.292 0
2.25742 0.291985 0
0.809291 0.464331 0
2.19062 0.464448 0
1.11829 0.79248 0
1.88546 0.806318 0
2.9122 0.9122 0
0.0878002 0.9122 0
0.258594 0.193431 0
2.73734 0.196796 0
1.54131 0.792256 0
1.45866 0.207608 0
2.92883 0.35 0
0.0711738 0.35 0
0.877282 0.825597 0
2.12262 0.825553 0
0.92255 0.682318 0
0.953044 0.172732 0
2.04719 0.172406 0
2.07708 0.682476 0
0.230739 0.804482 0
2.76926 0.804482 0
0.393046 0.203239 0
2.65654 0.216888 0
2.91859 0.180056 0
0.0813912 0.180095 0
1.47528 0.664571 0
1.52472 0.335429 0
1.35198 0.285502 0
1.64992 0.714512 0
1.34909 0.714554 0
1.64687 0.284784 0
1.94788 0.066417 0
1.05213 0.066403 0
1.98362 0.788945 0
1.01784 0.787655 0
0.181788 0.71603 0
2.81688 0.720405 0
0.342519 0.0689314 0
2.64687 0.0751942 0
1.00595 0.293949 0
2.12147 0.32023 0
1.99637 0.295212 0
0.879949 0.321534 0
1.95802 0.931689 0
1.04197 0.931683 0
0.536063 0.835531 0
2.46394 0.835531 0
0.0646484 0.650603 0
2.93581 0.651337 0
0.559752 0.197991 0
2.43966 0.197736 0
0.401657 0.383268 0
2.6524 0.354535 0
1.54277 0.0655855 0
1.45273 0.935382 0
2.65 0.936855 0
0.35 0.936855 0
1.22933 0.332347 0
1.77019 0.668498 0
1.23203 0.670442 0
1.76813 0.334052 0
2.36288 0.933488 0
0.637124 0.933488 0
0.769478 0.67539 0
2.23049 0.675394 0
2.15411 0.562023 0
0.0681077 0.838347 0
0.166061 0.92778 0
2.83394 0.92778 0
2.93189 0.838347 0
0.634912 0.653485 0
2.36509 0.653485 0
0.845345 0.562306 0
1.4321 0.725717 0
1.56714 0.270587 0
1.63329 0.0617665 0
1.36926 0.936777 0
0.166026 0.555963 0
2.83977 0.567161 0
0.487829 0.628144 0
0.500856 0.701592 0
2.49914 0.701592 0
2.51217 0.628144 0
1.99285 0.713383 0
2.59355 0.165479 0
0.237011 0.340974 0
2.7538 0.338224 0
1.53594 0.650773 0
1.46406 0.349227 0
1.00239 0.71255 0
0.6323 0.0743514 0
2.36863 0.0734783 0
0.329108 0.679474 0
2.67085 0.679944 0
0.171508 0.0710128 0
2.82849 0.0710128 0
0.863838 0.201007 0
2.13616 0.201007 0
2.57558 0.826011 0
0.424417 0.826011 0
0.184398 0.448753 0
2.828 0.440934 0
1.57281 0.721937 0
1.4275 0.278042 0
0.303338 0.801067 0
2.69666 0.801067 0
0.29686 0.485225 0
2.70599 0.48826 0
1.07418 0.669491 0
1.32355 0.193428 0
1.67606 0.80688 0
1.32437 0.808068 0
1.67887 0.18775 0
0.312812 0.36957 0
1.33614 0.499871 0
1.66386 0.500129 0
1.34272 0.0575019 0
1.65728 0.942498 0
1.91489 0.667253 0
0.398714 0.61136 0
2.60128 0.611438 0
1.92533 0.332085 0
1.3674 0.448073 0
1.6326 0.551927 0
1.36747 0.551763 0
1.63253 0.448237 0
0.720205 0.4907 0
2.27978 0.490706 0
0.773165 0.93032 0
2.22683 0.930319 0
2.21412 0.602733 0
0.785726 0.602793 0
2.58856 0.384794 0
1.08585 0.33383 0
2.93099 0.422579 0
0.0680289 0.420288 0
0.327683 0.228049 0
1.53758 0.940534 0
1.46242 0.0594659 0
2.23641 0.760747 0
0.763594 0.760747 0
1.1252 0.71234 0
1.87371 0.28907 0
1.02317 0.216865 0
1.97689 0.216675 0
1.40019 0.160104 0
1.59927 0.839834 0
0.94513 0.32801 0
0.951113 0.94604 0
2.04888 0.946033 0
0.289382 0.549434 0
2.71376 0.549939 0
0.612951 0.240403 0
2.38699 0.240377 0
2.94882 0.0511834 0
0.0511834 0.0511834 0
2.05602 0.328045 0
CELLS 860 3440
3 189 259 435
3 26 307 181
3 14 180 306
3 116 232 208
3 134 208 232
3 117 209 233
3 135 233 209
3 193 258 450
3 87 342 176
3 84 343 178
3 94 435 259
3 92 450 258
3 102 352 294
3 103 295 353
3 100 285 252
3 101 253 284
3 117 367 279
3 116 278 366
3 102 294 409
3 103 410 295
3 146 214 352
3 147 353 215
3 146 352 336
3 147 337 353
3 116 226 278
3 117 279 227
3 189 321 259
3 193 310 258
3 12 306 266
3 28 267 307
3 12 13 306
3 27 28 307
3 160 226 338
3 148 361 191
3 149 190 360
3 132 316 282
3 133 283 317
3 14 271 180
3 26 181 270
3 132 244 316
3 133 317 245
3 26 27 307
3 13 14 306
3 154 252 285
3 153 284 253
3 83 343 84
3 86 342 87
3 118 237 314
3 119 315 238
3 134 232 256
3 135 257 233
3 47 48 202
3 68 69 203
3 237 387 314
3 238 315 388
3 36 37 210
3 79 80 211
3 405 82 177
3 404 85 179
3 110 190 350
3 120 182 426
3 121 183 427
3 122 428 184
3 123 429 185
3 115 242 198
3 114 199 243
3 111 351 191
3 149 350 190
3 339 209 401
3 148 191 351
3 138 318 212
3 139 213 319
3 47 202 372
3 69 373 203
3 177 82 286
3 179 85 287
3 87 176 288
3 84 178 289
3 209 117 401
3 118 256 212
3 119 213 257
3 118 216 256
3 119 257 217
3 151 247 335
3 150 332 246
3 124 431 194
3 124 195 431
3 125 432 196
3 125 197 432
3 22 302 185
3 96 256 232
3 97 233 257
3 213 444 319
3 212 318 443
3 121 312 183
3 122 184 313
3 128 195 220
3 129 197 222
3 130 221 194
3 131 223 196
3 116 338 226
3 91 216 314
3 90 315 217
3 124 194 221
3 124 220 195
3 125 196 223
3 125 222 197
3 120 301 182
3 123 185 302
3 132 180 413
3 133 414 181
3 132 306 180
3 133 181 307
3 191 361 465
3 190 466 360
3 251 369 403
3 99 403 369
3 36 210 340
3 80 341 211
3 74 75 214
3 41 42 215
3 60 313 184
3 120 426 204
3 121 427 205
3 122 206 428
3 123 207 429
3 110 335 247
3 111 246 332
3 164 372 202
3 165 203 373
3 145 273 210
3 144 211 272
3 160 354 226
3 134 256 216
3 135 217 257
3 110 331 190
3 111 191 330
3 126 274 311
3 45 46 218
3 70 71 219
3 23 24 229
3 16 17 228
3 98 208 430
3 91 314 396
3 90 399 315
3 124 248 220
3 125 249 222
3 2 44 322
3 2 322 43
3 3 73 323
3 3 323 72
3 60 184 393
3 22 185 392
3 127 303 275
3 93 234 221
3 95 235 223
3 128 374 204
3 129 375 205
3 130 206 376
3 131 207 377
3 132 282 266
3 133 267 283
3 168 266 282
3 169 283 267
3 100 252 387
3 101 388 253
3 77 200 290
3 39 291 201
3 124 234 248
3 125 235 249
3 18 433 301
3 108 224 429
3 109 225 428
3 124 221 234
3 125 223 235
3 182 301 433
3 174 409 294
3 175 295 410
3 138 212 316
3 139 317 213
3 96 316 212
3 97 213 317
3 92 220 248
3 94 222 249
3 208 368 430
3 96 212 256
3 97 257 213
3 9 10 226
3 30 31 227
3 14 15 271
3 25 26 270
3 115 198 397
3 114 398 199
3 179 287 345
3 177 286 344
3 178 347 289
3 176 346 288
3 168 366 278
3 169 279 367
3 61 62 231
3 54 55 230
3 162 294 352
3 163 353 295
3 129 345 287
3 128 344 286
3 130 288 346
3 131 289 347
3 7 8 240
3 32 33 241
3 122 231 320
3 35 340 262
3 81 263 341
3 48 281 202
3 68 203 280
3 186 237 443
3 187 444 238
3 183 463 427
3 182 462 426
3 118 443 237
3 119 238 444
3 35 36 340
3 80 81 341
3 185 429 224
3 184 428 225
3 159 311 274
3 121 321 230
3 173 369 251
3 120 204 258
3 121 205 259
3 122 260 206
3 123 261 207
3 128 286 195
3 129 287 197
3 130 194 288
3 131 196 289
3 156 275 303
3 148 320 231
3 149 230 321
3 127 298 309
3 126 248 234
3 127 249 235
3 121 230 312
3 122 313 231
3 123 229 308
3 23 229 302
3 17 301 228
3 183 264 463
3 182 265 462
3 136 272 211
3 137 210 273
3 134 216 296
3 91 296 216
3 90 217 297
3 135 297 217
3 198 409 436
3 199 437 410
3 108 305 224
3 109 304 225
3 120 310 228
3 32 241 355
3 8 354 240
3 120 258 310
3 98 453 208
3 189 350 321
3 126 300 299
3 56 434 312
3 188 320 351
3 123 308 261
3 22 23 302
3 17 18 301
3 206 260 376
3 207 261 377
3 204 374 258
3 205 375 259
3 114 243 415
3 115 416 242
3 120 228 301
3 123 302 229
3 165 219 421
3 164 422 218
3 156 239 275
3 143 308 229
3 159 274 236
3 77 452 200
3 39 201 451
3 39 40 291
3 76 77 290
3 183 312 434
3 121 259 321
3 149 321 350
3 142 228 310
3 148 351 320
3 75 364 214
3 162 214 364
3 163 365 215
3 41 215 365
3 101 381 238
3 100 237 380
3 122 320 260
3 113 201 395
3 227 355 401
3 144 200 452
3 363 114 415
3 416 115 362
3 165 373 219
3 70 219 373
3 164 218 372
3 46 372 218
3 74 214 383
3 42 386 215
3 144 272 402
3 145 403 273
3 170 387 252
3 171 253 388
3 202 363 415
3 203 416 362
3 167 224 305
3 166 225 304
3 128 204 344
3 129 205 345
3 130 346 206
3 131 347 207
3 89 275 239
3 144 417 200
3 113 418 201
3 161 355 241
3 160 240 354
3 126 234 300
3 88 236 274
3 127 309 249
3 10 278 226
3 30 227 279
3 174 436 409
3 175 410 437
3 127 235 303
3 126 311 248
3 164 202 415
3 165 416 203
3 9 226 354
3 31 355 227
3 200 417 394
3 145 451 418
3 99 339 325
3 118 212 443
3 119 444 213
3 144 329 211
3 37 328 210
3 79 211 329
3 145 210 328
3 118 314 216
3 119 217 315
3 112 394 417
3 198 242 409
3 199 410 243
3 201 418 451
3 261 308 459
3 137 340 210
3 136 211 341
3 98 272 324
3 99 325 273
3 60 61 313
3 55 56 312
3 116 208 338
3 99 209 339
3 146 383 214
3 147 215 386
3 93 300 234
3 59 393 371
3 21 392 370
3 149 360 230
3 148 231 361
3 107 344 426
3 106 345 427
3 109 428 346
3 108 429 347
3 82 405 83
3 85 404 86
3 48 49 281
3 67 68 280
3 135 209 449
3 95 303 235
3 161 401 355
3 224 370 392
3 225 371 393
3 10 11 278
3 29 30 279
3 134 368 208
3 99 369 209
3 260 320 458
3 138 236 318
3 88 318 236
3 155 309 298
3 204 426 344
3 205 427 345
3 206 346 428
3 207 347 429
3 162 352 214
3 163 215 353
3 152 299 300
3 45 218 385
3 71 384 219
3 151 335 268
3 61 231 313
3 55 312 230
3 64 65 277
3 51 52 276
3 54 230 360
3 62 361 231
3 139 319 239
3 141 284 254
3 140 255 285
3 89 239 319
3 150 269 332
3 88 389 318
3 88 299 269
3 238 381 447
3 237 448 380
3 89 268 298
3 160 324 240
3 136 240 324
3 137 325 241
3 161 241 325
3 89 319 382
3 146 336 219
3 147 218 337
3 153 254 284
3 154 285 255
3 172 296 292
3 91 292 296
3 173 293 297
3 90 297 293
3 147 385 218
3 146 219 384
3 186 318 389
3 186 443 318
3 187 319 444
3 187 382 319
3 89 298 275
3 132 413 244
3 133 245 414
3 88 274 299
3 96 282 316
3 97 317 283
3 64 277 465
3 52 466 276
3 102 336 352
3 103 353 337
3 142 349 228
3 143 229 348
3 157 404 419
3 158 405 420
3 191 465 277
3 190 276 466
3 132 266 306
3 133 307 267
3 159 356 450
3 171 388 315
3 170 314 387
3 136 411 240
3 137 241 412
3 92 374 220
3 94 375 222
3 93 221 376
3 95 223 377
3 219 336 421
3 218 422 337
3 94 249 309
3 16 228 349
3 24 348 229
3 208 453 338
3 98 324 453
3 156 438 358
3 92 248 311
3 190 331 276
3 191 277 330
3 111 330 246
3 110 247 331
3 152 425 406
3 107 420 344
3 106 419 345
3 138 316 244
3 139 245 317
3 141 276 331
3 140 330 277
3 180 333 413
3 181 414 334
3 155 400 435
3 105 358 461
3 137 412 262
3 136 263 411
3 140 246 330
3 141 331 247
3 104 460 356
3 28 29 408
3 11 12 407
3 50 446 254
3 66 255 445
3 152 269 299
3 177 344 420
3 179 345 419
3 117 227 401
3 6 411 263
3 34 262 412
3 77 78 452
3 38 39 451
3 193 450 356
3 155 298 268
3 66 379 255
3 50 254 378
3 116 366 232
3 117 233 367
3 58 59 371
3 20 21 370
3 115 252 362
3 154 362 252
3 114 363 253
3 153 253 363
3 6 7 411
3 33 34 412
3 176 390 346
3 178 391 347
3 165 242 416
3 164 415 243
3 109 346 390
3 108 347 391
3 28 408 267
3 12 266 407
3 126 299 274
3 159 236 464
3 192 358 438
3 104 333 460
3 105 461 334
3 127 275 298
3 181 334 270
3 180 271 333
3 138 359 236
3 50 51 446
3 65 66 445
3 114 253 398
3 171 398 253
3 170 252 397
3 115 397 252
3 44 45 385
3 73 74 383
3 71 72 384
3 42 43 386
3 156 473 239
3 96 232 469
3 97 470 233
3 139 239 357
3 128 220 374
3 129 222 375
3 130 376 221
3 131 377 223
3 139 357 245
3 138 244 359
3 167 370 224
3 166 371 225
3 66 67 379
3 49 50 378
3 104 413 333
3 105 334 414
3 105 245 357
3 161 325 339
3 104 359 244
3 137 262 340
3 136 341 263
3 92 258 374
3 94 259 375
3 93 376 260
3 95 377 261
3 140 445 255
3 141 254 446
3 106 427 463
3 107 426 462
3 185 224 392
3 184 225 393
3 100 387 237
3 101 238 388
3 37 38 328
3 78 79 329
3 186 448 237
3 187 238 447
3 158 343 405
3 157 342 404
3 171 315 399
3 170 396 314
3 136 324 272
3 137 273 325
3 112 250 423
3 172 423 250
3 113 424 251
3 173 251 424
3 102 242 421
3 165 421 242
3 164 243 422
3 103 422 243
3 202 281 363
3 203 362 280
3 15 16 349
3 24 25 348
3 155 268 335
3 179 419 404
3 177 420 405
3 102 409 242
3 103 243 410
3 152 332 269
3 104 244 413
3 105 414 245
3 7 240 411
3 33 412 241
3 150 246 380
3 151 381 247
3 166 463 264
3 167 462 265
3 193 460 310
3 168 282 469
3 169 470 283
3 188 406 425
3 192 308 461
3 153 378 254
3 154 255 379
3 144 250 417
3 113 251 418
3 200 394 290
3 201 291 395
3 144 402 250
3 145 251 403
3 143 270 334
3 142 333 271
3 157 326 304
3 158 327 305
3 140 457 246
3 141 247 456
3 189 435 400
3 59 60 393
3 21 22 392
3 142 310 460
3 8 9 354
3 31 32 355
3 176 342 390
3 178 343 391
3 143 461 308
3 166 264 454
3 167 265 455
3 53 54 360
3 62 63 361
3 140 277 445
3 141 446 276
3 112 417 250
3 145 418 251
3 157 390 342
3 158 391 343
3 15 349 271
3 25 270 348
3 172 250 430
3 44 385 322
3 73 383 323
3 72 323 384
3 43 322 386
3 144 452 329
3 145 328 451
3 143 348 270
3 142 271 349
3 75 76 364
3 40 41 365
3 11 407 278
3 29 279 408
3 19 20 455
3 57 58 454
3 46 47 372
3 69 70 373
3 192 459 308
3 53 360 466
3 63 465 361
3 19 455 265
3 57 454 264
3 188 458 320
3 56 57 434
3 18 19 433
3 182 433 265
3 183 434 264
3 166 304 326
3 167 305 327
3 57 264 434
3 19 265 433
3 89 382 268
3 168 469 366
3 169 367 470
3 6 263 472
3 35 262 471
3 34 471 262
3 81 472 263
3 88 269 389
3 172 368 296
3 134 296 368
3 93 260 458
3 95 261 459
3 154 280 362
3 153 363 281
3 153 281 378
3 154 379 280
3 151 268 382
3 76 290 364
3 162 364 290
3 163 291 365
3 40 365 291
3 52 53 466
3 63 64 465
3 150 389 269
3 168 278 407
3 169 408 279
3 0 472 81
3 1 471 34
3 1 35 471
3 0 6 472
3 168 407 266
3 169 267 408
3 49 378 281
3 67 280 379
3 152 300 425
3 4 87 441
3 5 84 442
3 4 439 82
3 5 440 85
3 155 435 309
3 98 402 272
3 99 273 403
3 101 284 456
3 100 457 285
3 172 430 368
3 156 303 438
3 159 450 311
3 162 290 394
3 163 395 291
3 174 292 436
3 91 436 292
3 175 437 293
3 90 293 437
3 162 394 294
3 163 295 395
3 140 285 457
3 141 456 284
3 161 339 401
3 112 294 394
3 113 395 295
3 157 304 390
3 158 305 391
3 152 406 332
3 209 369 449
3 105 357 473
3 82 439 286
3 85 440 287
3 87 288 441
3 84 289 442
3 105 473 358
3 65 445 277
3 51 276 446
3 174 467 292
3 175 293 468
3 155 335 400
3 104 356 464
3 104 464 359
3 109 390 304
3 108 391 305
3 166 326 463
3 167 327 462
3 146 323 383
3 146 384 323
3 147 322 385
3 147 386 322
3 173 297 449
3 172 292 423
3 173 424 293
3 96 469 282
3 97 283 470
3 150 380 448
3 151 447 381
3 91 396 436
3 198 436 396
3 199 399 437
3 90 437 399
3 93 425 300
3 106 326 419
3 107 327 420
3 194 441 288
3 195 286 439
3 196 442 289
3 197 287 440
3 110 400 335
3 135 449 297
3 95 438 303
3 112 467 294
3 174 294 467
3 113 295 468
3 175 468 295
3 86 404 342
3 83 405 343
3 160 453 324
3 111 332 406
3 250 402 430
3 98 430 402
3 110 350 400
3 157 419 326
3 158 420 327
3 94 309 435
3 166 454 371
3 167 455 370
3 198 396 397
3 170 397 396
3 199 398 399
3 171 399 398
3 111 406 351
3 160 338 453
3 189 400 350
3 101 456 381
3 100 380 457
3 92 311 450
3 192 461 358
3 188 351 406
3 102 421 336
3 103 337 422
3 193 356 460
3 38 451 328
3 78 329 452
3 151 382 447
3 187 447 382
3 150 448 389
3 106 463 326
3 107 462 327
3 186 389 448
3 142 460 333
3 143 334 461
3 173 449 369
3 232 366 469
3 233 470 367
3 292 467 423
3 293 424 468
3 4 431 439
3 5 432 440
3 4 441 431
3 5 442 432
3 159 464 356
3 236 359 464
3 239 473 357
3 156 358 473
3 247 381 456
3 246 457 380
3 58 371 454
3 20 370 455
3 195 439 431
3 197 440 432
3 194 431 441
3 196 432 442
3 188 425 458
3 93 458 425
3 112 423 467
3 113 468 424
3 95 459 438
3 192 438 459
CELL_TYPES 860
5
5
5
5
5
5
5
5
5
5
5
5
5
5
5
5
5
5
5
5
5
5
5
5
5
5
5
5
5
5
5
5
5
5
5
5
5
5
5
5
5
5
5
5
5
5
5
5
5
5
5
5
5
5
5
5
5
5
5
5
5
5
5
5
5
5
5
5
5
5
5
5
5
5
5
5
5
5
5
5
5
5
5
5
5
5
5
5
5
5
5
5
5
5
5
5
5
5
5
5
5
5
5
5
5
5
5
5
5
5
5
5
5
5
5
5
5
5
5
5
5
5
5
5
5
5
5
5
5
5
5
5
5
5
5
5
5
5
5
5
5
5
5
5
5
5
5
5
5
5
5
5
5
5
5
5
5
5
5
5
5
5
5
5
5
5
5
5
5
5
5
5
5
5
5
5
5
5
5
5
5
5
5
5
5
5
5
5
5
5
5
5
5
5
5
5
5
5
5
5
5
5
5
5
5
5
5
5
5
5
5
5
5
5
5
5
5
5
5
5
5
5
5
5
5
5
5
5
5
5
5
5
5
5
5
5
5
5
5
5
5
5
5
5
5
5
5
5
5
5
5
5
5
5
5
5
5
5
5
5
5
5
5
5
5
5
5
5
5
5
5
5
5
5
5
5
5
5
5
5
5
5
5
5
5
5
5
5
5
5
5
5
5
5
5
5
5
5
5
5
5
5
5
5
5
5
5
5
5
5
5
5
5
5
5
5
5
5
5
5
5
5
5
5
5
5
5
5
5
5
5
5
5
5
5
5
5
5
5
5
5
5
5
5
5
5
5
5
5
5
5
5
5
5
5
5
5
5
5
5
5
5
5
5
5
5
5
5
5
5
5
5
5
5
5
5
5
5
5
5
5
5
5
5
5
5
5
5
5
5
5
5
5
5
5
5
5
5
5
5
5
5
5
5
5
5
5
5
5
5
5
5
5
5
5
5
5
5
5
5
5
5
5
5
5
5
5
5
5
5
5
5
5
5
5
5
5
5
5
5
5
5
5
5
5
5
5
5
5
5
5
5
5
5
5
5
5
5
5
5
5
5
5
5
5
5
5
5
5
5
5
5
5
5
5
5
5
5
5
5
5
5
5
5
5
5
5
5
5
5
5
5
5
5
5
5
5
5
5
5
5
5
5
5
5
5
5
5
5
5
5
5
5
5
5
5
5
5
5
5
5
5
5
5
5
5
5
5
5
5
5
5
5
5
5
5
5
5
5
5
5
5
5
5
5
5
5
5
5
5
5
5
5
5
5
5
5
5
5
5
5
5
5
5
5
5
5
5
5
5
5
5
5
5
5
5
5
5
5
5
5
5
5
5
5
5
5
5
5
5
5
5
5
5
5
5
5
5
5
5
5
5
5
5
5
5
5
5
5
5
5
5
5
5
5
5
5
5
5
5
5
5
5
5
5
5
5
5
5
5
5
5
5
5
5
5
5
5
5
5
5
5
5
5
5
5
5
5
5
5
5
5
5
5
5
5
5
5
5
5
5
5
5
5
5
5
5
5
5
5
5
5
5
5
5
5
5
5
5
5
5
5
5
5
5
5
5
5
5
5
5
5
5
5
5
5
5
5
5
5
5
5
5
5
5
5
5
5
5
5
5
5
5
5
5
5
5
5
5
5
5
5
5
5
5
5
5
5
5
5
5
5
5
5
5
5
5
5
5
5
5
5
5
5
5
5
5
5
5
5
5
5
5
5
5
5
5
5
5
5
5
5
5
5
5
5
5
5
5
5
5
5
5
5
5
5
5
5
5
5
5
5
5
5
5
5
5
5
5
5
5
5
5
5
5
5
5
5
5
5
5
5
5
5
5
5
5
5
5
5
5
5
5
5
5
5
5
5
5
5
5
5
5
5
5
5
5
5
5
5
5
5
5
5
5
5
5
5
5
5
5
5
5
5
5
5
5
5
5
5
5
5
5
5
5
5
5
5
5
5
POINT_DATA 474
SCALARS scalars float 1
LOOKUP_TABLE default
2.095133819208299
0.027924952925202
0.260517717888869
2.484359372869311
2.793609935888224
0.189164591221354
2.117543589933677
2.089050833028834
2.072398832205319
2.015646772648080
1.944968986963454
1.907936895366563
1.865901052172674
1.848686146093978
1.816412204189512
1.821937638398615
1.798265664546429
1.775461221470670
1.762868223806503
1.695617669621345
1.686968262767048
1.496611956852005
0.968133492283473
0.583187297002767
0.418844998846599
0.320044977807624
0.366181112970795
0.341712169560669
0.359219450705899
0.372666070074891
0.345727604541567
0.274369826883178
0.211970117083170
0.173204226510443
0.080008556944954
0.016765163602712
-0.017719700509659
0.028581871578254
-0.004798670509346
0.014684951250146
0.004266621240763
-0.009612076273781
-0.002478040438408
0.020010156079966
0.375808255912835
0.455126168939322
0.593325738408306
0.668604875294639
0.728664940131522
0.879645523633247
1.071233788717668
1.208287679828097
1.317855335668587
1.480689380410850
1.305553725882951
1.258308932393510
1.433786588188831
1.620043800740258
1.694823800746507
1.720371540384350
1.725782102684363
1.905240747522740
2.051074480387693
2.332212296511968
2.382232759644911
2.301793797865568
2.339834595589585
2.444099654520551
2.394749410152523
2.415906496229044
2.457085013856920
2.442805378692670
2.470418372988102
2.511164179108148
2.572312780408785
2.614063648086436
2.533580680979934
2.394632972725027
2.261299996780448
2.232420914592064
2.120176641148945
2.120481734829796
2.037347301416308
1.187901000234073
0.372053776840024
0.375141541790140
0.851291489561628
1.901121443116796
2.120670200440907
0.607770093056113
0.328696383274607
2.173978114050490
1.861845970402942
2.269246988469391
0.651045819064857
0.548972162775782
1.900015628845197
0.555203772855602
2.131627073305765
0.256474325166119
2.290940387814074
0.523733604810716
2.360560200846622
0.166956921651481
1.852380542661437
0.503120949810294
0.975155962906194
1.598091947574805
0.933623039553373
1.252390542529212
0.758832045771173
2.258926744033084
2.286933650109329
0.136499529368975
0.408019659226990
2.340996812454050
1.943766240607044
0.334088000607042
2.109332137510171
0.465138979228773
1.701419672108549
0.901117756674232
1.625194121918579
0.460535789664848
2.211910544464081
0.547233734941104
2.072935825229675
0.637933799771083
1.733583890381754
0.752991355979939
2.111786267533740
0.364072909736554
1.815739161551863
0.461357576158252
2.041435901049045
0.413054943851506
2.117896251707406
0.089074614126213
1.966068595918398
0.654097592978715
2.214423525994913
0.658983033781676
1.774894520108178
0.363553672693614
2.236755928122257
0.104660271927418
2.410359154331251
0.036679979730067
1.899943715824672
0.837531282724246
2.272985531612025
0.577140328481260
2.249646763036957
0.598815381977356
2.288172891849354
0.629889812114657
0.677589842934649
0.969553524253978
1.386090285096536
1.949758537352556
2.071693958310582
0.231955964583585
2.476298007897925
0.041550951251132
0.190102522459343
2.348051500700119
1.139507846392278
1.627649894012524
1.859045040411615
0.414612852186914
2.268114361410063
0.401781126078967
2.186113421765250
0.262256249734976
2.283606798062280
0.166133199795402
1.432624278159655
1.733538530139364
0.691774258425526
0.689711455667183
1.819382696416585
0.358490822168850
1.693832189281410
1.128248204138738
1.488526595260270
0.896183459658863
2.152939683122955
0.510330009729494
2.181905838867957
0.744314346006622
0.706530580536855
2.067096463857927
0.421846523504226
1.807338372249586
2.410075138564971
1.913026751816204
0.482479150739740
0.481290751334513
2.311428036171217
0.241645796166561
2.378466399947710
0.047119146981472
0.503833875688553
2.364535538063600
1.639938006927568
0.910736293779875
1.886973405708863
0.397454946401589
2.045339237157707
0.367428962322243
0.055873063876467
2.170487968226902
1.990824752350753
0.592136545533601
2.501983318557226
0.024565135451753
2.093121784676458
0.407799768020013
0.271685492126481
2.406592849557835
1.842166528425808
2.284547784136701
0.577319673533004
0.529854420115066
1.275983810621436
1.173948394194759
1.985639923009354
0.335894179171554
1.771513233033341
0.441199533187112
1.071851119196078
1.889635121514322
1.955125170532643
0.452888479487969
2.175687289003830
0.668360160085461
1.992303105870005
2.212856365618639
0.504750191929298
0.675970686235710
2.076449233743898
0.175783557690143
2.366968091851149
0.280034444153107
1.861858292337612
0.539117914031531
2.317699703866036
0.612069810821463
1.918455406149764
0.563203780635981
2.232724425420185
0.180041729631999
2.347182052509059
0.497999362367856
0.786554909178828
2.271871649296552
2.024751968422644
0.503638699547327
1.743348139737062
0.835992777697108
2.000367026823625
0.341682944865948
0.061909901843238
2.089651701509701
1.293830439911321
1.680438571897118
1.847439647835468
0.376335416071962
0.543216001956396
2.191969983558313
0.340876506995855
1.812780202091015
2.177688772152820
0.141606027377451
2.002138703509345
0.683272427584615
0.932223092635847
2.206841773376300
1.930588872399709
0.349303906660689
2.340229135524243
0.695908667832568
1.873094333312242
0.474783571796889
0.621782329493315
2.359639618883706
1.845586164167271
0.516232063859415
2.066050001749951
0.320019324848311
2.481766153060548
0.023398456119295
2.198951867158582
0.249606580925807
2.353609752984160
0.106790622332500
2.130989343371814
0.303085094764866
0.549007144889280
2.134859964117029
2.206630217953019
1.738664046752373
0.712502527351830
0.668476201738096
0.974312050547451
1.272344034643865
1.832558943137080
0.359341766007948
0.364134766850577
0.568483453526821
1.754503486151820
1.941444703388949
1.280792682274058
1.648021446889338
2.182537153184435
0.423979283735371
1.898742911929014
0.562985606373367
2.078608853779387
0.611217550212602
2.063499693859516
0.902150534495988
0.073434906719023
2.461167576157197
2.090399791331656
0.170803934948186
0.961135813421966
1.554699094111164
0.037211462267633
2.223093953138505
2.299177208595823
0.778195751453989
2.315844225121946
1.780068378308718
0.412460568066930
0.593495387960389
2.376764188252609
0.100596926624639
2.020671048250628
0.238068277110550
0.021322584586262
2.146858855205898
1.238573811174966
0.883445987008807
1.638488289954259
0.865021110060839
1.578024408006928
0.538588326958964
0.374353331524298
1.823144268979600
0.824112060196902
2.251241717887501
2.420794268332495
0.099103332643057
2.039398687760846
0.277551579704364
1.832969322017484
0.623744328979649
0.543599498602793
1.880483423209154
1.042761362529628
2.067571883475587
2.326052963174729
0.408912824478617
2.527084845531547
0.010292957780112
1.900593790875760
0.417280578932878
2.105897125062285
0.266025766329297
1.408611597376745
1.481848390010424
0.446460099771374
2.398711800479701
1.736817203203236
0.712388951173356
2.146322321597562
0.378269650958262
0.810483224028674
2.339151652443047
2.306818047744984
0.543134387835162
0.513749681872033
2.529669238083128
2.435303875213049
0.281723437335980
0.042187816753262
2.281314816607336
0.448426592209991
2.196014174826036
1.191249902079955
0.992846452431129
1.303724415303103
1.514897983482073
2.361808751816811
0.095909624009474
2.256378157123979
2.321852741166671
0.340083675267000
0.336378834713308
0.654973857422026
0.265928975018453
2.179498395523650
0.215369470610350
0.703664565200343
1.456382663303216
2.250153875981484
1.887787080039985
0.359805418508375
2.308191577816327
0.194948033934130
2.098634342738723
0.108681296444059
1.809058642445138
0.463609112347942
0.369140391191015
2.359725920363605
2.333872077545426
0.108016278532332
0.877967945766994
1.574993088382128
2.377206939422952
0.153260369525517
2.221248545636333
0.225554553454810
2.272599633117614
1.614771654497954
1.017375237471375
1.314512754466905
0.736620471163906
2.133253050456530
2.269694841365725
0.460997735723599
1.684387968529182
1.355532795887147
0.677177456099137
2.254131331360985
0.233115683909151
0.568012305711448
2.625579031755787
0.211703141727013
2.763864677607242
0.244290741484160
2.151309908258772
0.528998313287011
2.324741299600242
0.959218601300873
0.520645023603791
2.189285862167321
0.338011933651408
1.826838519158912
0.019285184626422
2.355209005801135
2.057593271399970
1.508522618936383
1.612779677117746
0.647414473239335
2.333494049940481
2.144175634686208
0.394970524118346
1.793495184335171
0.390332146072007
1.572229643397586
1.059399395100683
1.887703143987339
2.125897557859102
1.113718572287968
2.294323087162820
0.157193120786908
1.905122265739055
0.429032774282927
0.023978012040830
2.118555018696264
0.609488585717900
