# vtk DataFile Version 3.0
    
ASCII
DATASET UNSTRUCTURED_GRID
POINTS 522 float
0 0 0
1.5 0 0
5 0 0
5 1 0
1.5 1 0
0 1 0
0.6 0.49 0
0.8 0.49 0
0 0.7 0
0 0.3 0
0.1 0 0
0.2 0 0
0.3 0 0
0.4 0 0
0.5 0 0
0.6 0 0
0.7 0 0
0.8 0 0
0.9 0 0
1 0 0
1.1 0 0
1.2 0 0
1.3 0 0
1.4 0 0
1.5984 0 0
1.69956 0 0
1.80357 0 0
1.91051 0 0
2.02044 0 0
2.13347 0 0
2.24968 0 0
2.36916 0 0
2.49199 0 0
2.61828 0 0
2.74812 0 0
2.8816 0 0
3.01884 0 0
3.15994 0 0
3.30501 0 0
3.45415 0 0
3.60749 0 0
3.76514 0 0
3.92722 0 0
4.09385 0 0
4.26518 0 0
4.44131 0 0
4.6224 0 0
4.80858 0 0
5 0.2 0
5 0.4 0
5 0.6 0
5 0.8 0
4.80858 1 0
4.6224 1 0
4.44131 1 0
4.26518 1 0
4.09385 1 0
3.92722 1 0
3.76514 1 0
3.60749 1 0
3.45415 1 0
3.30501 1 0
3.15994 1 0
3.01884 1 0
2.8816 1 0
2.74812 1 0
2.61828 1 0
2.49199 1 0
2.36916 1 0
2.24968 1 0
2.13347 1 0
2.02044 1 0
1.91051 1 0
1.80357 1 0
1.69956 1 0
1.5984 1 0
1.4 1 0
1.3 1 0
1.2 1 0
1.1 1 0
1 1 0
0.9 1 0
0.8 1 0
0.7 1 0
0.6 1 0
0.5 1 0
0.4 1 0
0.3 1 0
0.2 1 0
0.1 1 0
0.629289 0.419289 0
0.7 0.39 0
0.770711 0.419289 0
0.770711 0.560711 0
0.7 0.59 0
0.629289 0.560711 0
0 0.9 0
0 0.8 0
0 0.6 0
0 0.5 0
0 0.4 0
0 0.2 0
0 0.1 0
1.29823 0.497011 0
1.7993 0.500433 0
2.30332 0.491252 0
2.81658 0.477715 0
0.336923 0.641275 0
0.337594 0.346079 0
3.31769 0.509337 0
1.05297 0.343793 0
1.03926 0.622176 0
3.80789 0.5 0
1.54024 0.695722 0
1.5492 0.30973 0
4.27898 0.504186 0
2.05132 0.68775 0
2.05376 0.317139 0
0.519804 0.767158 0
0.802989 0.764179 0
1.27103 0.751107 0
1.28518 0.249997 0
2.55439 0.690554 0
2.52682 0.319624 0
0.521836 0.222845 0
0.81228 0.212043 0
1.79214 0.75007 0
1.79257 0.245483 0
3.05607 0.311115 0
3.02892 0.679395 0
2.29225 0.734715 0
2.30571 0.256419 0
0.19924 0.488095 0
0.417931 0.495036 0
3.53831 0.70807 0
3.54362 0.281734 0
0.193444 0.811625 0
0.192169 0.191432 0
0.974924 0.824891 0
1.49856 0.498145 0
2.79933 0.752577 0
2.79933 0.247423 0
4.65223 0.35559 0
0.9532 0.488914 0
0.96889 0.171408 0
4.06299 0.3048 0
4.05889 0.688223 0
0.366244 0.179061 0
0.658187 0.738385 0
4.57081 0.686231 0
1.98455 0.492436 0
1.12748 0.490644 0
0.363796 0.802426 0
0.900346 0.338556 0
1.41809 0.828786 0
0.89583 0.646853 0
0.499078 0.618481 0
0.491346 0.367133 0
0.662746 0.250195 0
1.43196 0.164632 0
3.3011 0.233005 0
3.30044 0.771788 0
0.156279 0.644925 0
1.6426 0.834207 0
1.6426 0.165793 0
1.14689 0.152225 0
1.38952 0.642246 0
1.39184 0.36051 0
1.94457 0.841231 0
1.94457 0.158769 0
2.52865 0.502703 0
3.80312 0.746227 0
3.78493 0.246576 0
0.148596 0.342169 0
1.64915 0.5676 0
1.15272 0.85174 0
1.69486 0.37811 0
1.20887 0.62899 0
1.89782 0.6282 0
1.90201 0.361488 0
1.19533 0.361889 0
4.3561 0.254559 0
2.1265 0.833067 0
2.13379 0.171675 0
0.609238 0.872652 0
4.3075 0.761326 0
2.14827 0.553904 0
3.00242 0.5 0
2.45067 0.169346 0
2.45067 0.830654 0
0.606776 0.120576 0
0.776066 0.67364 0
2.19494 0.373675 0
2.39654 0.62083 0
2.40171 0.370894 0
0.741396 0.873855 0
0.78221 0.310093 0
0.451369 0.866758 0
2.64686 0.83063 0
2.63957 0.167187 0
0.591697 0.304666 0
0.733767 0.118858 0
3.49075 0.523801 0
0.297352 0.459006 0
1.11916 0.732209 0
0.894701 0.876309 0
0.59437 0.663756 0
2.95597 0.165307 0
2.95597 0.834693 0
2.63102 0.568167 0
1.31237 0.8718 0
0.421925 0.716843 0
1.31956 0.120881 0
0.424156 0.272832 0
0.449196 0.121069 0
1.68547 0.670639 0
1.75581 0.856934 0
1.75341 0.148197 0
0.887309 0.116486 0
2.70167 0.376406 0
4.79115 0.554953 0
0.888682 0.560696 0
2.90424 0.628997 0
2.90424 0.371003 0
0.275368 0.88687 0
4.00211 0.497307 0
3.15976 0.167107 0
3.15513 0.83481 0
1.5374 0.892482 0
0.889744 0.419967 0
1.13612 0.269657 0
0.509885 0.525766 0
0.115054 0.884946 0
4.76868 0.769058 0
0.267515 0.108261 0
0.102721 0.545955 0
0.925019 0.73758 0
1.54161 0.106498 0
1.59211 0.417427 0
0.116165 0.110745 0
3.14308 0.451737 0
3.45292 0.827358 0
3.45292 0.172642 0
2.20352 0.666359 0
1.77224 0.625201 0
0.100397 0.736906 0
0.274539 0.551545 0
0.39594 0.592617 0
3.20278 0.592883 0
0.104368 0.439269 0
0.098679 0.245602 0
4.18566 0.166209 0
0.407142 0.396383 0
0.921805 0.255776 0
2.30601 0.913257 0
2.30601 0.0867433 0
0.286589 0.241977 0
4.51167 0.169478 0
0.280868 0.732288 0
3.68334 0.84561 0
3.66423 0.156126 0
4.79826 0.203133 0
3.42923 0.39036 0
3.40883 0.625376 0
1.0586 0.0979564 0
0.240045 0.380737 0
1.65413 0.275546 0
4.48293 0.491416 0
1.05994 0.902248 0
0.971142 0.580123 0
3.95631 0.828593 0
3.94292 0.182554 0
2.09274 0.432697 0
1.04751 0.440715 0
1.29518 0.394935 0
3.65835 0.548048 0
1.3903 0.263126 0
1.3029 0.58715 0
0.971714 0.395779 0
0.529233 0.443105 0
1.39191 0.546667 0
1.37083 0.738079 0
1.49332 0.611056 0
2.05278 0.894559 0
2.05331 0.105787 0
4.17374 0.835307 0
3.71978 0.385921 0
2.6721 0.725706 0
1.04669 0.533866 0
1.03275 0.719079 0
4.45574 0.806072 0
2.29194 0.618089 0
2.82163 0.118405 0
2.82163 0.881595 0
1.85435 0.911616 0
1.85401 0.0891174 0
1.54418 0.210074 0
3.90593 0.628546 0
3.89225 0.358172 0
1.90398 0.740168 0
1.89936 0.262378 0
0.998458 0.269385 0
0.361332 0.902906 0
1.53216 0.784652 0
4.22554 0.339354 0
1.80399 0.348899 0
1.22456 0.0874216 0
4.1292 0.560922 0
1.48094 0.394543 0
1.21041 0.447958 0
1.69129 0.477173 0
2.14492 0.271978 0
2.55261 0.900729 0
2.55157 0.098959 0
0.82374 0.367681 0
0.695474 0.663229 0
2.59737 0.420797 0
1.8973 0.53155 0
0.736076 0.794657 0
1.22436 0.913802 0
0.822384 0.615444 0
0.360752 0.0899626 0
0.525083 0.921926 0
1.4463 0.917923 0
0.96296 0.07717 0
1.99631 0.601932 0
1.45 0.0781716 0
0.674849 0.326051 0
0.23806 0.642462 0
4.38876 0.647917 0
1.06627 0.204802 0
1.12406 0.578834 0
0.451347 0.192256 0
4.82952 0.382579 0
1.45736 0.716757 0
0.595246 0.792912 0
3.17135 0.298883 0
0.565906 0.581767 0
2.02313 0.774883 0
2.02788 0.229451 0
0.225026 0.295213 0
2.77661 0.593804 0
1.21199 0.538431 0
1.98514 0.397813 0
0.840494 0.27405 0
0.447012 0.790269 0
1.65295 0.924 0
1.65465 0.0765277 0
0.850796 0.707558 0
0.973087 0.916245 0
0.196376 0.715842 0
0.529664 0.0735585 0
3.2634 0.105129 0
3.26264 0.89583 0
0.736266 0.201309 0
4.47675 0.334364 0
0.816992 0.920547 0
2.40936 0.265571 0
2.41264 0.724168 0
1.11904 0.393039 0
0.599431 0.207212 0
2.29353 0.362255 0
0.512635 0.689922 0
4.62452 0.849074 0
1.61984 0.732178 0
0.810439 0.0807266 0
0.0718795 0.645557 0
2.18553 0.0899436 0
2.18423 0.910904 0
0.19629 0.918402 0
1.08474 0.802794 0
1.23858 0.194963 0
1.70745 0.759978 0
1.45603 0.313345 0
0.566092 0.374962 0
1.39278 0.448635 0
0.510649 0.305858 0
0.184209 0.568688 0
2.66629 0.280992 0
2.2095 0.465455 0
1.14632 0.0698243 0
1.95653 0.929481 0
1.95657 0.0707346 0
0.354122 0.5336 0
0.677841 0.91807 0
0.972219 0.659562 0
1.24514 0.826875 0
1.56249 0.556203 0
2.41694 0.515436 0
3.09082 0.583699 0
3.83236 0.88266 0
3.83236 0.11734 0
1.85017 0.820004 0
1.84878 0.180789 0
1.71434 0.220994 0
0.524625 0.835279 0
3.6921 0.691084 0
0.0671952 0.348805 0
2.49317 0.603388 0
0.189585 0.0816778 0
0.676391 0.0768913 0
1.20316 0.705394 0
1.32706 0.320288 0
2.54672 0.793317 0
2.54366 0.21192 0
0.459365 0.4386 0
1.14803 0.933575 0
3.29428 0.358237 0
1.29105 0.675494 0
1.22293 0.282411 0
3.05254 0.106327 0
3.05172 0.894433 0
1.60505 0.637159 0
0.667596 0.819303 0
0.637008 0.611893 0
2.91554 0.267017 0
2.90699 0.737657 0
0.529759 0.154295 0
0.669229 0.162507 0
4.34051 0.883655 0
2.49462 0.418932 0
2.23816 0.195375 0
2.22694 0.802202 0
0.348532 0.718857 0
2.43057 0.925271 0
2.43057 0.074729 0
0.353024 0.268811 0
1.97363 0.313654 0
1.97451 0.686587 0
0.0765459 0.816713 0
1.62257 0.345203 0
4.35279 0.110503 0
1.7308 0.301812 0
2.12261 0.736642 0
0.173062 0.412568 0
4.13304 0.438263 0
1.37535 0.923702 0
2.79848 0.352614 0
1.87171 0.443103 0
1.73155 0.557581 0
1.83325 0.678965 0
1.11541 0.658338 0
0.733759 0.726818 0
3.54939 0.896501 0
3.54939 0.103499 0
3.3777 0.0874012 0
3.3777 0.912599 0
3.58674 0.40733 0
1.34475 0.200483 0
2.72029 0.464917 0
4.2134 0.671441 0
2.68507 0.0840881 0
2.68504 0.918424 0
3.1612 0.699913 0
0.288791 0.814817 0
1.76562 0.42774 0
2.06426 0.550573 0
0.450318 0.551067 0
0.879944 0.802295 0
0.753077 0.618139 0
4.36406 0.384776 0
4.67395 0.130438 0
1.3803 0.072737 0
0.0711221 0.175664 0
0.812016 0.83864 0
0.966853 0.328724 0
4.87293 0.677984 0
2.90136 0.527913 0
4.64401 0.560862 0
1.60373 0.49925 0
3.78308 0.619245 0
1.3275 0.798497 0
0.431015 0.342404 0
0.72158 0.284456 0
3.00261 0.397994 0
0.86382 0.490004 0
0.826951 0.542556 0
2.11544 0.633536 0
1.17933 0.778353 0
3.04769 0.209604 0
3.04546 0.785169 0
1.06346 0.271909 0
4.88445 0.867542 0
0.0633118 0.936688 0
4.0581 0.123499 0
0.748634 0.357014 0
0.292307 0.172943 0
0.435605 0.642627 0
0.8274 0.437776 0
0.873024 0.189937 0
0.0622663 0.0622663 0
0.576049 0.730427 0
2.3546 0.818732 0
2.35675 0.174697 0
1.47024 0.243687 0
4.89852 0.104315 0
0.744119 0.0552951 0
0.747246 0.942495 0
0.799243 0.150177 0
0.448255 0.941504 0
1.8309 0.572662 0
2.12173 0.351684 0
3.40254 0.729189 0
3.40394 0.281168 0
2.72799 0.177918 0
2.73333 0.824014 0
0.166144 0.259955 0
2.99122 0.590771 0
2.95022 0.931489 0
2.95022 0.0685107 0
3.29891 0.654748 0
0.775458 0.254839 0
2.23428 0.296941 0
3.66137 0.27569 0
1.75655 0.694332 0
1.26235 0.328586 0
0.371471 0.454453 0
1.75277 0.941367 0
1.75262 0.059546 0
2.23131 0.559012 0
0.627364 0.362201 0
0.449243 0.0515068 0
CELLS 941 3764
3 252 516 108
3 220 333 50
3 233 149 468
3 50 333 49
3 220 233 468
3 108 516 203
3 193 398 358
3 358 130 291
3 84 322 184
3 384 84 184
3 123 194 357
3 139 375 308
3 105 194 388
3 164 266 296
3 193 358 291
3 358 398 122
3 168 299 338
3 169 339 300
3 132 265 203
3 174 439 215
3 105 361 194
3 338 299 428
3 339 427 300
3 107 258 328
3 122 287 403
3 399 12 234
3 11 12 399
3 198 403 287
3 177 408 401
3 109 248 240
3 123 420 194
3 124 360 200
3 115 329 450
3 87 369 224
3 56 270 285
3 110 230 359
3 132 203 246
3 290 363 54
3 4 228 75
3 177 277 408
3 109 262 202
3 109 202 263
3 215 439 244
3 118 211 362
3 105 379 361
3 29 367 284
3 70 283 368
3 54 363 53
3 114 296 266
3 134 443 241
3 135 242 444
3 258 350 328
3 107 383 247
3 124 200 376
3 165 371 230
3 170 209 398
3 108 203 265
3 107 487 211
3 150 438 343
3 134 263 202
3 122 398 209
3 170 316 209
3 122 403 358
3 123 357 404
3 180 359 230
3 107 246 383
3 426 147 213
3 138 205 458
3 75 228 346
3 56 57 270
3 87 88 369
3 158 200 360
3 148 206 315
3 147 321 214
3 230 371 409
3 192 361 379
3 194 420 388
3 147 332 213
3 152 345 197
3 134 259 443
3 135 444 260
3 22 212 306
3 243 422 433
3 163 228 303
3 48 333 261
3 6 337 231
3 204 289 441
3 163 216 346
3 164 347 217
3 40 41 260
3 58 59 259
3 139 280 375
3 99 249 235
3 134 202 275
3 119 442 191
3 15 190 351
3 400 190 15
3 77 319 210
3 155 221 269
3 6 279 90
3 152 197 302
3 89 232 369
3 107 211 423
3 107 247 487
3 52 363 233
3 111 441 289
3 1 24 237
3 18 218 365
3 81 356 205
3 176 310 238
3 118 345 211
3 87 224 302
3 41 391 260
3 58 259 390
3 240 248 389
3 122 209 287
3 119 191 348
3 185 450 329
3 154 436 210
3 48 49 333
3 138 349 205
3 171 297 270
3 172 271 298
3 183 284 367
3 182 368 283
3 132 235 249
3 81 205 349
3 163 372 216
3 52 53 363
3 143 221 475
3 159 212 462
3 130 422 243
3 140 416 293
3 141 292 415
3 156 337 206
3 6 95 337
3 170 388 420
3 127 300 305
3 166 277 280
3 137 463 239
3 208 293 416
3 207 415 292
3 103 280 277
3 28 29 284
3 70 71 283
3 138 458 236
3 146 270 297
3 145 298 271
3 18 324 218
3 172 298 286
3 202 262 447
3 204 370 289
3 143 475 229
3 112 286 298
3 144 489 218
3 150 317 438
3 99 100 249
3 153 278 229
3 135 447 262
3 143 269 221
3 174 215 412
3 126 216 372
3 115 450 307
3 154 334 303
3 143 229 278
3 108 340 256
3 186 272 379
3 88 89 369
3 137 250 463
3 179 305 300
3 136 232 429
3 206 414 315
3 186 456 272
3 6 231 279
3 158 327 200
3 24 347 237
3 163 346 228
3 154 210 471
3 189 358 403
3 188 404 357
3 77 210 436
3 86 87 302
3 164 296 237
3 182 433 422
3 108 265 340
3 472 108 213
3 213 108 426
3 98 99 235
3 8 245 97
3 238 310 469
3 22 462 212
3 90 279 374
3 159 448 212
3 124 376 213
3 147 214 332
3 151 359 309
3 155 385 236
3 45 46 257
3 136 429 245
3 130 243 291
3 37 352 226
3 62 227 353
3 123 378 316
3 10 399 239
3 110 481 230
3 167 308 375
3 154 281 334
3 219 378 437
3 105 388 291
3 142 257 461
3 112 275 286
3 118 395 345
3 161 241 446
3 160 445 242
3 179 343 438
3 164 217 394
3 156 206 362
3 197 345 395
3 163 303 364
3 155 320 221
3 133 405 231
3 136 224 369
3 148 491 206
3 141 437 378
3 223 415 474
3 152 423 211
3 146 285 270
3 136 369 232
3 219 316 378
3 209 449 341
3 19 20 264
3 193 291 388
3 142 461 261
3 106 223 467
3 152 211 345
3 145 251 304
3 126 392 216
3 127 217 393
3 113 282 412
3 132 434 265
3 112 225 297
3 112 298 225
3 127 394 217
3 137 239 399
3 129 416 222
3 144 218 324
3 55 56 285
3 114 238 308
3 128 479 336
3 45 257 431
3 106 437 223
3 124 213 332
3 144 253 489
3 137 399 234
3 17 18 365
3 211 487 362
3 68 69 254
3 30 31 255
3 166 280 282
3 9 101 250
3 140 341 222
3 152 302 454
3 160 352 445
3 161 446 353
3 139 282 280
3 474 415 128
3 226 336 479
3 43 44 251
3 79 80 268
3 162 366 235
3 282 387 412
3 55 285 419
3 164 237 347
3 187 467 223
3 98 235 366
3 181 304 251
3 145 225 298
3 146 297 225
3 154 303 228
3 153 229 314
3 142 220 468
3 161 502 241
3 160 242 503
3 171 390 259
3 172 260 391
3 186 519 243
3 106 449 437
3 111 269 288
3 231 405 279
3 21 22 306
3 73 517 294
3 26 295 518
3 160 336 226
3 37 226 410
3 62 411 227
3 195 384 413
3 106 341 449
3 153 253 465
3 187 223 474
3 159 237 296
3 129 222 507
3 215 244 514
3 4 323 228
3 96 429 232
3 224 454 302
3 143 288 269
3 143 273 288
3 142 333 220
3 214 321 521
3 180 309 359
3 220 466 233
3 181 431 257
3 198 287 505
3 216 517 346
3 217 347 518
3 103 277 342
3 146 225 307
3 10 11 399
3 138 236 289
3 50 466 220
3 458 119 348
3 219 437 449
3 140 222 416
3 187 474 240
3 143 278 273
3 183 311 339
3 137 256 340
3 110 273 278
3 155 236 348
3 149 290 329
3 128 240 474
3 18 19 324
3 216 294 517
3 217 518 295
3 154 228 323
3 91 327 485
3 139 308 238
3 275 447 286
3 187 240 389
3 72 73 294
3 26 27 295
3 154 323 436
3 9 250 397
3 115 307 435
3 173 397 250
3 77 78 319
3 236 458 348
3 19 264 324
3 115 435 304
3 138 289 370
3 162 350 245
3 136 454 224
3 132 246 377
3 136 245 350
3 185 329 290
3 95 414 337
3 96 232 483
3 89 483 232
3 81 82 356
3 236 385 289
3 206 337 414
3 149 233 363
3 108 472 252
3 138 268 349
3 203 383 246
3 139 238 469
3 1 237 326
3 144 264 330
3 327 473 485
3 117 339 311
3 52 233 482
3 145 484 251
3 177 342 277
3 157 376 374
3 97 245 429
3 37 38 352
3 61 62 353
3 159 326 237
3 243 519 291
3 162 245 366
3 159 462 326
3 12 321 234
3 161 227 453
3 200 374 376
3 209 316 449
3 160 226 352
3 161 353 227
3 137 234 486
3 165 330 264
3 30 255 367
3 69 368 254
3 144 301 253
3 132 377 235
3 178 317 325
3 165 230 330
3 150 272 456
3 185 419 285
3 129 480 416
3 128 415 479
3 184 413 384
3 151 288 273
3 209 341 287
3 145 271 484
3 156 231 337
3 145 435 225
3 10 239 490
3 186 243 477
3 128 336 240
3 107 328 246
3 116 338 428
3 192 379 272
3 162 235 377
3 138 370 268
3 311 421 512
3 119 318 442
3 117 427 339
3 150 325 317
3 80 349 268
3 253 301 465
3 115 460 267
3 147 486 321
3 8 366 245
3 80 81 349
3 134 241 502
3 135 503 242
3 124 332 417
3 156 457 231
3 489 344 125
3 180 274 309
3 175 268 370
3 151 273 359
3 137 506 250
3 147 426 256
3 68 254 424
3 31 425 255
3 133 231 457
3 239 463 490
3 255 425 493
3 254 492 424
3 144 330 301
3 109 240 407
3 102 490 463
3 44 431 251
3 140 505 287
3 181 251 431
3 100 397 249
3 120 401 408
3 114 430 238
3 213 376 472
3 34 35 292
3 64 65 293
3 180 230 409
3 253 344 489
3 234 321 486
3 181 257 355
3 42 484 271
3 153 344 253
3 151 342 331
3 183 421 311
3 191 320 348
3 149 329 267
3 96 97 429
3 155 269 385
3 60 446 443
3 39 444 445
3 212 448 371
3 176 238 430
3 111 288 331
3 241 443 446
3 242 445 444
3 144 324 264
3 208 508 293
3 207 292 509
3 134 396 259
3 156 362 487
3 173 249 397
3 166 282 334
3 142 261 333
3 103 309 274
3 113 303 334
3 113 334 282
3 214 417 332
3 305 438 455
3 131 357 361
3 115 267 329
3 152 258 423
3 47 261 461
3 134 502 263
3 135 262 503
3 179 438 305
3 155 348 320
3 129 389 453
3 137 486 256
3 151 331 288
3 248 510 453
3 140 287 341
3 133 457 383
3 157 405 252
3 36 37 410
3 62 63 411
3 246 328 377
3 106 467 341
3 43 251 484
3 194 361 357
3 135 260 513
3 108 256 426
3 42 43 484
3 32 33 313
3 66 67 312
3 142 355 257
3 171 259 396
3 117 272 343
3 141 378 504
3 510 161 453
3 248 453 389
3 137 340 506
3 109 510 248
3 247 383 457
3 83 84 384
3 114 308 373
3 222 341 467
3 503 407 160
3 216 392 294
3 217 295 393
3 162 328 350
3 154 471 281
3 156 487 457
3 107 423 258
3 182 283 338
3 183 339 284
3 113 412 364
3 136 350 258
3 4 76 323
3 173 250 506
3 150 343 272
3 121 371 448
3 262 407 503
3 109 263 510
3 233 466 482
3 142 468 267
3 132 249 434
3 157 472 376
3 195 413 318
3 215 364 412
3 33 451 313
3 66 312 452
3 136 258 454
3 84 85 322
3 157 252 472
3 165 264 380
3 175 406 268
3 47 495 261
3 51 482 466
3 59 443 259
3 40 260 444
3 34 292 451
3 65 452 293
3 12 13 321
3 116 325 477
3 196 344 314
3 173 340 265
3 159 276 448
3 103 274 375
3 167 375 274
3 173 434 249
3 188 493 425
3 189 424 492
3 247 457 487
3 177 331 342
3 212 371 306
3 103 342 309
3 221 320 476
3 142 267 355
3 42 271 391
3 57 390 270
3 114 494 296
3 166 334 281
3 325 456 477
3 168 338 283
3 169 284 339
3 110 278 465
3 20 380 264
3 79 268 406
3 109 407 262
3 202 447 275
3 110 359 273
3 147 256 486
3 267 460 355
3 139 469 387
3 35 509 292
3 64 293 508
3 199 313 451
3 198 452 312
3 1 326 23
3 153 314 344
3 208 416 480
3 207 479 415
3 15 16 400
3 164 394 266
3 172 513 260
3 101 463 250
3 113 364 303
3 101 102 463
3 46 461 257
3 171 270 390
3 172 391 271
3 152 454 258
3 301 330 481
3 22 23 462
3 46 47 461
3 14 15 351
3 48 261 495
3 201 418 400
3 167 276 373
3 148 335 491
3 121 409 371
3 114 266 430
3 74 75 346
3 24 25 347
3 218 489 498
3 157 374 279
3 180 515 274
3 111 385 269
3 149 363 290
3 71 381 283
3 28 284 382
3 131 512 421
3 175 370 478
3 41 42 391
3 57 58 390
3 254 368 422
3 255 421 367
3 86 302 499
3 229 488 314
3 134 275 396
3 177 401 441
3 176 430 266
3 76 77 436
3 151 309 342
3 199 378 404
3 157 279 405
3 103 375 280
3 176 266 432
3 121 276 402
3 166 408 277
3 203 516 383
3 167 274 402
3 27 28 382
3 71 72 381
3 167 402 276
3 114 373 494
3 168 283 381
3 169 382 284
3 146 450 285
3 90 520 91
3 123 404 378
3 166 281 408
3 111 289 385
3 204 478 370
3 167 373 308
3 139 387 282
3 117 501 272
3 173 265 434
3 149 267 468
3 189 312 424
3 188 425 313
3 240 336 407
3 29 30 367
3 69 70 368
3 293 452 505
3 292 504 451
3 112 470 275
3 110 465 301
3 67 424 312
3 32 313 425
3 190 400 418
3 205 464 458
3 196 485 473
3 193 388 398
3 8 98 366
3 20 21 380
3 50 51 466
3 59 60 443
3 39 40 444
3 219 449 316
3 178 440 500
3 165 306 371
3 185 285 450
3 120 408 281
3 121 448 276
3 218 498 365
3 244 500 440
3 192 272 501
3 168 294 392
3 169 393 295
3 197 322 499
3 21 306 380
3 159 494 276
3 204 441 401
3 170 398 388
3 72 294 381
3 27 382 295
3 513 447 135
3 168 392 299
3 169 300 393
3 74 346 517
3 25 518 347
3 168 381 294
3 169 295 382
3 54 419 290
3 91 520 327
3 126 299 392
3 127 393 300
3 165 380 306
3 133 516 405
3 13 521 321
3 141 415 437
3 197 499 302
3 158 354 473
3 185 290 419
3 54 55 419
3 92 485 314
3 210 319 386
3 172 286 513
3 153 465 278
3 286 447 513
3 118 335 395
3 205 356 464
3 119 464 318
3 3 482 51
3 252 405 516
3 199 504 378
3 9 397 100
3 94 459 315
3 223 437 415
3 210 386 471
3 78 79 406
3 120 281 471
3 85 499 322
3 3 52 482
3 174 469 310
3 130 492 422
3 131 421 493
3 197 395 322
3 254 422 492
3 255 493 421
3 214 521 351
3 196 511 344
3 93 320 459
3 94 315 414
3 5 483 89
3 5 96 483
3 104 500 439
3 126 440 299
3 67 68 424
3 31 32 425
3 171 470 297
3 184 395 335
3 2 48 495
3 44 45 431
3 0 490 102
3 0 10 490
3 175 386 319
3 93 476 320
3 163 364 372
3 94 414 95
3 145 304 435
3 176 305 455
3 196 314 485
3 160 407 336
3 38 39 445
3 60 61 446
3 195 318 464
3 92 314 488
3 215 372 364
3 178 299 440
3 105 291 519
3 33 34 451
3 65 66 452
3 176 432 305
3 179 300 427
3 120 471 386
3 124 417 360
3 2 495 47
3 123 316 420
3 184 322 395
3 191 315 459
3 198 312 403
3 199 404 313
3 14 351 521
3 178 428 299
3 127 305 432
3 244 439 500
3 182 338 433
3 162 377 328
3 189 403 312
3 188 313 404
3 354 511 473
3 112 297 470
3 141 504 292
3 140 293 505
3 125 344 511
3 104 439 310
3 116 477 433
3 191 459 320
3 63 64 508
3 35 36 509
3 25 26 518
3 73 74 517
3 175 319 406
3 78 406 319
3 225 435 307
3 176 455 310
3 16 17 496
3 82 83 497
3 159 296 494
3 13 14 521
3 104 455 438
3 93 459 94
3 85 86 499
3 190 360 417
3 110 301 481
3 243 433 477
3 174 412 387
3 148 442 318
3 148 318 413
3 201 354 418
3 182 422 368
3 183 367 421
3 115 304 460
3 177 441 331
3 170 420 316
3 174 310 439
3 146 307 450
3 7 476 93
3 158 360 418
3 181 460 304
3 104 438 317
3 117 343 427
3 91 485 92
3 7 92 488
3 119 458 464
3 173 506 340
3 148 413 335
3 125 498 489
3 104 310 455
3 133 383 516
3 215 514 372
3 178 325 428
3 76 436 323
3 178 500 317
3 266 394 432
3 120 386 478
3 214 351 417
3 126 372 514
3 275 470 396
3 158 418 354
3 191 442 315
3 127 432 394
3 190 417 351
3 179 427 343
3 116 428 325
3 120 478 401
3 227 480 453
3 190 418 360
3 184 335 413
3 111 331 441
3 117 311 501
3 104 317 500
3 125 354 498
3 118 491 335
3 129 453 480
3 150 456 325
3 230 481 330
3 116 433 338
3 23 326 462
3 148 315 442
3 121 402 515
3 192 501 311
3 192 311 512
3 181 355 460
3 195 497 384
3 121 515 409
3 201 498 354
3 38 445 352
3 61 353 446
3 201 400 496
3 195 356 497
3 175 478 386
3 195 464 356
3 158 473 327
3 171 396 470
3 200 327 520
3 118 362 491
3 198 505 452
3 199 451 504
3 276 494 373
3 189 492 358
3 188 357 493
3 161 510 502
3 83 384 497
3 82 497 356
3 16 496 400
3 130 358 492
3 131 493 357
3 263 502 510
3 125 511 354
3 90 374 520
3 186 477 456
3 206 491 362
3 201 365 498
3 201 496 365
3 192 512 361
3 174 387 469
3 129 507 389
3 208 411 508
3 207 509 410
3 222 467 507
3 131 361 512
3 63 508 411
3 36 410 509
3 187 507 467
3 105 519 379
3 17 365 496
3 204 401 478
3 226 479 410
3 227 411 480
3 186 379 519
3 207 410 479
3 208 480 411
3 187 389 507
3 200 520 374
3 7 488 475
3 274 515 402
3 126 514 440
3 244 440 514
3 7 475 476
3 180 409 515
3 229 475 488
3 221 476 475
3 196 473 511
CELL_TYPES 941
5
5
5
5
5
5
5
5
5
5
5
5
5
5
5
5
5
5
5
5
5
5
5
5
5
5
5
5
5
5
5
5
5
5
5
5
5
5
5
5
5
5
5
5
5
5
5
5
5
5
5
5
5
5
5
5
5
5
5
5
5
5
5
5
5
5
5
5
5
5
5
5
5
5
5
5
5
5
5
5
5
5
5
5
5
5
5
5
5
5
5
5
5
5
5
5
5
5
5
5
5
5
5
5
5
5
5
5
5
5
5
5
5
5
5
5
5
5
5
5
5
5
5
5
5
5
5
5
5
5
5
5
5
5
5
5
5
5
5
5
5
5
5
5
5
5
5
5
5
5
5
5
5
5
5
5
5
5
5
5
5
5
5
5
5
5
5
5
5
5
5
5
5
5
5
5
5
5
5
5
5
5
5
5
5
5
5
5
5
5
5
5
5
5
5
5
5
5
5
5
5
5
5
5
5
5
5
5
5
5
5
5
5
5
5
5
5
5
5
5
5
5
5
5
5
5
5
5
5
5
5
5
5
5
5
5
5
5
5
5
5
5
5
5
5
5
5
5
5
5
5
5
5
5
5
5
5
5
5
5
5
5
5
5
5
5
5
5
5
5
5
5
5
5
5
5
5
5
5
5
5
5
5
5
5
5
5
5
5
5
5
5
5
5
5
5
5
5
5
5
5
5
5
5
5
5
5
5
5
5
5
5
5
5
5
5
5
5
5
5
5
5
5
5
5
5
5
5
5
5
5
5
5
5
5
5
5
5
5
5
5
5
5
5
5
5
5
5
5
5
5
5
5
5
5
5
5
5
5
5
5
5
5
5
5
5
5
5
5
5
5
5
5
5
5
5
5
5
5
5
5
5
5
5
5
5
5
5
5
5
5
5
5
5
5
5
5
5
5
5
5
5
5
5
5
5
5
5
5
5
5
5
5
5
5
5
5
5
5
5
5
5
5
5
5
5
5
5
5
5
5
5
5
5
5
5
5
5
5
5
5
5
5
5
5
5
5
5
5
5
5
5
5
5
5
5
5
5
5
5
5
5
5
5
5
5
5
5
5
5
5
5
5
5
5
5
5
5
5
5
5
5
5
5
5
5
5
5
5
5
5
5
5
5
5
5
5
5
5
5
5
5
5
5
5
5
5
5
5
5
5
5
5
5
5
5
5
5
5
5
5
5
5
5
5
5
5
5
5
5
5
5
5
5
5
5
5
5
5
5
5
5
5
5
5
5
5
5
5
5
5
5
5
5
5
5
5
5
5
5
5
5
5
5
5
5
5
5
5
5
5
5
5
5
5
5
5
5
5
5
5
5
5
5
5
5
5
5
5
5
5
5
5
5
5
5
5
5
5
5
5
5
5
5
5
5
5
5
5
5
5
5
5
5
5
5
5
5
5
5
5
5
5
5
5
5
5
5
5
5
5
5
5
5
5
5
5
5
5
5
5
5
5
5
5
5
5
5
5
5
5
5
5
5
5
5
5
5
5
5
5
5
5
5
5
5
5
5
5
5
5
5
5
5
5
5
5
5
5
5
5
5
5
5
5
5
5
5
5
5
5
5
5
5
5
5
5
5
5
5
5
5
5
5
5
5
5
5
5
5
5
5
5
5
5
5
5
5
5
5
5
5
5
5
5
5
5
5
5
5
5
5
5
5
5
5
5
5
5
5
5
5
5
5
5
5
5
5
5
5
5
5
5
5
5
5
5
5
5
5
5
5
5
5
5
5
5
5
5
5
5
5
5
5
5
5
5
5
5
5
5
5
5
5
5
5
5
5
5
5
5
5
5
5
5
5
5
5
5
5
5
5
5
5
5
5
5
5
5
5
5
5
5
5
5
5
5
5
5
5
5
5
5
5
5
5
5
5
5
5
5
5
5
5
5
5
5
5
5
5
5
5
5
5
5
5
5
5
5
5
5
5
5
5
5
5
5
5
5
5
5
5
5
5
5
5
5
5
5
5
5
5
5
5
5
5
5
5
5
5
5
5
5
5
5
5
5
5
5
5
5
5
5
5
5
5
5
5
5
5
5
5
5
5
5
5
5
5
5
5
5
5
5
5
5
5
5
5
5
5
5
5
5
5
5
5
5
5
5
5
5
5
5
5
5
5
5
5
5
5
5
POINT_DATA 522
SCALARS scalars float 1
LOOKUP_TABLE default
-0.444253761169463
-0.235907815014047
0.000260269397196
0.000114126047556
-0.236572883273828
-0.444843505054721
-0.638150095137359
-0.188341636176562
-0.428154084794044
-0.428399739655176
-0.442071158190795
-0.443542364700540
-0.445039541283892
-0.442534204359212
-0.408537580107496
-0.323281695561408
-0.257898928115147
-0.245980534917923
-0.254683152866971
-0.258255616249763
-0.257920301822148
-0.254407927988014
-0.248711342272628
-0.242123643601684
-0.228296473987681
-0.221538574729416
-0.214606386561199
-0.206641920706978
-0.199698170168807
-0.191613568128631
-0.183967195794167
-0.175885319039654
-0.168036704066939
-0.159127632906622
-0.151058447450037
-0.141445061055744
-0.133110971019561
-0.123734746422828
-0.113308891487352
-0.103890537414073
-0.093959373778856
-0.082722181237269
-0.071860575004814
-0.061149296003041
-0.049325304595879
-0.038668436924940
-0.025249680164305
-0.014705390938348
-0.000526490995427
-0.000310127840487
-0.000520841767794
-0.001191047851181
-0.014589586747492
-0.026040380878057
-0.038487922342355
-0.049696468394001
-0.061074320590963
-0.072390682868518
-0.082561797073571
-0.093963590865287
-0.103814149606606
-0.113263538373563
-0.123715265716641
-0.133124679295233
-0.141439618923374
-0.151133726679533
-0.159147300397566
-0.168186776740073
-0.176054565067643
-0.184193146415493
-0.191863284582919
-0.200034047924997
-0.207053899611279
-0.215090784218252
-0.222142885653827
-0.228871041957070
-0.242831263606531
-0.249318357497621
-0.254990365138331
-0.258604069002322
-0.259203629894118
-0.256478869882948
-0.248874350223501
-0.259797957412488
-0.320488308274683
-0.401891349918573
-0.438513451352907
-0.443897727055180
-0.443609755559331
-0.442052262351994
-0.457358535472129
-0.217695693507904
-0.157302495615068
-0.154004869472295
-0.228080924946087
-0.424660235610595
-0.442827564002218
-0.437212415884981
-0.422714509794764
-0.419946288417968
-0.422784726220542
-0.436985358849605
-0.443483613921916
-0.242736665334410
-0.212951857549608
-0.180275556490911
-0.146256014857965
-0.424537263944979
-0.424828235912356
-0.113561839057044
-0.259605760944316
-0.258307488289860
-0.080339949893512
-0.232705385927448
-0.231044022643353
-0.049290650189562
-0.197064975003224
-0.196622514493191
-0.418641126084891
-0.236742724077659
-0.252787504095793
-0.250779755122214
-0.163803618501773
-0.165568153882553
-0.421126591295593
-0.238847261573078
-0.215369935732173
-0.214806144948502
-0.130559852652388
-0.132410767168290
-0.181252706895306
-0.180258845399902
-0.415641821839668
-0.428326364668848
-0.098371213171076
-0.098073571027893
-0.433822860623710
-0.433647334032370
-0.262016069470245
-0.231195238031764
-0.147514934157836
-0.147542706403286
-0.024142609561675
-0.245685315419771
-0.260579913820195
-0.062746396811078
-0.062803596792479
-0.440174958075989
-0.268804657276685
-0.029524383090657
-0.200787727545749
-0.250596737670349
-0.438757046612625
-0.246662328930359
-0.242610968380967
-0.246284341315241
-0.478531013603263
-0.469281192628784
-0.265251603852411
-0.240769474776709
-0.114020689731571
-0.113949630732120
-0.419725550818346
-0.226306806451441
-0.225724572075597
-0.258315771969543
-0.242065425339069
-0.240633587675816
-0.205077256038002
-0.204696327693040
-0.165386495211578
-0.080467503785601
-0.081326343523054
-0.420809035432821
-0.222905920322984
-0.258511585627368
-0.220173359314539
-0.253520771115129
-0.207169284943405
-0.206653853073591
-0.253214621590817
-0.043984670556626
-0.192401232543870
-0.191653128561522
-0.308780270894905
-0.046879270149333
-0.190275281324039
-0.133900389955083
-0.170505767811835
-0.170616276481862
-0.312886069685792
-0.216620896657876
-0.187238817023028
-0.174197355008374
-0.173802787171943
-0.252660648966104
-0.219070659095066
-0.425520048099692
-0.157819880484975
-0.158181711435759
-0.379304138152354
-0.252463212958437
-0.101580221944164
-0.417697337896273
-0.261162543224807
-0.258982636218098
-0.384070171775151
-0.137073419882364
-0.137103403624988
-0.158535673363310
-0.249231679543527
-0.445280793709267
-0.247952085659413
-0.446610122343244
-0.429487946844703
-0.222067581172335
-0.218349477357406
-0.217931427677263
-0.257731052763730
-0.153778777280060
-0.015372765131900
-0.234975903337232
-0.140391181670116
-0.140513914555392
-0.439093363768290
-0.066495444802530
-0.123395517726225
-0.123684654793052
-0.233776402719219
-0.235689705979772
-0.259697212438479
-0.484562760167207
-0.439117568849522
-0.017672186353054
-0.440087994000775
-0.415499001261422
-0.255882465984288
-0.232758959953032
-0.226202950525801
-0.439660718107023
-0.124088884241181
-0.104467702400315
-0.104430661606630
-0.186906055967105
-0.215625821846493
-0.427906415808863
-0.417604333596670
-0.430680027902610
-0.120485349122071
-0.415930257981107
-0.429650423058245
-0.054761103278664
-0.432224839615134
-0.254799560001281
-0.180392801504661
-0.180176262761716
-0.430928509395376
-0.033295432622198
-0.428296388676452
-0.088221530736358
-0.089342747631576
-0.014320459109876
-0.106047389641656
-0.107420531171547
-0.259777703957609
-0.419803189187380
-0.224229737949998
-0.035380763606670
-0.260495895888699
-0.252953202059070
-0.070307986584529
-0.071238656846875
-0.193758164144062
-0.252444312428214
-0.245569032383025
-0.089857400477507
-0.243469140252317
-0.245732027084375
-0.253206386992521
-0.515807388270995
-0.238286645528990
-0.245787641006731
-0.233848748354239
-0.197525818960546
-0.197203627132004
-0.055710881213048
-0.085897278867704
-0.155894618942018
-0.252509783587636
-0.261806046221554
-0.037460131877407
-0.181164848281511
-0.145799320088590
-0.145831567494229
-0.211327321737125
-0.210816722260923
-0.232783235110267
-0.073685616644992
-0.074421505006738
-0.207590755402817
-0.207462607828000
-0.259809272169100
-0.437144910584865
-0.234219100333651
-0.052382627514838
-0.213333661376580
-0.253842504300417
-0.058424326423436
-0.233580047590379
-0.248196131784485
-0.219730827152206
-0.190770043935749
-0.163737224230461
-0.163718841962553
-0.220157033346112
-0.233650779311161
-0.160779694387916
-0.206641015418015
-0.236912917699253
-0.254252927457172
-0.220455778167468
-0.439782383988808
-0.374439342632381
-0.239859701982291
-0.258716107435315
-0.200409544946578
-0.239018938582240
-0.264468512864433
-0.420966013876523
-0.042044987805255
-0.261544137712418
-0.254872281403760
-0.437843413716115
-0.012788728042751
-0.238991085184823
-0.331673614373088
-0.122190390490855
-0.491890111909570
-0.199459135080425
-0.198803829259496
-0.425478728209737
-0.148804070669248
-0.248373490155609
-0.200945875258077
-0.237452703306373
-0.437145733835647
-0.225584115373599
-0.224930299612953
-0.240100102191344
-0.259993639227012
-0.425773677388720
-0.377397325906182
-0.115979033511978
-0.115971826004803
-0.235806900509224
-0.036034961124311
-0.256992505315529
-0.173280302118489
-0.173200763661219
-0.254947629280010
-0.331483452302244
-0.180954267833025
-0.450892265399076
-0.026401331429052
-0.227470650279362
-0.254258611439543
-0.421616820105751
-0.188450460103381
-0.188796900601383
-0.440450118495221
-0.261551507950188
-0.253760113771372
-0.221527500397905
-0.237660482990716
-0.462261068101452
-0.237833734499546
-0.455699451735972
-0.416593742022757
-0.156194169046965
-0.186294849342503
-0.256623263199953
-0.204336217869573
-0.203916464066561
-0.419877290637213
-0.270778776351111
-0.257962833261729
-0.253816300580339
-0.228179482763434
-0.172812694761066
-0.127594581413922
-0.078653350946591
-0.078640508279556
-0.211662077633261
-0.211322185545079
-0.220446091333350
-0.389498181895737
-0.087757933547005
-0.422293481402101
-0.167794881171124
-0.440663768187074
-0.270352803788560
-0.256403103547029
-0.246856016042503
-0.164280325845275
-0.164468693055370
-0.448536213365569
-0.257356604085141
-0.114751897401486
-0.250358779541936
-0.255310850611824
-0.131058841275608
-0.131110411596065
-0.226963214033224
-0.266359660367238
-0.333215328395757
-0.139604875612235
-0.140160466553236
-0.390410171963659
-0.265549726973568
-0.045167372418197
-0.167636868227502
-0.184546740503266
-0.185579315765007
-0.433864022791502
-0.172091996026555
-0.171942218885398
-0.434998153023671
-0.202163639690111
-0.202426549468351
-0.435091662204987
-0.225504502709189
-0.044239610782609
-0.218728495731279
-0.192592923717247
-0.417457580218134
-0.058195883819765
-0.244497173655233
-0.147405455210082
-0.208287762508628
-0.217521394503168
-0.212078821242207
-0.259717783774433
-0.226733914871385
-0.097832753357357
-0.097999066598639
-0.108864480162165
-0.108803801554481
-0.094796529041257
-0.247122090907621
-0.152508569921428
-0.053063357431438
-0.155112002921349
-0.155167649269196
-0.122913348309810
-0.435944294658572
-0.215195264911296
-0.195662033668657
-0.442846584573125
-0.253129198825509
-0.193452185200440
-0.043724190058734
-0.023320479495867
-0.243659582153716
-0.436057263335032
-0.249523426484448
-0.256417512196284
-0.008686275784266
-0.140815348477221
-0.025136590135533
-0.225011149199521
-0.082049045381131
-0.248704455026288
-0.445670599060731
-0.224023675247545
-0.133974007843581
-0.222450746009137
-0.197268693463643
-0.192615920670138
-0.258233460727021
-0.131059285791729
-0.131213931213513
-0.261288699485772
-0.007048222909795
-0.442013745732764
-0.063043093268451
-0.195936811843648
-0.437264329829353
-0.446806565253935
-0.198052640208122
-0.251619888296066
-0.442336969988542
-0.373240324263820
-0.177288150422107
-0.176933992394084
-0.237623536749804
-0.006153967658726
-0.259619296084102
-0.261344042266700
-0.246881162591881
-0.416961016337607
-0.211246517299286
-0.192071719610649
-0.107894499182083
-0.107822870970418
-0.151935542585451
-0.151556162564333
-0.428081019502780
-0.134794159399213
-0.137656186207946
-0.137700652979088
-0.114320350567868
-0.226858836222311
-0.184754946824722
-0.089811694336275
-0.217346731242932
-0.250515649023125
-0.420913352767008
-0.218559365473701
-0.218042843611515
-0.184965142094122
-0.348281740897969
-0.422095348654454
