# vtk DataFile Version 3.0
    
ASCII
DATASET UNSTRUCTURED_GRID
POINTS 526 float
0 0 0
1.5 0 0
5 0 0
5 1 0
1.5 1 0
0 1 0
0.6 0.5 0
0.8 0.5 0
0 0.7 0
0 0.3 0
0.1 0 0
0.2 0 0
0.3 0 0
0.4 0 0
0.5 0 0
0.6 0 0
0.7 0 0
0.8 0 0
0.9 0 0
1 0 0
1.1 0 0
1.2 0 0
1.3 0 0
1.4 0 0
1.5984 0 0
1.69956 0 0
1.80357 0 0
1.91051 0 0
2.02044 0 0
2.13347 0 0
2.24968 0 0
2.36916 0 0
2.49199 0 0
2.61828 0 0
2.74812 0 0
2.8816 0 0
3.01884 0 0
3.15994 0 0
3.30501 0 0
3.45415 0 0
3.60749 0 0
3.76514 0 0
3.92722 0 0
4.09385 0 0
4.26518 0 0
4.44131 0 0
4.6224 0 0
4.80858 0 0
5 0.2 0
5 0.4 0
5 0.6 0
5 0.8 0
4.80858 1 0
4.6224 1 0
4.44131 1 0
4.26518 1 0
4.09385 1 0
3.92722 1 0
3.76514 1 0
3.60749 1 0
3.45415 1 0
3.30501 1 0
3.15994 1 0
3.01884 1 0
2.8816 1 0
2.74812 1 0
2.61828 1 0
2.49199 1 0
2.36916 1 0
2.24968 1 0
2.13347 1 0
2.02044 1 0
1.91051 1 0
1.80357 1 0
1.69956 1 0
1.5984 1 0
1.4 1 0
1.3 1 0
1.2 1 0
1.1 1 0
1 1 0
0.9 1 0
0.8 1 0
0.7 1 0
0.6 1 0
0.5 1 0
0.4 1 0
0.3 1 0
0.2 1 0
0.1 1 0
0.629289 0.429289 0
0.7 0.4 0
0.770711 0.429289 0
0.770711 0.570711 0
0.7 0.6 0
0.629289 0.570711 0
0 0.9 0
0 0.8 0
0 0.6 0
0 0.5 0
0 0.4 0
0 0.2 0
0 0.1 0
1.2986 0.498108 0
1.79939 0.500465 0
2.30343 0.491251 0
2.81671 0.477713 0
0.337838 0.345049 0
0.33978 0.617224 0
3.31781 0.509336 0
1.03761 0.632887 0
1.04183 0.357652 0
3.80803 0.5 0
1.54422 0.693331 0
1.55268 0.310468 0
4.27911 0.50419 0
2.05142 0.687753 0
2.05386 0.317132 0
0.518379 0.228578 0
1.27363 0.74255 0
1.27667 0.244274 0
0.523565 0.772983 0
0.801786 0.769924 0
0.800974 0.230813 0
2.55451 0.690565 0
2.52694 0.319616 0
1.79215 0.750069 0
1.79259 0.245488 0
3.05619 0.311105 0
3.02905 0.6794 0
2.29236 0.734717 0
2.30581 0.256416 0
0.194101 0.507028 0
0.419638 0.492341 0
3.53844 0.708061 0
3.54375 0.281746 0
0.196179 0.809317 0
0.190776 0.186786 0
1.51382 0.493343 0
2.79946 0.752591 0
2.79946 0.247409 0
0.971807 0.827166 0
0.971831 0.172962 0
4.65228 0.355556 0
0.952432 0.500582 0
4.0631 0.304799 0
4.05903 0.688209 0
0.366523 0.811783 0
0.362653 0.186121 0
4.57093 0.686248 0
1.98466 0.49244 0
0.491035 0.621293 0
1.1274 0.500796 0
0.657328 0.254533 0
0.898047 0.654131 0
0.898047 0.345869 0
0.65301 0.745358 0
1.42309 0.828699 0
1.42309 0.171301 0
3.30122 0.233003 0
3.30057 0.77179 0
0.500338 0.37914 0
0.157052 0.34662 0
1.64263 0.834224 0
1.64811 0.157709 0
1.39326 0.638348 0
1.39424 0.369489 0
0.171492 0.64832 0
1.9446 0.841231 0
1.9446 0.158769 0
1.15328 0.853087 0
1.1533 0.146973 0
2.52877 0.502704 0
3.80326 0.746235 0
3.78507 0.246563 0
1.64864 0.560947 0
1.68507 0.387099 0
1.21144 0.366782 0
1.19402 0.632266 0
1.89792 0.628235 0
1.90209 0.361465 0
4.35614 0.254554 0
2.12655 0.833069 0
2.13385 0.171681 0
4.30765 0.761339 0
2.14838 0.553906 0
0.60839 0.879301 0
0.605625 0.123931 0
3.00255 0.5 0
2.45078 0.169359 0
2.45078 0.830641 0
2.19506 0.373669 0
0.773312 0.68526 0
0.775017 0.318894 0
2.39666 0.620831 0
2.40182 0.37089 0
0.735246 0.121072 0
2.64697 0.830644 0
2.63968 0.167176 0
0.74076 0.876905 0
0.587467 0.672055 0
3.49087 0.523799 0
0.299248 0.527057 0
0.421642 0.278168 0
0.453187 0.123946 0
0.456738 0.876046 0
2.95609 0.165328 0
2.95609 0.834672 0
0.611496 0.318202 0
2.63114 0.568172 0
1.31584 0.878524 0
1.31584 0.121476 0
0.890947 0.879268 0
0.890947 0.120732 0
0.428485 0.727276 0
1.68543 0.670228 0
1.7522 0.8491 0
1.75726 0.140305 0
2.70179 0.376397 0
1.12978 0.26673 0
1.11648 0.737548 0
4.79118 0.554936 0
2.90437 0.629002 0
2.90437 0.370998 0
0.888594 0.429569 0
0.888594 0.570625 0
4.00224 0.497302 0
3.15988 0.167106 0
3.15525 0.834809 0
0.272822 0.888897 0
0.115526 0.884474 0
1.5393 0.892423 0
1.54989 0.115078 0
0.269719 0.109175 0
0.506293 0.52837 0
4.76874 0.769104 0
0.113399 0.576684 0
0.115951 0.421529 0
1.58379 0.415532 0
3.1432 0.451735 0
0.105599 0.738176 0
3.45306 0.827352 0
3.45306 0.172648 0
0.11332 0.11332 0
1.77228 0.625201 0
2.20361 0.666359 0
0.281868 0.438958 0
0.0963802 0.262222 0
0.400938 0.402605 0
0.924309 0.738869 0
0.924312 0.261146 0
3.20291 0.592884 0
0.285822 0.747602 0
4.18567 0.166172 0
0.408562 0.592487 0
2.30604 0.913259 0
2.30604 0.0867405 0
4.51169 0.16947 0
3.68343 0.845608 0
3.66433 0.156119 0
4.79829 0.203104 0
0.277971 0.251586 0
3.42936 0.390364 0
3.40895 0.625374 0
0.968603 0.593207 0
0.968603 0.406793 0
1.65283 0.283878 0
1.06094 0.901609 0
1.06094 0.0983908 0
4.48303 0.491408 0
3.95646 0.828603 0
3.94305 0.18254 0
2.09285 0.432697 0
1.04346 0.453275 0
3.65848 0.548046 0
1.29465 0.604305 0
1.30086 0.409572 0
0.531466 0.449419 0
1.37209 0.732932 0
1.37257 0.266443 0
1.0467 0.547907 0
2.05283 0.894557 0
2.05336 0.105789 0
1.40077 0.534508 0
4.17385 0.835315 0
1.49587 0.604914 0
3.71992 0.385918 0
2.67222 0.725708 0
4.45588 0.806091 0
2.29205 0.618092 0
1.03037 0.724045 0
1.00382 0.274296 0
2.82165 0.118398 0
2.82165 0.881602 0
1.85385 0.910497 0
1.85457 0.0879892 0
3.90606 0.628551 0
3.89238 0.358167 0
1.90404 0.740189 0
1.89941 0.262369 0
1.53748 0.782215 0
1.51735 0.22548 0
4.22562 0.339346 0
1.80094 0.350927 0
1.49102 0.391485 0
0.362558 0.906558 0
0.360697 0.092304 0
0.249442 0.601582 0
4.12933 0.560917 0
1.22501 0.914282 0
1.22502 0.0857277 0
1.70906 0.486213 0
1.20974 0.546495 0
2.14501 0.271982 0
2.55266 0.900735 0
2.55162 0.098954 0
2.59749 0.420791 0
1.8974 0.531574 0
0.822128 0.624414 0
0.822371 0.376207 0
0.696426 0.328603 0
1.45 0.0792071 0
1.45 0.920793 0
0.678679 0.670161 0
1.99641 0.601936 0
0.0780979 0.652636 0
0.568484 0.587696 0
0.53193 0.924855 0
4.3889 0.647922 0
0.733402 0.799104 0
4.82954 0.382516 0
0.731913 0.20065 0
3.17148 0.298877 0
0.444595 0.798833 0
0.443748 0.202754 0
2.0232 0.774905 0
2.02794 0.229437 0
0.972712 0.915031 0
0.972712 0.0849693 0
2.77673 0.593807 0
1.20787 0.455329 0
1.12467 0.411608 0
0.529199 0.0755813 0
1.98524 0.397799 0
0.849743 0.714141 0
0.849933 0.28678 0
1.65288 0.923667 0
1.66218 0.0768202 0
0.593189 0.201256 0
0.239151 0.345433 0
1.08055 0.209651 0
0.594614 0.799507 0
0.0738765 0.346074 0
3.26349 0.105125 0
3.26273 0.895833 0
1.0835 0.803585 0
4.47679 0.334351 0
1.1216 0.587753 0
0.812701 0.0808942 0
2.40947 0.265563 0
2.41275 0.724172 0
1.461 0.713407 0
1.45926 0.296851 0
0.202055 0.419856 0
2.29364 0.36225 0
4.62463 0.849121 0
1.62139 0.731328 0
0.511302 0.696916 0
2.18557 0.0899525 0
2.18427 0.910897 0
0.815436 0.920796 0
1.70774 0.753785 0
1.3672 0.453368 0
0.520482 0.312395 0
1.24679 0.828424 0
1.24341 0.171591 0
2.66641 0.280986 0
0.194047 0.915705 0
2.20961 0.465453 0
1.95645 0.929257 0
1.9567 0.0705094 0
0.354313 0.456491 0
0.676371 0.0789546 0
0.463441 0.435143 0
0.572362 0.38072 0
2.41706 0.515437 0
0.191431 0.0832567 0
3.09094 0.583703 0
1.5716 0.555406 0
3.83249 0.882701 0
3.83249 0.117299 0
1.85216 0.815763 0
1.84969 0.178984 0
1.70538 0.22015 0
1.14785 0.0662182 0
1.14785 0.933796 0
3.69223 0.691077 0
0.20875 0.723907 0
0.677773 0.920978 0
2.49329 0.603392 0
2.54685 0.793339 0
2.54377 0.211907 0
0.523888 0.159341 0
1.19405 0.706051 0
1.20862 0.290199 0
1.29407 0.32446 0
1.32035 0.678642 0
3.2944 0.358236 0
0.526639 0.841921 0
3.05265 0.106314 0
3.05183 0.894444 0
1.60796 0.636167 0
0.185339 0.274609 0
0.666612 0.163399 0
0.182108 0.583403 0
2.91565 0.267017 0
2.90711 0.737651 0
0.641914 0.371363 0
0.0787896 0.813481 0
4.34064 0.883698 0
0.970094 0.666463 0
0.968068 0.334064 0
0.350026 0.265231 0
2.49474 0.418929 0
2.23825 0.195368 0
2.22701 0.802216 0
2.43057 0.925251 0
2.43057 0.074749 0
1.97371 0.313641 0
1.9746 0.686604 0
0.667992 0.836859 0
1.61859 0.349244 0
1.72931 0.302061 0
4.35279 0.110495 0
2.12268 0.736659 0
4.13315 0.438262 0
0.0757557 0.181625 0
1.86908 0.446192 0
2.79861 0.352605 0
0.351799 0.705383 0
1.73237 0.557692 0
1.83333 0.67899 0
1.37779 0.925603 0
1.37779 0.0743968 0
3.54951 0.896466 0
3.54951 0.103534 0
3.37785 0.0873407 0
3.37785 0.912659 0
3.58687 0.407336 0
2.72041 0.464914 0
4.21354 0.671438 0
3.16133 0.699916 0
2.68509 0.0840739 0
2.68506 0.918444 0
0.424663 0.655947 0
0.732756 0.267201 0
1.7707 0.432349 0
0.264492 0.675775 0
2.06436 0.550579 0
4.36414 0.38477 0
4.67395 0.130442 0
1.33616 0.798964 0
1.33616 0.201036 0
0.728038 0.733961 0
0.291821 0.81889 0
4.87292 0.677971 0
2.90148 0.527913 0
4.6441 0.560853 0
1.62646 0.487089 0
3.78322 0.619241 0
0.752482 0.626703 0
0.752482 0.373297 0
0.874959 0.801081 0
0.874289 0.199339 0
3.00274 0.397992 0
0.289317 0.177637 0
0.809548 0.84118 0
0.863473 0.500129 0
2.11555 0.63354 0
3.04783 0.20959 0
3.04559 0.785175 0
0.807678 0.158917 0
0.749971 0.0511189 0
0.448512 0.549413 0
4.88448 0.867574 0
1.13061 0.330751 0
0.826838 0.552447 0
0.826856 0.447631 0
0.0636864 0.936314 0
4.05816 0.123464 0
0.0619189 0.0619189 0
2.35468 0.818745 0
2.35682 0.174699 0
0.437728 0.346953 0
4.89854 0.104301 0
1.11415 0.66617 0
1.60103 0.225638 0
1.831 0.572711 0
2.12183 0.351681 0
3.40266 0.729187 0
3.40407 0.281171 0
2.72807 0.177926 0
2.73341 0.823994 0
0.450064 0.947997 0
2.99134 0.59077 0
0.573991 0.737364 0
2.95022 0.931473 0
2.95022 0.0685275 0
0.628812 0.625546 0
0.746794 0.943736 0
3.29904 0.654748 0
0.0705751 0.500873 0
2.23439 0.296934 0
0.449496 0.0525715 0
3.6615 0.275683 0
1.07447 0.288879 0
1.75819 0.695655 0
1.43738 0.451732 0
0.374103 0.536918 0
1.17681 0.783139 0
1.75217 0.940039 0
1.75433 0.0583009 0
2.23142 0.559012 0
1.17687 0.216671 0
1.25534 0.672763 0
0.580175 0.262993 0
CELLS 949 3796
3 221 330 50
3 254 108 518
3 467 235 149
3 50 330 49
3 221 235 467
3 108 202 518
3 194 399 360
3 404 405 177
3 360 130 289
3 125 195 359
3 405 276 177
3 105 195 385
3 107 246 349
3 194 360 289
3 399 124 360
3 168 298 335
3 169 336 299
3 175 440 215
3 105 364 195
3 335 298 429
3 336 428 299
3 124 287 400
3 220 290 495
3 386 12 233
3 132 202 307
3 246 363 349
3 197 400 287
3 109 251 239
3 110 495 290
3 125 423 195
3 115 328 450
3 87 377 229
3 56 270 284
3 11 12 386
3 365 54 288
3 132 246 202
3 215 440 244
3 84 327 186
3 109 262 201
3 109 201 263
3 157 361 300
3 158 301 362
3 398 84 186
3 382 187 15
3 187 342 15
3 105 378 364
3 107 203 493
3 29 368 282
3 70 281 369
3 53 54 365
3 134 444 241
3 135 242 445
3 107 248 381
3 172 209 399
3 87 88 377
3 150 437 343
3 134 263 201
3 124 399 209
3 172 316 209
3 124 400 360
3 125 359 401
3 132 236 511
3 220 355 290
3 56 57 270
3 132 511 237
3 107 381 246
3 107 493 248
3 4 231 75
3 1 24 232
3 191 364 378
3 195 423 385
3 134 258 444
3 135 445 259
3 245 425 434
3 153 320 208
3 48 330 260
3 77 309 210
3 22 211 310
3 163 216 346
3 164 347 217
3 40 41 259
3 58 59 258
3 134 201 274
3 192 323 470
3 157 278 361
3 158 362 279
3 18 213 358
3 148 306 204
3 6 326 234
3 118 373 203
3 147 205 305
3 422 148 203
3 52 365 235
3 148 334 203
3 141 212 472
3 142 473 213
3 41 390 259
3 58 258 389
3 239 251 387
3 107 422 203
3 124 209 287
3 151 326 200
3 75 231 346
3 24 347 232
3 184 450 328
3 48 49 330
3 173 296 270
3 174 271 297
3 148 204 334
3 147 333 205
3 103 283 275
3 165 275 283
3 89 230 377
3 183 282 368
3 182 369 281
3 163 231 300
3 81 370 212
3 6 277 90
3 157 442 210
3 158 211 443
3 163 371 216
3 108 307 202
3 52 53 365
3 8 240 97
3 139 416 293
3 140 292 415
3 130 425 245
3 121 214 367
3 192 463 323
3 164 496 232
3 123 193 455
3 232 496 301
3 207 293 416
3 206 415 292
3 144 477 224
3 144 225 477
3 127 299 303
3 172 385 423
3 28 29 282
3 70 71 281
3 146 270 296
3 145 297 271
3 156 200 323
3 174 297 286
3 201 262 448
3 133 383 234
3 132 307 414
3 112 286 297
3 150 317 437
3 81 212 337
3 18 338 213
3 135 448 262
3 122 463 192
3 208 320 417
3 138 238 468
3 175 215 411
3 126 216 371
3 115 450 308
3 185 272 378
3 154 225 264
3 155 265 224
3 6 234 277
3 180 303 299
3 100 237 511
3 144 224 265
3 144 264 225
3 185 458 272
3 6 95 326
3 122 192 344
3 123 345 193
3 136 230 418
3 10 386 243
3 156 505 200
3 141 337 212
3 142 213 338
3 190 360 400
3 189 401 359
3 182 434 425
3 157 210 461
3 158 462 211
3 151 200 367
3 77 210 442
3 22 443 211
3 138 468 388
3 234 383 277
3 176 468 238
3 45 46 257
3 118 203 334
3 130 245 289
3 37 353 227
3 62 228 354
3 99 100 511
3 141 472 249
3 142 250 473
3 125 376 316
3 136 418 240
3 121 333 214
3 136 377 230
3 218 376 438
3 88 89 377
3 105 385 289
3 9 101 247
3 160 241 447
3 159 446 242
3 143 257 460
3 112 274 286
3 137 436 243
3 136 229 377
3 87 229 305
3 164 217 393
3 180 343 437
3 163 346 231
3 164 232 347
3 140 438 376
3 223 415 474
3 146 284 270
3 218 316 376
3 209 449 339
3 152 312 357
3 194 289 385
3 165 283 285
3 143 460 260
3 106 223 466
3 137 247 436
3 138 285 283
3 145 253 302
3 97 240 418
3 126 391 216
3 127 217 392
3 147 439 214
3 153 208 525
3 96 418 230
3 112 226 296
3 112 297 226
3 127 393 217
3 114 238 304
3 176 311 468
3 129 416 222
3 19 20 268
3 79 80 267
3 154 318 225
3 155 224 319
3 128 479 332
3 55 56 284
3 45 257 433
3 106 438 223
3 144 280 264
3 68 69 255
3 30 31 256
3 147 214 333
3 111 273 265
3 154 420 249
3 155 250 421
3 139 339 222
3 159 353 446
3 160 447 354
3 474 415 128
3 10 11 386
3 227 332 479
3 147 305 464
3 137 386 233
3 43 44 253
3 55 284 419
3 12 306 233
3 90 277 384
3 144 273 280
3 137 243 386
3 17 18 358
3 181 302 253
3 188 466 223
3 145 226 297
3 146 296 226
3 143 221 467
3 160 499 241
3 159 242 500
3 173 389 258
3 174 259 390
3 185 522 245
3 106 449 438
3 113 285 411
3 144 265 273
3 157 300 231
3 158 232 301
3 73 520 294
3 26 295 521
3 159 332 227
3 132 237 363
3 37 227 409
3 62 410 228
3 215 244 516
3 106 339 449
3 188 223 474
3 129 222 504
3 229 464 305
3 221 465 235
3 143 330 221
3 110 264 280
3 181 433 257
3 98 511 236
3 216 520 346
3 217 347 521
3 197 287 502
3 146 226 308
3 285 388 411
3 167 325 236
3 167 397 240
3 148 475 306
3 162 363 237
3 50 465 221
3 77 78 309
3 21 22 310
3 136 240 397
3 138 304 238
3 167 240 325
3 218 438 449
3 139 222 416
3 203 373 493
3 188 474 239
3 183 313 336
3 103 340 276
3 163 300 366
3 149 288 328
3 128 239 474
3 216 294 520
3 217 521 295
3 96 230 488
3 89 488 230
3 188 239 387
3 274 448 286
3 72 73 294
3 26 27 295
3 102 243 436
3 115 308 435
3 108 454 439
3 118 334 402
3 115 435 302
3 162 237 352
3 81 82 370
3 4 322 231
3 1 232 321
3 233 306 475
3 184 328 288
3 178 357 312
3 94 470 323
3 161 373 384
3 149 235 365
3 141 249 290
3 142 291 250
3 157 231 322
3 158 321 232
3 202 246 381
3 117 336 313
3 121 408 333
3 136 464 229
3 204 402 334
3 145 489 253
3 52 235 484
3 208 384 373
3 214 454 367
3 37 38 353
3 61 62 354
3 162 352 247
3 245 522 289
3 472 122 344
3 473 345 123
3 114 362 301
3 113 300 361
3 160 228 451
3 86 87 305
3 152 280 273
3 120 405 404
3 142 268 350
3 19 268 338
3 80 337 267
3 209 316 449
3 137 233 475
3 205 333 408
3 159 227 353
3 160 354 228
3 100 352 237
3 30 256 368
3 69 369 255
3 157 322 442
3 158 443 321
3 96 97 418
3 151 234 326
3 179 317 324
3 154 249 344
3 155 345 250
3 184 419 284
3 150 272 458
3 141 355 267
3 133 234 483
3 129 480 416
3 128 415 479
3 249 472 344
3 250 345 473
3 209 339 287
3 137 261 412
3 145 271 489
3 177 276 340
3 141 290 355
3 132 414 236
3 108 254 454
3 145 435 226
3 185 245 478
3 199 398 430
3 128 332 239
3 142 350 291
3 18 19 338
3 80 81 337
3 250 291 421
3 249 420 290
3 141 267 337
3 142 338 268
3 191 378 272
3 116 335 429
3 152 341 340
3 98 99 511
3 313 424 512
3 98 236 325
3 171 350 268
3 178 312 275
3 151 483 234
3 167 236 414
3 117 428 336
3 150 324 317
3 9 247 352
3 10 243 490
3 102 490 243
3 115 459 269
3 134 241 499
3 135 500 242
3 170 267 355
3 8 325 240
3 12 13 306
3 101 436 247
3 68 255 426
3 31 427 256
3 109 239 407
3 256 427 492
3 255 491 426
3 44 433 253
3 181 253 433
3 139 502 287
3 34 35 292
3 64 65 293
3 114 431 238
3 151 367 454
3 181 257 356
3 103 275 312
3 42 489 271
3 147 252 439
3 183 424 313
3 149 328 269
3 152 273 341
3 214 439 454
3 133 248 383
3 152 357 280
3 60 447 444
3 39 445 446
3 241 444 447
3 242 446 445
3 176 238 431
3 162 349 363
3 207 506 293
3 206 292 507
3 134 396 258
3 114 304 362
3 143 260 330
3 148 422 261
3 162 247 412
3 151 254 483
3 107 349 261
3 137 412 247
3 133 381 248
3 303 437 456
3 131 359 364
3 115 269 328
3 101 102 436
3 47 260 460
3 291 350 515
3 180 437 303
3 134 499 263
3 135 262 500
3 129 387 451
3 132 363 246
3 251 510 451
3 139 287 339
3 36 37 409
3 62 63 410
3 106 466 339
3 111 341 273
3 261 349 412
3 43 253 489
3 195 364 359
3 135 259 514
3 42 43 489
3 156 351 505
3 143 356 257
3 32 33 315
3 66 67 314
3 196 413 382
3 173 258 396
3 117 272 343
3 192 318 344
3 193 345 319
3 140 376 501
3 186 430 398
3 510 160 451
3 136 252 464
3 251 451 387
3 109 510 251
3 222 339 466
3 500 407 159
3 216 391 294
3 217 295 392
3 182 281 335
3 183 336 282
3 113 411 366
3 137 475 261
3 123 455 331
3 150 343 272
3 262 407 500
3 235 465 484
3 109 263 510
3 143 467 269
3 107 261 422
3 177 340 341
3 83 84 398
3 204 306 513
3 154 344 318
3 155 319 345
3 215 366 411
3 157 461 278
3 158 279 462
3 33 452 315
3 66 314 453
3 496 164 393
3 103 312 340
3 51 484 465
3 47 494 260
3 59 444 258
3 40 259 445
3 34 292 452
3 65 453 293
3 165 285 361
3 116 324 478
3 170 395 267
3 171 268 394
3 266 496 393
3 113 361 285
3 161 493 373
3 200 326 508
3 189 492 427
3 190 426 491
3 156 323 463
3 178 403 495
3 114 496 266
3 143 269 356
3 42 271 390
3 57 389 270
3 151 454 254
3 324 458 478
3 168 335 281
3 169 282 336
3 15 16 382
3 1 321 23
3 4 76 322
3 136 397 252
3 110 420 264
3 111 265 421
3 109 407 262
3 166 362 304
3 201 448 274
3 79 267 395
3 20 394 268
3 122 329 463
3 14 15 342
3 269 459 356
3 147 464 252
3 35 507 292
3 64 293 506
3 187 382 413
3 198 315 452
3 197 453 314
3 177 485 404
3 110 280 357
3 205 503 305
3 84 85 327
3 207 416 480
3 206 479 415
3 103 276 372
3 166 372 276
3 8 98 325
3 174 514 259
3 108 439 457
3 213 473 481
3 46 460 257
3 211 462 375
3 210 374 461
3 153 525 348
3 165 361 278
3 166 279 362
3 225 318 486
3 224 487 319
3 173 270 389
3 174 390 271
3 76 77 442
3 22 23 443
3 148 261 475
3 120 404 523
3 161 383 493
3 46 47 460
3 48 260 494
3 119 519 403
3 114 266 431
3 74 75 346
3 24 25 347
3 252 457 439
3 149 365 288
3 220 495 403
3 71 379 281
3 28 282 380
3 131 512 424
3 113 366 300
3 161 384 277
3 255 369 425
3 256 424 368
3 41 42 390
3 57 58 389
3 248 493 383
3 199 430 329
3 134 274 396
3 176 431 266
3 178 275 524
3 219 404 485
3 119 374 519
3 120 523 375
3 210 309 374
3 211 375 310
3 198 376 401
3 176 266 432
3 165 406 275
3 152 340 312
3 202 381 518
3 27 28 380
3 71 72 379
3 168 281 379
3 169 380 282
3 9 352 100
3 103 372 283
3 166 276 405
3 154 264 420
3 155 421 265
3 146 450 284
3 125 401 376
3 166 405 279
3 165 278 406
3 94 508 95
3 161 277 383
3 117 498 272
3 213 481 358
3 190 314 426
3 189 427 315
3 149 269 467
3 120 375 462
3 119 461 374
3 239 332 407
3 29 30 368
3 69 70 369
3 120 279 405
3 119 406 278
3 110 290 420
3 111 421 291
3 293 453 502
3 292 501 452
3 166 304 517
3 112 469 274
3 67 426 314
3 32 315 427
3 194 385 399
3 138 388 285
3 205 327 503
3 50 51 465
3 59 60 444
3 39 40 445
3 218 449 316
3 179 441 497
3 184 284 450
3 114 301 496
3 95 508 326
3 244 497 441
3 191 272 498
3 168 294 391
3 169 392 295
3 72 294 379
3 27 380 295
3 172 399 385
3 514 448 135
3 168 391 298
3 169 299 392
3 74 346 520
3 25 521 347
3 168 379 294
3 169 295 380
3 54 419 288
3 94 323 508
3 126 298 391
3 127 392 299
3 212 476 472
3 78 79 395
3 20 21 394
3 119 278 461
3 120 462 279
3 140 415 438
3 184 288 419
3 54 55 419
3 220 519 355
3 174 286 514
3 286 448 514
3 219 350 523
3 85 503 327
3 170 374 309
3 171 310 375
3 3 484 51
3 198 501 376
3 138 283 517
3 223 438 415
3 93 318 470
3 92 471 319
3 167 307 457
3 118 402 348
3 3 52 484
3 91 320 471
3 170 355 519
3 130 491 425
3 131 424 492
3 196 331 413
3 171 523 350
3 255 425 491
3 256 492 424
3 13 513 306
3 5 488 89
3 5 96 488
3 78 395 309
3 21 310 394
3 204 513 342
3 90 384 417
3 171 394 310
3 170 309 395
3 104 497 440
3 126 441 298
3 67 68 426
3 31 32 427
3 173 469 296
3 2 48 494
3 212 370 476
3 44 45 433
3 86 305 503
3 163 366 371
3 0 490 102
3 0 10 490
3 91 417 320
3 166 517 372
3 121 351 408
3 90 417 91
3 176 303 456
3 145 302 435
3 93 486 318
3 92 319 487
3 187 348 402
3 219 515 350
3 159 407 332
3 38 39 446
3 60 61 447
3 215 371 366
3 105 289 522
3 179 298 441
3 33 34 452
3 65 66 453
3 176 432 303
3 180 299 428
3 2 494 47
3 125 316 423
3 205 408 327
3 197 314 400
3 198 401 315
3 179 429 298
3 127 303 432
3 192 470 318
3 193 319 471
3 182 335 434
3 244 440 497
3 190 400 314
3 189 315 401
3 14 342 513
3 193 471 320
3 112 296 469
3 140 501 292
3 139 293 502
3 122 476 329
3 104 440 311
3 116 478 434
3 63 64 506
3 35 36 507
3 25 26 521
3 73 74 520
3 186 408 351
3 226 435 308
3 111 291 515
3 175 411 388
3 153 348 413
3 176 456 311
3 82 83 509
3 16 17 482
3 104 456 437
3 85 86 503
3 13 14 513
3 245 434 478
3 186 327 408
3 123 481 473
3 208 417 384
3 182 425 369
3 183 368 424
3 91 471 92
3 93 470 94
3 167 414 307
3 108 457 307
3 115 302 459
3 172 423 316
3 175 311 440
3 153 413 331
3 146 308 450
3 204 342 402
3 123 331 481
3 181 459 302
3 104 437 317
3 117 343 428
3 7 92 487
3 7 486 93
3 199 329 476
3 187 402 342
3 167 457 397
3 138 517 304
3 175 468 311
3 156 329 430
3 104 311 456
3 133 518 381
3 215 516 371
3 162 412 349
3 179 324 429
3 177 341 485
3 187 413 348
3 179 497 317
3 266 393 432
3 178 495 357
3 126 371 516
3 274 469 396
3 196 481 331
3 127 432 393
3 180 428 343
3 116 429 324
3 156 430 351
3 76 442 322
3 23 321 443
3 193 320 455
3 228 480 451
3 122 472 476
3 175 388 468
3 153 331 455
3 156 463 329
3 117 313 498
3 104 317 497
3 196 382 482
3 129 451 480
3 150 458 324
3 116 434 335
3 153 455 320
3 119 403 524
3 119 524 406
3 191 498 313
3 191 313 512
3 283 372 517
3 186 351 430
3 181 356 459
3 38 446 353
3 61 354 447
3 16 482 382
3 200 508 323
3 118 348 525
3 173 396 469
3 111 485 341
3 133 483 518
3 196 358 481
3 199 509 398
3 197 502 453
3 198 452 501
3 196 482 358
3 252 397 457
3 190 491 360
3 189 359 492
3 254 518 483
3 160 510 499
3 199 370 509
3 199 476 370
3 121 505 351
3 130 360 491
3 131 492 359
3 263 499 510
3 200 505 367
3 110 357 495
3 219 523 404
3 185 478 458
3 83 398 509
3 191 512 364
3 17 358 482
3 220 403 519
3 129 504 387
3 207 410 506
3 206 507 409
3 118 525 373
3 222 466 504
3 121 367 505
3 63 506 410
3 36 409 507
3 131 364 512
3 82 509 370
3 188 504 466
3 105 522 378
3 227 479 409
3 228 410 480
3 208 373 525
3 170 519 374
3 171 375 523
3 185 378 522
3 206 409 479
3 207 480 410
3 188 387 504
3 7 477 486
3 7 487 477
3 126 516 441
3 244 441 516
3 178 524 403
3 275 406 524
3 225 486 477
3 224 477 487
3 111 515 485
3 219 485 515
CELL_TYPES 949
5
5
5
5
5
5
5
5
5
5
5
5
5
5
5
5
5
5
5
5
5
5
5
5
5
5
5
5
5
5
5
5
5
5
5
5
5
5
5
5
5
5
5
5
5
5
5
5
5
5
5
5
5
5
5
5
5
5
5
5
5
5
5
5
5
5
5
5
5
5
5
5
5
5
5
5
5
5
5
5
5
5
5
5
5
5
5
5
5
5
5
5
5
5
5
5
5
5
5
5
5
5
5
5
5
5
5
5
5
5
5
5
5
5
5
5
5
5
5
5
5
5
5
5
5
5
5
5
5
5
5
5
5
5
5
5
5
5
5
5
5
5
5
5
5
5
5
5
5
5
5
5
5
5
5
5
5
5
5
5
5
5
5
5
5
5
5
5
5
5
5
5
5
5
5
5
5
5
5
5
5
5
5
5
5
5
5
5
5
5
5
5
5
5
5
5
5
5
5
5
5
5
5
5
5
5
5
5
5
5
5
5
5
5
5
5
5
5
5
5
5
5
5
5
5
5
5
5
5
5
5
5
5
5
5
5
5
5
5
5
5
5
5
5
5
5
5
5
5
5
5
5
5
5
5
5
5
5
5
5
5
5
5
5
5
5
5
5
5
5
5
5
5
5
5
5
5
5
5
5
5
5
5
5
5
5
5
5
5
5
5
5
5
5
5
5
5
5
5
5
5
5
5
5
5
5
5
5
5
5
5
5
5
5
5
5
5
5
5
5
5
5
5
5
5
5
5
5
5
5
5
5
5
5
5
5
5
5
5
5
5
5
5
5
5
5
5
5
5
5
5
5
5
5
5
5
5
5
5
5
5
5
5
5
5
5
5
5
5
5
5
5
5
5
5
5
5
5
5
5
5
5
5
5
5
5
5
5
5
5
5
5
5
5
5
5
5
5
5
5
5
5
5
5
5
5
5
5
5
5
5
5
5
5
5
5
5
5
5
5
5
5
5
5
5
5
5
5
5
5
5
5
5
5
5
5
5
5
5
5
5
5
5
5
5
5
5
5
5
5
5
5
5
5
5
5
5
5
5
5
5
5
5
5
5
5
5
5
5
5
5
5
5
5
5
5
5
5
5
5
5
5
5
5
5
5
5
5
5
5
5
5
5
5
5
5
5
5
5
5
5
5
5
5
5
5
5
5
5
5
5
5
5
5
5
5
5
5
5
5
5
5
5
5
5
5
5
5
5
5
5
5
5
5
5
5
5
5
5
5
5
5
5
5
5
5
5
5
5
5
5
5
5
5
5
5
5
5
5
5
5
5
5
5
5
5
5
5
5
5
5
5
5
5
5
5
5
5
5
5
5
5
5
5
5
5
5
5
5
5
5
5
5
5
5
5
5
5
5
5
5
5
5
5
5
5
5
5
5
5
5
5
5
5
5
5
5
5
5
5
5
5
5
5
5
5
5
5
5
5
5
5
5
5
5
5
5
5
5
5
5
5
5
5
5
5
5
5
5
5
5
5
5
5
5
5
5
5
5
5
5
5
5
5
5
5
5
5
5
5
5
5
5
5
5
5
5
5
5
5
5
5
5
5
5
5
5
5
5
5
5
5
5
5
5
5
5
5
5
5
5
5
5
5
5
5
5
5
5
5
5
5
5
5
5
5
5
5
5
5
5
5
5
5
5
5
5
5
5
5
5
5
5
5
5
5
5
5
5
5
5
5
5
5
5
5
5
5
5
5
5
5
5
5
5
5
5
5
5
5
5
5
5
5
5
5
5
5
5
5
5
5
5
5
5
5
5
5
5
5
5
5
5
5
5
5
5
5
5
5
5
5
5
5
5
5
5
5
5
5
5
5
5
5
5
5
5
5
5
5
5
5
5
5
5
5
5
5
5
5
5
5
5
5
5
5
5
5
5
5
5
5
5
5
5
5
5
5
5
5
5
5
5
5
5
5
5
5
5
5
5
5
5
5
5
5
5
5
5
5
5
5
5
5
5
5
5
5
5
5
5
5
5
5
5
5
5
5
5
5
5
5
5
5
5
5
5
5
5
5
5
5
5
5
5
5
5
5
5
5
5
5
5
5
5
5
5
5
5
5
5
5
5
5
5
5
5
5
5
5
5
5
5
5
5
5
5
5
5
5
5
5
5
5
5
5
5
5
5
5
5
5
5
5
5
5
5
5
5
POINT_DATA 526
SCALARS scalars float 1
LOOKUP_TABLE default
-0.454637830453629
-0.242940075717165
0.000282269362290
0.000267448332734
-0.242925377487509
-0.454624531958444
-0.645274963698718
-0.196402668355000
-0.436558370038907
-0.436553889410160
-0.452171794051309
-0.453542610756133
-0.453311524817799
-0.447921771253008
-0.412062116497396
-0.330012360177757
-0.268209001948306
-0.257038291177217
-0.264662291440373
-0.267072097656969
-0.266003602851863
-0.262180352795573
-0.256084455174833
-0.249277557122440
-0.234893582986340
-0.228028434138939
-0.220885729460773
-0.212701718602570
-0.205529623776086
-0.197184865951795
-0.189312190392961
-0.180967532322437
-0.172879071118375
-0.163703569526132
-0.155381660764137
-0.145540219115761
-0.136947465879691
-0.127299992724885
-0.116509672772121
-0.106813024411688
-0.096579621935090
-0.085184451033996
-0.073964830518178
-0.062848072206983
-0.050857490947095
-0.039821990362506
-0.026082934655057
-0.015314421914583
-0.000668911720191
-0.000284686073690
-0.000537121858673
-0.001336512912250
-0.015221706170649
-0.026774928867636
-0.039645242063467
-0.051281692918766
-0.062850294718829
-0.074454656060016
-0.084982001953934
-0.096569603959496
-0.106723322565676
-0.116451916307517
-0.127257332583325
-0.136928040149693
-0.145491161651401
-0.155391279544942
-0.163635682274292
-0.172911585294947
-0.180976956610719
-0.189321498651764
-0.197176320379345
-0.205484561685321
-0.212655112435029
-0.220880357208672
-0.228045513006291
-0.234952158571035
-0.249339076594302
-0.256122561106700
-0.262208752664722
-0.266044612942042
-0.267114934741586
-0.264598411833244
-0.257135234200211
-0.268442354527719
-0.330229833798062
-0.412460755800535
-0.447999863971540
-0.453253991131632
-0.453496730117368
-0.452185140990727
-0.459704233043637
-0.229426819736407
-0.162841474197295
-0.161507122060853
-0.238401138372654
-0.431469321251347
-0.452301605182117
-0.446111548106231
-0.430249655306249
-0.427554267417163
-0.430158798184310
-0.446047950448644
-0.452254771802242
-0.249898679059854
-0.219050157789752
-0.185414274848196
-0.150445362184461
-0.435588128249321
-0.432834607744630
-0.116785363833737
-0.266425893518879
-0.267155953375165
-0.082631366631038
-0.238420233654822
-0.237519410498834
-0.050768203139885
-0.202514983995713
-0.202342918970208
-0.429551145793333
-0.259127749611894
-0.259011058429111
-0.425751984233915
-0.244850526685760
-0.245688258205658
-0.168415066782912
-0.170308126375904
-0.221123380243691
-0.221148585079585
-0.134287437064279
-0.136173430553910
-0.186332463265583
-0.185484336132174
-0.425419937834620
-0.438663132451433
-0.101121946920950
-0.100817622277873
-0.443444047668001
-0.443699196371606
-0.236814698593147
-0.151632366348635
-0.151712753057829
-0.270271880322166
-0.270234711538025
-0.024921315688785
-0.253817586827522
-0.064558602117255
-0.064613553718007
-0.448677765380095
-0.448341231742314
-0.030411818245335
-0.206535057552557
-0.483792386117643
-0.258230801608967
-0.279954347485747
-0.254744496866669
-0.255672382403412
-0.280859558870535
-0.248681031608692
-0.248703296187500
-0.117286739295908
-0.117202951629172
-0.481681145457498
-0.430220231622244
-0.232283723310851
-0.231862774519688
-0.247804366590322
-0.247495393925099
-0.430085807052571
-0.210629980496301
-0.210696813284664
-0.265763748488635
-0.265616872096561
-0.170085370061582
-0.082832533343429
-0.083703329893295
-0.229035543853709
-0.227247915164300
-0.259979639747809
-0.261084708411338
-0.212893758709680
-0.212691231795337
-0.045387986279282
-0.197702839323351
-0.197210668210214
-0.048330841753447
-0.195679348164276
-0.318570025222650
-0.320975910942004
-0.137685548647892
-0.175435837824082
-0.175410485138648
-0.192660384956732
-0.220618019977408
-0.223265977614044
-0.179114391960586
-0.178792864735038
-0.262523915374959
-0.162269844136711
-0.162723709490924
-0.261285896429496
-0.405784653707767
-0.104415322789829
-0.428245009188739
-0.454638940268120
-0.433743285295155
-0.432605215699486
-0.141011830632510
-0.141007824209967
-0.360968522469914
-0.163033041598001
-0.255759329171792
-0.255717611166251
-0.267455811371340
-0.267505020180882
-0.454745428796878
-0.227970027758496
-0.224417945296606
-0.224009963226699
-0.158167352967299
-0.267697749948774
-0.268617480012164
-0.015831931434729
-0.144422534969086
-0.144540499375203
-0.243776686030410
-0.243618093283053
-0.068445865812278
-0.126912247191385
-0.127189809378168
-0.448644776769215
-0.448715743976038
-0.239839932504344
-0.239002312154990
-0.448788689826720
-0.490231621907971
-0.018221255506899
-0.425161694606917
-0.425133031289042
-0.233436904221660
-0.127666536599098
-0.436978160618505
-0.107425424061005
-0.107399937591966
-0.448845637143672
-0.221525817589887
-0.192148119856961
-0.428578588596648
-0.437000868530957
-0.440304087132495
-0.264293565115280
-0.264473936362340
-0.123954645497052
-0.439589687957081
-0.056303791179865
-0.441606578059649
-0.185423426465563
-0.185397634413195
-0.034277828609496
-0.090666107920736
-0.091829744993387
-0.014863834579215
-0.439471543504147
-0.109015589357552
-0.110436694044057
-0.261661999755914
-0.261535663768344
-0.230899076417580
-0.268302132771660
-0.268384827660426
-0.036392401251568
-0.072350207739624
-0.073348103657052
-0.199346135314130
-0.260196494995538
-0.092437314372515
-0.253126911530479
-0.252450198873636
-0.523462761870827
-0.252099818627529
-0.252143964231515
-0.260449748527187
-0.202923436837326
-0.202954444969883
-0.244136073204047
-0.057299721222245
-0.239629453845299
-0.088363456498774
-0.160308029018344
-0.038637470972607
-0.186274095748090
-0.270177797339363
-0.269436491860073
-0.149963648809196
-0.149937521398178
-0.217000153284988
-0.217044453949640
-0.075779915519596
-0.076591943125512
-0.213215779801108
-0.213588909608497
-0.239933170233761
-0.241490511780768
-0.053937588132677
-0.219827562433255
-0.240019406396666
-0.446647068928332
-0.446805501266468
-0.429423201151152
-0.060182082651835
-0.261295316777133
-0.261308420855060
-0.224888565077864
-0.255372492517891
-0.196296618465247
-0.168335194695155
-0.168427455114080
-0.165372033232617
-0.212487616137758
-0.229880833627544
-0.228719630861700
-0.243061520847659
-0.246121315440015
-0.246042049013089
-0.260370477263925
-0.206009814409865
-0.430412678179469
-0.505785659479791
-0.380077772226524
-0.043344797954077
-0.245706437844004
-0.013237559283087
-0.245003023360087
-0.125660827283264
-0.446280567750777
-0.446480705256510
-0.204919839688578
-0.204598695667352
-0.267998684680718
-0.267855013275735
-0.153021133729293
-0.255402863329038
-0.262217797208683
-0.381658457319831
-0.206784106476031
-0.250510548284604
-0.249162044608565
-0.231627833191367
-0.230813297232104
-0.341941411630123
-0.432059344350444
-0.269460094186502
-0.340630247526635
-0.430529499456082
-0.119247153953272
-0.119228361053678
-0.269203189303341
-0.037063494831228
-0.262257677813769
-0.264689700349513
-0.178291735902307
-0.178078939094002
-0.244783793997179
-0.244787408769868
-0.427578277418479
-0.186170616049225
-0.027204398622625
-0.233320222093878
-0.460399221012557
-0.193919132265453
-0.194016178121453
-0.264965288664731
-0.227296623733847
-0.246361550795154
-0.459749480581034
-0.260780035832222
-0.260910906814435
-0.160679718557432
-0.449946585503998
-0.191639358973922
-0.209905358943778
-0.209883889994507
-0.430604997828446
-0.279611293942705
-0.462648162523746
-0.458957269786036
-0.177720491017364
-0.450021761228295
-0.131250128748326
-0.233890355033402
-0.080987781996777
-0.080990989116163
-0.217248053516383
-0.217445140246631
-0.227752647660574
-0.264813515504149
-0.264762380824505
-0.090204222026693
-0.436606163981695
-0.279692787322727
-0.172535431937561
-0.168895585189348
-0.169185790315049
-0.399442757914889
-0.263833177567552
-0.263148459042860
-0.256521675884997
-0.254635746525586
-0.118059076471565
-0.397677415320012
-0.134888808502266
-0.134907119155333
-0.232801568461955
-0.436497019129284
-0.275471727004726
-0.427182004538651
-0.143632867401475
-0.144162483599374
-0.327828476158197
-0.444107475275188
-0.046575759840991
-0.266820370443476
-0.266005497374410
-0.444550875481531
-0.172418741009059
-0.189908315918056
-0.190741221497205
-0.176925207220981
-0.176917188953944
-0.208069248204382
-0.207976719778478
-0.275263633757648
-0.232337204873562
-0.225175830432233
-0.045662315475834
-0.197904010053488
-0.059946774779485
-0.444556194681196
-0.214483636307048
-0.151599801696698
-0.441956922129737
-0.223568715922830
-0.217818004549957
-0.251073071281409
-0.251072356920780
-0.100617777934033
-0.100796534196460
-0.111942951362862
-0.111869606171447
-0.097472731759088
-0.156850456702405
-0.054643920521036
-0.126392270397745
-0.159580850539524
-0.159561814831679
-0.452678951448869
-0.231764589459058
-0.221133840188792
-0.433746509596790
-0.201210158700490
-0.045039735024844
-0.024091811512446
-0.254773460550567
-0.254842557471073
-0.234957859529894
-0.445705785171391
-0.008975428287854
-0.144830900295367
-0.025961419637398
-0.230118327900930
-0.084422552158103
-0.198545043580250
-0.199779924018707
-0.261283354008984
-0.261104570394494
-0.137795614866823
-0.445974745381143
-0.257329982843036
-0.230792708940076
-0.198007743837895
-0.134856579671364
-0.134983747290754
-0.257087234806140
-0.269030709686592
-0.451084282904840
-0.007306126691037
-0.266683733386772
-0.205223297492340
-0.205369949602006
-0.451721714378061
-0.064866505853889
-0.451812754725447
-0.182243914065334
-0.182053890387678
-0.457126855488212
-0.006456713120347
-0.267234521596523
-0.234752253452602
-0.217134261232340
-0.197636846018359
-0.110989896451463
-0.110920354532508
-0.156300128631804
-0.155844282168667
-0.426698148772639
-0.138592842347355
-0.385245504851421
-0.141588434289039
-0.141670573662183
-0.351443881420087
-0.269358904496738
-0.117601853389515
-0.424343982960141
-0.190110275687473
-0.426712335713287
-0.092307789237076
-0.269309855031333
-0.223143783929435
-0.242160710045160
-0.432086505497565
-0.265673786637218
-0.224467774845998
-0.224255272574001
-0.190213690950775
-0.265731455046591
-0.258999001358952
-0.376095896431771
