# vtk DataFile Version 3.0
    
ASCII
DATASET UNSTRUCTURED_GRID
POINTS 489 float
0 0 0
1.5 0 0
5 0 0
5 1 0
1.5 1 0
0 1 0
0.5 0.47 0
0.9 0.47 0
0 0.7 0
0 0.3 0
0.1 0 0
0.2 0 0
0.3 0 0
0.4 0 0
0.5 0 0
0.6 0 0
0.7 0 0
0.8 0 0
0.9 0 0
1 0 0
1.1 0 0
1.2 0 0
1.3 0 0
1.4 0 0
1.5984 0 0
1.69956 0 0
1.80357 0 0
1.91051 0 0
2.02044 0 0
2.13347 0 0
2.24968 0 0
2.36916 0 0
2.49199 0 0
2.61828 0 0
2.74812 0 0
2.8816 0 0
3.01884 0 0
3.15994 0 0
3.30501 0 0
3.45415 0 0
3.60749 0 0
3.76514 0 0
3.92722 0 0
4.09385 0 0
4.26518 0 0
4.44131 0 0
4.6224 0 0
4.80858 0 0
5 0.2 0
5 0.4 0
5 0.6 0
5 0.8 0
4.80858 1 0
4.6224 1 0
4.44131 1 0
4.26518 1 0
4.09385 1 0
3.92722 1 0
3.76514 1 0
3.60749 1 0
3.45415 1 0
3.30501 1 0
3.15994 1 0
3.01884 1 0
2.8816 1 0
2.74812 1 0
2.61828 1 0
2.49199 1 0
2.36916 1 0
2.24968 1 0
2.13347 1 0
2.02044 1 0
1.91051 1 0
1.80357 1 0
1.69956 1 0
1.5984 1 0
1.4 1 0
1.3 1 0
1.2 1 0
1.1 1 0
1 1 0
0.9 1 0
0.8 1 0
0.7 1 0
0.6 1 0
0.5 1 0
0.4 1 0
0.3 1 0
0.2 1 0
0.1 1 0
0.519806 0.383223 0
0.575302 0.313634 0
0.655496 0.275014 0
0.744504 0.275014 0
0.824698 0.313634 0
0.880194 0.383223 0
0.880194 0.556777 0
0.824698 0.626366 0
0.744504 0.664986 0
0.655496 0.664986 0
0.575302 0.626366 0
0.519806 0.556777 0
0 0.9 0
0 0.8 0
0 0.6 0
0 0.5 0
0 0.4 0
0 0.2 0
0 0.1 0
1.40099 0.496376 0
1.89214 0.506216 0
2.41102 0.477852 0
2.91108 0.478007 0
3.40314 0.5 0
1.16123 0.692207 0
3.9037 0.5 0
1.66047 0.694833 0
1.64898 0.309882 0
1.17945 0.308013 0
0.28156 0.721492 0
4.40736 0.520836 0
0.269049 0.270911 0
2.14971 0.687523 0
2.14971 0.312477 0
1.40126 0.749997 0
1.41122 0.245947 0
2.65104 0.68469 0
2.62273 0.321156 0
0.274069 0.492681 0
1.88913 0.760641 0
1.89258 0.243293 0
0.966488 0.785463 0
3.15185 0.313085 0
3.15185 0.686915 0
1.08965 0.505868 0
0.46166 0.800488 0
0.994189 0.202561 0
2.39227 0.750471 0
2.39227 0.249529 0
3.63633 0.708727 0
3.64027 0.280157 0
0.438319 0.18439 0
1.59636 0.5 0
2.8572 0.776154 0
2.86628 0.223315 0
4.15435 0.690831 0
4.14491 0.314889 0
0.703499 0.835703 0
4.68889 0.685899 0
4.68889 0.314101 0
2.08316 0.492476 0
3.37906 0.747319 0
3.37602 0.246667 0
1.25311 0.835501 0
1.55428 0.842304 0
0.172617 0.851099 0
1.55888 0.167903 0
1.26745 0.160693 0
0.154592 0.606265 0
0.844168 0.152019 0
1.00678 0.642169 0
1.25047 0.561912 0
1.74092 0.834534 0
1.74235 0.166053 0
0.151359 0.385356 0
0.159785 0.150355 0
1.04119 0.362921 0
1.32354 0.357347 0
0.390128 0.610052 0
0.372128 0.379048 0
2.04425 0.841011 0
2.04425 0.158989 0
1.48692 0.621764 0
3.88963 0.745884 0
3.89677 0.249121 0
1.7478 0.560431 0
2.6244 0.502616 0
1.50997 0.372298 0
0.578544 0.153443 0
1.10308 0.849359 0
1.79476 0.377753 0
0.335713 0.857799 0
0.841572 0.863982 0
1.99694 0.628055 0
2.00108 0.361727 0
1.12553 0.135814 0
2.23204 0.841145 0
2.23401 0.158351 0
4.39872 0.248226 0
4.39716 0.761556 0
2.54854 0.832711 0
2.54854 0.167289 0
0.308119 0.137984 0
0.712798 0.149633 0
2.25456 0.564374 0
3.09571 0.5 0
2.29614 0.377929 0
0.589528 0.890868 0
1.28084 0.687121 0
2.49343 0.620656 0
2.49822 0.37154 0
2.74336 0.830377 0
2.74428 0.181786 0
3.58629 0.522784 0
0.448056 0.677212 0
0.834536 0.728185 0
1.37141 0.855072 0
1.44562 0.123637 0
1.19769 0.413631 0
3.04906 0.171958 0
3.04906 0.828042 0
0.567271 0.752595 0
2.72641 0.566849 0
1.79346 0.666648 0
0.119403 0.713748 0
1.85338 0.876282 0
1.85994 0.122325 0
0.117004 0.280908 0
3.27088 0.165544 0
3.26698 0.841228 0
0.993325 0.524713 0
0.42701 0.297812 0
2.79634 0.378058 0
0.405103 0.485998 0
0.11854 0.497493 0
4.10895 0.491881 0
2.99251 0.619824 0
2.99813 0.371842 0
0.919248 0.281287 0
1.39259 0.620836 0
3.54752 0.847045 0
3.5458 0.146483 0
0.944357 0.102553 0
0.940808 0.894235 0
1.68822 0.419005 0
3.2382 0.450983 0
0.919182 0.694231 0
4.807 0.5 0
1.64645 0.896231 0
0.27296 0.607594 0
1.06498 0.749089 0
1.90672 0.593356 0
2.29329 0.687375 0
0.267036 0.382521 0
1.10913 0.600247 0
1.65016 0.0991258 0
1.51157 0.270586 0
3.30323 0.616834 0
1.54843 0.72456 0
0.391477 0.742824 0
2.43756 0.87289 0
2.43756 0.12711 0
0.445781 0.900621 0
1.27114 0.266576 0
3.49297 0.631828 0
3.51832 0.383193 0
1.08274 0.271441 0
3.76052 0.822527 0
3.75559 0.176119 0
4.59963 0.50248 0
1.75363 0.275598 0
0.526344 0.228309 0
4.02636 0.174835 0
4.02668 0.825268 0
0.25437 0.911281 0
1.28832 0.456324 0
3.75473 0.548031 0
0.490387 0.101801 0
2.19937 0.431678 0
1.35543 0.0834599 0
0.362783 0.24611 0
0.762116 0.908712 0
1.6435 0.792409 0
1.47432 0.905718 0
4.53148 0.166863 0
4.53126 0.834534 0
3.8063 0.364052 0
0.395967 0.0973662 0
1.59318 0.597647 0
1.49773 0.5229 0
2.13868 0.884343 0
2.13901 0.115573 0
2.75835 0.703239 0
1.05239 0.100071 0
1.97392 0.908416 0
1.97502 0.091352 0
3.9917 0.360199 0
4.00268 0.62827 0
2.38455 0.612904 0
1.65118 0.209092 0
0.979574 0.433519 0
1.18935 0.884523 0
4.24387 0.170538 0
4.2491 0.831315 0
4.83821 0.162778 0
4.83821 0.837222 0
2.00301 0.741646 0
1.99884 0.262021 0
1.41388 0.343543 0
0.700823 0.747674 0
2.93662 0.875339 0
2.93499 0.124172 0
0.09654 0.90346 0
0.649423 0.083992 0
0.661449 0.911763 0
1.90354 0.348417 0
0.256694 0.80968 0
1.17139 0.788838 0
1.1123 0.416023 0
0.24181 0.0866873 0
4.25131 0.55355 0
1.59395 0.389764 0
1.20182 0.0983026 0
1.17099 0.204767 0
1.78539 0.478829 0
1.03753 0.915096 0
2.25677 0.279642 0
4.29394 0.381646 0
0.780641 0.0880509 0
0.84898 0.234838 0
1.99338 0.536155 0
2.6929 0.421858 0
0.0914401 0.0914401 0
3.26738 0.301135 0
3.40931 0.86215 0
3.40917 0.136898 0
0.0706149 0.357341 0
1.53384 0.073576 0
2.09516 0.601694 0
0.071956 0.637879 0
4.49836 0.367459 0
4.4899 0.654885 0
0.203624 0.682356 0
2.30942 0.0877311 0
2.30942 0.912269 0
0.239989 0.187201 0
1.31606 0.767428 0
2.66687 0.899077 0
2.667 0.102661 0
0.199475 0.528954 0
2.88078 0.610285 0
1.46624 0.804875 0
2.12119 0.774562 0
2.13018 0.224692 0
1.74957 0.922396 0
1.75112 0.0775009 0
0.440198 0.401083 0
0.77681 0.199315 0
1.36026 0.188401 0
1.2953 0.912407 0
2.0841 0.397779 0
2.50888 0.728414 0
2.5023 0.260292 0
1.17675 0.510225 0
1.5565 0.924547 0
0.197339 0.311408 0
0.648055 0.191957 0
0.779135 0.807061 0
0.0859996 0.800808 0
0.440661 0.552637 0
0.626614 0.808825 0
2.39224 0.353726 0
0.941063 0.606054 0
1.2017 0.61426 0
1.80099 0.775833 0
3.18378 0.572097 0
1.72787 0.752851 0
0.964705 0.350567 0
0.202096 0.457401 0
0.915859 0.184717 0
0.083248 0.196323 0
2.75316 0.2833 0
0.860879 0.0718944 0
4.85282 0.329642 0
4.85282 0.670358 0
1.47836 0.195936 0
2.30919 0.474608 0
1.33682 0.550146 0
1.95413 0.175596 0
1.95411 0.820289 0
2.81201 0.0935166 0
2.8115 0.907266 0
1.37754 0.420256 0
0.990912 0.711416 0
0.885035 0.797643 0
3.86996 0.119422 0
3.87384 0.878736 0
3.78484 0.688692 0
1.68162 0.517886 0
2.51425 0.51277 0
0.35 0.935445 0
1.81374 0.214054 0
1.2474 0.356887 0
1.68482 0.610919 0
2.06137 0.92438 0
2.06157 0.0755753 0
1.45412 0.700606 0
0.34745 0.672528 0
2.58931 0.602445 0
0.0694759 0.566483 0
0.0696088 0.429055 0
3.38401 0.364646 0
1.02578 0.837836 0
0.565159 0.0701956 0
1.4605 0.444107 0
2.6398 0.789055 0
2.63975 0.214031 0
1.00124 0.293221 0
3.25766 0.730029 0
0.33415 0.315232 0
0.344613 0.445986 0
0.345261 0.537079 0
0.849713 0.937883 0
1.23653 0.754219 0
1.3521 0.28593 0
0.39531 0.814352 0
2.32692 0.815209 0
2.32601 0.180472 0
0.189604 0.762678 0
1.07714 0.187632 0
0.526589 0.925162 0
2.59081 0.419114 0
3.01173 0.269274 0
3.00368 0.730462 0
1.7214 0.34556 0
3.13647 0.106595 0
3.13647 0.893405 0
1.83041 0.300992 0
4.37611 0.117125 0
4.37304 0.883949 0
2.0732 0.686696 0
2.07278 0.311739 0
0.167209 0.931087 0
2.21686 0.745204 0
2.89656 0.35314 0
1.97023 0.443862 0
1.06748 0.66347 0
2.55424 0.0746107 0
2.55423 0.925516 0
1.82671 0.557437 0
0.531273 0.831206 0
1.5317 0.445814 0
0.327004 0.784787 0
0.596748 0.232471 0
1.91785 0.678069 0
3.67547 0.421389 0
0.485133 0.617531 0
4.31346 0.674183 0
1.119 0.926723 0
1.13595 0.0668376 0
1.11795 0.348073 0
1.86626 0.42836 0
2.8091 0.473534 0
4.69355 0.881935 0
4.69355 0.118065 0
1.04881 0.446952 0
2.16283 0.550512 0
1.42671 0.563171 0
1.35763 0.690125 0
0.328859 0.0675329 0
3.65973 0.880744 0
3.65683 0.113692 0
3.87887 0.619301 0
0.177736 0.232851 0
1.30089 0.614764 0
0.367768 0.176483 0
0.535294 0.69032 0
0.158562 0.0643069 0
1.59249 0.25775 0
0.707533 0.218187 0
2.99546 0.530049 0
0.768987 0.725168 0
1.04124 0.581695 0
0.30545 0.209528 0
2.21312 0.072331 0
2.21266 0.927551 0
1.27 0.0681889 0
0.617105 0.718901 0
3.09633 0.398299 0
3.1441 0.210732 0
3.1441 0.789268 0
0.501467 0.739884 0
0.501238 0.323004 0
2.20866 0.634903 0
3.08828 0.601955 0
3.50051 0.743062 0
3.49684 0.261907 0
1.45 0.0507898 0
1.57139 0.320056 0
CELLS 869 3476
3 444 213 241
3 129 213 444
3 37 38 425
3 426 61 62
3 392 167 265
3 208 392 265
3 56 263 293
3 43 292 262
3 76 349 206
3 178 261 267
3 141 267 261
3 143 381 201
3 144 202 380
3 316 268 123
3 2 294 47
3 3 52 295
3 16 318 303
3 146 317 225
3 450 208 308
3 110 320 241
3 151 247 254
3 113 254 247
3 7 220 96
3 425 38 218
3 219 61 426
3 351 137 288
3 199 351 288
3 183 241 320
3 196 316 361
3 225 317 310
3 13 267 277
3 196 268 316
3 97 236 205
3 140 258 276
3 193 303 318
3 135 440 252
3 199 398 351
3 252 440 420
3 13 14 267
3 72 73 215
3 26 27 216
3 194 376 288
3 361 316 138
3 282 405 126
3 118 208 450
3 179 240 307
3 127 200 352
3 125 246 298
3 2 48 294
3 3 295 51
3 111 200 389
3 114 363 198
3 8 214 358
3 175 439 213
3 76 206 273
3 76 77 349
3 120 331 447
3 201 405 282
3 5 102 302
3 5 302 89
3 177 298 246
3 174 276 258
3 9 370 217
3 351 398 126
3 113 247 235
3 168 204 397
3 170 296 342
3 171 343 297
3 111 361 200
3 342 296 430
3 343 431 297
3 485 324 151
3 486 152 325
3 131 384 236
3 93 319 94
3 172 278 248
3 55 56 293
3 43 44 292
3 113 203 254
3 113 255 203
3 143 300 381
3 144 380 301
3 127 421 200
3 116 248 278
3 97 205 471
3 60 324 230
3 39 231 325
3 59 60 230
3 39 40 231
3 213 439 241
3 143 201 282
3 111 288 376
3 78 291 349
3 84 197 304
3 153 336 206
3 73 344 215
3 26 216 345
3 93 347 319
3 256 419 313
3 139 254 203
3 136 232 283
3 137 351 250
3 138 251 352
3 111 376 361
3 114 198 413
3 124 206 336
3 9 107 370
3 156 207 327
3 176 212 398
3 102 358 302
3 34 380 338
3 65 337 381
3 244 353 363
3 139 460 230
3 140 231 461
3 114 307 240
3 8 358 103
3 7 95 290
3 202 338 380
3 201 381 337
3 126 398 212
3 118 256 313
3 97 362 236
3 84 420 197
3 200 421 389
3 99 477 100
3 169 221 346
3 150 435 350
3 353 134 308
3 190 250 351
3 191 352 251
3 97 471 98
3 205 236 384
3 36 209 301
3 63 300 210
3 152 323 218
3 96 220 362
3 134 353 244
3 176 321 212
3 139 203 266
3 100 477 466
3 196 361 376
3 230 324 485
3 231 486 325
3 96 362 97
3 102 103 358
3 181 415 252
3 208 353 308
3 139 257 460
3 140 461 258
3 56 57 263
3 42 43 262
3 95 367 290
3 242 416 433
3 221 482 346
3 174 262 286
3 173 287 263
3 94 228 95
3 57 386 263
3 42 262 385
3 189 447 331
3 162 215 344
3 163 345 216
3 169 409 221
3 204 249 397
3 194 288 242
3 181 252 390
3 141 261 221
3 126 405 351
3 127 352 406
3 120 447 310
3 235 247 365
3 0 10 322
3 0 322 108
3 116 393 213
3 144 371 202
3 234 314 388
3 180 314 234
3 77 78 349
3 131 236 383
3 108 322 370
3 124 341 206
3 152 218 325
3 151 324 219
3 145 263 287
3 146 286 262
3 175 213 393
3 162 364 215
3 118 392 208
3 168 446 204
3 90 346 482
3 126 212 282
3 197 420 440
3 153 206 349
3 156 375 207
3 172 279 278
3 151 219 408
3 174 286 276
3 115 276 286
3 154 248 272
3 207 375 348
3 136 283 419
3 142 278 279
3 74 75 238
3 36 425 209
3 63 210 426
3 125 348 375
3 203 255 445
3 18 19 232
3 149 237 259
3 148 259 237
3 176 389 421
3 119 332 239
3 129 215 364
3 140 445 255
3 107 108 370
3 72 215 284
3 27 285 216
3 179 402 240
3 116 272 248
3 137 416 242
3 146 292 317
3 80 81 233
3 194 268 376
3 6 359 223
3 4 76 273
3 7 290 220
3 194 456 268
3 53 54 275
3 45 46 274
3 150 320 435
3 130 297 305
3 141 221 270
3 121 243 355
3 131 233 384
3 54 429 275
3 45 274 428
3 208 265 353
3 117 289 260
3 223 410 346
3 218 323 479
3 6 223 346
3 410 169 346
3 182 384 233
3 221 409 270
3 116 213 366
3 163 260 289
3 184 305 297
3 204 481 249
3 172 396 229
3 188 317 292
3 31 32 251
3 67 68 250
3 154 341 248
3 198 363 464
3 38 325 218
3 61 219 324
3 115 266 276
3 127 371 321
3 226 484 423
3 163 216 391
3 158 332 214
3 145 293 263
3 146 262 292
3 157 348 253
3 248 341 396
3 8 329 214
3 115 286 225
3 115 225 287
3 164 368 224
3 135 249 481
3 164 217 355
3 137 242 288
3 158 214 329
3 179 307 291
3 227 422 478
3 119 239 397
3 24 25 245
3 142 388 278
3 164 326 217
3 132 479 323
3 49 50 237
3 278 388 393
3 423 143 340
3 222 371 434
3 147 304 360
3 253 348 414
3 153 291 307
3 133 423 484
3 111 389 288
3 222 321 371
3 163 289 245
3 186 433 416
3 158 239 332
3 121 409 243
3 19 283 232
3 129 379 215
3 130 216 378
3 130 391 216
3 142 311 234
3 129 364 213
3 226 423 340
3 132 478 422
3 16 17 318
3 9 217 326
3 144 434 371
3 145 287 225
3 146 225 286
3 162 238 272
3 161 353 265
3 156 245 289
3 211 466 477
3 138 316 417
3 212 452 340
3 154 272 238
3 112 227 470
3 197 360 304
3 199 288 389
3 11 12 309
3 134 472 220
3 184 350 435
3 158 399 224
3 185 312 313
3 136 228 369
3 134 220 455
3 149 330 274
3 148 275 331
3 157 313 312
3 87 88 264
3 85 86 252
3 185 313 419
3 112 434 227
3 158 224 339
3 145 225 310
3 74 238 344
3 164 224 400
3 178 303 356
3 87 264 390
3 193 356 303
3 195 470 227
3 168 397 239
3 22 23 269
3 35 36 301
3 63 64 300
3 105 400 224
3 195 478 235
3 188 274 330
3 189 331 275
3 298 404 382
3 33 34 338
3 65 66 337
3 177 404 298
3 118 313 253
3 229 396 458
3 12 459 309
3 132 235 478
3 32 437 251
3 67 250 438
3 23 487 269
3 128 239 339
3 94 319 228
3 175 388 314
3 131 240 402
3 195 227 478
3 174 385 262
3 173 263 386
3 164 355 243
3 132 422 479
3 133 480 423
3 190 351 405
3 191 406 352
3 105 224 399
3 157 253 313
3 112 340 452
3 112 452 434
3 80 233 315
3 266 445 276
3 162 344 238
3 158 339 239
3 182 233 412
3 207 487 327
3 181 390 264
3 117 234 311
3 187 316 343
3 131 402 233
3 193 318 347
3 159 347 318
3 163 245 345
3 78 79 448
3 24 245 327
3 195 235 365
3 143 423 300
3 144 301 422
3 188 428 274
3 189 275 429
3 147 357 271
3 207 269 487
3 78 448 291
3 135 252 415
3 95 228 367
3 191 251 437
3 190 438 250
3 222 434 452
3 19 20 283
3 156 327 245
3 81 412 233
3 82 83 271
3 6 101 359
3 181 264 306
3 188 330 317
3 120 317 330
3 132 323 235
3 182 271 357
3 153 349 291
3 123 343 316
3 220 472 362
3 71 72 284
3 27 28 285
3 161 363 353
3 169 243 409
3 155 306 264
3 75 354 238
3 25 345 245
3 141 277 267
3 210 300 423
3 209 422 301
3 172 229 457
3 68 334 250
3 31 251 333
3 134 244 472
3 139 230 485
3 140 486 231
3 159 372 232
3 159 232 369
3 154 238 354
3 136 369 232
3 205 384 357
3 62 63 426
3 36 37 425
3 228 319 369
3 212 340 282
3 83 84 304
3 86 390 252
3 48 49 373
3 50 51 374
3 59 230 460
3 40 461 231
3 136 407 228
3 150 268 456
3 206 341 273
3 168 239 411
3 183 320 328
3 120 310 317
3 79 80 315
3 207 348 269
3 113 235 401
3 196 376 268
3 212 321 452
3 122 342 430
3 83 304 271
3 194 242 483
3 123 431 343
3 148 331 259
3 149 259 330
3 142 234 388
3 147 271 304
3 150 328 320
3 117 424 234
3 182 357 384
3 128 411 239
3 160 362 472
3 124 396 341
3 18 232 372
3 149 373 237
3 148 237 374
3 48 373 294
3 51 295 374
3 178 443 261
3 147 299 357
3 160 236 362
3 486 401 152
3 223 359 411
3 255 401 486
3 221 261 482
3 148 453 275
3 149 274 454
3 169 410 243
3 168 411 359
3 138 352 361
3 161 464 363
3 180 234 424
3 185 419 283
3 98 299 99
3 100 446 101
3 100 466 446
3 133 365 247
3 58 257 386
3 41 385 258
3 151 408 247
3 131 383 240
3 200 361 352
3 209 479 422
3 210 423 480
3 128 243 410
3 160 383 236
3 120 330 259
3 120 259 331
3 214 418 358
3 156 468 246
3 148 295 453
3 149 454 294
3 187 417 316
3 110 241 439
3 220 290 455
3 49 237 373
3 50 374 237
3 15 16 303
3 305 435 451
3 139 387 257
3 147 360 299
3 155 358 418
3 133 247 408
3 156 246 375
3 114 240 436
3 139 485 254
3 140 255 486
3 119 306 418
3 184 435 305
3 125 414 348
3 91 482 261
3 128 368 243
3 155 302 358
3 41 258 461
3 58 460 257
3 125 375 246
3 84 85 420
3 8 104 329
3 160 436 383
3 136 256 407
3 215 379 284
3 216 285 378
3 192 335 309
3 114 244 363
3 224 368 339
3 183 444 241
3 143 282 340
3 137 250 416
3 138 417 251
3 299 471 357
3 164 243 368
3 112 470 340
3 4 273 354
3 118 253 392
3 29 30 474
3 69 70 475
3 70 280 475
3 29 474 281
3 123 268 350
3 173 257 387
3 165 309 335
3 119 418 332
3 192 309 459
3 165 463 370
3 182 412 271
3 165 370 322
3 240 383 436
3 226 340 470
3 172 248 396
3 114 436 244
3 167 392 253
3 20 449 283
3 178 356 443
3 177 246 488
3 4 354 75
3 38 39 325
3 60 61 324
3 186 280 342
3 187 343 281
3 57 58 386
3 41 42 385
3 167 382 265
3 113 401 255
3 151 254 485
3 166 407 256
3 28 29 395
3 70 71 394
3 105 106 400
3 150 350 268
3 109 265 382
3 9 326 106
3 119 397 249
3 155 264 432
3 166 256 450
3 82 271 412
3 203 445 266
3 157 269 348
3 1 24 327
3 167 253 414
3 14 403 267
3 217 370 463
3 30 31 333
3 68 69 334
3 85 252 420
3 114 413 307
3 40 41 461
3 58 59 460
3 122 328 483
3 29 281 395
3 70 394 280
3 135 415 249
3 154 273 341
3 158 329 399
3 142 441 311
3 233 402 315
3 119 249 442
3 168 359 446
3 91 261 443
3 73 74 344
3 25 26 345
3 161 265 377
3 299 360 477
3 17 18 372
3 174 258 385
3 173 386 257
3 328 456 483
3 170 342 280
3 171 281 343
3 157 476 269
3 162 272 366
3 136 419 256
3 154 354 273
3 14 15 403
3 163 391 260
3 88 89 432
3 21 22 476
3 118 450 256
3 6 346 90
3 109 377 265
3 159 319 347
3 116 366 272
3 12 13 459
3 104 105 399
3 235 323 401
3 117 260 424
3 202 371 406
3 156 289 468
3 13 277 459
3 185 283 449
3 223 411 410
3 139 266 387
3 79 315 448
3 89 302 432
3 229 377 457
3 180 424 260
3 109 457 377
3 166 290 367
3 20 21 449
3 178 267 403
3 1 327 487
3 54 55 429
3 44 45 428
3 164 400 326
3 127 406 371
3 180 260 427
3 155 432 302
3 128 410 411
3 124 458 396
3 21 476 312
3 115 462 266
3 34 35 380
3 64 65 381
3 17 372 318
3 88 432 264
3 55 293 429
3 44 428 292
3 64 381 300
3 35 301 380
3 46 47 454
3 52 53 453
3 250 334 416
3 251 417 333
3 166 455 290
3 165 467 309
3 175 393 388
3 149 294 373
3 148 374 295
3 170 284 379
3 171 378 285
3 170 280 394
3 171 395 281
3 222 452 321
3 166 308 455
3 157 312 476
3 86 87 390
3 92 469 93
3 121 270 409
3 47 294 454
3 52 453 295
3 116 278 393
3 129 296 379
3 130 378 297
3 141 465 277
3 199 389 398
3 142 279 441
3 121 463 335
3 140 276 445
3 109 404 279
3 145 447 293
3 21 312 449
3 22 269 476
3 153 307 413
3 167 298 382
3 165 322 467
3 170 379 296
3 171 297 378
3 172 457 279
3 71 284 394
3 28 395 285
3 176 398 389
3 178 403 303
3 170 394 284
3 171 285 395
3 198 458 336
3 192 277 465
3 152 401 323
3 121 355 463
3 167 414 298
3 81 82 412
3 10 11 467
3 32 33 437
3 66 67 438
3 141 270 465
3 124 336 458
3 189 293 447
3 46 454 274
3 53 275 453
3 173 462 287
3 160 472 436
3 159 318 372
3 121 473 270
3 204 446 466
3 109 279 457
3 144 422 434
3 166 450 308
3 244 436 472
3 15 303 403
3 1 487 23
3 91 443 92
3 227 434 422
3 129 444 296
3 125 298 414
3 115 287 462
3 179 291 448
3 119 442 306
3 180 305 451
3 159 369 319
3 153 413 336
3 186 475 280
3 187 281 474
3 188 292 428
3 189 429 293
3 128 339 368
3 179 315 402
3 90 482 91
3 192 459 277
3 180 427 305
3 183 296 444
3 117 468 289
3 186 342 433
3 130 305 427
3 184 297 431
3 127 321 421
3 183 430 296
3 177 488 311
3 228 407 367
3 110 439 314
3 155 418 306
3 177 311 441
3 166 367 407
3 122 483 433
3 181 306 442
3 162 366 364
3 229 458 464
3 180 451 314
3 201 337 405
3 202 406 338
3 98 471 299
3 145 310 447
3 213 364 366
3 99 299 477
3 117 311 488
3 110 451 435
3 134 455 308
3 109 382 404
3 92 356 469
3 175 314 439
3 242 433 483
3 10 467 322
3 104 399 329
3 106 326 400
3 123 350 431
3 185 449 312
3 198 464 458
3 165 335 463
3 176 421 321
3 211 360 440
3 214 332 418
3 179 448 315
3 110 435 320
3 190 405 337
3 191 338 406
3 11 309 467
3 110 314 451
3 266 462 387
3 198 336 413
3 186 416 334
3 187 333 417
3 92 443 356
3 205 357 471
3 183 328 430
3 197 440 360
3 190 337 438
3 191 437 338
3 260 391 427
3 66 438 337
3 33 338 437
3 130 427 391
3 133 408 480
3 184 431 350
3 122 430 328
3 187 474 333
3 186 334 475
3 211 477 360
3 279 404 441
3 219 480 408
3 122 433 342
3 150 456 328
3 30 333 474
3 69 475 334
3 121 335 473
3 93 469 347
3 101 446 359
3 192 473 335
3 173 387 462
3 229 464 377
3 193 347 469
3 226 470 484
3 217 463 355
3 249 415 442
3 177 441 404
3 211 440 481
3 195 484 470
3 193 469 356
3 181 442 415
3 135 481 440
3 161 377 464
3 133 484 365
3 194 483 456
3 195 365 484
3 117 488 468
3 209 425 479
3 210 480 426
3 218 479 425
3 219 426 480
3 270 473 465
3 192 465 473
3 211 481 466
3 204 466 481
3 246 468 488
CELL_TYPES 869
5
5
5
5
5
5
5
5
5
5
5
5
5
5
5
5
5
5
5
5
5
5
5
5
5
5
5
5
5
5
5
5
5
5
5
5
5
5
5
5
5
5
5
5
5
5
5
5
5
5
5
5
5
5
5
5
5
5
5
5
5
5
5
5
5
5
5
5
5
5
5
5
5
5
5
5
5
5
5
5
5
5
5
5
5
5
5
5
5
5
5
5
5
5
5
5
5
5
5
5
5
5
5
5
5
5
5
5
5
5
5
5
5
5
5
5
5
5
5
5
5
5
5
5
5
5
5
5
5
5
5
5
5
5
5
5
5
5
5
5
5
5
5
5
5
5
5
5
5
5
5
5
5
5
5
5
5
5
5
5
5
5
5
5
5
5
5
5
5
5
5
5
5
5
5
5
5
5
5
5
5
5
5
5
5
5
5
5
5
5
5
5
5
5
5
5
5
5
5
5
5
5
5
5
5
5
5
5
5
5
5
5
5
5
5
5
5
5
5
5
5
5
5
5
5
5
5
5
5
5
5
5
5
5
5
5
5
5
5
5
5
5
5
5
5
5
5
5
5
5
5
5
5
5
5
5
5
5
5
5
5
5
5
5
5
5
5
5
5
5
5
5
5
5
5
5
5
5
5
5
5
5
5
5
5
5
5
5
5
5
5
5
5
5
5
5
5
5
5
5
5
5
5
5
5
5
5
5
5
5
5
5
5
5
5
5
5
5
5
5
5
5
5
5
5
5
5
5
5
5
5
5
5
5
5
5
5
5
5
5
5
5
5
5
5
5
5
5
5
5
5
5
5
5
5
5
5
5
5
5
5
5
5
5
5
5
5
5
5
5
5
5
5
5
5
5
5
5
5
5
5
5
5
5
5
5
5
5
5
5
5
5
5
5
5
5
5
5
5
5
5
5
5
5
5
5
5
5
5
5
5
5
5
5
5
5
5
5
5
5
5
5
5
5
5
5
5
5
5
5
5
5
5
5
5
5
5
5
5
5
5
5
5
5
5
5
5
5
5
5
5
5
5
5
5
5
5
5
5
5
5
5
5
5
5
5
5
5
5
5
5
5
5
5
5
5
5
5
5
5
5
5
5
5
5
5
5
5
5
5
5
5
5
5
5
5
5
5
5
5
5
5
5
5
5
5
5
5
5
5
5
5
5
5
5
5
5
5
5
5
5
5
5
5
5
5
5
5
5
5
5
5
5
5
5
5
5
5
5
5
5
5
5
5
5
5
5
5
5
5
5
5
5
5
5
5
5
5
5
5
5
5
5
5
5
5
5
5
5
5
5
5
5
5
5
5
5
5
5
5
5
5
5
5
5
5
5
5
5
5
5
5
5
5
5
5
5
5
5
5
5
5
5
5
5
5
5
5
5
5
5
5
5
5
5
5
5
5
5
5
5
5
5
5
5
5
5
5
5
5
5
5
5
5
5
5
5
5
5
5
5
5
5
5
5
5
5
5
5
5
5
5
5
5
5
5
5
5
5
5
5
5
5
5
5
5
5
5
5
5
5
5
5
5
5
5
5
5
5
5
5
5
5
5
5
5
5
5
5
5
5
5
5
5
5
5
5
5
5
5
5
5
5
5
5
5
5
5
5
5
5
5
5
5
5
5
5
5
5
5
5
5
5
5
5
5
5
5
5
5
5
5
5
5
5
5
5
5
5
5
5
5
5
5
5
5
5
5
5
5
5
5
5
5
5
5
5
5
5
5
5
5
5
5
5
5
5
5
5
5
5
5
5
5
5
5
5
5
5
5
5
5
5
5
5
5
5
5
5
5
5
5
5
5
5
5
5
5
5
5
5
5
5
5
5
5
5
5
5
5
5
5
5
5
5
5
5
5
5
5
5
5
5
5
5
5
5
5
5
5
5
5
5
5
5
5
5
5
5
5
5
5
5
5
5
5
5
5
5
5
5
5
5
5
5
5
5
5
5
5
5
5
5
5
5
5
5
5
5
POINT_DATA 489
SCALARS scalars float 1
LOOKUP_TABLE default
-0.236464477615779
-0.074461326468599
0.001390521080873
0.001370862780062
-0.073018256713698
-0.235278757270391
-0.401097442365932
0.030098737649418
-0.219294287850981
-0.220112301063315
-0.238938308770268
-0.244114511259297
-0.257972751763743
-0.243053054227662
-0.178475601204832
-0.046615804374238
0.067843403298269
0.063379451810895
0.062902763556398
0.020630265157495
-0.022163696925751
-0.054093695070387
-0.066229324424089
-0.073152362510685
-0.075946043756418
-0.075056879820942
-0.073232572245342
-0.071028509558436
-0.068828757750004
-0.065489527830611
-0.063058019760043
-0.060881043092586
-0.058100722723800
-0.055184657764749
-0.052312051306421
-0.050330703861796
-0.045730542356327
-0.043681614704190
-0.040340935003104
-0.035217671579153
-0.034223035794506
-0.027811564835765
-0.022711700807802
-0.019756080145241
-0.018376286461993
-0.012839918655156
-0.008551561122729
-0.005868295204430
0.000386982025262
0.001253784012656
0.001276968888974
0.000459124038753
-0.005875975268343
-0.008708051730951
-0.012699790267563
-0.018653480213106
-0.019677525033855
-0.022931297270857
-0.027814099298264
-0.034102604691692
-0.035599641398118
-0.040290652258559
-0.043702168907721
-0.045909508745090
-0.050453998964880
-0.052669143433598
-0.055567501561975
-0.058562259278668
-0.061371923635788
-0.063660522905799
-0.065857526151511
-0.069280309175201
-0.070741355123408
-0.072732690477263
-0.073439172689184
-0.074719725020842
-0.072300846425412
-0.071243983055667
-0.056782626318023
-0.036189700310337
0.006998227940257
0.060243054366655
0.073421367527552
0.089718467164299
-0.012131143762147
-0.140422983287305
-0.235359759629207
-0.251388360355799
-0.243097271913428
-0.238611109116266
-0.266551541691061
-0.075798126905482
-0.030004988739881
0.076770490001589
0.064624521744049
0.043687460187016
0.058857069844973
0.093776869661515
0.121527313037995
-0.006981146606564
-0.066369285103554
-0.281603378582400
-0.233466271676028
-0.226362684739324
-0.216746988099311
-0.214214762938191
-0.217346435799473
-0.228232282489816
-0.234753869366263
-0.072544874713911
-0.067741990819120
-0.057823531400325
-0.048381397731128
-0.035291809523487
-0.059535803603910
-0.023925815828253
-0.076524398669489
-0.075292183609330
-0.050209308255984
-0.225737953838016
-0.014498267255189
-0.226871355735769
-0.065673643588056
-0.065047772620967
-0.078423776705117
-0.079901436753282
-0.055416574164870
-0.055723017089242
-0.215378908839451
-0.071029886623798
-0.070267309039192
0.048979427938347
-0.043366304715740
-0.043561231380954
-0.014893117335098
-0.209339356592881
0.056306827564027
-0.060382994042070
-0.060094458117399
-0.031812505489225
-0.031382217141397
-0.244162389434940
-0.073130689963883
-0.050907189256248
-0.050414818124414
-0.018988341426013
-0.019236675512796
0.075002296367316
-0.008003190153203
-0.007998382469394
-0.065767854261141
-0.038543432159972
-0.037514828243506
-0.070399414875899
-0.074870351792979
-0.233911013528787
-0.078224805080443
-0.068804360369594
-0.213887917740306
0.069153738492493
0.033065524298402
-0.064532743093004
-0.073706674278606
-0.074998658467344
-0.215455286899951
-0.235234179749336
0.021921237407574
-0.070319474619781
-0.239412821674575
-0.223804988928483
-0.068309672016553
-0.067680661977826
-0.076960946584783
-0.024659846070138
-0.024861622038537
-0.071523293216599
-0.055748816075221
-0.076048659994763
-0.067161798444768
-0.045662350878071
-0.070402858795137
-0.249970105023544
0.087280989193268
-0.068465486143587
-0.067474466844344
-0.042770109082559
-0.064249759351640
-0.063550649647951
-0.013655102271345
-0.013713829250635
-0.056446052854411
-0.055991826460813
-0.249925274758171
0.059137320295769
-0.062739458196745
-0.044731386715709
-0.061220607056571
-0.031330652107401
-0.075611963946376
-0.057450322119408
-0.057062478390807
-0.052938113075058
-0.052543696265072
-0.033548687010655
-0.261009434514950
0.093091287124810
-0.075285374776660
-0.075810515074923
-0.050453638933984
-0.045456286995571
-0.045755567583963
-0.066665414504221
-0.053285350278905
-0.072541464493399
-0.220750371121083
-0.072548367749949
-0.072363291845830
-0.222130322216073
-0.041807437603211
-0.041554399576977
0.029978296812651
-0.272243911016738
-0.051816614167263
-0.228613803385803
-0.210986065441406
-0.019174437567106
-0.045765149940702
-0.045722509159271
0.072967826728159
-0.077434493704592
-0.034263196597267
-0.034581113679601
0.061190976385686
0.050575771310047
-0.071864096113667
-0.042782040225356
0.086109294721526
-0.007698899421891
-0.074826677315067
-0.213178740962122
-0.032618136267679
-0.068554553389547
-0.062763730062080
-0.217123147736295
-0.031410851159358
-0.076265515770440
-0.079472203015812
-0.040208211158744
-0.076940634228161
-0.251008318436404
-0.059893059568148
-0.059486258990193
-0.210745332385973
-0.072753338572835
-0.033919064513151
-0.034369254801883
-0.016082887911752
-0.028684946533522
-0.028900601666269
-0.009541700452390
-0.074047386611411
-0.159990399121132
-0.020722741579062
-0.020957851684593
-0.245416178983383
-0.066091005448487
-0.029683211643678
-0.188574368156052
-0.063808495105117
-0.070312296727525
-0.246238130860393
0.094229801428975
-0.076357918157119
-0.073459638319306
-0.010865809201018
-0.010894301373183
-0.027803779680558
-0.247287071932533
-0.076073552799806
-0.074942786771759
-0.065851023816822
-0.065466534131191
-0.052735367820205
-0.003940566952756
-0.069573173134681
-0.069495195895487
-0.021434474430510
-0.021528648538695
-0.058935772951395
-0.077192720732088
0.029250668910947
-0.059712795992126
-0.018271472812759
-0.018215167390080
-0.005836518641764
-0.005880554533132
-0.068754214568161
-0.068213942902885
-0.077090781286758
0.064218480091438
-0.049021373748711
-0.048958981422457
-0.236380361880561
0.015358613792751
0.060670833707232
-0.068475689864336
-0.234641539829373
-0.063166572618321
-0.023733079492509
-0.246624825988262
-0.016815125636406
-0.074296263185701
-0.055036036935162
-0.051514224351840
-0.069388779276745
-0.014728203778828
-0.062985448837411
-0.016202849221038
0.082505277027422
0.064853643674523
-0.067837723375269
-0.053835610432968
-0.236944484467534
-0.042281929325861
-0.037488774851922
-0.036729921195928
-0.216633297873461
-0.075396100370899
-0.066277556411606
-0.215934461324285
-0.012183820592782
-0.012395643970352
-0.218966290779092
-0.062119639634559
-0.062725481710834
-0.236232248717007
-0.076318357767301
-0.054709194517260
-0.054368671160829
-0.211739225411647
-0.049800300508738
-0.075739313041061
-0.066355634318252
-0.065625436978363
-0.073117689520877
-0.074376178848647
-0.289575151119746
0.066185100109121
-0.075583021931493
-0.070284369939137
-0.065848177876817
-0.057081053838572
-0.056604403852759
-0.047628689106692
-0.073873249879092
-0.222491115656181
-0.015678881485641
0.104850037589438
-0.228166696603539
-0.278936058258880
0.005660508607827
-0.058931148224328
0.061035698034630
-0.062979763559273
-0.074068538937255
-0.043688876959928
-0.074345562772127
0.048115419406301
-0.212690755810931
0.082572121031610
-0.228887416874982
-0.052607166047358
0.051993877787415
-0.005855187699778
-0.005931248185023
-0.079512698916567
-0.060457906082361
-0.073254882673495
-0.069573953769556
-0.069613208315139
-0.051309525425801
-0.051614840438273
-0.071034852298910
0.032892826920538
0.096820560041138
-0.025413934021145
-0.025156186207957
-0.028594987916369
-0.072352264372876
-0.057410257099134
-0.245287595117800
-0.073414795609088
-0.062500273024163
-0.074707586355711
-0.067975024955367
-0.067414561694600
-0.077172818150497
-0.228977345486442
-0.056573384068224
-0.212439427759085
-0.212770375640511
-0.036069195904548
-0.013476044994801
-0.086192366700563
-0.074076577552217
-0.055532277303321
-0.055275671300293
0.055827986954109
-0.041894020138586
-0.222670693556571
-0.207539723710431
-0.210549605925908
0.062398176089225
-0.072119179832943
-0.075022770756230
-0.240933873049340
-0.062639436976203
-0.061978044924983
-0.225683810190948
-0.024084704557351
-0.103259370293184
-0.056464766463549
-0.045843560433738
-0.046075570918826
-0.073209256530604
-0.043486601330765
-0.043485415047960
-0.071150768503841
-0.014304852048640
-0.014376972198407
-0.067311150599425
-0.066512535480715
-0.238888186234663
-0.064475421863173
-0.049259356733134
-0.067663307041508
-0.022295485824705
-0.056146609063197
-0.056626696658376
-0.069551532343631
-0.105866775856826
-0.073418146411949
-0.241962656628654
-0.034544930646286
-0.069508958504979
-0.031626800140320
-0.262328833690989
-0.015718887024433
-0.042555648501555
-0.040754873574332
-0.025099308582761
-0.067825150358108
-0.051617695926975
-0.007110899539393
-0.007010790096885
0.006895782746115
-0.064570625974853
-0.075449884534557
-0.077961973663435
-0.256239682024411
-0.030489367317855
-0.030132237039843
-0.024809061612358
-0.228709431762753
-0.074301328500576
-0.252694754914709
-0.123583730001002
-0.240430459908262
-0.078574286376270
0.054994402033952
-0.045562136363533
0.110928581854527
0.015868736127549
-0.239527027463444
-0.063778330830117
-0.064402051297832
-0.063930707870400
-0.007374749780534
-0.044494699613834
-0.043203274148074
-0.043161734172752
-0.181499244909403
-0.238643307310048
-0.064099912816825
-0.044739895763400
-0.034129739294190
-0.034590431542694
-0.073928049442588
-0.077321371137945
