# vtk DataFile Version 3.0
    
ASCII
DATASET UNSTRUCTURED_GRID
POINTS 562 float
0 0 0
1.5 0 0
5 0 0
5 1 0
1.5 1 0
0 1 0
0.6 0.49 0
0.8 0.49 0
0 0.7 0
0 0.3 0
0.1 0 0
0.2 0 0
0.3 0 0
0.4 0 0
0.5 0 0
0.6 0 0
0.7 0 0
0.8 0 0
0.9 0 0
1 0 0
1.1 0 0
1.2 0 0
1.3 0 0
1.4 0 0
1.59924 0 0
1.70044 0 0
1.80366 0 0
1.90892 0 0
2.01627 0 0
2.12576 0 0
2.23741 0 0
2.35128 0 0
2.46742 0 0
2.58585 0 0
2.70664 0 0
2.82983 0 0
2.95546 0 0
3.08358 0 0
3.21424 0 0
3.3475 0 0
3.48341 0 0
3.62201 0 0
3.76336 0 0
3.90752 0 0
4.05454 0 0
4.20448 0 0
4.35739 0 0
4.51334 0 0
4.67238 0 0
4.83458 0 0
5 0.166667 0
5 0.333333 0
5 0.5 0
5 0.666667 0
5 0.833333 0
4.83458 1 0
4.67238 1 0
4.51334 1 0
4.35739 1 0
4.20448 1 0
4.05454 1 0
3.90752 1 0
3.76336 1 0
3.62201 1 0
3.48341 1 0
3.3475 1 0
3.21424 1 0
3.08358 1 0
2.95546 1 0
2.82983 1 0
2.70664 1 0
2.58585 1 0
2.46742 1 0
2.35128 1 0
2.23741 1 0
2.12576 1 0
2.01627 1 0
1.90892 1 0
1.80366 1 0
1.70044 1 0
1.59924 1 0
1.4 1 0
1.3 1 0
1.2 1 0
1.1 1 0
1 1 0
0.9 1 0
0.8 1 0
0.7 1 0
0.6 1 0
0.5 1 0
0.4 1 0
0.3 1 0
0.2 1 0
0.1 1 0
0.629289 0.419289 0
0.7 0.39 0
0.770711 0.419289 0
0.770711 0.560711 0
0.7 0.59 0
0.629289 0.560711 0
0 0.9 0
0 0.8 0
0 0.6 0
0 0.5 0
0 0.4 0
0 0.2 0
0 0.1 0
1.29826 0.49701 0
1.79941 0.500291 0
2.29564 0.505767 0
2.81373 0.477768 0
3.31613 0.522645 0
0.336923 0.641275 0
0.337594 0.346079 0
3.85021 0.492126 0
1.05297 0.343793 0
1.03926 0.622176 0
4.29835 0.498906 0
1.54059 0.69565 0
1.54962 0.309897 0
2.04264 0.694951 0
2.04997 0.314194 0
2.57662 0.659597 0
2.55267 0.311578 0
0.519804 0.767158 0
0.802989 0.764179 0
1.27103 0.751106 0
1.2924 0.259909 0
0.521836 0.222845 0
0.81228 0.212043 0
3.05393 0.312076 0
3.0267 0.679032 0
1.7925 0.750069 0
1.79293 0.245483 0
3.55271 0.693364 0
3.52026 0.306757 0
2.29577 0.753039 0
2.30507 0.255964 0
4.64059 0.358911 0
0.19924 0.488095 0
0.417931 0.495036 0
4.03381 0.709553 0
4.05722 0.299286 0
4.56005 0.669243 0
2.79592 0.751099 0
2.79404 0.250393 0
0.193444 0.811625 0
0.192169 0.191432 0
0.974924 0.824891 0
1.49916 0.497413 0
0.9532 0.488914 0
3.30155 0.783094 0
3.30254 0.224345 0
0.96889 0.171408 0
0.366244 0.179061 0
1.9847 0.492356 0
0.658187 0.738385 0
1.12748 0.490644 0
0.363796 0.802426 0
3.76229 0.777501 0
3.77164 0.223148 0
0.900346 0.338556 0
1.41827 0.82878 0
0.89583 0.646853 0
0.499078 0.618481 0
0.491346 0.367133 0
0.662746 0.250195 0
1.43214 0.164672 0
0.156279 0.644925 0
1.64029 0.833637 0
1.64292 0.165914 0
2.48648 0.49251 0
4.41203 0.245826 0
4.30724 0.76873 0
1.14692 0.152231 0
1.38965 0.642297 0
1.94828 0.829589 0
1.94828 0.170411 0
1.39199 0.360446 0
1.64931 0.56745 0
0.148596 0.342169 0
1.15272 0.85174 0
1.69527 0.377956 0
1.20889 0.629015 0
2.99885 0.5 0
2.14421 0.830707 0
2.13102 0.172318 0
1.89793 0.628049 0
1.90218 0.361548 0
1.19533 0.361889 0
2.14824 0.553952 0
2.45123 0.828119 0
2.45123 0.171881 0
0.609238 0.872652 0
3.5042 0.5 0
2.64312 0.83612 0
2.64429 0.16378 0
2.19908 0.376064 0
4.76552 0.559012 0
2.40035 0.629139 0
2.40443 0.360729 0
0.606776 0.120576 0
0.776066 0.67364 0
4.76624 0.790502 0
2.95127 0.172896 0
2.95127 0.827104 0
2.65071 0.558152 0
0.741396 0.873855 0
3.16827 0.173633 0
3.16361 0.834571 0
0.78221 0.310093 0
3.99281 0.531283 0
0.451369 0.866758 0
2.6993 0.377285 0
0.591697 0.304666 0
0.733767 0.118858 0
0.297352 0.459006 0
1.11916 0.732204 0
0.894701 0.876309 0
0.59437 0.663756 0
4.79748 0.224319 0
4.20765 0.196664 0
2.90622 0.629202 0
2.90094 0.37158 0
1.31259 0.871774 0
0.421925 0.716843 0
1.31966 0.120899 0
0.424156 0.272832 0
1.68588 0.670353 0
0.449196 0.121069 0
3.45054 0.831423 0
3.45054 0.168577 0
3.11758 0.42958 0
1.75588 0.85677 0
1.7538 0.148323 0
0.887309 0.116486 0
4.49748 0.492756 0
3.20152 0.623512 0
0.888682 0.560696 0
3.94198 0.84508 0
3.9645 0.152546 0
4.55054 0.177473 0
3.64888 0.832777 0
3.64601 0.150277 0
3.41592 0.376234 0
3.40361 0.628947 0
0.275368 0.88687 0
2.21986 0.669483 0
1.53754 0.892421 0
0.889744 0.419967 0
3.61727 0.572172 0
1.13612 0.269659 0
0.509885 0.525766 0
0.115054 0.884946 0
0.267515 0.108261 0
0.102721 0.545955 0
0.925019 0.73758 0
4.46793 0.801056 0
4.16106 0.830034 0
1.59244 0.417453 0
1.54191 0.10651 0
0.116165 0.110745 0
1.77256 0.625036 0
3.6987 0.378373 0
0.100397 0.736906 0
2.29241 0.910802 0
2.29241 0.0891983 0
0.274539 0.551545 0
0.39594 0.592617 0
3.90843 0.623531 0
3.95216 0.39505 0
0.104368 0.439269 0
0.098679 0.245602 0
0.407142 0.396383 0
0.921805 0.255776 0
0.286589 0.241977 0
0.280868 0.732288 0
4.2167 0.361881 0
2.0929 0.432468 0
4.15545 0.555825 0
2.7594 0.106639 0
2.758 0.8756 0
1.05862 0.0979518 0
0.240045 0.380737 0
1.65439 0.275566 0
2.68942 0.684468 0
1.05994 0.902248 0
4.81127 0.348097 0
0.971142 0.580123 0
1.04751 0.440715 0
1.29528 0.394853 0
2.05941 0.898779 0
2.05753 0.101653 0
1.39031 0.263118 0
2.28995 0.61146 0
4.40557 0.633635 0
1.30293 0.587177 0
0.971714 0.395779 0
0.529233 0.443105 0
1.39208 0.546553 0
1.37352 0.739465 0
1.49359 0.61091 0
1.04669 0.533866 0
1.03275 0.719078 0
4.63526 0.833272 0
1.89838 0.734995 0
1.89838 0.265005 0
1.85478 0.909984 0
1.85449 0.0907434 0
3.16226 0.28865 0
3.26616 0.0999336 0
3.26549 0.901929 0
1.5445 0.210137 0
0.998458 0.269385 0
2.60171 0.430278 0
1.80411 0.349089 0
0.361332 0.902906 0
1.53216 0.784531 0
1.2246 0.0874252 0
2.14404 0.27268 0
1.47789 0.391346 0
2.78694 0.612885 0
1.21043 0.447948 0
1.69145 0.477102 0
2.53327 0.101069 0
2.5331 0.898917 0
1.89741 0.531385 0
1.99535 0.601845 0
0.82374 0.367681 0
0.695474 0.663229 0
0.736076 0.794657 0
1.22441 0.913799 0
0.822384 0.615444 0
3.83117 0.88087 0
3.83494 0.120357 0
0.360752 0.0899626 0
4.08968 0.134777 0
0.525083 0.921926 0
1.44647 0.917909 0
2.04056 0.788554 0
2.04555 0.211915 0
0.962964 0.077169 0
3.09681 0.578982 0
0.674849 0.326051 0
2.66086 0.277356 0
1.98497 0.39754 0
1.45 0.0782189 0
3.66049 0.708585 0
0.23806 0.642462 0
1.06628 0.204802 0
1.12407 0.578839 0
2.40809 0.740339 0
2.40026 0.264845 0
0.451347 0.192256 0
1.45796 0.716939 0
0.595246 0.792912 0
4.43297 0.114732 0
0.565906 0.581767 0
4.37171 0.366683 0
0.225026 0.295213 0
1.21201 0.538439 0
2.30802 0.348368 0
0.840494 0.27405 0
0.447012 0.790269 0
0.850796 0.707558 0
0.973087 0.916245 0
1.65509 0.923612 0
1.65539 0.0766054 0
3.28464 0.38223 0
0.196376 0.715842 0
0.529664 0.0735585 0
4.28093 0.887417 0
0.736266 0.201309 0
3.05901 0.104198 0
3.05824 0.897169 0
2.2061 0.474554 0
0.816992 0.920547 0
1.11904 0.393039 0
2.39767 0.532812 0
4.18924 0.696248 0
0.599431 0.207212 0
0.512635 0.689922 0
2.18012 0.0877077 0
2.1817 0.917617 0
1.61968 0.731926 0
0.810439 0.0807266 0
4.65067 0.531383 0
3.54925 0.899671 0
3.54925 0.100329 0
0.0718795 0.645557 0
2.40922 0.909434 0
2.40925 0.0905637 0
2.49441 0.599155 0
0.19629 0.918402 0
2.52899 0.770555 0
2.52999 0.229758 0
1.95753 0.92767 0
1.9571 0.0725616 0
1.08474 0.802794 0
1.70739 0.759737 0
1.23964 0.19639 0
2.87084 0.903359 0
2.87112 0.0930889 0
1.45562 0.312715 0
4.87499 0.672974 0
0.566092 0.374962 0
1.39244 0.447937 0
4.11049 0.435386 0
3.78197 0.620148 0
0.510649 0.305858 0
3.16001 0.718615 0
0.184209 0.568688 0
1.1464 0.0698 0
0.354122 0.5336 0
0.677841 0.91807 0
0.972219 0.659562 0
1.24518 0.826859 0
1.84997 0.816281 0
1.84958 0.183993 0
1.56251 0.55605 0
2.90042 0.734268 0
2.91845 0.277096 0
3.58894 0.412689 0
1.71467 0.221049 0
2.48712 0.397459 0
0.524625 0.835279 0
4.51452 0.322731 0
2.79568 0.353727 0
0.0671952 0.348805 0
0.189585 0.0816778 0
0.676391 0.0768913 0
1.20316 0.705394 0
1.32987 0.319661 0
0.459365 0.4386 0
1.14815 0.933617 0
4.7102 0.673759 0
1.22459 0.284678 0
1.29841 0.677569 0
1.60535 0.636968 0
2.71137 0.47418 0
4.31062 0.115683 0
2.13267 0.739235 0
2.90045 0.531804 0
0.667596 0.819303 0
0.637008 0.611893 0
0.529759 0.154295 0
1.96544 0.318763 0
0.669229 0.162507 0
1.96214 0.682766 0
2.99932 0.398104 0
2.3483 0.826519 0
2.34855 0.175845 0
3.04659 0.210039 0
3.04429 0.784127 0
4.87149 0.866819 0
4.69231 0.126744 0
2.23346 0.193517 0
2.2307 0.806772 0
1.8717 0.44305 0
0.348532 0.718857 0
1.73113 0.301679 0
0.353024 0.268811 0
3.42634 0.730362 0
3.40782 0.26762 0
1.62293 0.345218 0
0.0765459 0.816713 0
0.173062 0.412568 0
1.83346 0.678897 0
1.73168 0.557468 0
1.37547 0.923693 0
3.65814 0.27649 0
2.06432 0.550607 0
2.99082 0.591439 0
3.29838 0.64849 0
4.27972 0.624022 0
1.11541 0.658338 0
0.733759 0.726818 0
4.87208 0.127955 0
2.64625 0.0707669 0
2.64592 0.926644 0
1.76582 0.427615 0
4.7546 0.901051 0
1.34474 0.20053 0
0.288791 0.814817 0
0.450318 0.551067 0
0.879944 0.802295 0
2.10051 0.635012 0
3.40452 0.474049 0
0.753077 0.618139 0
0.0711221 0.175664 0
0.812016 0.83864 0
1.38036 0.072758 0
0.966853 0.328724 0
3.2113 0.526098 0
3.37003 0.098571 0
3.3697 0.903289 0
3.50328 0.602997 0
3.54766 0.796462 0
3.54308 0.207689 0
1.60377 0.49921 0
1.32749 0.798454 0
4.67565 0.244877 0
4.89958 0.24291 0
0.431015 0.342404 0
0.72158 0.284456 0
2.70632 0.773735 0
0.86382 0.490004 0
3.90323 0.263602 0
3.8963 0.738059 0
0.826951 0.542556 0
1.17933 0.77835 0
1.06346 0.27191 0
3.72737 0.0981578 0
3.72737 0.901842 0
2.23553 0.294994 0
4.29443 0.272624 0
2.12154 0.351217 0
3.80071 0.353812 0
4.86308 0.475634 0
2.48169 0.679757 0
2.47489 0.312874 0
2.37399 0.443252 0
0.0633118 0.936688 0
2.23196 0.563043 0
0.748634 0.357014 0
4.74623 0.454607 0
0.292307 0.172943 0
0.435605 0.642627 0
0.8274 0.437776 0
0.873024 0.189937 0
0.0622663 0.0622663 0
3.14891 0.0686233 0
3.14891 0.931377 0
2.62889 0.744895 0
0.576049 0.730427 0
2.33538 0.680391 0
1.8311 0.572475 0
0.744119 0.0552951 0
1.46988 0.242241 0
2.85529 0.818286 0
2.85371 0.185034 0
0.747246 0.942495 0
2.72638 0.195165 0
0.799243 0.150177 0
0.448255 0.941504 0
2.27465 0.428506 0
2.56199 0.547939 0
1.97634 0.749278 0
1.97115 0.242934 0
1.75687 0.694192 0
3.71872 0.473622 0
0.166144 0.259955 0
0.775458 0.254839 0
1.75342 0.941007 0
1.75355 0.0631343 0
1.26355 0.329756 0
0.371471 0.454453 0
4.05056 0.897445 0
0.627364 0.362201 0
4.38908 0.896224 0
0.449243 0.0515068 0
CELLS 1016 4064
3 274 557 114
3 212 271 408
3 408 271 143
3 558 240 142
3 259 558 142
3 114 557 217
3 280 408 118
3 89 338 194
3 415 89 194
3 150 407 321
3 118 408 278
3 144 258 296
3 195 245 423
3 115 212 270
3 115 271 212
3 180 469 229
3 43 44 241
3 171 285 313
3 136 423 245
3 140 284 217
3 456 47 48
3 123 207 286
3 113 277 349
3 242 47 456
3 255 430 12
3 142 270 212
3 12 430 11
3 153 310 209
3 174 296 258
3 156 459 346
3 184 438 432
3 68 402 206
3 36 205 403
3 54 455 405
3 345 315 124
3 129 381 215
3 92 394 247
3 116 252 378
3 140 217 268
3 229 469 263
3 142 212 280
3 184 297 438
3 143 222 278
3 4 249 80
3 125 226 382
3 209 310 453
3 36 374 205
3 68 206 375
3 123 547 207
3 214 315 345
3 72 391 326
3 32 325 392
3 143 337 222
3 277 370 349
3 113 414 269
3 120 313 285
3 129 215 410
3 224 422 450
3 175 401 252
3 132 421 223
3 295 536 248
3 114 217 284
3 131 453 310
3 113 528 226
3 558 59 60
3 190 378 252
3 113 268 414
3 462 155 228
3 149 219 486
3 152 312 210
3 153 209 311
3 92 93 394
3 131 450 422
3 193 396 353
3 192 352 395
3 167 215 381
3 157 220 330
3 248 536 137
3 155 336 230
3 80 249 367
3 252 401 437
3 155 354 228
3 159 364 213
3 45 222 337
3 22 227 319
3 132 223 473
3 421 145 322
3 214 345 428
3 111 224 443
3 353 396 521
3 352 520 395
3 223 421 322
3 6 358 253
3 170 249 318
3 29 383 293
3 75 292 384
3 218 304 476
3 174 259 380
3 146 428 345
3 152 231 496
3 153 495 232
3 144 296 237
3 207 440 322
3 104 272 256
3 170 234 367
3 171 368 235
3 150 300 407
3 44 337 241
3 153 232 464
3 152 463 231
3 191 279 376
3 126 477 203
3 15 202 371
3 431 202 15
3 152 210 411
3 82 332 225
3 57 258 305
3 111 428 224
3 164 239 289
3 53 54 405
3 6 299 95
3 259 59 558
3 159 213 317
3 185 443 224
3 191 472 279
3 94 254 394
3 113 226 460
3 113 269 528
3 192 326 391
3 193 392 325
3 204 405 455
3 185 450 233
3 183 324 260
3 117 476 304
3 18 236 386
3 86 377 219
3 125 364 226
3 156 327 459
3 92 247 317
3 131 233 450
3 174 372 259
3 185 224 450
3 1 24 261
3 126 203 365
3 248 458 442
3 163 470 225
3 149 366 219
3 143 241 337
3 131 422 453
3 132 454 421
3 134 307 316
3 110 379 295
3 118 237 296
3 170 400 234
3 139 387 237
3 140 256 272
3 111 322 440
3 111 440 428
3 185 233 343
3 86 219 366
3 189 316 307
3 151 239 507
3 200 295 379
3 168 227 492
3 52 405 519
3 165 358 220
3 6 100 358
3 133 234 400
3 148 490 262
3 176 297 300
3 108 300 297
3 149 486 257
3 18 342 236
3 180 229 439
3 218 399 304
3 151 507 250
3 154 530 236
3 104 105 272
3 118 278 359
3 28 29 293
3 75 76 292
3 137 458 248
3 53 405 52
3 162 298 250
3 152 496 312
3 153 311 495
3 139 502 288
3 151 289 239
3 45 441 222
3 131 310 233
3 151 250 298
3 114 360 276
3 93 94 394
3 148 273 490
3 189 346 459
3 163 355 318
3 214 428 440
3 147 254 466
3 220 445 330
3 6 253 299
3 167 344 215
3 163 225 501
3 170 367 249
3 191 524 248
3 82 225 470
3 91 92 317
3 24 368 261
3 114 284 360
3 504 114 228
3 411 132 343
3 171 313 261
3 228 114 462
3 103 104 256
3 8 265 102
3 22 492 227
3 56 57 305
3 168 483 227
3 95 299 406
3 187 293 383
3 186 384 292
3 129 410 228
3 155 230 354
3 158 378 323
3 164 416 257
3 260 324 500
3 73 74 266
3 30 31 267
3 147 466 265
3 139 237 427
3 221 288 502
3 179 321 407
3 278 516 359
3 10 430 262
3 238 411 343
3 116 512 252
3 171 235 424
3 118 359 237
3 163 301 355
3 125 426 364
3 496 231 64
3 495 40 232
3 165 220 382
3 213 364 426
3 133 418 234
3 134 235 419
3 164 333 239
3 141 434 253
3 170 318 385
3 147 247 394
3 207 322 286
3 157 535 220
3 195 423 251
3 159 460 226
3 147 394 254
3 134 424 235
3 144 305 258
3 19 20 283
3 172 522 425
3 64 231 388
3 40 389 232
3 159 226 364
3 464 369 153
3 238 474 411
3 119 302 439
3 140 467 284
3 245 369 464
3 148 262 430
3 112 488 246
3 142 380 259
3 248 524 295
3 154 236 342
3 161 244 513
3 160 514 243
3 120 260 321
3 187 320 341
3 129 228 354
3 195 488 245
3 154 275 530
3 148 430 255
3 233 369 494
3 474 152 411
3 205 453 422
3 206 421 454
3 17 18 386
3 226 528 382
3 176 300 302
3 9 106 273
3 159 317 484
3 302 420 439
3 150 302 300
3 84 85 287
3 169 390 256
3 112 246 474
3 136 245 464
3 135 463 246
3 171 261 368
3 207 315 440
3 49 478 456
3 61 334 240
3 43 241 335
3 78 554 308
3 26 309 555
3 103 256 390
3 246 488 497
3 160 243 348
3 173 357 242
3 163 318 249
3 144 237 387
3 144 436 305
3 162 250 329
3 207 547 315
3 117 289 303
3 253 434 299
3 186 442 458
3 21 22 319
3 47 242 357
3 195 251 497
3 135 348 498
3 243 498 348
3 61 240 558
3 229 263 550
3 208 415 444
3 122 341 320
3 162 275 493
3 142 240 509
3 143 508 241
3 135 497 251
3 139 288 526
3 101 466 254
3 247 484 317
3 168 261 313
3 195 497 488
3 151 303 289
3 44 45 337
3 151 290 303
3 69 70 282
3 34 35 281
3 230 336 561
3 191 248 487
3 190 323 378
3 135 246 497
3 173 242 427
3 108 297 361
3 4 339 249
3 10 11 430
3 59 259 372
3 149 257 304
3 112 494 369
3 234 554 367
3 235 368 555
3 486 126 365
3 77 78 308
3 26 27 309
3 63 388 243
3 41 244 389
3 156 279 472
3 112 474 494
3 234 308 554
3 235 555 309
3 151 298 290
3 51 519 288
3 198 376 279
3 148 276 360
3 116 290 298
3 204 305 436
3 164 257 365
3 63 243 514
3 41 513 244
3 18 19 342
3 150 321 260
3 145 286 322
3 96 344 525
3 111 443 322
3 163 249 339
3 163 339 470
3 9 273 429
3 74 384 266
3 30 267 383
3 161 471 244
3 181 429 273
3 82 83 332
3 257 486 365
3 19 283 342
3 149 304 399
3 188 327 328
3 169 370 265
3 147 484 247
3 140 268 412
3 223 322 443
3 136 464 499
3 135 498 463
3 147 265 370
3 100 445 358
3 139 526 387
3 101 254 523
3 94 523 254
3 172 379 522
3 86 87 377
3 257 416 304
3 150 260 500
3 220 358 445
3 114 504 274
3 149 287 366
3 217 414 268
3 135 251 348
3 154 283 350
3 344 505 525
3 156 328 327
3 238 494 474
3 184 361 297
3 174 258 560
3 166 410 406
3 1 261 347
3 71 72 326
3 32 33 325
3 102 265 466
3 48 49 456
3 51 52 519
3 168 492 347
3 169 265 390
3 168 347 261
3 12 336 255
3 215 406 410
3 148 255 527
3 175 350 283
3 154 314 275
3 140 412 256
3 175 252 350
3 194 444 415
3 158 303 290
3 142 509 270
3 143 271 508
3 138 353 362
3 165 253 358
3 10 262 531
3 113 349 268
3 169 256 412
3 149 399 287
3 57 560 258
3 126 331 477
3 201 362 353
3 233 310 369
3 85 366 287
3 275 314 493
3 123 393 547
3 155 527 336
3 8 390 265
3 85 86 366
3 509 160 409
3 221 456 478
3 70 480 282
3 34 281 479
3 129 354 446
3 196 282 480
3 197 479 281
3 165 485 253
3 530 363 130
3 270 509 409
3 190 291 323
3 161 513 335
3 160 334 514
3 182 287 399
3 158 290 378
3 148 552 273
3 155 462 276
3 141 253 485
3 122 279 346
3 262 490 531
3 67 68 375
3 36 37 374
3 120 465 260
3 154 350 314
3 107 531 490
3 105 429 272
3 127 432 438
3 228 410 504
3 190 252 437
3 275 363 530
3 255 336 527
3 264 471 518
3 38 39 311
3 65 66 312
3 162 363 275
3 158 361 351
3 183 260 465
3 186 292 340
3 187 341 293
3 203 333 365
3 161 518 471
3 101 102 466
3 164 289 416
3 146 345 543
3 189 459 316
3 316 459 481
3 227 483 401
3 201 425 522
3 232 499 464
3 231 463 498
3 251 423 551
3 117 303 351
3 154 342 283
3 156 346 279
3 320 457 515
3 176 302 355
3 165 382 528
3 115 518 271
3 181 272 429
3 108 323 291
3 73 266 391
3 31 392 267
3 210 312 533
3 209 532 311
3 237 359 427
3 119 355 302
3 119 318 355
3 230 446 354
3 173 516 441
3 159 277 460
3 121 328 487
3 242 502 427
3 164 365 333
3 148 527 276
3 187 457 320
3 158 351 303
3 161 335 508
3 160 509 334
3 141 485 414
3 234 418 308
3 235 309 419
3 328 472 487
3 124 521 396
3 123 395 520
3 251 551 409
3 196 506 282
3 166 434 274
3 115 270 409
3 268 349 412
3 136 471 423
3 60 61 558
3 114 276 462
3 177 340 292
3 178 293 341
3 241 508 335
3 240 334 509
3 233 494 343
3 112 369 488
3 148 360 552
3 269 414 485
3 88 89 415
3 145 282 506
3 264 423 471
3 163 501 301
3 169 349 370
3 197 345 396
3 120 321 404
3 266 384 458
3 267 457 383
3 3 55 455
3 165 528 485
3 153 369 310
3 115 551 518
3 42 43 335
3 61 62 334
3 212 408 280
3 245 488 369
3 113 460 277
3 119 439 385
3 147 370 277
3 143 278 408
3 72 73 391
3 31 32 392
3 181 273 552
3 142 280 380
3 139 427 502
3 128 401 483
3 124 396 345
3 4 81 339
3 140 272 467
3 3 455 54
3 229 385 439
3 115 409 551
3 166 504 410
3 208 444 331
3 147 277 484
3 89 90 338
3 214 440 315
3 266 458 451
3 267 452 457
3 137 451 458
3 138 457 452
3 172 315 547
3 175 283 413
3 182 435 287
3 166 274 504
3 35 36 403
3 68 69 402
3 12 13 336
3 211 363 329
3 168 294 483
3 181 360 284
3 118 475 280
3 108 291 407
3 179 407 291
3 227 401 319
3 181 467 272
3 269 485 528
3 184 351 361
3 173 441 357
3 108 361 323
3 239 333 510
3 38 311 532
3 66 533 312
3 45 46 441
3 176 355 301
3 264 518 551
3 120 539 313
3 84 287 435
3 20 413 283
3 116 298 493
3 197 281 543
3 69 282 402
3 35 403 281
3 116 378 290
3 155 276 527
3 150 500 420
3 76 397 292
3 28 293 398
3 200 379 393
3 122 517 279
3 222 516 278
3 39 40 495
3 64 65 496
3 221 503 288
3 162 329 363
3 171 424 285
3 15 16 431
3 1 347 23
3 177 292 397
3 178 398 293
3 119 385 318
3 106 490 273
3 174 560 372
3 106 107 490
3 172 393 379
3 281 541 543
3 173 359 516
3 159 484 277
3 541 146 543
3 2 478 49
3 46 47 357
3 146 422 428
3 123 286 534
3 57 58 560
3 198 279 517
3 314 350 512
3 51 288 503
3 22 23 492
3 145 540 282
3 14 15 371
3 179 294 404
3 216 448 431
3 157 356 535
3 128 437 401
3 62 63 514
3 41 42 513
3 2 50 478
3 120 285 465
3 190 556 291
3 236 530 544
3 224 428 422
3 166 406 299
3 117 416 289
3 182 399 511
3 79 80 367
3 24 25 368
3 183 465 285
3 91 317 545
3 250 529 329
3 184 432 476
3 58 59 372
3 81 82 470
3 183 285 461
3 174 475 296
3 158 323 361
3 166 299 434
3 176 438 297
3 108 407 300
3 362 522 546
3 128 294 433
3 179 291 433
3 222 441 516
3 217 557 414
3 120 404 539
3 179 433 294
3 27 28 398
3 76 77 397
3 201 522 362
3 63 64 388
3 40 41 389
3 145 506 286
3 188 468 537
3 95 559 96
3 176 301 438
3 117 304 416
3 179 404 321
3 218 511 399
3 77 308 397
3 27 398 309
3 251 409 348
3 150 420 302
3 177 397 308
3 178 309 398
3 181 284 467
3 263 537 468
3 177 308 418
3 178 419 309
3 29 30 383
3 74 75 384
3 177 418 306
3 178 307 419
3 186 458 384
3 187 383 457
3 124 315 425
3 116 493 314
3 202 431 448
3 133 306 418
3 134 419 307
3 199 519 405
3 219 491 486
3 211 525 505
3 8 103 390
3 20 21 413
3 118 296 475
3 175 319 401
3 127 438 301
3 236 544 386
3 128 483 294
3 110 295 524
3 213 338 545
3 21 319 413
3 218 476 432
3 168 539 294
3 196 326 395
3 197 396 325
3 138 515 457
3 175 413 319
3 96 559 344
3 79 367 554
3 25 555 368
3 210 454 411
3 193 325 396
3 192 395 326
3 141 557 434
3 172 425 315
3 13 561 336
3 213 545 317
3 225 332 417
3 167 373 505
3 97 525 329
3 200 536 295
3 162 493 298
3 125 356 426
3 186 340 442
3 160 348 409
3 56 305 482
3 219 377 491
3 126 491 331
3 274 434 557
3 133 468 306
3 9 429 105
3 99 489 330
3 132 411 454
3 225 417 501
3 180 500 324
3 83 84 435
3 90 545 338
3 127 301 501
3 109 537 469
3 204 482 305
3 213 426 338
3 189 307 447
3 188 306 468
3 230 561 371
3 121 487 442
3 211 553 363
3 238 343 494
3 98 333 489
3 188 449 306
3 99 330 445
3 5 523 94
3 5 101 523
3 122 549 341
3 121 340 548
3 183 316 481
3 194 426 356
3 248 442 487
3 33 479 325
3 71 326 480
3 280 475 380
3 182 417 332
3 0 531 107
3 0 10 531
3 98 510 333
3 170 385 400
3 263 469 537
3 99 445 100
3 183 461 316
3 197 325 479
3 196 480 326
3 211 329 525
3 134 316 461
3 208 331 491
3 97 329 529
3 229 400 385
3 152 474 463
3 55 56 482
3 127 501 417
3 129 446 381
3 33 34 479
3 70 71 480
3 109 469 324
3 194 338 426
3 203 330 489
3 14 371 561
3 169 412 349
3 373 553 505
3 122 346 447
3 246 463 474
3 130 363 553
3 109 481 459
3 203 489 333
3 182 332 435
3 183 481 324
3 83 435 332
3 66 67 533
3 37 38 532
3 65 312 496
3 39 495 311
3 177 306 548
3 178 549 307
3 25 26 555
3 78 79 554
3 16 17 538
3 50 51 503
3 87 88 542
3 109 459 327
3 168 313 539
3 180 439 420
3 13 14 561
3 98 489 99
3 90 91 545
3 173 427 359
3 202 381 446
3 116 314 512
3 157 477 331
3 157 331 444
3 180 324 469
3 216 373 448
3 188 328 449
3 144 387 436
3 184 476 351
3 121 548 449
3 122 447 549
3 223 443 473
3 7 510 98
3 122 320 517
3 199 405 436
3 167 381 448
3 204 436 405
3 199 526 519
3 188 537 327
3 96 525 97
3 121 449 328
3 7 97 529
3 288 519 526
3 121 442 340
3 189 447 346
3 109 324 481
3 185 473 443
3 264 551 423
3 174 380 475
3 199 436 387
3 132 473 343
3 126 486 491
3 46 357 441
3 198 517 320
3 229 550 400
3 181 552 360
3 137 352 451
3 138 452 353
3 157 444 356
3 156 472 328
3 244 471 499
3 130 544 530
3 198 320 515
3 141 414 557
3 133 400 550
3 136 499 471
3 197 543 345
3 81 470 339
3 285 424 461
3 209 453 374
3 210 375 454
3 192 451 352
3 193 353 452
3 134 461 424
3 127 417 511
3 230 371 446
3 109 327 537
3 167 448 373
3 185 343 473
3 282 540 402
3 281 403 541
3 203 477 330
3 202 446 371
3 127 511 432
3 202 448 381
3 199 387 526
3 205 374 453
3 206 454 375
3 194 356 444
3 266 451 391
3 267 392 452
3 117 351 476
3 161 508 518
3 62 514 334
3 42 335 513
3 130 373 544
3 37 532 374
3 67 375 533
3 125 535 356
3 252 512 350
3 271 518 508
3 209 374 532
3 210 533 375
3 192 391 451
3 193 452 392
3 157 330 477
3 23 347 492
3 128 433 556
3 177 548 340
3 178 341 549
3 137 536 352
3 191 487 472
3 208 542 415
3 128 556 437
3 198 362 546
3 216 544 373
3 216 431 538
3 208 377 542
3 182 511 417
3 208 491 377
3 198 515 362
3 200 352 536
3 200 520 352
3 201 353 521
3 167 505 344
3 124 425 521
3 138 362 515
3 110 524 376
3 196 395 534
3 215 344 559
3 125 382 535
3 294 539 404
3 198 546 376
3 243 388 498
3 244 499 389
3 191 376 524
3 88 415 542
3 231 498 388
3 232 389 499
3 110 546 522
3 123 534 395
3 87 542 377
3 16 538 431
3 110 522 379
3 130 553 373
3 95 406 559
3 200 393 520
3 220 535 382
3 216 386 544
3 216 538 386
3 110 376 546
3 180 420 500
3 58 372 560
3 123 520 393
3 221 478 503
3 201 521 425
3 55 482 455
3 204 455 482
3 206 402 540
3 205 541 403
3 172 547 393
3 17 386 538
3 218 432 511
3 50 503 478
3 145 421 540
3 146 541 422
3 206 540 421
3 205 422 541
3 215 559 406
3 242 456 502
3 7 529 507
3 221 502 456
3 291 556 433
3 133 550 468
3 263 468 550
3 7 507 510
3 190 437 556
3 307 549 447
3 306 449 548
3 250 507 529
3 196 534 506
3 239 510 507
3 286 506 534
3 211 505 553
CELL_TYPES 1016
5
5
5
5
5
5
5
5
5
5
5
5
5
5
5
5
5
5
5
5
5
5
5
5
5
5
5
5
5
5
5
5
5
5
5
5
5
5
5
5
5
5
5
5
5
5
5
5
5
5
5
5
5
5
5
5
5
5
5
5
5
5
5
5
5
5
5
5
5
5
5
5
5
5
5
5
5
5
5
5
5
5
5
5
5
5
5
5
5
5
5
5
5
5
5
5
5
5
5
5
5
5
5
5
5
5
5
5
5
5
5
5
5
5
5
5
5
5
5
5
5
5
5
5
5
5
5
5
5
5
5
5
5
5
5
5
5
5
5
5
5
5
5
5
5
5
5
5
5
5
5
5
5
5
5
5
5
5
5
5
5
5
5
5
5
5
5
5
5
5
5
5
5
5
5
5
5
5
5
5
5
5
5
5
5
5
5
5
5
5
5
5
5
5
5
5
5
5
5
5
5
5
5
5
5
5
5
5
5
5
5
5
5
5
5
5
5
5
5
5
5
5
5
5
5
5
5
5
5
5
5
5
5
5
5
5
5
5
5
5
5
5
5
5
5
5
5
5
5
5
5
5
5
5
5
5
5
5
5
5
5
5
5
5
5
5
5
5
5
5
5
5
5
5
5
5
5
5
5
5
5
5
5
5
5
5
5
5
5
5
5
5
5
5
5
5
5
5
5
5
5
5
5
5
5
5
5
5
5
5
5
5
5
5
5
5
5
5
5
5
5
5
5
5
5
5
5
5
5
5
5
5
5
5
5
5
5
5
5
5
5
5
5
5
5
5
5
5
5
5
5
5
5
5
5
5
5
5
5
5
5
5
5
5
5
5
5
5
5
5
5
5
5
5
5
5
5
5
5
5
5
5
5
5
5
5
5
5
5
5
5
5
5
5
5
5
5
5
5
5
5
5
5
5
5
5
5
5
5
5
5
5
5
5
5
5
5
5
5
5
5
5
5
5
5
5
5
5
5
5
5
5
5
5
5
5
5
5
5
5
5
5
5
5
5
5
5
5
5
5
5
5
5
5
5
5
5
5
5
5
5
5
5
5
5
5
5
5
5
5
5
5
5
5
5
5
5
5
5
5
5
5
5
5
5
5
5
5
5
5
5
5
5
5
5
5
5
5
5
5
5
5
5
5
5
5
5
5
5
5
5
5
5
5
5
5
5
5
5
5
5
5
5
5
5
5
5
5
5
5
5
5
5
5
5
5
5
5
5
5
5
5
5
5
5
5
5
5
5
5
5
5
5
5
5
5
5
5
5
5
5
5
5
5
5
5
5
5
5
5
5
5
5
5
5
5
5
5
5
5
5
5
5
5
5
5
5
5
5
5
5
5
5
5
5
5
5
5
5
5
5
5
5
5
5
5
5
5
5
5
5
5
5
5
5
5
5
5
5
5
5
5
5
5
5
5
5
5
5
5
5
5
5
5
5
5
5
5
5
5
5
5
5
5
5
5
5
5
5
5
5
5
5
5
5
5
5
5
5
5
5
5
5
5
5
5
5
5
5
5
5
5
5
5
5
5
5
5
5
5
5
5
5
5
5
5
5
5
5
5
5
5
5
5
5
5
5
5
5
5
5
5
5
5
5
5
5
5
5
5
5
5
5
5
5
5
5
5
5
5
5
5
5
5
5
5
5
5
5
5
5
5
5
5
5
5
5
5
5
5
5
5
5
5
5
5
5
5
5
5
5
5
5
5
5
5
5
5
5
5
5
5
5
5
5
5
5
5
5
5
5
5
5
5
5
5
5
5
5
5
5
5
5
5
5
5
5
5
5
5
5
5
5
5
5
5
5
5
5
5
5
5
5
5
5
5
5
5
5
5
5
5
5
5
5
5
5
5
5
5
5
5
5
5
5
5
5
5
5
5
5
5
5
5
5
5
5
5
5
5
5
5
5
5
5
5
5
5
5
5
5
5
5
5
5
5
5
5
5
5
5
5
5
5
5
5
5
5
5
5
5
5
5
5
5
5
5
5
5
5
5
5
5
5
5
5
5
5
5
5
5
5
5
5
5
5
5
5
5
5
5
5
5
5
5
5
5
5
5
5
5
5
5
5
5
5
5
5
5
5
5
5
5
5
5
5
5
5
5
5
5
5
5
5
5
5
5
5
5
5
5
5
5
5
5
5
5
5
5
5
5
5
5
5
5
5
5
5
5
5
5
5
5
5
5
5
5
5
5
5
5
5
5
5
5
5
5
5
5
5
5
5
5
5
5
5
5
5
5
5
5
5
5
5
5
5
5
5
5
5
5
5
5
5
5
5
5
5
5
5
5
5
5
5
5
5
POINT_DATA 562
SCALARS scalars float 1
LOOKUP_TABLE default
32.562037673274808
22.095302995398587
1.227688611389464
0.691242547974232
22.749072348637828
33.749606379209112
31.263523838207973
26.052757789802122
34.391105534503467
33.526192558138163
32.553388400239264
32.273096709378322
31.872538295350214
31.161057897640180
30.554731653312473
29.644246347831963
28.679227637123272
27.664659649948739
26.518076482490482
25.504717357309129
25.016722884235723
24.468442100121962
23.567814406419178
22.931344305263796
21.664087422184959
20.801588415165835
20.073503667089536
19.505485987685919
18.517883730121365
17.898829073668033
17.171632926716008
16.191848663162578
15.438694223165024
14.757297625585975
13.954376971284258
13.449982443753157
12.393497043293783
11.407488456514413
10.912459355359623
10.406698291781170
9.488267355285874
8.140280483390240
7.292998231327696
6.670331624044033
5.999044446618261
4.982397280654320
4.082074288630611
3.040113598313872
2.174474494568069
2.057369317362939
0.497041999220945
0.935028444078445
1.119873235860422
0.213762732464407
0.401857531262746
1.935735035984159
2.405502343704682
3.175942821194528
4.385004444376189
5.368743653950539
6.296391229050081
6.507270372536636
7.741882532554190
8.351207628696626
9.443834382418041
10.378458011929000
11.357898188296826
12.101386480629458
12.532527898348546
13.530282591346730
14.370699134999548
15.201974014226165
16.056450309846188
16.791271674230060
17.434147928369065
18.215456130204021
19.037324256254351
19.705278402656226
20.506160995283167
21.238754581720755
21.981451423233921
23.279879490199271
23.967527599787715
25.253735753428927
26.087773108328300
26.525307645075241
27.182456186691635
28.575897561056429
29.121690289914856
29.617134054638594
31.213327791317276
31.766403641909260
32.506297915526808
33.256946563007439
33.264029923643470
30.292968679262842
27.982230354368859
26.494179086291656
26.513229212526198
28.402536260179495
30.744556335811168
33.805554979406146
33.775549819202560
34.482315888188879
34.057267302764544
33.799101050636210
32.775086791169088
32.693368048196874
23.648425420944985
20.236648957021345
16.607910642766271
13.219192400229721
10.087457859269364
32.286646718800782
31.813475251610313
6.937272770530312
25.369389515605111
25.414078408958751
4.335062877371972
22.028238621034127
21.994390880064120
18.485549924686090
18.334607676003056
14.759041868354453
15.026471969487929
30.780857184206365
27.573348945278575
24.103062078589879
23.623271269625665
30.176830800057019
27.040484156807757
11.665969907405275
11.983830599721561
20.276061519034176
20.105821670675475
8.790773854891325
8.892737801051075
16.625616911553490
16.575369832606707
2.560499331120669
33.037132566972545
31.564290291562454
5.719942342416165
5.448982015973584
2.802917552736579
13.586244586242019
13.524329339273137
33.077804419362792
32.257516202782654
26.125762598057559
22.312514368391287
25.944011914617004
10.415377212283138
10.269348323225769
25.817675728051700
31.103375748250659
18.877203484861102
29.014921044263819
24.798633182431129
31.776008144248078
7.459131301216568
7.300704773007374
26.146463928222804
22.791505069947323
26.399194261470672
31.175523650979397
30.761209616093542
28.785628914488193
22.649677443455797
33.449650652354741
21.489227524647692
21.376642294146759
15.512939013509280
3.654065753840645
4.260697226222902
24.620325765068710
23.175455234757209
19.097040428962380
19.018200007714881
22.973820900398934
21.225220518430756
32.883958440440665
24.958639115781850
20.750006236642388
24.363289313868162
12.032634230937056
17.967310994120822
17.810035097851099
19.568388193009543
19.403631072930462
24.359874174208237
17.584652442303138
15.606846613246065
15.468098910566793
29.598202631066805
8.882491524513501
14.522123592017556
14.256331049649845
17.195042877276720
1.622887327211179
16.001449108850377
15.984620990603418
29.516872852981887
27.610522397297270
1.758000967069305
12.237724922846722
12.398999932999905
14.202407418390926
28.182415496986636
11.123896860043061
11.210349222003162
26.886337633122949
6.009805968304264
31.077271405951969
14.297035004789098
29.566978511271120
27.938222396680171
32.349184389687672
25.075211509753107
26.996678920390409
29.991310175996315
1.611497114527811
4.888178749823277
12.536218306153165
12.745521564022944
23.824022233353777
31.489906175992445
23.476312402167061
30.858985619828708
20.976905577365642
30.786618238597491
9.489450557250347
9.365397951298764
11.374623808274247
20.550213061976972
20.357216745202823
26.391999276359503
3.277904436677357
10.890901800464530
26.216917429142015
6.511005444718830
6.006097722383049
2.975225150589094
8.129240190191236
8.035035574660686
9.377845835439423
9.652717302438715
32.552323597238221
17.275803060125938
22.137633553744774
26.238625411870125
8.238555021731493
24.645299955447722
31.218144980837359
33.429757439307224
31.935660660868948
33.812980574490261
26.467882296840163
3.484466921123330
5.213385753258611
21.686212103391963
21.697272370354966
32.402674013231618
20.533678229581845
8.051204926035208
33.740885888141612
16.760487239332349
16.669308811455636
32.652453076501743
31.971125802093482
6.441964650714398
6.243332437217928
33.773021426075289
33.101991129064032
31.313190059782261
26.104295426122523
31.778910730640504
32.789369358383688
4.629992992909390
18.084913435320772
5.340657519389120
13.604268323551564
13.713980726719535
25.225774531593949
32.727523516392310
21.303685796796437
14.134503546067066
25.792528204932395
1.558020083987846
25.922482149325365
25.449150831583378
23.650342718513127
18.500162310644445
18.251752446273812
22.976386275081470
16.569343654185626
3.672088819341632
23.697631182071973
25.876128733656440
30.984537605599908
22.978319502371576
23.283662697255188
22.471238936677327
25.403638314187930
25.781664963514476
2.387303887245173
19.529864693050708
19.542991856465292
19.822107013788141
19.605780603807229
10.816435620257991
10.430278962780687
10.821594827170221
21.946267624491639
25.614911736168072
14.632435740484334
20.004064400983939
31.770346949416865
22.100346397341696
23.934166802417234
17.640516899974752
22.399840978145377
13.347288337675156
24.298125877348191
20.943407108301582
15.076334051286073
15.172018419382924
19.454529531670520
18.834336665398943
26.427676580233349
28.646280054998705
28.251087563740857
24.418374869414023
26.834313453835680
7.033189933044157
6.849478439962443
31.399269418358323
5.426235597839576
30.248267762454653
22.919251904246821
18.349712021556329
18.406483734437987
25.865776657277870
11.350628253172362
28.551077801572283
14.251494242095511
18.825052259291951
22.463884233063936
8.041747027525899
32.931442360262785
25.292378296713707
24.905558222121531
16.042319536625232
15.944550026243595
30.752907713555484
22.623674716286072
29.666914605307209
3.524425779163582
30.613367702569789
3.794646210826018
32.281801026015408
24.263594203251614
16.407609806001968
26.450042763259113
31.241396897855338
27.026331868091496
26.516493377900158
21.305477155103350
21.080864336930169
10.285306941855165
33.326001676489774
30.190709327556561
4.524110452061433
27.974389253654177
11.651733040602208
11.822478745629178
17.437398011530490
27.704421742837869
24.886048464670331
16.173398977910622
5.077036424517207
29.514789066210056
30.681224719456200
17.403163336974160
17.599408834762574
21.468992402419026
27.254684529601864
2.217742899275396
8.622950638398011
8.706746756000145
33.944891243696190
16.026446601704158
16.086902085639409
15.422531041837455
33.160849905464744
15.131626585737243
15.020443603329250
19.306642821441294
19.046846731196805
25.466153147853440
20.873210810600959
23.997763735064602
12.940704154752108
12.929600933716943
22.532959930965770
0.898583972604447
30.134665063503220
23.029058414393759
5.406055080332213
7.251481205177480
30.531584987690557
11.011248985741554
33.161798830612526
24.703026941950707
31.996347695990153
28.776329789319387
25.953797482402560
24.244547532164553
19.939794831482615
19.805733188002758
21.752229761601559
12.595799662032386
12.437232205409304
8.543812876613146
20.767480124884273
15.397474709940067
30.319918928125634
3.020927379501104
13.397536722761920
33.349494864225782
32.126352367061592
28.919900628606342
24.449268390413010
23.509779424009885
31.334297074514343
25.362503988725006
2.040271135230839
24.309054126164835
23.784939575752734
21.774982801824233
13.662423624051291
4.141659704710952
17.935869469661782
12.683820430784689
28.822697914200681
29.640190801305309
30.093835512451182
18.842798149971266
28.726227229822808
19.201405271901532
11.919356605051949
16.337263157532288
16.170881200633151
11.819241695537739
11.814762579513179
0.871864285723446
2.195001461250643
17.116159531646520
17.171482256252872
19.479225997156821
32.270103384488799
20.494546399103687
31.521146542536233
9.565653937840555
9.341813959316564
21.398172756108309
33.939559143489610
33.067352293522639
19.963788187176476
20.688132588615996
23.217106012759686
8.171213115078322
18.273373666619978
12.072984857726215
10.188302242632751
4.611337527671530
25.021401729796839
28.042202597179017
1.327015411200374
14.520333128022422
14.634518782841148
20.435032379873380
1.681591413799817
23.413870113108374
32.499404128886518
31.621363505957650
27.133376528397935
18.061032507066169
9.452164437597146
27.346592430415946
32.747846273829374
27.548853048264018
22.799887199277464
25.891105103371757
10.706048888419355
9.883731565420350
9.987569098332223
9.220436016098324
8.631936299000330
8.558059270380834
21.769745584928391
23.554955062652805
2.295585594034188
0.575632383664418
31.032641589005905
27.724232950477525
13.862206251257067
26.422489964596402
6.520515207063283
6.827351436651373
26.238360112049346
24.763708516710249
25.323784418274368
7.603420579243640
7.678592403147342
17.075879261654258
4.151875862595264
17.814275221700854
7.181773502046331
0.811205829238997
15.404015123860844
15.390374941854027
15.955377025071822
33.674538885590074
17.101117892080026
26.948471481111675
1.964607744111657
31.763411087128066
31.483819676916351
26.083972984560262
26.475337270182770
32.523794681529822
11.174767172033933
11.430053964109879
14.509387777356380
30.062653372921410
16.480230808918819
19.995515312987465
28.160226662351455
22.409872917729999
13.127945291804110
13.027712289448969
28.434207298252030
13.701026286259376
27.129613763524720
31.170957989574941
16.913585885246654
14.804504622922229
18.866081983401585
18.795903594390094
20.477224521874884
7.607298197798905
32.596329546419653
27.201784351116512
20.711125108062667
20.625092738764859
23.739511763321708
31.871746794192465
5.990506346055266
29.255011733108955
3.881177711777355
30.850619767686634
