# vtk DataFile Version 3.0
    
ASCII
DATASET UNSTRUCTURED_GRID
POINTS 526 float
0 0 0
1.5 0 0
5 0 0
5 1 0
1.5 1 0
0 1 0
0.6 0.5 0
0.8 0.5 0
0 0.7 0
0 0.3 0
0.1 0 0
0.2 0 0
0.3 0 0
0.4 0 0
0.5 0 0
0.6 0 0
0.7 0 0
0.8 0 0
0.9 0 0
1 0 0
1.1 0 0
1.2 0 0
1.3 0 0
1.4 0 0
1.5984 0 0
1.69956 0 0
1.80357 0 0
1.91051 0 0
2.02044 0 0
2.13347 0 0
2.24968 0 0
2.36916 0 0
2.49199 0 0
2.61828 0 0
2.74812 0 0
2.8816 0 0
3.01884 0 0
3.15994 0 0
3.30501 0 0
3.45415 0 0
3.60749 0 0
3.76514 0 0
3.92722 0 0
4.09385 0 0
4.26518 0 0
4.44131 0 0
4.6224 0 0
4.80858 0 0
5 0.2 0
5 0.4 0
5 0.6 0
5 0.8 0
4.80858 1 0
4.6224 1 0
4.44131 1 0
4.26518 1 0
4.09385 1 0
3.92722 1 0
3.76514 1 0
3.60749 1 0
3.45415 1 0
3.30501 1 0
3.15994 1 0
3.01884 1 0
2.8816 1 0
2.74812 1 0
2.61828 1 0
2.49199 1 0
2.36916 1 0
2.24968 1 0
2.13347 1 0
2.02044 1 0
1.91051 1 0
1.80357 1 0
1.69956 1 0
1.5984 1 0
1.4 1 0
1.3 1 0
1.2 1 0
1.1 1 0
1 1 0
0.9 1 0
0.8 1 0
0.7 1 0
0.6 1 0
0.5 1 0
0.4 1 0
0.3 1 0
0.2 1 0
0.1 1 0
0.629289 0.429289 0
0.7 0.4 0
0.770711 0.429289 0
0.770711 0.570711 0
0.7 0.6 0
0.629289 0.570711 0
0 0.9 0
0 0.8 0
0 0.6 0
0 0.5 0
0 0.4 0
0 0.2 0
0 0.1 0
1.2986 0.498108 0
1.79939 0.500465 0
2.30343 0.491251 0
2.81671 0.477713 0
0.337838 0.345049 0
0.33978 0.617224 0
3.31781 0.509336 0
1.03761 0.632887 0
1.04183 0.357652 0
3.80803 0.5 0
1.54422 0.693331 0
1.55268 0.310468 0
4.27911 0.50419 0
2.05142 0.687753 0
2.05386 0.317132 0
0.518379 0.228578 0
1.27363 0.74255 0
1.27667 0.244274 0
0.523565 0.772983 0
0.801786 0.769924 0
0.800974 0.230813 0
2.55451 0.690565 0
2.52694 0.319616 0
1.79215 0.750069 0
1.79259 0.245488 0
3.05619 0.311105 0
3.02905 0.6794 0
2.29236 0.734717 0
2.30581 0.256416 0
0.194101 0.507028 0
0.419638 0.492341 0
3.53844 0.708061 0
3.54375 0.281746 0
0.196179 0.809317 0
0.190776 0.186786 0
1.51382 0.493343 0
2.79946 0.752591 0
2.79946 0.247409 0
0.971807 0.827166 0
0.971831 0.172962 0
4.65228 0.355556 0
0.952432 0.500582 0
4.0631 0.304799 0
4.05903 0.688209 0
0.366523 0.811783 0
0.362653 0.186121 0
4.57093 0.686248 0
1.98466 0.49244 0
0.491035 0.621293 0
1.1274 0.500796 0
0.657328 0.254533 0
0.898047 0.654131 0
0.898047 0.345869 0
0.65301 0.745358 0
1.42309 0.828699 0
1.42309 0.171301 0
3.30122 0.233003 0
3.30057 0.77179 0
0.500338 0.37914 0
0.157052 0.34662 0
1.64263 0.834224 0
1.64811 0.157709 0
1.39326 0.638348 0
1.39424 0.369489 0
0.171492 0.64832 0
1.9446 0.841231 0
1.9446 0.158769 0
1.15328 0.853087 0
1.1533 0.146973 0
2.52877 0.502704 0
3.80326 0.746235 0
3.78507 0.246563 0
1.64864 0.560947 0
1.68507 0.387099 0
1.21144 0.366782 0
1.19402 0.632266 0
1.89792 0.628235 0
1.90209 0.361465 0
4.35614 0.254554 0
2.12655 0.833069 0
2.13385 0.171681 0
4.30765 0.761339 0
2.14838 0.553906 0
0.60839 0.879301 0
0.605625 0.123931 0
3.00255 0.5 0
2.45078 0.169359 0
2.45078 0.830641 0
2.19506 0.373669 0
0.773312 0.68526 0
0.775017 0.318894 0
2.39666 0.620831 0
2.40182 0.37089 0
0.735246 0.121072 0
2.64697 0.830644 0
2.63968 0.167176 0
0.74076 0.876905 0
0.587467 0.672055 0
3.49087 0.523799 0
0.299248 0.527057 0
0.421642 0.278168 0
0.453187 0.123946 0
0.456738 0.876046 0
2.95609 0.165328 0
2.95609 0.834672 0
0.611496 0.318202 0
2.63114 0.568172 0
1.31584 0.878524 0
1.31584 0.121476 0
0.890947 0.879268 0
0.890947 0.120732 0
0.428485 0.727276 0
1.68543 0.670228 0
1.7522 0.8491 0
1.75726 0.140305 0
2.70179 0.376397 0
1.12978 0.26673 0
1.11648 0.737548 0
4.79118 0.554936 0
2.90437 0.629002 0
2.90437 0.370998 0
0.888594 0.429569 0
0.888594 0.570625 0
4.00224 0.497302 0
3.15988 0.167106 0
3.15525 0.834809 0
0.272822 0.888897 0
0.115526 0.884474 0
1.5393 0.892423 0
1.54989 0.115078 0
0.269719 0.109175 0
0.506293 0.52837 0
4.76874 0.769104 0
0.113399 0.576684 0
0.115951 0.421529 0
1.58379 0.415532 0
3.1432 0.451735 0
0.105599 0.738176 0
3.45306 0.827352 0
3.45306 0.172648 0
0.11332 0.11332 0
1.77228 0.625201 0
2.20361 0.666359 0
0.281868 0.438958 0
0.0963802 0.262222 0
0.400938 0.402605 0
0.924309 0.738869 0
0.924312 0.261146 0
3.20291 0.592884 0
0.285822 0.747602 0
4.18567 0.166172 0
0.408562 0.592487 0
2.30604 0.913259 0
2.30604 0.0867405 0
4.51169 0.16947 0
3.68343 0.845608 0
3.66433 0.156119 0
4.79829 0.203104 0
0.277971 0.251586 0
3.42936 0.390364 0
3.40895 0.625374 0
0.968603 0.593207 0
0.968603 0.406793 0
1.65283 0.283878 0
1.06094 0.901609 0
1.06094 0.0983908 0
4.48303 0.491408 0
3.95646 0.828603 0
3.94305 0.18254 0
2.09285 0.432697 0
1.04346 0.453275 0
3.65848 0.548046 0
1.29465 0.604305 0
1.30086 0.409572 0
0.531466 0.449419 0
1.37209 0.732932 0
1.37257 0.266443 0
1.0467 0.547907 0
2.05283 0.894557 0
2.05336 0.105789 0
1.40077 0.534508 0
4.17385 0.835315 0
1.49587 0.604914 0
3.71992 0.385918 0
2.67222 0.725708 0
4.45588 0.806091 0
2.29205 0.618092 0
1.03037 0.724045 0
1.00382 0.274296 0
2.82165 0.118398 0
2.82165 0.881602 0
1.85385 0.910497 0
1.85457 0.0879892 0
3.90606 0.628551 0
3.89238 0.358167 0
1.90404 0.740189 0
1.89941 0.262369 0
1.53748 0.782215 0
1.51735 0.22548 0
4.22562 0.339346 0
1.80094 0.350927 0
1.49102 0.391485 0
0.362558 0.906558 0
0.360697 0.092304 0
0.249442 0.601582 0
4.12933 0.560917 0
1.22501 0.914282 0
1.22502 0.0857277 0
1.70906 0.486213 0
1.20974 0.546495 0
2.14501 0.271982 0
2.55266 0.900735 0
2.55162 0.098954 0
2.59749 0.420791 0
1.8974 0.531574 0
0.822128 0.624414 0
0.822371 0.376207 0
0.696426 0.328603 0
1.45 0.0792071 0
1.45 0.920793 0
0.678679 0.670161 0
1.99641 0.601936 0
0.0780979 0.652636 0
0.568484 0.587696 0
0.53193 0.924855 0
4.3889 0.647922 0
0.733402 0.799104 0
4.82954 0.382516 0
0.731913 0.20065 0
3.17148 0.298877 0
0.444595 0.798833 0
0.443748 0.202754 0
2.0232 0.774905 0
2.02794 0.229437 0
0.972712 0.915031 0
0.972712 0.0849693 0
2.77673 0.593807 0
1.20787 0.455329 0
1.12467 0.411608 0
0.529199 0.0755813 0
1.98524 0.397799 0
0.849743 0.714141 0
0.849933 0.28678 0
1.65288 0.923667 0
1.66218 0.0768202 0
0.593189 0.201256 0
0.239151 0.345433 0
1.08055 0.209651 0
0.594614 0.799507 0
0.0738765 0.346074 0
3.26349 0.105125 0
3.26273 0.895833 0
1.0835 0.803585 0
4.47679 0.334351 0
1.1216 0.587753 0
0.812701 0.0808942 0
2.40947 0.265563 0
2.41275 0.724172 0
1.461 0.713407 0
1.45926 0.296851 0
0.202055 0.419856 0
2.29364 0.36225 0
4.62463 0.849121 0
1.62139 0.731328 0
0.511302 0.696916 0
2.18557 0.0899525 0
2.18427 0.910897 0
0.815436 0.920796 0
1.70774 0.753785 0
1.3672 0.453368 0
0.520482 0.312395 0
1.24679 0.828424 0
1.24341 0.171591 0
2.66641 0.280986 0
0.194047 0.915705 0
2.20961 0.465453 0
1.95645 0.929257 0
1.9567 0.0705094 0
0.354313 0.456491 0
0.676371 0.0789546 0
0.463441 0.435143 0
0.572362 0.38072 0
2.41706 0.515437 0
0.191431 0.0832567 0
3.09094 0.583703 0
1.5716 0.555406 0
3.83249 0.882701 0
3.83249 0.117299 0
1.85216 0.815763 0
1.84969 0.178984 0
1.70538 0.22015 0
1.14785 0.0662182 0
1.14785 0.933796 0
3.69223 0.691077 0
0.20875 0.723907 0
0.677773 0.920978 0
2.49329 0.603392 0
2.54685 0.793339 0
2.54377 0.211907 0
0.523888 0.159341 0
1.19405 0.706051 0
1.20862 0.290199 0
1.29407 0.32446 0
1.32035 0.678642 0
3.2944 0.358236 0
0.526639 0.841921 0
3.05265 0.106314 0
3.05183 0.894444 0
1.60796 0.636167 0
0.185339 0.274609 0
0.666612 0.163399 0
0.182108 0.583403 0
2.91565 0.267017 0
2.90711 0.737651 0
0.641914 0.371363 0
0.0787896 0.813481 0
4.34064 0.883698 0
0.970094 0.666463 0
0.968068 0.334064 0
0.350026 0.265231 0
2.49474 0.418929 0
2.23825 0.195368 0
2.22701 0.802216 0
2.43057 0.925251 0
2.43057 0.074749 0
1.97371 0.313641 0
1.9746 0.686604 0
0.667992 0.836859 0
1.61859 0.349244 0
1.72931 0.302061 0
4.35279 0.110495 0
2.12268 0.736659 0
4.13315 0.438262 0
0.0757557 0.181625 0
1.86908 0.446192 0
2.79861 0.352605 0
0.351799 0.705383 0
1.73237 0.557692 0
1.83333 0.67899 0
1.37779 0.925603 0
1.37779 0.0743968 0
3.54951 0.896466 0
3.54951 0.103534 0
3.37785 0.0873407 0
3.37785 0.912659 0
3.58687 0.407336 0
2.72041 0.464914 0
4.21354 0.671438 0
3.16133 0.699916 0
2.68509 0.0840739 0
2.68506 0.918444 0
0.424663 0.655947 0
0.732756 0.267201 0
1.7707 0.432349 0
0.264492 0.675775 0
2.06436 0.550579 0
4.36414 0.38477 0
4.67395 0.130442 0
1.33616 0.798964 0
1.33616 0.201036 0
0.728038 0.733961 0
0.291821 0.81889 0
4.87292 0.677971 0
2.90148 0.527913 0
4.6441 0.560853 0
1.62646 0.487089 0
3.78322 0.619241 0
0.752482 0.626703 0
0.752482 0.373297 0
0.874959 0.801081 0
0.874289 0.199339 0
3.00274 0.397992 0
0.289317 0.177637 0
0.809548 0.84118 0
0.863473 0.500129 0
2.11555 0.63354 0
3.04783 0.20959 0
3.04559 0.785175 0
0.807678 0.158917 0
0.749971 0.0511189 0
0.448512 0.549413 0
4.88448 0.867574 0
1.13061 0.330751 0
0.826838 0.552447 0
0.826856 0.447631 0
0.0636864 0.936314 0
4.05816 0.123464 0
0.0619189 0.0619189 0
2.35468 0.818745 0
2.35682 0.174699 0
0.437728 0.346953 0
4.89854 0.104301 0
1.11415 0.66617 0
1.60103 0.225638 0
1.831 0.572711 0
2.12183 0.351681 0
3.40266 0.729187 0
3.40407 0.281171 0
2.72807 0.177926 0
2.73341 0.823994 0
0.450064 0.947997 0
2.99134 0.59077 0
0.573991 0.737364 0
2.95022 0.931473 0
2.95022 0.0685275 0
0.628812 0.625546 0
0.746794 0.943736 0
3.29904 0.654748 0
0.0705751 0.500873 0
2.23439 0.296934 0
0.449496 0.0525715 0
3.6615 0.275683 0
1.07447 0.288879 0
1.75819 0.695655 0
1.43738 0.451732 0
0.374103 0.536918 0
1.17681 0.783139 0
1.75217 0.940039 0
1.75433 0.0583009 0
2.23142 0.559012 0
1.17687 0.216671 0
1.25534 0.672763 0
0.580175 0.262993 0
CELLS 949 3796
3 221 330 50
3 254 108 518
3 467 235 149
3 50 330 49
3 221 235 467
3 108 202 518
3 194 399 360
3 404 405 177
3 360 130 289
3 125 195 359
3 405 276 177
3 105 195 385
3 107 246 349
3 194 360 289
3 399 124 360
3 168 298 335
3 169 336 299
3 175 440 215
3 105 364 195
3 335 298 429
3 336 428 299
3 124 287 400
3 220 290 495
3 386 12 233
3 132 202 307
3 246 363 349
3 197 400 287
3 109 251 239
3 110 495 290
3 125 423 195
3 115 328 450
3 87 377 229
3 56 270 284
3 11 12 386
3 365 54 288
3 132 246 202
3 215 440 244
3 84 327 186
3 109 262 201
3 109 201 263
3 157 361 300
3 158 301 362
3 398 84 186
3 382 187 15
3 187 342 15
3 105 378 364
3 107 203 493
3 29 368 282
3 70 281 369
3 53 54 365
3 134 444 241
3 135 242 445
3 107 248 381
3 172 209 399
3 87 88 377
3 150 437 343
3 134 263 201
3 124 399 209
3 172 316 209
3 124 400 360
3 125 359 401
3 132 236 511
3 220 355 290
3 56 57 270
3 132 511 237
3 107 381 246
3 107 493 248
3 4 231 75
3 1 24 232
3 191 364 378
3 195 423 385
3 134 258 444
3 135 445 259
3 245 425 434
3 153 320 208
3 48 330 260
3 77 309 210
3 22 211 310
3 163 216 346
3 164 347 217
3 40 41 259
3 58 59 258
3 134 201 274
3 192 323 470
3 157 278 361
3 158 362 279
3 18 213 358
3 148 306 204
3 6 326 234
3 118 373 203
3 147 205 305
3 422 148 203
3 52 365 235
3 148 334 203
3 141 212 472
3 142 473 213
3 41 390 259
3 58 258 389
3 239 251 387
3 107 422 203
3 124 209 287
3 151 326 200
3 75 231 346
3 24 347 232
3 184 450 328
3 48 49 330
3 173 296 270
3 174 271 297
3 148 204 334
3 147 333 205
3 103 283 275
3 165 275 283
3 89 230 377
3 183 282 368
3 182 369 281
3 163 231 300
3 81 370 212
3 6 277 90
3 157 442 210
3 158 211 443
3 163 371 216
3 108 307 202
3 52 53 365
3 8 240 97
3 139 416 293
3 140 292 415
3 130 425 245
3 121 214 367
3 192 463 323
3 164 496 232
3 123 193 455
3 232 496 301
3 207 293 416
3 206 415 292
3 144 477 224
3 144 225 477
3 127 299 303
3 172 385 423
3 28 29 282
3 70 71 281
3 146 270 296
3 145 297 271
3 156 200 323
3 174 297 286
3 201 262 448
3 133 383 234
3 132 307 414
3 112 286 297
3 150 317 437
3 81 212 337
3 18 338 213
3 135 448 262
3 122 463 192
3 208 320 417
3 138 238 468
3 175 215 411
3 126 216 371
3 115 450 308
3 185 272 378
3 154 225 264
3 155 265 224
3 6 234 277
3 180 303 299
3 100 237 511
3 144 224 265
3 144 264 225
3 185 458 272
3 6 95 326
3 122 192 344
3 123 345 193
3 136 230 418
3 10 386 243
3 156 505 200
3 141 337 212
3 142 213 338
3 190 360 400
3 189 401 359
3 182 434 425
3 157 210 461
3 158 462 211
3 151 200 367
3 77 210 442
3 22 443 211
3 138 468 388
3 234 383 277
3 176 468 238
3 45 46 257
3 118 203 334
3 130 245 289
3 37 353 227
3 62 228 354
3 99 100 511
3 141 472 249
3 142 250 473
3 125 376 316
3 136 418 240
3 121 333 214
3 136 377 230
3 218 376 438
3 88 89 377
3 105 385 289
3 9 101 247
3 160 241 447
3 159 446 242
3 143 257 460
3 112 274 286
3 137 436 243
3 136 229 377
3 87 229 305
3 164 217 393
3 180 343 437
3 163 346 231
3 164 232 347
3 140 438 376
3 223 415 474
3 146 284 270
3 218 316 376
3 209 449 339
3 152 312 357
3 194 289 385
3 165 283 285
3 143 460 260
3 106 223 466
3 137 247 436
3 138 285 283
3 145 253 302
3 97 240 418
3 126 391 216
3 127 217 392
3 147 439 214
3 153 208 525
3 96 418 230
3 112 226 296
3 112 297 226
3 127 393 217
3 114 238 304
3 176 311 468
3 129 416 222
3 19 20 268
3 79 80 267
3 154 318 225
3 155 224 319
3 128 479 332
3 55 56 284
3 45 257 433
3 106 438 223
3 144 280 264
3 68 69 255
3 30 31 256
3 147 214 333
3 111 273 265
3 154 420 249
3 155 250 421
3 139 339 222
3 159 353 446
3 160 447 354
3 474 415 128
3 10 11 386
3 227 332 479
3 147 305 464
3 137 386 233
3 43 44 253
3 55 284 419
3 12 306 233
3 90 277 384
3 144 273 280
3 137 243 386
3 17 18 358
3 181 302 253
3 188 466 223
3 145 226 297
3 146 296 226
3 143 221 467
3 160 499 241
3 159 242 500
3 173 389 258
3 174 259 390
3 185 522 245
3 106 449 438
3 113 285 411
3 144 265 273
3 157 300 231
3 158 232 301
3 73 520 294
3 26 295 521
3 159 332 227
3 132 237 363
3 37 227 409
3 62 410 228
3 215 244 516
3 106 339 449
3 188 223 474
3 129 222 504
3 229 464 305
3 221 465 235
3 143 330 221
3 110 264 280
3 181 433 257
3 98 511 236
3 216 520 346
3 217 347 521
3 197 287 502
3 146 226 308
3 285 388 411
3 167 325 236
3 167 397 240
3 148 475 306
3 162 363 237
3 50 465 221
3 77 78 309
3 21 22 310
3 136 240 397
3 138 304 238
3 167 240 325
3 218 438 449
3 139 222 416
3 203 373 493
3 188 474 239
3 183 313 336
3 103 340 276
3 163 300 366
3 149 288 328
3 128 239 474
3 216 294 520
3 217 521 295
3 96 230 488
3 89 488 230
3 188 239 387
3 274 448 286
3 72 73 294
3 26 27 295
3 102 243 436
3 115 308 435
3 108 454 439
3 118 334 402
3 115 435 302
3 162 237 352
3 81 82 370
3 4 322 231
3 1 232 321
3 233 306 475
3 184 328 288
3 178 357 312
3 94 470 323
3 161 373 384
3 149 235 365
3 141 249 290
3 142 291 250
3 157 231 322
3 158 321 232
3 202 246 381
3 117 336 313
3 121 408 333
3 136 464 229
3 204 402 334
3 145 489 253
3 52 235 484
3 208 384 373
3 214 454 367
3 37 38 353
3 61 62 354
3 162 352 247
3 245 522 289
3 472 122 344
3 473 345 123
3 114 362 301
3 113 300 361
3 160 228 451
3 86 87 305
3 152 280 273
3 120 405 404
3 142 268 350
3 19 268 338
3 80 337 267
3 209 316 449
3 137 233 475
3 205 333 408
3 159 227 353
3 160 354 228
3 100 352 237
3 30 256 368
3 69 369 255
3 157 322 442
3 158 443 321
3 96 97 418
3 151 234 326
3 179 317 324
3 154 249 344
3 155 345 250
3 184 419 284
3 150 272 458
3 141 355 267
3 133 234 483
3 129 480 416
3 128 415 479
3 249 472 344
3 250 345 473
3 209 339 287
3 137 261 412
3 145 271 489
3 177 276 340
3 141 290 355
3 132 414 236
3 108 254 454
3 145 435 226
3 185 245 478
3 199 398 430
3 128 332 239
3 142 350 291
3 18 19 338
3 80 81 337
3 250 291 421
3 249 420 290
3 141 267 337
3 142 338 268
3 191 378 272
3 116 335 429
3 152 341 340
3 98 99 511
3 313 424 512
3 98 236 325
3 171 350 268
3 178 312 275
3 151 483 234
3 167 236 414
3 117 428 336
3 150 324 317
3 9 247 352
3 10 243 490
3 102 490 243
3 115 459 269
3 134 241 499
3 135 500 242
3 170 267 355
3 8 325 240
3 12 13 306
3 101 436 247
3 68 255 426
3 31 427 256
3 109 239 407
3 256 427 492
3 255 491 426
3 44 433 253
3 181 253 433
3 139 502 287
3 34 35 292
3 64 65 293
3 114 431 238
3 151 367 454
3 181 257 356
3 103 275 312
3 42 489 271
3 147 252 439
3 183 424 313
3 149 328 269
3 152 273 341
3 214 439 454
3 133 248 383
3 152 357 280
3 60 447 444
3 39 445 446
3 241 444 447
3 242 446 445
3 176 238 431
3 162 349 363
3 207 506 293
3 206 292 507
3 134 396 258
3 114 304 362
3 143 260 330
3 148 422 261
3 162 247 412
3 151 254 483
3 107 349 261
3 137 412 247
3 133 381 248
3 303 437 456
3 131 359 364
3 115 269 328
3 101 102 436
3 47 260 460
3 291 350 515
3 180 437 303
3 134 499 263
3 135 262 500
3 129 387 451
3 132 363 246
3 251 510 451
3 139 287 339
3 36 37 409
3 62 63 410
3 106 466 339
3 111 341 273
3 261 349 412
3 43 253 489
3 195 364 359
3 135 259 514
3 42 43 489
3 156 351 505
3 143 356 257
3 32 33 315
3 66 67 314
3 196 413 382
3 173 258 396
3 117 272 343
3 192 318 344
3 193 345 319
3 140 376 501
3 186 430 398
3 510 160 451
3 136 252 464
3 251 451 387
3 109 510 251
3 222 339 466
3 500 407 159
3 216 391 294
3 217 295 392
3 182 281 335
3 183 336 282
3 113 411 366
3 137 475 261
3 123 455 331
3 150 343 272
3 262 407 500
3 235 465 484
3 109 263 510
3 143 467 269
3 107 261 422
3 177 340 341
3 83 84 398
3 204 306 513
3 154 344 318
3 155 319 345
3 215 366 411
3 157 461 278
3 158 279 462
3 33 452 315
3 66 314 453
3 496 164 393
3 103 312 340
3 51 484 465
3 47 494 260
3 59 444 258
3 40 259 445
3 34 292 452
3 65 453 293
3 165 285 361
3 116 324 478
3 170 395 267
3 171 268 394
3 266 496 393
3 113 361 285
3 161 493 373
3 200 326 508
3 189 492 427
3 190 426 491
3 156 323 463
3 178 403 495
3 114 496 266
3 143 269 356
3 42 271 390
3 57 389 270
3 151 454 254
3 324 458 478
3 168 335 281
3 169 282 336
3 15 16 382
3 1 321 23
3 4 76 322
3 136 397 252
3 110 420 264
3 111 265 421
3 109 407 262
3 166 362 304
3 201 448 274
3 79 267 395
3 20 394 268
3 122 329 463
3 14 15 342
3 269 459 356
3 147 464 252
3 35 507 292
3 64 293 506
3 187 382 413
3 198 315 452
3 197 453 314
3 177 485 404
3 110 280 357
3 205 503 305
3 84 85 327
3 207 416 480
3 206 479 415
3 103 276 372
3 166 372 276
3 8 98 325
3 174 514 259
3 108 439 457
3 213 473 481
3 46 460 257
3 211 462 375
3 210 374 461
3 153 525 348
3 165 361 278
3 166 279 362
3 225 318 486
3 224 487 319
3 173 270 389
3 174 390 271
3 76 77 442
3 22 23 443
3 148 261 475
3 120 404 523
3 161 383 493
3 46 47 460
3 48 260 494
3 119 519 403
3 114 266 431
3 74 75 346
3 24 25 347
3 252 457 439
3 149 365 288
3 220 495 403
3 71 379 281
3 28 282 380
3 131 512 424
3 113 366 300
3 161 384 277
3 255 369 425
3 256 424 368
3 41 42 390
3 57 58 389
3 248 493 383
3 199 430 329
3 134 274 396
3 176 431 266
3 178 275 524
3 219 404 485
3 119 374 519
3 120 523 375
3 210 309 374
3 211 375 310
3 198 376 401
3 176 266 432
3 165 406 275
3 152 340 312
3 202 381 518
3 27 28 380
3 71 72 379
3 168 281 379
3 169 380 282
3 9 352 100
3 103 372 283
3 166 276 405
3 154 264 420
3 155 421 265
3 146 450 284
3 125 401 376
3 166 405 279
3 165 278 406
3 94 508 95
3 161 277 383
3 117 498 272
3 213 481 358
3 190 314 426
3 189 427 315
3 149 269 467
3 120 375 462
3 119 461 374
3 239 332 407
3 29 30 368
3 69 70 369
3 120 279 405
3 119 406 278
3 110 290 420
3 111 421 291
3 293 453 502
3 292 501 452
3 166 304 517
3 112 469 274
3 67 426 314
3 32 315 427
3 194 385 399
3 138 388 285
3 205 327 503
3 50 51 465
3 59 60 444
3 39 40 445
3 218 449 316
3 179 441 497
3 184 284 450
3 114 301 496
3 95 508 326
3 244 497 441
3 191 272 498
3 168 294 391
3 169 392 295
3 72 294 379
3 27 380 295
3 172 399 385
3 514 448 135
3 168 391 298
3 169 299 392
3 74 346 520
3 25 521 347
3 168 379 294
3 169 295 380
3 54 419 288
3 94 323 508
3 126 298 391
3 127 392 299
3 212 476 472
3 78 79 395
3 20 21 394
3 119 278 461
3 120 462 279
3 140 415 438
3 184 288 419
3 54 55 419
3 220 519 355
3 174 286 514
3 286 448 514
3 219 350 523
3 85 503 327
3 170 374 309
3 171 310 375
3 3 484 51
3 198 501 376
3 138 283 517
3 223 438 415
3 93 318 470
3 92 471 319
3 167 307 457
3 118 402 348
3 3 52 484
3 91 320 471
3 170 355 519
3 130 491 425
3 131 424 492
3 196 331 413
3 171 523 350
3 255 425 491
3 256 492 424
3 13 513 306
3 5 488 89
3 5 96 488
3 78 395 309
3 21 310 394
3 204 513 342
3 90 384 417
3 171 394 310
3 170 309 395
3 104 497 440
3 126 441 298
3 67 68 426
3 31 32 427
3 173 469 296
3 2 48 494
3 212 370 476
3 44 45 433
3 86 305 503
3 163 366 371
3 0 490 102
3 0 10 490
3 91 417 320
3 166 517 372
3 121 351 408
3 90 417 91
3 176 303 456
3 145 302 435
3 93 486 318
3 92 319 487
3 187 348 402
3 219 515 350
3 159 407 332
3 38 39 446
3 60 61 447
3 215 371 366
3 105 289 522
3 179 298 441
3 33 34 452
3 65 66 453
3 176 432 303
3 180 299 428
3 2 494 47
3 125 316 423
3 205 408 327
3 197 314 400
3 198 401 315
3 179 429 298
3 127 303 432
3 192 470 318
3 193 319 471
3 182 335 434
3 244 440 497
3 190 400 314
3 189 315 401
3 14 342 513
3 193 471 320
3 112 296 469
3 140 501 292
3 139 293 502
3 122 476 329
3 104 440 311
3 116 478 434
3 63 64 506
3 35 36 507
3 25 26 521
3 73 74 520
3 186 408 351
3 226 435 308
3 111 291 515
3 175 411 388
3 153 348 413
3 176 456 311
3 82 83 509
3 16 17 482
3 104 456 437
3 85 86 503
3 13 14 513
3 245 434 478
3 186 327 408
3 123 481 473
3 208 417 384
3 182 425 369
3 183 368 424
3 91 471 92
3 93 470 94
3 167 414 307
3 108 457 307
3 115 302 459
3 172 423 316
3 175 311 440
3 153 413 331
3 146 308 450
3 204 342 402
3 123 331 481
3 181 459 302
3 104 437 317
3 117 343 428
3 7 92 487
3 7 486 93
3 199 329 476
3 187 402 342
3 167 457 397
3 138 517 304
3 175 468 311
3 156 329 430
3 104 311 456
3 133 518 381
3 215 516 371
3 162 412 349
3 179 324 429
3 177 341 485
3 187 413 348
3 179 497 317
3 266 393 432
3 178 495 357
3 126 371 516
3 274 469 396
3 196 481 331
3 127 432 393
3 180 428 343
3 116 429 324
3 156 430 351
3 76 442 322
3 23 321 443
3 193 320 455
3 228 480 451
3 122 472 476
3 175 388 468
3 153 331 455
3 156 463 329
3 117 313 498
3 104 317 497
3 196 382 482
3 129 451 480
3 150 458 324
3 116 434 335
3 153 455 320
3 119 403 524
3 119 524 406
3 191 498 313
3 191 313 512
3 283 372 517
3 186 351 430
3 181 356 459
3 38 446 353
3 61 354 447
3 16 482 382
3 200 508 323
3 118 348 525
3 173 396 469
3 111 485 341
3 133 483 518
3 196 358 481
3 199 509 398
3 197 502 453
3 198 452 501
3 196 482 358
3 252 397 457
3 190 491 360
3 189 359 492
3 254 518 483
3 160 510 499
3 199 370 509
3 199 476 370
3 121 505 351
3 130 360 491
3 131 492 359
3 263 499 510
3 200 505 367
3 110 357 495
3 219 523 404
3 185 478 458
3 83 398 509
3 191 512 364
3 17 358 482
3 220 403 519
3 129 504 387
3 207 410 506
3 206 507 409
3 118 525 373
3 222 466 504
3 121 367 505
3 63 506 410
3 36 409 507
3 131 364 512
3 82 509 370
3 188 504 466
3 105 522 378
3 227 479 409
3 228 410 480
3 208 373 525
3 170 519 374
3 171 375 523
3 185 378 522
3 206 409 479
3 207 480 410
3 188 387 504
3 7 477 486
3 7 487 477
3 126 516 441
3 244 441 516
3 178 524 403
3 275 406 524
3 225 486 477
3 224 477 487
3 111 515 485
3 219 485 515
CELL_TYPES 949
5
5
5
5
5
5
5
5
5
5
5
5
5
5
5
5
5
5
5
5
5
5
5
5
5
5
5
5
5
5
5
5
5
5
5
5
5
5
5
5
5
5
5
5
5
5
5
5
5
5
5
5
5
5
5
5
5
5
5
5
5
5
5
5
5
5
5
5
5
5
5
5
5
5
5
5
5
5
5
5
5
5
5
5
5
5
5
5
5
5
5
5
5
5
5
5
5
5
5
5
5
5
5
5
5
5
5
5
5
5
5
5
5
5
5
5
5
5
5
5
5
5
5
5
5
5
5
5
5
5
5
5
5
5
5
5
5
5
5
5
5
5
5
5
5
5
5
5
5
5
5
5
5
5
5
5
5
5
5
5
5
5
5
5
5
5
5
5
5
5
5
5
5
5
5
5
5
5
5
5
5
5
5
5
5
5
5
5
5
5
5
5
5
5
5
5
5
5
5
5
5
5
5
5
5
5
5
5
5
5
5
5
5
5
5
5
5
5
5
5
5
5
5
5
5
5
5
5
5
5
5
5
5
5
5
5
5
5
5
5
5
5
5
5
5
5
5
5
5
5
5
5
5
5
5
5
5
5
5
5
5
5
5
5
5
5
5
5
5
5
5
5
5
5
5
5
5
5
5
5
5
5
5
5
5
5
5
5
5
5
5
5
5
5
5
5
5
5
5
5
5
5
5
5
5
5
5
5
5
5
5
5
5
5
5
5
5
5
5
5
5
5
5
5
5
5
5
5
5
5
5
5
5
5
5
5
5
5
5
5
5
5
5
5
5
5
5
5
5
5
5
5
5
5
5
5
5
5
5
5
5
5
5
5
5
5
5
5
5
5
5
5
5
5
5
5
5
5
5
5
5
5
5
5
5
5
5
5
5
5
5
5
5
5
5
5
5
5
5
5
5
5
5
5
5
5
5
5
5
5
5
5
5
5
5
5
5
5
5
5
5
5
5
5
5
5
5
5
5
5
5
5
5
5
5
5
5
5
5
5
5
5
5
5
5
5
5
5
5
5
5
5
5
5
5
5
5
5
5
5
5
5
5
5
5
5
5
5
5
5
5
5
5
5
5
5
5
5
5
5
5
5
5
5
5
5
5
5
5
5
5
5
5
5
5
5
5
5
5
5
5
5
5
5
5
5
5
5
5
5
5
5
5
5
5
5
5
5
5
5
5
5
5
5
5
5
5
5
5
5
5
5
5
5
5
5
5
5
5
5
5
5
5
5
5
5
5
5
5
5
5
5
5
5
5
5
5
5
5
5
5
5
5
5
5
5
5
5
5
5
5
5
5
5
5
5
5
5
5
5
5
5
5
5
5
5
5
5
5
5
5
5
5
5
5
5
5
5
5
5
5
5
5
5
5
5
5
5
5
5
5
5
5
5
5
5
5
5
5
5
5
5
5
5
5
5
5
5
5
5
5
5
5
5
5
5
5
5
5
5
5
5
5
5
5
5
5
5
5
5
5
5
5
5
5
5
5
5
5
5
5
5
5
5
5
5
5
5
5
5
5
5
5
5
5
5
5
5
5
5
5
5
5
5
5
5
5
5
5
5
5
5
5
5
5
5
5
5
5
5
5
5
5
5
5
5
5
5
5
5
5
5
5
5
5
5
5
5
5
5
5
5
5
5
5
5
5
5
5
5
5
5
5
5
5
5
5
5
5
5
5
5
5
5
5
5
5
5
5
5
5
5
5
5
5
5
5
5
5
5
5
5
5
5
5
5
5
5
5
5
5
5
5
5
5
5
5
5
5
5
5
5
5
5
5
5
5
5
5
5
5
5
5
5
5
5
5
5
5
5
5
5
5
5
5
5
5
5
5
5
5
5
5
5
5
5
5
5
5
5
5
5
5
5
5
5
5
5
5
5
5
5
5
5
5
5
5
5
5
5
5
5
5
5
5
5
5
5
5
5
5
5
5
5
5
5
5
5
5
5
5
5
5
5
5
5
5
5
5
5
5
5
5
5
5
5
5
5
5
5
5
5
5
5
5
5
5
5
5
5
5
5
5
5
5
5
5
5
5
5
5
5
5
5
5
5
5
5
5
5
5
5
5
5
5
5
5
5
5
5
5
5
5
5
5
5
5
5
5
5
5
5
5
5
5
5
5
5
5
5
5
5
5
5
5
5
5
5
5
POINT_DATA 526
SCALARS scalars float 1
LOOKUP_TABLE default
-0.107404373332393
-0.066543776619719
0.002477641791023
0.001848636448976
-0.066529770441878
-0.107090990494249
-0.256849326552946
-0.029591034308499
-0.103213935469902
-0.103718038041643
-0.107043614261100
-0.108780644934408
-0.112135091507920
-0.122422426347425
-0.125855369757315
-0.060732205857121
-0.015151182639466
-0.027406460653681
-0.048902345024552
-0.057667056343092
-0.063781126040821
-0.065782696818867
-0.066842701231522
-0.066432318311123
-0.065720978771974
-0.064010782064567
-0.062765647345501
-0.061145505918929
-0.059446894159078
-0.057845160761299
-0.055710011673702
-0.053608926785826
-0.051482320685188
-0.049343553776153
-0.046786825344140
-0.044917328469411
-0.041376840269501
-0.039704386261296
-0.036775918903011
-0.033925400534073
-0.030817055111448
-0.027830037624041
-0.023668270485234
-0.019617873797008
-0.018719064214967
-0.013341976675747
-0.010661647871677
-0.005917625006476
0.000936083912635
0.000377525820751
0.001624047144556
0.001598109522189
-0.007319280402588
-0.012362812852422
-0.011299680425577
-0.019297928670353
-0.020995759628777
-0.024174315519561
-0.028286238696601
-0.030207995794447
-0.033554154963316
-0.036706086499662
-0.039597819111954
-0.041359512206172
-0.044995840997801
-0.046803876732532
-0.049450389810757
-0.051498342185818
-0.053612541177332
-0.055633160252068
-0.057875782090854
-0.059448480948419
-0.061243973407448
-0.062946031478047
-0.064025756800281
-0.065497240371216
-0.066295724791313
-0.066653582966108
-0.065639770009743
-0.063873339900059
-0.057713272067755
-0.048948683486741
-0.027359034794880
-0.016047086488908
-0.060205235482243
-0.124019690237550
-0.121028301023857
-0.111539013532286
-0.108301684444340
-0.106714553755193
-0.147867883235973
0.008471559397094
-0.008697838929435
-0.003851271892164
-0.004614328320185
-0.109371548678562
-0.106425967102184
-0.104966458462431
-0.102924672887218
-0.102057476073464
-0.103059121187624
-0.105506247528019
-0.106770622382675
-0.068077882599698
-0.062665711033907
-0.054317202352263
-0.044718678449681
-0.096410753883255
-0.094366503798194
-0.035385351607835
-0.060742026051782
-0.060839984105939
-0.026905147889563
-0.066793753526917
-0.066538165433120
-0.017489755848034
-0.058731999727197
-0.058560714088215
-0.129808151806701
-0.068022427616722
-0.068063210872153
-0.126537263663194
-0.019084302098884
-0.021949181983363
-0.050484558904095
-0.050987246425094
-0.063636832674921
-0.063405396092342
-0.041133835855337
-0.042183392396406
-0.054868950462248
-0.054665486100461
-0.095952869673603
-0.093665053013710
-0.032876795907483
-0.032885837807508
-0.104893611432511
-0.105290145022290
-0.065376002484810
-0.046316617364405
-0.046181410066790
-0.055394127731204
-0.055967086173785
-0.009059033535390
-0.053190438170637
-0.020289964803272
-0.020969661180493
-0.107058029977304
-0.107088354041934
-0.011299725020131
-0.059343782247078
-0.112644391798450
-0.066417296760864
-0.039168845829741
-0.045616137347627
-0.045001864874956
-0.035158306325492
-0.067082613709727
-0.067242068054613
-0.036482465667890
-0.036682240058822
-0.123610443062364
-0.098888320651551
-0.064960041024707
-0.064838161495558
-0.068010161099507
-0.067801862117475
-0.098569816974933
-0.060739957329350
-0.060744116070210
-0.065523984608368
-0.065926037801109
-0.050841441426989
-0.027133664523028
-0.026523494471515
-0.064818303566508
-0.065008681062392
-0.066547702395030
-0.066453693051239
-0.061611814713006
-0.061589655041856
-0.015832328336520
-0.057785458585461
-0.057713444678404
-0.016646901306783
-0.055919297559097
-0.062784847504035
-0.066217715793027
-0.043916294035043
-0.052191200072257
-0.052229921952554
-0.055895096735536
-0.013705433023117
-0.016797371167270
-0.053323251443193
-0.053174477453847
-0.015175458538615
-0.048663379680906
-0.048744810636763
-0.017560092178456
-0.136665322167459
-0.035570271167181
-0.094272035580717
-0.099829911802014
-0.122033310602992
-0.120493654870443
-0.042629401334695
-0.042668578149508
-0.109411322107683
-0.048980691446168
-0.066787393950151
-0.067003199773709
-0.045997480208939
-0.045015501963761
-0.103114015087016
-0.065287343961445
-0.063802632548344
-0.063517676544572
-0.047528421457115
-0.065542631476366
-0.065063913750992
-0.008165137341991
-0.043864987811943
-0.044199614026908
-0.040500661998896
-0.040159236582734
-0.022388319891922
-0.039349765575878
-0.039212241308237
-0.108866859044413
-0.105705080948180
-0.066435949282366
-0.066526393998747
-0.109424150195775
-0.095909276049368
-0.009880376514526
-0.098723143717078
-0.098508839126816
-0.065053597018424
-0.038109215358493
-0.101862913645509
-0.033699366823330
-0.034165523600606
-0.106054413816752
-0.063953867248885
-0.056103223079978
-0.095437672315741
-0.102001135309393
-0.093930677621832
-0.048561596226315
-0.048315024568529
-0.036773240355386
-0.102920215319239
-0.019357919831681
-0.090671275547874
-0.054795741551829
-0.054824135888289
-0.012617001950733
-0.029505873957539
-0.030275259447392
-0.006385246881989
-0.103719606428509
-0.036106640228379
-0.035650020557710
-0.056440915410633
-0.055900560290299
-0.065218173550804
-0.063182412753138
-0.062799261963386
-0.013360608625454
-0.023422168284713
-0.023547956676990
-0.056801213894853
-0.059799346536069
-0.028696520483264
-0.068515911229185
-0.068735319264454
-0.150899519224827
-0.067814098119005
-0.067940341775883
-0.060118443779855
-0.059134960216522
-0.059111226032451
-0.066838046966538
-0.020195700069549
-0.066868893905954
-0.027748288987853
-0.048249981118819
-0.011912433335440
-0.054594890998173
-0.060695383321772
-0.058236854724515
-0.046147025707319
-0.046187140535743
-0.062269595314238
-0.062090811673759
-0.024933831903754
-0.025017944611917
-0.061692928721387
-0.061784618616497
-0.066903676498951
-0.067310211246264
-0.017868643918025
-0.063348154783829
-0.067156741722789
-0.114783174642634
-0.115304060789331
-0.097440830134121
-0.018594329557995
-0.066258497534661
-0.066345389859537
-0.064180800367887
-0.065783498947872
-0.057254920063081
-0.050675704797624
-0.050642160387194
-0.049635996444226
-0.061026813726142
-0.025325365396291
-0.024801888169747
-0.006210876751318
-0.066702665953048
-0.066528316327453
-0.017518997985678
-0.059527370558204
-0.100893140952385
-0.179456669095333
-0.112184335315298
-0.014701019565130
-0.017955558984590
-0.006020317872380
-0.013752933155046
-0.038540844689761
-0.113448860402400
-0.114435150134407
-0.059603467961905
-0.059491490895550
-0.055712751712830
-0.055952777058471
-0.045831089626162
-0.065557958881373
-0.066200975025475
-0.114852865481755
-0.059748164041943
-0.033021688298596
-0.031385560187087
-0.064563524316622
-0.064428431870209
-0.091909668359982
-0.099297473392899
-0.063984379182396
-0.090006040026678
-0.101069297918253
-0.037600246658250
-0.037661866863313
-0.064422615607510
-0.013684619039613
-0.066305638605890
-0.030872019676796
-0.052955795422608
-0.053003255003263
-0.067455530776240
-0.067924728823674
-0.096769947877391
-0.054623401216408
-0.011987897256744
-0.065576692968010
-0.126827296786843
-0.056861501114272
-0.056841824573546
-0.030492634767904
-0.064716653543944
-0.066869715666646
-0.136464165368306
-0.067321155425124
-0.067321511350915
-0.048360996782030
-0.108111865491969
-0.055279703594353
-0.060430523234556
-0.060378985535150
-0.091609301918771
-0.018032622877313
-0.089198461493183
-0.155503270464839
-0.052992378361816
-0.108534012675057
-0.040190256439641
-0.064983297986217
-0.026481189484095
-0.025502583660750
-0.062487992183819
-0.062330474780494
-0.064427680051555
-0.064821804085975
-0.064578284994820
-0.028629615493044
-0.101664915834905
-0.018193480278785
-0.051543456369348
-0.050674613455882
-0.050739262677835
-0.124261978273249
-0.066517331464126
-0.066884401204887
-0.068623002630866
-0.068210527760718
-0.035583853148419
-0.121692349732389
-0.040959585747164
-0.040983710887884
-0.065671958665097
-0.101676183324992
-0.028671980361263
-0.096792017714640
-0.043841642765908
-0.043778381484115
-0.079472272965185
-0.103886689040464
-0.015894350508296
-0.055454912876159
-0.055126435415274
-0.100872408533483
-0.051525030756789
-0.056003626362666
-0.056176224606989
-0.052484447709937
-0.052476698339518
-0.060378094663116
-0.060352456090813
-0.026067093299517
-0.065419584130981
-0.064447255107925
-0.015681441426746
-0.057610940861342
-0.018232069388497
-0.104224111033997
-0.061608385116886
-0.045640145379877
-0.098332569512175
-0.064228707253546
-0.063056177345910
-0.066222130294020
-0.066348015500812
-0.031379976318754
-0.031868876266339
-0.035440135367922
-0.035157380018308
-0.031798617086296
-0.046991297208796
-0.018485660165950
-0.038393504226189
-0.047832426840729
-0.047891563300645
-0.095865449548908
-0.011008526267607
-0.063435042515471
-0.099845345737140
-0.057355652507718
-0.016205658136560
-0.008365259782473
-0.067388073108712
-0.067614991314525
-0.016402131756944
-0.106692617506385
-0.003517079725935
-0.043962573436340
-0.010096427420492
-0.064172959816669
-0.027365252750005
-0.004669883010035
-0.007621933271064
-0.039531890563149
-0.037430619681908
-0.043215247032378
-0.107450786488801
-0.022407885048343
-0.034780364049518
-0.056940396774564
-0.040960546253660
-0.041193992807074
-0.023942514245059
-0.022966244639753
-0.096242031350338
-0.002755930277267
-0.065916768299682
-0.024017419306153
-0.024589089902091
-0.106447192941135
-0.020576203404886
-0.106801337691880
-0.053916161643424
-0.053860566936371
-0.093928088148086
-0.002292837670911
-0.065435344813787
-0.065741443250521
-0.062480597765853
-0.057164905273451
-0.035087758435033
-0.035473440724687
-0.047317785661248
-0.047330760533888
-0.122142521544178
-0.043803698772529
-0.123480951426217
-0.042908405343158
-0.042915009668660
-0.084819575526433
-0.023206403250064
-0.035960161115600
-0.100094598506015
-0.055746162781865
-0.123887587968285
-0.030027362793005
-0.063041481343301
-0.064203585526683
-0.066924168519145
-0.090916542324565
-0.066176482705873
-0.063530174428429
-0.063357953285497
-0.055192984401302
-0.066558528765650
-0.067850461010377
-0.117934135392040
