# vtk DataFile Version 3.0
    
ASCII
DATASET UNSTRUCTURED_GRID
POINTS 211 float
0 0 0
1.5 0 0
5 0 0
5 1 0
1.5 1 0
0 1 0
0.6 0.5 0
0.8 0.5 0
0 0.7 0
0 0.3 0
0.1875 0 0
0.375 0 0
0.5625 0 0
0.75 0 0
0.9375 0 0
1.125 0 0
1.3125 0 0
1.6918 0 0
1.88885 0 0
2.0913 0 0
2.2993 0 0
2.513 0 0
2.73255 0 0
2.95812 0 0
3.18987 0 0
3.42797 0 0
3.67259 0 0
3.92392 0 0
4.18213 0 0
4.44742 0 0
4.71998 0 0
5 0.25 0
5 0.5 0
5 0.75 0
4.71998 1 0
4.44742 1 0
4.18213 1 0
3.92392 1 0
3.67259 1 0
3.42797 1 0
3.18987 1 0
2.95812 1 0
2.73255 1 0
2.513 1 0
2.2993 1 0
2.0913 1 0
1.88885 1 0
1.6918 1 0
1.3125 1 0
1.125 1 0
0.9375 1 0
0.75 1 0
0.5625 1 0
0.375 1 0
0.1875 1 0
0.65 0.413397 0
0.75 0.413397 0
0.75 0.586603 0
0.65 0.586603 0
0 0.85 0
0 0.5 0
0 0.15 0
1.28769 0.541691 0
1.80683 0.5 0
2.30689 0.5 0
1.04359 0.713578 0
1.04716 0.286804 0
0.379599 0.2959 0
0.317386 0.626876 0
2.81338 0.5 0
3.32407 0.5 0
3.72891 0.5 0
4.23765 0.502258 0
0.472788 0.749448 0
0.721932 0.786654 0
1.55349 0.68868 0
1.53853 0.312531 0
0.70188 0.211648 0
2.05686 0.688672 0
2.04751 0.313768 0
1.0294 0.501368 0
0.420557 0.474529 0
2.56014 0.688089 0
2.54704 0.312571 0
0.236458 0.443235 0
1.28789 0.750455 0
1.28789 0.249545 0
3.06872 0.697034 0
3.06625 0.304468 0
0.184397 0.775 0
0.522203 0.273985 0
4.68206 0.376541 0
0.185265 0.225424 0
0.885273 0.273205 0
0.887124 0.726274 0
0.490245 0.631933 0
1.76818 0.722484 0
1.80173 0.242436 0
3.58158 0.690095 0
3.58158 0.309905 0
4.09061 0.689854 0
4.09061 0.310381 0
4.61253 0.787422 0
2.28937 0.742276 0
2.30044 0.237789 0
2.81894 0.754953 0
2.87003 0.189647 0
0.125119 0.632046 0
3.32239 0.756666 0
3.32376 0.241505 0
0.534673 0.413811 0
0.326024 0.752415 0
0.862237 0.401053 0
0.864906 0.599215 0
0.427119 0.150723 0
3.8293 0.765298 0
3.8293 0.234732 0
1.49708 0.5 0
1.13064 0.425836 0
4.30011 0.235016 0
4.30852 0.766452 0
0.993856 0.143338 0
0.993184 0.85645 0
0.598965 0.696815 0
2.01108 0.491313 0
1.14028 0.166436 0
1.1393 0.833832 0
0.857948 0.873875 0
0.853702 0.125638 0
1.10726 0.581369 0
0.700676 0.340164 0
1.41871 0.827953 0
1.41667 0.17223 0
0.7 0.681457 0
0.123723 0.357777 0
2.51322 0.490201 0
0.575162 0.14066 0
0.284895 0.11752 0
3.02427 0.490966 0
1.62042 0.856275 0
1.63477 0.171695 0
1.95275 0.828728 0
1.95522 0.167941 0
1.39862 0.36965 0
1.40601 0.652783 0
4.78659 0.589575 0
0.268442 0.881771 0
1.65707 0.556616 0
0.587485 0.858654 0
2.14096 0.84741 0
2.14856 0.163903 0
0.401275 0.669361 0
1.69516 0.377293 0
3.52542 0.5 0
4.57233 0.212331 0
2.4565 0.168057 0
2.4565 0.831943 0
2.63815 0.1742 0
2.63424 0.850737 0
1.9119 0.638661 0
1.89965 0.363913 0
0.505172 0.52239 0
0.43204 0.873715 0
4.79951 0.201204 0
0.253163 0.325707 0
0.914589 0.500966 0
0.122301 0.119657 0
2.15496 0.558669 0
0.119547 0.880295 0
3.96773 0.50042 0
0.322715 0.513493 0
0.340949 0.405963 0
0.409558 0.573097 0
2.19637 0.376767 0
2.39843 0.36305 0
2.41948 0.644093 0
4.82127 0.825147 0
0.979636 0.606422 0
0.616283 0.331078 0
1.17314 0.684185 0
0.979337 0.396659 0
1.17071 0.301059 0
0.78542 0.329319 0
2.66481 0.557336 0
3.07598 0.133991 0
3.07338 0.863107 0
0.784793 0.67604 0
0.22416 0.558337 0
0.433203 0.382916 0
0.290471 0.226996 0
0.568876 0.587548 0
4.49997 0.495656 0
2.9058 0.370775 0
2.92344 0.620418 0
2.70981 0.374927 0
4.8603 0.375 0
3.55457 0.863076 0
3.55465 0.13683 0
0.136096 0.49468 0
1.78609 0.886365 0
1.7914 0.105357 0
0.229481 0.67404 0
3.17057 0.56505 0
0.0761447 0.225 0
0.0769458 0.775 0
1.26231 0.878964 0
1.263 0.121104 0
1.25823 0.378431 0
4.05664 0.864857 0
4.05303 0.127917 0
3.18178 0.420398 0
CELLS 360 1440
3 179 62 85
3 13 77 136
3 75 147 96
3 70 153 108
3 70 109 153
3 63 96 147
3 98 108 153
3 99 153 109
3 62 179 129
3 85 62 144
3 34 35 102
3 51 148 74
3 71 98 153
3 71 153 99
3 63 159 96
3 22 23 106
3 41 42 105
3 23 184 106
3 41 105 185
3 75 96 139
3 67 114 90
3 119 154 191
3 71 115 98
3 71 99 116
3 77 178 90
3 35 120 102
3 71 169 115
3 71 116 169
3 67 90 188
3 51 74 127
3 88 106 184
3 87 185 105
3 77 93 182
3 100 115 169
3 101 169 116
3 74 186 94
3 72 119 191
3 72 169 101
3 72 100 169
3 13 128 77
3 76 152 117
3 91 191 154
3 8 60 107
3 117 152 147
3 72 101 119
3 72 120 100
3 78 167 103
3 24 25 109
3 39 40 108
3 6 110 55
3 9 134 60
3 12 13 136
3 38 196 115
3 26 116 197
3 64 103 167
3 97 152 140
3 87 105 193
3 88 192 106
3 66 93 121
3 49 122 126
3 15 125 121
3 65 122 94
3 37 38 115
3 26 27 116
3 76 140 152
3 66 180 93
3 44 149 103
3 20 104 150
3 44 103 156
3 20 155 104
3 24 109 184
3 40 185 108
3 49 50 122
3 7 56 112
3 98 115 196
3 99 197 116
3 14 15 121
3 65 94 177
3 77 90 136
3 77 128 93
3 7 113 57
3 74 94 127
3 34 102 176
3 82 183 105
3 78 103 149
3 87 108 185
3 88 184 109
3 64 175 103
3 11 12 114
3 77 130 178
3 74 148 123
3 36 208 120
3 28 119 209
3 91 145 191
3 69 105 183
3 12 136 114
3 102 120 191
3 4 48 131
3 1 132 16
3 72 191 120
3 77 182 130
3 100 120 208
3 101 209 119
3 35 36 120
3 28 29 119
3 51 52 148
3 6 161 110
3 93 180 112
3 89 204 107
3 73 123 148
3 73 95 123
3 8 107 204
3 80 180 118
3 82 105 158
3 2 163 30
3 94 113 177
3 48 205 131
3 16 132 206
3 74 133 186
3 69 193 105
3 2 31 163
3 42 158 105
3 22 106 157
3 79 173 124
3 87 202 108
3 89 107 201
3 52 162 148
3 58 123 190
3 90 110 188
3 88 109 210
3 68 111 201
3 124 173 167
3 66 118 180
3 102 191 145
3 70 108 202
3 73 151 95
3 98 196 108
3 99 109 197
3 90 114 136
3 39 108 196
3 25 197 109
3 19 20 150
3 44 45 149
3 85 144 131
3 86 132 143
3 55 130 56
3 81 110 161
3 43 44 156
3 20 21 155
3 66 121 125
3 0 10 166
3 70 210 109
3 5 168 54
3 65 126 122
3 91 195 145
3 18 19 142
3 45 46 141
3 75 131 144
3 76 143 132
3 67 189 114
3 58 133 123
3 80 118 129
3 68 151 111
3 62 129 118
3 57 133 58
3 52 53 162
3 4 139 47
3 1 17 140
3 60 134 198
3 5 59 168
3 0 166 61
3 83 194 135
3 55 110 178
3 135 194 183
3 73 148 162
3 50 51 127
3 13 14 128
3 96 159 141
3 97 142 160
3 3 34 176
3 4 131 139
3 1 140 132
3 94 122 127
3 93 128 121
3 73 111 151
3 89 201 111
3 7 112 165
3 19 150 142
3 45 141 149
3 78 141 159
3 79 160 142
3 83 157 194
3 106 194 157
3 101 116 209
3 100 208 115
3 62 143 117
3 62 117 144
3 79 150 173
3 74 123 133
3 75 144 117
3 76 117 143
3 29 30 154
3 97 140 200
3 96 199 139
3 7 165 113
3 27 209 116
3 37 115 208
3 92 166 137
3 56 182 112
3 89 111 146
3 104 173 150
3 3 176 33
3 75 117 147
3 50 127 122
3 57 113 186
3 80 129 177
3 95 190 123
3 14 121 128
3 85 131 205
3 10 11 137
3 86 206 132
3 88 210 138
3 15 16 206
3 32 33 145
3 48 49 205
3 73 162 111
3 42 43 158
3 21 22 157
3 81 188 110
3 138 210 202
3 53 54 146
3 97 160 152
3 63 152 160
3 75 139 131
3 76 132 140
3 112 180 165
3 65 177 129
3 60 198 107
3 15 206 125
3 49 126 205
3 63 147 152
3 95 172 161
3 11 114 137
3 29 154 119
3 30 163 154
3 63 124 159
3 63 160 124
3 78 149 141
3 79 142 150
3 114 189 137
3 81 161 172
3 32 145 195
3 65 179 126
3 66 125 181
3 66 181 118
3 104 155 174
3 103 175 156
3 113 165 177
3 78 159 124
3 79 124 160
3 83 174 155
3 82 156 175
3 92 134 203
3 40 41 185
3 23 24 184
3 38 39 196
3 25 26 197
3 46 47 199
3 17 18 200
3 27 28 209
3 36 37 208
3 111 162 146
3 90 178 110
3 78 124 167
3 9 203 134
3 80 165 180
3 9 61 203
3 10 137 166
3 8 204 59
3 17 200 140
3 47 139 199
3 91 154 163
3 55 178 130
3 31 32 195
3 92 164 134
3 56 130 182
3 102 145 176
3 104 174 173
3 64 173 174
3 89 146 168
3 96 141 199
3 97 200 142
3 6 58 190
3 46 199 141
3 18 142 200
3 43 156 158
3 21 157 155
3 57 186 133
3 80 177 165
3 85 126 179
3 86 181 125
3 53 146 162
3 84 134 164
3 92 137 189
3 65 129 179
3 93 112 182
3 64 135 175
3 64 174 135
3 67 171 164
3 95 151 172
3 64 167 173
3 82 175 135
3 83 135 174
3 83 155 157
3 82 158 156
3 94 186 113
3 82 135 183
3 85 205 126
3 84 198 134
3 106 192 194
3 69 194 192
3 68 201 187
3 86 125 206
3 62 118 207
3 84 164 171
3 33 176 145
3 69 192 138
3 69 138 193
3 68 172 151
3 6 190 161
3 81 170 171
3 87 193 138
3 88 138 192
3 81 172 170
3 86 143 207
3 87 138 202
3 54 168 146
3 92 203 166
3 69 183 194
3 68 170 172
3 62 207 143
3 89 168 204
3 61 166 203
3 59 204 168
3 107 187 201
3 70 202 210
3 31 195 163
3 67 164 189
3 68 187 170
3 107 198 187
3 91 163 195
3 81 171 188
3 92 189 164
3 84 171 170
3 67 188 171
3 84 187 198
3 95 161 190
3 84 170 187
3 118 181 207
3 86 207 181
CELL_TYPES 360
5
5
5
5
5
5
5
5
5
5
5
5
5
5
5
5
5
5
5
5
5
5
5
5
5
5
5
5
5
5
5
5
5
5
5
5
5
5
5
5
5
5
5
5
5
5
5
5
5
5
5
5
5
5
5
5
5
5
5
5
5
5
5
5
5
5
5
5
5
5
5
5
5
5
5
5
5
5
5
5
5
5
5
5
5
5
5
5
5
5
5
5
5
5
5
5
5
5
5
5
5
5
5
5
5
5
5
5
5
5
5
5
5
5
5
5
5
5
5
5
5
5
5
5
5
5
5
5
5
5
5
5
5
5
5
5
5
5
5
5
5
5
5
5
5
5
5
5
5
5
5
5
5
5
5
5
5
5
5
5
5
5
5
5
5
5
5
5
5
5
5
5
5
5
5
5
5
5
5
5
5
5
5
5
5
5
5
5
5
5
5
5
5
5
5
5
5
5
5
5
5
5
5
5
5
5
5
5
5
5
5
5
5
5
5
5
5
5
5
5
5
5
5
5
5
5
5
5
5
5
5
5
5
5
5
5
5
5
5
5
5
5
5
5
5
5
5
5
5
5
5
5
5
5
5
5
5
5
5
5
5
5
5
5
5
5
5
5
5
5
5
5
5
5
5
5
5
5
5
5
5
5
5
5
5
5
5
5
5
5
5
5
5
5
5
5
5
5
5
5
5
5
5
5
5
5
5
5
5
5
5
5
5
5
5
5
5
5
5
5
5
5
5
5
5
5
5
5
5
5
5
5
5
5
5
5
5
5
5
5
5
5
5
5
5
5
5
5
5
5
5
5
5
5
5
5
5
5
5
5
POINT_DATA 211
SCALARS scalars float 1
LOOKUP_TABLE default
-0.117523354047648
-0.069040321585437
0.001556338039306
0.000891869953090
-0.069083718196624
-0.116747017983034
-0.218050173293810
-0.024326630745876
-0.105079850612256
-0.108199517555824
-0.120796819913527
-0.133131415252225
-0.110345175692136
0.001642209021047
-0.054165452633727
-0.061884523506011
-0.071406963768534
-0.068481031346314
-0.061683330821913
-0.057842400593737
-0.053617723178066
-0.047110654863783
-0.045734953989128
-0.040499065554501
-0.034634506688509
-0.027155980916995
-0.025673032429209
-0.018181261827656
-0.014461304874940
-0.005556387525515
-0.009440871557616
-0.000706997780722
-0.001958724639367
-0.000829735791120
-0.008865792825738
-0.007482777661731
-0.014605323119037
-0.017895008021810
-0.025221158495405
-0.027201789785459
-0.035056044475773
-0.037311966302886
-0.045427940642301
-0.046009910415923
-0.053460586914641
-0.060031422011302
-0.063246502090652
-0.068041879445292
-0.070289884370768
-0.066913952264565
-0.051436209450063
0.007412210674358
-0.111163518648751
-0.129458974571253
-0.118018672892103
-0.105890836982758
-0.005061888245263
-0.007495748259911
-0.076593568314580
-0.113135894092235
-0.101697717291632
-0.115597044349536
-0.073264220226231
-0.065123799166225
-0.051715527490753
-0.061588453041453
-0.065912427681507
-0.111416079544336
-0.111770162457206
-0.040718110619976
-0.026619029514405
-0.020467247194533
-0.013826343831511
-0.125916819018736
0.004409756329135
-0.068798688060942
-0.070277089464927
-0.025308883276447
-0.059079517418662
-0.059328704642162
-0.055129672805319
-0.105152180985255
-0.047249427627596
-0.046844579098957
-0.109097700407932
-0.072975315131373
-0.074938890709556
-0.038854106600839
-0.038933895272358
-0.113674494016499
-0.143929563784887
-0.006576321939187
-0.115636761931291
-0.013247844327269
-0.026642698793479
-0.123167589362347
-0.066274739676016
-0.063935876441731
-0.027803640314031
-0.028232536836777
-0.018407546104267
-0.018466841559068
-0.009055454284362
-0.054273949040157
-0.054019904907612
-0.041572553232542
-0.041217899032336
-0.109226236746405
-0.028382721640773
-0.028591731247728
-0.150367546278374
-0.115157927802187
-0.018195103467814
-0.016795505524881
-0.127799197081717
-0.018910763457630
-0.018835819965616
-0.066743653539552
-0.062693200034861
-0.010093661900755
-0.010307795517829
-0.055966044264228
-0.051326462216497
-0.133020195080659
-0.059635412305132
-0.068977859139329
-0.073767615188404
-0.033722823227515
-0.019677463163049
-0.063740177974852
-0.031168952439252
-0.067652819495706
-0.067790554792318
-0.005550716031693
-0.109876436301284
-0.046045555981121
-0.110520619535656
-0.124374495262718
-0.040197609435179
-0.069052329691803
-0.070006753613555
-0.062710761369500
-0.061311548138278
-0.068554198848485
-0.069210142942157
-0.005009800909942
-0.121554312272971
-0.065772381968047
-0.109267713308245
-0.057820328264688
-0.056509985434628
-0.110385306424872
-0.066719291317487
-0.029790154616824
-0.007905830157644
-0.047997117672667
-0.047484701562019
-0.046871436211481
-0.045836602696338
-0.063942717444071
-0.063064295979050
-0.114846808095040
-0.126228730220411
-0.006146406320139
-0.114508986490851
-0.029272947876295
-0.117296457645762
-0.057364952952039
-0.115119781128734
-0.018588379039493
-0.110748787482913
-0.111210988015452
-0.108435620162486
-0.055634656218053
-0.049342224754400
-0.046731234152830
-0.004168485471764
-0.049213676499663
-0.115293559557986
-0.070932707889714
-0.046105109650403
-0.066492300280186
-0.016499550091591
-0.048285632985476
-0.038094849206775
-0.037462705582569
-0.022274724172623
-0.107121355975400
-0.109976517039877
-0.119451343813724
-0.173446971741949
-0.008295590046867
-0.039457713825938
-0.039441469412846
-0.046045938244585
-0.004425350148643
-0.027127517933607
-0.027903726087603
-0.108288138148297
-0.065462261091034
-0.064105651669398
-0.110479294479434
-0.034720362016943
-0.112605043052933
-0.111711855936172
-0.072868604487335
-0.074118934902222
-0.075418622130347
-0.017374077022631
-0.017448934246211
-0.034673439026557
