# vtk DataFile Version 3.0
    
ASCII
DATASET UNSTRUCTURED_GRID
POINTS 365 float
0 0 0
5 0 0
5 1 0
0 1 0
0.6 0.49 0
0.8 0.49 0
0 0.7 0
0 0.3 0
0.2 0 0
0.4 0 0
0.6 0 0
0.8 0 0
1 0 0
1.2 0 0
1.4 0 0
1.6 0 0
1.8 0 0
2 0 0
2.2 0 0
2.4 0 0
2.6 0 0
2.8 0 0
3 0 0
3.2 0 0
3.4 0 0
3.6 0 0
3.8 0 0
4 0 0
4.2 0 0
4.4 0 0
4.6 0 0
4.8 0 0
5 0.2 0
5 0.4 0
5 0.6 0
5 0.8 0
4.8 1 0
4.6 1 0
4.4 1 0
4.2 1 0
4 1 0
3.8 1 0
3.6 1 0
3.4 1 0
3.2 1 0
3 1 0
2.8 1 0
2.6 1 0
2.4 1 0
2.2 1 0
2 1 0
1.8 1 0
1.6 1 0
1.4 1 0
1.2 1 0
1 1 0
0.8 1 0
0.6 1 0
0.4 1 0
0.2 1 0
0 0.891408 0
0 0.809235 0
0 0.747053 0
0.609903 0.446612 0
0.637651 0.411817 0
0.677748 0.392507 0
0.722252 0.392507 0
0.762349 0.411817 0
0.790097 0.446612 0
0.790097 0.533388 0
0.762349 0.568183 0
0.722252 0.587493 0
0.677748 0.587493 0
0.637651 0.568183 0
0.609903 0.533388 0
0 0.65 0
0 0.6 0
0 0.55 0
0 0.5 0
0 0.45 0
0 0.4 0
0 0.35 0
0 0.252947 0
0 0.190765 0
0 0.108592 0
0.325509 0.681521 0
0.30442 0.325465 0
1.17326 0.620855 0
0.192833 0.475 0
0.489598 0.32221 0
0.405053 0.498935 0
0.494109 0.658261 0
0.97529 0.720376 0
1.03615 0.416287 0
0.161127 0.276473 0
0.176687 0.726844 0
1.66971 0.486985 0
4.4627 0.479939 0
3.90225 0.497513 0
3.3 0.5 0
2.71149 0.45291 0
2.18725 0.50827 0
0.136611 0.5943 0
0.689707 0.817555 0
0.607012 0.683091 0
0.945507 0.546035 0
0.602887 0.28998 0
0.834465 0.210781 0
0.499123 0.447401 0
0.113137 0.373255 0
1.33684 0.316333 0
0.79784 0.700512 0
0.278809 0.553085 0
0.130222 0.149368 0
0.287212 0.171246 0
0.130274 0.839638 0
0.274945 0.811466 0
0.885092 0.342394 0
0.510239 0.558808 0
0.215624 0.370916 0
0.306551 0.439381 0
0.0985335 0.468557 0
0.0871307 0.672502 0
0.406429 0.391008 0
3.6 0.66 0
4.18979 0.654778 0
3 0.34 0
1.04388 0.205771 0
0.432131 0.791424 0
1.46625 0.694413 0
3.60549 0.337985 0
4.19811 0.337412 0
3.00549 0.662015 0
0.858888 0.615839 0
0.70086 0.680801 0
0.7 0.301612 0
0.224116 0.640964 0
0.561567 0.371355 0
0.0788459 0.276473 0
2.44048 0.315714 0
2.44394 0.657688 0
0.40343 0.601646 0
0.0887705 0.781036 0
1.93131 0.705066 0
1.91671 0.296161 0
0.899088 0.445684 0
0.402426 0.217841 0
0.562436 0.596156 0
4.7125 0.2875 0
4.72955 0.697997 0
0.529394 0.204403 0
0.656385 0.159649 0
0.776972 0.325835 0
0.209938 0.559478 0
0.0747152 0.547028 0
1.58879 0.258302 0
0.554497 0.79908 0
1.15368 0.779827 0
0.249992 0.719393 0
0.253741 0.296379 0
2.70348 0.224622 0
3.9 0.76 0
3.30269 0.777701 0
3.3 0.24 0
3.9011 0.234644 0
2.70712 0.806433 0
4.43955 0.74791 0
4.46042 0.247917 0
1.69995 0.775778 0
2.17456 0.750606 0
2.18503 0.21579 0
0.0655935 0.623056 0
1.38924 0.50465 0
0.868714 0.528508 0
0.13698 0.525977 0
0.889065 0.848825 0
0.0504997 0.430011 0
0.0680655 0.325023 0
0.529347 0.495563 0
1.2067 0.449162 0
0.143814 0.430866 0
0.772372 0.640282 0
4.79824 0.508474 0
0.153127 0.65938 0
0.261739 0.486791 0
0.0486698 0.228872 0
0.119986 0.222606 0
0.33266 0.495461 0
0.825877 0.390295 0
0.631883 0.626042 0
0.393157 0.706259 0
0.15562 0.330761 0
0.633056 0.350988 0
0.468361 0.499104 0
0.555089 0.44445 0
0.23895 0.429954 0
0.388635 0.309595 0
0.277364 0.381991 0
1.04513 0.610328 0
0.0996084 0.0871163 0
0.0998847 0.909787 0
1.29592 0.728086 0
0.328639 0.612674 0
0.372006 0.44288 0
0.437598 0.444805 0
0.44144 0.556708 0
0.052441 0.724645 0
0.470824 0.389918 0
1.22558 0.173288 0
1.88211 0.488606 0
3.49998 0.179481 0
4.10044 0.177958 0
2.9119 0.826674 0
3.51295 0.496641 0
4.11039 0.495261 0
2.91486 0.495511 0
0.342567 0.38172 0
2.90746 0.182578 0
3.50733 0.817809 0
3.70059 0.817717 0
4.09869 0.815208 0
3.10061 0.18233 0
0.200571 0.203705 0
1.76712 0.181923 0
0.0436666 0.476884 0
2.3674 0.492241 0
0.111545 0.319094 0
0.568082 0.531882 0
3.6947 0.500157 0
4.27785 0.494778 0
3.10733 0.5 0
0.365005 0.553085 0
0.200264 0.794129 0
3.09996 0.819026 0
3.70487 0.180902 0
0.545391 0.720926 0
0.291771 0.255224 0
4.29106 0.174284 0
0.341059 0.762649 0
4.27483 0.824706 0
1.51589 0.422605 0
0.0390105 0.665867 0
1.43464 0.165941 0
0.593091 0.404743 0
1.13573 0.312744 0
0.0450767 0.37847 0
0.272828 0.608364 0
2.33592 0.831333 0
2.33592 0.168667 0
0.0427374 0.579052 0
2.51402 0.820909 0
2.51819 0.169964 0
0.814502 0.581313 0
0.205149 0.113481 0
1.10707 0.509467 0
0.0638029 0.161529 0
0.475155 0.602239 0
1.01884 0.823438 0
0.0361802 0.27862 0
0.184944 0.605041 0
0.83541 0.470078 0
2.84746 0.339124 0
3.44459 0.65043 0
4.04022 0.644552 0
0.0373078 0.525633 0
1.89826 0.865183 0
0.552204 0.656012 0
0.231126 0.887663 0
0.0389918 0.778864 0
0.0596535 0.834995 0
4.59806 0.834257 0
4.83292 0.167083 0
4.83292 0.832917 0
0.44575 0.111349 0
2.02606 0.167546 0
0.142493 0.775357 0
0.994377 0.316464 0
0.549791 0.316703 0
1.47737 0.856593 0
2.52785 0.470791 0
0.163417 0.387177 0
3.75951 0.647077 0
3.16159 0.352466 0
0.144962 0.475342 0
1.76489 0.342395 0
0.71015 0.621325 0
0.107145 0.630531 0
0.116775 0.723294 0
0.195742 0.683764 0
3.44368 0.350821 0
4.04246 0.348558 0
2.808 0.64559 0
2.61873 0.642387 0
0.498838 0.891944 0
1.75873 0.619984 0
0.711349 0.35548 0
4.60263 0.164732 0
3.16309 0.651748 0
3.76168 0.350241 0
1.62013 0.626785 0
1.27022 0.880336 0
2.03023 0.562739 0
0.924312 0.12518 0
2.30182 0.648028 0
2.27903 0.358484 0
2.07631 0.377284 0
4.6232 0.434625 0
4.56666 0.640269 0
0.530698 0.405335 0
0.372942 0.648152 0
1.07324 0.710965 0
0.434679 0.656035 0
0.0933451 0.416934 0
0.639348 0.740508 0
0.5999 0.571343 0
2.04533 0.861215 0
4.87214 0.687877 0
4.86873 0.312611 0
0.730261 0.223726 0
0.276144 0.656057 0
0.471605 0.720505 0
0.79398 0.790229 0
0.20779 0.312558 0
0.875186 0.716917 0
0.255236 0.338476 0
0.187427 0.4296 0
0.938068 0.633976 0
0.216535 0.516332 0
0.825145 0.520028 0
0.520496 0.361104 0
0.454176 0.269707 0
0.520035 0.272826 0
0.439652 0.341131 0
0.168902 0.561828 0
4.33803 0.346866 0
0.0288977 0.625 0
0.363017 0.857524 0
0.217969 0.267003 0
0.0782407 0.508816 0
0.0939638 0.583324 0
0.643786 0.235874 0
0.972352 0.465576 0
1.02339 0.515701 0
0.953605 0.390985 0
0.119986 0.278764 0
0.757165 0.110122 0
0.618457 0.88232 0
0.30924 0.0764247 0
1.52475 0.549852 0
1.8973 0.120523 0
0.936425 0.240118 0
4.34322 0.640075 0
0.0287768 0.326016 0
0.234127 0.593386 0
0.758064 0.369429 0
1.10325 0.912097 0
0.733419 0.743173 0
1.30296 0.606718 0
0.56429 0.111875 0
0.518829 0.614295 0
0.756061 0.602718 0
0.731868 0.889821 0
1.10822 0.100477 0
2.5803 0.3268 0
0.566923 0.477697 0
CELLS 645 2580
3 273 146 114
3 15 223 155
3 40 41 161
3 43 44 162
3 20 21 160
3 46 47 165
3 23 24 163
3 26 27 164
3 4 74 227
3 112 153 327
3 110 155 240
3 4 227 364
3 137 277 192
3 58 267 336
3 159 337 236
3 174 327 333
3 110 242 155
3 137 192 243
3 87 157 310
3 86 196 216
3 88 327 174
3 36 270 272
3 148 306 167
3 97 167 306
3 201 278 300
3 67 188 68
3 149 307 182
3 182 307 306
3 116 336 267
3 29 296 167
3 15 155 242
3 123 216 196
3 320 235 156
3 36 37 270
3 51 52 168
3 86 236 196
3 112 353 153
3 38 166 270
3 129 278 201
3 120 187 184
3 106 150 340
3 87 179 357
3 14 242 208
3 153 333 327
3 107 117 152
3 79 80 176
3 87 201 157
3 112 184 187
3 96 240 155
3 222 236 337
3 92 175 323
3 110 172 179
3 112 327 184
3 112 231 202
3 154 174 339
3 176 245 312
3 108 178 193
3 122 241 171
3 147 189 266
3 109 312 245
3 112 187 231
3 24 210 163
3 27 211 164
3 46 165 212
3 104 313 235
3 31 271 296
3 18 170 274
3 110 179 244
3 21 217 160
3 41 219 161
3 40 161 220
3 43 162 218
3 23 163 221
3 15 16 223
3 13 14 208
3 344 191 226
3 96 155 284
3 29 30 296
3 129 168 278
3 98 164 290
3 99 163 289
3 20 160 251
3 47 250 165
3 297 99 162
3 98 298 164
3 44 233 162
3 26 164 234
3 64 243 192
3 148 167 296
3 99 282 163
3 98 161 281
3 154 338 174
3 363 160 100
3 160 261 100
3 162 99 262
3 98 263 161
3 143 301 169
3 101 169 301
3 38 239 166
3 102 339 174
3 129 299 168
3 121 174 338
3 72 189 73
3 64 192 65
3 95 288 158
3 138 177 258
3 171 241 335
3 30 31 296
3 109 245 177
3 110 240 172
3 106 331 150
3 118 193 178
3 18 248 170
3 49 169 247
3 128 320 156
3 29 167 237
3 97 334 167
3 158 288 136
3 73 189 314
3 110 244 208
3 172 357 179
3 52 278 168
3 37 38 270
3 88 174 283
3 120 184 195
3 122 183 287
3 33 34 182
3 25 234 210
3 45 212 233
3 51 168 265
3 143 265 168
3 85 190 238
3 177 352 258
3 101 303 169
3 178 364 227
3 114 146 236
3 104 189 134
3 94 191 344
3 140 225 279
3 143 169 315
3 49 315 169
3 319 158 136
3 111 323 321
3 118 227 147
3 140 279 292
3 111 134 181
3 86 324 159
3 147 314 189
3 105 133 173
3 88 195 184
3 79 176 224
3 143 168 294
3 108 194 178
3 93 179 254
3 95 158 232
3 194 308 243
3 90 187 203
3 22 221 217
3 42 218 219
3 120 203 187
3 59 267 58
3 105 173 145
3 120 195 197
3 185 255 186
3 63 194 243
3 100 291 292
3 136 183 259
3 347 273 114
3 106 135 192
3 95 287 183
3 14 15 242
3 90 193 205
3 72 285 189
3 67 354 188
3 90 205 231
3 106 192 277
3 17 18 274
3 85 158 319
3 86 159 236
3 68 188 260
3 149 272 270
3 82 83 185
3 110 208 242
3 138 226 177
3 80 245 176
3 130 210 234
3 132 233 212
3 109 280 180
3 141 205 256
3 65 192 295
3 175 321 323
3 165 292 291
3 109 177 226
3 112 246 353
3 121 224 176
3 118 147 359
3 108 193 204
3 1 32 271
3 1 271 31
3 2 36 272
3 2 272 35
3 93 244 179
3 90 203 204
3 122 287 206
3 119 197 195
3 156 235 313
3 135 318 152
3 126 217 221
3 124 219 218
3 142 269 268
3 87 254 179
3 136 288 183
3 103 156 313
3 146 196 236
3 202 319 246
3 117 188 152
3 134 189 285
3 150 151 340
3 121 283 174
3 104 266 189
3 111 181 133
3 87 310 198
3 85 238 158
3 102 259 183
3 121 312 180
3 53 300 278
3 6 206 62
3 122 171 286
3 90 204 193
3 118 205 193
3 94 186 222
3 146 150 330
3 63 364 194
3 109 191 280
3 106 277 331
3 85 309 190
3 102 174 333
3 129 357 172
3 121 176 312
3 90 231 187
3 85 319 202
3 86 216 197
3 141 202 231
3 144 305 209
3 138 185 186
3 82 185 258
3 137 243 308
3 109 226 191
3 10 358 273
3 209 305 301
3 109 180 312
3 24 25 210
3 27 28 211
3 45 46 212
3 107 152 318
3 92 257 175
3 21 22 217
3 39 40 220
3 41 42 219
3 42 43 218
3 22 23 221
3 135 295 192
3 105 198 326
3 120 197 216
3 108 204 207
3 97 307 351
3 28 237 211
3 120 216 203
3 119 195 325
3 44 45 233
3 25 26 234
3 48 247 250
3 19 251 248
3 107 345 302
3 156 346 293
3 141 231 205
3 4 364 63
3 121 180 283
3 122 286 183
3 18 19 248
3 48 49 247
3 123 204 203
3 124 213 228
3 132 215 230
3 125 214 229
3 131 229 214
3 130 228 213
3 126 230 215
3 115 269 142
3 33 182 317
3 148 317 182
3 34 316 182
3 149 182 316
3 47 48 250
3 19 20 251
3 38 39 239
3 122 206 241
3 148 296 271
3 115 142 275
3 10 345 151
3 141 256 311
3 81 352 245
3 55 56 175
3 88 184 327
3 78 79 224
3 180 325 283
3 118 178 227
3 60 269 200
3 102 183 286
3 131 211 237
3 3 60 200
3 0 199 84
3 60 61 269
3 181 285 360
3 148 182 306
3 173 252 328
3 97 306 307
3 80 81 245
3 138 258 185
3 173 328 260
3 123 203 216
3 133 181 252
3 69 252 70
3 70 252 360
3 116 232 158
3 114 236 222
3 325 88 283
3 69 328 252
3 134 285 181
3 100 215 291
3 98 290 214
3 99 289 213
3 8 9 347
3 83 84 255
3 129 172 348
3 119 191 322
3 39 220 239
3 127 208 244
3 94 222 337
3 155 223 284
3 123 196 332
3 128 156 293
3 133 252 173
3 84 199 255
3 128 238 190
3 117 145 188
3 61 62 268
3 116 158 238
3 91 266 235
3 55 175 257
3 6 241 206
3 6 75 241
3 10 151 358
3 119 322 324
3 92 326 198
3 62 206 268
3 28 29 237
3 5 260 328
3 9 10 273
3 166 351 307
3 146 273 150
3 108 207 308
3 63 243 64
3 112 202 246
3 5 68 260
3 177 245 352
3 107 350 117
3 71 360 285
3 119 325 280
3 123 207 204
3 105 342 198
3 115 267 200
3 181 360 252
3 105 326 133
3 138 186 344
3 356 134 111
3 98 281 228
3 99 230 282
3 49 50 315
3 125 239 220
3 129 201 357
3 142 206 287
3 95 183 288
3 145 173 260
3 100 261 215
3 99 213 262
3 98 214 263
3 78 224 264
3 165 250 292
3 140 292 250
3 152 354 295
3 144 274 305
3 170 305 274
3 178 194 364
3 113 199 253
3 11 12 302
3 145 260 188
3 104 134 313
3 10 11 345
3 86 197 324
3 131 237 334
3 167 334 237
3 97 351 229
3 140 250 247
3 139 248 251
3 100 279 363
3 11 302 345
3 57 58 293
3 105 145 341
3 95 275 287
3 118 256 205
3 76 77 249
3 101 305 304
3 119 280 191
3 91 320 311
3 104 235 266
3 126 261 217
3 160 217 261
3 161 263 220
3 162 262 218
3 125 220 263
3 124 218 262
3 83 255 185
3 71 285 72
3 56 57 361
3 7 82 258
3 118 359 256
3 170 304 305
3 88 325 195
3 74 314 227
3 144 223 349
3 65 295 66
3 94 344 186
3 127 302 362
3 66 295 354
3 169 303 247
3 140 247 303
3 170 248 304
3 139 304 248
3 53 54 300
3 99 297 230
3 98 228 298
3 142 287 275
3 130 289 210
3 131 290 211
3 132 212 291
3 130 213 289
3 131 214 290
3 132 291 215
3 113 222 186
3 135 152 295
3 77 78 264
3 89 329 207
3 57 346 361
3 50 51 265
3 87 357 201
3 144 209 284
3 96 284 209
3 94 322 191
3 126 215 261
3 124 262 213
3 125 263 214
3 113 186 255
3 77 264 249
3 57 293 346
3 97 229 334
3 143 315 265
3 87 198 254
3 111 133 323
3 141 311 309
3 161 219 281
3 124 281 219
3 126 221 282
3 163 282 221
3 166 239 351
3 125 351 239
3 32 33 317
3 34 35 316
3 162 233 297
3 132 297 233
3 130 234 298
3 164 298 234
3 171 249 339
3 52 53 278
3 115 275 232
3 154 339 249
3 103 346 156
3 54 55 355
3 92 198 310
3 75 335 241
3 115 200 269
3 93 276 244
3 95 232 275
3 106 340 135
3 150 358 151
3 61 268 269
3 119 324 197
3 163 210 289
3 164 211 290
3 165 291 212
3 128 336 238
3 7 258 352
3 96 209 294
3 143 294 209
3 139 279 225
3 144 284 223
3 157 201 300
3 76 249 335
3 157 300 355
3 113 255 199
3 12 13 362
3 143 209 301
3 101 304 225
3 101 225 303
3 124 228 281
3 126 282 230
3 108 308 194
3 152 188 354
3 154 249 264
3 141 309 202
3 89 207 332
3 144 349 274
3 12 362 302
3 7 352 81
3 159 324 322
3 127 362 208
3 73 314 74
3 89 332 330
3 132 230 297
3 130 298 228
3 96 348 240
3 140 303 225
3 139 225 304
3 85 202 309
3 100 292 279
3 207 329 308
3 16 17 349
3 171 335 249
3 142 268 206
3 91 235 320
3 101 301 305
3 190 311 320
3 127 350 302
3 75 76 335
3 5 328 69
3 166 307 270
3 149 270 307
3 116 238 336
3 137 329 277
3 55 257 355
3 224 338 264
3 56 361 175
3 117 343 145
3 138 344 226
3 190 309 311
3 16 349 223
3 92 310 257
3 32 317 271
3 35 272 316
3 93 254 342
3 131 334 229
3 107 302 350
3 171 339 286
3 96 299 348
3 66 354 67
3 121 338 224
3 54 355 300
3 125 229 351
3 172 240 348
3 150 331 330
3 70 360 71
3 168 299 294
3 123 332 207
3 175 361 321
3 136 246 319
3 127 244 276
3 196 330 332
3 96 294 299
3 93 342 341
3 13 208 362
3 115 232 267
3 150 273 358
3 102 286 339
3 147 227 314
3 113 253 222
3 117 276 343
3 102 333 259
3 107 318 345
3 59 200 267
3 135 340 318
3 127 276 350
3 50 265 315
3 198 342 254
3 136 353 246
3 139 251 363
3 160 363 251
3 149 316 272
3 148 271 317
3 153 259 333
3 128 190 320
3 8 253 199
3 89 277 329
3 129 348 299
3 91 311 256
3 180 280 325
3 134 356 313
3 147 266 359
3 117 350 276
3 133 326 323
3 17 274 349
3 128 293 336
3 153 353 259
3 146 330 196
3 111 321 356
3 93 343 276
3 91 359 266
3 154 264 338
3 157 257 310
3 136 259 353
3 137 308 329
3 91 256 359
3 114 222 253
3 89 331 277
3 139 363 279
3 151 345 318
3 114 253 347
3 145 343 341
3 103 321 361
3 116 267 232
3 157 355 257
3 103 361 346
3 89 330 331
3 105 341 342
3 58 336 293
3 103 356 321
3 92 323 326
3 9 273 347
3 94 337 322
3 8 347 253
3 159 322 337
3 151 318 340
3 103 313 356
3 93 341 343
3 0 8 199
3 3 200 59
CELL_TYPES 645
5
5
5
5
5
5
5
5
5
5
5
5
5
5
5
5
5
5
5
5
5
5
5
5
5
5
5
5
5
5
5
5
5
5
5
5
5
5
5
5
5
5
5
5
5
5
5
5
5
5
5
5
5
5
5
5
5
5
5
5
5
5
5
5
5
5
5
5
5
5
5
5
5
5
5
5
5
5
5
5
5
5
5
5
5
5
5
5
5
5
5
5
5
5
5
5
5
5
5
5
5
5
5
5
5
5
5
5
5
5
5
5
5
5
5
5
5
5
5
5
5
5
5
5
5
5
5
5
5
5
5
5
5
5
5
5
5
5
5
5
5
5
5
5
5
5
5
5
5
5
5
5
5
5
5
5
5
5
5
5
5
5
5
5
5
5
5
5
5
5
5
5
5
5
5
5
5
5
5
5
5
5
5
5
5
5
5
5
5
5
5
5
5
5
5
5
5
5
5
5
5
5
5
5
5
5
5
5
5
5
5
5
5
5
5
5
5
5
5
5
5
5
5
5
5
5
5
5
5
5
5
5
5
5
5
5
5
5
5
5
5
5
5
5
5
5
5
5
5
5
5
5
5
5
5
5
5
5
5
5
5
5
5
5
5
5
5
5
5
5
5
5
5
5
5
5
5
5
5
5
5
5
5
5
5
5
5
5
5
5
5
5
5
5
5
5
5
5
5
5
5
5
5
5
5
5
5
5
5
5
5
5
5
5
5
5
5
5
5
5
5
5
5
5
5
5
5
5
5
5
5
5
5
5
5
5
5
5
5
5
5
5
5
5
5
5
5
5
5
5
5
5
5
5
5
5
5
5
5
5
5
5
5
5
5
5
5
5
5
5
5
5
5
5
5
5
5
5
5
5
5
5
5
5
5
5
5
5
5
5
5
5
5
5
5
5
5
5
5
5
5
5
5
5
5
5
5
5
5
5
5
5
5
5
5
5
5
5
5
5
5
5
5
5
5
5
5
5
5
5
5
5
5
5
5
5
5
5
5
5
5
5
5
5
5
5
5
5
5
5
5
5
5
5
5
5
5
5
5
5
5
5
5
5
5
5
5
5
5
5
5
5
5
5
5
5
5
5
5
5
5
5
5
5
5
5
5
5
5
5
5
5
5
5
5
5
5
5
5
5
5
5
5
5
5
5
5
5
5
5
5
5
5
5
5
5
5
5
5
5
5
5
5
5
5
5
5
5
5
5
5
5
5
5
5
5
5
5
5
5
5
5
5
5
5
5
5
5
5
5
5
5
5
5
5
5
5
5
5
5
5
5
5
5
5
5
5
5
5
5
5
5
5
5
5
5
5
5
5
5
5
5
5
5
5
5
5
5
5
5
5
5
5
5
5
5
5
5
5
5
5
5
5
5
5
5
5
5
5
5
5
5
5
5
5
5
5
5
5
5
5
5
5
5
5
5
5
5
5
5
5
5
5
5
5
5
5
5
5
5
5
5
5
5
5
POINT_DATA 365
SCALARS scalars float 1
LOOKUP_TABLE default
0.127835537082725
-0.000032191108040
-0.000032925221085
0.128320328171492
0.407786898497942
0.019974747063881
0.125567337998980
0.125200081975309
0.122016350847235
0.123522867025089
0.092465999550689
0.003626569132783
0.051478141462415
0.049254955267189
0.054197571751860
0.050313695465355
0.049593092668456
0.047233783294467
0.044932769586470
0.041766150676498
0.039000573275268
0.036387807448406
0.032337578779951
0.028936290033798
0.025882545097932
0.021842895536209
0.018717814802550
0.015309893363072
0.011379367693726
0.008397342177938
0.005748873248448
0.002996954399690
0.000068873235364
-0.000003414110701
-0.000003962703555
0.000058351039482
0.002991154883750
0.005636428687739
0.008726378013917
0.011704522521502
0.015670454717636
0.018776895297410
0.022114066823801
0.025639543517838
0.029399289759559
0.032866469749675
0.036211241529988
0.039415106614180
0.041394000841664
0.045400304035918
0.046111015771873
0.049013444768407
0.049730922793142
0.051927453388716
0.049329748754989
0.051871985657898
0.007511116282782
0.085611143769102
0.121255112951840
0.122239403687399
0.126384187342504
0.126223722188027
0.125939211417335
0.309322425525990
0.031333484849678
0.032009521312927
-0.028147317474523
-0.027861922313046
-0.003425877589393
-0.006186776390609
-0.033383136793240
-0.019549532221756
0.010665803069800
0.076230017200973
0.212132480033673
0.125192208578326
0.125001924211191
0.124849986107782
0.124823552031894
0.124867111722424
0.124985231981689
0.125132958485637
0.125559838420589
0.125843945319501
0.125994706728350
0.117857419951117
0.121073132632125
0.050096907326599
0.131057439667279
0.113040552308912
0.091988407479826
0.114608725895034
0.045719228749002
0.047473208043760
0.127721292931001
0.128162257941823
0.051164852252867
0.007542742381782
0.017218532638562
0.027551790157921
0.037485120857843
0.045209992654522
0.128189134966198
0.014257569624482
0.092657065204646
0.041218112489039
0.111893648818408
0.022521762053397
0.088759942078494
0.126777065363213
0.052821130979042
0.009138192693805
0.126935203000928
0.125207990284778
0.119848620919577
0.125818927474813
0.123619692660385
0.034624011784056
0.103410191521609
0.129830683966662
0.121677582964935
0.126478875386499
0.125909180149319
0.093296646548998
0.021732961002191
0.011906435108360
0.032049576824858
0.049469836898659
0.108495411791970
0.051681092223480
0.021481054088293
0.011561104933161
0.032490658687648
0.026540324812366
-0.006718419479942
-0.006730497162725
0.130022412696848
0.199484710879511
0.125598595582476
0.041469525680584
0.041431077924896
0.093018815244739
0.125967176852359
0.047011905636418
0.048109982106376
0.031993773356793
0.102552616137156
0.207286775319212
0.004041577868873
0.003734300548635
0.136358848791798
0.052686250817618
0.000369248248370
0.130923658829826
0.125495366656545
0.051450231558606
0.129851080516248
0.049755371631785
0.127398393837598
0.126865368047516
0.038127687311493
0.017497274189795
0.027825421214284
0.027774102531112
0.017241086441063
0.037966628265895
0.008085740890266
0.007615236034252
0.049950773614892
0.045586471008058
0.045410368109730
0.125381241830481
0.051456047777595
0.022798952094873
0.128343774476653
0.035950639223908
0.124558903619287
0.125407267323125
0.112873562806233
0.050135002532568
0.128315070653079
-0.004626814151450
0.002506623394282
0.128478486569003
0.128923641652436
0.125339070064297
0.126012862539849
0.115611783175923
0.010738174218224
0.064576917008964
0.098974235417611
0.128214778508813
0.068429186501606
0.078143237103257
0.204642544155074
0.130209590427522
0.100527079111757
0.126303991352781
0.049019435477252
0.125215675591130
0.125716072435019
0.051784911423336
0.116842503047480
0.103406115724874
0.082916248211098
0.080488595576310
0.125405472015678
0.083826651465225
0.051188209697779
0.048022751970994
0.023588204449199
0.013253362672643
0.034374433634273
0.022736258161981
0.013119010445828
0.033293473724034
0.112262886675487
0.034072455677456
0.023603619911970
0.020387647565317
0.013594316030051
0.030588711989434
0.126524691764315
0.049619998758026
0.124422468436935
0.041952450890582
0.126428551067687
0.260764227850579
0.019977919056862
0.010153297279880
0.030256861164087
0.106474076691407
0.126842142293889
0.031168478295450
0.020148158716430
0.157667337193156
0.123498192404249
0.009923318727301
0.113311460290889
0.010564135670002
0.051884026539778
0.125025733189527
0.053307671866715
0.208486670708257
0.050272816642174
0.124633768573631
0.126521462969650
0.042143862104020
0.042747918697670
0.124610512846384
0.040740847295258
0.040229615450525
0.004897596825681
0.124633568959396
0.047829853902865
0.125690241247888
0.087904164810614
0.050208514190218
0.125099984639944
0.130166970563963
0.014857400404716
0.034986604678771
0.024544031694685
0.014625779148874
0.124396081900303
0.047254932384923
0.177881740177756
0.123618526928212
0.125725660701444
0.126088708391938
0.005693371928036
0.002319762851904
0.002352891611175
0.117946286999335
0.046953041091983
0.126585610556601
0.047746132990639
0.174289352805118
0.051091731999361
0.040116628334117
0.129072498731641
0.019337977848116
0.029597207694110
0.128599510900993
0.050130554576913
-0.015949404211333
0.126678151061549
0.126596150066566
0.129100737759916
0.024366925003969
0.014374465755756
0.036070355870759
0.039351266727436
0.119970344091299
0.049725952259437
-0.017532560367311
0.005694472325856
0.030069792485684
0.019187431169707
0.051653332425545
0.051309507510273
0.046806413289235
0.044174114435469
0.042943496501850
0.043939483571740
0.046950597168681
0.005194083504074
0.006138946226752
0.154865920627765
0.103816028101243
0.049031148177559
0.089687704878306
0.126241871454839
0.051259163478134
0.156178825429931
0.045885640588000
0.001596410200460
0.001622077675320
-0.007048590405289
0.125185051352126
0.110946799580748
0.010421245450991
0.128454980087915
0.032533166732062
0.127729825282194
0.130454087856531
0.042322795550788
0.131381053333683
0.011677268899197
0.142294549579870
0.101970994303228
0.150978024773712
0.088783570632518
0.129941103085797
0.009135147466003
0.124748713639239
0.113640298051035
0.126902940580936
0.125628544323966
0.126194576080943
0.064858374401808
0.042805340885203
0.045178837100613
0.041781181798838
0.126547747670861
-0.000747403863940
0.075790288859638
0.118245853242194
0.051500311178061
0.048132941950551
0.041086874726029
0.009287026941495
0.124828389453255
0.129979189159044
-0.011529841799361
0.048505239251810
-0.003309172966946
0.052298894386841
0.110348945751703
0.141739294158089
-0.016525249102770
0.005891697343072
0.050900151024899
0.039698211921826
0.275559925991727
