# vtk DataFile Version 3.0
    
ASCII
DATASET UNSTRUCTURED_GRID
POINTS 211 float
0 0 0
1.5 0 0
5 0 0
5 1 0
1.5 1 0
0 1 0
0.6 0.5 0
0.8 0.5 0
0 0.7 0
0 0.3 0
0.1875 0 0
0.375 0 0
0.5625 0 0
0.75 0 0
0.9375 0 0
1.125 0 0
1.3125 0 0
1.6918 0 0
1.88885 0 0
2.0913 0 0
2.2993 0 0
2.513 0 0
2.73255 0 0
2.95812 0 0
3.18987 0 0
3.42797 0 0
3.67259 0 0
3.92392 0 0
4.18213 0 0
4.44742 0 0
4.71998 0 0
5 0.25 0
5 0.5 0
5 0.75 0
4.71998 1 0
4.44742 1 0
4.18213 1 0
3.92392 1 0
3.67259 1 0
3.42797 1 0
3.18987 1 0
2.95812 1 0
2.73255 1 0
2.513 1 0
2.2993 1 0
2.0913 1 0
1.88885 1 0
1.6918 1 0
1.3125 1 0
1.125 1 0
0.9375 1 0
0.75 1 0
0.5625 1 0
0.375 1 0
0.1875 1 0
0.65 0.413397 0
0.75 0.413397 0
0.75 0.586603 0
0.65 0.586603 0
0 0.85 0
0 0.5 0
0 0.15 0
1.28769 0.541691 0
1.80683 0.5 0
2.30689 0.5 0
1.04359 0.713578 0
1.04716 0.286804 0
0.379599 0.2959 0
0.317386 0.626876 0
2.81338 0.5 0
3.32407 0.5 0
3.72891 0.5 0
4.23765 0.502258 0
0.472788 0.749448 0
0.721932 0.786654 0
1.55349 0.68868 0
1.53853 0.312531 0
0.70188 0.211648 0
2.05686 0.688672 0
2.04751 0.313768 0
1.0294 0.501368 0
0.420557 0.474529 0
2.56014 0.688089 0
2.54704 0.312571 0
0.236458 0.443235 0
1.28789 0.750455 0
1.28789 0.249545 0
3.06872 0.697034 0
3.06625 0.304468 0
0.184397 0.775 0
0.522203 0.273985 0
4.68206 0.376541 0
0.185265 0.225424 0
0.885273 0.273205 0
0.887124 0.726274 0
0.490245 0.631933 0
1.76818 0.722484 0
1.80173 0.242436 0
3.58158 0.690095 0
3.58158 0.309905 0
4.09061 0.689854 0
4.09061 0.310381 0
4.61253 0.787422 0
2.28937 0.742276 0
2.30044 0.237789 0
2.81894 0.754953 0
2.87003 0.189647 0
0.125119 0.632046 0
3.32239 0.756666 0
3.32376 0.241505 0
0.534673 0.413811 0
0.326024 0.752415 0
0.862237 0.401053 0
0.864906 0.599215 0
0.427119 0.150723 0
3.8293 0.765298 0
3.8293 0.234732 0
1.49708 0.5 0
1.13064 0.425836 0
4.30011 0.235016 0
4.30852 0.766452 0
0.993856 0.143338 0
0.993184 0.85645 0
0.598965 0.696815 0
2.01108 0.491313 0
1.14028 0.166436 0
1.1393 0.833832 0
0.857948 0.873875 0
0.853702 0.125638 0
1.10726 0.581369 0
0.700676 0.340164 0
1.41871 0.827953 0
1.41667 0.17223 0
0.7 0.681457 0
0.123723 0.357777 0
2.51322 0.490201 0
0.575162 0.14066 0
0.284895 0.11752 0
3.02427 0.490966 0
1.62042 0.856275 0
1.63477 0.171695 0
1.95275 0.828728 0
1.95522 0.167941 0
1.39862 0.36965 0
1.40601 0.652783 0
4.78659 0.589575 0
0.268442 0.881771 0
1.65707 0.556616 0
0.587485 0.858654 0
2.14096 0.84741 0
2.14856 0.163903 0
0.401275 0.669361 0
1.69516 0.377293 0
3.52542 0.5 0
4.57233 0.212331 0
2.4565 0.168057 0
2.4565 0.831943 0
2.63815 0.1742 0
2.63424 0.850737 0
1.9119 0.638661 0
1.89965 0.363913 0
0.505172 0.52239 0
0.43204 0.873715 0
4.79951 0.201204 0
0.253163 0.325707 0
0.914589 0.500966 0
0.122301 0.119657 0
2.15496 0.558669 0
0.119547 0.880295 0
3.96773 0.50042 0
0.322715 0.513493 0
0.340949 0.405963 0
0.409558 0.573097 0
2.19637 0.376767 0
2.39843 0.36305 0
2.41948 0.644093 0
4.82127 0.825147 0
0.979636 0.606422 0
0.616283 0.331078 0
1.17314 0.684185 0
0.979337 0.396659 0
1.17071 0.301059 0
0.78542 0.329319 0
2.66481 0.557336 0
3.07598 0.133991 0
3.07338 0.863107 0
0.784793 0.67604 0
0.22416 0.558337 0
0.433203 0.382916 0
0.290471 0.226996 0
0.568876 0.587548 0
4.49997 0.495656 0
2.9058 0.370775 0
2.92344 0.620418 0
2.70981 0.374927 0
4.8603 0.375 0
3.55457 0.863076 0
3.55465 0.13683 0
0.136096 0.49468 0
1.78609 0.886365 0
1.7914 0.105357 0
0.229481 0.67404 0
3.17057 0.56505 0
0.0761447 0.225 0
0.0769458 0.775 0
1.26231 0.878964 0
1.263 0.121104 0
1.25823 0.378431 0
4.05664 0.864857 0
4.05303 0.127917 0
3.18178 0.420398 0
CELLS 360 1440
3 179 62 85
3 13 77 136
3 75 147 96
3 70 153 108
3 70 109 153
3 63 96 147
3 98 108 153
3 99 153 109
3 62 179 129
3 85 62 144
3 34 35 102
3 51 148 74
3 71 98 153
3 71 153 99
3 63 159 96
3 22 23 106
3 41 42 105
3 23 184 106
3 41 105 185
3 75 96 139
3 67 114 90
3 119 154 191
3 71 115 98
3 71 99 116
3 77 178 90
3 35 120 102
3 71 169 115
3 71 116 169
3 67 90 188
3 51 74 127
3 88 106 184
3 87 185 105
3 77 93 182
3 100 115 169
3 101 169 116
3 74 186 94
3 72 119 191
3 72 169 101
3 72 100 169
3 13 128 77
3 76 152 117
3 91 191 154
3 8 60 107
3 117 152 147
3 72 101 119
3 72 120 100
3 78 167 103
3 24 25 109
3 39 40 108
3 6 110 55
3 9 134 60
3 12 13 136
3 38 196 115
3 26 116 197
3 64 103 167
3 97 152 140
3 87 105 193
3 88 192 106
3 66 93 121
3 49 122 126
3 15 125 121
3 65 122 94
3 37 38 115
3 26 27 116
3 76 140 152
3 66 180 93
3 44 149 103
3 20 104 150
3 44 103 156
3 20 155 104
3 24 109 184
3 40 185 108
3 49 50 122
3 7 56 112
3 98 115 196
3 99 197 116
3 14 15 121
3 65 94 177
3 77 90 136
3 77 128 93
3 7 113 57
3 74 94 127
3 34 102 176
3 82 183 105
3 78 103 149
3 87 108 185
3 88 184 109
3 64 175 103
3 11 12 114
3 77 130 178
3 74 148 123
3 36 208 120
3 28 119 209
3 91 145 191
3 69 105 183
3 12 136 114
3 102 120 191
3 4 48 131
3 1 132 16
3 72 191 120
3 77 182 130
3 100 120 208
3 101 209 119
3 35 36 120
3 28 29 119
3 51 52 148
3 6 161 110
3 93 180 112
3 89 204 107
3 73 123 148
3 73 95 123
3 8 107 204
3 80 180 118
3 82 105 158
3 2 163 30
3 94 113 177
3 48 205 131
3 16 132 206
3 74 133 186
3 69 193 105
3 2 31 163
3 42 158 105
3 22 106 157
3 79 173 124
3 87 202 108
3 89 107 201
3 52 162 148
3 58 123 190
3 90 110 188
3 88 109 210
3 68 111 201
3 124 173 167
3 66 118 180
3 102 191 145
3 70 108 202
3 73 151 95
3 98 196 108
3 99 109 197
3 90 114 136
3 39 108 196
3 25 197 109
3 19 20 150
3 44 45 149
3 85 144 131
3 86 132 143
3 55 130 56
3 81 110 161
3 43 44 156
3 20 21 155
3 66 121 125
3 0 10 166
3 70 210 109
3 5 168 54
3 65 126 122
3 91 195 145
3 18 19 142
3 45 46 141
3 75 131 144
3 76 143 132
3 67 189 114
3 58 133 123
3 80 118 129
3 68 151 111
3 62 129 118
3 57 133 58
3 52 53 162
3 4 139 47
3 1 17 140
3 60 134 198
3 5 59 168
3 0 166 61
3 83 194 135
3 55 110 178
3 135 194 183
3 73 148 162
3 50 51 127
3 13 14 128
3 96 159 141
3 97 142 160
3 3 34 176
3 4 131 139
3 1 140 132
3 94 122 127
3 93 128 121
3 73 111 151
3 89 201 111
3 7 112 165
3 19 150 142
3 45 141 149
3 78 141 159
3 79 160 142
3 83 157 194
3 106 194 157
3 101 116 209
3 100 208 115
3 62 143 117
3 62 117 144
3 79 150 173
3 74 123 133
3 75 144 117
3 76 117 143
3 29 30 154
3 97 140 200
3 96 199 139
3 7 165 113
3 27 209 116
3 37 115 208
3 92 166 137
3 56 182 112
3 89 111 146
3 104 173 150
3 3 176 33
3 75 117 147
3 50 127 122
3 57 113 186
3 80 129 177
3 95 190 123
3 14 121 128
3 85 131 205
3 10 11 137
3 86 206 132
3 88 210 138
3 15 16 206
3 32 33 145
3 48 49 205
3 73 162 111
3 42 43 158
3 21 22 157
3 81 188 110
3 138 210 202
3 53 54 146
3 97 160 152
3 63 152 160
3 75 139 131
3 76 132 140
3 112 180 165
3 65 177 129
3 60 198 107
3 15 206 125
3 49 126 205
3 63 147 152
3 95 172 161
3 11 114 137
3 29 154 119
3 30 163 154
3 63 124 159
3 63 160 124
3 78 149 141
3 79 142 150
3 114 189 137
3 81 161 172
3 32 145 195
3 65 179 126
3 66 125 181
3 66 181 118
3 104 155 174
3 103 175 156
3 113 165 177
3 78 159 124
3 79 124 160
3 83 174 155
3 82 156 175
3 92 134 203
3 40 41 185
3 23 24 184
3 38 39 196
3 25 26 197
3 46 47 199
3 17 18 200
3 27 28 209
3 36 37 208
3 111 162 146
3 90 178 110
3 78 124 167
3 9 203 134
3 80 165 180
3 9 61 203
3 10 137 166
3 8 204 59
3 17 200 140
3 47 139 199
3 91 154 163
3 55 178 130
3 31 32 195
3 92 164 134
3 56 130 182
3 102 145 176
3 104 174 173
3 64 173 174
3 89 146 168
3 96 141 199
3 97 200 142
3 6 58 190
3 46 199 141
3 18 142 200
3 43 156 158
3 21 157 155
3 57 186 133
3 80 177 165
3 85 126 179
3 86 181 125
3 53 146 162
3 84 134 164
3 92 137 189
3 65 129 179
3 93 112 182
3 64 135 175
3 64 174 135
3 67 171 164
3 95 151 172
3 64 167 173
3 82 175 135
3 83 135 174
3 83 155 157
3 82 158 156
3 94 186 113
3 82 135 183
3 85 205 126
3 84 198 134
3 106 192 194
3 69 194 192
3 68 201 187
3 86 125 206
3 62 118 207
3 84 164 171
3 33 176 145
3 69 192 138
3 69 138 193
3 68 172 151
3 6 190 161
3 81 170 171
3 87 193 138
3 88 138 192
3 81 172 170
3 86 143 207
3 87 138 202
3 54 168 146
3 92 203 166
3 69 183 194
3 68 170 172
3 62 207 143
3 89 168 204
3 61 166 203
3 59 204 168
3 107 187 201
3 70 202 210
3 31 195 163
3 67 164 189
3 68 187 170
3 107 198 187
3 91 163 195
3 81 171 188
3 92 189 164
3 84 171 170
3 67 188 171
3 84 187 198
3 95 161 190
3 84 170 187
3 118 181 207
3 86 207 181
CELL_TYPES 360
5
5
5
5
5
5
5
5
5
5
5
5
5
5
5
5
5
5
5
5
5
5
5
5
5
5
5
5
5
5
5
5
5
5
5
5
5
5
5
5
5
5
5
5
5
5
5
5
5
5
5
5
5
5
5
5
5
5
5
5
5
5
5
5
5
5
5
5
5
5
5
5
5
5
5
5
5
5
5
5
5
5
5
5
5
5
5
5
5
5
5
5
5
5
5
5
5
5
5
5
5
5
5
5
5
5
5
5
5
5
5
5
5
5
5
5
5
5
5
5
5
5
5
5
5
5
5
5
5
5
5
5
5
5
5
5
5
5
5
5
5
5
5
5
5
5
5
5
5
5
5
5
5
5
5
5
5
5
5
5
5
5
5
5
5
5
5
5
5
5
5
5
5
5
5
5
5
5
5
5
5
5
5
5
5
5
5
5
5
5
5
5
5
5
5
5
5
5
5
5
5
5
5
5
5
5
5
5
5
5
5
5
5
5
5
5
5
5
5
5
5
5
5
5
5
5
5
5
5
5
5
5
5
5
5
5
5
5
5
5
5
5
5
5
5
5
5
5
5
5
5
5
5
5
5
5
5
5
5
5
5
5
5
5
5
5
5
5
5
5
5
5
5
5
5
5
5
5
5
5
5
5
5
5
5
5
5
5
5
5
5
5
5
5
5
5
5
5
5
5
5
5
5
5
5
5
5
5
5
5
5
5
5
5
5
5
5
5
5
5
5
5
5
5
5
5
5
5
5
5
5
5
5
5
5
5
5
5
5
5
5
5
5
5
5
5
5
5
5
5
5
5
5
5
5
5
5
5
5
5
POINT_DATA 211
SCALARS scalars float 1
LOOKUP_TABLE default
-0.082737729693112
-0.029300912281856
0.000114697064176
0.001472112975235
-0.031666651990332
-0.084047613040812
-0.180159507420318
0.011501072171391
-0.079356041217517
-0.079175382054435
-0.082616467148310
-0.083056927034089
-0.081586700525179
0.020184086930403
-0.011552355374898
0.006801453844314
-0.016783511248009
-0.029127261020262
-0.028384515811397
-0.025991367146744
-0.025382370522799
-0.022090137346093
-0.021379142270323
-0.018501966371970
-0.014815900639889
-0.015685634720866
-0.010874981024093
-0.010083394256627
-0.006051396929956
-0.006649719214161
-0.000943550632899
0.000218328399261
0.000859882093972
0.000910436457880
-0.002504718506648
-0.006242055844317
-0.006006672270534
-0.010203199792854
-0.011620058923382
-0.014997564515897
-0.016336871300341
-0.019570806298750
-0.020048870323020
-0.023369051770691
-0.022602812161265
-0.026629138699131
-0.027850242119584
-0.025408590505087
-0.019875186607354
0.003993444725737
-0.008521076757899
0.038292874908995
-0.077414986549674
-0.082702198608966
-0.083609185413280
-0.070233957593589
0.036484037139860
0.036095042871019
-0.025429439632444
-0.081047731437365
-0.078281289395787
-0.080726960659964
-0.021162718063381
-0.027075114318788
-0.023397811484313
0.000507586768546
-0.004784453850342
-0.075233907526774
-0.085432016147007
-0.020622050658637
-0.015703420187296
-0.011230254196660
-0.006751424907937
-0.077496342900778
0.041075299319172
-0.030013293605772
-0.029068086350306
0.003105258816581
-0.026463174631085
-0.027253653949250
-0.000675332555132
-0.071627271047367
-0.021716034292379
-0.022587895553781
-0.081861820147426
-0.019388744701399
-0.019264631357240
-0.017658882958553
-0.016727276802822
-0.082970081672419
-0.094847157003444
-0.002260451023703
-0.083022855901816
0.007092443873604
0.000667822820995
-0.065346092131762
-0.026373966460266
-0.028562611289278
-0.012939093440286
-0.012490525189640
-0.008027726408991
-0.007883391991986
-0.004181144285877
-0.022808035994673
-0.024698782886126
-0.020259886850054
-0.019904208306270
-0.085405930777225
-0.015945320629558
-0.015738460669673
-0.085154834599156
-0.083469219020343
0.011621460815454
0.016047067884972
-0.082286916419110
-0.010867255293055
-0.010133135874268
-0.029690903283603
0.003516055132951
-0.006453948669700
-0.006134932946137
-0.009507499557777
-0.003009641820481
-0.088077674965094
-0.027545609098849
0.006761278560180
0.002432858469071
0.001738546924859
0.008426858508695
0.003718506897410
0.007528724017536
-0.029199262610676
-0.026369415756770
0.039222493024314
-0.084012822230443
-0.022705568733818
-0.078926287426465
-0.081671975502661
-0.017716736940538
-0.028371128687394
-0.029119238594916
-0.028291508833714
-0.028036710953844
-0.026026380403738
-0.027232460251132
-0.001241448770021
-0.082878756327293
-0.027292041304811
-0.073195555915682
-0.024868557710292
-0.026295568601327
-0.079546858353167
-0.026980173046080
-0.013404425702383
-0.004068698309233
-0.022329634621943
-0.023766922318684
-0.021840532526656
-0.021031622547084
-0.028472777736148
-0.028262717557385
-0.046654121630013
-0.081524543742089
-0.000611543764942
-0.084466903529965
0.008886083202960
-0.083790195252314
-0.024948898614190
-0.084928845536445
-0.008851337823975
-0.086978389390893
-0.085276614958962
-0.079892804710777
-0.024797755666500
-0.023333469989139
-0.023275522732163
-0.000877027679316
-0.002409096415952
-0.076471990403483
-0.001952109632656
-0.002203897752224
0.003571844103540
0.021247438147305
-0.020708327687882
-0.015985643299053
-0.017648024605050
0.020103619247854
-0.081077738309833
-0.069209456182805
-0.082629285523519
-0.125847711478640
-0.004217243937047
-0.019936979420623
-0.019147589981479
-0.021212906691878
-0.000372877195461
-0.012862481642860
-0.012879966808690
-0.085277429882743
-0.026277942587044
-0.028755765167174
-0.082445765064737
-0.016823143703724
-0.083342609414796
-0.085135918036527
-0.014787257736395
-0.012202126592555
-0.018451102715104
-0.007860178120213
-0.007887593042807
-0.016452197126011
