# vtk DataFile Version 3.0
    
ASCII
DATASET UNSTRUCTURED_GRID
POINTS 489 float
0 0 0
1.5 0 0
5 0 0
5 1 0
1.5 1 0
0 1 0
0.5 0.47 0
0.9 0.47 0
0 0.7 0
0 0.3 0
0.1 0 0
0.2 0 0
0.3 0 0
0.4 0 0
0.5 0 0
0.6 0 0
0.7 0 0
0.8 0 0
0.9 0 0
1 0 0
1.1 0 0
1.2 0 0
1.3 0 0
1.4 0 0
1.5984 0 0
1.69956 0 0
1.80357 0 0
1.91051 0 0
2.02044 0 0
2.13347 0 0
2.24968 0 0
2.36916 0 0
2.49199 0 0
2.61828 0 0
2.74812 0 0
2.8816 0 0
3.01884 0 0
3.15994 0 0
3.30501 0 0
3.45415 0 0
3.60749 0 0
3.76514 0 0
3.92722 0 0
4.09385 0 0
4.26518 0 0
4.44131 0 0
4.6224 0 0
4.80858 0 0
5 0.2 0
5 0.4 0
5 0.6 0
5 0.8 0
4.80858 1 0
4.6224 1 0
4.44131 1 0
4.26518 1 0
4.09385 1 0
3.92722 1 0
3.76514 1 0
3.60749 1 0
3.45415 1 0
3.30501 1 0
3.15994 1 0
3.01884 1 0
2.8816 1 0
2.74812 1 0
2.61828 1 0
2.49199 1 0
2.36916 1 0
2.24968 1 0
2.13347 1 0
2.02044 1 0
1.91051 1 0
1.80357 1 0
1.69956 1 0
1.5984 1 0
1.4 1 0
1.3 1 0
1.2 1 0
1.1 1 0
1 1 0
0.9 1 0
0.8 1 0
0.7 1 0
0.6 1 0
0.5 1 0
0.4 1 0
0.3 1 0
0.2 1 0
0.1 1 0
0.519806 0.383223 0
0.575302 0.313634 0
0.655496 0.275014 0
0.744504 0.275014 0
0.824698 0.313634 0
0.880194 0.383223 0
0.880194 0.556777 0
0.824698 0.626366 0
0.744504 0.664986 0
0.655496 0.664986 0
0.575302 0.626366 0
0.519806 0.556777 0
0 0.9 0
0 0.8 0
0 0.6 0
0 0.5 0
0 0.4 0
0 0.2 0
0 0.1 0
1.40099 0.496376 0
1.89214 0.506216 0
2.41102 0.477852 0
2.91108 0.478007 0
3.40314 0.5 0
1.16123 0.692207 0
3.9037 0.5 0
1.66047 0.694833 0
1.64898 0.309882 0
1.17945 0.308013 0
0.28156 0.721492 0
4.40736 0.520836 0
0.269049 0.270911 0
2.14971 0.687523 0
2.14971 0.312477 0
1.40126 0.749997 0
1.41122 0.245947 0
2.65104 0.68469 0
2.62273 0.321156 0
0.274069 0.492681 0
1.88913 0.760641 0
1.89258 0.243293 0
0.966488 0.785463 0
3.15185 0.313085 0
3.15185 0.686915 0
1.08965 0.505868 0
0.46166 0.800488 0
0.994189 0.202561 0
2.39227 0.750471 0
2.39227 0.249529 0
3.63633 0.708727 0
3.64027 0.280157 0
0.438319 0.18439 0
1.59636 0.5 0
2.8572 0.776154 0
2.86628 0.223315 0
4.15435 0.690831 0
4.14491 0.314889 0
0.703499 0.835703 0
4.68889 0.685899 0
4.68889 0.314101 0
2.08316 0.492476 0
3.37906 0.747319 0
3.37602 0.246667 0
1.25311 0.835501 0
1.55428 0.842304 0
0.172617 0.851099 0
1.55888 0.167903 0
1.26745 0.160693 0
0.154592 0.606265 0
0.844168 0.152019 0
1.00678 0.642169 0
1.25047 0.561912 0
1.74092 0.834534 0
1.74235 0.166053 0
0.151359 0.385356 0
0.159785 0.150355 0
1.04119 0.362921 0
1.32354 0.357347 0
0.390128 0.610052 0
0.372128 0.379048 0
2.04425 0.841011 0
2.04425 0.158989 0
1.48692 0.621764 0
3.88963 0.745884 0
3.89677 0.249121 0
1.7478 0.560431 0
2.6244 0.502616 0
1.50997 0.372298 0
0.578544 0.153443 0
1.10308 0.849359 0
1.79476 0.377753 0
0.335713 0.857799 0
0.841572 0.863982 0
1.99694 0.628055 0
2.00108 0.361727 0
1.12553 0.135814 0
2.23204 0.841145 0
2.23401 0.158351 0
4.39872 0.248226 0
4.39716 0.761556 0
2.54854 0.832711 0
2.54854 0.167289 0
0.308119 0.137984 0
0.712798 0.149633 0
2.25456 0.564374 0
3.09571 0.5 0
2.29614 0.377929 0
0.589528 0.890868 0
1.28084 0.687121 0
2.49343 0.620656 0
2.49822 0.37154 0
2.74336 0.830377 0
2.74428 0.181786 0
3.58629 0.522784 0
0.448056 0.677212 0
0.834536 0.728185 0
1.37141 0.855072 0
1.44562 0.123637 0
1.19769 0.413631 0
3.04906 0.171958 0
3.04906 0.828042 0
0.567271 0.752595 0
2.72641 0.566849 0
1.79346 0.666648 0
0.119403 0.713748 0
1.85338 0.876282 0
1.85994 0.122325 0
0.117004 0.280908 0
3.27088 0.165544 0
3.26698 0.841228 0
0.993325 0.524713 0
0.42701 0.297812 0
2.79634 0.378058 0
0.405103 0.485998 0
0.11854 0.497493 0
4.10895 0.491881 0
2.99251 0.619824 0
2.99813 0.371842 0
0.919248 0.281287 0
1.39259 0.620836 0
3.54752 0.847045 0
3.5458 0.146483 0
0.944357 0.102553 0
0.940808 0.894235 0
1.68822 0.419005 0
3.2382 0.450983 0
0.919182 0.694231 0
4.807 0.5 0
1.64645 0.896231 0
0.27296 0.607594 0
1.06498 0.749089 0
1.90672 0.593356 0
2.29329 0.687375 0
0.267036 0.382521 0
1.10913 0.600247 0
1.65016 0.0991258 0
1.51157 0.270586 0
3.30323 0.616834 0
1.54843 0.72456 0
0.391477 0.742824 0
2.43756 0.87289 0
2.43756 0.12711 0
0.445781 0.900621 0
1.27114 0.266576 0
3.49297 0.631828 0
3.51832 0.383193 0
1.08274 0.271441 0
3.76052 0.822527 0
3.75559 0.176119 0
4.59963 0.50248 0
1.75363 0.275598 0
0.526344 0.228309 0
4.02636 0.174835 0
4.02668 0.825268 0
0.25437 0.911281 0
1.28832 0.456324 0
3.75473 0.548031 0
0.490387 0.101801 0
2.19937 0.431678 0
1.35543 0.0834599 0
0.362783 0.24611 0
0.762116 0.908712 0
1.6435 0.792409 0
1.47432 0.905718 0
4.53148 0.166863 0
4.53126 0.834534 0
3.8063 0.364052 0
0.395967 0.0973662 0
1.59318 0.597647 0
1.49773 0.5229 0
2.13868 0.884343 0
2.13901 0.115573 0
2.75835 0.703239 0
1.05239 0.100071 0
1.97392 0.908416 0
1.97502 0.091352 0
3.9917 0.360199 0
4.00268 0.62827 0
2.38455 0.612904 0
1.65118 0.209092 0
0.979574 0.433519 0
1.18935 0.884523 0
4.24387 0.170538 0
4.2491 0.831315 0
4.83821 0.162778 0
4.83821 0.837222 0
2.00301 0.741646 0
1.99884 0.262021 0
1.41388 0.343543 0
0.700823 0.747674 0
2.93662 0.875339 0
2.93499 0.124172 0
0.09654 0.90346 0
0.649423 0.083992 0
0.661449 0.911763 0
1.90354 0.348417 0
0.256694 0.80968 0
1.17139 0.788838 0
1.1123 0.416023 0
0.24181 0.0866873 0
4.25131 0.55355 0
1.59395 0.389764 0
1.20182 0.0983026 0
1.17099 0.204767 0
1.78539 0.478829 0
1.03753 0.915096 0
2.25677 0.279642 0
4.29394 0.381646 0
0.780641 0.0880509 0
0.84898 0.234838 0
1.99338 0.536155 0
2.6929 0.421858 0
0.0914401 0.0914401 0
3.26738 0.301135 0
3.40931 0.86215 0
3.40917 0.136898 0
0.0706149 0.357341 0
1.53384 0.073576 0
2.09516 0.601694 0
0.071956 0.637879 0
4.49836 0.367459 0
4.4899 0.654885 0
0.203624 0.682356 0
2.30942 0.0877311 0
2.30942 0.912269 0
0.239989 0.187201 0
1.31606 0.767428 0
2.66687 0.899077 0
2.667 0.102661 0
0.199475 0.528954 0
2.88078 0.610285 0
1.46624 0.804875 0
2.12119 0.774562 0
2.13018 0.224692 0
1.74957 0.922396 0
1.75112 0.0775009 0
0.440198 0.401083 0
0.77681 0.199315 0
1.36026 0.188401 0
1.2953 0.912407 0
2.0841 0.397779 0
2.50888 0.728414 0
2.5023 0.260292 0
1.17675 0.510225 0
1.5565 0.924547 0
0.197339 0.311408 0
0.648055 0.191957 0
0.779135 0.807061 0
0.0859996 0.800808 0
0.440661 0.552637 0
0.626614 0.808825 0
2.39224 0.353726 0
0.941063 0.606054 0
1.2017 0.61426 0
1.80099 0.775833 0
3.18378 0.572097 0
1.72787 0.752851 0
0.964705 0.350567 0
0.202096 0.457401 0
0.915859 0.184717 0
0.083248 0.196323 0
2.75316 0.2833 0
0.860879 0.0718944 0
4.85282 0.329642 0
4.85282 0.670358 0
1.47836 0.195936 0
2.30919 0.474608 0
1.33682 0.550146 0
1.95413 0.175596 0
1.95411 0.820289 0
2.81201 0.0935166 0
2.8115 0.907266 0
1.37754 0.420256 0
0.990912 0.711416 0
0.885035 0.797643 0
3.86996 0.119422 0
3.87384 0.878736 0
3.78484 0.688692 0
1.68162 0.517886 0
2.51425 0.51277 0
0.35 0.935445 0
1.81374 0.214054 0
1.2474 0.356887 0
1.68482 0.610919 0
2.06137 0.92438 0
2.06157 0.0755753 0
1.45412 0.700606 0
0.34745 0.672528 0
2.58931 0.602445 0
0.0694759 0.566483 0
0.0696088 0.429055 0
3.38401 0.364646 0
1.02578 0.837836 0
0.565159 0.0701956 0
1.4605 0.444107 0
2.6398 0.789055 0
2.63975 0.214031 0
1.00124 0.293221 0
3.25766 0.730029 0
0.33415 0.315232 0
0.344613 0.445986 0
0.345261 0.537079 0
0.849713 0.937883 0
1.23653 0.754219 0
1.3521 0.28593 0
0.39531 0.814352 0
2.32692 0.815209 0
2.32601 0.180472 0
0.189604 0.762678 0
1.07714 0.187632 0
0.526589 0.925162 0
2.59081 0.419114 0
3.01173 0.269274 0
3.00368 0.730462 0
1.7214 0.34556 0
3.13647 0.106595 0
3.13647 0.893405 0
1.83041 0.300992 0
4.37611 0.117125 0
4.37304 0.883949 0
2.0732 0.686696 0
2.07278 0.311739 0
0.167209 0.931087 0
2.21686 0.745204 0
2.89656 0.35314 0
1.97023 0.443862 0
1.06748 0.66347 0
2.55424 0.0746107 0
2.55423 0.925516 0
1.82671 0.557437 0
0.531273 0.831206 0
1.5317 0.445814 0
0.327004 0.784787 0
0.596748 0.232471 0
1.91785 0.678069 0
3.67547 0.421389 0
0.485133 0.617531 0
4.31346 0.674183 0
1.119 0.926723 0
1.13595 0.0668376 0
1.11795 0.348073 0
1.86626 0.42836 0
2.8091 0.473534 0
4.69355 0.881935 0
4.69355 0.118065 0
1.04881 0.446952 0
2.16283 0.550512 0
1.42671 0.563171 0
1.35763 0.690125 0
0.328859 0.0675329 0
3.65973 0.880744 0
3.65683 0.113692 0
3.87887 0.619301 0
0.177736 0.232851 0
1.30089 0.614764 0
0.367768 0.176483 0
0.535294 0.69032 0
0.158562 0.0643069 0
1.59249 0.25775 0
0.707533 0.218187 0
2.99546 0.530049 0
0.768987 0.725168 0
1.04124 0.581695 0
0.30545 0.209528 0
2.21312 0.072331 0
2.21266 0.927551 0
1.27 0.0681889 0
0.617105 0.718901 0
3.09633 0.398299 0
3.1441 0.210732 0
3.1441 0.789268 0
0.501467 0.739884 0
0.501238 0.323004 0
2.20866 0.634903 0
3.08828 0.601955 0
3.50051 0.743062 0
3.49684 0.261907 0
1.45 0.0507898 0
1.57139 0.320056 0
CELLS 869 3476
3 444 213 241
3 129 213 444
3 37 38 425
3 426 61 62
3 392 167 265
3 208 392 265
3 56 263 293
3 43 292 262
3 76 349 206
3 178 261 267
3 141 267 261
3 143 381 201
3 144 202 380
3 316 268 123
3 2 294 47
3 3 52 295
3 16 318 303
3 146 317 225
3 450 208 308
3 110 320 241
3 151 247 254
3 113 254 247
3 7 220 96
3 425 38 218
3 219 61 426
3 351 137 288
3 199 351 288
3 183 241 320
3 196 316 361
3 225 317 310
3 13 267 277
3 196 268 316
3 97 236 205
3 140 258 276
3 193 303 318
3 135 440 252
3 199 398 351
3 252 440 420
3 13 14 267
3 72 73 215
3 26 27 216
3 194 376 288
3 361 316 138
3 282 405 126
3 118 208 450
3 179 240 307
3 127 200 352
3 125 246 298
3 2 48 294
3 3 295 51
3 111 200 389
3 114 363 198
3 8 214 358
3 175 439 213
3 76 206 273
3 76 77 349
3 120 331 447
3 201 405 282
3 5 102 302
3 5 302 89
3 177 298 246
3 174 276 258
3 9 370 217
3 351 398 126
3 113 247 235
3 168 204 397
3 170 296 342
3 171 343 297
3 111 361 200
3 342 296 430
3 343 431 297
3 485 324 151
3 486 152 325
3 131 384 236
3 93 319 94
3 172 278 248
3 55 56 293
3 43 44 292
3 113 203 254
3 113 255 203
3 143 300 381
3 144 380 301
3 127 421 200
3 116 248 278
3 97 205 471
3 60 324 230
3 39 231 325
3 59 60 230
3 39 40 231
3 213 439 241
3 143 201 282
3 111 288 376
3 78 291 349
3 84 197 304
3 153 336 206
3 73 344 215
3 26 216 345
3 93 347 319
3 256 419 313
3 139 254 203
3 136 232 283
3 137 351 250
3 138 251 352
3 111 376 361
3 114 198 413
3 124 206 336
3 9 107 370
3 156 207 327
3 176 212 398
3 102 358 302
3 34 380 338
3 65 337 381
3 244 353 363
3 139 460 230
3 140 231 461
3 114 307 240
3 8 358 103
3 7 95 290
3 202 338 380
3 201 381 337
3 126 398 212
3 118 256 313
3 97 362 236
3 84 420 197
3 200 421 389
3 99 477 100
3 169 221 346
3 150 435 350
3 353 134 308
3 190 250 351
3 191 352 251
3 97 471 98
3 205 236 384
3 36 209 301
3 63 300 210
3 152 323 218
3 96 220 362
3 134 353 244
3 176 321 212
3 139 203 266
3 100 477 466
3 196 361 376
3 230 324 485
3 231 486 325
3 96 362 97
3 102 103 358
3 181 415 252
3 208 353 308
3 139 257 460
3 140 461 258
3 56 57 263
3 42 43 262
3 95 367 290
3 242 416 433
3 221 482 346
3 174 262 286
3 173 287 263
3 94 228 95
3 57 386 263
3 42 262 385
3 189 447 331
3 162 215 344
3 163 345 216
3 169 409 221
3 204 249 397
3 194 288 242
3 181 252 390
3 141 261 221
3 126 405 351
3 127 352 406
3 120 447 310
3 235 247 365
3 0 10 322
3 0 322 108
3 116 393 213
3 144 371 202
3 234 314 388
3 180 314 234
3 77 78 349
3 131 236 383
3 108 322 370
3 124 341 206
3 152 218 325
3 151 324 219
3 145 263 287
3 146 286 262
3 175 213 393
3 162 364 215
3 118 392 208
3 168 446 204
3 90 346 482
3 126 212 282
3 197 420 440
3 153 206 349
3 156 375 207
3 172 279 278
3 151 219 408
3 174 286 276
3 115 276 286
3 154 248 272
3 207 375 348
3 136 283 419
3 142 278 279
3 74 75 238
3 36 425 209
3 63 210 426
3 125 348 375
3 203 255 445
3 18 19 232
3 149 237 259
3 148 259 237
3 176 389 421
3 119 332 239
3 129 215 364
3 140 445 255
3 107 108 370
3 72 215 284
3 27 285 216
3 179 402 240
3 116 272 248
3 137 416 242
3 146 292 317
3 80 81 233
3 194 268 376
3 6 359 223
3 4 76 273
3 7 290 220
3 194 456 268
3 53 54 275
3 45 46 274
3 150 320 435
3 130 297 305
3 141 221 270
3 121 243 355
3 131 233 384
3 54 429 275
3 45 274 428
3 208 265 353
3 117 289 260
3 223 410 346
3 218 323 479
3 6 223 346
3 410 169 346
3 182 384 233
3 221 409 270
3 116 213 366
3 163 260 289
3 184 305 297
3 204 481 249
3 172 396 229
3 188 317 292
3 31 32 251
3 67 68 250
3 154 341 248
3 198 363 464
3 38 325 218
3 61 219 324
3 115 266 276
3 127 371 321
3 226 484 423
3 163 216 391
3 158 332 214
3 145 293 263
3 146 262 292
3 157 348 253
3 248 341 396
3 8 329 214
3 115 286 225
3 115 225 287
3 164 368 224
3 135 249 481
3 164 217 355
3 137 242 288
3 158 214 329
3 179 307 291
3 227 422 478
3 119 239 397
3 24 25 245
3 142 388 278
3 164 326 217
3 132 479 323
3 49 50 237
3 278 388 393
3 423 143 340
3 222 371 434
3 147 304 360
3 253 348 414
3 153 291 307
3 133 423 484
3 111 389 288
3 222 321 371
3 163 289 245
3 186 433 416
3 158 239 332
3 121 409 243
3 19 283 232
3 129 379 215
3 130 216 378
3 130 391 216
3 142 311 234
3 129 364 213
3 226 423 340
3 132 478 422
3 16 17 318
3 9 217 326
3 144 434 371
3 145 287 225
3 146 225 286
3 162 238 272
3 161 353 265
3 156 245 289
3 211 466 477
3 138 316 417
3 212 452 340
3 154 272 238
3 112 227 470
3 197 360 304
3 199 288 389
3 11 12 309
3 134 472 220
3 184 350 435
3 158 399 224
3 185 312 313
3 136 228 369
3 134 220 455
3 149 330 274
3 148 275 331
3 157 313 312
3 87 88 264
3 85 86 252
3 185 313 419
3 112 434 227
3 158 224 339
3 145 225 310
3 74 238 344
3 164 224 400
3 178 303 356
3 87 264 390
3 193 356 303
3 195 470 227
3 168 397 239
3 22 23 269
3 35 36 301
3 63 64 300
3 105 400 224
3 195 478 235
3 188 274 330
3 189 331 275
3 298 404 382
3 33 34 338
3 65 66 337
3 177 404 298
3 118 313 253
3 229 396 458
3 12 459 309
3 132 235 478
3 32 437 251
3 67 250 438
3 23 487 269
3 128 239 339
3 94 319 228
3 175 388 314
3 131 240 402
3 195 227 478
3 174 385 262
3 173 263 386
3 164 355 243
3 132 422 479
3 133 480 423
3 190 351 405
3 191 406 352
3 105 224 399
3 157 253 313
3 112 340 452
3 112 452 434
3 80 233 315
3 266 445 276
3 162 344 238
3 158 339 239
3 182 233 412
3 207 487 327
3 181 390 264
3 117 234 311
3 187 316 343
3 131 402 233
3 193 318 347
3 159 347 318
3 163 245 345
3 78 79 448
3 24 245 327
3 195 235 365
3 143 423 300
3 144 301 422
3 188 428 274
3 189 275 429
3 147 357 271
3 207 269 487
3 78 448 291
3 135 252 415
3 95 228 367
3 191 251 437
3 190 438 250
3 222 434 452
3 19 20 283
3 156 327 245
3 81 412 233
3 82 83 271
3 6 101 359
3 181 264 306
3 188 330 317
3 120 317 330
3 132 323 235
3 182 271 357
3 153 349 291
3 123 343 316
3 220 472 362
3 71 72 284
3 27 28 285
3 161 363 353
3 169 243 409
3 155 306 264
3 75 354 238
3 25 345 245
3 141 277 267
3 210 300 423
3 209 422 301
3 172 229 457
3 68 334 250
3 31 251 333
3 134 244 472
3 139 230 485
3 140 486 231
3 159 372 232
3 159 232 369
3 154 238 354
3 136 369 232
3 205 384 357
3 62 63 426
3 36 37 425
3 228 319 369
3 212 340 282
3 83 84 304
3 86 390 252
3 48 49 373
3 50 51 374
3 59 230 460
3 40 461 231
3 136 407 228
3 150 268 456
3 206 341 273
3 168 239 411
3 183 320 328
3 120 310 317
3 79 80 315
3 207 348 269
3 113 235 401
3 196 376 268
3 212 321 452
3 122 342 430
3 83 304 271
3 194 242 483
3 123 431 343
3 148 331 259
3 149 259 330
3 142 234 388
3 147 271 304
3 150 328 320
3 117 424 234
3 182 357 384
3 128 411 239
3 160 362 472
3 124 396 341
3 18 232 372
3 149 373 237
3 148 237 374
3 48 373 294
3 51 295 374
3 178 443 261
3 147 299 357
3 160 236 362
3 486 401 152
3 223 359 411
3 255 401 486
3 221 261 482
3 148 453 275
3 149 274 454
3 169 410 243
3 168 411 359
3 138 352 361
3 161 464 363
3 180 234 424
3 185 419 283
3 98 299 99
3 100 446 101
3 100 466 446
3 133 365 247
3 58 257 386
3 41 385 258
3 151 408 247
3 131 383 240
3 200 361 352
3 209 479 422
3 210 423 480
3 128 243 410
3 160 383 236
3 120 330 259
3 120 259 331
3 214 418 358
3 156 468 246
3 148 295 453
3 149 454 294
3 187 417 316
3 110 241 439
3 220 290 455
3 49 237 373
3 50 374 237
3 15 16 303
3 305 435 451
3 139 387 257
3 147 360 299
3 155 358 418
3 133 247 408
3 156 246 375
3 114 240 436
3 139 485 254
3 140 255 486
3 119 306 418
3 184 435 305
3 125 414 348
3 91 482 261
3 128 368 243
3 155 302 358
3 41 258 461
3 58 460 257
3 125 375 246
3 84 85 420
3 8 104 329
3 160 436 383
3 136 256 407
3 215 379 284
3 216 285 378
3 192 335 309
3 114 244 363
3 224 368 339
3 183 444 241
3 143 282 340
3 137 250 416
3 138 417 251
3 299 471 357
3 164 243 368
3 112 470 340
3 4 273 354
3 118 253 392
3 29 30 474
3 69 70 475
3 70 280 475
3 29 474 281
3 123 268 350
3 173 257 387
3 165 309 335
3 119 418 332
3 192 309 459
3 165 463 370
3 182 412 271
3 165 370 322
3 240 383 436
3 226 340 470
3 172 248 396
3 114 436 244
3 167 392 253
3 20 449 283
3 178 356 443
3 177 246 488
3 4 354 75
3 38 39 325
3 60 61 324
3 186 280 342
3 187 343 281
3 57 58 386
3 41 42 385
3 167 382 265
3 113 401 255
3 151 254 485
3 166 407 256
3 28 29 395
3 70 71 394
3 105 106 400
3 150 350 268
3 109 265 382
3 9 326 106
3 119 397 249
3 155 264 432
3 166 256 450
3 82 271 412
3 203 445 266
3 157 269 348
3 1 24 327
3 167 253 414
3 14 403 267
3 217 370 463
3 30 31 333
3 68 69 334
3 85 252 420
3 114 413 307
3 40 41 461
3 58 59 460
3 122 328 483
3 29 281 395
3 70 394 280
3 135 415 249
3 154 273 341
3 158 329 399
3 142 441 311
3 233 402 315
3 119 249 442
3 168 359 446
3 91 261 443
3 73 74 344
3 25 26 345
3 161 265 377
3 299 360 477
3 17 18 372
3 174 258 385
3 173 386 257
3 328 456 483
3 170 342 280
3 171 281 343
3 157 476 269
3 162 272 366
3 136 419 256
3 154 354 273
3 14 15 403
3 163 391 260
3 88 89 432
3 21 22 476
3 118 450 256
3 6 346 90
3 109 377 265
3 159 319 347
3 116 366 272
3 12 13 459
3 104 105 399
3 235 323 401
3 117 260 424
3 202 371 406
3 156 289 468
3 13 277 459
3 185 283 449
3 223 411 410
3 139 266 387
3 79 315 448
3 89 302 432
3 229 377 457
3 180 424 260
3 109 457 377
3 166 290 367
3 20 21 449
3 178 267 403
3 1 327 487
3 54 55 429
3 44 45 428
3 164 400 326
3 127 406 371
3 180 260 427
3 155 432 302
3 128 410 411
3 124 458 396
3 21 476 312
3 115 462 266
3 34 35 380
3 64 65 381
3 17 372 318
3 88 432 264
3 55 293 429
3 44 428 292
3 64 381 300
3 35 301 380
3 46 47 454
3 52 53 453
3 250 334 416
3 251 417 333
3 166 455 290
3 165 467 309
3 175 393 388
3 149 294 373
3 148 374 295
3 170 284 379
3 171 378 285
3 170 280 394
3 171 395 281
3 222 452 321
3 166 308 455
3 157 312 476
3 86 87 390
3 92 469 93
3 121 270 409
3 47 294 454
3 52 453 295
3 116 278 393
3 129 296 379
3 130 378 297
3 141 465 277
3 199 389 398
3 142 279 441
3 121 463 335
3 140 276 445
3 109 404 279
3 145 447 293
3 21 312 449
3 22 269 476
3 153 307 413
3 167 298 382
3 165 322 467
3 170 379 296
3 171 297 378
3 172 457 279
3 71 284 394
3 28 395 285
3 176 398 389
3 178 403 303
3 170 394 284
3 171 285 395
3 198 458 336
3 192 277 465
3 152 401 323
3 121 355 463
3 167 414 298
3 81 82 412
3 10 11 467
3 32 33 437
3 66 67 438
3 141 270 465
3 124 336 458
3 189 293 447
3 46 454 274
3 53 275 453
3 173 462 287
3 160 472 436
3 159 318 372
3 121 473 270
3 204 446 466
3 109 279 457
3 144 422 434
3 166 450 308
3 244 436 472
3 15 303 403
3 1 487 23
3 91 443 92
3 227 434 422
3 129 444 296
3 125 298 414
3 115 287 462
3 179 291 448
3 119 442 306
3 180 305 451
3 159 369 319
3 153 413 336
3 186 475 280
3 187 281 474
3 188 292 428
3 189 429 293
3 128 339 368
3 179 315 402
3 90 482 91
3 192 459 277
3 180 427 305
3 183 296 444
3 117 468 289
3 186 342 433
3 130 305 427
3 184 297 431
3 127 321 421
3 183 430 296
3 177 488 311
3 228 407 367
3 110 439 314
3 155 418 306
3 177 311 441
3 166 367 407
3 122 483 433
3 181 306 442
3 162 366 364
3 229 458 464
3 180 451 314
3 201 337 405
3 202 406 338
3 98 471 299
3 145 310 447
3 213 364 366
3 99 299 477
3 117 311 488
3 110 451 435
3 134 455 308
3 109 382 404
3 92 356 469
3 175 314 439
3 242 433 483
3 10 467 322
3 104 399 329
3 106 326 400
3 123 350 431
3 185 449 312
3 198 464 458
3 165 335 463
3 176 421 321
3 211 360 440
3 214 332 418
3 179 448 315
3 110 435 320
3 190 405 337
3 191 338 406
3 11 309 467
3 110 314 451
3 266 462 387
3 198 336 413
3 186 416 334
3 187 333 417
3 92 443 356
3 205 357 471
3 183 328 430
3 197 440 360
3 190 337 438
3 191 437 338
3 260 391 427
3 66 438 337
3 33 338 437
3 130 427 391
3 133 408 480
3 184 431 350
3 122 430 328
3 187 474 333
3 186 334 475
3 211 477 360
3 279 404 441
3 219 480 408
3 122 433 342
3 150 456 328
3 30 333 474
3 69 475 334
3 121 335 473
3 93 469 347
3 101 446 359
3 192 473 335
3 173 387 462
3 229 464 377
3 193 347 469
3 226 470 484
3 217 463 355
3 249 415 442
3 177 441 404
3 211 440 481
3 195 484 470
3 193 469 356
3 181 442 415
3 135 481 440
3 161 377 464
3 133 484 365
3 194 483 456
3 195 365 484
3 117 488 468
3 209 425 479
3 210 480 426
3 218 479 425
3 219 426 480
3 270 473 465
3 192 465 473
3 211 481 466
3 204 466 481
3 246 468 488
CELL_TYPES 869
5
5
5
5
5
5
5
5
5
5
5
5
5
5
5
5
5
5
5
5
5
5
5
5
5
5
5
5
5
5
5
5
5
5
5
5
5
5
5
5
5
5
5
5
5
5
5
5
5
5
5
5
5
5
5
5
5
5
5
5
5
5
5
5
5
5
5
5
5
5
5
5
5
5
5
5
5
5
5
5
5
5
5
5
5
5
5
5
5
5
5
5
5
5
5
5
5
5
5
5
5
5
5
5
5
5
5
5
5
5
5
5
5
5
5
5
5
5
5
5
5
5
5
5
5
5
5
5
5
5
5
5
5
5
5
5
5
5
5
5
5
5
5
5
5
5
5
5
5
5
5
5
5
5
5
5
5
5
5
5
5
5
5
5
5
5
5
5
5
5
5
5
5
5
5
5
5
5
5
5
5
5
5
5
5
5
5
5
5
5
5
5
5
5
5
5
5
5
5
5
5
5
5
5
5
5
5
5
5
5
5
5
5
5
5
5
5
5
5
5
5
5
5
5
5
5
5
5
5
5
5
5
5
5
5
5
5
5
5
5
5
5
5
5
5
5
5
5
5
5
5
5
5
5
5
5
5
5
5
5
5
5
5
5
5
5
5
5
5
5
5
5
5
5
5
5
5
5
5
5
5
5
5
5
5
5
5
5
5
5
5
5
5
5
5
5
5
5
5
5
5
5
5
5
5
5
5
5
5
5
5
5
5
5
5
5
5
5
5
5
5
5
5
5
5
5
5
5
5
5
5
5
5
5
5
5
5
5
5
5
5
5
5
5
5
5
5
5
5
5
5
5
5
5
5
5
5
5
5
5
5
5
5
5
5
5
5
5
5
5
5
5
5
5
5
5
5
5
5
5
5
5
5
5
5
5
5
5
5
5
5
5
5
5
5
5
5
5
5
5
5
5
5
5
5
5
5
5
5
5
5
5
5
5
5
5
5
5
5
5
5
5
5
5
5
5
5
5
5
5
5
5
5
5
5
5
5
5
5
5
5
5
5
5
5
5
5
5
5
5
5
5
5
5
5
5
5
5
5
5
5
5
5
5
5
5
5
5
5
5
5
5
5
5
5
5
5
5
5
5
5
5
5
5
5
5
5
5
5
5
5
5
5
5
5
5
5
5
5
5
5
5
5
5
5
5
5
5
5
5
5
5
5
5
5
5
5
5
5
5
5
5
5
5
5
5
5
5
5
5
5
5
5
5
5
5
5
5
5
5
5
5
5
5
5
5
5
5
5
5
5
5
5
5
5
5
5
5
5
5
5
5
5
5
5
5
5
5
5
5
5
5
5
5
5
5
5
5
5
5
5
5
5
5
5
5
5
5
5
5
5
5
5
5
5
5
5
5
5
5
5
5
5
5
5
5
5
5
5
5
5
5
5
5
5
5
5
5
5
5
5
5
5
5
5
5
5
5
5
5
5
5
5
5
5
5
5
5
5
5
5
5
5
5
5
5
5
5
5
5
5
5
5
5
5
5
5
5
5
5
5
5
5
5
5
5
5
5
5
5
5
5
5
5
5
5
5
5
5
5
5
5
5
5
5
5
5
5
5
5
5
5
5
5
5
5
5
5
5
5
5
5
5
5
5
5
5
5
5
5
5
5
5
5
5
5
5
5
5
5
5
5
5
5
5
5
5
5
5
5
5
5
5
5
5
5
5
5
5
5
5
5
5
5
5
5
5
5
5
5
5
5
5
5
5
5
5
5
5
5
5
5
5
5
5
5
5
5
5
5
5
5
5
5
5
5
5
5
5
5
5
5
5
5
5
5
5
5
5
5
5
5
5
5
5
5
5
5
5
5
5
5
5
5
5
5
5
5
5
5
5
5
5
5
5
5
5
5
5
5
5
5
5
5
5
5
5
5
5
5
5
5
5
5
5
5
5
5
5
5
5
5
5
5
5
5
5
5
5
5
5
5
5
5
5
5
5
5
5
5
5
5
5
5
5
5
5
5
5
POINT_DATA 489
SCALARS scalars float 1
LOOKUP_TABLE default
-0.185497686287345
-0.029082849377779
0.001048463711128
0.001004052834907
-0.038909780960122
-0.188662393349438
-0.375121307459609
0.064107150867888
-0.189215382708903
-0.186886771600125
-0.184699296712202
-0.185496524874189
-0.191942837605969
-0.194361409495057
-0.141642374521129
-0.019662975795315
0.084959053404634
0.099461166042103
0.082596409651506
0.055143087541537
0.059326441061621
0.028297278825328
0.003960064678015
-0.016271629845888
-0.039351980468760
-0.045060461606244
-0.048592525499638
-0.050307043144660
-0.050329933034135
-0.049240317873244
-0.047303694452805
-0.046005430887162
-0.044685707937445
-0.041867846879357
-0.039775946336852
-0.037154742407435
-0.034800191671616
-0.032972249072464
-0.030008530614132
-0.026690076297252
-0.025132784960662
-0.020015394275776
-0.017104596116722
-0.015150683731706
-0.013617789013658
-0.009494790565100
-0.007448291686668
-0.003690487902512
0.000899797522464
0.000049191498921
0.000022791425606
0.000817808505724
-0.003666783214287
-0.007575598414159
-0.009467350135272
-0.013666626690159
-0.014992149076101
-0.017323650713331
-0.020325326821046
-0.025307244794792
-0.026989335110870
-0.030155241781303
-0.033131180894353
-0.035209635330180
-0.037502728137011
-0.040286468166753
-0.042394855061563
-0.045281111176793
-0.046559198142309
-0.047823658750565
-0.049704428123167
-0.050756079069428
-0.051288135326613
-0.050067107772773
-0.048066003864743
-0.044481403557271
-0.023575185154903
-0.006857887248934
0.026897429149375
0.062084147987999
0.076299982739606
0.088124750262419
0.099713441708310
0.105428075391641
0.002506973798621
-0.123280710916835
-0.198839100476016
-0.196559786325214
-0.189341218807955
-0.188358695353737
-0.224976843864503
-0.025988429193154
-0.004244620911798
0.121582146420693
0.087811496929721
0.069326889432145
0.074061207076975
0.084235007060802
0.132312212754174
0.015385251443994
-0.015534658528453
-0.263989558139322
-0.187774851421324
-0.186799802281964
-0.187890550659810
-0.189582398671719
-0.186914803702832
-0.184615851426720
-0.184797837603333
-0.024772927522580
-0.049674317611006
-0.043205289460822
-0.036706858418050
-0.027402905127773
0.060866002411916
-0.018497234956193
-0.053262280455185
-0.047319293302068
0.044261717243792
-0.167885341144798
-0.010083311554341
-0.170433571036525
-0.050246934016170
-0.048982582419029
-0.034072061213325
-0.018093397642214
-0.041825884787188
-0.041718424417742
-0.166053589301409
-0.053207570691004
-0.052507277059883
0.097585482543407
-0.032795748362768
-0.033164421722106
0.078584752723297
-0.182367023715536
0.063876830887607
-0.046387304502323
-0.045604401506035
-0.023474896889768
-0.023397878110935
-0.196434809903374
-0.046102090907042
-0.038315391115497
-0.037633323233454
-0.014297146711817
-0.014233051641351
0.094694384142268
-0.005705997224553
-0.005620095631172
-0.048703861920289
-0.028591759342346
-0.028243227828039
0.002690731853245
-0.044143528268828
-0.185935701726741
-0.038421070381432
0.011825571757005
-0.179558600967209
0.081637903260972
0.101378481694947
0.021226432946386
-0.050499677832535
-0.049059671871845
-0.178422717359262
-0.183748696620260
0.078718739858203
-0.001866277733393
-0.171813761246629
-0.153694019876524
-0.051155126257986
-0.050900793251018
-0.044680894892354
-0.018497388131716
-0.018261279546196
-0.051964157945433
-0.041641971128911
-0.035250631507276
-0.029121106087938
0.075290814774881
-0.049810065014436
-0.193102037433297
0.082172871877495
-0.051588284832424
-0.049936492207867
0.060559636778081
-0.048296126084900
-0.047907426070265
-0.010328469577157
-0.010395686082680
-0.043841424255334
-0.043232592943914
-0.184601918405120
0.093370014978315
-0.047938576459843
-0.032975375793799
-0.046563870157668
-0.009418885086467
-0.005619387599592
-0.042949759634008
-0.042264057821901
-0.040297498998342
-0.039803747052305
-0.023291913378650
-0.220725827293079
0.070363024254361
-0.024414573659750
-0.023475276804124
0.033187830482712
-0.034291078194197
-0.034709284204869
-0.031570270865573
-0.040231197251588
-0.053576241751960
-0.186177673123993
-0.051615433432757
-0.050931362478249
-0.183855626262098
-0.030985037429838
-0.030922014907526
0.081178144600140
-0.215931426908168
-0.038974097657047
-0.157589272369100
-0.183376285353733
-0.014604511733666
-0.034451470226471
-0.034132797415219
0.066503092199170
-0.031993272427335
-0.026132076335825
-0.026040024558861
0.065159808791880
0.083519827278777
-0.047595082186238
-0.032302175473617
0.069790275849545
-0.005742942751577
-0.047697047510681
-0.161372443529945
0.114087871837141
-0.051781105397115
-0.048030283808992
-0.165686180632993
0.094618583124777
-0.043808517017738
-0.035055893179819
-0.030392783727950
-0.047414068202461
-0.196808857285836
-0.046032472801706
-0.045446864813251
-0.183429612581860
0.012729988086179
-0.025609342002523
-0.024524129321170
0.079937011705319
-0.020856859656863
-0.020467137152093
-0.006611546804441
-0.051001147179506
-0.128148453255814
-0.015753708611727
-0.015609130493594
-0.190850506968019
0.005723448424302
-0.021878717425320
-0.153692955242757
-0.047783464836451
-0.007934388744254
-0.178164207024733
0.112285141159231
-0.050924713439898
-0.036962298908521
-0.008667328179668
-0.008707130458178
-0.020373238057856
-0.192067978163190
-0.049412797174273
-0.040802737541838
-0.049728933558380
-0.049257695724205
-0.039967931572590
0.057380959593380
-0.051065838966587
-0.050506711073575
-0.016592683243078
-0.016140129669338
-0.045273434536697
-0.047807808305301
0.073258819829353
0.034764237580894
-0.013718294585489
-0.013607786815633
-0.003686459772057
-0.003667271409190
-0.052310041569452
-0.051761564699297
-0.020285270068278
0.084114301639669
-0.036523394937253
-0.036200078125839
-0.188910963344313
0.036246268972144
0.075463463726455
-0.050557765139496
-0.180068532307291
0.048324266154276
0.065835955835969
-0.186552071181592
-0.012545047756415
-0.043133877221904
0.031287756647912
0.050332634875656
-0.049844801328051
0.072802760902885
-0.047794178453625
-0.012096976223139
0.113549290608903
0.078822737304193
-0.049864881471338
-0.040395711187095
-0.185255449925649
-0.031284229214762
-0.027961611758435
-0.027433432916978
-0.187124222970511
-0.033245764750331
-0.050392204778026
-0.188897904042478
-0.008484843305373
-0.008656394604255
-0.175271632329000
-0.046724449731971
-0.047323834607404
-0.180450016975300
-0.015336408163016
-0.041696065164500
-0.041195154345287
-0.170341460373018
-0.037869618749070
-0.041178319290789
-0.050645834942407
-0.049879989498416
-0.049013002737536
-0.047117312702719
-0.234098672515940
0.103621162530390
-0.008716629998562
-0.006248928560448
-0.048779434871081
-0.044029344930275
-0.043437743326359
0.049886402823014
-0.041924983208344
-0.176165714612300
0.012324741400649
0.106974760406668
-0.189278961174524
-0.221117737496043
0.035561869160268
-0.044626548845416
0.074321224372235
0.041282151060101
-0.052854775500409
-0.032757695596924
-0.052633892262043
0.071506202292503
-0.170029754824679
0.061031144187262
-0.185742821180200
-0.039605241905428
0.078482777472537
-0.004491366660735
-0.004444631862448
-0.029514562785682
-0.046151128706259
-0.013207032253612
-0.051624823892910
-0.052022512737983
-0.038532717700313
-0.039011022728672
-0.015412606102648
0.103227405714787
0.066226583082531
-0.018411903485877
-0.018542536610999
-0.020732065125923
-0.049805163480575
-0.041740863614307
-0.194755130013598
-0.052374114715608
0.021818045322501
-0.053091093846229
-0.050439550307256
-0.050007522722350
-0.043178559711101
-0.165159191486278
-0.042341182777679
-0.188185994126397
-0.187266544231036
-0.028040721056002
0.093054219579143
-0.051425554811718
-0.031364604522381
-0.042280752538546
-0.041707264990237
0.071170822248112
-0.031043181483151
-0.155060180276931
-0.140017585138832
-0.144848939638477
0.083656257087771
0.011337804616393
-0.006456212262999
-0.194287144912423
-0.047328805626226
-0.046650806421858
-0.181070158208757
0.074911310905690
-0.086724115566635
-0.041816559729783
-0.034361663354466
-0.034817826665725
-0.049006127625206
-0.033163452487175
-0.033405536925695
-0.051907837656180
-0.010732964734192
-0.010806212408319
-0.051484060600217
-0.050304821393758
-0.188106739586413
-0.049068166318845
-0.037069601810617
-0.048909225955853
0.117608351500412
-0.043100171633534
-0.043702499613855
-0.051616234534431
-0.084526664306850
-0.038242913894520
-0.181952822558108
0.012095847938356
-0.053090682676581
-0.022751697868615
-0.233751485593628
-0.011841821345246
0.057499176370585
0.050408093936295
0.064939923458214
-0.049132319487938
-0.038872147693648
-0.005312918807658
-0.005227134460023
0.077623816185159
-0.048845368512294
-0.034555691168487
-0.024829114249919
-0.192823592988041
-0.023115389488946
-0.022987881838116
-0.019112546045975
-0.180959621303517
-0.007340457151046
-0.188435189472113
-0.093257646433381
-0.185201584591220
-0.042967309182042
0.095169844846485
-0.034147685904583
0.114800903711681
0.098635002862885
-0.174884285403628
-0.047804802042593
-0.048252868647421
0.011836859337859
0.032223559146868
-0.033088578958338
-0.032980323627292
-0.033306062274494
-0.158658404116987
-0.203099364879759
-0.049168052112347
-0.033303918394456
-0.026269660781022
-0.025736982098315
-0.022645206043561
-0.040984629130678
