# vtk DataFile Version 3.0
    
ASCII
DATASET UNSTRUCTURED_GRID
POINTS 782 float
0 0 0
1.5 0 0
5 0 0
5 1 0
1.5 1 0
0 1 0
0.6 0.5 0
0.8 0.5 0
0 0.7 0
0 0.3 0
0.1875 0 0
0.375 0 0
0.5625 0 0
0.75 0 0
0.9375 0 0
1.125 0 0
1.3125 0 0
0.09375 0 0
0.28125 0 0
0.46875 0 0
0.65625 0 0
0.84375 0 0
1.03125 0 0
1.21875 0 0
1.40625 0 0
1.6918 0 0
1.88885 0 0
2.0913 0 0
2.2993 0 0
2.513 0 0
2.73255 0 0
2.95812 0 0
3.18987 0 0
3.42797 0 0
3.67259 0 0
3.92392 0 0
4.18213 0 0
4.44742 0 0
4.71998 0 0
1.5959 0 0
1.79032 0 0
1.99008 0 0
2.1953 0 0
2.40615 0 0
2.62278 0 0
2.84534 0 0
3.074 0 0
3.30892 0 0
3.55028 0 0
3.79826 0 0
4.05303 0 0
4.31478 0 0
4.5837 0 0
4.85999 0 0
5 0.25 0
5 0.5 0
5 0.75 0
5 0.125 0
5 0.375 0
5 0.625 0
5 0.875 0
4.71998 1 0
4.44742 1 0
4.18213 1 0
3.92392 1 0
3.67259 1 0
3.42797 1 0
3.18987 1 0
2.95812 1 0
2.73255 1 0
2.513 1 0
2.2993 1 0
2.0913 1 0
1.88885 1 0
1.6918 1 0
4.85999 1 0
4.5837 1 0
4.31478 1 0
4.05303 1 0
3.79826 1 0
3.55028 1 0
3.30892 1 0
3.074 1 0
2.84534 1 0
2.62278 1 0
2.40615 1 0
2.1953 1 0
1.99008 1 0
1.79032 1 0
1.5959 1 0
1.3125 1 0
1.125 1 0
0.9375 1 0
0.75 1 0
0.5625 1 0
0.375 1 0
0.1875 1 0
1.40625 1 0
1.21875 1 0
1.03125 1 0
0.84375 1 0
0.65625 1 0
0.46875 1 0
0.28125 1 0
0.09375 1 0
0.65 0.413397 0
0.75 0.413397 0
0.613397 0.45 0
0.7 0.4 0
0.786603 0.45 0
0.75 0.586603 0
0.65 0.586603 0
0.786603 0.55 0
0.7 0.6 0
0.613397 0.55 0
0 0.85 0
0 0.925 0
0 0.775 0
0 0.5 0
0 0.6 0
0 0.4 0
0 0.15 0
0 0.225 0
0 0.075 0
1.28769 0.541691 0
1.80683 0.5 0
2.30689 0.5 0
1.04359 0.713578 0
1.04716 0.286804 0
0.379599 0.2959 0
0.317386 0.626876 0
2.81338 0.5 0
3.32407 0.5 0
3.72891 0.5 0
4.23765 0.502258 0
0.472788 0.749448 0
0.721932 0.786654 0
1.55349 0.68868 0
1.53853 0.312531 0
0.70188 0.211648 0
2.05686 0.688672 0
2.04751 0.313768 0
1.0294 0.501368 0
0.420557 0.474529 0
2.56014 0.688089 0
2.54704 0.312571 0
0.236458 0.443235 0
1.28789 0.750455 0
1.28789 0.249545 0
3.06872 0.697034 0
3.06625 0.304468 0
0.184397 0.775 0
0.522203 0.273985 0
4.68206 0.376541 0
0.185265 0.225424 0
0.885273 0.273205 0
0.887124 0.726274 0
0.490245 0.631933 0
1.76818 0.722484 0
1.80173 0.242436 0
3.58158 0.690095 0
3.58158 0.309905 0
4.09061 0.689854 0
4.09061 0.310381 0
4.61253 0.787422 0
2.28937 0.742276 0
2.30044 0.237789 0
2.81894 0.754953 0
2.87003 0.189647 0
0.125119 0.632046 0
3.32239 0.756666 0
3.32376 0.241505 0
0.534673 0.413811 0
0.326024 0.752415 0
0.862237 0.401053 0
0.864906 0.599215 0
0.427119 0.150723 0
3.8293 0.765298 0
3.8293 0.234732 0
1.49708 0.5 0
1.13064 0.425836 0
4.30011 0.235016 0
4.30852 0.766452 0
0.993856 0.143338 0
0.993184 0.85645 0
0.598965 0.696815 0
2.01108 0.491313 0
1.14028 0.166436 0
1.1393 0.833832 0
0.857948 0.873875 0
0.853702 0.125638 0
1.10726 0.581369 0
0.700676 0.340164 0
1.41871 0.827953 0
1.41667 0.17223 0
0.7 0.681457 0
0.123723 0.357777 0
2.51322 0.490201 0
0.575162 0.14066 0
0.284895 0.11752 0
3.02427 0.490966 0
1.62042 0.856275 0
1.63477 0.171695 0
1.95275 0.828728 0
1.95522 0.167941 0
1.39862 0.36965 0
1.40601 0.652783 0
4.78659 0.589575 0
0.268442 0.881771 0
1.65707 0.556616 0
0.587485 0.858654 0
2.14096 0.84741 0
2.14856 0.163903 0
0.401275 0.669361 0
1.69516 0.377293 0
3.52542 0.5 0
4.57233 0.212331 0
2.4565 0.168057 0
2.4565 0.831943 0
2.63815 0.1742 0
2.63424 0.850737 0
1.9119 0.638661 0
1.89965 0.363913 0
0.505172 0.52239 0
0.43204 0.873715 0
4.79951 0.201204 0
0.253163 0.325707 0
0.914589 0.500966 0
0.122301 0.119657 0
2.15496 0.558669 0
0.119547 0.880295 0
3.96773 0.50042 0
0.322715 0.513493 0
0.340949 0.405963 0
0.409558 0.573097 0
2.19637 0.376767 0
2.39843 0.36305 0
2.41948 0.644093 0
4.82127 0.825147 0
0.979636 0.606422 0
0.616283 0.331078 0
1.17314 0.684185 0
0.979337 0.396659 0
1.17071 0.301059 0
0.78542 0.329319 0
2.66481 0.557336 0
3.07598 0.133991 0
3.07338 0.863107 0
0.784793 0.67604 0
0.22416 0.558337 0
0.433203 0.382916 0
0.290471 0.226996 0
0.568876 0.587548 0
4.49997 0.495656 0
2.9058 0.370775 0
2.92344 0.620418 0
2.70981 0.374927 0
4.8603 0.375 0
3.55457 0.863076 0
3.55465 0.13683 0
0.136096 0.49468 0
1.78609 0.886365 0
1.7914 0.105357 0
0.229481 0.67404 0
3.17057 0.56505 0
0.0761447 0.225 0
0.0769458 0.775 0
1.26231 0.878964 0
1.263 0.121104 0
1.25823 0.378431 0
4.05664 0.864857 0
4.05303 0.127917 0
3.18178 0.420398 0
1.23041 0.612938 0
1.28779 0.646073 0
1.23052 0.71732 0
0.72594 0.105824 0
0.638521 0.176154 0
0.662581 0.0703301 0
1.60528 0.622648 0
1.71262 0.63955 0
1.66084 0.705582 0
3.42474 0.5 0
3.4239 0.628333 0
3.32323 0.628333 0
3.32391 0.370752 0
3.42459 0.370752 0
1.78751 0.611242 0
1.73195 0.528308 0
3.45198 0.723381 0
3.5535 0.595048 0
3.5535 0.404952 0
3.45267 0.275705 0
1.1402 0.632777 0
1.19747 0.56153 0
1.34685 0.597237 0
1.34695 0.701619 0
4.52997 0.893711 0
4.66625 0.893711 0
0.668742 0.929327 0
0.654709 0.822654 0
0.735966 0.893327 0
3.65524 0.595048 0
3.62716 0.5 0
3.65524 0.404952 0
1.85937 0.56933 0
1.84004 0.680572 0
2.91408 0.0948233 0
2.80129 0.0948233 0
2.77575 0.877476 0
2.88853 0.877476 0
3.01705 0.0669957 0
2.973 0.161819 0
2.94616 0.80903 0
3.01575 0.931554 0
1.6943 0.78938 0
1.58696 0.772478 0
0.403359 0.223312 0
0.474661 0.212354 0
0.450901 0.284943 0
4.43622 0.223674 0
4.53615 0.353994 0
4.40004 0.365336 0
3.77911 0.632649 0
3.70544 0.727697 0
3.70544 0.272318 0
3.77911 0.367366 0
0.659081 0.271363 0
0.569243 0.302532 0
0.612042 0.242817 0
4.37797 0.883226 0
4.46053 0.776937 0
3.84832 0.50021 0
3.89852 0.632859 0
3.89852 0.367576 0
0.477703 0.328451 0
0.406401 0.339408 0
0.78994 0.830265 0
0.803974 0.936938 0
2.96814 0.247057 0
3.07112 0.219229 0
3.07105 0.780071 0
2.94383 0.725993 0
0.793576 0.242427 0
0.835347 0.301262 0
0.74365 0.270484 0
3.95996 0.727576 0
4.02917 0.595137 0
4.02917 0.405401 0
3.95996 0.272556 0
0.753363 0.731347 0
0.835958 0.701157 0
0.804528 0.756464 0
4.26888 0.368637 0
4.36881 0.498957 0
4.10269 0.501339 0
4.16413 0.406319 0
4.16413 0.596056 0
0.801851 0.0628191 0
0.777791 0.168643 0
1.61684 0.344912 0
1.59612 0.438646 0
1.51781 0.406266 0
4.59102 0.436099 0
4.6272 0.294436 0
0.0625594 0.566023 0
0.0625594 0.666023 0
1.67611 0.466955 0
1.57708 0.528308 0
4.19536 0.272698 0
4.27309 0.634355 0
4.19957 0.728153 0
2.10591 0.62367 0
2.22217 0.650473 0
2.17312 0.715474 0
3.37587 0.120752 0
3.25682 0.120752 0
3.25613 0.878333 0
3.37518 0.878333 0
0.567337 0.456905 0
0.592337 0.413604 0
0.0618616 0.328888 0
0.0618616 0.428888 0
0.568831 0.0703301 0
3.61358 0.931538 0
3.69194 0.814187 0
3.75095 0.882649 0
3.75095 0.117366 0
3.69198 0.185781 0
3.61362 0.068415 0
2.29813 0.621138 0
2.23093 0.529334 0
1.74844 0.309864 0
1.66496 0.274494 0
1.71825 0.207065 0
2.87119 0.687686 0
2.99608 0.658726 0
2.98603 0.337621 0
2.88791 0.280211 0
0.966215 0.280004 0
0.939564 0.208272 0
1.02051 0.215071 0
1.05909 0.928225 0
1.06624 0.845141 0
1.13215 0.916916 0
1.13264 0.0832181 0
1.06707 0.154887 0
1.05943 0.0716691 0
1.01838 0.785014 0
0.940154 0.791362 0
0.965355 0.719926 0
3.87661 0.882649 0
3.87661 0.117366 0
1.58665 0.242113 0
1.01325 0.341732 0
0.932305 0.334932 0
2.22013 0.923705 0
2.21517 0.794843 0
2.29434 0.871138 0
2.29987 0.118895 0
2.2245 0.200846 0
2.22393 0.0819517 0
2.37294 0.78711 0
2.3779 0.915972 0
2.3779 0.0840283 0
2.37847 0.202923 0
3.19987 0.187748 0
3.13293 0.0669957 0
3.13162 0.931554 0
3.19788 0.809887 0
0.965342 0.928225 0
0.806119 0.407225 0
0.831119 0.450527 0
3.56808 0.776586 0
3.56811 0.223367 0
0.965678 0.0716691 0
0.93338 0.666348 0
1.01161 0.66 0
0.548683 0.207323 0
0.869487 0.199422 0
0.832453 0.549607 0
0.807453 0.592909 0
0.872536 0.800075 0
4.7169 0.806284 0
4.77063 0.912573 0
2.61247 0.622712 0
2.74187 0.656144 0
2.68954 0.721521 0
2.09891 0.768041 0
3.19556 0.72685 0
3.19501 0.272986 0
2.36319 0.572047 0
2.35443 0.693185 0
0.494809 0.0753616 0
0.401059 0.0753616 0
0.701278 0.275906 0
0.658479 0.335621 0
0.593225 0.777734 0
0.660449 0.741734 0
4.11939 0.932428 0
4.18258 0.815654 0
4.24533 0.883226 0
4.24112 0.117508 0
4.17657 0.181466 0
4.11758 0.0639583 0
4.73433 0.483058 0
4.64328 0.542616 0
2.81616 0.627476 0
2.7391 0.528668 0
0.50114 0.145692 0
4.40425 0.631054 0
4.55625 0.641539 0
1.36561 0.913976 0
1.45936 0.913976 0
1.45834 0.0861151 0
1.36459 0.0861151 0
0.743048 0.334742 0
4.07362 0.777355 0
4.07182 0.219149 0
4.37376 0.117508 0
0.574992 0.929327 0
0.552586 0.511195 0
0.519923 0.468101 0
0.920787 0.398856 0
0.873755 0.337129 0
0.130671 0.775 0
0.101032 0.703523 0
0.154758 0.703523 0
0.535877 0.723132 0
0.530137 0.804051 0
0.481517 0.690691 0
0.544605 0.664374 0
0.0384729 0.7375 0
1.00437 0.449014 0
1.05499 0.411247 0
1.08002 0.463602 0
2.72659 0.802845 0
2.59719 0.769413 0
4.89976 0.100602 0
4.75974 0.100602 0
0.876015 0.662744 0
0.922271 0.602819 0
1.2874 0.939482 0
1.34051 0.853458 0
1.33984 0.146667 0
1.28775 0.0605522 0
0.710966 0.734055 0
0.742396 0.678749 0
2.86841 0.560209 0
4.89976 0.225602 0
2.6834 0.925368 0
2.75409 0.181923 0
2.68535 0.0871001 0
2.12194 0.345268 0
2.10373 0.43404 0
2.0293 0.40254 0
3.11965 0.631042 0
3.24648 0.660858 0
0.1773 0.653043 0
0.206939 0.72452 0
0.49727 0.936857 0
0.509762 0.866184 0
0.624482 0.641709 0
0.583921 0.642181 0
0.609438 0.587075 0
0.528438 0.343898 0
0.483938 0.398364 0
3.25277 0.330951 0
3.12402 0.362433 0
0.321705 0.689646 0
0.277752 0.713228 0
0.273433 0.650458 0
2.17567 0.467718 0
2.08302 0.524991 0
1.0889 0.35632 0
4.69956 0.688498 0
3.24732 0.532525 0
0.437032 0.709405 0
0.44576 0.650647 0
3.43848 0.809871 0
3.4392 0.189167 0
3.49127 0.931538 0
3.49131 0.068415 0
2.11993 0.0819517 0
2.11613 0.923705 0
1.41236 0.740368 0
1.3533 0.789204 0
1.35228 0.210887 0
1.40765 0.27094 0
1.34325 0.309598 0
0.675338 0.376781 0
0.725338 0.376781 0
0.477615 0.44417 0
0.462865 0.49846 0
2.48475 0.915972 0
2.48475 0.0840283 0
1.09372 0.22662 0
0.1549 0.0598286 0
0.0611504 0.0598286 0
3.25293 0.460199 0
0.0597737 0.940148 0
0.153524 0.940148 0
1.09144 0.773705 0
4.77118 0.375771 0
4.82345 0.482288 0
2.02326 0.0839705 0
1.92203 0.0839705 0
1.9208 0.914364 0
2.02203 0.914364 0
1.4861 0.758316 0
1.47975 0.670731 0
1.46857 0.341091 0
1.4776 0.242381 0
0.335035 0.261448 0
0.358795 0.18886 0
0.675 0.63403 0
0.649482 0.689136 0
1.11895 0.503602 0
1.06833 0.541369 0
0.359331 0.648118 0
0.36365 0.710888 0
1.20916 0.483763 0
0.725 0.63403 0
0.40352 0.936857 0
1.56021 0.928138 0
1.65611 0.928138 0
1.66328 0.0858473 0
1.56738 0.0858473 0
0.12991 0.426228 0
0.068048 0.49734 0
0.0597737 0.865148 0
0.0611504 0.134829 0
2.62842 0.343749 0
2.61151 0.432564 0
2.53013 0.401386 0
0.575478 0.372444 0
0.633141 0.372238 0
2.68731 0.466131 0
2.58901 0.523768 0
0.452414 0.811582 0
0.897724 0.936938 0
0.895601 0.0628191 0
1.93233 0.733695 0
1.86046 0.775606 0
1.87847 0.205188 0
1.92743 0.265927 0
1.85069 0.303174 0
4.91064 0.912573 0
1.51956 0.842114 0
1.52572 0.171962 0
0.925566 0.865163 0
0.923779 0.134488 0
0.399406 0.750932 0
0.25521 0.763708 0
0.888413 0.45101 0
0.857294 0.500483 0
2.05189 0.165922 0
2.04685 0.838069 0
2.00481 0.7587 0
1.98438 0.663666 0
1.97358 0.33884 0
2.00136 0.240855 0
2.5926 0.243386 0
2.67398 0.274564 0
2.78992 0.282287 0
3.94117 0.181324 0
3.94297 0.815077 0
1.34315 0.455671 0
1.44785 0.434825 0
1.39238 0.520846 0
1.45155 0.576391 0
2.09804 0.238836 0
2.17247 0.270335 0
1.52529 0.59434 0
4.64615 0.106165 0
4.50987 0.106165 0
1.71309 0.138526 0
1.79657 0.173896 0
1.77714 0.804425 0
1.70325 0.87132 0
0.889747 0.55009 0
3.98847 0.0639583 0
3.99028 0.932428 0
0.153783 0.17254 0
0.203598 0.118589 0
0.23508 0.171472 0
0.76771 0.371358 0
0.823829 0.365186 0
0.297233 0.817093 0
0.226419 0.828386 0
2.24841 0.307278 0
4.91064 0.787573 0
0.824849 0.637628 0
0.767396 0.631321 0
1.04345 0.593896 0
1.00452 0.553895 0
0.529561 0.609741 0
1.2751 0.81471 0
0.329947 0.0587599 0
0.236197 0.0587599 0
1.27545 0.185325 0
3.10303 0.455682 0
3.04526 0.397717 0
1.194 0.0605522 0
4.89329 0.669788 0
4.89329 0.544788 0
1.19365 0.939482 0
0.379032 0.813065 0
2.57362 0.925368 0
2.57558 0.0871001 0
0.42688 0.428723 0
3.17618 0.492724 0
3.09742 0.528008 0
0.227971 0.940886 0
0.321721 0.940886 0
1.7974 0.370603 0
1.751 0.438646 0
1.85324 0.431956 0
0.946963 0.448813 0
1.07543 0.647474 0
0.130607 0.563363 0
1.20164 0.14377 0
1.2008 0.856398 0
0.449902 0.602515 0
0.457365 0.547744 0
0.497709 0.577162 0
0.356007 0.134121 0
4.68592 0.206767 0
1.90896 0.495656 0
1.96149 0.564987 0
1.95536 0.427613 0
0.287683 0.172258 0
0.415058 0.523813 0
4.93015 0.4375 0
1.10836 0.698882 0
1.15622 0.759009 0
1.15549 0.233747 0
1.10893 0.293931 0
1.15067 0.363447 0
2.42746 0.265553 0
2.34943 0.30042 0
2.43799 0.738018 0
0.947112 0.553694 0
2.03397 0.589992 0
2.47274 0.33781 0
2.50177 0.240314 0
2.50832 0.760016 0
2.48981 0.666091 0
0.154494 0.2916 0
0.099934 0.291388 0
0.130705 0.225212 0
1.73894 0.943183 0
1.83747 0.943183 0
1.84013 0.0526784 0
1.7416 0.0526784 0
0.350241 0.877743 0
0.0380724 0.2625 0
0.971995 0.501167 0
0.0380724 0.1875 0
0.0384729 0.8125 0
4.74079 0.288873 0
4.93015 0.3125 0
0.219214 0.275565 0
0.188443 0.341742 0
4.80393 0.707361 0
2.2974 0.369909 0
2.25163 0.438384 0
2.35266 0.431525 0
0.193995 0.881033 0
0.151972 0.827648 0
1.86942 0.857547 0
1.87331 0.136649 0
0.584438 0.543774 0
2.54537 0.84134 0
2.54733 0.171128 0
1.21359 0.792144 0
1.2293 0.275302 0
1.21408 0.20799 0
0.180091 0.400506 0
0.24481 0.384471 0
0.237868 0.22621 0
2.41005 0.495101 0
2.46635 0.567147 0
2.45582 0.426626 0
0.360274 0.350932 0
0.297056 0.365835 0
0.316381 0.310804 0
0.405417 0.621229 0
2.53668 0.589145 0
0.186277 0.468958 0
2.8078 0.372851 0
2.76159 0.437463 0
2.85959 0.435388 0
0.226821 0.616188 0
0.270773 0.592606 0
1.19443 0.402133 0
1.27296 0.460061 0
0.288704 0.424599 0
2.96504 0.430871 0
2.91883 0.495483 0
2.97386 0.555692 0
0.363472 0.599986 0
0.537024 0.554969 0
0.371636 0.494011 0
0.331832 0.459728 0
0.380753 0.440246 0
3.0465 0.594 0
0.366137 0.543295 0
1.32842 0.374041 0
1.27306 0.313988 0
0.0992228 0.172329 0
0.32005 0.570184 0
0.0982466 0.827648 0
0.17464 0.595191 0
4.82991 0.288102 0
0.271817 0.276352 0
0.273438 0.535915 0
0.180128 0.526508 0
0.387076 0.39444 0
0.279586 0.478364 0
0.230309 0.500786 0
1.21447 0.339745 0
CELLS 360 2520
6 241 124 147 273 274 275
6 13 139 198 276 277 278
6 137 209 158 279 280 281
6 132 215 170 282 283 284
6 132 171 215 285 286 282
6 125 158 209 287 280 288
6 160 170 215 289 283 290
6 161 215 171 291 286 292
6 124 241 191 273 293 294
6 147 124 206 274 295 296
6 61 62 164 76 297 298
6 93 210 136 299 300 301
6 133 160 215 302 290 303
6 133 215 161 303 291 304
6 125 221 158 305 306 287
6 30 31 168 45 307 308
6 68 69 167 83 309 310
6 31 246 168 311 312 307
6 68 167 247 310 313 314
6 137 158 201 281 315 316
6 129 176 152 317 318 319
6 181 216 253 320 321 322
6 133 177 160 323 324 302
6 133 161 178 304 325 326
6 139 240 152 327 328 329
6 62 182 164 330 331 297
6 133 231 177 332 333 323
6 133 178 231 326 334 332
6 129 152 250 319 335 336
6 93 136 189 301 337 338
6 150 168 246 339 312 340
6 149 247 167 341 313 342
6 139 155 244 343 344 345
6 162 177 231 346 333 347
6 163 231 178 348 334 349
6 136 248 156 350 351 352
6 134 181 253 353 322 354
6 134 231 163 355 348 356
6 134 162 231 357 347 355
6 13 190 139 358 359 276
6 138 214 179 360 361 362
6 153 253 216 363 321 364
6 8 118 169 119 365 366
6 179 214 209 361 367 368
6 134 163 181 356 369 353
6 134 182 162 370 371 357
6 140 229 165 372 373 374
6 32 33 171 47 375 376
6 66 67 170 81 377 378
6 6 172 105 379 380 107
6 9 196 118 381 382 120
6 12 13 198 20 278 383
6 65 258 177 384 385 386
6 34 178 259 387 388 389
6 126 165 229 390 373 391
6 159 214 202 392 393 394
6 149 167 255 342 395 396
6 150 254 168 397 398 339
6 128 155 183 399 400 401
6 91 184 188 402 403 404
6 15 187 183 405 406 407
6 127 184 156 408 409 410
6 64 65 177 79 386 411
6 34 35 178 49 412 387
6 138 202 214 413 393 360
6 128 242 155 414 415 399
6 71 211 165 416 417 418
6 28 166 212 419 420 421
6 71 165 218 418 422 423
6 28 217 166 424 425 419
6 32 171 246 376 426 427
6 67 247 170 428 429 377
6 91 92 184 99 430 402
6 7 106 174 109 431 432
6 160 177 258 324 385 433
6 161 259 178 434 388 325
6 14 15 183 22 407 435
6 127 156 239 410 436 437
6 139 152 198 329 438 277
6 139 190 155 359 439 343
6 7 175 110 440 441 112
6 136 156 189 352 442 337
6 61 164 238 298 443 444
6 144 245 167 445 446 447
6 140 165 211 374 417 448
6 149 170 247 449 429 341
6 150 246 171 340 426 450
6 126 237 165 451 452 390
6 11 12 176 19 453 454
6 139 192 240 455 456 327
6 136 210 185 300 457 458
6 63 270 182 459 460 461
6 36 181 271 462 463 464
6 153 207 253 465 466 363
6 131 167 245 467 446 468
6 12 198 176 383 469 453
6 164 182 253 331 470 471
6 4 90 193 97 472 473
6 1 194 16 474 475 24
6 134 253 182 354 470 370
6 139 244 192 345 476 455
6 162 182 270 371 460 477
6 163 271 181 478 463 369
6 62 63 182 77 461 330
6 36 37 181 51 479 462
6 93 94 210 101 480 299
6 6 223 172 481 482 379
6 155 242 174 415 483 484
6 151 266 169 485 486 487
6 135 185 210 488 457 489
6 135 157 185 490 491 488
6 8 169 266 366 486 492
6 142 242 180 493 494 495
6 144 167 220 447 496 497
6 2 225 38 498 499 53
6 156 175 239 500 501 436
6 90 267 193 502 503 472
6 16 194 268 475 504 505
6 136 195 248 506 507 350
6 131 255 167 508 395 467
6 2 54 225 57 509 498
6 69 220 167 510 496 309
6 30 168 219 308 511 512
6 141 235 186 513 514 515
6 149 264 170 516 517 449
6 151 169 263 487 518 519
6 94 224 210 520 521 480
6 111 185 252 522 523 524
6 152 172 250 525 526 335
6 150 171 272 450 527 528
6 130 173 263 529 530 531
6 186 235 229 514 532 533
6 128 180 242 534 494 414
6 164 253 207 471 466 535
6 132 170 264 284 517 536
6 135 213 157 537 538 490
6 160 258 170 433 539 289
6 161 171 259 292 540 434
6 152 176 198 318 469 438
6 66 170 258 378 539 541
6 33 259 171 542 540 375
6 27 28 212 42 421 543
6 71 72 211 86 544 416
6 147 206 193 296 545 546
6 148 194 205 547 548 549
6 105 192 106 550 551 108
6 143 172 223 552 482 553
6 70 71 218 85 423 554
6 28 29 217 43 555 424
6 128 183 187 401 406 556
6 0 10 228 17 557 558
6 132 272 171 559 527 285
6 5 230 96 560 561 104
6 127 188 184 562 403 408
6 153 257 207 563 564 465
6 26 27 204 41 565 566
6 72 73 203 87 567 568
6 137 193 206 569 545 570
6 138 205 194 571 548 572
6 129 251 176 573 574 317
6 111 195 185 575 576 522
6 142 180 191 495 577 578
6 130 213 173 579 580 529
6 124 191 180 294 577 581
6 110 195 111 582 575 113
6 94 95 224 102 583 520
6 4 201 74 584 585 89
6 1 25 202 39 586 587
6 118 196 260 382 588 589
6 5 115 230 116 590 560
6 0 228 121 558 591 123
6 145 256 197 592 593 594
6 105 172 240 380 595 596
6 197 256 245 593 597 598
6 135 210 224 489 521 599
6 92 93 189 100 338 600
6 13 14 190 21 601 358
6 158 221 203 306 602 603
6 159 204 222 604 605 606
6 3 61 238 75 444 607
6 4 193 201 473 608 584
6 1 202 194 587 609 474
6 156 184 189 409 610 442
6 155 190 183 439 611 400
6 135 173 213 612 580 537
6 151 263 173 519 530 613
6 7 174 227 432 614 615
6 27 212 204 543 616 565
6 72 203 211 568 617 544
6 140 203 221 618 602 619
6 141 222 204 620 605 621
6 145 219 256 622 623 592
6 168 256 219 624 623 511
6 163 178 271 349 625 478
6 162 270 177 477 626 346
6 124 205 179 627 628 629
6 124 179 206 629 630 295
6 141 212 235 631 632 513
6 136 185 195 458 576 506
6 137 206 179 570 630 633
6 138 179 205 362 628 571
6 37 38 216 52 634 635
6 159 202 262 394 636 637
6 158 261 201 638 639 315
6 7 227 175 615 640 440
6 35 271 178 641 625 412
6 64 177 270 411 626 642
6 154 228 199 643 644 645
6 106 244 174 646 647 431
6 151 173 208 613 648 649
6 166 235 212 650 632 420
6 3 238 56 607 651 60
6 137 179 209 633 368 279
6 92 189 184 600 610 430
6 110 175 248 441 652 653
6 142 191 239 578 654 655
6 157 252 185 656 523 491
6 14 183 190 435 611 601
6 147 193 267 546 503 657
6 10 11 199 18 658 659
6 148 268 194 660 504 547
6 150 272 200 528 661 662
6 15 16 268 23 505 663
6 55 56 207 59 664 665
6 90 91 267 98 666 502
6 135 224 173 599 667 612
6 69 70 220 84 668 510
6 29 30 219 44 512 669
6 143 250 172 670 526 552
6 200 272 264 661 671 672
6 95 96 208 103 673 674
6 159 222 214 606 675 392
6 125 214 222 676 675 677
6 137 201 193 316 608 569
6 138 194 202 572 609 413
6 174 242 227 483 678 614
6 127 239 191 437 654 679
6 118 260 169 589 680 365
6 15 268 187 663 681 405
6 91 188 267 404 682 666
6 125 209 214 288 367 676
6 157 234 223 683 684 685
6 11 176 199 454 686 658
6 37 216 181 635 320 479
6 38 225 216 499 687 634
6 125 186 221 688 689 305
6 125 222 186 677 690 688
6 140 211 203 448 617 618
6 141 204 212 621 616 631
6 176 251 199 574 691 686
6 143 223 234 553 684 692
6 55 207 257 665 564 693
6 127 241 188 694 695 562
6 128 187 243 556 696 697
6 128 243 180 697 698 534
6 166 217 236 425 699 700
6 165 237 218 452 701 422
6 175 227 239 640 702 501
6 140 221 186 619 689 703
6 141 186 222 515 690 620
6 145 236 217 704 699 705
6 144 218 237 706 701 707
6 154 196 265 708 709 710
6 67 68 247 82 314 428
6 31 32 246 46 427 311
6 65 66 258 80 541 384
6 33 34 259 48 389 542
6 73 74 261 88 711 712
6 25 26 262 40 713 714
6 35 36 271 50 464 641
6 63 64 270 78 642 459
6 173 224 208 667 715 648
6 152 240 172 328 595 525
6 140 186 229 703 533 372
6 9 265 196 716 709 381
6 142 227 242 717 678 493
6 9 121 265 122 718 716
6 10 199 228 659 644 557
6 8 266 115 492 719 117
6 25 262 202 714 636 586
6 74 201 261 585 639 711
6 153 216 225 364 687 720
6 105 240 192 596 456 550
6 54 55 257 58 693 721
6 154 226 196 722 723 708
6 106 192 244 551 476 646
6 164 207 238 535 724 443
6 166 236 235 700 725 650
6 126 235 236 726 725 727
6 151 208 230 649 728 729
6 158 203 261 603 730 638
6 159 262 204 637 731 604
6 6 111 252 114 524 732
6 73 261 203 712 730 567
6 26 204 262 566 731 713
6 70 218 220 554 733 668
6 29 219 217 669 734 555
6 110 248 195 653 507 582
6 142 239 227 655 702 717
6 147 188 241 735 695 275
6 148 243 187 736 696 737
6 95 208 224 674 715 583
6 146 196 226 738 723 739
6 154 199 251 645 691 740
6 127 191 241 679 293 694
6 155 174 244 484 647 344
6 126 197 237 741 742 451
6 126 236 197 727 743 741
6 129 233 226 744 745 746
6 157 213 234 538 747 683
6 126 229 235 391 532 726
6 144 237 197 707 742 748
6 145 197 236 594 743 704
6 145 217 219 705 734 622
6 144 220 218 497 733 706
6 156 248 175 351 652 500
6 144 197 245 748 598 445
6 147 267 188 657 682 735
6 146 260 196 749 588 738
6 168 254 256 398 750 624
6 131 256 254 751 750 752
6 130 263 249 531 753 754
6 148 187 268 737 681 660
6 124 180 269 581 755 756
6 146 226 233 739 745 757
6 56 238 207 651 724 664
6 131 254 200 752 758 759
6 131 200 255 759 760 508
6 130 234 213 761 747 579
6 6 252 223 732 762 481
6 143 232 233 763 764 765
6 149 255 200 396 760 766
6 150 200 254 662 758 397
6 143 234 232 692 767 763
6 148 205 269 549 768 769
6 149 200 264 766 672 516
6 96 230 208 561 728 673
6 154 265 228 710 770 643
6 131 245 256 468 597 751
6 130 232 234 771 767 761
6 124 269 205 756 768 627
6 151 230 266 729 772 485
6 121 228 265 591 770 718
6 115 266 230 719 772 590
6 169 249 263 773 753 518
6 132 264 272 536 671 559
6 54 257 225 721 774 509
6 129 226 251 746 775 573
6 130 249 232 754 776 771
6 169 260 249 680 777 773
6 153 225 257 720 774 563
6 143 233 250 765 778 670
6 154 251 226 740 775 722
6 146 233 232 757 764 779
6 129 250 233 336 778 744
6 146 249 260 780 777 749
6 157 223 252 685 762 656
6 146 232 249 779 776 780
6 180 243 269 698 781 755
6 148 269 243 769 781 736
CELL_TYPES 360
22
22
22
22
22
22
22
22
22
22
22
22
22
22
22
22
22
22
22
22
22
22
22
22
22
22
22
22
22
22
22
22
22
22
22
22
22
22
22
22
22
22
22
22
22
22
22
22
22
22
22
22
22
22
22
22
22
22
22
22
22
22
22
22
22
22
22
22
22
22
22
22
22
22
22
22
22
22
22
22
22
22
22
22
22
22
22
22
22
22
22
22
22
22
22
22
22
22
22
22
22
22
22
22
22
22
22
22
22
22
22
22
22
22
22
22
22
22
22
22
22
22
22
22
22
22
22
22
22
22
22
22
22
22
22
22
22
22
22
22
22
22
22
22
22
22
22
22
22
22
22
22
22
22
22
22
22
22
22
22
22
22
22
22
22
22
22
22
22
22
22
22
22
22
22
22
22
22
22
22
22
22
22
22
22
22
22
22
22
22
22
22
22
22
22
22
22
22
22
22
22
22
22
22
22
22
22
22
22
22
22
22
22
22
22
22
22
22
22
22
22
22
22
22
22
22
22
22
22
22
22
22
22
22
22
22
22
22
22
22
22
22
22
22
22
22
22
22
22
22
22
22
22
22
22
22
22
22
22
22
22
22
22
22
22
22
22
22
22
22
22
22
22
22
22
22
22
22
22
22
22
22
22
22
22
22
22
22
22
22
22
22
22
22
22
22
22
22
22
22
22
22
22
22
22
22
22
22
22
22
22
22
22
22
22
22
22
22
22
22
22
22
22
22
22
22
22
22
22
22
22
22
22
22
22
22
22
22
22
22
22
22
22
22
22
22
22
22
22
22
22
22
22
22
22
22
22
22
22
22
POINT_DATA 782
VECTORS velocity double
-0.000000000798826 -0.000000001039310 0.000000000000000
0.000000000268983 -0.000000000784997 0.000000000000000
0.000000000281083 -0.000000000008788 0.000000000000000
0.000000000358168 0.000000000019674 0.000000000000000
0.000000000217746 0.000000000794237 0.000000000000000
-0.000000000809126 0.000000001039446 0.000000000000000
0.000000002522511 0.000000000063514 0.000000000000000
0.000000000302659 0.000000000003117 0.000000000000000
0.839999998921518 0.000000000112662 0.000000000000000
0.839999998922062 -0.000000000112789 0.000000000000000
-0.000000000071332 -0.000000001564984 0.000000000000000
0.000000000254736 -0.000000001488547 0.000000000000000
0.000000000473250 -0.000000001063671 0.000000000000000
0.000000000644141 -0.000000000802257 0.000000000000000
0.000000000414261 -0.000000000760574 0.000000000000000
0.000000000346391 -0.000000000906846 0.000000000000000
0.000000000368950 -0.000000000814280 0.000000000000000
0.000000000215110 -0.000000001892631 0.000000000000000
0.000000000098641 -0.000000001649777 0.000000000000000
0.000000000114166 -0.000000001366590 0.000000000000000
-0.000000000000016 -0.000000000947163 0.000000000000000
-0.000000000042261 -0.000000000814690 0.000000000000000
-0.000000000037492 -0.000000000878821 0.000000000000000
0.000000000011309 -0.000000000882179 0.000000000000000
-0.000000000004145 -0.000000000810667 0.000000000000000
0.000000000156101 -0.000000000786804 0.000000000000000
0.000000000297122 -0.000000000708012 0.000000000000000
0.000000000283450 -0.000000000615490 0.000000000000000
0.000000000372623 -0.000000000632916 0.000000000000000
0.000000000251016 -0.000000000489031 0.000000000000000
0.000000000255978 -0.000000000473779 0.000000000000000
0.000000000216598 -0.000000000468918 0.000000000000000
0.000000000413446 -0.000000000371589 0.000000000000000
0.000000000220320 -0.000000000339135 0.000000000000000
0.000000000323194 -0.000000000270577 0.000000000000000
0.000000000183804 -0.000000000228708 0.000000000000000
0.000000000310734 -0.000000000183618 0.000000000000000
0.000000000219551 -0.000000000061737 0.000000000000000
0.000000000155558 -0.000000000083023 0.000000000000000
0.000000000030849 -0.000000000754899 0.000000000000000
0.000000000054679 -0.000000000763676 0.000000000000000
0.000000000016341 -0.000000000670769 0.000000000000000
-0.000000000010591 -0.000000000626819 0.000000000000000
0.000000000017486 -0.000000000551720 0.000000000000000
0.000000000008761 -0.000000000502998 0.000000000000000
0.000000000016843 -0.000000000455813 0.000000000000000
0.000000000012260 -0.000000000439139 0.000000000000000
-0.000000000010464 -0.000000000341873 0.000000000000000
0.000000000018842 -0.000000000316014 0.000000000000000
0.000000000011107 -0.000000000237356 0.000000000000000
0.000000000027283 -0.000000000220216 0.000000000000000
0.000000000010847 -0.000000000132202 0.000000000000000
0.000000000011070 -0.000000000063764 0.000000000000000
0.000000000019204 -0.000000000046180 0.000000000000000
0.687990825872260 0.015551342667033 0.000000000000000
0.716729118598641 -0.000613729362424 0.000000000000000
0.668649399384524 -0.019915563419656 0.000000000000000
0.746174676230421 0.015386177124368 0.000000000000000
0.725933160659364 0.008738113969528 0.000000000000000
0.728059407841009 -0.003184153053997 0.000000000000000
0.763148036665454 -0.033811038216719 0.000000000000000
0.000000000140261 0.000000000094624 0.000000000000000
0.000000000204049 0.000000000067821 0.000000000000000
0.000000000292665 0.000000000181397 0.000000000000000
0.000000000189833 0.000000000225160 0.000000000000000
0.000000000315544 0.000000000273629 0.000000000000000
0.000000000221028 0.000000000333953 0.000000000000000
0.000000000351927 0.000000000384323 0.000000000000000
0.000000000205148 0.000000000454364 0.000000000000000
0.000000000430779 0.000000000463982 0.000000000000000
0.000000000277953 0.000000000478596 0.000000000000000
0.000000000453536 0.000000000652458 0.000000000000000
0.000000000288285 0.000000000631095 0.000000000000000
0.000000000309381 0.000000000696029 0.000000000000000
0.000000000182386 0.000000000780264 0.000000000000000
0.000000000016019 0.000000000067681 0.000000000000000
0.000000000017789 0.000000000063224 0.000000000000000
0.000000000015380 0.000000000132353 0.000000000000000
0.000000000025448 0.000000000215582 0.000000000000000
0.000000000011930 0.000000000241600 0.000000000000000
0.000000000018381 0.000000000313414 0.000000000000000
0.000000000002449 0.000000000353254 0.000000000000000
0.000000000015933 0.000000000427447 0.000000000000000
-0.000000000016439 0.000000000444034 0.000000000000000
-0.000000000016825 0.000000000520433 0.000000000000000
0.000000000010924 0.000000000539921 0.000000000000000
-0.000000000017927 0.000000000635644 0.000000000000000
0.000000000010746 0.000000000668597 0.000000000000000
0.000000000047147 0.000000000756836 0.000000000000000
0.000000000043655 0.000000000768856 0.000000000000000
0.000000000361713 0.000000000812466 0.000000000000000
0.000000000337165 0.000000000914397 0.000000000000000
0.000000000465156 0.000000000734095 0.000000000000000
0.000000000741668 0.000000000788037 0.000000000000000
0.000000000514457 0.000000001028956 0.000000000000000
0.000000000186175 0.000000001524834 0.000000000000000
-0.000000000101270 0.000000001570443 0.000000000000000
0.000000000005824 0.000000000808987 0.000000000000000
0.000000000014046 0.000000000880747 0.000000000000000
-0.000000000051465 0.000000000862631 0.000000000000000
-0.000000000056104 0.000000000819401 0.000000000000000
-0.000000000027885 0.000000000943385 0.000000000000000
0.000000000133868 0.000000001370412 0.000000000000000
0.000000000106728 0.000000001659207 0.000000000000000
0.000000000219210 0.000000001890063 0.000000000000000
0.000000001605670 0.000000000476350 0.000000000000000
0.000000002459389 0.000000000094449 0.000000000000000
0.000000001671658 0.000000000584127 0.000000000000000
-0.000000000100717 0.000000000408722 0.000000000000000
-0.000000000827327 0.000000000108048 0.000000000000000
0.000000002483804 -0.000000000082600 0.000000000000000
0.000000002823753 -0.000000000395628 0.000000000000000
-0.000000000836994 -0.000000000106322 0.000000000000000
-0.000000000270585 -0.000000000358856 0.000000000000000
0.000000001664923 -0.000000000687106 0.000000000000000
0.509999998681493 0.000000000276886 0.000000000000000
0.277499998044591 -0.000000000211382 0.000000000000000
0.697499998501247 -0.000000000023461 0.000000000000000
0.999999999345930 0.000000000000287 0.000000000000000
0.959999998751089 -0.000000000023661 0.000000000000000
0.959999998746716 0.000000000024764 0.000000000000000
0.509999998681660 -0.000000000276450 0.000000000000000
0.697499998496940 0.000000000021919 0.000000000000000
0.277499998042359 0.000000000212420 0.000000000000000
0.675497446229076 -0.004834702898202 0.000000000000000
0.694150981769420 -0.002406326799765 0.000000000000000
0.727240295285709 -0.000099320898927 0.000000000000000
0.719021615333260 -0.023124251428002 0.000000000000000
0.697494914374440 0.023264198139882 0.000000000000000
0.642316396568189 -0.092333139839564 0.000000000000000
0.748724667053182 0.058053457501969 0.000000000000000
0.697593315277556 0.003625738702329 0.000000000000000
0.705279728372725 -0.001194825864277 0.000000000000000
0.710479681792792 0.000107442583976 0.000000000000000
0.725212057215452 0.000861093141177 0.000000000000000
0.570299912279044 0.135608560088628 0.000000000000000
0.997051982898874 -0.065572498524650 0.000000000000000
0.713528806976350 0.002569743236000 0.000000000000000
0.709731772595276 -0.006007598696987 0.000000000000000
0.954390230898537 0.046092591577026 0.000000000000000
0.683153920323061 -0.001343843885903 0.000000000000000
0.723586995948361 0.000222721710294 0.000000000000000
0.589550005116647 -0.001319288711534 0.000000000000000
0.692651275483920 -0.009107288518475 0.000000000000000
0.627129876268166 -0.006788567722914 0.000000000000000
0.705912851699363 -0.002153162073328 0.000000000000000
0.762886634512636 -0.034819391596995 0.000000000000000
0.703045861206852 -0.014695571496631 0.000000000000000
0.689108467106635 0.017323144751963 0.000000000000000
0.686624344267392 -0.005414461593693 0.000000000000000
0.665940489056417 0.009169597252934 0.000000000000000
0.619872943367867 0.118485449886667 0.000000000000000
0.530548923036002 -0.170533649858269 0.000000000000000
0.672995304124224 -0.004477207994698 0.000000000000000
0.610938161525518 -0.111096939567693 0.000000000000000
0.836933140104940 0.083036712242495 0.000000000000000
0.800389031186855 -0.078632414137393 0.000000000000000
0.506838224444184 0.152226124003806 0.000000000000000
0.662542807907129 -0.005805168763733 0.000000000000000
0.663801245537395 0.008541024023181 0.000000000000000
0.687309240798739 -0.004125649872333 0.000000000000000
0.680537590404980 0.005480396905371 0.000000000000000
0.683675892594726 -0.005410891056926 0.000000000000000
0.675290805006577 0.006597311135568 0.000000000000000
0.767568822065466 0.015977112306453 0.000000000000000
0.646658747428248 -0.007464379119227 0.000000000000000
0.660747357936383 0.004097177310919 0.000000000000000
0.691933703103238 -0.006120658352912 0.000000000000000
0.745639746240877 -0.012292992505486 0.000000000000000
0.937593952955474 0.130920572397408 0.000000000000000
0.677449579222032 0.003287146682912 0.000000000000000
0.692656807358471 -0.002456168791403 0.000000000000000
0.432081015849394 -0.344667302353448 0.000000000000000
0.642125609787631 0.093345893249125 0.000000000000000
0.918800608978433 0.267334307289304 0.000000000000000
0.906013524301468 -0.274025316226939 0.000000000000000
0.570973812829003 -0.070914181477150 0.000000000000000
0.696837965943240 0.006956767034799 0.000000000000000
0.701130023357978 -0.007443858556886 0.000000000000000
0.696455279217917 0.001485726568933 0.000000000000000
0.659337228283223 0.023360490342754 0.000000000000000
0.663442601164042 0.017626069783323 0.000000000000000
0.677405328596969 -0.015816634163837 0.000000000000000
0.752339430274165 0.013559140536877 0.000000000000000
0.770273222686819 -0.010819710380785 0.000000000000000
0.515767305812711 0.226400318262813 0.000000000000000
0.708129311583855 -0.000443829683702 0.000000000000000
0.735346511012269 0.008759951377925 0.000000000000000
0.732753949616196 -0.008619568374378 0.000000000000000
0.822519911702749 -0.023381969940836 0.000000000000000
0.845890054588580 0.023538325255708 0.000000000000000
0.674003820941087 -0.031417129780329 0.000000000000000
1.045605405685779 0.024567832003079 0.000000000000000
0.695824040199942 -0.005849761354879 0.000000000000000
0.688029993487895 0.012948597899670 0.000000000000000
1.073190133167344 -0.037468552321437 0.000000000000000
0.932336912474565 -0.134781413240163 0.000000000000000
0.656638165514725 -0.004194345990547 0.000000000000000
0.810699470320491 -0.050658801934341 0.000000000000000
0.549657869598556 -0.037734855798982 0.000000000000000
0.680128166007840 0.003653327733251 0.000000000000000
0.775274418543516 0.016779697101901 0.000000000000000
0.765951486338239 -0.018678737013721 0.000000000000000
0.662752301627747 -0.014500097050120 0.000000000000000
0.655713850632249 0.017967557011628 0.000000000000000
0.721224716680036 0.007291460199210 0.000000000000000
0.724162235942414 -0.005090417268479 0.000000000000000
0.651008012295972 0.001804983119000 0.000000000000000
0.504989135091819 0.048476292933860 0.000000000000000
0.672285776907685 -0.002082685940038 0.000000000000000
0.736266990044394 0.040643675126234 0.000000000000000
0.729067753452181 0.006807443694259 0.000000000000000
0.704820679305579 -0.002868063905020 0.000000000000000
0.623865258529583 0.116563571658106 0.000000000000000
0.693150744447181 -0.000342457396576 0.000000000000000
0.705705357326427 0.000668104684226 0.000000000000000
0.760859190105182 -0.012266353636469 0.000000000000000
0.793234894120412 0.001411529241993 0.000000000000000
0.828562402099863 0.008144767169728 0.000000000000000
0.719295132733685 0.004417882012601 0.000000000000000
0.725889382644977 -0.020954717043930 0.000000000000000
0.696560865516802 -0.002331510973905 0.000000000000000
0.689404442081529 0.004951181974278 0.000000000000000
0.630894880897513 0.073395822753043 0.000000000000000
0.537483188757887 0.057127757980920 0.000000000000000
0.749833887575568 0.003499270073948 0.000000000000000
0.712873999599045 -0.095146090777984 0.000000000000000
-0.060812919111827 -0.000653852051277 0.000000000000000
0.386562500463383 -0.151365062962182 0.000000000000000
0.696988095599210 -0.000365955559971 0.000000000000000
0.379689909608888 0.152478018435192 0.000000000000000
0.695027495631204 0.000266236522945 0.000000000000000
0.799146774220398 0.008063439181283 0.000000000000000
0.736847183901577 -0.039591815005760 0.000000000000000
0.623875666969502 0.029813998962984 0.000000000000000
0.696338321798770 0.000385771073559 0.000000000000000
0.745287907641649 -0.005736336669279 0.000000000000000
0.729498807434760 0.007777595971152 0.000000000000000
0.759846547063526 0.000098229997544 0.000000000000000
0.678008537153573 -0.074527207136005 0.000000000000000
0.741201190628361 -0.240590666772743 0.000000000000000
0.702187909892569 -0.016210605018901 0.000000000000000
0.669760984393032 0.072706318803991 0.000000000000000
0.715440308592698 0.015190517601495 0.000000000000000
0.907063542770345 0.295301416053145 0.000000000000000
0.731088628664037 -0.002840320861287 0.000000000000000
0.750504427151780 0.015465510106004 0.000000000000000
0.787378733257681 0.000966018894785 0.000000000000000
0.994552601238426 -0.285917789181487 0.000000000000000
0.761496404023646 0.035511263109466 0.000000000000000
0.636982247120408 -0.107703721827602 0.000000000000000
0.588660695900681 -0.106245954742434 0.000000000000000
0.326852974895114 0.463155909634537 0.000000000000000
0.767734557811353 0.002222723383318 0.000000000000000
0.692785468984727 -0.005872880197822 0.000000000000000
0.703820634272162 0.006736750658842 0.000000000000000
0.735694929962058 -0.000172636491831 0.000000000000000
0.697435211841537 0.000705843360904 0.000000000000000
0.790703065529956 0.003506249922627 0.000000000000000
0.786176031998510 -0.002636225030012 0.000000000000000
0.982536449925115 -0.007187691232113 0.000000000000000
0.725983284413233 -0.006704138206274 0.000000000000000
0.735222964373524 -0.005981718361148 0.000000000000000
0.723391778341439 0.100097156710101 0.000000000000000
0.717179131832637 -0.000862888759307 0.000000000000000
0.736053745616342 -0.258804691140183 0.000000000000000
0.734177135789306 0.257132737652510 0.000000000000000
0.765580130837361 -0.021720615808026 0.000000000000000
0.760329026282626 0.020905000858745 0.000000000000000
0.673875976512803 0.016240832885462 0.000000000000000
0.777049025009168 0.003933842455712 0.000000000000000
0.768713461793248 -0.006387651246304 0.000000000000000
0.720728985734156 0.002324921218818 0.000000000000000
0.698786982879823 -0.016539209103403 0.000000000000000
0.707826509617778 -0.016321532254352 0.000000000000000
0.705618541995571 -0.016491764202260 0.000000000000000
0.816178796086697 0.048327445003441 0.000000000000000
0.810117264945686 -0.003987737647300 0.000000000000000
0.831915481207472 0.025094652562766 0.000000000000000
0.702398860513629 -0.000982137414656 0.000000000000000
0.704527746325666 -0.005808468479032 0.000000000000000
0.707311702578016 0.003212046098241 0.000000000000000
0.717779240825795 -0.000791064384323 0.000000000000000
0.713469001807883 0.004196040423075 0.000000000000000
0.718915197454373 0.007085139305985 0.000000000000000
0.720413759815526 -0.008611957663825 0.000000000000000
0.713092399686243 -0.004268364994517 0.000000000000000
0.708108965840846 -0.006991667245847 0.000000000000000
0.698855364967317 -0.003760915161677 0.000000000000000
0.713556771396048 -0.000650716028542 0.000000000000000
0.717061840201577 -0.000882666395768 0.000000000000000
0.714597406864324 0.002777643972964 0.000000000000000
0.716477463377688 0.002076237564383 0.000000000000000
0.685769185299966 -0.017050989610712 0.000000000000000
0.682443064793775 -0.007774788773557 0.000000000000000
0.701397697713642 -0.008500326913215 0.000000000000000
0.708740236764850 -0.010654473193853 0.000000000000000
0.707110746893360 0.013013481428645 0.000000000000000
0.707222971869632 0.013555780199748 0.000000000000000
0.838873462979926 -0.035036645334152 0.000000000000000
0.795871681571003 0.005978371081137 0.000000000000000
0.812991415158837 -0.060648066774493 0.000000000000000
0.721075149082192 -0.002239962347726 0.000000000000000
0.718249073600006 0.001257375686365 0.000000000000000
0.721324813598893 0.003314030034199 0.000000000000000
0.715064376815574 -0.001733602747544 0.000000000000000
0.698138662511561 -0.006265142983656 0.000000000000000
0.717852619497182 -0.022876683824009 0.000000000000000
0.705160680387502 0.000656937733174 0.000000000000000
0.748581342330197 -0.031685047388957 0.000000000000000
0.765813494776094 0.021782824136747 0.000000000000000
0.610088884299578 -0.021422936777375 0.000000000000000
0.724907597245042 -0.016750109831606 0.000000000000000
0.725816076414758 0.034113072117019 0.000000000000000
0.598210615594513 0.042894176188589 0.000000000000000
0.714010913541438 0.003754790846369 0.000000000000000
0.697159545175271 0.007472832812240 0.000000000000000
0.685525105346317 -0.092719682682193 0.000000000000000
0.742954960121251 -0.120122787972444 0.000000000000000
0.737360516979925 -0.113544804433921 0.000000000000000
0.712891484978659 -0.007422566724964 0.000000000000000
0.716350296967977 -0.001646724574252 0.000000000000000
0.724641900098100 0.004055566027464 0.000000000000000
0.722435907763137 0.003159102871482 0.000000000000000
0.721626728839099 -0.002170927970302 0.000000000000000
0.720817910134970 0.002323364157093 0.000000000000000
0.724300616652006 -0.003751131750106 0.000000000000000
0.882043357147425 -0.047371335216164 0.000000000000000
0.845309728920551 -0.194368798112826 0.000000000000000
0.807744440429395 -0.111798439158182 0.000000000000000
0.743036587312587 -0.000940763466401 0.000000000000000
0.716040148796789 0.007687497323881 0.000000000000000
0.720967400969186 -0.000578976986167 0.000000000000000
0.711220229963375 0.007399786492692 0.000000000000000
0.709989493148168 -0.007757182879783 0.000000000000000
0.678095442064671 -0.177447729924097 0.000000000000000
0.684654407567172 -0.110888435205111 0.000000000000000
0.875405184966209 -0.049669831508138 0.000000000000000
0.623268653910159 -0.023330565515951 0.000000000000000
0.721482592384152 -0.000658322616820 0.000000000000000
0.716371312938463 0.010116369931734 0.000000000000000
0.722402078542291 -0.003855844639460 0.000000000000000
0.718219822015175 0.000980695299819 0.000000000000000
0.819293474197459 0.080334644123804 0.000000000000000
0.834886880970294 0.161374024305509 0.000000000000000
0.925612159864075 0.121168348391973 0.000000000000000
0.714424789887060 0.001434588317085 0.000000000000000
0.717012198784857 0.001586040117406 0.000000000000000
0.716417381328630 -0.000113815220766 0.000000000000000
0.715617515946388 -0.000665574814247 0.000000000000000
0.885271096737877 -0.103393923130971 0.000000000000000
0.850086727241974 -0.147150965885880 0.000000000000000
0.816175020938281 -0.070837609086350 0.000000000000000
0.734420979310177 0.008148180156658 0.000000000000000
0.722125914542962 0.000841246793010 0.000000000000000
0.715332874321914 0.001290713536994 0.000000000000000
0.712689721915763 0.008296214145346 0.000000000000000
0.715337946833683 -0.006249276995401 0.000000000000000
0.634488689299792 0.021745922760298 0.000000000000000
0.864669492806358 0.037889236445642 0.000000000000000
0.719257350527125 -0.007423790570982 0.000000000000000
0.701210364555912 -0.000203022036216 0.000000000000000
0.698582609130781 -0.001229988756068 0.000000000000000
0.718866323731627 -0.000552699794565 0.000000000000000
0.731750743100154 -0.008063264543043 0.000000000000000
0.926665154380654 0.105803013565787 0.000000000000000
0.841805790213331 0.162307028192453 0.000000000000000
0.706952753739777 0.001140153684625 0.000000000000000
0.702083655850126 0.001338412229789 0.000000000000000
0.721828212972372 0.007991739015170 0.000000000000000
0.732759704324908 -0.006515672456653 0.000000000000000
0.722804897411570 -0.007202867654905 0.000000000000000
0.706341154391666 -0.003093457092534 0.000000000000000
0.719331457922606 -0.002618461240816 0.000000000000000
0.714173496820953 -0.001693225388116 0.000000000000000
0.767866267095580 -0.029050851344317 0.000000000000000
0.740070413328738 0.030810861402384 0.000000000000000
0.733298663799165 -0.031053326283413 0.000000000000000
0.767205109957899 0.032221523024168 0.000000000000000
0.357441742177510 -0.409393829236173 0.000000000000000
0.619172304617628 -0.498793783295072 0.000000000000000
0.835560220000507 -0.163999923685533 0.000000000000000
0.924904843688677 -0.107955487902818 0.000000000000000
0.738343780130656 -0.019923263058055 0.000000000000000
0.645769591026124 -0.033699650309133 0.000000000000000
0.702225124265864 -0.036516102229172 0.000000000000000
0.730532280504452 -0.027113243987652 0.000000000000000
0.733236624811004 0.026860101647747 0.000000000000000
0.701603149930777 0.036443323328187 0.000000000000000
0.647346571743142 0.033007240278240 0.000000000000000
0.712377010333216 -0.001529430614541 0.000000000000000
0.709626144504861 0.000270157534208 0.000000000000000
0.697740184895495 0.004646473426755 0.000000000000000
0.696223079769324 -0.010355513026770 0.000000000000000
0.721900016126232 -0.002369600483838 0.000000000000000
0.715747269631616 0.007147954349041 0.000000000000000
0.711906154830801 0.000574549063391 0.000000000000000
0.706052411017452 0.000282183065490 0.000000000000000
0.707980828975351 -0.009941825454373 0.000000000000000
0.750979549894528 0.042149730037714 0.000000000000000
0.746854710376895 0.039247370369715 0.000000000000000
0.737013709433287 0.030955056037575 0.000000000000000
0.717416047862553 0.000852973256016 0.000000000000000
0.723735386229607 -0.010535005654776 0.000000000000000
0.703900345294913 0.002974916153225 0.000000000000000
0.705993096303386 -0.001225482089410 0.000000000000000
0.716888542849108 0.011476179563150 0.000000000000000
0.717711752447703 -0.003253821497416 0.000000000000000
0.745738638005348 -0.025699828138066 0.000000000000000
0.750530289602473 -0.032475249965910 0.000000000000000
0.745409484410568 -0.039937374015712 0.000000000000000
0.757024440469942 0.033475972484379 0.000000000000000
0.758449060438025 -0.035068472991445 0.000000000000000
0.708246458992022 -0.010948117089443 0.000000000000000
0.677956501271100 0.038479908951261 0.000000000000000
0.703554300196530 0.093643905129056 0.000000000000000
0.694856859210669 -0.003355109453939 0.000000000000000
0.670155440177604 -0.006960708145536 0.000000000000000
0.718394803157670 -0.014317068962914 0.000000000000000
0.716387985854380 0.009448295453650 0.000000000000000
0.681663103889762 0.004585737860281 0.000000000000000
0.698164515274288 0.002435127535481 0.000000000000000
0.727844667260713 -0.004951723524459 0.000000000000000
0.656824381821199 -0.010531418703104 0.000000000000000
0.656234006614957 0.008909190334059 0.000000000000000
0.724207309771547 0.004291680569366 0.000000000000000
0.688988458674455 0.039860811732867 0.000000000000000
0.653764666824221 0.038106771320627 0.000000000000000
0.644425802144975 -0.036413594870469 0.000000000000000
0.695836606608086 -0.039223104287575 0.000000000000000
0.698772344060045 0.001139692139628 0.000000000000000
0.559944221929615 0.348493097611135 0.000000000000000
0.329250057942051 0.264955600795741 0.000000000000000
0.723135453338315 -0.003375113996406 0.000000000000000
0.722957021963371 0.004261665984474 0.000000000000000
0.693701039265524 -0.002681622979491 0.000000000000000
0.709015725667259 -0.100853887426556 0.000000000000000
0.688450861057659 -0.041141236439031 0.000000000000000
0.843988320288223 -0.126779835537748 0.000000000000000
0.773809698151784 0.044112682027155 0.000000000000000
0.323154777996850 -0.266354321554687 0.000000000000000
0.539106144911118 -0.352666246925091 0.000000000000000
0.768274991437969 -0.045636526721671 0.000000000000000
0.737925718826688 0.012081912178093 0.000000000000000
0.659280032514817 0.010790647931796 0.000000000000000
0.709613263488315 -0.012491396185146 0.000000000000000
0.727484025874890 -0.000981711537190 0.000000000000000
0.712604124295658 -0.019669597505443 0.000000000000000
0.718515429695389 0.001267281483127 0.000000000000000
0.720298753682185 -0.004948702858141 0.000000000000000
0.719624194294197 0.009527877506552 0.000000000000000
0.712985877355135 0.001474585548801 0.000000000000000
0.715128052750736 0.003493167429784 0.000000000000000
0.756988821116058 -0.032887215888994 0.000000000000000
0.709023454109370 -0.022470753630684 0.000000000000000
1.111749868127176 0.078532923851252 0.000000000000000
0.988102991395726 -0.123709895989885 0.000000000000000
0.915451040304440 0.120426779964890 0.000000000000000
0.817037620669636 0.026542658631570 0.000000000000000
0.642791065902735 -0.028856231396507 0.000000000000000
0.700347815257575 -0.036570918546786 0.000000000000000
0.722196975555360 -0.038489054120901 0.000000000000000
0.722206401113675 0.042534949486788 0.000000000000000
0.695548152301941 0.038808222906746 0.000000000000000
0.635166422004836 0.030253612591120 0.000000000000000
0.718259295919824 -0.000436982958329 0.000000000000000
0.726093420482196 0.007179190084497 0.000000000000000
0.716579151707329 0.010303995518110 0.000000000000000
0.726091821961211 0.005512346833867 0.000000000000000
0.724856979196280 -0.084119491348400 0.000000000000000
0.726610377855550 -0.001997749891295 0.000000000000000
0.714163424282085 0.005303700606763 0.000000000000000
0.705455157695698 -0.018267091369572 0.000000000000000
0.720309572444407 0.003557622116304 0.000000000000000
0.713852427548458 0.009951467786590 0.000000000000000
0.701002269263339 0.021923981658613 0.000000000000000
0.889004620179223 0.227471852551056 0.000000000000000
0.715036558438740 -0.006818969833669 0.000000000000000
0.712931054953344 0.007131373060744 0.000000000000000
0.746886021293698 0.002824825010675 0.000000000000000
0.762173986428234 0.008651980857089 0.000000000000000
0.350963921699242 0.097171985307655 0.000000000000000
0.603144826255113 -0.061273924456217 0.000000000000000
0.768043280669580 0.108160636712014 0.000000000000000
0.765979743385558 0.170313675856510 0.000000000000000
0.707110571855067 0.140869840724518 0.000000000000000
0.771072785401553 0.160283169827242 0.000000000000000
0.748485234607107 0.115535949914113 0.000000000000000
0.798903729695917 0.154645347122442 0.000000000000000
0.710685317964167 0.111873729946401 0.000000000000000
0.655170446065187 0.173570461527028 0.000000000000000
0.766141805608427 0.269451408338125 0.000000000000000
0.788604664342729 0.228274607691488 0.000000000000000
0.688071798528757 0.080511265892296 0.000000000000000
0.668174794669084 0.053438842580243 0.000000000000000
0.666071019939685 0.033548056130977 0.000000000000000
0.680642027212592 -0.039797863001087 0.000000000000000
0.707978983288094 -0.014142222001758 0.000000000000000
0.692216108643975 0.008617732324020 0.000000000000000
0.682054846777031 0.000483910622644 0.000000000000000
0.777141383755865 -0.176342180267103 0.000000000000000
0.761929006117944 -0.114469795122457 0.000000000000000
0.663324957006056 -0.023753796530530 0.000000000000000
0.708946774739925 -0.023532241956213 0.000000000000000
0.707478822093075 0.023231030678896 0.000000000000000
0.659982220790389 0.020634408920286 0.000000000000000
1.105614138175604 -0.113066809851780 0.000000000000000
0.934854517590041 -0.223528262456819 0.000000000000000
0.710234784336540 0.007537335077689 0.000000000000000
0.704093335351411 0.012120446727402 0.000000000000000
0.662515846953365 -0.026142671296069 0.000000000000000
0.711148550197612 0.006723377047060 0.000000000000000
0.694740844599248 0.003653613853608 0.000000000000000
0.714342410405507 -0.000311010466889 0.000000000000000
0.708688540829605 0.000713621031160 0.000000000000000
0.709307420921098 -0.001376893974630 0.000000000000000
0.715129170140980 -0.004857157032410 0.000000000000000
0.727412705799426 0.001833076602811 0.000000000000000
0.837245816179300 0.102327128472980 0.000000000000000
0.675078418422621 0.112786435641700 0.000000000000000
0.722504177108585 0.031640710653430 0.000000000000000
0.738119029584406 0.057649973481747 0.000000000000000
0.875854733099630 0.327163640262841 0.000000000000000
0.440288749343408 0.358398735684645 0.000000000000000
0.710135926590493 0.417097930196546 0.000000000000000
0.659884896517611 -0.241562414912990 0.000000000000000
0.637667440021798 -0.165401332635196 0.000000000000000
0.730943904527791 -0.001174987000607 0.000000000000000
0.714770373051475 0.009729843831706 0.000000000000000
0.733822504277773 0.071935887968897 0.000000000000000
0.744316218715798 0.095474643016523 0.000000000000000
0.756162443418781 0.077879192967058 0.000000000000000
0.712166538878094 0.002756257310147 0.000000000000000
0.712358292475574 0.000137507022221 0.000000000000000
0.691208455746861 0.022860093942922 0.000000000000000
0.729081314376900 0.008377562754147 0.000000000000000
0.720034023192827 0.004194445029554 0.000000000000000
0.695716937607517 0.145755759955356 0.000000000000000
0.687521342877467 0.128127954403654 0.000000000000000
0.719485822487055 0.034215162985839 0.000000000000000
0.722578349631761 -0.031699161912668 0.000000000000000
0.599911066419258 0.045322188868137 0.000000000000000
0.599462930588565 -0.043832215494244 0.000000000000000
0.677629713143262 -0.007328487598112 0.000000000000000
0.660345124236830 0.013067385475791 0.000000000000000
0.712458973762335 -0.003553409783730 0.000000000000000
0.715387086784763 -0.009180502025248 0.000000000000000
0.711841832602236 0.011350066746798 0.000000000000000
0.714542641517994 0.006299228793609 0.000000000000000
0.704787780479375 0.013472846245118 0.000000000000000
0.779986239623342 -0.219412414671229 0.000000000000000
1.129456987103657 0.120104466928143 0.000000000000000
0.694419703402653 -0.033641642310394 0.000000000000000
0.644380549227274 0.022965723216981 0.000000000000000
0.704696603881440 0.005496655859860 0.000000000000000
0.698351675684589 0.004505441874391 0.000000000000000
0.718047831961711 0.020846168648787 0.000000000000000
0.406681157757792 -0.057987669945870 0.000000000000000
0.400649051039692 -0.129978858870162 0.000000000000000
0.724021921709921 -0.005171948870527 0.000000000000000
0.401175990458341 0.127772126536783 0.000000000000000
0.399609805212780 0.059294309721048 0.000000000000000
0.716945725062905 -0.022560844323892 0.000000000000000
0.708994152779323 -0.002423244422946 0.000000000000000
0.724947508967795 -0.005545309664512 0.000000000000000
0.707309271076875 0.008469059524124 0.000000000000000
0.695591147282951 0.034236318091569 0.000000000000000
0.703096197878964 -0.029379457684183 0.000000000000000
0.713516285243941 -0.003231703528173 0.000000000000000
0.721880528989691 0.000979720388396 0.000000000000000
0.708464498375401 -0.000320868417362 0.000000000000000
0.706149078209349 0.002088122877510 0.000000000000000
0.722086952279984 -0.000851368175748 0.000000000000000
0.699973865916192 -0.103072515049174 0.000000000000000
0.702283314978610 -0.089143836963304 0.000000000000000
0.888018522886265 0.218586298176080 0.000000000000000
0.961163100197103 0.107237756875333 0.000000000000000
0.659028261891665 -0.004534331754084 0.000000000000000
0.662591564544275 -0.045490511728702 0.000000000000000
0.749787456719355 0.078538568102216 0.000000000000000
0.683058820240879 0.106450419211399 0.000000000000000
0.683227467822833 0.003764300751480 0.000000000000000
1.206482512416098 -0.108658604529842 0.000000000000000
0.689719816004054 0.030506281191464 0.000000000000000
0.662965571392642 0.013930213189944 0.000000000000000
0.673648565673426 0.017419425327643 0.000000000000000
0.704632368862161 -0.028732264404495 0.000000000000000
0.696184872407095 -0.005869604785647 0.000000000000000
0.879852736059417 -0.049624830161156 0.000000000000000
0.944757238642254 -0.003871145044836 0.000000000000000
0.498593754371091 0.169698821086482 0.000000000000000
0.499585928183894 -0.171191471926178 0.000000000000000
0.711218278982301 0.003368654367102 0.000000000000000
0.713001518259065 0.001518041741360 0.000000000000000
0.712921166379040 -0.001730814785192 0.000000000000000
0.671894971474540 -0.303184143646352 0.000000000000000
0.783022827694150 -0.317939507521255 0.000000000000000
0.714878373384517 0.001046875260769 0.000000000000000
0.713337354615992 -0.005068523839365 0.000000000000000
0.749094358656434 0.090803836666412 0.000000000000000
0.712702043677007 0.004285503255661 0.000000000000000
0.708765996968423 0.004688776523965 0.000000000000000
0.713495429315614 -0.005653046638564 0.000000000000000
0.707206243498928 -0.008637285054299 0.000000000000000
0.704390937930755 0.007082442821545 0.000000000000000
0.723147099212328 0.006895380822987 0.000000000000000
0.692274477248698 0.012559519678143 0.000000000000000
0.671353939013040 -0.014104091936746 0.000000000000000
0.714687638028048 0.010026147672446 0.000000000000000
0.705137528742210 -0.000928293431933 0.000000000000000
0.773919161772017 -0.016467902141796 0.000000000000000
0.780365656572242 0.020309931524023 0.000000000000000
0.719310645857972 0.099796760061499 0.000000000000000
0.684094300288824 0.105350960836690 0.000000000000000
0.498823093842860 0.118080880340640 0.000000000000000
0.190331283001991 -0.000706091792804 0.000000000000000
0.702370355960237 -0.003298709218083 0.000000000000000
0.708135015760328 0.009322513043901 0.000000000000000
0.706559075331317 -0.001513503857843 0.000000000000000
0.713542544000274 -0.002093402437733 0.000000000000000
0.709690431417334 0.001782636215752 0.000000000000000
0.705342440218844 0.004414749621680 0.000000000000000
0.701304581000886 0.001227514764457 0.000000000000000
0.728582247751986 0.005589201507166 0.000000000000000
0.714747644559985 -0.002488078472318 0.000000000000000
0.722548832101333 -0.030869851690783 0.000000000000000
0.721205564165086 0.030133299343684 0.000000000000000
0.698102620261988 0.004773552045599 0.000000000000000
0.707528260545348 0.001440456786358 0.000000000000000
0.702159181957458 0.000646139049380 0.000000000000000
0.706387948426846 0.000022874001009 0.000000000000000
0.711562533375474 0.001659402153717 0.000000000000000
0.717949160837451 -0.000250381787945 0.000000000000000
0.700771193544076 0.001925947657701 0.000000000000000
0.702698922653196 -0.004065275622390 0.000000000000000
0.699715792079484 -0.011917315121269 0.000000000000000
0.734523375523152 -0.021435666069636 0.000000000000000
0.700549133189756 0.003917691979807 0.000000000000000
0.697978265734361 -0.007337500902837 0.000000000000000
0.730598104905978 0.009017065842819 0.000000000000000
0.498424673757788 -0.121859550370886 0.000000000000000
0.595179593088303 -0.047815253659022 0.000000000000000
0.605660754140131 0.043138872561455 0.000000000000000
0.600505994305574 -0.139603147484795 0.000000000000000
0.573605511016520 -0.067419380995497 0.000000000000000
0.643417081225848 -0.113839296512988 0.000000000000000
1.034885808601682 0.359625135324661 0.000000000000000
0.881709052269621 0.280818189109267 0.000000000000000
0.669125515338328 0.085590235772751 0.000000000000000
0.651336939769550 0.112857873277573 0.000000000000000
0.717069485062574 -0.001341974024149 0.000000000000000
0.703976380734582 -0.016182593541974 0.000000000000000
0.906143376318804 -0.287216943871135 0.000000000000000
1.004367058961699 -0.353856534938604 0.000000000000000
0.671747331690588 -0.053679556933678 0.000000000000000
0.694071356088000 -0.080276571606069 0.000000000000000
0.575752043838633 0.250844950950806 0.000000000000000
0.726174143004897 -0.016315318087012 0.000000000000000
0.591732168226481 -0.005684311463020 0.000000000000000
0.584792396833630 -0.004417105631867 0.000000000000000
0.719997894148235 0.018171050401642 0.000000000000000
0.721075106058021 0.007911363926120 0.000000000000000
0.716247155610244 0.012100415231581 0.000000000000000
0.615517305618703 0.006711989757323 0.000000000000000
0.717485453369913 -0.001021361381455 0.000000000000000
0.709707535298278 -0.003974289601338 0.000000000000000
0.617462506053974 -0.007284863356990 0.000000000000000
0.683547314288535 0.076597271667452 0.000000000000000
0.624877134747629 0.009585423638376 0.000000000000000
0.672289035632386 -0.001462343730024 0.000000000000000
0.594276015205193 -0.058888702113708 0.000000000000000
0.717751894283638 0.000276276860414 0.000000000000000
0.720835856123630 -0.003051969510488 0.000000000000000
0.585272036128134 0.007686982254194 0.000000000000000
0.584729320277167 0.012973734049338 0.000000000000000
0.706691267155317 0.008367312026309 0.000000000000000
0.708057332084157 0.000810511820382 0.000000000000000
0.708128673939299 -0.000523286857610 0.000000000000000
0.531529654777668 0.058032991097585 0.000000000000000
0.693258839655712 -0.021566500484025 0.000000000000000
0.881931994677430 0.042425957572971 0.000000000000000
0.736897435113017 0.010234143427289 0.000000000000000
0.736772858013067 -0.007672648004580 0.000000000000000
0.717409758131536 0.072040869962807 0.000000000000000
0.646181197770006 0.031718278797266 0.000000000000000
0.593184175610904 0.067098817183040 0.000000000000000
0.655033295375438 -0.037094672463801 0.000000000000000
0.734994002873971 -0.005872356273041 0.000000000000000
0.709416985175281 0.000402910573583 0.000000000000000
0.708017158287433 0.000961962367717 0.000000000000000
0.711414318618377 -0.001369613177478 0.000000000000000
0.667160004139801 -0.083019441477216 0.000000000000000
0.706578437208628 0.002521940335803 0.000000000000000
0.728518579940260 0.001140193851128 0.000000000000000
0.718180435636099 -0.017280207558751 0.000000000000000
0.706972756788864 -0.016971419537870 0.000000000000000
0.707968866777250 0.012918330982647 0.000000000000000
0.713329018507114 0.015229924166176 0.000000000000000
0.693404613085335 0.016563132939430 0.000000000000000
0.709447274756209 -0.005111786083696 0.000000000000000
0.717031945112536 -0.002350692009894 0.000000000000000
0.698867409677679 0.012445611593535 0.000000000000000
0.532957531045379 -0.060053394055132 0.000000000000000
0.710370048355753 -0.001527359809149 0.000000000000000
0.710672122824469 -0.005612686695427 0.000000000000000
0.724540210356587 -0.006373853818239 0.000000000000000
0.720690809592835 0.010216241181550 0.000000000000000
0.711054828525177 0.005264658553050 0.000000000000000
0.747680480691241 -0.112911461579068 0.000000000000000
0.764162460672916 -0.165139434883612 0.000000000000000
0.704797582391755 -0.139819134467126 0.000000000000000
0.610261707254706 0.014883174057734 0.000000000000000
0.638204785868279 -0.017212930386107 0.000000000000000
0.618314494528958 0.013890460058633 0.000000000000000
0.578215217449629 -0.032312788321347 0.000000000000000
0.665357437747090 0.045807537830121 0.000000000000000
0.787528423902312 -0.231246868551423 0.000000000000000
0.455920550168182 0.000365098155652 0.000000000000000
0.578555811452446 -0.236036897770709 0.000000000000000
0.577129722142903 0.238689906225631 0.000000000000000
0.710813250487692 -0.004735991130245 0.000000000000000
0.719880913018199 0.008174947062568 0.000000000000000
0.689706441616334 -0.102927035966984 0.000000000000000
0.830537311243322 -0.098775130204890 0.000000000000000
0.712823802781491 0.003821881819046 0.000000000000000
0.709587216971903 -0.000936733676013 0.000000000000000
0.717394884428676 0.001522262497613 0.000000000000000
0.706932419490656 -0.003114600989008 0.000000000000000
0.568228095572254 0.068668202315969 0.000000000000000
0.591270216332333 0.142351161517104 0.000000000000000
0.693962137949734 -0.024282277766084 0.000000000000000
0.692602994701031 0.025476691926382 0.000000000000000
0.398179692642677 0.441926356842814 0.000000000000000
0.743180617662103 0.011479034288285 0.000000000000000
0.736291607737053 -0.002279246028409 0.000000000000000
0.719072015602697 -0.016368462175848 0.000000000000000
0.704847069455557 0.017203729652034 0.000000000000000
0.717307369882346 0.016193530638092 0.000000000000000
0.802432611377181 -0.066461100843948 0.000000000000000
0.749685509016322 -0.087095226840725 0.000000000000000
0.677969187236066 -0.102780404791289 0.000000000000000
0.717349583104533 -0.000929961809154 0.000000000000000
0.700681476706730 -0.000137111381339 0.000000000000000
0.715812562548193 -0.005093631307146 0.000000000000000
0.734032104614759 -0.059937593546415 0.000000000000000
0.741956261503616 -0.063231237921446 0.000000000000000
0.750765672193159 -0.077425936505966 0.000000000000000
0.636668315494856 0.082782507906519 0.000000000000000
0.711815253698788 -0.009709812131488 0.000000000000000
0.852832216028290 -0.020964256252893 0.000000000000000
0.724667213809246 -0.009081507186398 0.000000000000000
0.713112077146626 -0.004155206784155 0.000000000000000
0.713814598942389 -0.003820787788815 0.000000000000000
0.756290508157144 0.088930042976660 0.000000000000000
0.778301047345053 0.057420403160915 0.000000000000000
0.680312971266859 0.011852634664564 0.000000000000000
0.702960513266399 0.006762778112654 0.000000000000000
0.767275832576678 -0.037393139424930 0.000000000000000
0.709043820212921 0.004515550192275 0.000000000000000
0.715008007984516 0.001937224552591 0.000000000000000
0.711933888284102 0.000762593224909 0.000000000000000
0.722270850191762 0.048535276609099 0.000000000000000
0.664087858798361 0.220699102141651 0.000000000000000
0.741421771518200 -0.010084130263687 0.000000000000000
0.763432974707505 -0.006047674767632 0.000000000000000
0.724759676455023 -0.036337751966691 0.000000000000000
0.716038266608866 -0.004903604497632 0.000000000000000
0.736618734371982 0.009994060872084 0.000000000000000
0.701778277691906 0.013562654498450 0.000000000000000
0.706238063679667 0.021703067526854 0.000000000000000
0.586534203845800 -0.173563484018052 0.000000000000000
0.758722438958326 0.025858575939204 0.000000000000000
0.587540470361079 0.176848782867189 0.000000000000000
0.817042409624829 0.062429892059495 0.000000000000000
0.727767804098243 0.004433319213280 0.000000000000000
0.706012353171234 -0.109918939679918 0.000000000000000
0.771025574051344 0.018984827513857 0.000000000000000
0.847111705377342 0.007068743353647 0.000000000000000
0.738950945031666 -0.068093387464551 0.000000000000000
0.777149664445636 0.005602047562490 0.000000000000000
0.784133985353356 -0.002114086241678 0.000000000000000
0.704361476134799 0.019406340589092 0.000000000000000
