# vtk DataFile Version 3.0
    
ASCII
DATASET UNSTRUCTURED_GRID
POINTS 211 float
0 0 0
1.5 0 0
5 0 0
5 1 0
1.5 1 0
0 1 0
0.6 0.5 0
0.8 0.5 0
0 0.7 0
0 0.3 0
0.1875 0 0
0.375 0 0
0.5625 0 0
0.75 0 0
0.9375 0 0
1.125 0 0
1.3125 0 0
1.6918 0 0
1.88885 0 0
2.0913 0 0
2.2993 0 0
2.513 0 0
2.73255 0 0
2.95812 0 0
3.18987 0 0
3.42797 0 0
3.67259 0 0
3.92392 0 0
4.18213 0 0
4.44742 0 0
4.71998 0 0
5 0.25 0
5 0.5 0
5 0.75 0
4.71998 1 0
4.44742 1 0
4.18213 1 0
3.92392 1 0
3.67259 1 0
3.42797 1 0
3.18987 1 0
2.95812 1 0
2.73255 1 0
2.513 1 0
2.2993 1 0
2.0913 1 0
1.88885 1 0
1.6918 1 0
1.3125 1 0
1.125 1 0
0.9375 1 0
0.75 1 0
0.5625 1 0
0.375 1 0
0.1875 1 0
0.65 0.413397 0
0.75 0.413397 0
0.75 0.586603 0
0.65 0.586603 0
0 0.85 0
0 0.5 0
0 0.15 0
1.28769 0.541691 0
1.80683 0.5 0
2.30689 0.5 0
1.04359 0.713578 0
1.04716 0.286804 0
0.379599 0.2959 0
0.317386 0.626876 0
2.81338 0.5 0
3.32407 0.5 0
3.72891 0.5 0
4.23765 0.502258 0
0.472788 0.749448 0
0.721932 0.786654 0
1.55349 0.68868 0
1.53853 0.312531 0
0.70188 0.211648 0
2.05686 0.688672 0
2.04751 0.313768 0
1.0294 0.501368 0
0.420557 0.474529 0
2.56014 0.688089 0
2.54704 0.312571 0
0.236458 0.443235 0
1.28789 0.750455 0
1.28789 0.249545 0
3.06872 0.697034 0
3.06625 0.304468 0
0.184397 0.775 0
0.522203 0.273985 0
4.68206 0.376541 0
0.185265 0.225424 0
0.885273 0.273205 0
0.887124 0.726274 0
0.490245 0.631933 0
1.76818 0.722484 0
1.80173 0.242436 0
3.58158 0.690095 0
3.58158 0.309905 0
4.09061 0.689854 0
4.09061 0.310381 0
4.61253 0.787422 0
2.28937 0.742276 0
2.30044 0.237789 0
2.81894 0.754953 0
2.87003 0.189647 0
0.125119 0.632046 0
3.32239 0.756666 0
3.32376 0.241505 0
0.534673 0.413811 0
0.326024 0.752415 0
0.862237 0.401053 0
0.864906 0.599215 0
0.427119 0.150723 0
3.8293 0.765298 0
3.8293 0.234732 0
1.49708 0.5 0
1.13064 0.425836 0
4.30011 0.235016 0
4.30852 0.766452 0
0.993856 0.143338 0
0.993184 0.85645 0
0.598965 0.696815 0
2.01108 0.491313 0
1.14028 0.166436 0
1.1393 0.833832 0
0.857948 0.873875 0
0.853702 0.125638 0
1.10726 0.581369 0
0.700676 0.340164 0
1.41871 0.827953 0
1.41667 0.17223 0
0.7 0.681457 0
0.123723 0.357777 0
2.51322 0.490201 0
0.575162 0.14066 0
0.284895 0.11752 0
3.02427 0.490966 0
1.62042 0.856275 0
1.63477 0.171695 0
1.95275 0.828728 0
1.95522 0.167941 0
1.39862 0.36965 0
1.40601 0.652783 0
4.78659 0.589575 0
0.268442 0.881771 0
1.65707 0.556616 0
0.587485 0.858654 0
2.14096 0.84741 0
2.14856 0.163903 0
0.401275 0.669361 0
1.69516 0.377293 0
3.52542 0.5 0
4.57233 0.212331 0
2.4565 0.168057 0
2.4565 0.831943 0
2.63815 0.1742 0
2.63424 0.850737 0
1.9119 0.638661 0
1.89965 0.363913 0
0.505172 0.52239 0
0.43204 0.873715 0
4.79951 0.201204 0
0.253163 0.325707 0
0.914589 0.500966 0
0.122301 0.119657 0
2.15496 0.558669 0
0.119547 0.880295 0
3.96773 0.50042 0
0.322715 0.513493 0
0.340949 0.405963 0
0.409558 0.573097 0
2.19637 0.376767 0
2.39843 0.36305 0
2.41948 0.644093 0
4.82127 0.825147 0
0.979636 0.606422 0
0.616283 0.331078 0
1.17314 0.684185 0
0.979337 0.396659 0
1.17071 0.301059 0
0.78542 0.329319 0
2.66481 0.557336 0
3.07598 0.133991 0
3.07338 0.863107 0
0.784793 0.67604 0
0.22416 0.558337 0
0.433203 0.382916 0
0.290471 0.226996 0
0.568876 0.587548 0
4.49997 0.495656 0
2.9058 0.370775 0
2.92344 0.620418 0
2.70981 0.374927 0
4.8603 0.375 0
3.55457 0.863076 0
3.55465 0.13683 0
0.136096 0.49468 0
1.78609 0.886365 0
1.7914 0.105357 0
0.229481 0.67404 0
3.17057 0.56505 0
0.0761447 0.225 0
0.0769458 0.775 0
1.26231 0.878964 0
1.263 0.121104 0
1.25823 0.378431 0
4.05664 0.864857 0
4.05303 0.127917 0
3.18178 0.420398 0
CELLS 360 1440
3 179 62 85
3 13 77 136
3 75 147 96
3 70 153 108
3 70 109 153
3 63 96 147
3 98 108 153
3 99 153 109
3 62 179 129
3 85 62 144
3 34 35 102
3 51 148 74
3 71 98 153
3 71 153 99
3 63 159 96
3 22 23 106
3 41 42 105
3 23 184 106
3 41 105 185
3 75 96 139
3 67 114 90
3 119 154 191
3 71 115 98
3 71 99 116
3 77 178 90
3 35 120 102
3 71 169 115
3 71 116 169
3 67 90 188
3 51 74 127
3 88 106 184
3 87 185 105
3 77 93 182
3 100 115 169
3 101 169 116
3 74 186 94
3 72 119 191
3 72 169 101
3 72 100 169
3 13 128 77
3 76 152 117
3 91 191 154
3 8 60 107
3 117 152 147
3 72 101 119
3 72 120 100
3 78 167 103
3 24 25 109
3 39 40 108
3 6 110 55
3 9 134 60
3 12 13 136
3 38 196 115
3 26 116 197
3 64 103 167
3 97 152 140
3 87 105 193
3 88 192 106
3 66 93 121
3 49 122 126
3 15 125 121
3 65 122 94
3 37 38 115
3 26 27 116
3 76 140 152
3 66 180 93
3 44 149 103
3 20 104 150
3 44 103 156
3 20 155 104
3 24 109 184
3 40 185 108
3 49 50 122
3 7 56 112
3 98 115 196
3 99 197 116
3 14 15 121
3 65 94 177
3 77 90 136
3 77 128 93
3 7 113 57
3 74 94 127
3 34 102 176
3 82 183 105
3 78 103 149
3 87 108 185
3 88 184 109
3 64 175 103
3 11 12 114
3 77 130 178
3 74 148 123
3 36 208 120
3 28 119 209
3 91 145 191
3 69 105 183
3 12 136 114
3 102 120 191
3 4 48 131
3 1 132 16
3 72 191 120
3 77 182 130
3 100 120 208
3 101 209 119
3 35 36 120
3 28 29 119
3 51 52 148
3 6 161 110
3 93 180 112
3 89 204 107
3 73 123 148
3 73 95 123
3 8 107 204
3 80 180 118
3 82 105 158
3 2 163 30
3 94 113 177
3 48 205 131
3 16 132 206
3 74 133 186
3 69 193 105
3 2 31 163
3 42 158 105
3 22 106 157
3 79 173 124
3 87 202 108
3 89 107 201
3 52 162 148
3 58 123 190
3 90 110 188
3 88 109 210
3 68 111 201
3 124 173 167
3 66 118 180
3 102 191 145
3 70 108 202
3 73 151 95
3 98 196 108
3 99 109 197
3 90 114 136
3 39 108 196
3 25 197 109
3 19 20 150
3 44 45 149
3 85 144 131
3 86 132 143
3 55 130 56
3 81 110 161
3 43 44 156
3 20 21 155
3 66 121 125
3 0 10 166
3 70 210 109
3 5 168 54
3 65 126 122
3 91 195 145
3 18 19 142
3 45 46 141
3 75 131 144
3 76 143 132
3 67 189 114
3 58 133 123
3 80 118 129
3 68 151 111
3 62 129 118
3 57 133 58
3 52 53 162
3 4 139 47
3 1 17 140
3 60 134 198
3 5 59 168
3 0 166 61
3 83 194 135
3 55 110 178
3 135 194 183
3 73 148 162
3 50 51 127
3 13 14 128
3 96 159 141
3 97 142 160
3 3 34 176
3 4 131 139
3 1 140 132
3 94 122 127
3 93 128 121
3 73 111 151
3 89 201 111
3 7 112 165
3 19 150 142
3 45 141 149
3 78 141 159
3 79 160 142
3 83 157 194
3 106 194 157
3 101 116 209
3 100 208 115
3 62 143 117
3 62 117 144
3 79 150 173
3 74 123 133
3 75 144 117
3 76 117 143
3 29 30 154
3 97 140 200
3 96 199 139
3 7 165 113
3 27 209 116
3 37 115 208
3 92 166 137
3 56 182 112
3 89 111 146
3 104 173 150
3 3 176 33
3 75 117 147
3 50 127 122
3 57 113 186
3 80 129 177
3 95 190 123
3 14 121 128
3 85 131 205
3 10 11 137
3 86 206 132
3 88 210 138
3 15 16 206
3 32 33 145
3 48 49 205
3 73 162 111
3 42 43 158
3 21 22 157
3 81 188 110
3 138 210 202
3 53 54 146
3 97 160 152
3 63 152 160
3 75 139 131
3 76 132 140
3 112 180 165
3 65 177 129
3 60 198 107
3 15 206 125
3 49 126 205
3 63 147 152
3 95 172 161
3 11 114 137
3 29 154 119
3 30 163 154
3 63 124 159
3 63 160 124
3 78 149 141
3 79 142 150
3 114 189 137
3 81 161 172
3 32 145 195
3 65 179 126
3 66 125 181
3 66 181 118
3 104 155 174
3 103 175 156
3 113 165 177
3 78 159 124
3 79 124 160
3 83 174 155
3 82 156 175
3 92 134 203
3 40 41 185
3 23 24 184
3 38 39 196
3 25 26 197
3 46 47 199
3 17 18 200
3 27 28 209
3 36 37 208
3 111 162 146
3 90 178 110
3 78 124 167
3 9 203 134
3 80 165 180
3 9 61 203
3 10 137 166
3 8 204 59
3 17 200 140
3 47 139 199
3 91 154 163
3 55 178 130
3 31 32 195
3 92 164 134
3 56 130 182
3 102 145 176
3 104 174 173
3 64 173 174
3 89 146 168
3 96 141 199
3 97 200 142
3 6 58 190
3 46 199 141
3 18 142 200
3 43 156 158
3 21 157 155
3 57 186 133
3 80 177 165
3 85 126 179
3 86 181 125
3 53 146 162
3 84 134 164
3 92 137 189
3 65 129 179
3 93 112 182
3 64 135 175
3 64 174 135
3 67 171 164
3 95 151 172
3 64 167 173
3 82 175 135
3 83 135 174
3 83 155 157
3 82 158 156
3 94 186 113
3 82 135 183
3 85 205 126
3 84 198 134
3 106 192 194
3 69 194 192
3 68 201 187
3 86 125 206
3 62 118 207
3 84 164 171
3 33 176 145
3 69 192 138
3 69 138 193
3 68 172 151
3 6 190 161
3 81 170 171
3 87 193 138
3 88 138 192
3 81 172 170
3 86 143 207
3 87 138 202
3 54 168 146
3 92 203 166
3 69 183 194
3 68 170 172
3 62 207 143
3 89 168 204
3 61 166 203
3 59 204 168
3 107 187 201
3 70 202 210
3 31 195 163
3 67 164 189
3 68 187 170
3 107 198 187
3 91 163 195
3 81 171 188
3 92 189 164
3 84 171 170
3 67 188 171
3 84 187 198
3 95 161 190
3 84 170 187
3 118 181 207
3 86 207 181
CELL_TYPES 360
5
5
5
5
5
5
5
5
5
5
5
5
5
5
5
5
5
5
5
5
5
5
5
5
5
5
5
5
5
5
5
5
5
5
5
5
5
5
5
5
5
5
5
5
5
5
5
5
5
5
5
5
5
5
5
5
5
5
5
5
5
5
5
5
5
5
5
5
5
5
5
5
5
5
5
5
5
5
5
5
5
5
5
5
5
5
5
5
5
5
5
5
5
5
5
5
5
5
5
5
5
5
5
5
5
5
5
5
5
5
5
5
5
5
5
5
5
5
5
5
5
5
5
5
5
5
5
5
5
5
5
5
5
5
5
5
5
5
5
5
5
5
5
5
5
5
5
5
5
5
5
5
5
5
5
5
5
5
5
5
5
5
5
5
5
5
5
5
5
5
5
5
5
5
5
5
5
5
5
5
5
5
5
5
5
5
5
5
5
5
5
5
5
5
5
5
5
5
5
5
5
5
5
5
5
5
5
5
5
5
5
5
5
5
5
5
5
5
5
5
5
5
5
5
5
5
5
5
5
5
5
5
5
5
5
5
5
5
5
5
5
5
5
5
5
5
5
5
5
5
5
5
5
5
5
5
5
5
5
5
5
5
5
5
5
5
5
5
5
5
5
5
5
5
5
5
5
5
5
5
5
5
5
5
5
5
5
5
5
5
5
5
5
5
5
5
5
5
5
5
5
5
5
5
5
5
5
5
5
5
5
5
5
5
5
5
5
5
5
5
5
5
5
5
5
5
5
5
5
5
5
5
5
5
5
5
5
5
5
5
5
5
5
5
5
5
5
5
5
5
5
5
5
5
5
5
5
5
5
5
POINT_DATA 211
SCALARS scalars float 1
LOOKUP_TABLE default
-0.082382525524223
-0.029392642546661
0.000083925838757
0.001526326970681
-0.031435595220585
-0.083612070453216
-0.180064774716673
0.011413512397873
-0.079144198188349
-0.079006560052594
-0.082151428556566
-0.082811696796665
-0.081121524711410
0.020518631259199
-0.012343562235584
0.007658682655243
-0.015811653825644
-0.027695647109318
-0.027403508855081
-0.025410116282934
-0.025432700235844
-0.021481362408105
-0.021190405615580
-0.018073836786582
-0.014726515895924
-0.015180058767051
-0.010637683780737
-0.010002250830912
-0.006226261104977
-0.006046075810378
-0.000954388753585
-0.000026529575581
0.000536184830149
0.000654469594646
-0.002455772531446
-0.005702659279197
-0.006451877061484
-0.009973547449904
-0.011288518427760
-0.014736193104969
-0.015592738835542
-0.019077746044685
-0.019041256318487
-0.022705126844124
-0.022511427306638
-0.026248263964631
-0.028080433718991
-0.024305325654871
-0.018321245284703
0.004456935234381
-0.008405646220892
0.037934656662988
-0.077255963077366
-0.082684570468925
-0.083123787707997
-0.069836113337056
0.036634972504978
0.035906532072949
-0.025361676147414
-0.080740129087832
-0.078286389485564
-0.080482059610625
-0.019713487982070
-0.026747425876397
-0.022987764209291
0.000315770049149
-0.005270842665902
-0.074545969812321
-0.084329297280610
-0.019688378177718
-0.015363869424722
-0.011246957486802
-0.006992548919008
-0.077676426092638
0.040861408619822
-0.028131300039447
-0.028618359723063
0.003672953652595
-0.026798009968830
-0.026647164878048
-0.001506176040040
-0.071175807422126
-0.021185612040879
-0.021732634065824
-0.080975440204092
-0.018577363683496
-0.018150723886207
-0.016860727120432
-0.016409206930256
-0.082451327662161
-0.094941649105114
-0.001707328255814
-0.082518779367182
0.006462340974131
0.000596172717692
-0.065688789889857
-0.026132271961861
-0.026946261849226
-0.012554576445278
-0.012371780390392
-0.007954573991423
-0.007434436217312
-0.003914224912358
-0.022597473771211
-0.025074313380497
-0.019448137716213
-0.019406938372888
-0.085346701270514
-0.015338217428402
-0.015497836028872
-0.085636833530512
-0.082765575418865
0.011659862492585
0.015982973543021
-0.081990910157143
-0.010511039879379
-0.010113733625136
-0.029366295349766
0.004652140655592
-0.006463983314813
-0.006459297017589
-0.010217971759450
-0.003011891869854
-0.087993494685206
-0.026937947928218
0.007734696563282
0.002842124890173
0.001647381616610
0.007897038383637
0.004705553245478
0.007883768028376
-0.028473422917596
-0.026635688961691
0.039133129622735
-0.083976842374752
-0.021884968014635
-0.078582423201523
-0.081147572375873
-0.017118023751056
-0.026752518209158
-0.027964311511474
-0.028563577334351
-0.027016825104705
-0.025839293499974
-0.026717568302023
-0.000749622991381
-0.082449160635484
-0.026708292234999
-0.073047063526697
-0.024966056691101
-0.025584332167111
-0.079119699708127
-0.026446785998802
-0.013104985691941
-0.003899095042769
-0.021980955882318
-0.023048229000607
-0.021660267472203
-0.020165688950157
-0.027952416789596
-0.027313673332426
-0.047138954093878
-0.081559694677389
-0.000382955520924
-0.083519284881586
0.008431959281875
-0.083412661516383
-0.024918496714419
-0.084502965801710
-0.008584027433866
-0.085722303662302
-0.084120361824981
-0.079373001002261
-0.024707700788596
-0.022669716636399
-0.022963864978116
-0.000745476889988
-0.003415818139040
-0.076227873018650
-0.001345823458991
-0.003529997325060
0.004867864807832
0.021318642314004
-0.020439173665316
-0.015769018578539
-0.017022238097519
0.019977183101492
-0.080296897345259
-0.068928739686203
-0.081857220274137
-0.125925869195032
-0.004607094254680
-0.019110217753818
-0.018237415458494
-0.020709792779935
-0.000258796870158
-0.012614154477960
-0.012557174766969
-0.085244651906725
-0.026000149818613
-0.027441184842370
-0.081673431071563
-0.016111721471653
-0.083195834258919
-0.084940406979940
-0.013621943102735
-0.010927467251394
-0.016698794762348
-0.007860622248078
-0.007779791437380
-0.016256261518925
