# vtk DataFile Version 3.0
    
ASCII
DATASET UNSTRUCTURED_GRID
POINTS 562 float
0 0 0
1.5 0 0
5 0 0
5 1 0
1.5 1 0
0 1 0
0.6 0.49 0
0.8 0.49 0
0 0.7 0
0 0.3 0
0.1 0 0
0.2 0 0
0.3 0 0
0.4 0 0
0.5 0 0
0.6 0 0
0.7 0 0
0.8 0 0
0.9 0 0
1 0 0
1.1 0 0
1.2 0 0
1.3 0 0
1.4 0 0
1.59924 0 0
1.70044 0 0
1.80366 0 0
1.90892 0 0
2.01627 0 0
2.12576 0 0
2.23741 0 0
2.35128 0 0
2.46742 0 0
2.58585 0 0
2.70664 0 0
2.82983 0 0
2.95546 0 0
3.08358 0 0
3.21424 0 0
3.3475 0 0
3.48341 0 0
3.62201 0 0
3.76336 0 0
3.90752 0 0
4.05454 0 0
4.20448 0 0
4.35739 0 0
4.51334 0 0
4.67238 0 0
4.83458 0 0
5 0.166667 0
5 0.333333 0
5 0.5 0
5 0.666667 0
5 0.833333 0
4.83458 1 0
4.67238 1 0
4.51334 1 0
4.35739 1 0
4.20448 1 0
4.05454 1 0
3.90752 1 0
3.76336 1 0
3.62201 1 0
3.48341 1 0
3.3475 1 0
3.21424 1 0
3.08358 1 0
2.95546 1 0
2.82983 1 0
2.70664 1 0
2.58585 1 0
2.46742 1 0
2.35128 1 0
2.23741 1 0
2.12576 1 0
2.01627 1 0
1.90892 1 0
1.80366 1 0
1.70044 1 0
1.59924 1 0
1.4 1 0
1.3 1 0
1.2 1 0
1.1 1 0
1 1 0
0.9 1 0
0.8 1 0
0.7 1 0
0.6 1 0
0.5 1 0
0.4 1 0
0.3 1 0
0.2 1 0
0.1 1 0
0.629289 0.419289 0
0.7 0.39 0
0.770711 0.419289 0
0.770711 0.560711 0
0.7 0.59 0
0.629289 0.560711 0
0 0.9 0
0 0.8 0
0 0.6 0
0 0.5 0
0 0.4 0
0 0.2 0
0 0.1 0
1.29826 0.49701 0
1.79941 0.500291 0
2.29564 0.505767 0
2.81373 0.477768 0
3.31613 0.522645 0
0.336923 0.641275 0
0.337594 0.346079 0
3.85021 0.492126 0
1.05297 0.343793 0
1.03926 0.622176 0
4.29835 0.498906 0
1.54059 0.69565 0
1.54962 0.309897 0
2.04264 0.694951 0
2.04997 0.314194 0
2.57662 0.659597 0
2.55267 0.311578 0
0.519804 0.767158 0
0.802989 0.764179 0
1.27103 0.751106 0
1.2924 0.259909 0
0.521836 0.222845 0
0.81228 0.212043 0
3.05393 0.312076 0
3.0267 0.679032 0
1.7925 0.750069 0
1.79293 0.245483 0
3.55271 0.693364 0
3.52026 0.306757 0
2.29577 0.753039 0
2.30507 0.255964 0
4.64059 0.358911 0
0.19924 0.488095 0
0.417931 0.495036 0
4.03381 0.709553 0
4.05722 0.299286 0
4.56005 0.669243 0
2.79592 0.751099 0
2.79404 0.250393 0
0.193444 0.811625 0
0.192169 0.191432 0
0.974924 0.824891 0
1.49916 0.497413 0
0.9532 0.488914 0
3.30155 0.783094 0
3.30254 0.224345 0
0.96889 0.171408 0
0.366244 0.179061 0
1.9847 0.492356 0
0.658187 0.738385 0
1.12748 0.490644 0
0.363796 0.802426 0
3.76229 0.777501 0
3.77164 0.223148 0
0.900346 0.338556 0
1.41827 0.82878 0
0.89583 0.646853 0
0.499078 0.618481 0
0.491346 0.367133 0
0.662746 0.250195 0
1.43214 0.164672 0
0.156279 0.644925 0
1.64029 0.833637 0
1.64292 0.165914 0
2.48648 0.49251 0
4.41203 0.245826 0
4.30724 0.76873 0
1.14692 0.152231 0
1.38965 0.642297 0
1.94828 0.829589 0
1.94828 0.170411 0
1.39199 0.360446 0
1.64931 0.56745 0
0.148596 0.342169 0
1.15272 0.85174 0
1.69527 0.377956 0
1.20889 0.629015 0
2.99885 0.5 0
2.14421 0.830707 0
2.13102 0.172318 0
1.89793 0.628049 0
1.90218 0.361548 0
1.19533 0.361889 0
2.14824 0.553952 0
2.45123 0.828119 0
2.45123 0.171881 0
0.609238 0.872652 0
3.5042 0.5 0
2.64312 0.83612 0
2.64429 0.16378 0
2.19908 0.376064 0
4.76552 0.559012 0
2.40035 0.629139 0
2.40443 0.360729 0
0.606776 0.120576 0
0.776066 0.67364 0
4.76624 0.790502 0
2.95127 0.172896 0
2.95127 0.827104 0
2.65071 0.558152 0
0.741396 0.873855 0
3.16827 0.173633 0
3.16361 0.834571 0
0.78221 0.310093 0
3.99281 0.531283 0
0.451369 0.866758 0
2.6993 0.377285 0
0.591697 0.304666 0
0.733767 0.118858 0
0.297352 0.459006 0
1.11916 0.732204 0
0.894701 0.876309 0
0.59437 0.663756 0
4.79748 0.224319 0
4.20765 0.196664 0
2.90622 0.629202 0
2.90094 0.37158 0
1.31259 0.871774 0
0.421925 0.716843 0
1.31966 0.120899 0
0.424156 0.272832 0
1.68588 0.670353 0
0.449196 0.121069 0
3.45054 0.831423 0
3.45054 0.168577 0
3.11758 0.42958 0
1.75588 0.85677 0
1.7538 0.148323 0
0.887309 0.116486 0
4.49748 0.492756 0
3.20152 0.623512 0
0.888682 0.560696 0
3.94198 0.84508 0
3.9645 0.152546 0
4.55054 0.177473 0
3.64888 0.832777 0
3.64601 0.150277 0
3.41592 0.376234 0
3.40361 0.628947 0
0.275368 0.88687 0
2.21986 0.669483 0
1.53754 0.892421 0
0.889744 0.419967 0
3.61727 0.572172 0
1.13612 0.269659 0
0.509885 0.525766 0
0.115054 0.884946 0
0.267515 0.108261 0
0.102721 0.545955 0
0.925019 0.73758 0
4.46793 0.801056 0
4.16106 0.830034 0
1.59244 0.417453 0
1.54191 0.10651 0
0.116165 0.110745 0
1.77256 0.625036 0
3.6987 0.378373 0
0.100397 0.736906 0
2.29241 0.910802 0
2.29241 0.0891983 0
0.274539 0.551545 0
0.39594 0.592617 0
3.90843 0.623531 0
3.95216 0.39505 0
0.104368 0.439269 0
0.098679 0.245602 0
0.407142 0.396383 0
0.921805 0.255776 0
0.286589 0.241977 0
0.280868 0.732288 0
4.2167 0.361881 0
2.0929 0.432468 0
4.15545 0.555825 0
2.7594 0.106639 0
2.758 0.8756 0
1.05862 0.0979518 0
0.240045 0.380737 0
1.65439 0.275566 0
2.68942 0.684468 0
1.05994 0.902248 0
4.81127 0.348097 0
0.971142 0.580123 0
1.04751 0.440715 0
1.29528 0.394853 0
2.05941 0.898779 0
2.05753 0.101653 0
1.39031 0.263118 0
2.28995 0.61146 0
4.40557 0.633635 0
1.30293 0.587177 0
0.971714 0.395779 0
0.529233 0.443105 0
1.39208 0.546553 0
1.37352 0.739465 0
1.49359 0.61091 0
1.04669 0.533866 0
1.03275 0.719078 0
4.63526 0.833272 0
1.89838 0.734995 0
1.89838 0.265005 0
1.85478 0.909984 0
1.85449 0.0907434 0
3.16226 0.28865 0
3.26616 0.0999336 0
3.26549 0.901929 0
1.5445 0.210137 0
0.998458 0.269385 0
2.60171 0.430278 0
1.80411 0.349089 0
0.361332 0.902906 0
1.53216 0.784531 0
1.2246 0.0874252 0
2.14404 0.27268 0
1.47789 0.391346 0
2.78694 0.612885 0
1.21043 0.447948 0
1.69145 0.477102 0
2.53327 0.101069 0
2.5331 0.898917 0
1.89741 0.531385 0
1.99535 0.601845 0
0.82374 0.367681 0
0.695474 0.663229 0
0.736076 0.794657 0
1.22441 0.913799 0
0.822384 0.615444 0
3.83117 0.88087 0
3.83494 0.120357 0
0.360752 0.0899626 0
4.08968 0.134777 0
0.525083 0.921926 0
1.44647 0.917909 0
2.04056 0.788554 0
2.04555 0.211915 0
0.962964 0.077169 0
3.09681 0.578982 0
0.674849 0.326051 0
2.66086 0.277356 0
1.98497 0.39754 0
1.45 0.0782189 0
3.66049 0.708585 0
0.23806 0.642462 0
1.06628 0.204802 0
1.12407 0.578839 0
2.40809 0.740339 0
2.40026 0.264845 0
0.451347 0.192256 0
1.45796 0.716939 0
0.595246 0.792912 0
4.43297 0.114732 0
0.565906 0.581767 0
4.37171 0.366683 0
0.225026 0.295213 0
1.21201 0.538439 0
2.30802 0.348368 0
0.840494 0.27405 0
0.447012 0.790269 0
0.850796 0.707558 0
0.973087 0.916245 0
1.65509 0.923612 0
1.65539 0.0766054 0
3.28464 0.38223 0
0.196376 0.715842 0
0.529664 0.0735585 0
4.28093 0.887417 0
0.736266 0.201309 0
3.05901 0.104198 0
3.05824 0.897169 0
2.2061 0.474554 0
0.816992 0.920547 0
1.11904 0.393039 0
2.39767 0.532812 0
4.18924 0.696248 0
0.599431 0.207212 0
0.512635 0.689922 0
2.18012 0.0877077 0
2.1817 0.917617 0
1.61968 0.731926 0
0.810439 0.0807266 0
4.65067 0.531383 0
3.54925 0.899671 0
3.54925 0.100329 0
0.0718795 0.645557 0
2.40922 0.909434 0
2.40925 0.0905637 0
2.49441 0.599155 0
0.19629 0.918402 0
2.52899 0.770555 0
2.52999 0.229758 0
1.95753 0.92767 0
1.9571 0.0725616 0
1.08474 0.802794 0
1.70739 0.759737 0
1.23964 0.19639 0
2.87084 0.903359 0
2.87112 0.0930889 0
1.45562 0.312715 0
4.87499 0.672974 0
0.566092 0.374962 0
1.39244 0.447937 0
4.11049 0.435386 0
3.78197 0.620148 0
0.510649 0.305858 0
3.16001 0.718615 0
0.184209 0.568688 0
1.1464 0.0698 0
0.354122 0.5336 0
0.677841 0.91807 0
0.972219 0.659562 0
1.24518 0.826859 0
1.84997 0.816281 0
1.84958 0.183993 0
1.56251 0.55605 0
2.90042 0.734268 0
2.91845 0.277096 0
3.58894 0.412689 0
1.71467 0.221049 0
2.48712 0.397459 0
0.524625 0.835279 0
4.51452 0.322731 0
2.79568 0.353727 0
0.0671952 0.348805 0
0.189585 0.0816778 0
0.676391 0.0768913 0
1.20316 0.705394 0
1.32987 0.319661 0
0.459365 0.4386 0
1.14815 0.933617 0
4.7102 0.673759 0
1.22459 0.284678 0
1.29841 0.677569 0
1.60535 0.636968 0
2.71137 0.47418 0
4.31062 0.115683 0
2.13267 0.739235 0
2.90045 0.531804 0
0.667596 0.819303 0
0.637008 0.611893 0
0.529759 0.154295 0
1.96544 0.318763 0
0.669229 0.162507 0
1.96214 0.682766 0
2.99932 0.398104 0
2.3483 0.826519 0
2.34855 0.175845 0
3.04659 0.210039 0
3.04429 0.784127 0
4.87149 0.866819 0
4.69231 0.126744 0
2.23346 0.193517 0
2.2307 0.806772 0
1.8717 0.44305 0
0.348532 0.718857 0
1.73113 0.301679 0
0.353024 0.268811 0
3.42634 0.730362 0
3.40782 0.26762 0
1.62293 0.345218 0
0.0765459 0.816713 0
0.173062 0.412568 0
1.83346 0.678897 0
1.73168 0.557468 0
1.37547 0.923693 0
3.65814 0.27649 0
2.06432 0.550607 0
2.99082 0.591439 0
3.29838 0.64849 0
4.27972 0.624022 0
1.11541 0.658338 0
0.733759 0.726818 0
4.87208 0.127955 0
2.64625 0.0707669 0
2.64592 0.926644 0
1.76582 0.427615 0
4.7546 0.901051 0
1.34474 0.20053 0
0.288791 0.814817 0
0.450318 0.551067 0
0.879944 0.802295 0
2.10051 0.635012 0
3.40452 0.474049 0
0.753077 0.618139 0
0.0711221 0.175664 0
0.812016 0.83864 0
1.38036 0.072758 0
0.966853 0.328724 0
3.2113 0.526098 0
3.37003 0.098571 0
3.3697 0.903289 0
3.50328 0.602997 0
3.54766 0.796462 0
3.54308 0.207689 0
1.60377 0.49921 0
1.32749 0.798454 0
4.67565 0.244877 0
4.89958 0.24291 0
0.431015 0.342404 0
0.72158 0.284456 0
2.70632 0.773735 0
0.86382 0.490004 0
3.90323 0.263602 0
3.8963 0.738059 0
0.826951 0.542556 0
1.17933 0.77835 0
1.06346 0.27191 0
3.72737 0.0981578 0
3.72737 0.901842 0
2.23553 0.294994 0
4.29443 0.272624 0
2.12154 0.351217 0
3.80071 0.353812 0
4.86308 0.475634 0
2.48169 0.679757 0
2.47489 0.312874 0
2.37399 0.443252 0
0.0633118 0.936688 0
2.23196 0.563043 0
0.748634 0.357014 0
4.74623 0.454607 0
0.292307 0.172943 0
0.435605 0.642627 0
0.8274 0.437776 0
0.873024 0.189937 0
0.0622663 0.0622663 0
3.14891 0.0686233 0
3.14891 0.931377 0
2.62889 0.744895 0
0.576049 0.730427 0
2.33538 0.680391 0
1.8311 0.572475 0
0.744119 0.0552951 0
1.46988 0.242241 0
2.85529 0.818286 0
2.85371 0.185034 0
0.747246 0.942495 0
2.72638 0.195165 0
0.799243 0.150177 0
0.448255 0.941504 0
2.27465 0.428506 0
2.56199 0.547939 0
1.97634 0.749278 0
1.97115 0.242934 0
1.75687 0.694192 0
3.71872 0.473622 0
0.166144 0.259955 0
0.775458 0.254839 0
1.75342 0.941007 0
1.75355 0.0631343 0
1.26355 0.329756 0
0.371471 0.454453 0
4.05056 0.897445 0
0.627364 0.362201 0
4.38908 0.896224 0
0.449243 0.0515068 0
CELLS 1016 4064
3 274 557 114
3 212 271 408
3 408 271 143
3 558 240 142
3 259 558 142
3 114 557 217
3 280 408 118
3 89 338 194
3 415 89 194
3 150 407 321
3 118 408 278
3 144 258 296
3 195 245 423
3 115 212 270
3 115 271 212
3 180 469 229
3 43 44 241
3 171 285 313
3 136 423 245
3 140 284 217
3 456 47 48
3 123 207 286
3 113 277 349
3 242 47 456
3 255 430 12
3 142 270 212
3 12 430 11
3 153 310 209
3 174 296 258
3 156 459 346
3 184 438 432
3 68 402 206
3 36 205 403
3 54 455 405
3 345 315 124
3 129 381 215
3 92 394 247
3 116 252 378
3 140 217 268
3 229 469 263
3 142 212 280
3 184 297 438
3 143 222 278
3 4 249 80
3 125 226 382
3 209 310 453
3 36 374 205
3 68 206 375
3 123 547 207
3 214 315 345
3 72 391 326
3 32 325 392
3 143 337 222
3 277 370 349
3 113 414 269
3 120 313 285
3 129 215 410
3 224 422 450
3 175 401 252
3 132 421 223
3 295 536 248
3 114 217 284
3 131 453 310
3 113 528 226
3 558 59 60
3 190 378 252
3 113 268 414
3 462 155 228
3 149 219 486
3 152 312 210
3 153 209 311
3 92 93 394
3 131 450 422
3 193 396 353
3 192 352 395
3 167 215 381
3 157 220 330
3 248 536 137
3 155 336 230
3 80 249 367
3 252 401 437
3 155 354 228
3 159 364 213
3 45 222 337
3 22 227 319
3 132 223 473
3 421 145 322
3 214 345 428
3 111 224 443
3 353 396 521
3 352 520 395
3 223 421 322
3 6 358 253
3 170 249 318
3 29 383 293
3 75 292 384
3 218 304 476
3 174 259 380
3 146 428 345
3 152 231 496
3 153 495 232
3 144 296 237
3 207 440 322
3 104 272 256
3 170 234 367
3 171 368 235
3 150 300 407
3 44 337 241
3 153 232 464
3 152 463 231
3 191 279 376
3 126 477 203
3 15 202 371
3 431 202 15
3 152 210 411
3 82 332 225
3 57 258 305
3 111 428 224
3 164 239 289
3 53 54 405
3 6 299 95
3 259 59 558
3 159 213 317
3 185 443 224
3 191 472 279
3 94 254 394
3 113 226 460
3 113 269 528
3 192 326 391
3 193 392 325
3 204 405 455
3 185 450 233
3 183 324 260
3 117 476 304
3 18 236 386
3 86 377 219
3 125 364 226
3 156 327 459
3 92 247 317
3 131 233 450
3 174 372 259
3 185 224 450
3 1 24 261
3 126 203 365
3 248 458 442
3 163 470 225
3 149 366 219
3 143 241 337
3 131 422 453
3 132 454 421
3 134 307 316
3 110 379 295
3 118 237 296
3 170 400 234
3 139 387 237
3 140 256 272
3 111 322 440
3 111 440 428
3 185 233 343
3 86 219 366
3 189 316 307
3 151 239 507
3 200 295 379
3 168 227 492
3 52 405 519
3 165 358 220
3 6 100 358
3 133 234 400
3 148 490 262
3 176 297 300
3 108 300 297
3 149 486 257
3 18 342 236
3 180 229 439
3 218 399 304
3 151 507 250
3 154 530 236
3 104 105 272
3 118 278 359
3 28 29 293
3 75 76 292
3 137 458 248
3 53 405 52
3 162 298 250
3 152 496 312
3 153 311 495
3 139 502 288
3 151 289 239
3 45 441 222
3 131 310 233
3 151 250 298
3 114 360 276
3 93 94 394
3 148 273 490
3 189 346 459
3 163 355 318
3 214 428 440
3 147 254 466
3 220 445 330
3 6 253 299
3 167 344 215
3 163 225 501
3 170 367 249
3 191 524 248
3 82 225 470
3 91 92 317
3 24 368 261
3 114 284 360
3 504 114 228
3 411 132 343
3 171 313 261
3 228 114 462
3 103 104 256
3 8 265 102
3 22 492 227
3 56 57 305
3 168 483 227
3 95 299 406
3 187 293 383
3 186 384 292
3 129 410 228
3 155 230 354
3 158 378 323
3 164 416 257
3 260 324 500
3 73 74 266
3 30 31 267
3 147 466 265
3 139 237 427
3 221 288 502
3 179 321 407
3 278 516 359
3 10 430 262
3 238 411 343
3 116 512 252
3 171 235 424
3 118 359 237
3 163 301 355
3 125 426 364
3 496 231 64
3 495 40 232
3 165 220 382
3 213 364 426
3 133 418 234
3 134 235 419
3 164 333 239
3 141 434 253
3 170 318 385
3 147 247 394
3 207 322 286
3 157 535 220
3 195 423 251
3 159 460 226
3 147 394 254
3 134 424 235
3 144 305 258
3 19 20 283
3 172 522 425
3 64 231 388
3 40 389 232
3 159 226 364
3 464 369 153
3 238 474 411
3 119 302 439
3 140 467 284
3 245 369 464
3 148 262 430
3 112 488 246
3 142 380 259
3 248 524 295
3 154 236 342
3 161 244 513
3 160 514 243
3 120 260 321
3 187 320 341
3 129 228 354
3 195 488 245
3 154 275 530
3 148 430 255
3 233 369 494
3 474 152 411
3 205 453 422
3 206 421 454
3 17 18 386
3 226 528 382
3 176 300 302
3 9 106 273
3 159 317 484
3 302 420 439
3 150 302 300
3 84 85 287
3 169 390 256
3 112 246 474
3 136 245 464
3 135 463 246
3 171 261 368
3 207 315 440
3 49 478 456
3 61 334 240
3 43 241 335
3 78 554 308
3 26 309 555
3 103 256 390
3 246 488 497
3 160 243 348
3 173 357 242
3 163 318 249
3 144 237 387
3 144 436 305
3 162 250 329
3 207 547 315
3 117 289 303
3 253 434 299
3 186 442 458
3 21 22 319
3 47 242 357
3 195 251 497
3 135 348 498
3 243 498 348
3 61 240 558
3 229 263 550
3 208 415 444
3 122 341 320
3 162 275 493
3 142 240 509
3 143 508 241
3 135 497 251
3 139 288 526
3 101 466 254
3 247 484 317
3 168 261 313
3 195 497 488
3 151 303 289
3 44 45 337
3 151 290 303
3 69 70 282
3 34 35 281
3 230 336 561
3 191 248 487
3 190 323 378
3 135 246 497
3 173 242 427
3 108 297 361
3 4 339 249
3 10 11 430
3 59 259 372
3 149 257 304
3 112 494 369
3 234 554 367
3 235 368 555
3 486 126 365
3 77 78 308
3 26 27 309
3 63 388 243
3 41 244 389
3 156 279 472
3 112 474 494
3 234 308 554
3 235 555 309
3 151 298 290
3 51 519 288
3 198 376 279
3 148 276 360
3 116 290 298
3 204 305 436
3 164 257 365
3 63 243 514
3 41 513 244
3 18 19 342
3 150 321 260
3 145 286 322
3 96 344 525
3 111 443 322
3 163 249 339
3 163 339 470
3 9 273 429
3 74 384 266
3 30 267 383
3 161 471 244
3 181 429 273
3 82 83 332
3 257 486 365
3 19 283 342
3 149 304 399
3 188 327 328
3 169 370 265
3 147 484 247
3 140 268 412
3 223 322 443
3 136 464 499
3 135 498 463
3 147 265 370
3 100 445 358
3 139 526 387
3 101 254 523
3 94 523 254
3 172 379 522
3 86 87 377
3 257 416 304
3 150 260 500
3 220 358 445
3 114 504 274
3 149 287 366
3 217 414 268
3 135 251 348
3 154 283 350
3 344 505 525
3 156 328 327
3 238 494 474
3 184 361 297
3 174 258 560
3 166 410 406
3 1 261 347
3 71 72 326
3 32 33 325
3 102 265 466
3 48 49 456
3 51 52 519
3 168 492 347
3 169 265 390
3 168 347 261
3 12 336 255
3 215 406 410
3 148 255 527
3 175 350 283
3 154 314 275
3 140 412 256
3 175 252 350
3 194 444 415
3 158 303 290
3 142 509 270
3 143 271 508
3 138 353 362
3 165 253 358
3 10 262 531
3 113 349 268
3 169 256 412
3 149 399 287
3 57 560 258
3 126 331 477
3 201 362 353
3 233 310 369
3 85 366 287
3 275 314 493
3 123 393 547
3 155 527 336
3 8 390 265
3 85 86 366
3 509 160 409
3 221 456 478
3 70 480 282
3 34 281 479
3 129 354 446
3 196 282 480
3 197 479 281
3 165 485 253
3 530 363 130
3 270 509 409
3 190 291 323
3 161 513 335
3 160 334 514
3 182 287 399
3 158 290 378
3 148 552 273
3 155 462 276
3 141 253 485
3 122 279 346
3 262 490 531
3 67 68 375
3 36 37 374
3 120 465 260
3 154 350 314
3 107 531 490
3 105 429 272
3 127 432 438
3 228 410 504
3 190 252 437
3 275 363 530
3 255 336 527
3 264 471 518
3 38 39 311
3 65 66 312
3 162 363 275
3 158 361 351
3 183 260 465
3 186 292 340
3 187 341 293
3 203 333 365
3 161 518 471
3 101 102 466
3 164 289 416
3 146 345 543
3 189 459 316
3 316 459 481
3 227 483 401
3 201 425 522
3 232 499 464
3 231 463 498
3 251 423 551
3 117 303 351
3 154 342 283
3 156 346 279
3 320 457 515
3 176 302 355
3 165 382 528
3 115 518 271
3 181 272 429
3 108 323 291
3 73 266 391
3 31 392 267
3 210 312 533
3 209 532 311
3 237 359 427
3 119 355 302
3 119 318 355
3 230 446 354
3 173 516 441
3 159 277 460
3 121 328 487
3 242 502 427
3 164 365 333
3 148 527 276
3 187 457 320
3 158 351 303
3 161 335 508
3 160 509 334
3 141 485 414
3 234 418 308
3 235 309 419
3 328 472 487
3 124 521 396
3 123 395 520
3 251 551 409
3 196 506 282
3 166 434 274
3 115 270 409
3 268 349 412
3 136 471 423
3 60 61 558
3 114 276 462
3 177 340 292
3 178 293 341
3 241 508 335
3 240 334 509
3 233 494 343
3 112 369 488
3 148 360 552
3 269 414 485
3 88 89 415
3 145 282 506
3 264 423 471
3 163 501 301
3 169 349 370
3 197 345 396
3 120 321 404
3 266 384 458
3 267 457 383
3 3 55 455
3 165 528 485
3 153 369 310
3 115 551 518
3 42 43 335
3 61 62 334
3 212 408 280
3 245 488 369
3 113 460 277
3 119 439 385
3 147 370 277
3 143 278 408
3 72 73 391
3 31 32 392
3 181 273 552
3 142 280 380
3 139 427 502
3 128 401 483
3 124 396 345
3 4 81 339
3 140 272 467
3 3 455 54
3 229 385 439
3 115 409 551
3 166 504 410
3 208 444 331
3 147 277 484
3 89 90 338
3 214 440 315
3 266 458 451
3 267 452 457
3 137 451 458
3 138 457 452
3 172 315 547
3 175 283 413
3 182 435 287
3 166 274 504
3 35 36 403
3 68 69 402
3 12 13 336
3 211 363 329
3 168 294 483
3 181 360 284
3 118 475 280
3 108 291 407
3 179 407 291
3 227 401 319
3 181 467 272
3 269 485 528
3 184 351 361
3 173 441 357
3 108 361 323
3 239 333 510
3 38 311 532
3 66 533 312
3 45 46 441
3 176 355 301
3 264 518 551
3 120 539 313
3 84 287 435
3 20 413 283
3 116 298 493
3 197 281 543
3 69 282 402
3 35 403 281
3 116 378 290
3 155 276 527
3 150 500 420
3 76 397 292
3 28 293 398
3 200 379 393
3 122 517 279
3 222 516 278
3 39 40 495
3 64 65 496
3 221 503 288
3 162 329 363
3 171 424 285
3 15 16 431
3 1 347 23
3 177 292 397
3 178 398 293
3 119 385 318
3 106 490 273
3 174 560 372
3 106 107 490
3 172 393 379
3 281 541 543
3 173 359 516
3 159 484 277
3 541 146 543
3 2 478 49
3 46 47 357
3 146 422 428
3 123 286 534
3 57 58 560
3 198 279 517
3 314 350 512
3 51 288 503
3 22 23 492
3 145 540 282
3 14 15 371
3 179 294 404
3 216 448 431
3 157 356 535
3 128 437 401
3 62 63 514
3 41 42 513
3 2 50 478
3 120 285 465
3 190 556 291
3 236 530 544
3 224 428 422
3 166 406 299
3 117 416 289
3 182 399 511
3 79 80 367
3 24 25 368
3 183 465 285
3 91 317 545
3 250 529 329
3 184 432 476
3 58 59 372
3 81 82 470
3 183 285 461
3 174 475 296
3 158 323 361
3 166 299 434
3 176 438 297
3 108 407 300
3 362 522 546
3 128 294 433
3 179 291 433
3 222 441 516
3 217 557 414
3 120 404 539
3 179 433 294
3 27 28 398
3 76 77 397
3 201 522 362
3 63 64 388
3 40 41 389
3 145 506 286
3 188 468 537
3 95 559 96
3 176 301 438
3 117 304 416
3 179 404 321
3 218 511 399
3 77 308 397
3 27 398 309
3 251 409 348
3 150 420 302
3 177 397 308
3 178 309 398
3 181 284 467
3 263 537 468
3 177 308 418
3 178 419 309
3 29 30 383
3 74 75 384
3 177 418 306
3 178 307 419
3 186 458 384
3 187 383 457
3 124 315 425
3 116 493 314
3 202 431 448
3 133 306 418
3 134 419 307
3 199 519 405
3 219 491 486
3 211 525 505
3 8 103 390
3 20 21 413
3 118 296 475
3 175 319 401
3 127 438 301
3 236 544 386
3 128 483 294
3 110 295 524
3 213 338 545
3 21 319 413
3 218 476 432
3 168 539 294
3 196 326 395
3 197 396 325
3 138 515 457
3 175 413 319
3 96 559 344
3 79 367 554
3 25 555 368
3 210 454 411
3 193 325 396
3 192 395 326
3 141 557 434
3 172 425 315
3 13 561 336
3 213 545 317
3 225 332 417
3 167 373 505
3 97 525 329
3 200 536 295
3 162 493 298
3 125 356 426
3 186 340 442
3 160 348 409
3 56 305 482
3 219 377 491
3 126 491 331
3 274 434 557
3 133 468 306
3 9 429 105
3 99 489 330
3 132 411 454
3 225 417 501
3 180 500 324
3 83 84 435
3 90 545 338
3 127 301 501
3 109 537 469
3 204 482 305
3 213 426 338
3 189 307 447
3 188 306 468
3 230 561 371
3 121 487 442
3 211 553 363
3 238 343 494
3 98 333 489
3 188 449 306
3 99 330 445
3 5 523 94
3 5 101 523
3 122 549 341
3 121 340 548
3 183 316 481
3 194 426 356
3 248 442 487
3 33 479 325
3 71 326 480
3 280 475 380
3 182 417 332
3 0 531 107
3 0 10 531
3 98 510 333
3 170 385 400
3 263 469 537
3 99 445 100
3 183 461 316
3 197 325 479
3 196 480 326
3 211 329 525
3 134 316 461
3 208 331 491
3 97 329 529
3 229 400 385
3 152 474 463
3 55 56 482
3 127 501 417
3 129 446 381
3 33 34 479
3 70 71 480
3 109 469 324
3 194 338 426
3 203 330 489
3 14 371 561
3 169 412 349
3 373 553 505
3 122 346 447
3 246 463 474
3 130 363 553
3 109 481 459
3 203 489 333
3 182 332 435
3 183 481 324
3 83 435 332
3 66 67 533
3 37 38 532
3 65 312 496
3 39 495 311
3 177 306 548
3 178 549 307
3 25 26 555
3 78 79 554
3 16 17 538
3 50 51 503
3 87 88 542
3 109 459 327
3 168 313 539
3 180 439 420
3 13 14 561
3 98 489 99
3 90 91 545
3 173 427 359
3 202 381 446
3 116 314 512
3 157 477 331
3 157 331 444
3 180 324 469
3 216 373 448
3 188 328 449
3 144 387 436
3 184 476 351
3 121 548 449
3 122 447 549
3 223 443 473
3 7 510 98
3 122 320 517
3 199 405 436
3 167 381 448
3 204 436 405
3 199 526 519
3 188 537 327
3 96 525 97
3 121 449 328
3 7 97 529
3 288 519 526
3 121 442 340
3 189 447 346
3 109 324 481
3 185 473 443
3 264 551 423
3 174 380 475
3 199 436 387
3 132 473 343
3 126 486 491
3 46 357 441
3 198 517 320
3 229 550 400
3 181 552 360
3 137 352 451
3 138 452 353
3 157 444 356
3 156 472 328
3 244 471 499
3 130 544 530
3 198 320 515
3 141 414 557
3 133 400 550
3 136 499 471
3 197 543 345
3 81 470 339
3 285 424 461
3 209 453 374
3 210 375 454
3 192 451 352
3 193 353 452
3 134 461 424
3 127 417 511
3 230 371 446
3 109 327 537
3 167 448 373
3 185 343 473
3 282 540 402
3 281 403 541
3 203 477 330
3 202 446 371
3 127 511 432
3 202 448 381
3 199 387 526
3 205 374 453
3 206 454 375
3 194 356 444
3 266 451 391
3 267 392 452
3 117 351 476
3 161 508 518
3 62 514 334
3 42 335 513
3 130 373 544
3 37 532 374
3 67 375 533
3 125 535 356
3 252 512 350
3 271 518 508
3 209 374 532
3 210 533 375
3 192 391 451
3 193 452 392
3 157 330 477
3 23 347 492
3 128 433 556
3 177 548 340
3 178 341 549
3 137 536 352
3 191 487 472
3 208 542 415
3 128 556 437
3 198 362 546
3 216 544 373
3 216 431 538
3 208 377 542
3 182 511 417
3 208 491 377
3 198 515 362
3 200 352 536
3 200 520 352
3 201 353 521
3 167 505 344
3 124 425 521
3 138 362 515
3 110 524 376
3 196 395 534
3 215 344 559
3 125 382 535
3 294 539 404
3 198 546 376
3 243 388 498
3 244 499 389
3 191 376 524
3 88 415 542
3 231 498 388
3 232 389 499
3 110 546 522
3 123 534 395
3 87 542 377
3 16 538 431
3 110 522 379
3 130 553 373
3 95 406 559
3 200 393 520
3 220 535 382
3 216 386 544
3 216 538 386
3 110 376 546
3 180 420 500
3 58 372 560
3 123 520 393
3 221 478 503
3 201 521 425
3 55 482 455
3 204 455 482
3 206 402 540
3 205 541 403
3 172 547 393
3 17 386 538
3 218 432 511
3 50 503 478
3 145 421 540
3 146 541 422
3 206 540 421
3 205 422 541
3 215 559 406
3 242 456 502
3 7 529 507
3 221 502 456
3 291 556 433
3 133 550 468
3 263 468 550
3 7 507 510
3 190 437 556
3 307 549 447
3 306 449 548
3 250 507 529
3 196 534 506
3 239 510 507
3 286 506 534
3 211 505 553
CELL_TYPES 1016
5
5
5
5
5
5
5
5
5
5
5
5
5
5
5
5
5
5
5
5
5
5
5
5
5
5
5
5
5
5
5
5
5
5
5
5
5
5
5
5
5
5
5
5
5
5
5
5
5
5
5
5
5
5
5
5
5
5
5
5
5
5
5
5
5
5
5
5
5
5
5
5
5
5
5
5
5
5
5
5
5
5
5
5
5
5
5
5
5
5
5
5
5
5
5
5
5
5
5
5
5
5
5
5
5
5
5
5
5
5
5
5
5
5
5
5
5
5
5
5
5
5
5
5
5
5
5
5
5
5
5
5
5
5
5
5
5
5
5
5
5
5
5
5
5
5
5
5
5
5
5
5
5
5
5
5
5
5
5
5
5
5
5
5
5
5
5
5
5
5
5
5
5
5
5
5
5
5
5
5
5
5
5
5
5
5
5
5
5
5
5
5
5
5
5
5
5
5
5
5
5
5
5
5
5
5
5
5
5
5
5
5
5
5
5
5
5
5
5
5
5
5
5
5
5
5
5
5
5
5
5
5
5
5
5
5
5
5
5
5
5
5
5
5
5
5
5
5
5
5
5
5
5
5
5
5
5
5
5
5
5
5
5
5
5
5
5
5
5
5
5
5
5
5
5
5
5
5
5
5
5
5
5
5
5
5
5
5
5
5
5
5
5
5
5
5
5
5
5
5
5
5
5
5
5
5
5
5
5
5
5
5
5
5
5
5
5
5
5
5
5
5
5
5
5
5
5
5
5
5
5
5
5
5
5
5
5
5
5
5
5
5
5
5
5
5
5
5
5
5
5
5
5
5
5
5
5
5
5
5
5
5
5
5
5
5
5
5
5
5
5
5
5
5
5
5
5
5
5
5
5
5
5
5
5
5
5
5
5
5
5
5
5
5
5
5
5
5
5
5
5
5
5
5
5
5
5
5
5
5
5
5
5
5
5
5
5
5
5
5
5
5
5
5
5
5
5
5
5
5
5
5
5
5
5
5
5
5
5
5
5
5
5
5
5
5
5
5
5
5
5
5
5
5
5
5
5
5
5
5
5
5
5
5
5
5
5
5
5
5
5
5
5
5
5
5
5
5
5
5
5
5
5
5
5
5
5
5
5
5
5
5
5
5
5
5
5
5
5
5
5
5
5
5
5
5
5
5
5
5
5
5
5
5
5
5
5
5
5
5
5
5
5
5
5
5
5
5
5
5
5
5
5
5
5
5
5
5
5
5
5
5
5
5
5
5
5
5
5
5
5
5
5
5
5
5
5
5
5
5
5
5
5
5
5
5
5
5
5
5
5
5
5
5
5
5
5
5
5
5
5
5
5
5
5
5
5
5
5
5
5
5
5
5
5
5
5
5
5
5
5
5
5
5
5
5
5
5
5
5
5
5
5
5
5
5
5
5
5
5
5
5
5
5
5
5
5
5
5
5
5
5
5
5
5
5
5
5
5
5
5
5
5
5
5
5
5
5
5
5
5
5
5
5
5
5
5
5
5
5
5
5
5
5
5
5
5
5
5
5
5
5
5
5
5
5
5
5
5
5
5
5
5
5
5
5
5
5
5
5
5
5
5
5
5
5
5
5
5
5
5
5
5
5
5
5
5
5
5
5
5
5
5
5
5
5
5
5
5
5
5
5
5
5
5
5
5
5
5
5
5
5
5
5
5
5
5
5
5
5
5
5
5
5
5
5
5
5
5
5
5
5
5
5
5
5
5
5
5
5
5
5
5
5
5
5
5
5
5
5
5
5
5
5
5
5
5
5
5
5
5
5
5
5
5
5
5
5
5
5
5
5
5
5
5
5
5
5
5
5
5
5
5
5
5
5
5
5
5
5
5
5
5
5
5
5
5
5
5
5
5
5
5
5
5
5
5
5
5
5
5
5
5
5
5
5
5
5
5
5
5
5
5
5
5
5
5
5
5
5
5
5
5
5
5
5
5
5
5
5
5
5
5
5
5
5
5
5
5
5
5
5
5
5
5
5
5
5
5
5
5
5
5
5
5
5
5
5
5
5
5
5
5
5
5
5
5
5
5
5
5
5
5
5
5
5
5
5
5
5
5
5
5
5
5
5
5
5
5
5
5
5
5
5
5
5
5
5
5
5
5
5
5
5
5
5
5
5
5
5
5
5
5
5
5
5
5
5
5
5
5
5
5
5
5
5
5
5
5
5
5
5
5
5
5
5
5
5
5
5
5
5
5
5
5
5
5
5
5
5
5
5
5
5
5
5
5
5
5
5
5
5
5
5
5
5
5
5
5
5
5
5
5
5
5
5
5
5
5
5
5
5
5
5
5
5
POINT_DATA 562
SCALARS scalars float 1
LOOKUP_TABLE default
3.442424698170612
2.398317674494035
0.040321024433925
0.352751844830246
2.775337770201018
3.928100913604825
4.594283336787698
2.021540535771218
4.046882636346085
3.455813461457400
3.435037086303712
3.429808256080861
3.407339420676675
3.372105025363699
3.345160551770072
3.278491689465364
3.229830948024614
3.130286576751019
2.727650982045137
2.350736721044869
2.233040633977441
2.209808342725189
2.287434463175521
2.368828095472347
2.429746567458355
2.420963097089883
2.407268220774371
2.390622630239875
2.320663933383524
2.281086623815844
2.219122158066893
2.099934575948756
2.018418639233910
1.936285474344489
1.824135306667237
1.783073689039347
1.646675001332441
1.548962141796273
1.461445799808586
1.388794806620135
1.263588338816620
1.145316877123596
1.046447238668542
1.017230282413724
0.893920046058152
0.683951339706664
0.597014359626232
0.399190831756918
0.296454756506558
0.219989868274085
0.044772968477106
0.027198633653283
-0.036378521825913
0.036299397503185
-0.074632761240957
0.303813066374452
0.310397992848262
0.467699951006752
0.738264804953605
0.980149233552700
1.210003518712448
1.115386599038764
1.288440306025484
1.336486743764441
1.508781368276330
1.624830977826027
1.746906093183641
1.817038020860783
1.794612414152166
1.902545544122515
1.973034868825096
2.091297543278204
2.116703792016482
2.220216447489201
2.344670300912436
2.426851382374246
2.519130367891480
2.614035083304405
2.684560630129215
2.791328516324062
2.781255881425091
2.814450418194317
2.804006500217061
2.866940756560978
2.863809018914559
2.837374138547831
2.860061190326316
2.921259796182128
2.974250925203788
3.025375621087627
3.308399678827031
3.436087254509678
3.664807912271810
3.833149223047320
3.854397323956448
4.770055819573884
3.628468793996288
2.126588771237628
1.895196872384570
2.760120632572058
4.288919418470696
3.972049060552043
4.029229554484163
3.918953090114735
3.648383143660814
3.547765498931959
3.427411118885080
3.443061817490520
2.566840576181444
2.366436464021426
2.086541419787550
1.753445139791278
1.417714893887089
4.019574757007750
3.450853716314251
1.035332020134216
2.446110318501378
2.496849041622702
0.603577701271556
2.535175746487339
2.529097942142081
2.304340887967845
2.298715013524954
1.881414306796611
1.961283890335280
3.463865681721655
2.743010081804506
2.706265318089353
2.494777929161326
3.249001942022991
2.799876256578787
1.598219957399766
1.636307018050400
2.499650126352913
2.435161677027637
1.266777707934442
1.241217349780591
2.125577397542044
2.156832276749781
0.288703250169808
3.707282586078562
4.143568863943484
0.787402938677489
0.777986527646596
0.289019674387326
1.790612020501662
1.773015501958055
3.868018678743406
3.432214719915355
2.769566705012838
2.479902418827344
2.505191355665558
1.440407462858714
1.402074109846869
2.299486846442525
3.362114966751045
2.298399581897157
2.905190719020183
2.623319673636799
3.676876140898206
1.086440931728698
1.060315554485495
2.143410080170458
2.668975818613877
2.509908283213670
4.226228428118358
3.436540155073840
3.308076016372206
2.428709044782976
3.980440286904295
2.606379120529886
2.448945085149729
1.996560533247319
0.511323100662890
0.629574778914489
2.232574797564008
2.531067850122191
2.447980347545271
2.361206992228160
2.615800285907677
2.405560436488703
3.498802435481993
2.756355566736597
2.459332671858267
2.525942609794357
1.619767587664663
2.314969923723159
2.275418259454260
2.363459211327605
2.381740288993308
2.642412505041006
2.181974714902916
1.985768440413283
2.029176242433559
2.985802148552529
1.276506018958226
1.845524571852197
1.873620705404710
2.183855852560851
0.038508875073049
2.026856111675283
2.070744321078757
3.258717344259081
2.669058535049119
0.009401177638502
1.650139045400288
1.659930945902145
1.869157810777468
2.843074752029497
1.528809032336215
1.525618266918966
2.542384124764858
0.863827482011634
3.352189154176994
1.889679028255658
3.278179037848955
3.119002464332886
3.729815148421430
2.678998112385578
2.835095095050982
3.498043551645728
0.170844632683133
0.692369918696644
1.700874562279812
1.690666877814403
2.770520397071536
3.811740548078168
2.331017900964274
3.301127884523767
2.453480856432344
3.337119738339637
1.379356470565361
1.278293289902731
1.575535830241483
2.562955600383628
2.419538687378065
2.680984975380721
0.459089357753387
1.515267670015706
2.306626425106685
0.994471029058878
0.871564589709518
0.398335842751467
1.221130778714229
1.108210037243299
1.342954178491509
1.344847285509592
3.683495929436115
2.173952260783550
2.689960366512338
2.348900752205425
1.215291943098898
2.411261288830061
4.226819541178511
3.875059156397338
3.410771615971849
3.873072820287978
2.749924432154327
0.488035674621223
0.813960297442041
2.511508330417852
2.423993335551986
3.431166006236215
2.416720783113638
1.204452538841420
4.049239416349132
2.219200579820153
2.163312512321970
3.929125066446845
4.165309354973336
0.944412289261109
0.905213135975179
3.618738690579752
3.449604786213259
3.690720846845493
2.292908691642053
3.412036653974567
3.960117840672867
0.680804484280284
2.250243207767401
0.752513972578287
1.789820902228158
1.825286958596783
2.295174940047118
3.535013939195205
2.490730561811505
1.827986224754676
2.810877384338307
0.125864147395371
2.406245157885551
2.657025087185150
2.634468351356844
2.424180367290520
2.303084474440010
2.532739101438842
2.103915155776202
0.488244272506356
2.482217108174459
2.452406739061065
4.614134496785649
2.466475386310220
2.645434363681714
2.476236338730368
2.498979827695168
2.705547221922145
0.297098343857862
2.410516451851268
2.393683122241114
2.577886476615348
2.384771888531193
1.457908587712468
1.391515680376562
1.588371054914680
2.483403133835009
2.212643249404997
1.905962419081585
2.421477777530098
3.507294042263664
2.625148079197801
2.280227892476722
2.243112967674655
2.564694699049916
1.752312974620839
2.654831801333679
2.412739809132301
1.974440991269906
2.002217083390944
2.315291034682666
2.295818605506045
2.288160111732965
2.856073277685704
2.797259457646357
2.787296327830773
2.351533015270663
1.059924756924350
0.991442307505723
3.386772424900537
0.785878763738838
3.094651815700947
2.773591234714072
2.357667491119461
2.319958320947857
2.449297553346966
1.533714407131682
3.233295545523672
1.863921448262243
2.323277288822789
2.390538411713377
1.159641951710361
3.987770330686128
2.230025243161213
2.470994119259827
2.068932779949321
2.075380268481680
3.327082520838635
2.590235331749774
2.998420120913476
0.467680594803938
4.115618653579002
0.532073553139857
3.455294429983965
2.502069932606886
2.109749738393461
2.351181050817425
3.500517161034727
2.689626777645548
2.842447841271754
2.685451513901176
2.418329615133518
1.438436592021687
3.988697307210058
3.308309767282509
0.740003415566605
3.035637511636875
1.555863326390929
1.685092356746583
2.191141934627512
2.873254549972550
2.633138653986411
2.046112937482236
0.716594025935192
3.245359093551749
3.620829452869866
2.222895563829980
2.324085809994576
2.520233632007518
2.946465814396424
0.285532068735265
1.338850585339866
1.214631210800782
3.967929622032691
2.127553203904891
2.110465940073531
1.978739980977839
3.813233458128260
1.941005447598907
1.961415305877706
2.541171170503812
2.359351473847130
2.756883112431297
2.526891261496770
2.336423211427272
1.775906815635141
1.703359825100567
2.579285864618549
0.034651404639680
3.682488367892318
2.582144915810896
0.788578822852945
1.040442171201993
3.401696332392060
1.492573566018211
3.924926300958400
2.220925813340331
3.991974012121385
2.916674849903322
2.558286459400464
2.717185649651773
2.532698553421081
2.406059789826212
2.414372804109028
1.685321351112190
1.664060230183726
1.197485092081829
2.458603874738796
1.990604768425035
3.144511217804105
0.393611750043648
1.778747935188216
3.515259650631636
3.426836034870052
3.227558441401493
2.615428139940262
2.613785102494177
3.825143032946685
2.805558651776830
0.212844670648709
2.478190602967491
2.570861612381261
2.465692454325727
1.793396148546294
0.570705488869438
2.259237670296443
1.696502185580390
2.826256559951602
3.535931991146057
3.265966702708182
2.338900145331839
3.175022282014796
2.363362684972837
1.648380486769389
2.108117342098617
2.102622469348777
1.616427030587389
1.560284271463950
0.039447763687295
0.249670384225386
2.204780971431241
2.223633555281615
2.359487003245148
3.927819148928522
2.470902760242343
3.395407749547133
1.349316233172475
1.283819482193070
2.517281750166976
4.021761705792251
3.661743634824069
2.391646432042683
2.373963957745578
2.781072090632726
1.152191454431298
2.247701204198439
1.638607455506085
1.393640398409881
0.618286051120108
2.565210755756770
2.674748574619469
0.139067954968833
1.907276246441209
1.949168014347440
2.430508039694245
0.160209614644713
2.433023189441310
3.766406542786070
4.120438605317768
2.790149920634652
2.246509333572799
1.316975261515177
2.230160150730206
3.442080355208863
2.809742147744228
2.350238430375752
2.209935801940172
1.465197007832255
1.333595287423616
1.503074072213070
1.289720169272182
1.263277778854429
1.162161526015755
2.441117252027895
2.679912015418113
0.292012609446150
0.007342777189574
3.337423771457228
3.050028444623868
1.778285977910016
2.337574150543656
0.998905674263310
0.953591696454379
2.013590011039530
2.728524493718223
2.189395868866944
1.101252975377474
1.191343431877749
2.199626889446577
0.585435208142494
2.264356775180794
1.012821061374823
0.047538938644599
1.949527348552939
2.001456597921661
2.048977166406454
3.944169683739209
2.140015849095762
2.565927832338993
0.249681469331733
3.420916242642959
4.072353488776513
2.017341755651760
2.520877584087388
3.433489204637591
1.491285597344836
1.669970924785697
1.886851998506624
3.251856529499300
2.102047160322154
2.350131295512493
3.159426359082655
2.529757340138110
1.678789732853221
1.725703923245179
2.913576930742845
1.796048749504136
2.883071890438864
3.306839904218564
2.164418764072850
1.919569661351632
2.382473268833288
2.351016304521230
2.421172606968759
1.078181360423653
3.467787437103394
2.855399750106694
2.696471181303901
2.426018889024009
2.628242215233374
3.685354073549066
1.004333666579029
4.045300129636332
0.658585005967464
3.349198664172879
