# vtk DataFile Version 3.0
    
ASCII
DATASET UNSTRUCTURED_GRID
POINTS 526 float
0 0 0
1.5 0 0
5 0 0
5 1 0
1.5 1 0
0 1 0
0.6 0.5 0
0.8 0.5 0
0 0.7 0
0 0.3 0
0.1 0 0
0.2 0 0
0.3 0 0
0.4 0 0
0.5 0 0
0.6 0 0
0.7 0 0
0.8 0 0
0.9 0 0
1 0 0
1.1 0 0
1.2 0 0
1.3 0 0
1.4 0 0
1.5984 0 0
1.69956 0 0
1.80357 0 0
1.91051 0 0
2.02044 0 0
2.13347 0 0
2.24968 0 0
2.36916 0 0
2.49199 0 0
2.61828 0 0
2.74812 0 0
2.8816 0 0
3.01884 0 0
3.15994 0 0
3.30501 0 0
3.45415 0 0
3.60749 0 0
3.76514 0 0
3.92722 0 0
4.09385 0 0
4.26518 0 0
4.44131 0 0
4.6224 0 0
4.80858 0 0
5 0.2 0
5 0.4 0
5 0.6 0
5 0.8 0
4.80858 1 0
4.6224 1 0
4.44131 1 0
4.26518 1 0
4.09385 1 0
3.92722 1 0
3.76514 1 0
3.60749 1 0
3.45415 1 0
3.30501 1 0
3.15994 1 0
3.01884 1 0
2.8816 1 0
2.74812 1 0
2.61828 1 0
2.49199 1 0
2.36916 1 0
2.24968 1 0
2.13347 1 0
2.02044 1 0
1.91051 1 0
1.80357 1 0
1.69956 1 0
1.5984 1 0
1.4 1 0
1.3 1 0
1.2 1 0
1.1 1 0
1 1 0
0.9 1 0
0.8 1 0
0.7 1 0
0.6 1 0
0.5 1 0
0.4 1 0
0.3 1 0
0.2 1 0
0.1 1 0
0.629289 0.429289 0
0.7 0.4 0
0.770711 0.429289 0
0.770711 0.570711 0
0.7 0.6 0
0.629289 0.570711 0
0 0.9 0
0 0.8 0
0 0.6 0
0 0.5 0
0 0.4 0
0 0.2 0
0 0.1 0
1.2986 0.498108 0
1.79939 0.500465 0
2.30343 0.491251 0
2.81671 0.477713 0
0.337838 0.345049 0
0.33978 0.617224 0
3.31781 0.509336 0
1.03761 0.632887 0
1.04183 0.357652 0
3.80803 0.5 0
1.54422 0.693331 0
1.55268 0.310468 0
4.27911 0.50419 0
2.05142 0.687753 0
2.05386 0.317132 0
0.518379 0.228578 0
1.27363 0.74255 0
1.27667 0.244274 0
0.523565 0.772983 0
0.801786 0.769924 0
0.800974 0.230813 0
2.55451 0.690565 0
2.52694 0.319616 0
1.79215 0.750069 0
1.79259 0.245488 0
3.05619 0.311105 0
3.02905 0.6794 0
2.29236 0.734717 0
2.30581 0.256416 0
0.194101 0.507028 0
0.419638 0.492341 0
3.53844 0.708061 0
3.54375 0.281746 0
0.196179 0.809317 0
0.190776 0.186786 0
1.51382 0.493343 0
2.79946 0.752591 0
2.79946 0.247409 0
0.971807 0.827166 0
0.971831 0.172962 0
4.65228 0.355556 0
0.952432 0.500582 0
4.0631 0.304799 0
4.05903 0.688209 0
0.366523 0.811783 0
0.362653 0.186121 0
4.57093 0.686248 0
1.98466 0.49244 0
0.491035 0.621293 0
1.1274 0.500796 0
0.657328 0.254533 0
0.898047 0.654131 0
0.898047 0.345869 0
0.65301 0.745358 0
1.42309 0.828699 0
1.42309 0.171301 0
3.30122 0.233003 0
3.30057 0.77179 0
0.500338 0.37914 0
0.157052 0.34662 0
1.64263 0.834224 0
1.64811 0.157709 0
1.39326 0.638348 0
1.39424 0.369489 0
0.171492 0.64832 0
1.9446 0.841231 0
1.9446 0.158769 0
1.15328 0.853087 0
1.1533 0.146973 0
2.52877 0.502704 0
3.80326 0.746235 0
3.78507 0.246563 0
1.64864 0.560947 0
1.68507 0.387099 0
1.21144 0.366782 0
1.19402 0.632266 0
1.89792 0.628235 0
1.90209 0.361465 0
4.35614 0.254554 0
2.12655 0.833069 0
2.13385 0.171681 0
4.30765 0.761339 0
2.14838 0.553906 0
0.60839 0.879301 0
0.605625 0.123931 0
3.00255 0.5 0
2.45078 0.169359 0
2.45078 0.830641 0
2.19506 0.373669 0
0.773312 0.68526 0
0.775017 0.318894 0
2.39666 0.620831 0
2.40182 0.37089 0
0.735246 0.121072 0
2.64697 0.830644 0
2.63968 0.167176 0
0.74076 0.876905 0
0.587467 0.672055 0
3.49087 0.523799 0
0.299248 0.527057 0
0.421642 0.278168 0
0.453187 0.123946 0
0.456738 0.876046 0
2.95609 0.165328 0
2.95609 0.834672 0
0.611496 0.318202 0
2.63114 0.568172 0
1.31584 0.878524 0
1.31584 0.121476 0
0.890947 0.879268 0
0.890947 0.120732 0
0.428485 0.727276 0
1.68543 0.670228 0
1.7522 0.8491 0
1.75726 0.140305 0
2.70179 0.376397 0
1.12978 0.26673 0
1.11648 0.737548 0
4.79118 0.554936 0
2.90437 0.629002 0
2.90437 0.370998 0
0.888594 0.429569 0
0.888594 0.570625 0
4.00224 0.497302 0
3.15988 0.167106 0
3.15525 0.834809 0
0.272822 0.888897 0
0.115526 0.884474 0
1.5393 0.892423 0
1.54989 0.115078 0
0.269719 0.109175 0
0.506293 0.52837 0
4.76874 0.769104 0
0.113399 0.576684 0
0.115951 0.421529 0
1.58379 0.415532 0
3.1432 0.451735 0
0.105599 0.738176 0
3.45306 0.827352 0
3.45306 0.172648 0
0.11332 0.11332 0
1.77228 0.625201 0
2.20361 0.666359 0
0.281868 0.438958 0
0.0963802 0.262222 0
0.400938 0.402605 0
0.924309 0.738869 0
0.924312 0.261146 0
3.20291 0.592884 0
0.285822 0.747602 0
4.18567 0.166172 0
0.408562 0.592487 0
2.30604 0.913259 0
2.30604 0.0867405 0
4.51169 0.16947 0
3.68343 0.845608 0
3.66433 0.156119 0
4.79829 0.203104 0
0.277971 0.251586 0
3.42936 0.390364 0
3.40895 0.625374 0
0.968603 0.593207 0
0.968603 0.406793 0
1.65283 0.283878 0
1.06094 0.901609 0
1.06094 0.0983908 0
4.48303 0.491408 0
3.95646 0.828603 0
3.94305 0.18254 0
2.09285 0.432697 0
1.04346 0.453275 0
3.65848 0.548046 0
1.29465 0.604305 0
1.30086 0.409572 0
0.531466 0.449419 0
1.37209 0.732932 0
1.37257 0.266443 0
1.0467 0.547907 0
2.05283 0.894557 0
2.05336 0.105789 0
1.40077 0.534508 0
4.17385 0.835315 0
1.49587 0.604914 0
3.71992 0.385918 0
2.67222 0.725708 0
4.45588 0.806091 0
2.29205 0.618092 0
1.03037 0.724045 0
1.00382 0.274296 0
2.82165 0.118398 0
2.82165 0.881602 0
1.85385 0.910497 0
1.85457 0.0879892 0
3.90606 0.628551 0
3.89238 0.358167 0
1.90404 0.740189 0
1.89941 0.262369 0
1.53748 0.782215 0
1.51735 0.22548 0
4.22562 0.339346 0
1.80094 0.350927 0
1.49102 0.391485 0
0.362558 0.906558 0
0.360697 0.092304 0
0.249442 0.601582 0
4.12933 0.560917 0
1.22501 0.914282 0
1.22502 0.0857277 0
1.70906 0.486213 0
1.20974 0.546495 0
2.14501 0.271982 0
2.55266 0.900735 0
2.55162 0.098954 0
2.59749 0.420791 0
1.8974 0.531574 0
0.822128 0.624414 0
0.822371 0.376207 0
0.696426 0.328603 0
1.45 0.0792071 0
1.45 0.920793 0
0.678679 0.670161 0
1.99641 0.601936 0
0.0780979 0.652636 0
0.568484 0.587696 0
0.53193 0.924855 0
4.3889 0.647922 0
0.733402 0.799104 0
4.82954 0.382516 0
0.731913 0.20065 0
3.17148 0.298877 0
0.444595 0.798833 0
0.443748 0.202754 0
2.0232 0.774905 0
2.02794 0.229437 0
0.972712 0.915031 0
0.972712 0.0849693 0
2.77673 0.593807 0
1.20787 0.455329 0
1.12467 0.411608 0
0.529199 0.0755813 0
1.98524 0.397799 0
0.849743 0.714141 0
0.849933 0.28678 0
1.65288 0.923667 0
1.66218 0.0768202 0
0.593189 0.201256 0
0.239151 0.345433 0
1.08055 0.209651 0
0.594614 0.799507 0
0.0738765 0.346074 0
3.26349 0.105125 0
3.26273 0.895833 0
1.0835 0.803585 0
4.47679 0.334351 0
1.1216 0.587753 0
0.812701 0.0808942 0
2.40947 0.265563 0
2.41275 0.724172 0
1.461 0.713407 0
1.45926 0.296851 0
0.202055 0.419856 0
2.29364 0.36225 0
4.62463 0.849121 0
1.62139 0.731328 0
0.511302 0.696916 0
2.18557 0.0899525 0
2.18427 0.910897 0
0.815436 0.920796 0
1.70774 0.753785 0
1.3672 0.453368 0
0.520482 0.312395 0
1.24679 0.828424 0
1.24341 0.171591 0
2.66641 0.280986 0
0.194047 0.915705 0
2.20961 0.465453 0
1.95645 0.929257 0
1.9567 0.0705094 0
0.354313 0.456491 0
0.676371 0.0789546 0
0.463441 0.435143 0
0.572362 0.38072 0
2.41706 0.515437 0
0.191431 0.0832567 0
3.09094 0.583703 0
1.5716 0.555406 0
3.83249 0.882701 0
3.83249 0.117299 0
1.85216 0.815763 0
1.84969 0.178984 0
1.70538 0.22015 0
1.14785 0.0662182 0
1.14785 0.933796 0
3.69223 0.691077 0
0.20875 0.723907 0
0.677773 0.920978 0
2.49329 0.603392 0
2.54685 0.793339 0
2.54377 0.211907 0
0.523888 0.159341 0
1.19405 0.706051 0
1.20862 0.290199 0
1.29407 0.32446 0
1.32035 0.678642 0
3.2944 0.358236 0
0.526639 0.841921 0
3.05265 0.106314 0
3.05183 0.894444 0
1.60796 0.636167 0
0.185339 0.274609 0
0.666612 0.163399 0
0.182108 0.583403 0
2.91565 0.267017 0
2.90711 0.737651 0
0.641914 0.371363 0
0.0787896 0.813481 0
4.34064 0.883698 0
0.970094 0.666463 0
0.968068 0.334064 0
0.350026 0.265231 0
2.49474 0.418929 0
2.23825 0.195368 0
2.22701 0.802216 0
2.43057 0.925251 0
2.43057 0.074749 0
1.97371 0.313641 0
1.9746 0.686604 0
0.667992 0.836859 0
1.61859 0.349244 0
1.72931 0.302061 0
4.35279 0.110495 0
2.12268 0.736659 0
4.13315 0.438262 0
0.0757557 0.181625 0
1.86908 0.446192 0
2.79861 0.352605 0
0.351799 0.705383 0
1.73237 0.557692 0
1.83333 0.67899 0
1.37779 0.925603 0
1.37779 0.0743968 0
3.54951 0.896466 0
3.54951 0.103534 0
3.37785 0.0873407 0
3.37785 0.912659 0
3.58687 0.407336 0
2.72041 0.464914 0
4.21354 0.671438 0
3.16133 0.699916 0
2.68509 0.0840739 0
2.68506 0.918444 0
0.424663 0.655947 0
0.732756 0.267201 0
1.7707 0.432349 0
0.264492 0.675775 0
2.06436 0.550579 0
4.36414 0.38477 0
4.67395 0.130442 0
1.33616 0.798964 0
1.33616 0.201036 0
0.728038 0.733961 0
0.291821 0.81889 0
4.87292 0.677971 0
2.90148 0.527913 0
4.6441 0.560853 0
1.62646 0.487089 0
3.78322 0.619241 0
0.752482 0.626703 0
0.752482 0.373297 0
0.874959 0.801081 0
0.874289 0.199339 0
3.00274 0.397992 0
0.289317 0.177637 0
0.809548 0.84118 0
0.863473 0.500129 0
2.11555 0.63354 0
3.04783 0.20959 0
3.04559 0.785175 0
0.807678 0.158917 0
0.749971 0.0511189 0
0.448512 0.549413 0
4.88448 0.867574 0
1.13061 0.330751 0
0.826838 0.552447 0
0.826856 0.447631 0
0.0636864 0.936314 0
4.05816 0.123464 0
0.0619189 0.0619189 0
2.35468 0.818745 0
2.35682 0.174699 0
0.437728 0.346953 0
4.89854 0.104301 0
1.11415 0.66617 0
1.60103 0.225638 0
1.831 0.572711 0
2.12183 0.351681 0
3.40266 0.729187 0
3.40407 0.281171 0
2.72807 0.177926 0
2.73341 0.823994 0
0.450064 0.947997 0
2.99134 0.59077 0
0.573991 0.737364 0
2.95022 0.931473 0
2.95022 0.0685275 0
0.628812 0.625546 0
0.746794 0.943736 0
3.29904 0.654748 0
0.0705751 0.500873 0
2.23439 0.296934 0
0.449496 0.0525715 0
3.6615 0.275683 0
1.07447 0.288879 0
1.75819 0.695655 0
1.43738 0.451732 0
0.374103 0.536918 0
1.17681 0.783139 0
1.75217 0.940039 0
1.75433 0.0583009 0
2.23142 0.559012 0
1.17687 0.216671 0
1.25534 0.672763 0
0.580175 0.262993 0
CELLS 949 3796
3 221 330 50
3 254 108 518
3 467 235 149
3 50 330 49
3 221 235 467
3 108 202 518
3 194 399 360
3 404 405 177
3 360 130 289
3 125 195 359
3 405 276 177
3 105 195 385
3 107 246 349
3 194 360 289
3 399 124 360
3 168 298 335
3 169 336 299
3 175 440 215
3 105 364 195
3 335 298 429
3 336 428 299
3 124 287 400
3 220 290 495
3 386 12 233
3 132 202 307
3 246 363 349
3 197 400 287
3 109 251 239
3 110 495 290
3 125 423 195
3 115 328 450
3 87 377 229
3 56 270 284
3 11 12 386
3 365 54 288
3 132 246 202
3 215 440 244
3 84 327 186
3 109 262 201
3 109 201 263
3 157 361 300
3 158 301 362
3 398 84 186
3 382 187 15
3 187 342 15
3 105 378 364
3 107 203 493
3 29 368 282
3 70 281 369
3 53 54 365
3 134 444 241
3 135 242 445
3 107 248 381
3 172 209 399
3 87 88 377
3 150 437 343
3 134 263 201
3 124 399 209
3 172 316 209
3 124 400 360
3 125 359 401
3 132 236 511
3 220 355 290
3 56 57 270
3 132 511 237
3 107 381 246
3 107 493 248
3 4 231 75
3 1 24 232
3 191 364 378
3 195 423 385
3 134 258 444
3 135 445 259
3 245 425 434
3 153 320 208
3 48 330 260
3 77 309 210
3 22 211 310
3 163 216 346
3 164 347 217
3 40 41 259
3 58 59 258
3 134 201 274
3 192 323 470
3 157 278 361
3 158 362 279
3 18 213 358
3 148 306 204
3 6 326 234
3 118 373 203
3 147 205 305
3 422 148 203
3 52 365 235
3 148 334 203
3 141 212 472
3 142 473 213
3 41 390 259
3 58 258 389
3 239 251 387
3 107 422 203
3 124 209 287
3 151 326 200
3 75 231 346
3 24 347 232
3 184 450 328
3 48 49 330
3 173 296 270
3 174 271 297
3 148 204 334
3 147 333 205
3 103 283 275
3 165 275 283
3 89 230 377
3 183 282 368
3 182 369 281
3 163 231 300
3 81 370 212
3 6 277 90
3 157 442 210
3 158 211 443
3 163 371 216
3 108 307 202
3 52 53 365
3 8 240 97
3 139 416 293
3 140 292 415
3 130 425 245
3 121 214 367
3 192 463 323
3 164 496 232
3 123 193 455
3 232 496 301
3 207 293 416
3 206 415 292
3 144 477 224
3 144 225 477
3 127 299 303
3 172 385 423
3 28 29 282
3 70 71 281
3 146 270 296
3 145 297 271
3 156 200 323
3 174 297 286
3 201 262 448
3 133 383 234
3 132 307 414
3 112 286 297
3 150 317 437
3 81 212 337
3 18 338 213
3 135 448 262
3 122 463 192
3 208 320 417
3 138 238 468
3 175 215 411
3 126 216 371
3 115 450 308
3 185 272 378
3 154 225 264
3 155 265 224
3 6 234 277
3 180 303 299
3 100 237 511
3 144 224 265
3 144 264 225
3 185 458 272
3 6 95 326
3 122 192 344
3 123 345 193
3 136 230 418
3 10 386 243
3 156 505 200
3 141 337 212
3 142 213 338
3 190 360 400
3 189 401 359
3 182 434 425
3 157 210 461
3 158 462 211
3 151 200 367
3 77 210 442
3 22 443 211
3 138 468 388
3 234 383 277
3 176 468 238
3 45 46 257
3 118 203 334
3 130 245 289
3 37 353 227
3 62 228 354
3 99 100 511
3 141 472 249
3 142 250 473
3 125 376 316
3 136 418 240
3 121 333 214
3 136 377 230
3 218 376 438
3 88 89 377
3 105 385 289
3 9 101 247
3 160 241 447
3 159 446 242
3 143 257 460
3 112 274 286
3 137 436 243
3 136 229 377
3 87 229 305
3 164 217 393
3 180 343 437
3 163 346 231
3 164 232 347
3 140 438 376
3 223 415 474
3 146 284 270
3 218 316 376
3 209 449 339
3 152 312 357
3 194 289 385
3 165 283 285
3 143 460 260
3 106 223 466
3 137 247 436
3 138 285 283
3 145 253 302
3 97 240 418
3 126 391 216
3 127 217 392
3 147 439 214
3 153 208 525
3 96 418 230
3 112 226 296
3 112 297 226
3 127 393 217
3 114 238 304
3 176 311 468
3 129 416 222
3 19 20 268
3 79 80 267
3 154 318 225
3 155 224 319
3 128 479 332
3 55 56 284
3 45 257 433
3 106 438 223
3 144 280 264
3 68 69 255
3 30 31 256
3 147 214 333
3 111 273 265
3 154 420 249
3 155 250 421
3 139 339 222
3 159 353 446
3 160 447 354
3 474 415 128
3 10 11 386
3 227 332 479
3 147 305 464
3 137 386 233
3 43 44 253
3 55 284 419
3 12 306 233
3 90 277 384
3 144 273 280
3 137 243 386
3 17 18 358
3 181 302 253
3 188 466 223
3 145 226 297
3 146 296 226
3 143 221 467
3 160 499 241
3 159 242 500
3 173 389 258
3 174 259 390
3 185 522 245
3 106 449 438
3 113 285 411
3 144 265 273
3 157 300 231
3 158 232 301
3 73 520 294
3 26 295 521
3 159 332 227
3 132 237 363
3 37 227 409
3 62 410 228
3 215 244 516
3 106 339 449
3 188 223 474
3 129 222 504
3 229 464 305
3 221 465 235
3 143 330 221
3 110 264 280
3 181 433 257
3 98 511 236
3 216 520 346
3 217 347 521
3 197 287 502
3 146 226 308
3 285 388 411
3 167 325 236
3 167 397 240
3 148 475 306
3 162 363 237
3 50 465 221
3 77 78 309
3 21 22 310
3 136 240 397
3 138 304 238
3 167 240 325
3 218 438 449
3 139 222 416
3 203 373 493
3 188 474 239
3 183 313 336
3 103 340 276
3 163 300 366
3 149 288 328
3 128 239 474
3 216 294 520
3 217 521 295
3 96 230 488
3 89 488 230
3 188 239 387
3 274 448 286
3 72 73 294
3 26 27 295
3 102 243 436
3 115 308 435
3 108 454 439
3 118 334 402
3 115 435 302
3 162 237 352
3 81 82 370
3 4 322 231
3 1 232 321
3 233 306 475
3 184 328 288
3 178 357 312
3 94 470 323
3 161 373 384
3 149 235 365
3 141 249 290
3 142 291 250
3 157 231 322
3 158 321 232
3 202 246 381
3 117 336 313
3 121 408 333
3 136 464 229
3 204 402 334
3 145 489 253
3 52 235 484
3 208 384 373
3 214 454 367
3 37 38 353
3 61 62 354
3 162 352 247
3 245 522 289
3 472 122 344
3 473 345 123
3 114 362 301
3 113 300 361
3 160 228 451
3 86 87 305
3 152 280 273
3 120 405 404
3 142 268 350
3 19 268 338
3 80 337 267
3 209 316 449
3 137 233 475
3 205 333 408
3 159 227 353
3 160 354 228
3 100 352 237
3 30 256 368
3 69 369 255
3 157 322 442
3 158 443 321
3 96 97 418
3 151 234 326
3 179 317 324
3 154 249 344
3 155 345 250
3 184 419 284
3 150 272 458
3 141 355 267
3 133 234 483
3 129 480 416
3 128 415 479
3 249 472 344
3 250 345 473
3 209 339 287
3 137 261 412
3 145 271 489
3 177 276 340
3 141 290 355
3 132 414 236
3 108 254 454
3 145 435 226
3 185 245 478
3 199 398 430
3 128 332 239
3 142 350 291
3 18 19 338
3 80 81 337
3 250 291 421
3 249 420 290
3 141 267 337
3 142 338 268
3 191 378 272
3 116 335 429
3 152 341 340
3 98 99 511
3 313 424 512
3 98 236 325
3 171 350 268
3 178 312 275
3 151 483 234
3 167 236 414
3 117 428 336
3 150 324 317
3 9 247 352
3 10 243 490
3 102 490 243
3 115 459 269
3 134 241 499
3 135 500 242
3 170 267 355
3 8 325 240
3 12 13 306
3 101 436 247
3 68 255 426
3 31 427 256
3 109 239 407
3 256 427 492
3 255 491 426
3 44 433 253
3 181 253 433
3 139 502 287
3 34 35 292
3 64 65 293
3 114 431 238
3 151 367 454
3 181 257 356
3 103 275 312
3 42 489 271
3 147 252 439
3 183 424 313
3 149 328 269
3 152 273 341
3 214 439 454
3 133 248 383
3 152 357 280
3 60 447 444
3 39 445 446
3 241 444 447
3 242 446 445
3 176 238 431
3 162 349 363
3 207 506 293
3 206 292 507
3 134 396 258
3 114 304 362
3 143 260 330
3 148 422 261
3 162 247 412
3 151 254 483
3 107 349 261
3 137 412 247
3 133 381 248
3 303 437 456
3 131 359 364
3 115 269 328
3 101 102 436
3 47 260 460
3 291 350 515
3 180 437 303
3 134 499 263
3 135 262 500
3 129 387 451
3 132 363 246
3 251 510 451
3 139 287 339
3 36 37 409
3 62 63 410
3 106 466 339
3 111 341 273
3 261 349 412
3 43 253 489
3 195 364 359
3 135 259 514
3 42 43 489
3 156 351 505
3 143 356 257
3 32 33 315
3 66 67 314
3 196 413 382
3 173 258 396
3 117 272 343
3 192 318 344
3 193 345 319
3 140 376 501
3 186 430 398
3 510 160 451
3 136 252 464
3 251 451 387
3 109 510 251
3 222 339 466
3 500 407 159
3 216 391 294
3 217 295 392
3 182 281 335
3 183 336 282
3 113 411 366
3 137 475 261
3 123 455 331
3 150 343 272
3 262 407 500
3 235 465 484
3 109 263 510
3 143 467 269
3 107 261 422
3 177 340 341
3 83 84 398
3 204 306 513
3 154 344 318
3 155 319 345
3 215 366 411
3 157 461 278
3 158 279 462
3 33 452 315
3 66 314 453
3 496 164 393
3 103 312 340
3 51 484 465
3 47 494 260
3 59 444 258
3 40 259 445
3 34 292 452
3 65 453 293
3 165 285 361
3 116 324 478
3 170 395 267
3 171 268 394
3 266 496 393
3 113 361 285
3 161 493 373
3 200 326 508
3 189 492 427
3 190 426 491
3 156 323 463
3 178 403 495
3 114 496 266
3 143 269 356
3 42 271 390
3 57 389 270
3 151 454 254
3 324 458 478
3 168 335 281
3 169 282 336
3 15 16 382
3 1 321 23
3 4 76 322
3 136 397 252
3 110 420 264
3 111 265 421
3 109 407 262
3 166 362 304
3 201 448 274
3 79 267 395
3 20 394 268
3 122 329 463
3 14 15 342
3 269 459 356
3 147 464 252
3 35 507 292
3 64 293 506
3 187 382 413
3 198 315 452
3 197 453 314
3 177 485 404
3 110 280 357
3 205 503 305
3 84 85 327
3 207 416 480
3 206 479 415
3 103 276 372
3 166 372 276
3 8 98 325
3 174 514 259
3 108 439 457
3 213 473 481
3 46 460 257
3 211 462 375
3 210 374 461
3 153 525 348
3 165 361 278
3 166 279 362
3 225 318 486
3 224 487 319
3 173 270 389
3 174 390 271
3 76 77 442
3 22 23 443
3 148 261 475
3 120 404 523
3 161 383 493
3 46 47 460
3 48 260 494
3 119 519 403
3 114 266 431
3 74 75 346
3 24 25 347
3 252 457 439
3 149 365 288
3 220 495 403
3 71 379 281
3 28 282 380
3 131 512 424
3 113 366 300
3 161 384 277
3 255 369 425
3 256 424 368
3 41 42 390
3 57 58 389
3 248 493 383
3 199 430 329
3 134 274 396
3 176 431 266
3 178 275 524
3 219 404 485
3 119 374 519
3 120 523 375
3 210 309 374
3 211 375 310
3 198 376 401
3 176 266 432
3 165 406 275
3 152 340 312
3 202 381 518
3 27 28 380
3 71 72 379
3 168 281 379
3 169 380 282
3 9 352 100
3 103 372 283
3 166 276 405
3 154 264 420
3 155 421 265
3 146 450 284
3 125 401 376
3 166 405 279
3 165 278 406
3 94 508 95
3 161 277 383
3 117 498 272
3 213 481 358
3 190 314 426
3 189 427 315
3 149 269 467
3 120 375 462
3 119 461 374
3 239 332 407
3 29 30 368
3 69 70 369
3 120 279 405
3 119 406 278
3 110 290 420
3 111 421 291
3 293 453 502
3 292 501 452
3 166 304 517
3 112 469 274
3 67 426 314
3 32 315 427
3 194 385 399
3 138 388 285
3 205 327 503
3 50 51 465
3 59 60 444
3 39 40 445
3 218 449 316
3 179 441 497
3 184 284 450
3 114 301 496
3 95 508 326
3 244 497 441
3 191 272 498
3 168 294 391
3 169 392 295
3 72 294 379
3 27 380 295
3 172 399 385
3 514 448 135
3 168 391 298
3 169 299 392
3 74 346 520
3 25 521 347
3 168 379 294
3 169 295 380
3 54 419 288
3 94 323 508
3 126 298 391
3 127 392 299
3 212 476 472
3 78 79 395
3 20 21 394
3 119 278 461
3 120 462 279
3 140 415 438
3 184 288 419
3 54 55 419
3 220 519 355
3 174 286 514
3 286 448 514
3 219 350 523
3 85 503 327
3 170 374 309
3 171 310 375
3 3 484 51
3 198 501 376
3 138 283 517
3 223 438 415
3 93 318 470
3 92 471 319
3 167 307 457
3 118 402 348
3 3 52 484
3 91 320 471
3 170 355 519
3 130 491 425
3 131 424 492
3 196 331 413
3 171 523 350
3 255 425 491
3 256 492 424
3 13 513 306
3 5 488 89
3 5 96 488
3 78 395 309
3 21 310 394
3 204 513 342
3 90 384 417
3 171 394 310
3 170 309 395
3 104 497 440
3 126 441 298
3 67 68 426
3 31 32 427
3 173 469 296
3 2 48 494
3 212 370 476
3 44 45 433
3 86 305 503
3 163 366 371
3 0 490 102
3 0 10 490
3 91 417 320
3 166 517 372
3 121 351 408
3 90 417 91
3 176 303 456
3 145 302 435
3 93 486 318
3 92 319 487
3 187 348 402
3 219 515 350
3 159 407 332
3 38 39 446
3 60 61 447
3 215 371 366
3 105 289 522
3 179 298 441
3 33 34 452
3 65 66 453
3 176 432 303
3 180 299 428
3 2 494 47
3 125 316 423
3 205 408 327
3 197 314 400
3 198 401 315
3 179 429 298
3 127 303 432
3 192 470 318
3 193 319 471
3 182 335 434
3 244 440 497
3 190 400 314
3 189 315 401
3 14 342 513
3 193 471 320
3 112 296 469
3 140 501 292
3 139 293 502
3 122 476 329
3 104 440 311
3 116 478 434
3 63 64 506
3 35 36 507
3 25 26 521
3 73 74 520
3 186 408 351
3 226 435 308
3 111 291 515
3 175 411 388
3 153 348 413
3 176 456 311
3 82 83 509
3 16 17 482
3 104 456 437
3 85 86 503
3 13 14 513
3 245 434 478
3 186 327 408
3 123 481 473
3 208 417 384
3 182 425 369
3 183 368 424
3 91 471 92
3 93 470 94
3 167 414 307
3 108 457 307
3 115 302 459
3 172 423 316
3 175 311 440
3 153 413 331
3 146 308 450
3 204 342 402
3 123 331 481
3 181 459 302
3 104 437 317
3 117 343 428
3 7 92 487
3 7 486 93
3 199 329 476
3 187 402 342
3 167 457 397
3 138 517 304
3 175 468 311
3 156 329 430
3 104 311 456
3 133 518 381
3 215 516 371
3 162 412 349
3 179 324 429
3 177 341 485
3 187 413 348
3 179 497 317
3 266 393 432
3 178 495 357
3 126 371 516
3 274 469 396
3 196 481 331
3 127 432 393
3 180 428 343
3 116 429 324
3 156 430 351
3 76 442 322
3 23 321 443
3 193 320 455
3 228 480 451
3 122 472 476
3 175 388 468
3 153 331 455
3 156 463 329
3 117 313 498
3 104 317 497
3 196 382 482
3 129 451 480
3 150 458 324
3 116 434 335
3 153 455 320
3 119 403 524
3 119 524 406
3 191 498 313
3 191 313 512
3 283 372 517
3 186 351 430
3 181 356 459
3 38 446 353
3 61 354 447
3 16 482 382
3 200 508 323
3 118 348 525
3 173 396 469
3 111 485 341
3 133 483 518
3 196 358 481
3 199 509 398
3 197 502 453
3 198 452 501
3 196 482 358
3 252 397 457
3 190 491 360
3 189 359 492
3 254 518 483
3 160 510 499
3 199 370 509
3 199 476 370
3 121 505 351
3 130 360 491
3 131 492 359
3 263 499 510
3 200 505 367
3 110 357 495
3 219 523 404
3 185 478 458
3 83 398 509
3 191 512 364
3 17 358 482
3 220 403 519
3 129 504 387
3 207 410 506
3 206 507 409
3 118 525 373
3 222 466 504
3 121 367 505
3 63 506 410
3 36 409 507
3 131 364 512
3 82 509 370
3 188 504 466
3 105 522 378
3 227 479 409
3 228 410 480
3 208 373 525
3 170 519 374
3 171 375 523
3 185 378 522
3 206 409 479
3 207 480 410
3 188 387 504
3 7 477 486
3 7 487 477
3 126 516 441
3 244 441 516
3 178 524 403
3 275 406 524
3 225 486 477
3 224 477 487
3 111 515 485
3 219 485 515
CELL_TYPES 949
5
5
5
5
5
5
5
5
5
5
5
5
5
5
5
5
5
5
5
5
5
5
5
5
5
5
5
5
5
5
5
5
5
5
5
5
5
5
5
5
5
5
5
5
5
5
5
5
5
5
5
5
5
5
5
5
5
5
5
5
5
5
5
5
5
5
5
5
5
5
5
5
5
5
5
5
5
5
5
5
5
5
5
5
5
5
5
5
5
5
5
5
5
5
5
5
5
5
5
5
5
5
5
5
5
5
5
5
5
5
5
5
5
5
5
5
5
5
5
5
5
5
5
5
5
5
5
5
5
5
5
5
5
5
5
5
5
5
5
5
5
5
5
5
5
5
5
5
5
5
5
5
5
5
5
5
5
5
5
5
5
5
5
5
5
5
5
5
5
5
5
5
5
5
5
5
5
5
5
5
5
5
5
5
5
5
5
5
5
5
5
5
5
5
5
5
5
5
5
5
5
5
5
5
5
5
5
5
5
5
5
5
5
5
5
5
5
5
5
5
5
5
5
5
5
5
5
5
5
5
5
5
5
5
5
5
5
5
5
5
5
5
5
5
5
5
5
5
5
5
5
5
5
5
5
5
5
5
5
5
5
5
5
5
5
5
5
5
5
5
5
5
5
5
5
5
5
5
5
5
5
5
5
5
5
5
5
5
5
5
5
5
5
5
5
5
5
5
5
5
5
5
5
5
5
5
5
5
5
5
5
5
5
5
5
5
5
5
5
5
5
5
5
5
5
5
5
5
5
5
5
5
5
5
5
5
5
5
5
5
5
5
5
5
5
5
5
5
5
5
5
5
5
5
5
5
5
5
5
5
5
5
5
5
5
5
5
5
5
5
5
5
5
5
5
5
5
5
5
5
5
5
5
5
5
5
5
5
5
5
5
5
5
5
5
5
5
5
5
5
5
5
5
5
5
5
5
5
5
5
5
5
5
5
5
5
5
5
5
5
5
5
5
5
5
5
5
5
5
5
5
5
5
5
5
5
5
5
5
5
5
5
5
5
5
5
5
5
5
5
5
5
5
5
5
5
5
5
5
5
5
5
5
5
5
5
5
5
5
5
5
5
5
5
5
5
5
5
5
5
5
5
5
5
5
5
5
5
5
5
5
5
5
5
5
5
5
5
5
5
5
5
5
5
5
5
5
5
5
5
5
5
5
5
5
5
5
5
5
5
5
5
5
5
5
5
5
5
5
5
5
5
5
5
5
5
5
5
5
5
5
5
5
5
5
5
5
5
5
5
5
5
5
5
5
5
5
5
5
5
5
5
5
5
5
5
5
5
5
5
5
5
5
5
5
5
5
5
5
5
5
5
5
5
5
5
5
5
5
5
5
5
5
5
5
5
5
5
5
5
5
5
5
5
5
5
5
5
5
5
5
5
5
5
5
5
5
5
5
5
5
5
5
5
5
5
5
5
5
5
5
5
5
5
5
5
5
5
5
5
5
5
5
5
5
5
5
5
5
5
5
5
5
5
5
5
5
5
5
5
5
5
5
5
5
5
5
5
5
5
5
5
5
5
5
5
5
5
5
5
5
5
5
5
5
5
5
5
5
5
5
5
5
5
5
5
5
5
5
5
5
5
5
5
5
5
5
5
5
5
5
5
5
5
5
5
5
5
5
5
5
5
5
5
5
5
5
5
5
5
5
5
5
5
5
5
5
5
5
5
5
5
5
5
5
5
5
5
5
5
5
5
5
5
5
5
5
5
5
5
5
5
5
5
5
5
5
5
5
5
5
5
5
5
5
5
5
5
5
5
5
5
5
5
5
5
5
5
5
5
5
5
5
5
5
5
5
5
5
5
5
5
5
5
5
5
5
5
5
5
5
5
5
5
5
5
5
5
5
5
5
5
5
5
5
5
5
5
5
5
5
5
5
5
5
5
5
5
5
5
5
5
5
5
5
5
5
5
5
5
5
5
5
5
5
5
5
5
5
5
5
5
5
5
5
5
5
5
5
5
5
5
5
5
5
5
5
5
5
5
5
5
5
5
5
5
5
5
5
5
5
5
5
5
5
5
5
5
5
5
5
5
5
5
5
5
5
5
5
5
5
5
5
5
5
5
5
5
5
5
5
5
5
5
5
5
5
5
5
5
5
5
5
5
5
5
5
5
5
5
5
5
5
5
5
5
5
5
5
POINT_DATA 526
SCALARS scalars float 1
LOOKUP_TABLE default
-0.451233011877289
-0.240582387533994
0.000270428842247
0.000225532206796
-0.240566246868359
-0.451220186405197
-0.643872471848192
-0.193819162979047
-0.433779187812558
-0.433776720256751
-0.448660828828803
-0.450021309623055
-0.450189637841752
-0.445330506915895
-0.409862237738896
-0.327436448336839
-0.265190342055477
-0.253797639324782
-0.261543275162784
-0.264113214336434
-0.263221011897958
-0.259524610102616
-0.253539170145116
-0.246850811801198
-0.232611424809417
-0.225811986895438
-0.218732688606262
-0.210620356767829
-0.203512992854386
-0.195238549025314
-0.187437427443418
-0.179174115278366
-0.171163516102028
-0.162078102856676
-0.153840379911637
-0.144081749436034
-0.135577588340492
-0.126022438716929
-0.115359413790710
-0.105762551556608
-0.095633534173033
-0.084308116567276
-0.073212884057471
-0.062233027515634
-0.050318714969952
-0.039414733166711
-0.025793823152920
-0.015107473960647
-0.000630692902168
-0.000287974678754
-0.000533945060391
-0.001293394894841
-0.015014009166519
-0.026500533856355
-0.039230937775312
-0.050724110598595
-0.062211907345792
-0.073711509659513
-0.084116734506707
-0.095625260054454
-0.105673507875057
-0.115301070190572
-0.125980221913525
-0.135558642937670
-0.144033089846883
-0.153850657142854
-0.162011284010590
-0.171195871834661
-0.179184926050208
-0.187448107289270
-0.195229239597491
-0.203468541819280
-0.210574840928771
-0.218727711653858
-0.225829591925227
-0.232672792001969
-0.246910077560628
-0.253576814581573
-0.259554030979903
-0.263261856609585
-0.264156587057735
-0.261480155177295
-0.253899484184835
-0.265431316791420
-0.327665112540845
-0.410260278956048
-0.445403761423045
-0.450130837374836
-0.449973945657844
-0.448673016958166
-0.457185936737592
-0.226560067970149
-0.160321292767108
-0.158977396689537
-0.235611144537159
-0.428700327776596
-0.449029567528781
-0.443062031031525
-0.427704732116238
-0.424990569476445
-0.427618035327768
-0.443000043252610
-0.448985463827620
-0.247440120896837
-0.216862914643241
-0.183561957652949
-0.148940178916571
-0.431983514533033
-0.429177646336677
-0.115619153594934
-0.263530461344513
-0.264252184803989
-0.081803182585362
-0.236132624779749
-0.235235544479828
-0.050235453945488
-0.200510707210576
-0.200339969324770
-0.427075339087702
-0.256592429009820
-0.256472919062958
-0.423275690162951
-0.241876034580396
-0.242726663217579
-0.166742196322921
-0.168615823132452
-0.218966497198742
-0.218992029412709
-0.132947753751663
-0.134813725363776
-0.184481300288000
-0.183640305642579
-0.422036438943408
-0.435074648817844
-0.100122442956541
-0.099821462857106
-0.440087706539596
-0.440347580979708
-0.234453607617595
-0.150137919534659
-0.150216870510865
-0.267214259080384
-0.267180682902867
-0.024650825047055
-0.250970664008923
-0.063905171375759
-0.063961660239711
-0.445594512946453
-0.445251084353875
-0.030089238516923
-0.204469539352712
-0.481018498144080
-0.255636618136418
-0.277455262348584
-0.251701146878289
-0.252623774117781
-0.278332812367038
-0.246272847513957
-0.246295147200912
-0.116117086760618
-0.116033030647375
-0.478991844442710
-0.427014444870990
-0.230041836953249
-0.229622793564672
-0.245412577192159
-0.245103297355931
-0.426812766855900
-0.208565584142572
-0.208631372313347
-0.263028801100340
-0.262883614578961
-0.168392524442265
-0.081989801703367
-0.082855850223928
-0.226757760904462
-0.225003841317084
-0.257404441548753
-0.258488401847361
-0.210784437252849
-0.210586715278555
-0.044897874196685
-0.195754712414491
-0.195269954443659
-0.047818664984359
-0.193721039662193
-0.315965954774346
-0.318380285454860
-0.136318108520774
-0.173690312972686
-0.173666876382000
-0.190736910179995
-0.218043769997659
-0.220662776676882
-0.177330624871421
-0.177011020986892
-0.259531025275893
-0.160656362786026
-0.161106142890549
-0.258292516946885
-0.403275487950237
-0.103390392531821
-0.424580718611372
-0.451555244031440
-0.431236505787817
-0.430108537346217
-0.139603976939960
-0.139599138988486
-0.358391672902414
-0.161409712041392
-0.253234935330419
-0.253193414550067
-0.264370131899151
-0.264415599842093
-0.451727020194431
-0.225742256116556
-0.222237714053553
-0.221829998925108
-0.156593355075415
-0.264912356916002
-0.265814641004821
-0.015661924523671
-0.142971304690154
-0.143097236006681
-0.240829480778718
-0.240672821221713
-0.067751199870787
-0.125647134639366
-0.125921348101715
-0.445444877408058
-0.445379914427116
-0.237525056525240
-0.236699076049946
-0.445580979855253
-0.487459688025940
-0.018019135694985
-0.422327163646756
-0.422274822093554
-0.231130663271314
-0.126385544350985
-0.433926835149128
-0.106355471576999
-0.106330242980669
-0.445508872318845
-0.219339946548639
-0.190237183185388
-0.424973215286913
-0.433975816286476
-0.436764454692170
-0.261127817415504
-0.261308692835190
-0.122708175756061
-0.436191624572462
-0.055747527126390
-0.438075712963832
-0.183587563801088
-0.183561898726327
-0.033925731379475
-0.089776677402102
-0.090927852577178
-0.014679238496151
-0.436061547230716
-0.107940394174081
-0.109343075201218
-0.258723960058813
-0.258598819374547
-0.228662434676230
-0.265457145996565
-0.265537509716317
-0.036026127729968
-0.071613608375941
-0.072592123655710
-0.197353458926886
-0.257467921033677
-0.091509486804806
-0.250659354315606
-0.249992509732023
-0.521157769332785
-0.249685277010626
-0.249728718244427
-0.257726873056970
-0.200930695919547
-0.200961395896907
-0.241734234332030
-0.056722977029875
-0.237287171492070
-0.087477017341699
-0.158709697866122
-0.038215868630391
-0.184417264974925
-0.267179760914303
-0.266387678634652
-0.148476407246994
-0.148451935869423
-0.214884610749579
-0.214927051330238
-0.075022797322168
-0.075813489762308
-0.211124272018814
-0.211492641560138
-0.237633502751426
-0.239182006633457
-0.053382397038635
-0.217662751801942
-0.237681071842136
-0.443785282755093
-0.443940509431166
-0.425908681159893
-0.059553614456924
-0.258653938857816
-0.258666539421824
-0.222642136762281
-0.252852141786334
-0.194358845030018
-0.166666258472820
-0.166756096565714
-0.163724511208206
-0.210365663056014
-0.227104483982553
-0.225945626026435
-0.240519778983733
-0.243723342422089
-0.243644203401290
-0.257796187889177
-0.203960501657335
-0.427648278199556
-0.503627899584188
-0.377673660420467
-0.042879841855835
-0.242976607011607
-0.013081304662136
-0.242248013650360
-0.124412613869738
-0.443567945290253
-0.443760575834987
-0.202905165904697
-0.202587995646286
-0.265026845383187
-0.264884584438318
-0.151499253554376
-0.252879739374964
-0.259551850321363
-0.379253453430613
-0.204727912879159
-0.247491635103221
-0.246149130051797
-0.229383541424627
-0.228580010916958
-0.339488180936611
-0.428582981750187
-0.266599235154974
-0.338186047334231
-0.427779324816580
-0.118071892515345
-0.118051720380799
-0.266357066856931
-0.036690474607988
-0.259587370001148
-0.261589841039724
-0.176515060799218
-0.176305358693501
-0.242436442456872
-0.242443259629885
-0.424156394208347
-0.184315602027245
-0.026908777211121
-0.231071087262172
-0.457811749270438
-0.192005840853554
-0.192102115383139
-0.261867319391800
-0.225092028024341
-0.243938662259437
-0.457198202138269
-0.258188359351502
-0.258312152264859
-0.159077675508237
-0.446606826710502
-0.189721338269646
-0.207845697064995
-0.207823220820238
-0.426891373038775
-0.276692634535811
-0.459445632933047
-0.456547917695985
-0.175948583291922
-0.446677603010792
-0.129936668035760
-0.231573074751307
-0.080155830699086
-0.080154098198963
-0.215128111867279
-0.215322450734114
-0.225545022779433
-0.262078569001845
-0.262027807967983
-0.089317236280231
-0.433210635522424
-0.276776953634750
-0.170817875405078
-0.167218287351494
-0.167506312556326
-0.397060255082314
-0.261185523195237
-0.260527939878044
-0.254040187793765
-0.252178790032805
-0.116873409434398
-0.395299769598248
-0.133522569172642
-0.133541861638072
-0.230524184847900
-0.433152176271177
-0.272786284935689
-0.423849164037379
-0.142194695234769
-0.142721354818562
-0.325108335323984
-0.440930962326971
-0.046078495735227
-0.263761842415970
-0.262947809441169
-0.441198848073255
-0.170703407114285
-0.188027807807751
-0.188854898693935
-0.175168413473002
-0.175159997530655
-0.206017525757965
-0.205925143779033
-0.272581652953836
-0.230072425892914
-0.222976124787446
-0.045169766053608
-0.195954248865446
-0.059319882911560
-0.441371819219511
-0.212344871713572
-0.150094218423400
-0.438503018675789
-0.221342122819534
-0.215679718147519
-0.248616008998626
-0.248615057009314
-0.099612381429398
-0.099789598997890
-0.110834982264259
-0.110761417825857
-0.096507251104388
-0.155289472950724
-0.054078818736237
-0.125135002605431
-0.157991297970504
-0.157972504806617
-0.449395087866401
-0.229197399717219
-0.218933948969626
-0.430236395728861
-0.199197354262533
-0.044566668019214
-0.023822879475592
-0.252290925950276
-0.252361156475320
-0.232437451985964
-0.442439333887339
-0.008883648913199
-0.143383768108350
-0.025671957358117
-0.227818537143320
-0.083568366895453
-0.196012119637257
-0.197233279078837
-0.258121370011769
-0.257934438312294
-0.136420314475201
-0.442711329266196
-0.254233592100667
-0.227933294099535
-0.196038761953262
-0.133498628814516
-0.133625968465941
-0.253995734711073
-0.265986963974017
-0.447712443876028
-0.007224750649403
-0.263938215001378
-0.202522682704019
-0.202668069396388
-0.448340219445270
-0.064212459432850
-0.448430019418392
-0.180437860239068
-0.180247899673055
-0.453921248651906
-0.006362929143595
-0.264459807586331
-0.232496045363132
-0.214973391089171
-0.195675280824954
-0.109872976148256
-0.109807043534455
-0.154743543757886
-0.154291579572846
-0.424234006452228
-0.137218359935779
-0.382767771362515
-0.140172333659408
-0.140254326238453
-0.348699471314672
-0.266330584835145
-0.116423423993738
-0.421761166532826
-0.188222780727601
-0.424246045351809
-0.091403099315308
-0.266419338168506
-0.220960872116564
-0.239778167149132
-0.428394173628216
-0.262976606155932
-0.222283941473686
-0.222073972761617
-0.188310875899422
-0.263036406531202
-0.256468937580080
-0.373583253403636
