# vtk DataFile Version 3.0
    
ASCII
DATASET UNSTRUCTURED_GRID
POINTS 522 float
0 0 0
1.5 0 0
5 0 0
5 1 0
1.5 1 0
0 1 0
0.6 0.49 0
0.8 0.49 0
0 0.7 0
0 0.3 0
0.1 0 0
0.2 0 0
0.3 0 0
0.4 0 0
0.5 0 0
0.6 0 0
0.7 0 0
0.8 0 0
0.9 0 0
1 0 0
1.1 0 0
1.2 0 0
1.3 0 0
1.4 0 0
1.5984 0 0
1.69956 0 0
1.80357 0 0
1.91051 0 0
2.02044 0 0
2.13347 0 0
2.24968 0 0
2.36916 0 0
2.49199 0 0
2.61828 0 0
2.74812 0 0
2.8816 0 0
3.01884 0 0
3.15994 0 0
3.30501 0 0
3.45415 0 0
3.60749 0 0
3.76514 0 0
3.92722 0 0
4.09385 0 0
4.26518 0 0
4.44131 0 0
4.6224 0 0
4.80858 0 0
5 0.2 0
5 0.4 0
5 0.6 0
5 0.8 0
4.80858 1 0
4.6224 1 0
4.44131 1 0
4.26518 1 0
4.09385 1 0
3.92722 1 0
3.76514 1 0
3.60749 1 0
3.45415 1 0
3.30501 1 0
3.15994 1 0
3.01884 1 0
2.8816 1 0
2.74812 1 0
2.61828 1 0
2.49199 1 0
2.36916 1 0
2.24968 1 0
2.13347 1 0
2.02044 1 0
1.91051 1 0
1.80357 1 0
1.69956 1 0
1.5984 1 0
1.4 1 0
1.3 1 0
1.2 1 0
1.1 1 0
1 1 0
0.9 1 0
0.8 1 0
0.7 1 0
0.6 1 0
0.5 1 0
0.4 1 0
0.3 1 0
0.2 1 0
0.1 1 0
0.629289 0.419289 0
0.7 0.39 0
0.770711 0.419289 0
0.770711 0.560711 0
0.7 0.59 0
0.629289 0.560711 0
0 0.9 0
0 0.8 0
0 0.6 0
0 0.5 0
0 0.4 0
0 0.2 0
0 0.1 0
1.29823 0.497011 0
1.7993 0.500433 0
2.30332 0.491252 0
2.81658 0.477715 0
0.336923 0.641275 0
0.337594 0.346079 0
3.31769 0.509337 0
1.05297 0.343793 0
1.03926 0.622176 0
3.80789 0.5 0
1.54024 0.695722 0
1.5492 0.30973 0
4.27898 0.504186 0
2.05132 0.68775 0
2.05376 0.317139 0
0.519804 0.767158 0
0.802989 0.764179 0
1.27103 0.751107 0
1.28518 0.249997 0
2.55439 0.690554 0
2.52682 0.319624 0
0.521836 0.222845 0
0.81228 0.212043 0
1.79214 0.75007 0
1.79257 0.245483 0
3.05607 0.311115 0
3.02892 0.679395 0
2.29225 0.734715 0
2.30571 0.256419 0
0.19924 0.488095 0
0.417931 0.495036 0
3.53831 0.70807 0
3.54362 0.281734 0
0.193444 0.811625 0
0.192169 0.191432 0
0.974924 0.824891 0
1.49856 0.498145 0
2.79933 0.752577 0
2.79933 0.247423 0
4.65223 0.35559 0
0.9532 0.488914 0
0.96889 0.171408 0
4.06299 0.3048 0
4.05889 0.688223 0
0.366244 0.179061 0
0.658187 0.738385 0
4.57081 0.686231 0
1.98455 0.492436 0
1.12748 0.490644 0
0.363796 0.802426 0
0.900346 0.338556 0
1.41809 0.828786 0
0.89583 0.646853 0
0.499078 0.618481 0
0.491346 0.367133 0
0.662746 0.250195 0
1.43196 0.164632 0
3.3011 0.233005 0
3.30044 0.771788 0
0.156279 0.644925 0
1.6426 0.834207 0
1.6426 0.165793 0
1.14689 0.152225 0
1.38952 0.642246 0
1.39184 0.36051 0
1.94457 0.841231 0
1.94457 0.158769 0
2.52865 0.502703 0
3.80312 0.746227 0
3.78493 0.246576 0
0.148596 0.342169 0
1.64915 0.5676 0
1.15272 0.85174 0
1.69486 0.37811 0
1.20887 0.62899 0
1.89782 0.6282 0
1.90201 0.361488 0
1.19533 0.361889 0
4.3561 0.254559 0
2.1265 0.833067 0
2.13379 0.171675 0
0.609238 0.872652 0
4.3075 0.761326 0
2.14827 0.553904 0
3.00242 0.5 0
2.45067 0.169346 0
2.45067 0.830654 0
0.606776 0.120576 0
0.776066 0.67364 0
2.19494 0.373675 0
2.39654 0.62083 0
2.40171 0.370894 0
0.741396 0.873855 0
0.78221 0.310093 0
0.451369 0.866758 0
2.64686 0.83063 0
2.63957 0.167187 0
0.591697 0.304666 0
0.733767 0.118858 0
3.49075 0.523801 0
0.297352 0.459006 0
1.11916 0.732209 0
0.894701 0.876309 0
0.59437 0.663756 0
2.95597 0.165307 0
2.95597 0.834693 0
2.63102 0.568167 0
1.31237 0.8718 0
0.421925 0.716843 0
1.31956 0.120881 0
0.424156 0.272832 0
0.449196 0.121069 0
1.68547 0.670639 0
1.75581 0.856934 0
1.75341 0.148197 0
0.887309 0.116486 0
2.70167 0.376406 0
4.79115 0.554953 0
0.888682 0.560696 0
2.90424 0.628997 0
2.90424 0.371003 0
0.275368 0.88687 0
4.00211 0.497307 0
3.15976 0.167107 0
3.15513 0.83481 0
1.5374 0.892482 0
0.889744 0.419967 0
1.13612 0.269657 0
0.509885 0.525766 0
0.115054 0.884946 0
4.76868 0.769058 0
0.267515 0.108261 0
0.102721 0.545955 0
0.925019 0.73758 0
1.54161 0.106498 0
1.59211 0.417427 0
0.116165 0.110745 0
3.14308 0.451737 0
3.45292 0.827358 0
3.45292 0.172642 0
2.20352 0.666359 0
1.77224 0.625201 0
0.100397 0.736906 0
0.274539 0.551545 0
0.39594 0.592617 0
3.20278 0.592883 0
0.104368 0.439269 0
0.098679 0.245602 0
4.18566 0.166209 0
0.407142 0.396383 0
0.921805 0.255776 0
2.30601 0.913257 0
2.30601 0.0867433 0
0.286589 0.241977 0
4.51167 0.169478 0
0.280868 0.732288 0
3.68334 0.84561 0
3.66423 0.156126 0
4.79826 0.203133 0
3.42923 0.39036 0
3.40883 0.625376 0
1.0586 0.0979564 0
0.240045 0.380737 0
1.65413 0.275546 0
4.48293 0.491416 0
1.05994 0.902248 0
0.971142 0.580123 0
3.95631 0.828593 0
3.94292 0.182554 0
2.09274 0.432697 0
1.04751 0.440715 0
1.29518 0.394935 0
3.65835 0.548048 0
1.3903 0.263126 0
1.3029 0.58715 0
0.971714 0.395779 0
0.529233 0.443105 0
1.39191 0.546667 0
1.37083 0.738079 0
1.49332 0.611056 0
2.05278 0.894559 0
2.05331 0.105787 0
4.17374 0.835307 0
3.71978 0.385921 0
2.6721 0.725706 0
1.04669 0.533866 0
1.03275 0.719079 0
4.45574 0.806072 0
2.29194 0.618089 0
2.82163 0.118405 0
2.82163 0.881595 0
1.85435 0.911616 0
1.85401 0.0891174 0
1.54418 0.210074 0
3.90593 0.628546 0
3.89225 0.358172 0
1.90398 0.740168 0
1.89936 0.262378 0
0.998458 0.269385 0
0.361332 0.902906 0
1.53216 0.784652 0
4.22554 0.339354 0
1.80399 0.348899 0
1.22456 0.0874216 0
4.1292 0.560922 0
1.48094 0.394543 0
1.21041 0.447958 0
1.69129 0.477173 0
2.14492 0.271978 0
2.55261 0.900729 0
2.55157 0.098959 0
0.82374 0.367681 0
0.695474 0.663229 0
2.59737 0.420797 0
1.8973 0.53155 0
0.736076 0.794657 0
1.22436 0.913802 0
0.822384 0.615444 0
0.360752 0.0899626 0
0.525083 0.921926 0
1.4463 0.917923 0
0.96296 0.07717 0
1.99631 0.601932 0
1.45 0.0781716 0
0.674849 0.326051 0
0.23806 0.642462 0
4.38876 0.647917 0
1.06627 0.204802 0
1.12406 0.578834 0
0.451347 0.192256 0
4.82952 0.382579 0
1.45736 0.716757 0
0.595246 0.792912 0
3.17135 0.298883 0
0.565906 0.581767 0
2.02313 0.774883 0
2.02788 0.229451 0
0.225026 0.295213 0
2.77661 0.593804 0
1.21199 0.538431 0
1.98514 0.397813 0
0.840494 0.27405 0
0.447012 0.790269 0
1.65295 0.924 0
1.65465 0.0765277 0
0.850796 0.707558 0
0.973087 0.916245 0
0.196376 0.715842 0
0.529664 0.0735585 0
3.2634 0.105129 0
3.26264 0.89583 0
0.736266 0.201309 0
4.47675 0.334364 0
0.816992 0.920547 0
2.40936 0.265571 0
2.41264 0.724168 0
1.11904 0.393039 0
0.599431 0.207212 0
2.29353 0.362255 0
0.512635 0.689922 0
4.62452 0.849074 0
1.61984 0.732178 0
0.810439 0.0807266 0
0.0718795 0.645557 0
2.18553 0.0899436 0
2.18423 0.910904 0
0.19629 0.918402 0
1.08474 0.802794 0
1.23858 0.194963 0
1.70745 0.759978 0
1.45603 0.313345 0
0.566092 0.374962 0
1.39278 0.448635 0
0.510649 0.305858 0
0.184209 0.568688 0
2.66629 0.280992 0
2.2095 0.465455 0
1.14632 0.0698243 0
1.95653 0.929481 0
1.95657 0.0707346 0
0.354122 0.5336 0
0.677841 0.91807 0
0.972219 0.659562 0
1.24514 0.826875 0
1.56249 0.556203 0
2.41694 0.515436 0
3.09082 0.583699 0
3.83236 0.88266 0
3.83236 0.11734 0
1.85017 0.820004 0
1.84878 0.180789 0
1.71434 0.220994 0
0.524625 0.835279 0
3.6921 0.691084 0
0.0671952 0.348805 0
2.49317 0.603388 0
0.189585 0.0816778 0
0.676391 0.0768913 0
1.20316 0.705394 0
1.32706 0.320288 0
2.54672 0.793317 0
2.54366 0.21192 0
0.459365 0.4386 0
1.14803 0.933575 0
3.29428 0.358237 0
1.29105 0.675494 0
1.22293 0.282411 0
3.05254 0.106327 0
3.05172 0.894433 0
1.60505 0.637159 0
0.667596 0.819303 0
0.637008 0.611893 0
2.91554 0.267017 0
2.90699 0.737657 0
0.529759 0.154295 0
0.669229 0.162507 0
4.34051 0.883655 0
2.49462 0.418932 0
2.23816 0.195375 0
2.22694 0.802202 0
0.348532 0.718857 0
2.43057 0.925271 0
2.43057 0.074729 0
0.353024 0.268811 0
1.97363 0.313654 0
1.97451 0.686587 0
0.0765459 0.816713 0
1.62257 0.345203 0
4.35279 0.110503 0
1.7308 0.301812 0
2.12261 0.736642 0
0.173062 0.412568 0
4.13304 0.438263 0
1.37535 0.923702 0
2.79848 0.352614 0
1.87171 0.443103 0
1.73155 0.557581 0
1.83325 0.678965 0
1.11541 0.658338 0
0.733759 0.726818 0
3.54939 0.896501 0
3.54939 0.103499 0
3.3777 0.0874012 0
3.3777 0.912599 0
3.58674 0.40733 0
1.34475 0.200483 0
2.72029 0.464917 0
4.2134 0.671441 0
2.68507 0.0840881 0
2.68504 0.918424 0
3.1612 0.699913 0
0.288791 0.814817 0
1.76562 0.42774 0
2.06426 0.550573 0
0.450318 0.551067 0
0.879944 0.802295 0
0.753077 0.618139 0
4.36406 0.384776 0
4.67395 0.130438 0
1.3803 0.072737 0
0.0711221 0.175664 0
0.812016 0.83864 0
0.966853 0.328724 0
4.87293 0.677984 0
2.90136 0.527913 0
4.64401 0.560862 0
1.60373 0.49925 0
3.78308 0.619245 0
1.3275 0.798497 0
0.431015 0.342404 0
0.72158 0.284456 0
3.00261 0.397994 0
0.86382 0.490004 0
0.826951 0.542556 0
2.11544 0.633536 0
1.17933 0.778353 0
3.04769 0.209604 0
3.04546 0.785169 0
1.06346 0.271909 0
4.88445 0.867542 0
0.0633118 0.936688 0
4.0581 0.123499 0
0.748634 0.357014 0
0.292307 0.172943 0
0.435605 0.642627 0
0.8274 0.437776 0
0.873024 0.189937 0
0.0622663 0.0622663 0
0.576049 0.730427 0
2.3546 0.818732 0
2.35675 0.174697 0
1.47024 0.243687 0
4.89852 0.104315 0
0.744119 0.0552951 0
0.747246 0.942495 0
0.799243 0.150177 0
0.448255 0.941504 0
1.8309 0.572662 0
2.12173 0.351684 0
3.40254 0.729189 0
3.40394 0.281168 0
2.72799 0.177918 0
2.73333 0.824014 0
0.166144 0.259955 0
2.99122 0.590771 0
2.95022 0.931489 0
2.95022 0.0685107 0
3.29891 0.654748 0
0.775458 0.254839 0
2.23428 0.296941 0
3.66137 0.27569 0
1.75655 0.694332 0
1.26235 0.328586 0
0.371471 0.454453 0
1.75277 0.941367 0
1.75262 0.059546 0
2.23131 0.559012 0
0.627364 0.362201 0
0.449243 0.0515068 0
CELLS 941 3764
3 252 516 108
3 220 333 50
3 233 149 468
3 50 333 49
3 220 233 468
3 108 516 203
3 193 398 358
3 358 130 291
3 84 322 184
3 384 84 184
3 123 194 357
3 139 375 308
3 105 194 388
3 164 266 296
3 193 358 291
3 358 398 122
3 168 299 338
3 169 339 300
3 132 265 203
3 174 439 215
3 105 361 194
3 338 299 428
3 339 427 300
3 107 258 328
3 122 287 403
3 399 12 234
3 11 12 399
3 198 403 287
3 177 408 401
3 109 248 240
3 123 420 194
3 124 360 200
3 115 329 450
3 87 369 224
3 56 270 285
3 110 230 359
3 132 203 246
3 290 363 54
3 4 228 75
3 177 277 408
3 109 262 202
3 109 202 263
3 215 439 244
3 118 211 362
3 105 379 361
3 29 367 284
3 70 283 368
3 54 363 53
3 114 296 266
3 134 443 241
3 135 242 444
3 258 350 328
3 107 383 247
3 124 200 376
3 165 371 230
3 170 209 398
3 108 203 265
3 107 487 211
3 150 438 343
3 134 263 202
3 122 398 209
3 170 316 209
3 122 403 358
3 123 357 404
3 180 359 230
3 107 246 383
3 426 147 213
3 138 205 458
3 75 228 346
3 56 57 270
3 87 88 369
3 158 200 360
3 148 206 315
3 147 321 214
3 230 371 409
3 192 361 379
3 194 420 388
3 147 332 213
3 152 345 197
3 134 259 443
3 135 444 260
3 22 212 306
3 243 422 433
3 163 228 303
3 48 333 261
3 6 337 231
3 204 289 441
3 163 216 346
3 164 347 217
3 40 41 260
3 58 59 259
3 139 280 375
3 99 249 235
3 134 202 275
3 119 442 191
3 15 190 351
3 400 190 15
3 77 319 210
3 155 221 269
3 6 279 90
3 152 197 302
3 89 232 369
3 107 211 423
3 107 247 487
3 52 363 233
3 111 441 289
3 1 24 237
3 18 218 365
3 81 356 205
3 176 310 238
3 118 345 211
3 87 224 302
3 41 391 260
3 58 259 390
3 240 248 389
3 122 209 287
3 119 191 348
3 185 450 329
3 154 436 210
3 48 49 333
3 138 349 205
3 171 297 270
3 172 271 298
3 183 284 367
3 182 368 283
3 132 235 249
3 81 205 349
3 163 372 216
3 52 53 363
3 143 221 475
3 159 212 462
3 130 422 243
3 140 416 293
3 141 292 415
3 156 337 206
3 6 95 337
3 170 388 420
3 127 300 305
3 166 277 280
3 137 463 239
3 208 293 416
3 207 415 292
3 103 280 277
3 28 29 284
3 70 71 283
3 138 458 236
3 146 270 297
3 145 298 271
3 18 324 218
3 172 298 286
3 202 262 447
3 204 370 289
3 143 475 229
3 112 286 298
3 144 489 218
3 150 317 438
3 99 100 249
3 153 278 229
3 135 447 262
3 143 269 221
3 174 215 412
3 126 216 372
3 115 450 307
3 154 334 303
3 143 229 278
3 108 340 256
3 186 272 379
3 88 89 369
3 137 250 463
3 179 305 300
3 136 232 429
3 206 414 315
3 186 456 272
3 6 231 279
3 158 327 200
3 24 347 237
3 163 346 228
3 154 210 471
3 189 358 403
3 188 404 357
3 77 210 436
3 86 87 302
3 164 296 237
3 182 433 422
3 108 265 340
3 472 108 213
3 213 108 426
3 98 99 235
3 8 245 97
3 238 310 469
3 22 462 212
3 90 279 374
3 159 448 212
3 124 376 213
3 147 214 332
3 151 359 309
3 155 385 236
3 45 46 257
3 136 429 245
3 130 243 291
3 37 352 226
3 62 227 353
3 123 378 316
3 10 399 239
3 110 481 230
3 167 308 375
3 154 281 334
3 219 378 437
3 105 388 291
3 142 257 461
3 112 275 286
3 118 395 345
3 161 241 446
3 160 445 242
3 179 343 438
3 164 217 394
3 156 206 362
3 197 345 395
3 163 303 364
3 155 320 221
3 133 405 231
3 136 224 369
3 148 491 206
3 141 437 378
3 223 415 474
3 152 423 211
3 146 285 270
3 136 369 232
3 219 316 378
3 209 449 341
3 19 20 264
3 193 291 388
3 142 461 261
3 106 223 467
3 152 211 345
3 145 251 304
3 126 392 216
3 127 217 393
3 113 282 412
3 132 434 265
3 112 225 297
3 112 298 225
3 127 394 217
3 137 239 399
3 129 416 222
3 144 218 324
3 55 56 285
3 114 238 308
3 128 479 336
3 45 257 431
3 106 437 223
3 124 213 332
3 144 253 489
3 137 399 234
3 17 18 365
3 211 487 362
3 68 69 254
3 30 31 255
3 166 280 282
3 9 101 250
3 140 341 222
3 152 302 454
3 160 352 445
3 161 446 353
3 139 282 280
3 474 415 128
3 226 336 479
3 43 44 251
3 79 80 268
3 162 366 235
3 282 387 412
3 55 285 419
3 164 237 347
3 187 467 223
3 98 235 366
3 181 304 251
3 145 225 298
3 146 297 225
3 154 303 228
3 153 229 314
3 142 220 468
3 161 502 241
3 160 242 503
3 171 390 259
3 172 260 391
3 186 519 243
3 106 449 437
3 111 269 288
3 231 405 279
3 21 22 306
3 73 517 294
3 26 295 518
3 160 336 226
3 37 226 410
3 62 411 227
3 195 384 413
3 106 341 449
3 153 253 465
3 187 223 474
3 159 237 296
3 129 222 507
3 215 244 514
3 4 323 228
3 96 429 232
3 224 454 302
3 143 288 269
3 143 273 288
3 142 333 220
3 214 321 521
3 180 309 359
3 220 466 233
3 181 431 257
3 198 287 505
3 216 517 346
3 217 347 518
3 103 277 342
3 146 225 307
3 10 11 399
3 138 236 289
3 50 466 220
3 458 119 348
3 219 437 449
3 140 222 416
3 187 474 240
3 143 278 273
3 183 311 339
3 137 256 340
3 110 273 278
3 155 236 348
3 149 290 329
3 128 240 474
3 18 19 324
3 216 294 517
3 217 518 295
3 154 228 323
3 91 327 485
3 139 308 238
3 275 447 286
3 187 240 389
3 72 73 294
3 26 27 295
3 154 323 436
3 9 250 397
3 115 307 435
3 173 397 250
3 77 78 319
3 236 458 348
3 19 264 324
3 115 435 304
3 138 289 370
3 162 350 245
3 136 454 224
3 132 246 377
3 136 245 350
3 185 329 290
3 95 414 337
3 96 232 483
3 89 483 232
3 81 82 356
3 236 385 289
3 206 337 414
3 149 233 363
3 108 472 252
3 138 268 349
3 203 383 246
3 139 238 469
3 1 237 326
3 144 264 330
3 327 473 485
3 117 339 311
3 52 233 482
3 145 484 251
3 177 342 277
3 157 376 374
3 97 245 429
3 37 38 352
3 61 62 353
3 159 326 237
3 243 519 291
3 162 245 366
3 159 462 326
3 12 321 234
3 161 227 453
3 200 374 376
3 209 316 449
3 160 226 352
3 161 353 227
3 137 234 486
3 165 330 264
3 30 255 367
3 69 368 254
3 144 301 253
3 132 377 235
3 178 317 325
3 165 230 330
3 150 272 456
3 185 419 285
3 129 480 416
3 128 415 479
3 184 413 384
3 151 288 273
3 209 341 287
3 145 271 484
3 156 231 337
3 145 435 225
3 10 239 490
3 186 243 477
3 128 336 240
3 107 328 246
3 116 338 428
3 192 379 272
3 162 235 377
3 138 370 268
3 311 421 512
3 119 318 442
3 117 427 339
3 150 325 317
3 80 349 268
3 253 301 465
3 115 460 267
3 147 486 321
3 8 366 245
3 80 81 349
3 134 241 502
3 135 503 242
3 124 332 417
3 156 457 231
3 489 344 125
3 180 274 309
3 175 268 370
3 151 273 359
3 137 506 250
3 147 426 256
3 68 254 424
3 31 425 255
3 133 231 457
3 239 463 490
3 255 425 493
3 254 492 424
3 144 330 301
3 109 240 407
3 102 490 463
3 44 431 251
3 140 505 287
3 181 251 431
3 100 397 249
3 120 401 408
3 114 430 238
3 213 376 472
3 34 35 292
3 64 65 293
3 180 230 409
3 253 344 489
3 234 321 486
3 181 257 355
3 42 484 271
3 153 344 253
3 151 342 331
3 183 421 311
3 191 320 348
3 149 329 267
3 96 97 429
3 155 269 385
3 60 446 443
3 39 444 445
3 212 448 371
3 176 238 430
3 111 288 331
3 241 443 446
3 242 445 444
3 144 324 264
3 208 508 293
3 207 292 509
3 134 396 259
3 156 362 487
3 173 249 397
3 166 282 334
3 142 261 333
3 103 309 274
3 113 303 334
3 113 334 282
3 214 417 332
3 305 438 455
3 131 357 361
3 115 267 329
3 152 258 423
3 47 261 461
3 134 502 263
3 135 262 503
3 179 438 305
3 155 348 320
3 129 389 453
3 137 486 256
3 151 331 288
3 248 510 453
3 140 287 341
3 133 457 383
3 157 405 252
3 36 37 410
3 62 63 411
3 246 328 377
3 106 467 341
3 43 251 484
3 194 361 357
3 135 260 513
3 108 256 426
3 42 43 484
3 32 33 313
3 66 67 312
3 142 355 257
3 171 259 396
3 117 272 343
3 141 378 504
3 510 161 453
3 248 453 389
3 137 340 506
3 109 510 248
3 247 383 457
3 83 84 384
3 114 308 373
3 222 341 467
3 503 407 160
3 216 392 294
3 217 295 393
3 162 328 350
3 154 471 281
3 156 487 457
3 107 423 258
3 182 283 338
3 183 339 284
3 113 412 364
3 136 350 258
3 4 76 323
3 173 250 506
3 150 343 272
3 121 371 448
3 262 407 503
3 109 263 510
3 233 466 482
3 142 468 267
3 132 249 434
3 157 472 376
3 195 413 318
3 215 364 412
3 33 451 313
3 66 312 452
3 136 258 454
3 84 85 322
3 157 252 472
3 165 264 380
3 175 406 268
3 47 495 261
3 51 482 466
3 59 443 259
3 40 260 444
3 34 292 451
3 65 452 293
3 12 13 321
3 116 325 477
3 196 344 314
3 173 340 265
3 159 276 448
3 103 274 375
3 167 375 274
3 173 434 249
3 188 493 425
3 189 424 492
3 247 457 487
3 177 331 342
3 212 371 306
3 103 342 309
3 221 320 476
3 142 267 355
3 42 271 391
3 57 390 270
3 114 494 296
3 166 334 281
3 325 456 477
3 168 338 283
3 169 284 339
3 110 278 465
3 20 380 264
3 79 268 406
3 109 407 262
3 202 447 275
3 110 359 273
3 147 256 486
3 267 460 355
3 139 469 387
3 35 509 292
3 64 293 508
3 199 313 451
3 198 452 312
3 1 326 23
3 153 314 344
3 208 416 480
3 207 479 415
3 15 16 400
3 164 394 266
3 172 513 260
3 101 463 250
3 113 364 303
3 101 102 463
3 46 461 257
3 171 270 390
3 172 391 271
3 152 454 258
3 301 330 481
3 22 23 462
3 46 47 461
3 14 15 351
3 48 261 495
3 201 418 400
3 167 276 373
3 148 335 491
3 121 409 371
3 114 266 430
3 74 75 346
3 24 25 347
3 218 489 498
3 157 374 279
3 180 515 274
3 111 385 269
3 149 363 290
3 71 381 283
3 28 284 382
3 131 512 421
3 175 370 478
3 41 42 391
3 57 58 390
3 254 368 422
3 255 421 367
3 86 302 499
3 229 488 314
3 134 275 396
3 177 401 441
3 176 430 266
3 76 77 436
3 151 309 342
3 199 378 404
3 157 279 405
3 103 375 280
3 176 266 432
3 121 276 402
3 166 408 277
3 203 516 383
3 167 274 402
3 27 28 382
3 71 72 381
3 167 402 276
3 114 373 494
3 168 283 381
3 169 382 284
3 146 450 285
3 90 520 91
3 123 404 378
3 166 281 408
3 111 289 385
3 204 478 370
3 167 373 308
3 139 387 282
3 117 501 272
3 173 265 434
3 149 267 468
3 189 312 424
3 188 425 313
3 240 336 407
3 29 30 367
3 69 70 368
3 293 452 505
3 292 504 451
3 112 470 275
3 110 465 301
3 67 424 312
3 32 313 425
3 190 400 418
3 205 464 458
3 196 485 473
3 193 388 398
3 8 98 366
3 20 21 380
3 50 51 466
3 59 60 443
3 39 40 444
3 219 449 316
3 178 440 500
3 165 306 371
3 185 285 450
3 120 408 281
3 121 448 276
3 218 498 365
3 244 500 440
3 192 272 501
3 168 294 392
3 169 393 295
3 197 322 499
3 21 306 380
3 159 494 276
3 204 441 401
3 170 398 388
3 72 294 381
3 27 382 295
3 513 447 135
3 168 392 299
3 169 300 393
3 74 346 517
3 25 518 347
3 168 381 294
3 169 295 382
3 54 419 290
3 91 520 327
3 126 299 392
3 127 393 300
3 165 380 306
3 133 516 405
3 13 521 321
3 141 415 437
3 197 499 302
3 158 354 473
3 185 290 419
3 54 55 419
3 92 485 314
3 210 319 386
3 172 286 513
3 153 465 278
3 286 447 513
3 118 335 395
3 205 356 464
3 119 464 318
3 3 482 51
3 252 405 516
3 199 504 378
3 9 397 100
3 94 459 315
3 223 437 415
3 210 386 471
3 78 79 406
3 120 281 471
3 85 499 322
3 3 52 482
3 174 469 310
3 130 492 422
3 131 421 493
3 197 395 322
3 254 422 492
3 255 493 421
3 214 521 351
3 196 511 344
3 93 320 459
3 94 315 414
3 5 483 89
3 5 96 483
3 104 500 439
3 126 440 299
3 67 68 424
3 31 32 425
3 171 470 297
3 184 395 335
3 2 48 495
3 44 45 431
3 0 490 102
3 0 10 490
3 175 386 319
3 93 476 320
3 163 364 372
3 94 414 95
3 145 304 435
3 176 305 455
3 196 314 485
3 160 407 336
3 38 39 445
3 60 61 446
3 195 318 464
3 92 314 488
3 215 372 364
3 178 299 440
3 105 291 519
3 33 34 451
3 65 66 452
3 176 432 305
3 179 300 427
3 120 471 386
3 124 417 360
3 2 495 47
3 123 316 420
3 184 322 395
3 191 315 459
3 198 312 403
3 199 404 313
3 14 351 521
3 178 428 299
3 127 305 432
3 244 439 500
3 182 338 433
3 162 377 328
3 189 403 312
3 188 313 404
3 354 511 473
3 112 297 470
3 141 504 292
3 140 293 505
3 125 344 511
3 104 439 310
3 116 477 433
3 191 459 320
3 63 64 508
3 35 36 509
3 25 26 518
3 73 74 517
3 175 319 406
3 78 406 319
3 225 435 307
3 176 455 310
3 16 17 496
3 82 83 497
3 159 296 494
3 13 14 521
3 104 455 438
3 93 459 94
3 85 86 499
3 190 360 417
3 110 301 481
3 243 433 477
3 174 412 387
3 148 442 318
3 148 318 413
3 201 354 418
3 182 422 368
3 183 367 421
3 115 304 460
3 177 441 331
3 170 420 316
3 174 310 439
3 146 307 450
3 7 476 93
3 158 360 418
3 181 460 304
3 104 438 317
3 117 343 427
3 91 485 92
3 7 92 488
3 119 458 464
3 173 506 340
3 148 413 335
3 125 498 489
3 104 310 455
3 133 383 516
3 215 514 372
3 178 325 428
3 76 436 323
3 178 500 317
3 266 394 432
3 120 386 478
3 214 351 417
3 126 372 514
3 275 470 396
3 158 418 354
3 191 442 315
3 127 432 394
3 190 417 351
3 179 427 343
3 116 428 325
3 120 478 401
3 227 480 453
3 190 418 360
3 184 335 413
3 111 331 441
3 117 311 501
3 104 317 500
3 125 354 498
3 118 491 335
3 129 453 480
3 150 456 325
3 230 481 330
3 116 433 338
3 23 326 462
3 148 315 442
3 121 402 515
3 192 501 311
3 192 311 512
3 181 355 460
3 195 497 384
3 121 515 409
3 201 498 354
3 38 445 352
3 61 353 446
3 201 400 496
3 195 356 497
3 175 478 386
3 195 464 356
3 158 473 327
3 171 396 470
3 200 327 520
3 118 362 491
3 198 505 452
3 199 451 504
3 276 494 373
3 189 492 358
3 188 357 493
3 161 510 502
3 83 384 497
3 82 497 356
3 16 496 400
3 130 358 492
3 131 493 357
3 263 502 510
3 125 511 354
3 90 374 520
3 186 477 456
3 206 491 362
3 201 365 498
3 201 496 365
3 192 512 361
3 174 387 469
3 129 507 389
3 208 411 508
3 207 509 410
3 222 467 507
3 131 361 512
3 63 508 411
3 36 410 509
3 187 507 467
3 105 519 379
3 17 365 496
3 204 401 478
3 226 479 410
3 227 411 480
3 186 379 519
3 207 410 479
3 208 480 411
3 187 389 507
3 200 520 374
3 7 488 475
3 274 515 402
3 126 514 440
3 244 440 514
3 7 475 476
3 180 409 515
3 229 475 488
3 221 476 475
3 196 473 511
CELL_TYPES 941
5
5
5
5
5
5
5
5
5
5
5
5
5
5
5
5
5
5
5
5
5
5
5
5
5
5
5
5
5
5
5
5
5
5
5
5
5
5
5
5
5
5
5
5
5
5
5
5
5
5
5
5
5
5
5
5
5
5
5
5
5
5
5
5
5
5
5
5
5
5
5
5
5
5
5
5
5
5
5
5
5
5
5
5
5
5
5
5
5
5
5
5
5
5
5
5
5
5
5
5
5
5
5
5
5
5
5
5
5
5
5
5
5
5
5
5
5
5
5
5
5
5
5
5
5
5
5
5
5
5
5
5
5
5
5
5
5
5
5
5
5
5
5
5
5
5
5
5
5
5
5
5
5
5
5
5
5
5
5
5
5
5
5
5
5
5
5
5
5
5
5
5
5
5
5
5
5
5
5
5
5
5
5
5
5
5
5
5
5
5
5
5
5
5
5
5
5
5
5
5
5
5
5
5
5
5
5
5
5
5
5
5
5
5
5
5
5
5
5
5
5
5
5
5
5
5
5
5
5
5
5
5
5
5
5
5
5
5
5
5
5
5
5
5
5
5
5
5
5
5
5
5
5
5
5
5
5
5
5
5
5
5
5
5
5
5
5
5
5
5
5
5
5
5
5
5
5
5
5
5
5
5
5
5
5
5
5
5
5
5
5
5
5
5
5
5
5
5
5
5
5
5
5
5
5
5
5
5
5
5
5
5
5
5
5
5
5
5
5
5
5
5
5
5
5
5
5
5
5
5
5
5
5
5
5
5
5
5
5
5
5
5
5
5
5
5
5
5
5
5
5
5
5
5
5
5
5
5
5
5
5
5
5
5
5
5
5
5
5
5
5
5
5
5
5
5
5
5
5
5
5
5
5
5
5
5
5
5
5
5
5
5
5
5
5
5
5
5
5
5
5
5
5
5
5
5
5
5
5
5
5
5
5
5
5
5
5
5
5
5
5
5
5
5
5
5
5
5
5
5
5
5
5
5
5
5
5
5
5
5
5
5
5
5
5
5
5
5
5
5
5
5
5
5
5
5
5
5
5
5
5
5
5
5
5
5
5
5
5
5
5
5
5
5
5
5
5
5
5
5
5
5
5
5
5
5
5
5
5
5
5
5
5
5
5
5
5
5
5
5
5
5
5
5
5
5
5
5
5
5
5
5
5
5
5
5
5
5
5
5
5
5
5
5
5
5
5
5
5
5
5
5
5
5
5
5
5
5
5
5
5
5
5
5
5
5
5
5
5
5
5
5
5
5
5
5
5
5
5
5
5
5
5
5
5
5
5
5
5
5
5
5
5
5
5
5
5
5
5
5
5
5
5
5
5
5
5
5
5
5
5
5
5
5
5
5
5
5
5
5
5
5
5
5
5
5
5
5
5
5
5
5
5
5
5
5
5
5
5
5
5
5
5
5
5
5
5
5
5
5
5
5
5
5
5
5
5
5
5
5
5
5
5
5
5
5
5
5
5
5
5
5
5
5
5
5
5
5
5
5
5
5
5
5
5
5
5
5
5
5
5
5
5
5
5
5
5
5
5
5
5
5
5
5
5
5
5
5
5
5
5
5
5
5
5
5
5
5
5
5
5
5
5
5
5
5
5
5
5
5
5
5
5
5
5
5
5
5
5
5
5
5
5
5
5
5
5
5
5
5
5
5
5
5
5
5
5
5
5
5
5
5
5
5
5
5
5
5
5
5
5
5
5
5
5
5
5
5
5
5
5
5
5
5
5
5
5
5
5
5
5
5
5
5
5
5
5
5
5
5
5
5
5
5
5
5
5
5
5
5
5
5
5
5
5
5
5
5
5
5
5
5
5
5
5
5
5
5
5
5
5
5
5
5
5
5
5
5
5
5
5
5
5
5
5
5
5
5
5
5
5
5
5
5
5
5
5
5
5
5
5
5
5
5
5
5
5
5
5
5
5
5
5
5
5
5
5
5
5
5
5
5
5
5
5
5
5
5
5
5
5
5
5
5
5
5
5
5
5
5
5
5
5
5
5
5
5
5
5
5
5
5
5
5
5
5
5
5
5
5
5
5
5
5
5
5
5
5
5
5
5
5
5
5
5
5
5
5
5
5
5
5
5
5
5
5
5
5
5
5
5
5
5
5
5
5
5
5
5
5
5
POINT_DATA 522
SCALARS scalars float 1
LOOKUP_TABLE default
-69.535538644317000
-49.134185391233039
-0.183820646249372
-0.128409691442232
-49.132712054697343
-69.491378515724179
-64.237202675701070
-57.417133181979210
-71.564716680987871
-71.569358410445858
-69.043853612538527
-67.979880802995339
-66.716598800548169
-65.246525686509344
-63.917951028379221
-62.320878354797692
-60.690849008571135
-59.226190354280213
-57.636194681053070
-56.197689907606090
-54.631014231797515
-53.314766476892544
-51.842779674293205
-50.474304176662969
-47.625308199842102
-46.253802076230414
-44.912333515221427
-43.308969331585224
-41.912098316175779
-40.205923216017844
-38.628184575319722
-36.937103958050017
-35.317810867864821
-33.454988721461476
-31.774277536354873
-29.701478364097394
-27.995039425901027
-25.930268043466107
-23.870559315366453
-21.862942030736079
-19.800517378916915
-17.351759145736999
-15.181229284572151
-12.913178823812055
-10.245264422020485
-8.039745803576933
-5.218000749642069
-2.643871658920321
-0.003939754469174
0.000120239598639
0.000745098538757
-0.005923970977360
-2.683816509558882
-5.312613417238196
-7.958469705948263
-10.259764809636458
-12.784496601554718
-15.306771698035080
-17.368919945466377
-19.805650845288351
-21.867707668724389
-23.876552575385258
-25.931910734001647
-27.994453171101071
-29.701465692841875
-31.780727335118648
-33.448558852094948
-35.319152522605847
-36.936908104559500
-38.630981852820817
-40.205573311764439
-41.912614617064847
-43.311042681719812
-44.913637789960823
-46.255306834508332
-47.625462748570222
-50.483423613949327
-51.863566656724650
-53.334539552712336
-54.643148636521715
-56.200656324849255
-57.671195225143336
-59.234953838500751
-60.687660427206140
-62.316265100187231
-63.897867415710110
-65.227900639850347
-66.712861328563150
-67.979631722575945
-69.020032881820640
-63.182708699752567
-60.675864971110407
-58.338727070750089
-58.351287339723626
-60.659400996954609
-63.187366886318635
-69.936822958345942
-70.753380489799298
-72.062355684006121
-72.253845584645632
-72.060666665746822
-70.767475144788392
-69.913717003247896
-51.844412227427050
-44.899260113024745
-37.882720068710078
-30.727034918642357
-66.610789916961878
-66.601056310872281
-23.728606246307518
-55.220835067388471
-55.397999490324217
-16.841497051474708
-48.503789500312919
-48.376147395851930
-10.184502321318847
-41.393043209230058
-41.358425288883062
-63.729499579949369
-59.033140762568010
-52.258454322018146
-52.050927521768493
-34.385882470379968
-34.769985446336356
-63.711568916653654
-58.880421883167280
-45.001865796619846
-44.994794195862092
-27.383715787934030
-27.763408600524127
-38.037125649143228
-37.849361640989848
-68.761113869242195
-65.647426902766284
-20.647799407664454
-20.569220946208983
-68.260117854830384
-68.305312615063485
-56.492766042133439
-49.076655913440483
-30.967915599408713
-30.967270520437648
-4.905449319990667
-56.383948400431230
-56.560535139564948
-13.244271362395919
-13.296936967877180
-65.913801111254770
-61.460180503103651
-6.061779531671384
-42.321673879169644
-54.163987957839169
-65.955242886805394
-57.298342223868460
-50.219301397762024
-57.381254068617068
-64.471499577710688
-64.559187510349361
-61.373389558630258
-50.020071504619601
-23.963846068256156
-23.975662118133780
-69.269697111296381
-47.078920727398419
-47.076755952905472
-54.012551881765177
-50.595171820383996
-50.558557427074767
-42.888255692032359
-42.887232972985743
-34.743224249244797
-16.920546596963558
-17.163079722747739
-69.362075252849451
-46.986764905848446
-53.946756786501986
-46.351355893135803
-53.089872223597837
-43.529779317135620
-43.471066723414005
-53.267631482380338
-9.100207888154973
-40.344463266940160
-40.242179254883325
-62.183134037843814
-9.779920667396912
-40.042066487187299
-28.132932096032775
-35.836217742867859
-35.836366945339364
-62.227881102098493
-59.269287249982405
-39.391969627927125
-36.584476526499905
-36.512474061676627
-60.090834653713337
-59.151290667623663
-64.625862123911418
-33.099915815389700
-33.201287576394805
-62.799731544523823
-60.202779905529702
-21.304850861361462
-67.281495917686939
-54.374059363776482
-57.718084841696260
-62.824808676388081
-28.786173233737681
-28.786641212093922
-33.316032664032448
-51.698271020956597
-65.282257675961432
-51.587483558872840
-65.258603172621704
-64.667161618097467
-46.483508566669194
-45.512671105485595
-45.544128028662712
-57.811744305121401
-32.330689709265386
-2.947894967792137
-57.196194290188906
-29.504201800221885
-29.503815433308976
-67.052194605895451
-14.099323057426870
-25.934155890776932
-26.001146385371662
-48.544632709060778
-57.182876976815436
-54.119961466768025
-64.564645590440833
-69.012349660348846
-3.267889918352038
-67.158924044220726
-70.298853845817774
-57.138792632178415
-48.481226672817876
-47.778476832427572
-68.968662303474161
-26.168588141253220
-21.853639437028143
-21.848831816161290
-39.272902048651623
-45.276496228733713
-69.777313999909808
-67.599988355991670
-65.860412906525497
-25.335178201704160
-70.252392159210032
-69.727691313975896
-11.503197657630132
-65.718185393369154
-57.158017402568319
-37.842034968879894
-37.841229258048280
-67.134958570488934
-6.890246015626484
-67.247971173440817
-18.613338067687696
-18.872761878473721
-2.843831398225206
-22.167740541346841
-22.455893734500961
-55.283156810603082
-68.041881798236531
-46.918124138919730
-7.301002625331375
-55.283412137185714
-56.245504975976210
-14.758069654750486
-14.940881234157178
-40.815302574286399
-55.229252704018144
-51.891116005711936
-18.949595582803020
-50.588233498249991
-51.786986050048846
-56.242646203829928
-64.383450879915699
-50.554999594671052
-50.865939389071940
-49.152345371769819
-41.377994352108793
-41.369714691217808
-11.660608808064014
-18.082749807862861
-32.744679712077328
-55.239693387648984
-55.574234275796215
-7.683327378093002
-38.041352966498927
-30.647602087184215
-30.648029221456092
-44.138976786184244
-44.142456181408967
-48.447086286406957
-15.459050827302091
-15.650769714484987
-43.446433419457328
-43.509743329390588
-56.042304324687997
-65.865175983979483
-48.618477204210031
-10.942124574439440
-44.834650897397246
-52.925518178441003
-12.301591697001555
-49.321793728704606
-53.047637176219723
-46.400609491158512
-40.088457137334949
-34.413753082529432
-34.429048020954028
-58.257083942287224
-60.776231319416517
-33.785249388754558
-43.536167362547879
-60.133146116700217
-52.944098619568067
-58.306492263421198
-65.885250746542226
-63.480575000436467
-49.835789444306641
-56.694019487955750
-42.158554310139259
-49.779851366978789
-61.241365709548951
-68.022752615552349
-8.629718175116539
-55.133159307220510
-54.229263561699184
-64.718298131160608
-2.402268582609135
-49.657990053492966
-62.482535475009790
-25.773501830159336
-63.761899592025799
-41.787199056260924
-41.720286551559582
-68.100113424805642
-31.285314300384631
-53.028269882480835
-42.313690080873748
-58.336515214104175
-64.783549952218351
-46.925958024282551
-46.901415610944966
-58.193792185142918
-56.557671983533375
-68.477666230265086
-63.424864757251214
-24.479248067682544
-24.492966464790044
-60.118875539437866
-7.385615681195477
-58.924089899690969
-36.407027196451466
-36.361332353799625
-54.296511675636324
-62.422835109620010
-38.019058684632014
-64.029761513781324
-5.292814012604744
-47.396922000857096
-59.007164092451255
-70.592544013404506
-39.517700370101103
-39.536473589980332
-68.014079759305659
-54.894078822218631
-52.711248570636776
-46.178946948963635
-49.670689597330067
-63.575003433877683
-50.541453536977514
-64.093088421110224
-68.952122722902260
-32.825448761008374
-39.189305005527622
-54.034054528535982
-42.728072165805735
-42.726452694294913
-66.485650073848475
-61.078518919635236
-56.351091937353225
-52.635307721115311
-48.190431754078027
-36.299937468008686
-26.898853378806258
-16.517704720798811
-16.492916407978147
-44.195901957754110
-44.213929240772451
-46.081875434571565
-63.550599400245758
-18.480755565868005
-70.654840378345398
-35.238093582473624
-68.104616493263052
-61.099934099958517
-53.191887909009601
-51.459163515016762
-34.494140165680655
-34.536730000739247
-65.126778268843367
-54.025839427724982
-24.056253263307102
-51.964751086408207
-52.909167934425142
-27.442215262241231
-27.454720032113460
-47.600901043032025
-61.268032051376487
-62.291880381740974
-29.348104301630176
-29.468179198902643
-63.483003967575399
-61.239691285584733
-9.307001008881654
-35.217679246816687
-38.789364369908064
-38.946209972694163
-66.315050089215518
-36.118900834532738
-36.118664785575085
-66.250118214482526
-42.474985466370725
-42.463272593207293
-69.732978954846459
-47.355883335052354
-9.151100465810922
-45.852641406839716
-40.399820197848527
-69.112011251936650
-12.248486905058751
-50.817314707900351
-30.979743958227868
-43.892195407127900
-45.841595724754910
-44.428872336685949
-54.384861426051188
-60.121422724144502
-20.519558509124874
-20.511750101248719
-22.907712165751906
-22.911900913824137
-19.956286533844320
-51.228119284622643
-32.070711929005178
-11.109387018134317
-32.575938272657496
-32.577866235742228
-25.916764328976672
-66.983256141588015
-45.367618990394298
-41.212029525641547
-65.208835854259291
-57.883833144118185
-59.394359928211429
-8.981521816063736
-4.581733418792404
-50.740936196831157
-69.765849891747948
-58.959376150212726
-56.405450938696760
-1.799102450947936
-29.543885791835287
-5.024569128912268
-47.617285479939646
-17.194242512591497
-51.477587913664614
-65.303998532548604
-60.300190186647555
-28.130020915148521
-57.331982502161750
-57.696863530592687
-40.499560599231565
-53.547558767825890
-27.501681168313937
-27.533649973939220
-55.130571980890373
-1.611524289780523
-69.325617015424399
-13.321016735897039
-59.512533415635865
-66.929150182018176
-65.238447563186085
-57.689877011946791
-57.968169407991880
-69.336144711040646
-62.899078724103163
-37.169077177187781
-37.138881808869577
-49.476643056281723
-1.403259428167918
-60.053271490239574
-60.013906911692928
-59.142328310444071
-64.617506815721043
-44.460287732167551
-40.411761980974042
-22.549045755241039
-22.525383351064669
-31.970350394501175
-31.896499660988049
-68.850423853532035
-28.289715175170240
-28.865471490166243
-28.864897516597146
-23.993283748851649
-59.401992594768423
-38.844108910959442
-18.908007793607180
-45.496015299849816
-52.353649259843024
-66.251463998122915
-45.559563113866659
-45.559947370596731
-38.885659896969919
-62.434582467173968
-64.618343944278976
