# vtk DataFile Version 3.0
    
ASCII
DATASET UNSTRUCTURED_GRID
POINTS 526 float
0 0 0
1.5 0 0
5 0 0
5 1 0
1.5 1 0
0 1 0
0.6 0.5 0
0.8 0.5 0
0 0.7 0
0 0.3 0
0.1 0 0
0.2 0 0
0.3 0 0
0.4 0 0
0.5 0 0
0.6 0 0
0.7 0 0
0.8 0 0
0.9 0 0
1 0 0
1.1 0 0
1.2 0 0
1.3 0 0
1.4 0 0
1.5984 0 0
1.69956 0 0
1.80357 0 0
1.91051 0 0
2.02044 0 0
2.13347 0 0
2.24968 0 0
2.36916 0 0
2.49199 0 0
2.61828 0 0
2.74812 0 0
2.8816 0 0
3.01884 0 0
3.15994 0 0
3.30501 0 0
3.45415 0 0
3.60749 0 0
3.76514 0 0
3.92722 0 0
4.09385 0 0
4.26518 0 0
4.44131 0 0
4.6224 0 0
4.80858 0 0
5 0.2 0
5 0.4 0
5 0.6 0
5 0.8 0
4.80858 1 0
4.6224 1 0
4.44131 1 0
4.26518 1 0
4.09385 1 0
3.92722 1 0
3.76514 1 0
3.60749 1 0
3.45415 1 0
3.30501 1 0
3.15994 1 0
3.01884 1 0
2.8816 1 0
2.74812 1 0
2.61828 1 0
2.49199 1 0
2.36916 1 0
2.24968 1 0
2.13347 1 0
2.02044 1 0
1.91051 1 0
1.80357 1 0
1.69956 1 0
1.5984 1 0
1.4 1 0
1.3 1 0
1.2 1 0
1.1 1 0
1 1 0
0.9 1 0
0.8 1 0
0.7 1 0
0.6 1 0
0.5 1 0
0.4 1 0
0.3 1 0
0.2 1 0
0.1 1 0
0.629289 0.429289 0
0.7 0.4 0
0.770711 0.429289 0
0.770711 0.570711 0
0.7 0.6 0
0.629289 0.570711 0
0 0.9 0
0 0.8 0
0 0.6 0
0 0.5 0
0 0.4 0
0 0.2 0
0 0.1 0
1.2986 0.498108 0
1.79939 0.500465 0
2.30343 0.491251 0
2.81671 0.477713 0
0.337838 0.345049 0
0.33978 0.617224 0
3.31781 0.509336 0
1.03761 0.632887 0
1.04183 0.357652 0
3.80803 0.5 0
1.54422 0.693331 0
1.55268 0.310468 0
4.27911 0.50419 0
2.05142 0.687753 0
2.05386 0.317132 0
0.518379 0.228578 0
1.27363 0.74255 0
1.27667 0.244274 0
0.523565 0.772983 0
0.801786 0.769924 0
0.800974 0.230813 0
2.55451 0.690565 0
2.52694 0.319616 0
1.79215 0.750069 0
1.79259 0.245488 0
3.05619 0.311105 0
3.02905 0.6794 0
2.29236 0.734717 0
2.30581 0.256416 0
0.194101 0.507028 0
0.419638 0.492341 0
3.53844 0.708061 0
3.54375 0.281746 0
0.196179 0.809317 0
0.190776 0.186786 0
1.51382 0.493343 0
2.79946 0.752591 0
2.79946 0.247409 0
0.971807 0.827166 0
0.971831 0.172962 0
4.65228 0.355556 0
0.952432 0.500582 0
4.0631 0.304799 0
4.05903 0.688209 0
0.366523 0.811783 0
0.362653 0.186121 0
4.57093 0.686248 0
1.98466 0.49244 0
0.491035 0.621293 0
1.1274 0.500796 0
0.657328 0.254533 0
0.898047 0.654131 0
0.898047 0.345869 0
0.65301 0.745358 0
1.42309 0.828699 0
1.42309 0.171301 0
3.30122 0.233003 0
3.30057 0.77179 0
0.500338 0.37914 0
0.157052 0.34662 0
1.64263 0.834224 0
1.64811 0.157709 0
1.39326 0.638348 0
1.39424 0.369489 0
0.171492 0.64832 0
1.9446 0.841231 0
1.9446 0.158769 0
1.15328 0.853087 0
1.1533 0.146973 0
2.52877 0.502704 0
3.80326 0.746235 0
3.78507 0.246563 0
1.64864 0.560947 0
1.68507 0.387099 0
1.21144 0.366782 0
1.19402 0.632266 0
1.89792 0.628235 0
1.90209 0.361465 0
4.35614 0.254554 0
2.12655 0.833069 0
2.13385 0.171681 0
4.30765 0.761339 0
2.14838 0.553906 0
0.60839 0.879301 0
0.605625 0.123931 0
3.00255 0.5 0
2.45078 0.169359 0
2.45078 0.830641 0
2.19506 0.373669 0
0.773312 0.68526 0
0.775017 0.318894 0
2.39666 0.620831 0
2.40182 0.37089 0
0.735246 0.121072 0
2.64697 0.830644 0
2.63968 0.167176 0
0.74076 0.876905 0
0.587467 0.672055 0
3.49087 0.523799 0
0.299248 0.527057 0
0.421642 0.278168 0
0.453187 0.123946 0
0.456738 0.876046 0
2.95609 0.165328 0
2.95609 0.834672 0
0.611496 0.318202 0
2.63114 0.568172 0
1.31584 0.878524 0
1.31584 0.121476 0
0.890947 0.879268 0
0.890947 0.120732 0
0.428485 0.727276 0
1.68543 0.670228 0
1.7522 0.8491 0
1.75726 0.140305 0
2.70179 0.376397 0
1.12978 0.26673 0
1.11648 0.737548 0
4.79118 0.554936 0
2.90437 0.629002 0
2.90437 0.370998 0
0.888594 0.429569 0
0.888594 0.570625 0
4.00224 0.497302 0
3.15988 0.167106 0
3.15525 0.834809 0
0.272822 0.888897 0
0.115526 0.884474 0
1.5393 0.892423 0
1.54989 0.115078 0
0.269719 0.109175 0
0.506293 0.52837 0
4.76874 0.769104 0
0.113399 0.576684 0
0.115951 0.421529 0
1.58379 0.415532 0
3.1432 0.451735 0
0.105599 0.738176 0
3.45306 0.827352 0
3.45306 0.172648 0
0.11332 0.11332 0
1.77228 0.625201 0
2.20361 0.666359 0
0.281868 0.438958 0
0.0963802 0.262222 0
0.400938 0.402605 0
0.924309 0.738869 0
0.924312 0.261146 0
3.20291 0.592884 0
0.285822 0.747602 0
4.18567 0.166172 0
0.408562 0.592487 0
2.30604 0.913259 0
2.30604 0.0867405 0
4.51169 0.16947 0
3.68343 0.845608 0
3.66433 0.156119 0
4.79829 0.203104 0
0.277971 0.251586 0
3.42936 0.390364 0
3.40895 0.625374 0
0.968603 0.593207 0
0.968603 0.406793 0
1.65283 0.283878 0
1.06094 0.901609 0
1.06094 0.0983908 0
4.48303 0.491408 0
3.95646 0.828603 0
3.94305 0.18254 0
2.09285 0.432697 0
1.04346 0.453275 0
3.65848 0.548046 0
1.29465 0.604305 0
1.30086 0.409572 0
0.531466 0.449419 0
1.37209 0.732932 0
1.37257 0.266443 0
1.0467 0.547907 0
2.05283 0.894557 0
2.05336 0.105789 0
1.40077 0.534508 0
4.17385 0.835315 0
1.49587 0.604914 0
3.71992 0.385918 0
2.67222 0.725708 0
4.45588 0.806091 0
2.29205 0.618092 0
1.03037 0.724045 0
1.00382 0.274296 0
2.82165 0.118398 0
2.82165 0.881602 0
1.85385 0.910497 0
1.85457 0.0879892 0
3.90606 0.628551 0
3.89238 0.358167 0
1.90404 0.740189 0
1.89941 0.262369 0
1.53748 0.782215 0
1.51735 0.22548 0
4.22562 0.339346 0
1.80094 0.350927 0
1.49102 0.391485 0
0.362558 0.906558 0
0.360697 0.092304 0
0.249442 0.601582 0
4.12933 0.560917 0
1.22501 0.914282 0
1.22502 0.0857277 0
1.70906 0.486213 0
1.20974 0.546495 0
2.14501 0.271982 0
2.55266 0.900735 0
2.55162 0.098954 0
2.59749 0.420791 0
1.8974 0.531574 0
0.822128 0.624414 0
0.822371 0.376207 0
0.696426 0.328603 0
1.45 0.0792071 0
1.45 0.920793 0
0.678679 0.670161 0
1.99641 0.601936 0
0.0780979 0.652636 0
0.568484 0.587696 0
0.53193 0.924855 0
4.3889 0.647922 0
0.733402 0.799104 0
4.82954 0.382516 0
0.731913 0.20065 0
3.17148 0.298877 0
0.444595 0.798833 0
0.443748 0.202754 0
2.0232 0.774905 0
2.02794 0.229437 0
0.972712 0.915031 0
0.972712 0.0849693 0
2.77673 0.593807 0
1.20787 0.455329 0
1.12467 0.411608 0
0.529199 0.0755813 0
1.98524 0.397799 0
0.849743 0.714141 0
0.849933 0.28678 0
1.65288 0.923667 0
1.66218 0.0768202 0
0.593189 0.201256 0
0.239151 0.345433 0
1.08055 0.209651 0
0.594614 0.799507 0
0.0738765 0.346074 0
3.26349 0.105125 0
3.26273 0.895833 0
1.0835 0.803585 0
4.47679 0.334351 0
1.1216 0.587753 0
0.812701 0.0808942 0
2.40947 0.265563 0
2.41275 0.724172 0
1.461 0.713407 0
1.45926 0.296851 0
0.202055 0.419856 0
2.29364 0.36225 0
4.62463 0.849121 0
1.62139 0.731328 0
0.511302 0.696916 0
2.18557 0.0899525 0
2.18427 0.910897 0
0.815436 0.920796 0
1.70774 0.753785 0
1.3672 0.453368 0
0.520482 0.312395 0
1.24679 0.828424 0
1.24341 0.171591 0
2.66641 0.280986 0
0.194047 0.915705 0
2.20961 0.465453 0
1.95645 0.929257 0
1.9567 0.0705094 0
0.354313 0.456491 0
0.676371 0.0789546 0
0.463441 0.435143 0
0.572362 0.38072 0
2.41706 0.515437 0
0.191431 0.0832567 0
3.09094 0.583703 0
1.5716 0.555406 0
3.83249 0.882701 0
3.83249 0.117299 0
1.85216 0.815763 0
1.84969 0.178984 0
1.70538 0.22015 0
1.14785 0.0662182 0
1.14785 0.933796 0
3.69223 0.691077 0
0.20875 0.723907 0
0.677773 0.920978 0
2.49329 0.603392 0
2.54685 0.793339 0
2.54377 0.211907 0
0.523888 0.159341 0
1.19405 0.706051 0
1.20862 0.290199 0
1.29407 0.32446 0
1.32035 0.678642 0
3.2944 0.358236 0
0.526639 0.841921 0
3.05265 0.106314 0
3.05183 0.894444 0
1.60796 0.636167 0
0.185339 0.274609 0
0.666612 0.163399 0
0.182108 0.583403 0
2.91565 0.267017 0
2.90711 0.737651 0
0.641914 0.371363 0
0.0787896 0.813481 0
4.34064 0.883698 0
0.970094 0.666463 0
0.968068 0.334064 0
0.350026 0.265231 0
2.49474 0.418929 0
2.23825 0.195368 0
2.22701 0.802216 0
2.43057 0.925251 0
2.43057 0.074749 0
1.97371 0.313641 0
1.9746 0.686604 0
0.667992 0.836859 0
1.61859 0.349244 0
1.72931 0.302061 0
4.35279 0.110495 0
2.12268 0.736659 0
4.13315 0.438262 0
0.0757557 0.181625 0
1.86908 0.446192 0
2.79861 0.352605 0
0.351799 0.705383 0
1.73237 0.557692 0
1.83333 0.67899 0
1.37779 0.925603 0
1.37779 0.0743968 0
3.54951 0.896466 0
3.54951 0.103534 0
3.37785 0.0873407 0
3.37785 0.912659 0
3.58687 0.407336 0
2.72041 0.464914 0
4.21354 0.671438 0
3.16133 0.699916 0
2.68509 0.0840739 0
2.68506 0.918444 0
0.424663 0.655947 0
0.732756 0.267201 0
1.7707 0.432349 0
0.264492 0.675775 0
2.06436 0.550579 0
4.36414 0.38477 0
4.67395 0.130442 0
1.33616 0.798964 0
1.33616 0.201036 0
0.728038 0.733961 0
0.291821 0.81889 0
4.87292 0.677971 0
2.90148 0.527913 0
4.6441 0.560853 0
1.62646 0.487089 0
3.78322 0.619241 0
0.752482 0.626703 0
0.752482 0.373297 0
0.874959 0.801081 0
0.874289 0.199339 0
3.00274 0.397992 0
0.289317 0.177637 0
0.809548 0.84118 0
0.863473 0.500129 0
2.11555 0.63354 0
3.04783 0.20959 0
3.04559 0.785175 0
0.807678 0.158917 0
0.749971 0.0511189 0
0.448512 0.549413 0
4.88448 0.867574 0
1.13061 0.330751 0
0.826838 0.552447 0
0.826856 0.447631 0
0.0636864 0.936314 0
4.05816 0.123464 0
0.0619189 0.0619189 0
2.35468 0.818745 0
2.35682 0.174699 0
0.437728 0.346953 0
4.89854 0.104301 0
1.11415 0.66617 0
1.60103 0.225638 0
1.831 0.572711 0
2.12183 0.351681 0
3.40266 0.729187 0
3.40407 0.281171 0
2.72807 0.177926 0
2.73341 0.823994 0
0.450064 0.947997 0
2.99134 0.59077 0
0.573991 0.737364 0
2.95022 0.931473 0
2.95022 0.0685275 0
0.628812 0.625546 0
0.746794 0.943736 0
3.29904 0.654748 0
0.0705751 0.500873 0
2.23439 0.296934 0
0.449496 0.0525715 0
3.6615 0.275683 0
1.07447 0.288879 0
1.75819 0.695655 0
1.43738 0.451732 0
0.374103 0.536918 0
1.17681 0.783139 0
1.75217 0.940039 0
1.75433 0.0583009 0
2.23142 0.559012 0
1.17687 0.216671 0
1.25534 0.672763 0
0.580175 0.262993 0
CELLS 949 3796
3 221 330 50
3 254 108 518
3 467 235 149
3 50 330 49
3 221 235 467
3 108 202 518
3 194 399 360
3 404 405 177
3 360 130 289
3 125 195 359
3 405 276 177
3 105 195 385
3 107 246 349
3 194 360 289
3 399 124 360
3 168 298 335
3 169 336 299
3 175 440 215
3 105 364 195
3 335 298 429
3 336 428 299
3 124 287 400
3 220 290 495
3 386 12 233
3 132 202 307
3 246 363 349
3 197 400 287
3 109 251 239
3 110 495 290
3 125 423 195
3 115 328 450
3 87 377 229
3 56 270 284
3 11 12 386
3 365 54 288
3 132 246 202
3 215 440 244
3 84 327 186
3 109 262 201
3 109 201 263
3 157 361 300
3 158 301 362
3 398 84 186
3 382 187 15
3 187 342 15
3 105 378 364
3 107 203 493
3 29 368 282
3 70 281 369
3 53 54 365
3 134 444 241
3 135 242 445
3 107 248 381
3 172 209 399
3 87 88 377
3 150 437 343
3 134 263 201
3 124 399 209
3 172 316 209
3 124 400 360
3 125 359 401
3 132 236 511
3 220 355 290
3 56 57 270
3 132 511 237
3 107 381 246
3 107 493 248
3 4 231 75
3 1 24 232
3 191 364 378
3 195 423 385
3 134 258 444
3 135 445 259
3 245 425 434
3 153 320 208
3 48 330 260
3 77 309 210
3 22 211 310
3 163 216 346
3 164 347 217
3 40 41 259
3 58 59 258
3 134 201 274
3 192 323 470
3 157 278 361
3 158 362 279
3 18 213 358
3 148 306 204
3 6 326 234
3 118 373 203
3 147 205 305
3 422 148 203
3 52 365 235
3 148 334 203
3 141 212 472
3 142 473 213
3 41 390 259
3 58 258 389
3 239 251 387
3 107 422 203
3 124 209 287
3 151 326 200
3 75 231 346
3 24 347 232
3 184 450 328
3 48 49 330
3 173 296 270
3 174 271 297
3 148 204 334
3 147 333 205
3 103 283 275
3 165 275 283
3 89 230 377
3 183 282 368
3 182 369 281
3 163 231 300
3 81 370 212
3 6 277 90
3 157 442 210
3 158 211 443
3 163 371 216
3 108 307 202
3 52 53 365
3 8 240 97
3 139 416 293
3 140 292 415
3 130 425 245
3 121 214 367
3 192 463 323
3 164 496 232
3 123 193 455
3 232 496 301
3 207 293 416
3 206 415 292
3 144 477 224
3 144 225 477
3 127 299 303
3 172 385 423
3 28 29 282
3 70 71 281
3 146 270 296
3 145 297 271
3 156 200 323
3 174 297 286
3 201 262 448
3 133 383 234
3 132 307 414
3 112 286 297
3 150 317 437
3 81 212 337
3 18 338 213
3 135 448 262
3 122 463 192
3 208 320 417
3 138 238 468
3 175 215 411
3 126 216 371
3 115 450 308
3 185 272 378
3 154 225 264
3 155 265 224
3 6 234 277
3 180 303 299
3 100 237 511
3 144 224 265
3 144 264 225
3 185 458 272
3 6 95 326
3 122 192 344
3 123 345 193
3 136 230 418
3 10 386 243
3 156 505 200
3 141 337 212
3 142 213 338
3 190 360 400
3 189 401 359
3 182 434 425
3 157 210 461
3 158 462 211
3 151 200 367
3 77 210 442
3 22 443 211
3 138 468 388
3 234 383 277
3 176 468 238
3 45 46 257
3 118 203 334
3 130 245 289
3 37 353 227
3 62 228 354
3 99 100 511
3 141 472 249
3 142 250 473
3 125 376 316
3 136 418 240
3 121 333 214
3 136 377 230
3 218 376 438
3 88 89 377
3 105 385 289
3 9 101 247
3 160 241 447
3 159 446 242
3 143 257 460
3 112 274 286
3 137 436 243
3 136 229 377
3 87 229 305
3 164 217 393
3 180 343 437
3 163 346 231
3 164 232 347
3 140 438 376
3 223 415 474
3 146 284 270
3 218 316 376
3 209 449 339
3 152 312 357
3 194 289 385
3 165 283 285
3 143 460 260
3 106 223 466
3 137 247 436
3 138 285 283
3 145 253 302
3 97 240 418
3 126 391 216
3 127 217 392
3 147 439 214
3 153 208 525
3 96 418 230
3 112 226 296
3 112 297 226
3 127 393 217
3 114 238 304
3 176 311 468
3 129 416 222
3 19 20 268
3 79 80 267
3 154 318 225
3 155 224 319
3 128 479 332
3 55 56 284
3 45 257 433
3 106 438 223
3 144 280 264
3 68 69 255
3 30 31 256
3 147 214 333
3 111 273 265
3 154 420 249
3 155 250 421
3 139 339 222
3 159 353 446
3 160 447 354
3 474 415 128
3 10 11 386
3 227 332 479
3 147 305 464
3 137 386 233
3 43 44 253
3 55 284 419
3 12 306 233
3 90 277 384
3 144 273 280
3 137 243 386
3 17 18 358
3 181 302 253
3 188 466 223
3 145 226 297
3 146 296 226
3 143 221 467
3 160 499 241
3 159 242 500
3 173 389 258
3 174 259 390
3 185 522 245
3 106 449 438
3 113 285 411
3 144 265 273
3 157 300 231
3 158 232 301
3 73 520 294
3 26 295 521
3 159 332 227
3 132 237 363
3 37 227 409
3 62 410 228
3 215 244 516
3 106 339 449
3 188 223 474
3 129 222 504
3 229 464 305
3 221 465 235
3 143 330 221
3 110 264 280
3 181 433 257
3 98 511 236
3 216 520 346
3 217 347 521
3 197 287 502
3 146 226 308
3 285 388 411
3 167 325 236
3 167 397 240
3 148 475 306
3 162 363 237
3 50 465 221
3 77 78 309
3 21 22 310
3 136 240 397
3 138 304 238
3 167 240 325
3 218 438 449
3 139 222 416
3 203 373 493
3 188 474 239
3 183 313 336
3 103 340 276
3 163 300 366
3 149 288 328
3 128 239 474
3 216 294 520
3 217 521 295
3 96 230 488
3 89 488 230
3 188 239 387
3 274 448 286
3 72 73 294
3 26 27 295
3 102 243 436
3 115 308 435
3 108 454 439
3 118 334 402
3 115 435 302
3 162 237 352
3 81 82 370
3 4 322 231
3 1 232 321
3 233 306 475
3 184 328 288
3 178 357 312
3 94 470 323
3 161 373 384
3 149 235 365
3 141 249 290
3 142 291 250
3 157 231 322
3 158 321 232
3 202 246 381
3 117 336 313
3 121 408 333
3 136 464 229
3 204 402 334
3 145 489 253
3 52 235 484
3 208 384 373
3 214 454 367
3 37 38 353
3 61 62 354
3 162 352 247
3 245 522 289
3 472 122 344
3 473 345 123
3 114 362 301
3 113 300 361
3 160 228 451
3 86 87 305
3 152 280 273
3 120 405 404
3 142 268 350
3 19 268 338
3 80 337 267
3 209 316 449
3 137 233 475
3 205 333 408
3 159 227 353
3 160 354 228
3 100 352 237
3 30 256 368
3 69 369 255
3 157 322 442
3 158 443 321
3 96 97 418
3 151 234 326
3 179 317 324
3 154 249 344
3 155 345 250
3 184 419 284
3 150 272 458
3 141 355 267
3 133 234 483
3 129 480 416
3 128 415 479
3 249 472 344
3 250 345 473
3 209 339 287
3 137 261 412
3 145 271 489
3 177 276 340
3 141 290 355
3 132 414 236
3 108 254 454
3 145 435 226
3 185 245 478
3 199 398 430
3 128 332 239
3 142 350 291
3 18 19 338
3 80 81 337
3 250 291 421
3 249 420 290
3 141 267 337
3 142 338 268
3 191 378 272
3 116 335 429
3 152 341 340
3 98 99 511
3 313 424 512
3 98 236 325
3 171 350 268
3 178 312 275
3 151 483 234
3 167 236 414
3 117 428 336
3 150 324 317
3 9 247 352
3 10 243 490
3 102 490 243
3 115 459 269
3 134 241 499
3 135 500 242
3 170 267 355
3 8 325 240
3 12 13 306
3 101 436 247
3 68 255 426
3 31 427 256
3 109 239 407
3 256 427 492
3 255 491 426
3 44 433 253
3 181 253 433
3 139 502 287
3 34 35 292
3 64 65 293
3 114 431 238
3 151 367 454
3 181 257 356
3 103 275 312
3 42 489 271
3 147 252 439
3 183 424 313
3 149 328 269
3 152 273 341
3 214 439 454
3 133 248 383
3 152 357 280
3 60 447 444
3 39 445 446
3 241 444 447
3 242 446 445
3 176 238 431
3 162 349 363
3 207 506 293
3 206 292 507
3 134 396 258
3 114 304 362
3 143 260 330
3 148 422 261
3 162 247 412
3 151 254 483
3 107 349 261
3 137 412 247
3 133 381 248
3 303 437 456
3 131 359 364
3 115 269 328
3 101 102 436
3 47 260 460
3 291 350 515
3 180 437 303
3 134 499 263
3 135 262 500
3 129 387 451
3 132 363 246
3 251 510 451
3 139 287 339
3 36 37 409
3 62 63 410
3 106 466 339
3 111 341 273
3 261 349 412
3 43 253 489
3 195 364 359
3 135 259 514
3 42 43 489
3 156 351 505
3 143 356 257
3 32 33 315
3 66 67 314
3 196 413 382
3 173 258 396
3 117 272 343
3 192 318 344
3 193 345 319
3 140 376 501
3 186 430 398
3 510 160 451
3 136 252 464
3 251 451 387
3 109 510 251
3 222 339 466
3 500 407 159
3 216 391 294
3 217 295 392
3 182 281 335
3 183 336 282
3 113 411 366
3 137 475 261
3 123 455 331
3 150 343 272
3 262 407 500
3 235 465 484
3 109 263 510
3 143 467 269
3 107 261 422
3 177 340 341
3 83 84 398
3 204 306 513
3 154 344 318
3 155 319 345
3 215 366 411
3 157 461 278
3 158 279 462
3 33 452 315
3 66 314 453
3 496 164 393
3 103 312 340
3 51 484 465
3 47 494 260
3 59 444 258
3 40 259 445
3 34 292 452
3 65 453 293
3 165 285 361
3 116 324 478
3 170 395 267
3 171 268 394
3 266 496 393
3 113 361 285
3 161 493 373
3 200 326 508
3 189 492 427
3 190 426 491
3 156 323 463
3 178 403 495
3 114 496 266
3 143 269 356
3 42 271 390
3 57 389 270
3 151 454 254
3 324 458 478
3 168 335 281
3 169 282 336
3 15 16 382
3 1 321 23
3 4 76 322
3 136 397 252
3 110 420 264
3 111 265 421
3 109 407 262
3 166 362 304
3 201 448 274
3 79 267 395
3 20 394 268
3 122 329 463
3 14 15 342
3 269 459 356
3 147 464 252
3 35 507 292
3 64 293 506
3 187 382 413
3 198 315 452
3 197 453 314
3 177 485 404
3 110 280 357
3 205 503 305
3 84 85 327
3 207 416 480
3 206 479 415
3 103 276 372
3 166 372 276
3 8 98 325
3 174 514 259
3 108 439 457
3 213 473 481
3 46 460 257
3 211 462 375
3 210 374 461
3 153 525 348
3 165 361 278
3 166 279 362
3 225 318 486
3 224 487 319
3 173 270 389
3 174 390 271
3 76 77 442
3 22 23 443
3 148 261 475
3 120 404 523
3 161 383 493
3 46 47 460
3 48 260 494
3 119 519 403
3 114 266 431
3 74 75 346
3 24 25 347
3 252 457 439
3 149 365 288
3 220 495 403
3 71 379 281
3 28 282 380
3 131 512 424
3 113 366 300
3 161 384 277
3 255 369 425
3 256 424 368
3 41 42 390
3 57 58 389
3 248 493 383
3 199 430 329
3 134 274 396
3 176 431 266
3 178 275 524
3 219 404 485
3 119 374 519
3 120 523 375
3 210 309 374
3 211 375 310
3 198 376 401
3 176 266 432
3 165 406 275
3 152 340 312
3 202 381 518
3 27 28 380
3 71 72 379
3 168 281 379
3 169 380 282
3 9 352 100
3 103 372 283
3 166 276 405
3 154 264 420
3 155 421 265
3 146 450 284
3 125 401 376
3 166 405 279
3 165 278 406
3 94 508 95
3 161 277 383
3 117 498 272
3 213 481 358
3 190 314 426
3 189 427 315
3 149 269 467
3 120 375 462
3 119 461 374
3 239 332 407
3 29 30 368
3 69 70 369
3 120 279 405
3 119 406 278
3 110 290 420
3 111 421 291
3 293 453 502
3 292 501 452
3 166 304 517
3 112 469 274
3 67 426 314
3 32 315 427
3 194 385 399
3 138 388 285
3 205 327 503
3 50 51 465
3 59 60 444
3 39 40 445
3 218 449 316
3 179 441 497
3 184 284 450
3 114 301 496
3 95 508 326
3 244 497 441
3 191 272 498
3 168 294 391
3 169 392 295
3 72 294 379
3 27 380 295
3 172 399 385
3 514 448 135
3 168 391 298
3 169 299 392
3 74 346 520
3 25 521 347
3 168 379 294
3 169 295 380
3 54 419 288
3 94 323 508
3 126 298 391
3 127 392 299
3 212 476 472
3 78 79 395
3 20 21 394
3 119 278 461
3 120 462 279
3 140 415 438
3 184 288 419
3 54 55 419
3 220 519 355
3 174 286 514
3 286 448 514
3 219 350 523
3 85 503 327
3 170 374 309
3 171 310 375
3 3 484 51
3 198 501 376
3 138 283 517
3 223 438 415
3 93 318 470
3 92 471 319
3 167 307 457
3 118 402 348
3 3 52 484
3 91 320 471
3 170 355 519
3 130 491 425
3 131 424 492
3 196 331 413
3 171 523 350
3 255 425 491
3 256 492 424
3 13 513 306
3 5 488 89
3 5 96 488
3 78 395 309
3 21 310 394
3 204 513 342
3 90 384 417
3 171 394 310
3 170 309 395
3 104 497 440
3 126 441 298
3 67 68 426
3 31 32 427
3 173 469 296
3 2 48 494
3 212 370 476
3 44 45 433
3 86 305 503
3 163 366 371
3 0 490 102
3 0 10 490
3 91 417 320
3 166 517 372
3 121 351 408
3 90 417 91
3 176 303 456
3 145 302 435
3 93 486 318
3 92 319 487
3 187 348 402
3 219 515 350
3 159 407 332
3 38 39 446
3 60 61 447
3 215 371 366
3 105 289 522
3 179 298 441
3 33 34 452
3 65 66 453
3 176 432 303
3 180 299 428
3 2 494 47
3 125 316 423
3 205 408 327
3 197 314 400
3 198 401 315
3 179 429 298
3 127 303 432
3 192 470 318
3 193 319 471
3 182 335 434
3 244 440 497
3 190 400 314
3 189 315 401
3 14 342 513
3 193 471 320
3 112 296 469
3 140 501 292
3 139 293 502
3 122 476 329
3 104 440 311
3 116 478 434
3 63 64 506
3 35 36 507
3 25 26 521
3 73 74 520
3 186 408 351
3 226 435 308
3 111 291 515
3 175 411 388
3 153 348 413
3 176 456 311
3 82 83 509
3 16 17 482
3 104 456 437
3 85 86 503
3 13 14 513
3 245 434 478
3 186 327 408
3 123 481 473
3 208 417 384
3 182 425 369
3 183 368 424
3 91 471 92
3 93 470 94
3 167 414 307
3 108 457 307
3 115 302 459
3 172 423 316
3 175 311 440
3 153 413 331
3 146 308 450
3 204 342 402
3 123 331 481
3 181 459 302
3 104 437 317
3 117 343 428
3 7 92 487
3 7 486 93
3 199 329 476
3 187 402 342
3 167 457 397
3 138 517 304
3 175 468 311
3 156 329 430
3 104 311 456
3 133 518 381
3 215 516 371
3 162 412 349
3 179 324 429
3 177 341 485
3 187 413 348
3 179 497 317
3 266 393 432
3 178 495 357
3 126 371 516
3 274 469 396
3 196 481 331
3 127 432 393
3 180 428 343
3 116 429 324
3 156 430 351
3 76 442 322
3 23 321 443
3 193 320 455
3 228 480 451
3 122 472 476
3 175 388 468
3 153 331 455
3 156 463 329
3 117 313 498
3 104 317 497
3 196 382 482
3 129 451 480
3 150 458 324
3 116 434 335
3 153 455 320
3 119 403 524
3 119 524 406
3 191 498 313
3 191 313 512
3 283 372 517
3 186 351 430
3 181 356 459
3 38 446 353
3 61 354 447
3 16 482 382
3 200 508 323
3 118 348 525
3 173 396 469
3 111 485 341
3 133 483 518
3 196 358 481
3 199 509 398
3 197 502 453
3 198 452 501
3 196 482 358
3 252 397 457
3 190 491 360
3 189 359 492
3 254 518 483
3 160 510 499
3 199 370 509
3 199 476 370
3 121 505 351
3 130 360 491
3 131 492 359
3 263 499 510
3 200 505 367
3 110 357 495
3 219 523 404
3 185 478 458
3 83 398 509
3 191 512 364
3 17 358 482
3 220 403 519
3 129 504 387
3 207 410 506
3 206 507 409
3 118 525 373
3 222 466 504
3 121 367 505
3 63 506 410
3 36 409 507
3 131 364 512
3 82 509 370
3 188 504 466
3 105 522 378
3 227 479 409
3 228 410 480
3 208 373 525
3 170 519 374
3 171 375 523
3 185 378 522
3 206 409 479
3 207 480 410
3 188 387 504
3 7 477 486
3 7 487 477
3 126 516 441
3 244 441 516
3 178 524 403
3 275 406 524
3 225 486 477
3 224 477 487
3 111 515 485
3 219 485 515
CELL_TYPES 949
5
5
5
5
5
5
5
5
5
5
5
5
5
5
5
5
5
5
5
5
5
5
5
5
5
5
5
5
5
5
5
5
5
5
5
5
5
5
5
5
5
5
5
5
5
5
5
5
5
5
5
5
5
5
5
5
5
5
5
5
5
5
5
5
5
5
5
5
5
5
5
5
5
5
5
5
5
5
5
5
5
5
5
5
5
5
5
5
5
5
5
5
5
5
5
5
5
5
5
5
5
5
5
5
5
5
5
5
5
5
5
5
5
5
5
5
5
5
5
5
5
5
5
5
5
5
5
5
5
5
5
5
5
5
5
5
5
5
5
5
5
5
5
5
5
5
5
5
5
5
5
5
5
5
5
5
5
5
5
5
5
5
5
5
5
5
5
5
5
5
5
5
5
5
5
5
5
5
5
5
5
5
5
5
5
5
5
5
5
5
5
5
5
5
5
5
5
5
5
5
5
5
5
5
5
5
5
5
5
5
5
5
5
5
5
5
5
5
5
5
5
5
5
5
5
5
5
5
5
5
5
5
5
5
5
5
5
5
5
5
5
5
5
5
5
5
5
5
5
5
5
5
5
5
5
5
5
5
5
5
5
5
5
5
5
5
5
5
5
5
5
5
5
5
5
5
5
5
5
5
5
5
5
5
5
5
5
5
5
5
5
5
5
5
5
5
5
5
5
5
5
5
5
5
5
5
5
5
5
5
5
5
5
5
5
5
5
5
5
5
5
5
5
5
5
5
5
5
5
5
5
5
5
5
5
5
5
5
5
5
5
5
5
5
5
5
5
5
5
5
5
5
5
5
5
5
5
5
5
5
5
5
5
5
5
5
5
5
5
5
5
5
5
5
5
5
5
5
5
5
5
5
5
5
5
5
5
5
5
5
5
5
5
5
5
5
5
5
5
5
5
5
5
5
5
5
5
5
5
5
5
5
5
5
5
5
5
5
5
5
5
5
5
5
5
5
5
5
5
5
5
5
5
5
5
5
5
5
5
5
5
5
5
5
5
5
5
5
5
5
5
5
5
5
5
5
5
5
5
5
5
5
5
5
5
5
5
5
5
5
5
5
5
5
5
5
5
5
5
5
5
5
5
5
5
5
5
5
5
5
5
5
5
5
5
5
5
5
5
5
5
5
5
5
5
5
5
5
5
5
5
5
5
5
5
5
5
5
5
5
5
5
5
5
5
5
5
5
5
5
5
5
5
5
5
5
5
5
5
5
5
5
5
5
5
5
5
5
5
5
5
5
5
5
5
5
5
5
5
5
5
5
5
5
5
5
5
5
5
5
5
5
5
5
5
5
5
5
5
5
5
5
5
5
5
5
5
5
5
5
5
5
5
5
5
5
5
5
5
5
5
5
5
5
5
5
5
5
5
5
5
5
5
5
5
5
5
5
5
5
5
5
5
5
5
5
5
5
5
5
5
5
5
5
5
5
5
5
5
5
5
5
5
5
5
5
5
5
5
5
5
5
5
5
5
5
5
5
5
5
5
5
5
5
5
5
5
5
5
5
5
5
5
5
5
5
5
5
5
5
5
5
5
5
5
5
5
5
5
5
5
5
5
5
5
5
5
5
5
5
5
5
5
5
5
5
5
5
5
5
5
5
5
5
5
5
5
5
5
5
5
5
5
5
5
5
5
5
5
5
5
5
5
5
5
5
5
5
5
5
5
5
5
5
5
5
5
5
5
5
5
5
5
5
5
5
5
5
5
5
5
5
5
5
5
5
5
5
5
5
5
5
5
5
5
5
5
5
5
5
5
5
5
5
5
5
5
5
5
5
5
5
5
5
5
5
5
5
5
5
5
5
5
5
5
5
5
5
5
5
5
5
5
5
5
5
5
5
5
5
5
5
5
5
5
5
5
5
5
5
5
5
5
5
5
5
5
5
5
5
5
5
5
5
5
5
5
5
5
5
5
5
5
5
5
5
5
5
5
5
5
5
5
5
5
5
5
5
5
5
5
5
5
5
5
5
5
5
5
5
5
5
5
5
5
5
5
5
5
5
5
5
5
5
5
5
5
5
5
5
5
5
5
5
5
5
5
5
5
5
5
5
5
5
5
5
5
5
5
5
5
5
5
5
5
5
5
5
5
5
5
5
5
5
5
5
5
5
5
5
5
5
5
5
5
5
5
5
5
POINT_DATA 526
SCALARS scalars float 1
LOOKUP_TABLE default
-0.362421414548907
-0.168896149898938
-0.000404969831424
-0.000310150885939
-0.168848565741262
-0.362404368678122
-0.641337508087995
-0.123310329044240
-0.364104630960431
-0.364101884121147
-0.357772280349577
-0.352910467855887
-0.356077969115705
-0.362190687938005
-0.348387677571091
-0.268747657668320
-0.197513941450158
-0.175527421153060
-0.180363122286124
-0.182553628247683
-0.183890339147536
-0.182229396136085
-0.178379505428340
-0.173827308877198
-0.162748532067344
-0.157343672664741
-0.151548783923423
-0.145022602661167
-0.139164561833218
-0.132442930106531
-0.126200859147762
-0.119752605338734
-0.113614488385780
-0.106908318069645
-0.100844865080874
-0.093821586091249
-0.087841802239100
-0.081103363697177
-0.074322091096123
-0.067994515392044
-0.061322100511189
-0.053799296985657
-0.046831399799168
-0.039793799831207
-0.031697832719226
-0.024887684757215
-0.016143417369446
-0.008835412223348
-0.000200407356658
-0.000124010296184
-0.000255671237566
-0.000393980297984
-0.008809807118110
-0.016278030349665
-0.024632969619491
-0.031846167509558
-0.039515246438460
-0.047117671740289
-0.053702204021718
-0.061303535956837
-0.067940373911106
-0.074312432134099
-0.081114201151544
-0.087869795834480
-0.093832419361495
-0.100865153811943
-0.106878824458106
-0.113641685729233
-0.119775991417157
-0.126222359145782
-0.132411312160248
-0.139131909424152
-0.145000588992175
-0.151564227705737
-0.157357989617612
-0.162835104803244
-0.173839456748669
-0.178392364778332
-0.182261117954998
-0.183907845428577
-0.182596553090201
-0.180318426796340
-0.175795399034243
-0.198050833953952
-0.269199158865511
-0.348573699046692
-0.362081983415898
-0.356029698210124
-0.352818347308116
-0.357723321184870
-0.393950769316727
-0.137713709122765
-0.088998293935794
-0.086674069857818
-0.151847699511538
-0.349122812564477
-0.362419475158637
-0.363053319204578
-0.365089533753792
-0.365217108291449
-0.365104826852478
-0.363105694671524
-0.362441304195352
-0.176248525701207
-0.150527552770873
-0.122553001164481
-0.096703628511821
-0.331780341654575
-0.328289609698474
-0.073694005251863
-0.186826474896692
-0.187349421626847
-0.052036226473725
-0.166928446909580
-0.166217048734693
-0.031543323872488
-0.137090066357516
-0.136965405639458
-0.357935989014935
-0.181160977078170
-0.181015861030832
-0.354068232832687
-0.169662228779565
-0.171218751744995
-0.110282366523199
-0.111595507828265
-0.152502716286869
-0.152593494078293
-0.085903275401191
-0.087109344985125
-0.124102902199302
-0.123410594060265
-0.351879879104660
-0.321202108017460
-0.064053246145581
-0.063833077748709
-0.353592675695459
-0.353920222464452
-0.165916081187354
-0.098314265253936
-0.098331882066410
-0.187384417877319
-0.187472281667467
-0.015347203534113
-0.175740825405475
-0.040823389516858
-0.040923287907514
-0.353365601188368
-0.352963232957105
-0.018677204650754
-0.140013353537811
-0.399819069590289
-0.181754826009762
-0.206305146932978
-0.177598434477390
-0.178453383240070
-0.205222548941243
-0.173675447433434
-0.173689014195554
-0.074722305411688
-0.074689020024932
-0.402972633885974
-0.355767318637832
-0.161232212193996
-0.160884280748873
-0.174267575044890
-0.174004088046457
-0.354466597838282
-0.143667238245339
-0.143720010107740
-0.185172207886755
-0.185066588564332
-0.110910020059028
-0.052368533508914
-0.053107001337408
-0.159194784152883
-0.157696140542932
-0.182522470787973
-0.183324381507903
-0.145586736254545
-0.145481080865773
-0.028153273317847
-0.133236101109117
-0.132896676022513
-0.030311871953906
-0.131137944036039
-0.253102473815420
-0.255602921411667
-0.087903496257168
-0.115742110232803
-0.115763309300072
-0.128735205691858
-0.149184172571566
-0.151346673417855
-0.118049369150203
-0.117713913742980
-0.186322389480474
-0.105893819171461
-0.106228995279707
-0.185054209587677
-0.338061599906637
-0.066067966986603
-0.332120766270212
-0.356982674432887
-0.355564116216728
-0.354889019635888
-0.090736746279971
-0.090752435946812
-0.287931446910901
-0.105819333085571
-0.178597041249636
-0.178552408493193
-0.185554863274405
-0.185491509727089
-0.359933796249880
-0.158313027398047
-0.154908042197853
-0.154502838467772
-0.102464361883358
-0.186631248256111
-0.187247419045344
-0.009071715965976
-0.092603233719037
-0.092799163756032
-0.165906670993223
-0.165727440579556
-0.043533919963819
-0.081077030423660
-0.081321907404194
-0.354333236116119
-0.357526737391448
-0.166973671833734
-0.166387596346701
-0.354426285972594
-0.402659129627674
-0.010520659167645
-0.359516744645397
-0.359446813343589
-0.163088637845961
-0.081395704784242
-0.358936824258524
-0.068094617949802
-0.068095470250436
-0.357654689289061
-0.152931592814550
-0.128648050674948
-0.336029453279109
-0.359417251157732
-0.328370752584565
-0.184198260309336
-0.184581681305982
-0.078713578594548
-0.345067099221641
-0.035485949597031
-0.328311266394498
-0.123384812556569
-0.123376912406657
-0.021322938793269
-0.057468549188896
-0.058295609446345
-0.008917189456009
-0.345554989271361
-0.068852757405846
-0.069736022032895
-0.182840160352863
-0.182722200604618
-0.160783867264851
-0.186556953442801
-0.186608623854407
-0.022576106894092
-0.045572146950401
-0.046211328563910
-0.134182988431086
-0.182627398690859
-0.058406958052103
-0.178184456220180
-0.177851110999384
-0.464230880782184
-0.176845496128871
-0.176809761886724
-0.182865562907150
-0.137385067079775
-0.137390704046779
-0.172029536418540
-0.036028828646245
-0.168140985783023
-0.055834881437928
-0.104265006487191
-0.023799125037368
-0.123626827134944
-0.188511674257265
-0.187930154931971
-0.097140756695952
-0.097149866632594
-0.148770515788098
-0.148752426514210
-0.047859655007873
-0.048419092005686
-0.146008929438081
-0.146215298361294
-0.167487354321373
-0.168760396215757
-0.033900250215026
-0.151458577665468
-0.168545012147938
-0.357009294416275
-0.357116168506055
-0.342820349111299
-0.037902170304888
-0.182087063539452
-0.182111737029867
-0.155609087890383
-0.179983001862896
-0.132212443253621
-0.110484837853979
-0.110519177730380
-0.107564139775725
-0.145004270525162
-0.154887772235297
-0.153720851546155
-0.163680504550482
-0.171526500979898
-0.171448845731724
-0.179616286114568
-0.139861192528417
-0.361103623729172
-0.458238528419743
-0.315357880838064
-0.026801672777224
-0.174796468894444
-0.007672205376740
-0.172865944594518
-0.080278797889755
-0.361909947324130
-0.362086295861964
-0.139151789919394
-0.138930865382965
-0.185388336983989
-0.185297101503038
-0.098818703231130
-0.180003680256388
-0.184311908003162
-0.316776710913227
-0.140469113035217
-0.175588786704644
-0.174173442056775
-0.160389582552942
-0.159866550388987
-0.275150651369572
-0.345581061761605
-0.187634720987829
-0.274243960147651
-0.361322709645572
-0.076268427690309
-0.076294055138145
-0.187453230927889
-0.022959233807744
-0.184335405897034
-0.184167510940223
-0.117714261275544
-0.117532486388391
-0.171475385178928
-0.171538748928382
-0.350377435540944
-0.123652351421447
-0.016391434438974
-0.162573418167583
-0.386075760141328
-0.130054977997598
-0.130111853023431
-0.184465961414172
-0.157577535636352
-0.173487255170459
-0.388192686202847
-0.182201070514842
-0.182259349030231
-0.104540585893755
-0.355107814305478
-0.127754842729876
-0.142872932623939
-0.142841850238472
-0.322660385086063
-0.208294966250300
-0.357432887985691
-0.397679335411166
-0.116605105688841
-0.355201575562066
-0.083924103667106
-0.163615676250334
-0.051149814683370
-0.051130699571268
-0.149124953255694
-0.149246323569619
-0.157858727241621
-0.184297593341266
-0.184241933545897
-0.057151701235338
-0.350993654555924
-0.208446483507398
-0.112867707110943
-0.110805092810222
-0.110999365677310
-0.332118772392851
-0.184421457903969
-0.183985938305067
-0.180044839777658
-0.178711796369508
-0.074831380217012
-0.330814300475428
-0.086254622041787
-0.086311754946842
-0.162408658282884
-0.353159336772588
-0.205829059803498
-0.352957563073129
-0.092423270589458
-0.092943919986792
-0.245406836235439
-0.359516418628780
-0.029074706332714
-0.187161728773257
-0.186462443018613
-0.344606499812297
-0.112796855897503
-0.127063482907211
-0.127731782700443
-0.116816587633629
-0.116808771054370
-0.141793008402854
-0.141710087902673
-0.205745204813176
-0.162101939922349
-0.155905187310864
-0.028502225503689
-0.133565472486066
-0.037690158998649
-0.359668825007093
-0.146712178927571
-0.097897766894871
-0.339211190358804
-0.154462245529588
-0.149879936445112
-0.175205004507706
-0.175201188356929
-0.063750507452888
-0.063842910754019
-0.071327343808170
-0.071286357382010
-0.061721549211783
-0.101435889687301
-0.034385565040013
-0.080748744990852
-0.103915360492912
-0.103917727825167
-0.347349209382380
-0.159437639860416
-0.152452389489404
-0.342520175489976
-0.135627841178539
-0.027745190613742
-0.014647204331447
-0.178129848342897
-0.178182058103894
-0.164357382588432
-0.350643133658609
-0.005570967533355
-0.092766147884169
-0.015875445011030
-0.160051786915141
-0.053107826810879
-0.123128379234658
-0.124275883210744
-0.181653825563397
-0.181100729125606
-0.088053181090342
-0.351044519859667
-0.178311912035981
-0.153427017538650
-0.133326993002474
-0.086349522780805
-0.086481449234444
-0.178342273822012
-0.191490052895107
-0.339885764087189
-0.004863262116072
-0.186720477941531
-0.129952452675063
-0.130118754738190
-0.359788116985906
-0.041061289299813
-0.359888001619007
-0.120970850315731
-0.120812211748794
-0.353698604152798
-0.004245056485759
-0.187113664791201
-0.163533701621057
-0.148981043152470
-0.133262007108909
-0.070122821128284
-0.070168482287727
-0.101599748816185
-0.101260511409560
-0.350887353689078
-0.088687073143647
-0.317442701146745
-0.091140984409015
-0.091145864288361
-0.268039447449954
-0.192226969980981
-0.074728356169644
-0.362370613916293
-0.127154026287106
-0.350875633500172
-0.058513465013715
-0.188016761680582
-0.154201692852018
-0.170441676243860
-0.320513666463891
-0.185313029114294
-0.154599678775359
-0.154457423328238
-0.126535912710737
-0.185359766243721
-0.181711814005148
-0.306381698894331
