# vtk DataFile Version 3.0
    
ASCII
DATASET UNSTRUCTURED_GRID
POINTS 321 float
0 2 0
0 1 0
2 1 0
2 0 0
13 0 0
13 2 0
0 1.66667 0
0 1.33333 0
0.315287 1 0
0.609272 1 0
0.883395 1 0
1.139 1 0
1.37733 1 0
1.59956 1 0
1.80678 1 0
2 0.799782 0
2 0.569499 0
2 0.304636 0
2.34375 0 0
2.6875 0 0
3.03125 0 0
3.375 0 0
3.71875 0 0
4.0625 0 0
4.40625 0 0
4.75 0 0
5.09375 0 0
5.4375 0 0
5.78125 0 0
6.125 0 0
6.46875 0 0
6.8125 0 0
7.15625 0 0
7.5 0 0
7.84375 0 0
8.1875 0 0
8.53125 0 0
8.875 0 0
9.21875 0 0
9.5625 0 0
9.90625 0 0
10.25 0 0
10.5937 0 0
10.9375 0 0
11.2812 0 0
11.625 0 0
11.9687 0 0
12.3125 0 0
12.6562 0 0
13 0.333333 0
13 0.666667 0
13 1 0
13 1.33333 0
13 1.66667 0
12.6579 2 0
12.3158 2 0
11.9737 2 0
11.6316 2 0
11.2895 2 0
10.9474 2 0
10.6053 2 0
10.2632 2 0
9.92105 2 0
9.57895 2 0
9.23684 2 0
8.89474 2 0
8.55263 2 0
8.21053 2 0
7.86842 2 0
7.52632 2 0
7.18421 2 0
6.84211 2 0
6.5 2 0
6.15789 2 0
5.81579 2 0
5.47368 2 0
5.13158 2 0
4.78947 2 0
4.44737 2 0
4.10526 2 0
3.76316 2 0
3.42105 2 0
3.07895 2 0
2.73684 2 0
2.39474 2 0
2.05263 2 0
1.71053 2 0
1.36842 2 0
1.02632 2 0
0.684211 2 0
0.342105 2 0
2.9348 0.930146 0
3.89626 0.973981 0
11.8026 1.00042 0
10.7809 1.02506 0
9.75557 0.96693 0
8.73137 0.997182 0
7.70507 0.997513 0
6.67877 0.99783 0
5.64474 1.00266 0
4.75987 1.09256 0
2.48164 1.42652 0
1.87935 1.48877 0
3.3665 1.35383 0
2.47001 0.684641 0
1.23268 1.46902 0
12.3775 1.37501 0
12.3763 0.625276 0
6.15749 0.636228 0
7.18264 0.635986 0
8.2089 0.635885 0
11.2896 1.36856 0
10.2633 1.36871 0
9.23671 0.632021 0
9.25542 1.40132 0
10.2757 0.599919 0
8.2291 1.40145 0
11.3046 0.600233 0
7.20278 1.40157 0
6.13182 1.39806 0
5.12505 0.610738 0
3.41529 0.645163 0
4.43138 0.60438 0
0.69917 1.46228 0
4.28899 1.44037 0
5.2545 1.4308 0
11.8027 1.50376 0
10.7724 1.5423 0
9.75 1.51525 0
8.70484 0.486518 0
8.72368 1.51545 0
9.7347 0.458723 0
7.69737 1.51564 0
10.7656 0.485709 0
6.67105 1.51582 0
7.67819 0.487485 0
11.7969 0.48546 0
6.65157 0.488426 0
5.64315 0.491818 0
2.84991 0.441314 0
3.92539 0.481955 0
2.93866 1.5505 0
2.36611 1.03772 0
3.82669 1.55324 0
1.5825 1.3546 0
5.74046 1.53254 0
2.14036 1.27447 0
2.24956 1.73508 0
4.7444 1.5991 0
12.5726 0.999984 0
0.393921 1.3925 0
4.75288 0.484385 0
0.99409 1.29553 0
4.3566 1.03646 0
2.29759 0.466051 0
5.19419 1.04023 0
3.29294 0.96567 0
1.93447 1.23646 0
1.56221 1.76712 0
6.01613 0.943211 0
7.04397 0.944925 0
8.07022 0.944794 0
9.09672 0.944022 0
10.1223 1.0498 0
11.1493 1.06008 0
12.1985 1 0
12.621 1.61995 0
12.6208 0.379352 0
12.1186 0.33116 0
12.1224 1.66862 0
2.81166 1.24925 0
3.18157 0.320476 0
6.95399 0.342418 0
7.98235 0.341968 0
9.01127 0.341141 0
10.0426 0.332647 0
2.57911 1.74549 0
11.0728 0.336668 0
5.92952 0.343942 0
11.0769 1.66277 0
10.0511 1.65897 0
11.4945 1.66944 0
2.22253 0.711393 0
9.02744 1.66369 0
10.4677 1.67447 0
8.00111 1.66378 0
9.44923 1.6609 0
6.97479 1.66385 0
8.42291 1.66102 0
7.39659 1.66113 0
3.2464 1.69026 0
6.37344 1.66559 0
0.470741 1.71798 0
11.4963 0.339982 0
1.25817 1.22663 0
10.4661 0.339739 0
9.42971 0.32652 0
4.20555 0.324959 0
4.84136 0.783567 0
8.38868 0.325094 0
7.36286 0.32644 0
6.33756 0.326183 0
0.999885 1.68361 0
2.19024 0.911061 0
2.55114 0.258559 0
5.33654 0.331117 0
3.0693 0.663348 0
3.6155 0.333742 0
3.59342 1.10825 0
1.70317 1.18075 0
5.05445 1.6821 0
5.98295 1.73082 0
6.35541 0.901666 0
7.37887 0.90285 0
8.40512 0.902838 0
11.5105 1.09357 0
9.43137 0.902795 0
10.4524 1.09065 0
2.62258 0.921364 0
0.745202 1.21825 0
12.0173 0.71026 0
9.54595 1.25823 0
8.51961 1.25852 0
8.91232 0.711088 0
7.49328 1.2588 0
6.46946 1.26154 0
7.88575 0.711809 0
6.85938 0.712111 0
11.6036 0.739127 0
9.95094 0.73189 0
12.6942 1.30472 0
10.5692 0.747452 0
12.032 1.28472 0
12.6942 0.695311 0
11.0031 0.732138 0
6.90217 1.27415 0
7.92811 1.27362 0
8.95445 1.27335 0
9.93529 1.28542 0
10.9489 1.31704 0
5.45657 0.724402 0
4.09626 0.708165 0
5.83018 0.71213 0
3.74109 0.687554 0
3.58543 1.67523 0
4.08987 1.62492 0
5.873 1.22607 0
5.42026 1.67906 0
3.11045 1.18751 0
2.74979 0.685019 0
3.95317 1.29971 0
4.94803 1.36869 0
5.52786 1.30502 0
1.48845 1.17237 0
4.44548 1.69831 0
1.89362 1.71826 0
5.04329 0.291572 0
4.55528 1.31652 0
4.50921 0.282745 0
2.17211 1.09578 0
1.25827 1.75682 0
2.54017 1.16921 0
10.5789 1.34971 0
11.5684 1.36343 0
0.757253 1.75637 0
2.21871 0.205165 0
5.62559 0.233376 0
6.64217 0.220403 0
7.67228 0.21809 0
11.8035 1.78058 0
10.7763 1.78769 0
9.75003 1.78023 0
8.70289 0.217496 0
8.7239 1.78067 0
7.69758 1.78076 0
9.58983 0.669813 0
6.6715 1.78117 0
9.73437 0.212594 0
10.766 0.217645 0
3.89823 0.220027 0
11.7969 0.212304 0
4.61043 0.812599 0
8.62795 0.747213 0
0.219182 1.54499 0
7.60174 0.747928 0
6.57556 0.748621 0
1.69026 1.54186 0
12.3915 0.251189 0
0.523999 1.20638 0
12.3939 1.7501 0
2.90789 1.80675 0
0.242065 1.2462 0
2.71435 1.51791 0
3.66504 1.39805 0
2.85961 0.18902 0
1.76264 1.35083 0
3.5878 0.876123 0
2.11658 1.48217 0
5.67828 1.78874 0
6.20782 1.13999 0
7.20421 1.15646 0
8.23043 1.15624 0
9.25678 1.15594 0
11.3793 0.869766 0
8.46011 0.594088 0
7.43385 0.594988 0
6.40804 0.59559 0
3.87408 1.77068 0
10.2741 0.843941 0
2.35183 1.2407 0
2.37496 0.848497 0
12.8069 1.77588 0
12.8066 0.223809 0
11.7433 1.24918 0
3.10949 1.41553 0
0.189076 1.81078 0
2.58369 0.507117 0
1.40544 1.33956 0
12.8282 1.5 0
12.8282 0.5 0
1.45523 1.53816 0
CELLS 549 2196
3 99 252 155
3 146 309 297
3 92 153 250
3 101 297 309
3 77 254 148
3 94 239 262
3 95 275 229
3 122 151 281
3 151 198 281
3 51 230 149
3 51 149 233
3 99 155 240
3 119 211 145
3 92 241 153
3 101 147 297
3 105 202 152
3 119 145 246
3 76 210 247
3 208 250 293
3 100 198 155
3 120 155 198
3 123 152 202
3 106 165 149
3 107 149 165
3 10 11 152
3 92 250 208
3 21 207 171
3 77 148 210
3 2 259 157
3 2 157 14
3 77 78 254
3 125 155 252
3 79 245 254
3 124 250 153
3 140 197 241
3 122 241 197
3 78 79 254
3 127 262 239
3 51 52 230
3 50 51 233
3 131 229 275
3 16 17 154
3 147 255 297
3 85 255 147
3 84 85 147
3 123 192 150
3 25 256 151
3 115 195 231
3 133 231 195
3 101 176 147
3 75 76 247
3 93 228 220
3 117 193 228
3 136 228 193
3 123 150 288
3 102 297 255
3 128 186 221
3 114 221 186
3 130 188 222
3 116 222 188
3 132 189 224
3 118 224 189
3 134 191 225
3 121 171 207
3 119 225 191
3 125 251 155
3 100 155 251
3 120 198 151
3 91 206 156
3 103 244 190
3 122 153 241
3 120 240 155
3 41 195 175
3 44 193 177
3 38 196 174
3 58 179 181
3 61 180 184
3 64 183 186
3 67 185 188
3 70 187 189
3 32 200 172
3 136 220 228
3 11 194 152
3 120 205 240
3 35 199 173
3 138 240 205
3 109 227 172
3 137 172 227
3 108 242 178
3 138 178 242
3 127 239 179
3 128 238 180
3 111 179 239
3 130 237 183
3 132 236 185
3 134 235 187
3 112 180 238
3 114 183 237
3 116 185 236
3 118 187 235
3 110 226 173
3 135 173 226
3 113 223 174
3 129 174 223
3 117 234 177
3 133 177 234
3 115 229 175
3 131 175 229
3 84 147 176
3 121 207 243
3 121 156 206
3 91 156 248
3 103 293 244
3 106 149 230
3 29 201 178
3 95 216 275
3 122 258 151
3 107 233 149
3 140 243 207
3 16 154 182
3 102 157 297
3 94 262 217
3 146 297 157
3 106 169 232
3 107 220 168
3 26 27 205
3 126 232 169
3 123 288 219
3 21 22 207
3 15 16 182
3 136 168 220
3 120 151 256
3 159 299 246
3 25 151 258
3 115 175 195
3 117 177 193
3 113 174 196
3 91 170 218
3 109 172 200
3 111 181 179
3 112 184 180
3 114 186 183
3 116 188 185
3 118 189 187
3 110 173 199
3 299 119 246
3 164 234 303
3 125 247 210
3 150 283 291
3 303 234 117
3 154 265 204
3 10 152 219
3 55 56 169
3 95 238 221
3 46 47 168
3 96 237 222
3 97 236 224
3 98 235 225
3 103 156 208
3 94 231 234
3 76 77 210
3 141 170 314
3 106 166 289
3 163 229 308
3 308 229 115
3 18 204 265
3 128 221 238
3 130 222 237
3 132 224 236
3 134 225 235
3 29 30 201
3 99 240 242
3 107 287 167
3 300 118 235
3 133 234 231
3 301 116 236
3 160 300 235
3 302 114 237
3 161 301 236
3 93 220 165
3 162 302 237
3 170 248 314
3 93 165 232
3 25 26 256
3 20 21 171
3 122 281 153
3 108 178 201
3 91 248 170
3 32 33 200
3 40 41 175
3 124 153 257
3 37 38 174
3 100 257 153
3 43 44 177
3 100 153 281
3 57 58 181
3 58 59 179
3 7 291 283
3 60 61 184
3 61 62 180
3 63 64 186
3 64 65 183
3 66 67 188
3 67 68 185
3 69 70 189
3 70 71 187
3 106 289 169
3 72 73 191
3 34 35 173
3 92 208 296
3 44 45 193
3 35 36 199
3 41 42 195
3 38 39 196
3 107 168 287
3 31 32 172
3 243 92 296
3 146 157 259
3 28 29 178
3 105 152 194
3 138 242 240
3 11 12 194
3 18 19 204
3 139 171 206
3 86 87 158
3 91 249 206
3 14 157 209
3 145 247 252
3 139 206 249
3 125 252 247
3 170 261 218
3 89 90 192
3 148 257 251
3 111 164 215
3 112 163 217
3 108 212 159
3 100 251 257
3 109 213 160
3 110 214 161
3 113 216 162
3 26 205 256
3 139 294 171
3 143 250 245
3 81 82 190
3 98 227 160
3 97 226 161
3 96 223 162
3 95 229 163
3 103 248 156
3 94 234 164
3 121 206 171
3 143 293 250
3 124 245 250
3 99 242 159
3 106 230 166
3 94 164 239
3 95 163 238
3 96 162 237
3 97 161 236
3 98 160 235
3 123 219 152
3 107 167 233
3 107 165 220
3 86 158 255
3 113 162 223
3 110 161 226
3 109 160 227
3 106 232 165
3 119 191 211
3 158 286 255
3 23 24 197
3 104 182 154
3 73 211 191
3 112 238 163
3 111 239 164
3 20 171 294
3 108 159 242
3 121 296 156
3 104 154 316
3 83 84 176
3 54 289 166
3 141 190 290
3 48 167 287
3 98 225 212
3 73 74 211
3 97 224 213
3 96 222 214
3 176 292 290
3 95 221 216
3 28 178 266
3 99 159 246
3 2 15 203
3 148 254 257
3 124 257 254
3 15 182 203
3 46 168 280
3 56 269 169
3 136 280 168
3 122 197 258
3 126 169 269
3 93 215 228
3 82 290 190
3 88 264 202
3 140 241 243
3 94 217 231
3 92 243 241
3 138 266 178
3 54 166 311
3 48 312 167
3 88 89 264
3 9 10 219
3 154 204 316
3 137 267 172
3 13 14 209
3 31 172 267
3 12 253 194
3 135 268 173
3 34 173 268
3 6 7 283
3 3 265 17
3 140 279 197
3 23 197 279
3 129 272 174
3 37 174 272
3 141 290 292
3 131 277 175
3 40 175 277
3 101 261 170
3 101 170 292
3 80 81 244
3 133 278 177
3 43 177 278
3 81 190 244
3 120 256 205
3 47 48 287
3 100 281 198
3 54 55 289
3 59 270 179
3 62 271 180
3 57 181 269
3 65 273 183
3 60 184 270
3 127 179 270
3 68 274 185
3 63 186 271
3 71 276 187
3 128 180 271
3 66 188 273
3 126 269 181
3 130 183 273
3 69 189 274
3 127 270 184
3 132 185 274
3 72 191 276
3 128 271 186
3 134 187 276
3 130 273 188
3 132 274 189
3 134 276 191
3 89 192 264
3 24 25 258
3 74 298 211
3 105 320 260
3 87 260 158
3 8 288 291
3 124 254 245
3 83 176 290
3 17 265 154
3 136 193 280
3 45 280 193
3 102 255 286
3 3 18 265
3 8 9 288
3 133 195 278
3 42 278 195
3 158 260 320
3 143 244 293
3 131 196 277
3 55 169 289
3 39 277 196
3 47 287 168
3 126 181 263
3 111 263 181
3 127 184 262
3 112 262 184
3 212 225 299
3 141 292 170
3 213 224 300
3 12 13 253
3 129 199 272
3 214 222 301
3 36 272 199
3 216 221 302
3 113 196 275
3 131 275 196
3 87 88 260
3 88 202 260
3 135 200 268
3 33 268 200
3 123 264 192
3 215 303 228
3 1 8 291
3 137 201 267
3 30 267 201
3 148 251 210
3 125 210 251
3 104 249 218
3 105 260 202
3 145 211 298
3 217 308 231
3 79 80 307
3 24 258 197
3 13 209 253
3 93 232 313
3 1 291 7
3 101 292 176
3 141 314 190
3 102 295 157
3 90 315 192
3 139 204 294
3 85 86 255
3 110 304 214
3 93 313 215
3 103 190 314
3 109 305 213
3 150 192 283
3 108 306 212
3 123 202 264
3 145 252 246
3 142 310 218
3 138 205 266
3 27 266 205
3 99 246 252
3 79 307 245
3 19 294 204
3 2 203 259
3 139 316 204
3 91 218 249
3 129 304 199
3 150 291 288
3 4 312 48
3 110 199 304
3 104 218 310
3 5 54 311
3 135 305 200
3 109 200 305
3 137 306 201
3 140 207 279
3 108 201 306
3 98 285 227
3 142 218 261
3 97 284 226
3 27 28 266
3 96 282 223
3 22 279 207
3 74 75 298
3 5 311 53
3 30 31 267
3 4 49 312
3 33 34 268
3 56 57 269
3 59 60 270
3 36 37 272
3 62 63 271
3 65 66 273
3 68 69 274
3 22 23 279
3 39 40 277
3 71 72 276
3 42 43 278
3 45 46 280
3 129 223 282
3 82 83 290
3 111 215 263
3 112 217 262
3 135 226 284
3 105 194 317
3 137 227 285
3 0 315 90
3 19 20 294
3 192 315 283
3 113 275 216
3 215 313 263
3 80 244 307
3 96 214 282
3 97 213 284
3 144 253 209
3 98 212 285
3 156 296 208
3 103 208 293
3 214 304 282
3 0 6 315
3 52 53 318
3 49 50 319
3 213 305 284
3 212 306 285
3 104 310 182
3 182 310 203
3 159 212 299
3 160 213 300
3 161 214 301
3 9 219 288
3 162 216 302
3 163 308 217
3 164 303 215
3 121 243 296
3 75 247 298
3 143 307 244
3 126 313 232
3 114 302 221
3 116 301 222
3 118 300 224
3 119 299 225
3 117 228 303
3 52 318 230
3 115 231 308
3 50 233 319
3 166 230 318
3 167 319 233
3 139 249 316
3 142 259 203
3 143 245 307
3 194 253 317
3 145 298 247
3 104 316 249
3 142 261 309
3 142 309 259
3 157 295 209
3 103 314 248
3 49 319 312
3 53 311 318
3 146 259 309
3 166 318 311
3 142 203 310
3 167 312 319
3 102 286 295
3 144 209 295
3 126 263 313
3 101 309 261
3 144 286 320
3 129 282 304
3 135 284 305
3 144 295 286
3 137 285 306
3 105 317 320
3 144 317 253
3 6 283 315
3 158 320 286
3 144 320 317
CELL_TYPES 549
5
5
5
5
5
5
5
5
5
5
5
5
5
5
5
5
5
5
5
5
5
5
5
5
5
5
5
5
5
5
5
5
5
5
5
5
5
5
5
5
5
5
5
5
5
5
5
5
5
5
5
5
5
5
5
5
5
5
5
5
5
5
5
5
5
5
5
5
5
5
5
5
5
5
5
5
5
5
5
5
5
5
5
5
5
5
5
5
5
5
5
5
5
5
5
5
5
5
5
5
5
5
5
5
5
5
5
5
5
5
5
5
5
5
5
5
5
5
5
5
5
5
5
5
5
5
5
5
5
5
5
5
5
5
5
5
5
5
5
5
5
5
5
5
5
5
5
5
5
5
5
5
5
5
5
5
5
5
5
5
5
5
5
5
5
5
5
5
5
5
5
5
5
5
5
5
5
5
5
5
5
5
5
5
5
5
5
5
5
5
5
5
5
5
5
5
5
5
5
5
5
5
5
5
5
5
5
5
5
5
5
5
5
5
5
5
5
5
5
5
5
5
5
5
5
5
5
5
5
5
5
5
5
5
5
5
5
5
5
5
5
5
5
5
5
5
5
5
5
5
5
5
5
5
5
5
5
5
5
5
5
5
5
5
5
5
5
5
5
5
5
5
5
5
5
5
5
5
5
5
5
5
5
5
5
5
5
5
5
5
5
5
5
5
5
5
5
5
5
5
5
5
5
5
5
5
5
5
5
5
5
5
5
5
5
5
5
5
5
5
5
5
5
5
5
5
5
5
5
5
5
5
5
5
5
5
5
5
5
5
5
5
5
5
5
5
5
5
5
5
5
5
5
5
5
5
5
5
5
5
5
5
5
5
5
5
5
5
5
5
5
5
5
5
5
5
5
5
5
5
5
5
5
5
5
5
5
5
5
5
5
5
5
5
5
5
5
5
5
5
5
5
5
5
5
5
5
5
5
5
5
5
5
5
5
5
5
5
5
5
5
5
5
5
5
5
5
5
5
5
5
5
5
5
5
5
5
5
5
5
5
5
5
5
5
5
5
5
5
5
5
5
5
5
5
5
5
5
5
5
5
5
5
5
5
5
5
5
5
5
5
5
5
5
5
5
5
5
5
5
5
5
5
5
5
5
5
5
5
5
5
5
5
5
5
5
5
5
5
5
5
5
5
5
5
5
5
5
5
5
5
5
5
5
5
5
5
5
5
5
5
5
5
5
5
5
5
5
5
5
5
5
5
5
5
5
5
5
5
5
5
5
5
5
5
5
5
5
5
POINT_DATA 321
SCALARS scalars float 1
LOOKUP_TABLE default
0.073130604234794
0.070465228100220
-0.032503938926188
0.052170781452056
0.000399342083555
0.000469551036476
0.062054836436510
0.062178018343270
0.035985056984068
0.008471545399759
-0.024625753226219
-0.042890720630423
-0.042700514443486
-0.019557607562882
0.007339442525021
0.011172247462982
0.043376683150815
0.054671406888175
0.051743083743357
0.062611857665907
0.077812341391391
0.089337006128566
0.096677148672805
0.100054211662717
0.101090102611092
0.100034598166821
0.097304221866996
0.093695956307737
0.089473218572702
0.085285629052164
0.080690245366939
0.076249075783822
0.071801711778414
0.067195293172038
0.062927526022982
0.058672395611167
0.054300672395441
0.050184972493774
0.046049875385629
0.041767158419488
0.037750020503630
0.033552932661841
0.029316332338023
0.025304530325359
0.021186072538002
0.016946652638440
0.012813883216433
0.008594052878448
0.004460934029800
0.000161985373887
0.000201547907208
0.000157158264989
0.000260243378191
0.000230074010800
0.004157754158005
0.008629706213815
0.012415125660300
0.016970463184808
0.021211106767702
0.025053064048017
0.029295146751852
0.033494463687970
0.037383000987641
0.041798303535947
0.046000289913807
0.050027638394810
0.054577773601784
0.059016511994443
0.063262228067202
0.068205880603795
0.072831859570351
0.077460448453702
0.082236395810765
0.086479136633737
0.090272247472046
0.093981489816665
0.097027369619728
0.097831830184630
0.099772357718879
0.095750568864636
0.096184729940386
0.087759347068510
0.080821891254662
0.069147228821719
0.053348627669749
0.034636527307024
-0.004097740386895
-0.045366176427401
-0.048458159371524
-0.002232397621004
0.035541589187858
0.076865756958937
0.097041851834524
0.014841761388981
0.026974204819332
0.039323306180085
0.051818306206081
0.064909439460147
0.079265523064706
0.093189617102658
0.100870534830265
0.054938771347911
0.025435639663172
0.093989555313412
0.046176305330592
-0.060922827650275
0.007834937218347
0.007847190924031
0.085080765955369
0.071397646553464
0.058182225142318
0.021191307072628
0.033442182509029
0.045616308196833
0.045745260964007
0.033048438983665
0.058680459110101
0.020743782595065
0.072752090046439
0.087273503106656
0.097785232653879
0.088633687919434
0.101016421397912
-0.001802501482744
0.098302363404573
0.097106256653225
0.014568039196751
0.027100795919143
0.039488929205311
0.052309373317157
0.052158043543105
0.039860914007595
0.065671246481310
0.027402429820380
0.079802871456263
0.065056395446749
0.014995916757964
0.078505982543513
0.091244269931713
0.067497088368041
0.097686526207473
0.069347987135696
0.045593335879675
0.098275760293782
-0.034978183050245
0.091703516206034
0.057493758296082
0.042701916592331
0.098428847902180
0.005428247656161
0.032755095838947
0.100055228942848
-0.033535315258306
0.102000693874141
0.047611569711619
0.098820382788839
0.085409287509836
0.001843338997788
-0.016090377959449
0.088610926187983
0.073968552356097
0.060262449591364
0.047503207747960
0.035123553988430
0.022851602505632
0.010008203223629
0.004707224357983
0.005217300306315
0.011180407769085
0.011021811111131
0.080898833146082
0.081469281779674
0.074492967881417
0.061373300437929
0.048730629983853
0.036295581484829
0.066891921442735
0.023885784380692
0.087768455767223
0.023864883221079
0.036122180475290
0.018615503994879
0.035266057709597
0.048700386062849
0.030888071126096
0.061840028933536
0.043301525094397
0.076143491769263
0.056189984586866
0.069837096580736
0.089791254877235
0.084226341441821
0.023303595915875
0.018365916635965
-0.048677355923765
0.030711689710011
0.043222001640931
0.100101423003445
0.100395333536889
0.055883871969626
0.068814291822519
0.082183781246207
-0.047809425593151
0.020974770549879
0.055757606730165
0.094683319241778
0.076924498538757
0.094143940109273
0.093631126537007
-0.019899080487604
0.097803217802343
0.088810288301842
0.083516324061744
0.069301818608554
0.056042591410162
0.018390848560760
0.043509559722477
0.031059016601281
0.055890438757433
-0.009897674620775
0.012162571318775
0.041961602138166
0.054664340322328
0.049523202469583
0.068143922293522
0.083062762712986
0.062239941487888
0.075700320895492
0.017309719625718
0.036979069302350
0.003685784957750
0.029725692592311
0.011759359954724
0.003884549756281
0.024335934346432
0.076465935532417
0.062361412446734
0.049232239690451
0.037228230072802
0.025028223291613
0.094536190506904
0.099773028044593
0.089785361985775
0.096040216245710
0.088269954804123
0.095673850784823
0.090871461091296
0.094418692142259
0.075454434103344
0.061260083182405
0.098525102003456
0.098985127250513
0.094281195230188
-0.035992138213591
0.100150174787456
0.030418145316868
0.097258699604890
0.101134866284805
0.100106937596636
0.045315791789456
-0.052016215557777
0.057619011223197
0.029496040489252
0.017721087527606
-0.012401404342468
0.052389623416533
0.091054875430674
0.078251018319820
0.064806209761447
0.014319814537448
0.026809344385905
0.039263645401480
0.052005383043318
0.051957978217739
0.065425166053897
0.041641201586120
0.079501682072231
0.039494509861339
0.027063062571179
0.097566597329796
0.014627289128305
0.101579512461567
0.053153934730135
0.049535638479057
0.066080206043054
0.080025788261569
-0.004492706419470
0.007370753729735
0.019232180602994
0.007482330912945
0.070508961713215
0.042387894882849
0.077815697721603
0.090380755037877
0.069608594358989
-0.007713763764537
0.094408870860333
0.054517673353951
0.091532847495697
0.086111274598644
0.072423150777149
0.058513318775010
0.045741475100221
0.020093860435253
0.055329361538151
0.068175072808642
0.081773475317854
0.095944737373626
0.033303681470979
0.051532546734436
0.042349953543610
0.002467036902937
0.002622785753717
0.015572925224624
0.076488657843236
0.053189815004112
0.054594164513647
-0.050192866888193
0.002356929919954
0.002251874176979
-0.043110265200878
