# vtk DataFile Version 3.0
    
ASCII
DATASET UNSTRUCTURED_GRID
POINTS 626 float
0 2 0
0 1 0
2 1 0
2 0 0
13 0 0
13 2 0
0 1.75 0
0 1.5 0
0 1.25 0
0.226857 1 0
0.438276 1 0
0.635305 1 0
0.818926 1 0
0.990049 1 0
1.14953 1 0
1.29815 1 0
1.43666 1 0
1.56574 1 0
1.68604 1 0
1.79815 1 0
1.90263 1 0
2 0.906765 0
2 0.800491 0
2 0.679355 0
2 0.541277 0
2 0.383888 0
2 0.204489 0
2.25 0 0
2.5 0 0
2.75 0 0
3 0 0
3.25 0 0
3.5 0 0
3.75 0 0
4 0 0
4.25 0 0
4.5 0 0
4.75 0 0
5 0 0
5.25 0 0
5.5 0 0
5.75 0 0
6 0 0
6.25 0 0
6.5 0 0
6.75 0 0
7 0 0
7.25 0 0
7.5 0 0
7.75 0 0
8 0 0
8.25 0 0
8.5 0 0
8.75 0 0
9 0 0
9.25 0 0
9.5 0 0
9.75 0 0
10 0 0
10.25 0 0
10.5 0 0
10.75 0 0
11 0 0
11.25 0 0
11.5 0 0
11.75 0 0
12 0 0
12.25 0 0
12.5 0 0
12.75 0 0
13 0.25 0
13 0.5 0
13 0.75 0
13 1 0
13 1.25 0
13 1.5 0
13 1.75 0
12.75 2 0
12.5 2 0
12.25 2 0
12 2 0
11.75 2 0
11.5 2 0
11.25 2 0
11 2 0
10.75 2 0
10.5 2 0
10.25 2 0
10 2 0
9.75 2 0
9.5 2 0
9.25 2 0
9 2 0
8.75 2 0
8.5 2 0
8.25 2 0
8 2 0
7.75 2 0
7.5 2 0
7.25 2 0
7 2 0
6.75 2 0
6.5 2 0
6.25 2 0
6 2 0
5.75 2 0
5.5 2 0
5.25 2 0
5 2 0
4.75 2 0
4.5 2 0
4.25 2 0
4 2 0
3.75 2 0
3.5 2 0
3.25 2 0
3 2 0
2.75 2 0
2.5 2 0
2.25 2 0
2 2 0
1.75 2 0
1.5 2 0
1.25 2 0
1 2 0
0.75 2 0
0.5 2 0
0.25 2 0
2.95338 0.953383 0
3.96059 0.992317 0
11.8483 0.997154 0
7.125 1 0
10.6354 1.01678 0
9.39984 0.984403 0
5.38162 0.982277 0
8.35971 0.98956 0
6.28298 0.840425 0
1.95346 1.48598 0
2.44867 1.27986 0
2.44596 0.853628 0
1.49199 1.45855 0
4.66419 0.748943 0
11.2846 1.30862 0
10.0064 1.31111 0
7.72216 1.30432 0
1.06979 1.42465 0
7.67979 0.663756 0
10.0666 0.665658 0
11.3188 0.652344 0
4.80726 1.32938 0
3.45441 1.36903 0
2.38748 0.462583 0
12.3845 1.3512 0
12.3186 0.622001 0
8.87153 0.619358 0
8.87153 1.38064 0
6.58959 1.4341 0
5.88755 1.3538 0
3.47235 0.609 0
0.571248 1.52174 0
6.69683 0.610129 0
5.75347 0.566286 0
4.29334 1.44315 0
1.74467 1.29059 0
5.07372 0.467338 0
2.87533 0.471735 0
4.18257 0.519581 0
2.95188 1.50102 0
9.5665 0.516125 0
10.8165 0.516125 0
8.18311 0.514865 0
11.7268 1.48928 0
10.7732 1.48928 0
9.52324 1.48928 0
8.22341 1.48989 0
7.26293 1.45748 0
5.36376 1.41439 0
11.875 0.492188 0
2.16341 1.27142 0
2.25957 1.60803 0
2.21909 0.9442 0
7.19096 0.500043 0
1.93105 1.21061 0
3.87265 1.60643 0
6.3466 0.431065 0
2.18851 0.737788 0
10.3431 1.58995 0
12.5852 0.989039 0
6.2471 1.60785 0
10.4114 0.39726 0
1.32791 1.23902 0
4.40216 1.00123 0
9.78485 0.977516 0
11.0348 0.977516 0
7.9609 0.978825 0
6.71046 1.00054 0
5.80969 0.989453 0
3.79612 0.369875 0
3.35283 0.98446 0
4.97847 0.990923 0
8.76368 1 0
9.17696 0.37756 0
8.54978 0.37718 0
1.69212 1.67143 0
0.815176 1.29375 0
1.27244 1.67521 0
10.2202 1.01439 0
11.4407 0.986299 0
7.52173 1.0055 0
4.66811 0.360357 0
12.1438 1.62854 0
9.15996 1.63713 0
8.58588 1.63728 0
0.853564 1.68101 0
6.90603 1.63996 0
0.332567 1.29583 0
12.6198 1.62005 0
12.5869 0.349498 0
2.64607 1.61617 0
4.6039 1.64467 0
11.1081 1.64628 0
9.86529 1.66128 0
7.88933 1.64755 0
3.25992 0.344405 0
11.5047 0.38115 0
5.47282 0.340554 0
11.148 0.341554 0
9.8833 0.342094 0
7.87085 0.328786 0
2.62842 0.626447 0
2.67869 1.05869 0
12.2305 0.938336 0
5.01844 1.64911 0
6.31198 1.22935 0
3.24627 1.65407 0
1.55972 1.19587 0
12.179 0.329859 0
5.68835 1.66433 0
7.49397 0.349469 0
3.1349 0.680285 0
8.5449 1.28938 0
12.0433 1.29967 0
9.19782 1.28894 0
6.9326 1.27867 0
7.54752 1.67793 0
11.4567 1.6875 0
3.10703 1.23548 0
5.9679 0.319627 0
2.67435 0.271517 0
8.55384 0.722448 0
0.307797 1.64793 0
9.18825 0.723719 0
2.22299 0.290045 0
3.57129 1.13014 0
3.78513 0.747462 0
1.06968 1.22872 0
2.41198 1.09348 0
10.4316 0.736205 0
5.18206 1.2645 0
2.16537 1.11492 0
6.94482 0.335409 0
5.45898 0.737183 0
10.4321 1.18481 0
11.6372 0.712249 0
5.54515 1.26635 0
8.8713 0.316295 0
4.68349 1.12034 0
6.64346 1.71409 0
12.6861 1.29675 0
12.69 0.720789 0
3.54595 1.73326 0
4.14362 1.71366 0
2.22527 0.52011 0
6.55008 0.289028 0
2.05335 1.7409 0
4.89848 0.328348 0
6.07426 0.656733 0
4.02168 1.29958 0
7.00637 0.705194 0
8.8734 1.69014 0
3.4979 0.348136 0
9.04665 1.00817 0
1.74272 1.13074 0
9.65941 1.23453 0
10.9204 1.23788 0
2.75591 1.26723 0
8.06447 1.23551 0
0.554945 1.23243 0
6.0028 1.69928 0
1.29207 1.42522 0
2.12801 0.851518 0
7.32781 0.731132 0
12.2946 1.76499 0
4.43854 0.29814 0
10.5955 1.7246 0
6.46161 0.672898 0
4.17709 0.814983 0
12.0962 0.67911 0
2.40495 0.660722 0
1.75043 1.48612 0
10.6334 0.271568 0
10.1534 0.26854 0
0.620352 1.76108 0
7.33839 1.1872 0
11.5334 1.28078 0
4.56826 1.41874 0
2.86863 1.72581 0
10.095 1.73595 0
4.01645 0.295206 0
4.91995 0.737186 0
8.18393 0.792373 0
9.55868 0.792862 0
10.8087 0.792862 0
9.39524 0.266894 0
8.10958 0.259564 0
6.02642 1.15809 0
11.8472 1.73735 0
9.37579 1.74267 0
2.85984 0.721394 0
2.14853 1.46687 0
5.74097 0.323812 0
5.19052 0.784529 0
2.6492 0.842198 0
4.45296 0.576569 0
8.33181 1.73999 0
7.14663 1.73389 0
9.82286 0.674988 0
11.0488 0.66733 0
7.93271 0.669012 0
10.8821 1.74605 0
1.21491 1.14264 0
1.48818 1.65705 0
5.23806 0.270409 0
2.88985 0.226557 0
5.37298 1.82819 0
11.8862 0.240167 0
4.42407 1.79785 0
1.85039 1.1014 0
0.920731 1.15257 0
3.56147 0.820329 0
2.01999 1.32316 0
5.60959 0.889321 0
11.8173 1.2444 0
7.50311 1.42667 0
10.6882 1.24628 0
6.46341 1.02346 0
2.09564 0.955336 0
9.41517 1.23274 0
12.3714 0.203188 0
3.68123 1.32078 0
1.87581 1.34307 0
1.03642 1.64176 0
8.32429 1.23371 0
2.41709 0.295163 0
7.29516 0.243408 0
4.84454 1.79121 0
2.29799 1.37918 0
8.39232 0.20163 0
10.9249 0.250737 0
2.46767 1.71864 0
6.3745 1.78956 0
1.96747 1.0839 0
0.872694 1.46918 0
12.3581 1.10392 0
11.2492 1.07528 0
10.0027 1.06129 0
9.66147 1.74266 0
7.4856 0.581134 0
2.28846 1.17979 0
7.74424 1.06521 0
8.07512 1.80232 0
3.88374 1.81215 0
11.3612 0.214697 0
6.36606 0.201723 0
11.8361 0.7381 0
4.81034 0.534685 0
9.67451 0.250146 0
1.83327 1.81321 0
10.135 1.50123 0
4.43042 0.790017 0
3.17824 1.44449 0
0.201535 1.44346 0
10.5752 0.579209 0
3.90311 0.546162 0
0.729925 1.1591 0
1.60457 1.34168 0
10.3683 1.80618 0
6.10402 1.4349 0
1.62551 1.10443 0
1.19518 1.29851 0
12.7818 1.09231 0
10.5364 1.45238 0
2.28865 0.805779 0
4.14872 1.11386 0
2.90852 1.12072 0
1.44521 1.15571 0
9.3312 0.576902 0
1.1351 1.82989 0
11.635 1.8113 0
3.1094 1.79653 0
8.96573 0.81293 0
10.375 0.187392 0
10.2004 1.20758 0
7.36465 1.80862 0
2.08459 0.737304 0
8.40622 0.594394 0
2.11911 0.616806 0
12.4294 0.811035 0
10.8392 1.05461 0
9.57985 1.05089 0
6.93099 1.09433 0
6.41174 1.42601 0
8.16389 1.05331 0
8.98432 1.2045 0
9.125 0.180982 0
1.39019 1.83569 0
9.75835 1.45402 0
11.0228 1.45365 0
6.04043 0.913604 0
8.625 0.180524 0
5.76474 1.19939 0
10.2749 0.554996 0
2.46441 1.49747 0
7.93661 1.42508 0
6.80606 0.776872 0
3.32598 0.76116 0
11.281 1.54078 0
12.8114 0.910427 0
2.56171 0.457677 0
3.84544 0.168191 0
7.71617 1.52981 0
9.99791 0.855567 0
11.2413 0.853514 0
7.75524 0.854882 0
6.74703 1.23246 0
5.66608 1.45007 0
11.3345 0.4374 0
7.66347 0.20764 0
3.11207 0.200467 0
1.60896 1.82956 0
5.36558 1.19444 0
6.1361 0.225571 0
6.17488 1.81934 0
11.9503 1.47187 0
12.7935 0.500083 0
12.795 1.49924 0
3.14207 0.883053 0
9.29569 1.47206 0
3.36032 1.79808 0
1.8916 1.63175 0
4.3817 1.23571 0
4.0639 1.4702 0
1.82667 1.21131 0
2.25153 1.80405 0
7.5585 1.20736 0
11.2668 1.78796 0
7.72985 1.78827 0
8.55284 1.0903 0
8.4416 1.47198 0
2.05422 1.17386 0
0.954386 1.31474 0
3.85458 1.17273 0
11.6289 0.213459 0
12.784 1.77965 0
12.7888 0.210956 0
3.32398 0.178602 0
2.36024 0.955326 0
5.04263 1.44092 0
10.2305 0.790969 0
7.03233 1.45899 0
11.655 0.898069 0
3.29258 1.20357 0
8.62063 1.82684 0
12.1071 1.82618 0
12.0751 1.09171 0
9.12678 1.82722 0
7.52617 0.79153 0
0.191565 1.18943 0
3.66697 0.555977 0
6.875 1.8336 0
5.84254 0.767558 0
5.17693 1.06876 0
4.76735 0.904533 0
9.06816 0.555382 0
2.1224 0.445093 0
7.09483 0.18342 0
1.60706 1.5486 0
8.67529 0.555668 0
3.9643 0.771021 0
2.66147 1.79888 0
12.1955 1.42843 0
4.97847 1.20247 0
9.06609 1.44656 0
1.47136 1.30127 0
6.77181 0.204169 0
8.67264 1.44487 0
6.55937 0.484697 0
6.80851 1.45971 0
10.0243 0.473309 0
6.92611 0.532393 0
4.64633 0.157481 0
4.8071 1.54991 0
6.26972 0.640386 0
11.5007 0.561584 0
3.78289 0.939001 0
10.4305 0.935276 0
7.73238 0.467538 0
11.4954 1.4879 0
5.12216 1.82433 0
3.07119 0.490301 0
3.28346 0.547014 0
11.4628 0.784025 0
2.53129 0.982533 0
6.53164 1.22271 0
12.5293 0.571587 0
12.57 1.43703 0
5.34274 0.519906 0
2.14975 0.1494 0
5.40431 0.164118 0
4.6245 1.84675 0
12.0423 0.874187 0
9.875 1.84483 0
0.728876 1.56472 0
5.81243 1.81175 0
0.442416 1.44989 0
2.53213 0.745749 0
3.41874 1.57237 0
5.90032 0.167671 0
3.6741 0.17685 0
1.33927 1.10883 0
6.56773 0.847535 0
7.33138 0.923337 0
12.125 0.150687 0
5.56824 0.533373 0
0.180152 1.81993 0
1.37197 1.54962 0
8.72768 0.7797 0
12.342 0.427675 0
8.73165 1.23495 0
12.5162 1.81726 0
7.11346 1.22118 0
10.5871 0.810122 0
12.6002 0.156565 0
2.77294 1.48851 0
8.39276 0.802787 0
9.33809 0.796006 0
9.87949 0.154517 0
11.125 0.14831 0
11.6811 0.490324 0
0.419719 1.16017 0
5.60388 1.82384 0
0.389413 1.81219 0
0.650645 1.36364 0
7.87986 0.150203 0
11.6229 1.10089 0
0.875 1.86428 0
4.40664 1.60362 0
6.22504 1.03299 0
12.0665 0.489915 0
2.07535 1.05152 0
2.0613 1.5867 0
4.58952 0.913012 0
2.6072 1.38478 0
11.0169 0.466091 0
9.76267 0.470763 0
10.2812 1.3793 0
5.84055 1.56995 0
5.23658 1.63262 0
7.88886 1.84763 0
6.44815 1.60255 0
11.1014 1.83606 0
0.466245 1.63857 0
7.98769 0.463851 0
2.57229 1.17776 0
1.18067 1.53704 0
6.7415 0.409304 0
8.08448 1.6128 0
6.95468 0.900265 0
1.66722 1.21131 0
5.57939 1.08687 0
9.972 1.53272 0
4.6489 0.555139 0
4.30638 0.674666 0
12.2113 1.25499 0
2.27129 0.637644 0
2.96979 1.33401 0
5.05854 0.186771 0
5.64656 0.698744 0
6.12143 0.463465 0
0.137897 1.63226 0
3.69441 1.82542 0
9.20938 1.10348 0
5.93403 0.507408 0
11.1734 0.512944 0
1.06921 1.09968 0
2.78937 0.943515 0
2.16297 1.02445 0
8.32574 0.39038 0
5.58223 0.163175 0
12.5464 1.18001 0
2.26163 1.05518 0
3.67079 1.54413 0
12.2454 0.769608 0
4.19173 1.3001 0
3.07088 1.62438 0
5.4886 1.63557 0
2.30796 0.146922 0
1.53033 1.08932 0
8.55842 0.897466 0
2.71993 0.509754 0
9.19133 0.904784 0
7.44052 0.160103 0
12.3892 1.57821 0
2.09168 0.294189 0
4.875 0.128908 0
11.3984 1.17202 0
11.1111 1.19637 0
9.85027 1.20022 0
7.37543 1.62859 0
3.12607 1.06344 0
7.8762 1.18479 0
3.86081 1.40231 0
4.23126 0.185488 0
2.26504 0.415744 0
11.6322 1.64267 0
7.15603 0.793329 0
CELLS 1122 4488
3 332 164 586
3 318 446 128
3 308 622 166
3 586 164 275
3 239 446 318
3 36 622 35
3 622 293 166
3 78 79 539
3 155 279 495
3 155 492 279
3 101 102 267
3 176 467 258
3 229 298 428
3 190 493 289
3 151 428 298
3 55 313 414
3 53 54 265
3 198 253 471
3 28 29 248
3 150 471 253
3 18 19 282
3 158 510 280
3 383 166 488
3 182 459 340
3 21 22 290
3 202 265 487
3 8 477 381
3 191 266 450
3 539 79 292
3 333 438 509
3 500 614 209
3 293 622 36
3 181 260 485
3 44 494 273
3 165 333 509
3 223 280 510
3 70 444 464
3 76 463 445
3 164 375 275
3 82 455 245
3 488 166 296
3 614 275 209
3 98 244 456
3 201 483 265
3 287 552 524
3 10 11 549
3 111 112 271
3 173 416 366
3 181 625 278
3 178 340 459
3 28 248 353
3 149 305 266
3 214 267 497
3 156 497 267
3 166 293 323
3 209 323 293
3 154 487 265
3 181 291 625
3 44 45 494
3 181 354 238
3 11 287 549
3 188 288 387
3 212 495 279
3 140 289 493
3 120 274 453
3 153 558 537
3 70 71 444
3 75 76 445
3 181 238 367
3 165 609 248
3 211 279 492
3 326 564 498
3 154 265 483
3 206 505 262
3 132 262 505
3 153 297 558
3 134 321 261
3 236 558 335
3 288 566 387
3 176 567 467
3 55 56 313
3 158 478 339
3 266 305 450
3 98 403 244
3 254 339 478
3 82 245 398
3 490 612 210
3 612 292 210
3 198 339 253
3 74 445 268
3 72 269 444
3 164 309 375
3 92 93 279
3 147 326 498
3 101 267 479
3 165 248 333
3 163 299 385
3 64 462 372
3 242 492 413
3 514 407 153
3 189 421 301
3 138 368 256
3 202 419 265
3 229 525 298
3 85 86 294
3 150 253 349
3 138 356 368
3 162 556 271
3 215 381 477
3 46 485 494
3 60 61 300
3 328 506 572
3 176 258 440
3 269 407 514
3 201 265 414
3 60 300 401
3 260 494 485
3 580 378 307
3 163 350 299
3 176 264 435
3 175 469 540
3 85 294 329
3 335 548 462
3 58 59 301
3 180 290 392
3 160 530 295
3 29 333 248
3 201 414 313
3 176 440 264
3 301 421 498
3 203 377 439
3 134 261 341
3 242 413 591
3 181 485 354
3 281 591 413
3 199 309 321
3 132 344 262
3 263 548 374
3 548 177 374
3 159 524 552
3 175 540 303
3 7 8 381
3 187 407 269
3 181 499 260
3 115 399 448
3 36 500 293
3 239 318 509
3 351 397 555
3 185 584 392
3 142 304 507
3 215 287 524
3 118 453 359
3 199 491 266
3 149 266 491
3 58 301 546
3 165 509 318
3 170 405 310
3 160 424 530
3 146 506 328
3 221 366 416
3 214 479 267
3 172 417 329
3 194 328 310
3 213 351 555
3 94 324 472
3 230 394 285
3 169 312 382
3 111 271 336
3 221 580 307
3 142 507 426
3 54 414 265
3 53 265 419
3 241 342 474
3 173 366 317
3 224 372 462
3 197 308 383
3 158 280 478
3 166 383 308
3 234 448 399
3 251 400 483
3 155 413 492
3 236 335 532
3 119 120 453
3 100 479 325
3 220 329 417
3 130 474 342
3 172 329 294
3 168 311 396
3 91 475 317
3 206 262 402
3 80 316 473
3 174 423 286
3 94 95 324
3 177 548 335
3 196 418 315
3 183 271 371
3 136 295 530
3 112 371 271
3 192 311 326
3 193 312 327
3 169 300 358
3 310 405 544
3 187 269 427
3 90 91 317
3 299 486 385
3 74 268 390
3 80 81 316
3 178 368 356
3 161 320 592
3 185 392 290
3 156 267 569
3 199 266 482
3 118 119 453
3 99 100 325
3 142 426 417
3 168 313 376
3 177 335 558
3 102 360 267
3 271 556 336
3 315 418 557
3 108 355 508
3 196 420 579
3 137 299 350
3 172 344 284
3 154 483 400
3 179 422 359
3 213 555 302
3 19 337 282
3 129 296 393
3 191 393 296
3 312 541 382
3 169 382 300
3 189 300 382
3 161 533 320
3 219 305 501
3 142 417 616
3 143 416 617
3 175 303 343
3 189 401 300
3 197 478 280
3 157 387 566
3 21 290 346
3 209 293 500
3 191 561 266
3 270 114 448
3 74 75 445
3 71 72 444
3 196 579 341
3 136 530 345
3 72 427 269
3 181 278 499
3 164 321 309
3 183 451 271
3 204 362 552
3 227 546 301
3 173 347 283
3 311 545 396
3 168 396 313
3 201 313 396
3 44 273 373
3 67 348 532
3 240 352 457
3 135 457 352
3 183 590 601
3 121 439 377
3 174 286 352
3 230 285 573
3 150 380 471
3 61 358 300
3 2 559 361
3 92 279 475
3 82 83 455
3 162 271 451
3 184 373 273
3 168 326 311
3 169 327 312
3 590 114 270
3 149 501 305
3 233 411 387
3 227 498 564
3 87 88 307
3 11 384 287
3 211 475 279
3 274 449 560
3 179 274 560
3 228 572 506
3 170 310 328
3 125 302 555
3 183 371 590
3 212 472 324
3 116 117 306
3 247 592 320
3 93 472 279
3 212 279 472
3 97 98 456
3 178 459 259
3 143 580 416
3 277 461 393
3 461 129 393
3 209 275 375
3 125 126 302
3 190 289 389
3 184 273 496
3 284 616 417
3 283 617 416
3 257 421 382
3 189 382 421
3 214 325 479
3 211 317 475
3 199 321 481
3 210 473 316
3 195 513 345
3 168 376 564
3 229 318 322
3 298 392 584
3 56 376 313
3 194 433 328
3 230 595 394
3 108 109 355
3 139 392 298
3 195 434 513
3 141 375 309
3 145 351 362
3 218 359 422
3 188 387 411
3 206 431 468
3 232 508 355
3 261 321 516
3 246 471 380
3 14 15 330
3 164 516 321
3 177 297 374
3 67 68 348
3 274 377 449
3 140 385 486
3 402 565 143
3 181 367 291
3 50 51 314
3 136 276 502
3 362 522 552
3 18 282 388
3 9 549 477
3 136 418 276
3 186 391 294
3 172 294 391
3 197 280 528
3 565 378 143
3 218 543 306
3 251 610 400
3 84 85 329
3 217 464 444
3 216 445 463
3 45 46 494
3 171 304 342
3 32 280 465
3 207 364 432
3 206 365 431
3 231 363 474
3 223 465 280
3 174 324 576
3 236 532 348
3 285 562 573
3 200 400 281
3 9 10 549
3 225 320 533
3 229 609 318
3 167 306 543
3 191 296 379
3 363 583 474
3 182 337 361
3 187 363 407
3 231 407 363
3 200 281 413
3 174 576 423
3 104 288 442
3 104 523 288
3 151 584 272
3 207 432 511
3 32 528 280
3 223 509 438
3 171 443 316
3 210 316 443
3 180 346 290
3 211 447 317
3 173 317 447
3 178 319 340
3 90 317 366
3 192 283 409
3 193 284 408
3 95 370 324
3 173 283 416
3 172 284 417
3 145 255 389
3 188 442 288
3 208 476 433
3 192 617 283
3 193 616 284
3 178 356 319
3 212 324 458
3 174 458 324
3 194 412 286
3 324 370 576
3 208 433 369
3 236 537 558
3 194 286 620
3 61 62 358
3 87 307 386
3 169 358 563
3 214 469 325
3 175 325 469
3 22 404 290
3 79 473 292
3 210 292 473
3 232 501 467
3 56 57 376
3 219 556 305
3 138 573 562
3 184 588 441
3 192 326 431
3 193 327 432
3 186 386 307
3 151 353 428
3 220 417 426
3 150 526 380
3 86 386 294
3 186 294 386
3 19 20 337
3 159 522 302
3 150 601 526
3 233 387 315
3 51 357 314
3 5 77 463
3 5 463 76
3 4 70 464
3 4 464 69
3 137 340 319
3 28 353 606
3 137 560 449
3 166 582 296
3 184 441 373
3 153 602 297
3 190 389 330
3 178 259 368
3 217 537 348
3 150 349 601
3 106 107 334
3 65 66 335
3 1 9 477
3 176 435 605
3 194 310 412
3 135 412 310
3 158 339 425
3 179 453 274
3 241 443 342
3 213 302 522
3 213 362 351
3 110 111 336
3 281 400 610
3 224 462 548
3 204 552 384
3 120 377 274
3 133 311 409
3 192 409 311
3 132 312 408
3 193 408 312
3 151 298 584
3 217 514 537
3 179 319 356
3 164 332 516
3 225 516 332
3 48 49 437
3 162 305 556
3 254 478 383
3 198 471 619
3 197 383 478
3 145 460 255
3 136 502 295
3 184 496 295
3 95 96 370
3 167 604 306
3 63 64 372
3 77 539 463
3 89 90 366
3 29 30 333
3 142 615 304
3 88 521 307
3 221 307 521
3 134 481 321
3 12 13 338
3 186 307 378
3 2 21 346
3 116 306 399
3 159 302 571
3 196 315 420
3 157 420 315
3 182 340 350
3 146 328 433
3 156 569 411
3 287 384 552
3 264 420 435
3 157 435 420
3 189 301 401
3 59 401 301
3 177 558 297
3 151 623 353
3 141 309 482
3 199 482 309
3 252 353 623
3 179 560 319
3 165 318 609
3 145 389 289
3 184 295 502
3 160 295 496
3 303 454 343
3 208 454 303
3 171 342 443
3 152 599 515
3 361 559 459
3 129 488 296
3 115 116 399
3 160 499 424
3 278 424 499
3 77 78 539
3 182 452 337
3 1 477 8
3 147 431 326
3 148 432 327
3 270 601 590
3 198 425 339
3 179 356 422
3 34 622 308
3 73 74 390
3 285 585 543
3 117 118 489
3 228 553 314
3 51 52 357
3 141 379 323
3 50 314 553
3 232 355 501
3 131 531 303
3 208 303 531
3 48 437 611
3 34 308 429
3 185 406 584
3 157 315 387
3 174 352 458
3 252 484 613
3 248 428 353
3 243 540 469
3 205 415 397
3 216 539 612
3 228 314 572
3 139 322 512
3 102 103 360
3 172 391 344
3 262 344 391
3 170 572 314
3 215 549 287
3 276 480 592
3 227 301 498
3 173 447 347
3 187 427 390
3 162 450 305
3 139 525 322
3 240 458 352
3 131 303 540
3 81 398 316
3 137 449 299
3 15 16 529
3 182 350 452
3 2 361 20
3 242 347 447
3 197 429 308
3 196 341 480
3 234 380 526
3 185 404 406
3 141 581 375
3 140 535 289
3 171 507 304
3 284 344 408
3 235 493 395
3 252 623 484
3 99 325 403
3 167 543 585
3 3 517 26
3 292 612 539
3 43 44 373
3 138 256 573
3 143 365 402
3 206 402 365
3 107 508 334
3 3 27 517
3 218 306 489
3 17 18 388
3 66 532 335
3 23 24 406
3 84 329 570
3 27 28 606
3 112 113 371
3 118 359 489
3 14 330 594
3 106 334 550
3 149 467 501
3 251 483 396
3 201 396 483
3 52 419 357
3 137 350 340
3 170 314 597
3 12 338 384
3 219 519 336
3 22 23 404
3 110 336 519
3 246 619 471
3 238 506 367
3 146 367 506
3 202 357 419
3 39 332 586
3 104 105 523
3 136 557 418
3 11 12 384
3 132 408 344
3 232 467 567
3 13 594 338
3 117 489 306
3 31 465 438
3 103 104 442
3 268 515 599
3 64 65 462
3 20 361 337
3 127 534 551
3 47 611 354
3 136 345 557
3 233 557 345
3 289 535 574
3 171 316 624
3 47 48 611
3 30 31 438
3 123 397 415
3 16 395 529
3 135 310 544
3 140 486 331
3 249 405 487
3 202 487 405
3 139 298 525
3 207 554 615
3 151 272 623
3 145 289 574
3 133 545 311
3 132 541 312
3 175 618 325
3 41 320 598
3 318 595 322
3 304 615 554
3 42 441 527
3 15 529 330
3 121 122 439
3 124 555 397
3 41 527 320
3 128 394 595
3 191 450 393
3 161 592 480
3 242 591 347
3 133 347 591
3 86 87 386
3 245 455 426
3 220 426 455
3 226 563 358
3 225 598 320
3 128 595 318
3 163 452 350
3 215 477 549
3 34 35 622
3 283 347 409
3 133 409 347
3 306 604 399
3 42 43 441
3 253 461 349
3 31 32 465
3 180 596 346
3 204 384 338
3 190 395 493
3 39 518 332
3 244 430 456
3 222 456 430
3 113 114 590
3 243 497 434
3 233 315 557
3 220 570 329
3 255 330 389
3 140 331 535
3 130 342 554
3 179 359 453
3 166 323 582
3 291 476 531
3 208 531 476
3 141 323 581
3 120 121 377
3 254 488 504
3 137 319 560
3 247 320 527
3 24 484 406
3 162 451 603
3 286 412 352
3 135 352 412
3 148 327 593
3 81 82 398
3 209 581 323
3 244 618 343
3 175 343 618
3 126 127 551
3 154 536 487
3 188 360 442
3 0 534 127
3 0 6 534
3 168 564 326
3 169 563 327
3 16 17 607
3 98 99 403
3 205 574 535
3 227 564 376
3 38 39 586
3 334 605 550
3 205 397 351
3 255 338 594
3 190 330 529
3 247 441 588
3 152 363 599
3 185 290 404
3 126 551 302
3 47 354 485
3 250 381 524
3 33 34 429
3 244 343 430
3 144 430 343
3 59 60 401
3 114 115 448
3 46 47 485
3 203 449 377
3 163 282 452
3 229 322 525
3 170 328 572
3 276 418 480
3 205 331 415
3 65 335 462
3 156 434 497
3 204 460 362
3 147 468 431
3 130 470 374
3 263 374 470
3 255 460 338
3 145 362 460
3 225 332 518
3 155 495 538
3 254 504 339
3 198 619 446
3 334 508 567
3 203 299 449
3 32 33 528
3 123 124 397
3 203 486 299
3 197 528 429
3 129 504 488
3 54 55 414
3 30 438 333
3 186 565 391
3 262 391 565
3 341 587 480
3 255 594 330
3 52 53 419
3 247 527 441
3 223 438 465
3 144 343 454
3 230 512 322
3 250 551 534
3 72 73 427
3 122 123 415
3 250 524 571
3 277 603 451
3 144 454 369
3 208 369 454
3 204 338 460
3 147 498 421
3 314 357 597
3 24 25 484
3 264 579 420
3 203 331 486
3 393 450 603
3 203 439 331
3 187 390 599
3 268 599 390
3 191 379 561
3 149 491 467
3 258 467 491
3 39 40 518
3 163 578 282
3 234 526 448
3 291 367 476
3 146 476 367
3 248 609 428
3 146 433 476
3 23 406 404
3 83 84 570
3 270 448 526
3 226 358 547
3 62 547 358
3 272 584 406
3 249 544 405
3 253 339 504
3 103 442 360
3 96 97 568
3 202 597 357
3 192 365 617
3 193 364 616
3 200 608 536
3 40 41 598
3 257 382 541
3 207 511 470
3 263 470 511
3 195 577 410
3 249 487 536
3 226 372 436
3 145 574 351
3 219 355 519
3 109 519 355
3 192 431 365
3 193 432 364
3 205 535 331
3 199 481 491
3 258 491 481
3 89 366 521
3 221 521 366
3 195 424 577
3 93 94 472
3 296 582 379
3 79 80 473
3 68 69 542
3 91 92 475
3 251 396 545
3 253 504 461
3 206 468 505
3 257 505 468
3 194 620 369
3 194 369 433
3 233 345 513
3 216 463 539
3 304 554 342
3 41 42 527
3 129 461 504
3 219 336 556
3 100 101 479
3 235 578 385
3 256 600 466
3 25 26 613
3 258 481 440
3 134 440 481
3 224 436 372
3 210 443 490
3 241 490 443
3 176 605 567
3 334 567 605
3 16 607 395
3 163 385 578
3 243 434 410
3 219 501 355
3 211 492 447
3 242 447 492
3 138 422 356
3 195 530 424
3 195 345 530
3 43 373 441
3 36 37 500
3 217 348 542
3 68 542 348
3 144 620 423
3 286 423 620
3 130 554 470
3 107 108 508
3 226 547 372
3 63 372 547
3 73 390 427
3 236 348 537
3 237 605 435
3 218 489 359
3 245 426 507
3 200 457 608
3 212 458 495
3 240 495 458
3 152 612 490
3 222 430 423
3 144 423 430
3 285 394 585
3 182 361 459
3 134 341 579
3 139 512 466
3 238 437 506
3 228 506 437
3 297 602 520
3 261 587 341
3 240 538 495
3 109 110 519
3 254 383 488
3 205 351 574
3 259 600 368
3 88 89 521
3 159 552 522
3 167 585 380
3 349 621 601
3 25 613 484
3 621 183 601
3 13 14 594
3 6 7 589
3 231 520 602
3 2 346 559
3 154 400 536
3 124 125 555
3 273 575 496
3 37 614 500
3 243 410 540
3 131 540 410
3 180 392 466
3 66 67 532
3 272 406 484
3 241 474 583
3 49 50 553
3 282 337 452
3 214 497 469
3 243 469 497
3 105 106 550
3 57 58 546
3 62 63 547
3 246 380 585
3 148 511 432
3 256 466 512
3 239 510 425
3 155 538 413
3 263 511 503
3 148 503 511
3 316 398 624
3 239 425 446
3 325 618 403
3 158 425 510
3 156 411 513
3 233 513 411
3 238 611 437
3 297 520 374
3 160 496 575
3 238 354 611
3 227 376 546
3 57 546 376
3 270 526 601
3 195 410 434
3 256 368 600
3 202 405 597
3 207 615 364
3 282 578 388
3 188 569 360
3 37 38 614
3 235 385 493
3 130 374 520
3 230 322 595
3 156 513 434
3 215 524 381
3 186 378 565
3 288 523 566
3 237 566 523
3 267 360 569
3 216 612 515
3 153 537 514
3 237 550 605
3 83 570 455
3 198 446 425
3 272 484 623
3 257 468 421
3 147 421 468
3 252 606 353
3 180 466 600
3 349 461 621
3 152 583 363
3 134 579 440
3 264 440 579
3 269 514 444
3 216 515 445
3 217 444 514
3 268 445 515
3 331 439 415
3 209 375 581
3 97 456 568
3 187 599 363
3 96 568 370
3 222 370 568
3 183 621 451
3 277 451 621
3 213 522 362
3 196 480 418
3 222 576 370
3 142 364 615
3 142 616 364
3 143 617 365
3 239 509 510
3 113 590 371
3 140 493 385
3 69 464 542
3 223 510 509
3 256 512 573
3 232 567 508
3 323 379 582
3 141 561 379
3 225 533 516
3 261 516 533
3 144 369 620
3 190 529 395
3 218 422 562
3 132 505 541
3 257 541 505
3 263 503 548
3 167 380 604
3 148 436 503
3 224 503 436
3 7 381 589
3 143 378 580
3 184 502 588
3 276 588 502
3 222 423 576
3 200 413 538
3 200 536 400
3 246 394 619
3 259 459 559
3 235 395 607
3 128 619 394
3 225 518 598
3 250 589 381
3 157 566 435
3 237 435 566
3 159 571 524
3 234 604 380
3 26 517 613
3 139 466 392
3 130 520 474
3 231 474 520
3 200 538 457
3 131 410 577
3 17 388 607
3 33 429 528
3 235 388 578
3 262 565 402
3 218 562 543
3 188 411 569
3 49 553 437
3 160 575 499
3 260 499 575
3 226 436 593
3 277 393 603
3 122 415 439
3 246 585 394
3 240 457 538
3 221 416 580
3 161 480 587
3 138 562 422
3 228 437 553
3 217 542 464
3 131 625 531
3 291 531 625
3 234 399 604
3 235 607 388
3 170 597 405
3 249 536 608
3 245 624 398
3 230 573 512
3 153 407 602
3 278 577 424
3 244 403 618
3 252 613 517
3 207 470 554
3 259 596 600
3 231 602 407
3 141 482 561
3 266 561 482
3 273 494 575
3 222 568 456
3 277 621 461
3 220 455 570
3 224 548 503
3 148 593 436
3 229 428 609
3 131 577 625
3 135 608 457
3 105 550 523
3 237 523 550
3 302 551 571
3 250 571 551
3 241 583 490
3 152 490 583
3 162 603 450
3 133 591 610
3 260 575 494
3 128 446 619
3 261 533 587
3 161 587 533
3 285 543 562
3 278 625 577
3 281 610 591
3 250 534 589
3 247 588 592
3 276 592 588
3 40 598 518
3 226 593 563
3 135 544 608
3 245 507 624
3 133 610 545
3 152 515 612
3 171 624 507
3 6 589 534
3 252 517 606
3 346 596 559
3 327 563 593
3 275 614 586
3 38 586 614
3 249 608 544
3 251 545 610
3 27 606 517
3 180 600 596
3 259 559 596
CELL_TYPES 1122
5
5
5
5
5
5
5
5
5
5
5
5
5
5
5
5
5
5
5
5
5
5
5
5
5
5
5
5
5
5
5
5
5
5
5
5
5
5
5
5
5
5
5
5
5
5
5
5
5
5
5
5
5
5
5
5
5
5
5
5
5
5
5
5
5
5
5
5
5
5
5
5
5
5
5
5
5
5
5
5
5
5
5
5
5
5
5
5
5
5
5
5
5
5
5
5
5
5
5
5
5
5
5
5
5
5
5
5
5
5
5
5
5
5
5
5
5
5
5
5
5
5
5
5
5
5
5
5
5
5
5
5
5
5
5
5
5
5
5
5
5
5
5
5
5
5
5
5
5
5
5
5
5
5
5
5
5
5
5
5
5
5
5
5
5
5
5
5
5
5
5
5
5
5
5
5
5
5
5
5
5
5
5
5
5
5
5
5
5
5
5
5
5
5
5
5
5
5
5
5
5
5
5
5
5
5
5
5
5
5
5
5
5
5
5
5
5
5
5
5
5
5
5
5
5
5
5
5
5
5
5
5
5
5
5
5
5
5
5
5
5
5
5
5
5
5
5
5
5
5
5
5
5
5
5
5
5
5
5
5
5
5
5
5
5
5
5
5
5
5
5
5
5
5
5
5
5
5
5
5
5
5
5
5
5
5
5
5
5
5
5
5
5
5
5
5
5
5
5
5
5
5
5
5
5
5
5
5
5
5
5
5
5
5
5
5
5
5
5
5
5
5
5
5
5
5
5
5
5
5
5
5
5
5
5
5
5
5
5
5
5
5
5
5
5
5
5
5
5
5
5
5
5
5
5
5
5
5
5
5
5
5
5
5
5
5
5
5
5
5
5
5
5
5
5
5
5
5
5
5
5
5
5
5
5
5
5
5
5
5
5
5
5
5
5
5
5
5
5
5
5
5
5
5
5
5
5
5
5
5
5
5
5
5
5
5
5
5
5
5
5
5
5
5
5
5
5
5
5
5
5
5
5
5
5
5
5
5
5
5
5
5
5
5
5
5
5
5
5
5
5
5
5
5
5
5
5
5
5
5
5
5
5
5
5
5
5
5
5
5
5
5
5
5
5
5
5
5
5
5
5
5
5
5
5
5
5
5
5
5
5
5
5
5
5
5
5
5
5
5
5
5
5
5
5
5
5
5
5
5
5
5
5
5
5
5
5
5
5
5
5
5
5
5
5
5
5
5
5
5
5
5
5
5
5
5
5
5
5
5
5
5
5
5
5
5
5
5
5
5
5
5
5
5
5
5
5
5
5
5
5
5
5
5
5
5
5
5
5
5
5
5
5
5
5
5
5
5
5
5
5
5
5
5
5
5
5
5
5
5
5
5
5
5
5
5
5
5
5
5
5
5
5
5
5
5
5
5
5
5
5
5
5
5
5
5
5
5
5
5
5
5
5
5
5
5
5
5
5
5
5
5
5
5
5
5
5
5
5
5
5
5
5
5
5
5
5
5
5
5
5
5
5
5
5
5
5
5
5
5
5
5
5
5
5
5
5
5
5
5
5
5
5
5
5
5
5
5
5
5
5
5
5
5
5
5
5
5
5
5
5
5
5
5
5
5
5
5
5
5
5
5
5
5
5
5
5
5
5
5
5
5
5
5
5
5
5
5
5
5
5
5
5
5
5
5
5
5
5
5
5
5
5
5
5
5
5
5
5
5
5
5
5
5
5
5
5
5
5
5
5
5
5
5
5
5
5
5
5
5
5
5
5
5
5
5
5
5
5
5
5
5
5
5
5
5
5
5
5
5
5
5
5
5
5
5
5
5
5
5
5
5
5
5
5
5
5
5
5
5
5
5
5
5
5
5
5
5
5
5
5
5
5
5
5
5
5
5
5
5
5
5
5
5
5
5
5
5
5
5
5
5
5
5
5
5
5
5
5
5
5
5
5
5
5
5
5
5
5
5
5
5
5
5
5
5
5
5
5
5
5
5
5
5
5
5
5
5
5
5
5
5
5
5
5
5
5
5
5
5
5
5
5
5
5
5
5
5
5
5
5
5
5
5
5
5
5
5
5
5
5
5
5
5
5
5
5
5
5
5
5
5
5
5
5
5
5
5
5
5
5
5
5
5
5
5
5
5
5
5
5
5
5
5
5
5
5
5
5
5
5
5
5
5
5
5
5
5
5
5
5
5
5
5
5
5
5
5
5
5
5
5
5
5
5
5
5
5
5
5
5
5
5
5
5
5
5
5
5
5
5
5
5
5
5
5
5
5
5
5
5
5
5
5
5
5
5
5
5
5
5
5
5
5
5
5
5
5
5
5
5
5
5
5
5
5
5
5
5
5
5
5
5
5
5
5
5
5
5
5
5
5
5
5
5
5
5
5
5
5
5
5
5
5
5
5
5
5
5
5
5
5
5
5
5
5
5
5
5
5
5
5
5
5
5
5
5
5
5
5
5
5
5
5
5
5
5
5
5
5
5
5
5
5
5
5
5
5
5
5
5
5
5
5
5
5
5
5
5
5
5
5
5
5
5
5
5
5
5
5
5
5
5
5
5
5
5
5
5
5
5
5
POINT_DATA 626
SCALARS scalars float 1
LOOKUP_TABLE default
0.336859119608633
0.337713861734227
0.020189456277238
0.151801360535766
0.000364921088274
0.000575436437571
0.325043944902847
0.323241800073419
0.326820415377122
0.287421419492766
0.249623002271473
0.221097015307425
0.184183701276373
0.155818620147132
0.133892674411513
0.115138740609872
0.107739892934902
0.101792889629004
0.103329418982686
0.107839994747283
0.141947827088349
0.032581463592677
0.103318129499655
0.125020199441376
0.140714047574652
0.150767351029843
0.153651242143402
0.149842074076943
0.157485087048478
0.169459239271561
0.180106478482356
0.185582287686014
0.186129791387464
0.184188191527477
0.180389008618721
0.176395747317997
0.172321230749918
0.167210916222118
0.162437621833839
0.158252649875470
0.152294037875698
0.147720953679198
0.142362196919453
0.136934508163214
0.131899981157416
0.125812314066199
0.121979572090259
0.116155827268359
0.111027755574437
0.105606417462123
0.100767284314496
0.095692534727933
0.090350413757827
0.085432086900566
0.080296550177240
0.075383232272216
0.070089853715743
0.065020844657179
0.060327816519897
0.055096157566504
0.050295349110210
0.045111527131758
0.040039187244376
0.035507394706070
0.029999055781522
0.024946641120234
0.020135936363925
0.015422209110536
0.010136454740365
0.005626323170641
-0.000107517166934
0.000376163562378
0.000375831607432
0.000125384198977
0.000200841827373
0.000508872509191
-0.000015028168023
0.004927318459426
0.012347480268663
0.014111280955019
0.019963492335934
0.025085876028324
0.029836530531676
0.035620963786307
0.039996097912198
0.044963531223993
0.050434280848188
0.055048716799130
0.060572593515901
0.064851499623973
0.070010295262153
0.075390596069755
0.080137135864887
0.085657480094241
0.090336060203732
0.095662118238624
0.100755150370589
0.105701702426933
0.110466888494147
0.116144819647748
0.121396485493033
0.126558638459858
0.131676536635051
0.136899027971575
0.141953628589749
0.147361143916157
0.152973730356813
0.156824491782425
0.162386125103171
0.167223276600804
0.170984856396958
0.175399010696328
0.179303902370239
0.184084306686221
0.182696007259064
0.183587751642332
0.180753538591523
0.176054504528723
0.164889932067381
0.152539337195353
0.128020932140143
0.107926006480523
0.096474216587011
0.112200493178659
0.150331913535176
0.197286200357716
0.243651347872000
0.283841691949888
0.182421325524570
0.181560500699289
0.022797458479821
0.118576990345560
0.047367988392990
0.072167759697360
0.155248823703601
0.093380990598152
0.135853725879072
0.131477071586490
0.173197419605825
0.145899759387636
0.090839205396563
0.168280864443347
0.034346121943073
0.059760756348714
0.106106872249730
0.142235772950330
0.106867064424604
0.059164939539843
0.034140436813248
0.166593146316587
0.186890514779143
0.150108046575536
0.012549633256110
0.013802426094686
0.082954016237668
0.082928190323221
0.129825480991028
0.144331244441781
0.183985550564142
0.229597061656709
0.127743924527629
0.146908886958043
0.175274533773703
0.088294924426348
0.160470283722296
0.172219383712917
0.176203197869020
0.185682337099371
0.068724320468964
0.043757394054318
0.097131532562275
0.025479637588698
0.044439615660062
0.069546991379648
0.096230340704012
0.116087090366809
0.155315423613455
0.022637161338711
0.146965887354158
0.160792930852439
0.116657417216560
0.117175583477963
0.091286510226449
0.181742229049441
0.134728926608257
0.124934147024507
0.053185779433720
0.008823099282602
0.136957759422740
0.051744756517357
0.113059324854291
0.173645502234574
0.064339653554473
0.039431381599716
0.101471094870052
0.127330715860460
0.146361279719068
0.181748780804628
0.186956463000135
0.163264498140426
0.084948473950663
0.076829452377896
0.089739363678053
0.108246562758049
0.188576186775632
0.108402984413072
0.055732396200078
0.031260609585837
0.110305105066991
0.168064320329636
0.016917899302003
0.076836649821741
0.088910141611900
0.176221064052760
0.123288255633972
0.272008911967127
0.008036267463410
0.009062429743719
0.177482046122443
0.170082490746056
0.038155256540827
0.063174172418395
0.103178833123725
0.182593461501769
0.029967535037187
0.152905497693724
0.037512359695567
0.062752461310503
0.103320595763645
0.159649384191993
0.174385606165953
0.015568526281102
0.162732572473877
0.135746623760348
0.185421352157891
0.098663459703688
0.016940093299066
0.148865304922544
0.111530112115873
0.183455788753432
0.089571943031546
0.019018865351458
0.076013718497278
0.122681785956071
0.109564025292541
0.031172497347349
0.187935930547382
0.142898398791563
0.163593313956331
0.089349456109474
0.276267832001428
0.076099217103944
0.150835183721005
0.186269336880087
0.182296844909388
0.146471387630799
0.157913213908713
0.051366192790488
0.159730069138906
0.131249204828014
0.122234061246244
0.153120880305458
0.051421245396410
0.027380925209840
0.151577685622934
0.082641273959413
0.168744656799020
0.128596737863290
0.006536899313118
0.006365068334057
0.184923607200992
0.178012202069837
0.142531598582553
0.130923078370853
0.141562341027844
0.163484433671879
0.140135131785804
0.180152224380742
0.121590167598404
0.083014279568359
0.182989138301058
0.079308198063295
0.098634289247937
0.066671748561069
0.041422652728697
0.184110681968720
0.099704390222437
0.233954499333206
0.141802177121228
0.108939109622657
0.102717528415539
0.114082269075520
0.014953868861165
0.172056726851502
0.048703167808822
0.132044593294870
0.176967684898130
0.017873365364251
0.144919859838655
0.100552723853923
0.047472675018811
0.057130472831792
0.221093734190964
0.114235470084258
0.029671805446326
0.171136612293325
0.182478070786148
0.058589887396664
0.178453244247124
0.163759541709341
0.096836113551232
0.069303971469286
0.044343391996456
0.072289647364563
0.098529615142341
0.141457375791180
0.023059322411215
0.073044489367604
0.173614498409385
0.156110372693214
0.146984429755033
0.158216309349276
0.161924219358299
0.171307519793644
0.093913993523255
0.118726022896171
0.063063726440155
0.038656438760960
0.102159212122966
0.042195324286025
0.126147479172543
0.098256043613744
0.157585920545926
0.173904187802987
0.155470683588415
0.022105072681704
0.171558274025292
0.090059665270562
0.168590502263913
0.185863619881357
0.125613398024689
0.149984017583771
0.023490930311894
0.110712180486797
0.046777201512939
0.132340610505301
0.066907106567810
0.072026224934805
0.012874980556351
0.186652819872385
0.102562540131339
0.143410907104168
0.094031103720053
0.154129646201665
0.115220166312677
0.165822481617019
0.162782694203183
0.092085548777871
0.041254429135404
0.170717360611273
0.135285641984192
0.089298289361140
0.175811093816001
0.013113178850779
0.035269060573883
0.059967894892623
0.066518635620409
0.110761904621953
0.154729401354249
0.105835753032797
0.100060804214726
0.181807494004622
0.033143480126211
0.134345526069392
0.023496157976883
0.165169005959658
0.066262978034933
0.125792819598472
0.057992528906725
0.172431959745426
0.186898166565828
0.291829591814754
0.048325047827667
0.180173969137819
0.197494761659115
0.087106658420353
0.052511682324821
0.140776492180357
0.103163253207464
0.125865349720412
0.004700731627340
0.049070988119864
0.130113677218865
0.178308114728740
0.187139256731213
0.106456664169856
0.073141018388266
0.127656201449477
0.027534242730316
0.182015827405513
0.080731919018665
0.052617739946064
0.056173362911624
0.113923050721355
0.113219973278508
0.092245631692039
0.133464468631213
0.011578310804121
0.043066172305811
0.068175428743339
0.122837007121619
0.133555535757140
0.097225311255422
0.080603835064637
0.077298002696156
0.104198453022129
0.065210693016639
0.039980550669310
0.141529843178095
0.088471124616090
0.147838211160776
0.055138874308112
0.175433508078948
0.102299548716180
0.124926675881707
0.183160100221377
0.034464072807814
0.004201002717446
0.157051681213647
0.182492416203655
0.106322545207017
0.060577831120548
0.035832772118278
0.105375189663504
0.126532804064180
0.150110310088423
0.033178704686668
0.107597080662572
0.179888457116349
0.103499406099041
0.155572337719102
0.139268819091993
0.137941648726271
0.020893986334762
0.003980092048323
0.004139313087008
0.186334111326714
0.073827186213826
0.184385917712024
0.132174780826032
0.174294493816766
0.179484238448135
0.085365045378469
0.155097861012890
0.109649033551607
0.035938024050124
0.105717689426419
0.089524173862671
0.092119922159816
0.107601123006381
0.161445590269587
0.183930616554770
0.027654428057808
0.005316700127510
0.005418847415916
0.184411639770192
0.138336452079699
0.162476566546502
0.055031005535459
0.120235339522794
0.027225890527601
0.189427277625204
0.087997722847138
0.016840818667647
0.018650054137745
0.076877737009720
0.110388340394927
0.290718346213404
0.182923900501740
0.123377878416515
0.145032774445084
0.159274914418300
0.166020125756191
0.079277662097702
0.145940682368932
0.119301988203870
0.095481889812801
0.086230614965761
0.179860404038844
0.172555992957375
0.016054041282633
0.163322100984888
0.079240113973949
0.096708100690926
0.125519353106965
0.086562461692584
0.129320416319204
0.125980950613099
0.058941992202807
0.122967726734519
0.168332175045343
0.166112263848145
0.136982407541398
0.030258198889915
0.183953016637629
0.051805233995031
0.106003441394996
0.030535760966158
0.160129567694472
0.178630565458154
0.183304473785089
0.030375312083703
0.162222077783152
0.131669939729687
0.010450112452187
0.009676748608095
0.155006547391970
0.151606456402127
0.152975872609612
0.168941921427570
0.019155368795879
0.062333693479408
0.202680816624514
0.147177772852619
0.253165939185497
0.156695876160234
0.185640397980366
0.143381629784503
0.182574469696546
0.112315750835632
0.130499198553513
0.114398279472022
0.017305472466595
0.150285203579432
0.295990833559590
0.097365787168090
0.086050461162413
0.012961272855636
0.085718227789095
0.010204419462814
0.119270685110261
0.048204406893104
0.007826135612976
0.182339723168533
0.092534674731449
0.073173782493174
0.062564214857184
0.037379259445517
0.026133659186039
0.256344253200336
0.149897068536194
0.263543031710080
0.214347324246829
0.103176407662796
0.027685577185904
0.171160488800880
0.173469931613577
0.137820266180786
0.019214981543394
0.082060719240989
0.146716817557780
0.170941388327618
0.180412591408102
0.041042087240201
0.065979259281030
0.055001642084383
0.145514229598927
0.157764654842062
0.102435747193273
0.133074268838927
0.037397144628813
0.248988846411821
0.100115429122297
0.178653495861798
0.122388768182582
0.126481420374267
0.098300837538097
0.122425253949550
0.088810792432572
0.150868335340720
0.060019047810737
0.168309834011096
0.174052636467398
0.015704265006569
0.137341593223579
0.188740781263655
0.160853647535705
0.149659321658125
0.138989751106284
0.302305397591030
0.183990170752083
0.075928122321254
0.143436360025532
0.036129723355944
0.143816598002059
0.179391068900051
0.115745009680583
0.094235874042834
0.151574095993917
0.009486428636216
0.135140816963399
0.185382884545359
0.015634455654786
0.178880027988977
0.185325432817830
0.153062013317909
0.152602759382041
0.098089711703756
0.089303275826738
0.165877032426527
0.076400703935347
0.111476522317504
0.012469006281534
0.151632306025506
0.164890206783970
0.032088742581541
0.038368486228168
0.063350854233176
0.113908051576310
0.186953108495225
0.102899359175110
0.183608857002449
0.175803513468819
0.147614272861799
0.026478705120531
0.117902919819078
